G04 #@! TF.GenerationSoftware,KiCad,Pcbnew,8.0.9-8.0.9-0~ubuntu24.04.1*
G04 #@! TF.CreationDate,2025-06-27T01:07:59+00:00*
G04 #@! TF.ProjectId,EP91Starlet,45503931-5374-4617-926c-65742e6b6963,rev?*
G04 #@! TF.SameCoordinates,Original*
G04 #@! TF.FileFunction,Soldermask,Bot*
G04 #@! TF.FilePolarity,Negative*
%FSLAX46Y46*%
G04 Gerber Fmt 4.6, Leading zero omitted, Abs format (unit mm)*
G04 Created by KiCad (PCBNEW 8.0.9-8.0.9-0~ubuntu24.04.1) date 2025-06-27 01:07:59*
%MOMM*%
%LPD*%
G01*
G04 APERTURE LIST*
%ADD10O,1.800000X2.000000*%
%ADD11C,0.600000*%
%ADD12C,1.500000*%
%ADD13C,3.000000*%
%ADD14O,2.700000X3.700000*%
G04 APERTURE END LIST*
D10*
G04 #@! TO.C,U1*
X3288000Y92126000D03*
X6288000Y92126000D03*
X9288000Y92126000D03*
X12288000Y92126000D03*
X15288000Y92126000D03*
X18288000Y92126000D03*
X21288000Y92126000D03*
X24288000Y92126000D03*
X32288000Y92126000D03*
X35288000Y92126000D03*
X38288000Y92126000D03*
X41288000Y92126000D03*
X44288000Y92126000D03*
X47288000Y92126000D03*
X50288000Y92126000D03*
X53288000Y92126000D03*
X56288000Y92126000D03*
X59288000Y92126000D03*
X62288000Y92126000D03*
X65288000Y92126000D03*
X68288000Y92126000D03*
X68288000Y96626000D03*
X65288000Y96626000D03*
X62288000Y96626000D03*
X59288000Y96626000D03*
X56288000Y96626000D03*
X53288000Y96626000D03*
X50288000Y96626000D03*
X47288000Y96626000D03*
X44288000Y96626000D03*
X41288000Y96626000D03*
X38288000Y96626000D03*
X35288000Y96626000D03*
X32288000Y96626000D03*
X24288000Y96626000D03*
X21288000Y96626000D03*
X18288000Y96626000D03*
X15288000Y96626000D03*
X12288000Y96626000D03*
X9288000Y96626000D03*
X6288000Y96626000D03*
X3288000Y96626000D03*
G04 #@! TD*
D11*
G04 #@! TO.C,M3*
X33906000Y68472000D03*
X32956000Y68472000D03*
X32006002Y68472000D03*
X33006000Y77172000D03*
X33906000Y77172000D03*
G04 #@! TD*
D12*
G04 #@! TO.C,M6*
X28302000Y64292004D03*
X21902003Y64292004D03*
X20002000Y64292004D03*
X15702000Y64292004D03*
D11*
X13302003Y63842005D03*
X12302002Y63842005D03*
D12*
X9452000Y64292004D03*
X28752002Y79792001D03*
X26902003Y79792001D03*
X21952000Y79792001D03*
X9902002Y79792001D03*
G04 #@! TD*
D13*
G04 #@! TO.C,J1*
X76144000Y97140000D03*
X88744000Y97140000D03*
G36*
G01*
X74794000Y88240001D02*
X74794000Y91439999D01*
G75*
G02*
X75044001Y91690000I250001J0D01*
G01*
X77243999Y91690000D01*
G75*
G02*
X77494000Y91439999I0J-250001D01*
G01*
X77494000Y88240001D01*
G75*
G02*
X77243999Y87990000I-250001J0D01*
G01*
X75044001Y87990000D01*
G75*
G02*
X74794000Y88240001I0J250001D01*
G01*
G37*
D14*
X80344000Y89840000D03*
X84544000Y89840000D03*
X88744000Y89840000D03*
X76144000Y84340000D03*
X80344000Y84340000D03*
X84544000Y84340000D03*
X88744000Y84340000D03*
G04 #@! TD*
D11*
G04 #@! TO.C,M5*
X75400000Y38185000D03*
X75400000Y39385000D03*
X75400000Y36985000D03*
X75400000Y35785000D03*
X89825000Y42245000D03*
X89825000Y43245000D03*
G04 #@! TD*
G04 #@! TO.C,M1*
X72405000Y53284000D03*
X72405000Y54484000D03*
X72405000Y52084000D03*
X72405000Y50884000D03*
X86830000Y57344000D03*
X86830000Y58344000D03*
G04 #@! TD*
G04 #@! TO.C,R13*
G36*
G01*
X73443500Y67030000D02*
X73443500Y67810000D01*
G75*
G02*
X73513500Y67880000I70000J0D01*
G01*
X74073500Y67880000D01*
G75*
G02*
X74143500Y67810000I0J-70000D01*
G01*
X74143500Y67030000D01*
G75*
G02*
X74073500Y66960000I-70000J0D01*
G01*
X73513500Y66960000D01*
G75*
G02*
X73443500Y67030000I0J70000D01*
G01*
G37*
G36*
G01*
X75043500Y67030000D02*
X75043500Y67810000D01*
G75*
G02*
X75113500Y67880000I70000J0D01*
G01*
X75673500Y67880000D01*
G75*
G02*
X75743500Y67810000I0J-70000D01*
G01*
X75743500Y67030000D01*
G75*
G02*
X75673500Y66960000I-70000J0D01*
G01*
X75113500Y66960000D01*
G75*
G02*
X75043500Y67030000I0J70000D01*
G01*
G37*
G04 #@! TD*
G04 #@! TO.C,R11*
G36*
G01*
X96129000Y68326500D02*
X93279000Y68326500D01*
G75*
G02*
X93029000Y68576500I0J250000D01*
G01*
X93029000Y69301500D01*
G75*
G02*
X93279000Y69551500I250000J0D01*
G01*
X96129000Y69551500D01*
G75*
G02*
X96379000Y69301500I0J-250000D01*
G01*
X96379000Y68576500D01*
G75*
G02*
X96129000Y68326500I-250000J0D01*
G01*
G37*
G36*
G01*
X96129000Y74251500D02*
X93279000Y74251500D01*
G75*
G02*
X93029000Y74501500I0J250000D01*
G01*
X93029000Y75226500D01*
G75*
G02*
X93279000Y75476500I250000J0D01*
G01*
X96129000Y75476500D01*
G75*
G02*
X96379000Y75226500I0J-250000D01*
G01*
X96379000Y74501500D01*
G75*
G02*
X96129000Y74251500I-250000J0D01*
G01*
G37*
G04 #@! TD*
G04 #@! TO.C,F2*
G36*
G01*
X85806000Y66152250D02*
X85806000Y65639750D01*
G75*
G02*
X85587250Y65421000I-218750J0D01*
G01*
X85149750Y65421000D01*
G75*
G02*
X84931000Y65639750I0J218750D01*
G01*
X84931000Y66152250D01*
G75*
G02*
X85149750Y66371000I218750J0D01*
G01*
X85587250Y66371000D01*
G75*
G02*
X85806000Y66152250I0J-218750D01*
G01*
G37*
G36*
G01*
X84231000Y66152250D02*
X84231000Y65639750D01*
G75*
G02*
X84012250Y65421000I-218750J0D01*
G01*
X83574750Y65421000D01*
G75*
G02*
X83356000Y65639750I0J218750D01*
G01*
X83356000Y66152250D01*
G75*
G02*
X83574750Y66371000I218750J0D01*
G01*
X84012250Y66371000D01*
G75*
G02*
X84231000Y66152250I0J-218750D01*
G01*
G37*
G04 #@! TD*
G04 #@! TO.C,R15*
G36*
G01*
X76129000Y68326500D02*
X73279000Y68326500D01*
G75*
G02*
X73029000Y68576500I0J250000D01*
G01*
X73029000Y69301500D01*
G75*
G02*
X73279000Y69551500I250000J0D01*
G01*
X76129000Y69551500D01*
G75*
G02*
X76379000Y69301500I0J-250000D01*
G01*
X76379000Y68576500D01*
G75*
G02*
X76129000Y68326500I-250000J0D01*
G01*
G37*
G36*
G01*
X76129000Y74251500D02*
X73279000Y74251500D01*
G75*
G02*
X73029000Y74501500I0J250000D01*
G01*
X73029000Y75226500D01*
G75*
G02*
X73279000Y75476500I250000J0D01*
G01*
X76129000Y75476500D01*
G75*
G02*
X76379000Y75226500I0J-250000D01*
G01*
X76379000Y74501500D01*
G75*
G02*
X76129000Y74251500I-250000J0D01*
G01*
G37*
G04 #@! TD*
G04 #@! TO.C,R2*
G36*
G01*
X44548000Y66684000D02*
X43768000Y66684000D01*
G75*
G02*
X43698000Y66754000I0J70000D01*
G01*
X43698000Y67314000D01*
G75*
G02*
X43768000Y67384000I70000J0D01*
G01*
X44548000Y67384000D01*
G75*
G02*
X44618000Y67314000I0J-70000D01*
G01*
X44618000Y66754000D01*
G75*
G02*
X44548000Y66684000I-70000J0D01*
G01*
G37*
G36*
G01*
X44548000Y68284000D02*
X43768000Y68284000D01*
G75*
G02*
X43698000Y68354000I0J70000D01*
G01*
X43698000Y68914000D01*
G75*
G02*
X43768000Y68984000I70000J0D01*
G01*
X44548000Y68984000D01*
G75*
G02*
X44618000Y68914000I0J-70000D01*
G01*
X44618000Y68354000D01*
G75*
G02*
X44548000Y68284000I-70000J0D01*
G01*
G37*
G04 #@! TD*
G04 #@! TO.C,R1*
G36*
G01*
X52930000Y66684000D02*
X52150000Y66684000D01*
G75*
G02*
X52080000Y66754000I0J70000D01*
G01*
X52080000Y67314000D01*
G75*
G02*
X52150000Y67384000I70000J0D01*
G01*
X52930000Y67384000D01*
G75*
G02*
X53000000Y67314000I0J-70000D01*
G01*
X53000000Y66754000D01*
G75*
G02*
X52930000Y66684000I-70000J0D01*
G01*
G37*
G36*
G01*
X52930000Y68284000D02*
X52150000Y68284000D01*
G75*
G02*
X52080000Y68354000I0J70000D01*
G01*
X52080000Y68914000D01*
G75*
G02*
X52150000Y68984000I70000J0D01*
G01*
X52930000Y68984000D01*
G75*
G02*
X53000000Y68914000I0J-70000D01*
G01*
X53000000Y68354000D01*
G75*
G02*
X52930000Y68284000I-70000J0D01*
G01*
G37*
G04 #@! TD*
G04 #@! TO.C,R16*
G36*
G01*
X66129000Y68326500D02*
X63279000Y68326500D01*
G75*
G02*
X63029000Y68576500I0J250000D01*
G01*
X63029000Y69301500D01*
G75*
G02*
X63279000Y69551500I250000J0D01*
G01*
X66129000Y69551500D01*
G75*
G02*
X66379000Y69301500I0J-250000D01*
G01*
X66379000Y68576500D01*
G75*
G02*
X66129000Y68326500I-250000J0D01*
G01*
G37*
G36*
G01*
X66129000Y74251500D02*
X63279000Y74251500D01*
G75*
G02*
X63029000Y74501500I0J250000D01*
G01*
X63029000Y75226500D01*
G75*
G02*
X63279000Y75476500I250000J0D01*
G01*
X66129000Y75476500D01*
G75*
G02*
X66379000Y75226500I0J-250000D01*
G01*
X66379000Y74501500D01*
G75*
G02*
X66129000Y74251500I-250000J0D01*
G01*
G37*
G04 #@! TD*
G04 #@! TO.C,R3*
G36*
G01*
X55470000Y66684000D02*
X54690000Y66684000D01*
G75*
G02*
X54620000Y66754000I0J70000D01*
G01*
X54620000Y67314000D01*
G75*
G02*
X54690000Y67384000I70000J0D01*
G01*
X55470000Y67384000D01*
G75*
G02*
X55540000Y67314000I0J-70000D01*
G01*
X55540000Y66754000D01*
G75*
G02*
X55470000Y66684000I-70000J0D01*
G01*
G37*
G36*
G01*
X55470000Y68284000D02*
X54690000Y68284000D01*
G75*
G02*
X54620000Y68354000I0J70000D01*
G01*
X54620000Y68914000D01*
G75*
G02*
X54690000Y68984000I70000J0D01*
G01*
X55470000Y68984000D01*
G75*
G02*
X55540000Y68914000I0J-70000D01*
G01*
X55540000Y68354000D01*
G75*
G02*
X55470000Y68284000I-70000J0D01*
G01*
G37*
G04 #@! TD*
G04 #@! TO.C,R4*
G36*
G01*
X47088000Y66684000D02*
X46308000Y66684000D01*
G75*
G02*
X46238000Y66754000I0J70000D01*
G01*
X46238000Y67314000D01*
G75*
G02*
X46308000Y67384000I70000J0D01*
G01*
X47088000Y67384000D01*
G75*
G02*
X47158000Y67314000I0J-70000D01*
G01*
X47158000Y66754000D01*
G75*
G02*
X47088000Y66684000I-70000J0D01*
G01*
G37*
G36*
G01*
X47088000Y68284000D02*
X46308000Y68284000D01*
G75*
G02*
X46238000Y68354000I0J70000D01*
G01*
X46238000Y68914000D01*
G75*
G02*
X46308000Y68984000I70000J0D01*
G01*
X47088000Y68984000D01*
G75*
G02*
X47158000Y68914000I0J-70000D01*
G01*
X47158000Y68354000D01*
G75*
G02*
X47088000Y68284000I-70000J0D01*
G01*
G37*
G04 #@! TD*
G04 #@! TO.C,R14*
G36*
G01*
X63443500Y67030000D02*
X63443500Y67810000D01*
G75*
G02*
X63513500Y67880000I70000J0D01*
G01*
X64073500Y67880000D01*
G75*
G02*
X64143500Y67810000I0J-70000D01*
G01*
X64143500Y67030000D01*
G75*
G02*
X64073500Y66960000I-70000J0D01*
G01*
X63513500Y66960000D01*
G75*
G02*
X63443500Y67030000I0J70000D01*
G01*
G37*
G36*
G01*
X65043500Y67030000D02*
X65043500Y67810000D01*
G75*
G02*
X65113500Y67880000I70000J0D01*
G01*
X65673500Y67880000D01*
G75*
G02*
X65743500Y67810000I0J-70000D01*
G01*
X65743500Y67030000D01*
G75*
G02*
X65673500Y66960000I-70000J0D01*
G01*
X65113500Y66960000D01*
G75*
G02*
X65043500Y67030000I0J70000D01*
G01*
G37*
G04 #@! TD*
G04 #@! TO.C,U3*
G36*
G01*
X46848000Y69945000D02*
X46548000Y69945000D01*
G75*
G02*
X46398000Y70095000I0J150000D01*
G01*
X46398000Y71745000D01*
G75*
G02*
X46548000Y71895000I150000J0D01*
G01*
X46848000Y71895000D01*
G75*
G02*
X46998000Y71745000I0J-150000D01*
G01*
X46998000Y70095000D01*
G75*
G02*
X46848000Y69945000I-150000J0D01*
G01*
G37*
G36*
G01*
X45578000Y69945000D02*
X45278000Y69945000D01*
G75*
G02*
X45128000Y70095000I0J150000D01*
G01*
X45128000Y71745000D01*
G75*
G02*
X45278000Y71895000I150000J0D01*
G01*
X45578000Y71895000D01*
G75*
G02*
X45728000Y71745000I0J-150000D01*
G01*
X45728000Y70095000D01*
G75*
G02*
X45578000Y69945000I-150000J0D01*
G01*
G37*
G36*
G01*
X44308000Y69945000D02*
X44008000Y69945000D01*
G75*
G02*
X43858000Y70095000I0J150000D01*
G01*
X43858000Y71745000D01*
G75*
G02*
X44008000Y71895000I150000J0D01*
G01*
X44308000Y71895000D01*
G75*
G02*
X44458000Y71745000I0J-150000D01*
G01*
X44458000Y70095000D01*
G75*
G02*
X44308000Y69945000I-150000J0D01*
G01*
G37*
G36*
G01*
X43038000Y69945000D02*
X42738000Y69945000D01*
G75*
G02*
X42588000Y70095000I0J150000D01*
G01*
X42588000Y71745000D01*
G75*
G02*
X42738000Y71895000I150000J0D01*
G01*
X43038000Y71895000D01*
G75*
G02*
X43188000Y71745000I0J-150000D01*
G01*
X43188000Y70095000D01*
G75*
G02*
X43038000Y69945000I-150000J0D01*
G01*
G37*
G36*
G01*
X43038000Y74895000D02*
X42738000Y74895000D01*
G75*
G02*
X42588000Y75045000I0J150000D01*
G01*
X42588000Y76695000D01*
G75*
G02*
X42738000Y76845000I150000J0D01*
G01*
X43038000Y76845000D01*
G75*
G02*
X43188000Y76695000I0J-150000D01*
G01*
X43188000Y75045000D01*
G75*
G02*
X43038000Y74895000I-150000J0D01*
G01*
G37*
G36*
G01*
X44308000Y74895000D02*
X44008000Y74895000D01*
G75*
G02*
X43858000Y75045000I0J150000D01*
G01*
X43858000Y76695000D01*
G75*
G02*
X44008000Y76845000I150000J0D01*
G01*
X44308000Y76845000D01*
G75*
G02*
X44458000Y76695000I0J-150000D01*
G01*
X44458000Y75045000D01*
G75*
G02*
X44308000Y74895000I-150000J0D01*
G01*
G37*
G36*
G01*
X45578000Y74895000D02*
X45278000Y74895000D01*
G75*
G02*
X45128000Y75045000I0J150000D01*
G01*
X45128000Y76695000D01*
G75*
G02*
X45278000Y76845000I150000J0D01*
G01*
X45578000Y76845000D01*
G75*
G02*
X45728000Y76695000I0J-150000D01*
G01*
X45728000Y75045000D01*
G75*
G02*
X45578000Y74895000I-150000J0D01*
G01*
G37*
G36*
G01*
X46848000Y74895000D02*
X46548000Y74895000D01*
G75*
G02*
X46398000Y75045000I0J150000D01*
G01*
X46398000Y76695000D01*
G75*
G02*
X46548000Y76845000I150000J0D01*
G01*
X46848000Y76845000D01*
G75*
G02*
X46998000Y76695000I0J-150000D01*
G01*
X46998000Y75045000D01*
G75*
G02*
X46848000Y74895000I-150000J0D01*
G01*
G37*
G04 #@! TD*
G04 #@! TO.C,R10*
G36*
G01*
X83443500Y67030000D02*
X83443500Y67810000D01*
G75*
G02*
X83513500Y67880000I70000J0D01*
G01*
X84073500Y67880000D01*
G75*
G02*
X84143500Y67810000I0J-70000D01*
G01*
X84143500Y67030000D01*
G75*
G02*
X84073500Y66960000I-70000J0D01*
G01*
X83513500Y66960000D01*
G75*
G02*
X83443500Y67030000I0J70000D01*
G01*
G37*
G36*
G01*
X85043500Y67030000D02*
X85043500Y67810000D01*
G75*
G02*
X85113500Y67880000I70000J0D01*
G01*
X85673500Y67880000D01*
G75*
G02*
X85743500Y67810000I0J-70000D01*
G01*
X85743500Y67030000D01*
G75*
G02*
X85673500Y66960000I-70000J0D01*
G01*
X85113500Y66960000D01*
G75*
G02*
X85043500Y67030000I0J70000D01*
G01*
G37*
G04 #@! TD*
G04 #@! TO.C,R9*
G36*
G01*
X93443500Y67030000D02*
X93443500Y67810000D01*
G75*
G02*
X93513500Y67880000I70000J0D01*
G01*
X94073500Y67880000D01*
G75*
G02*
X94143500Y67810000I0J-70000D01*
G01*
X94143500Y67030000D01*
G75*
G02*
X94073500Y66960000I-70000J0D01*
G01*
X93513500Y66960000D01*
G75*
G02*
X93443500Y67030000I0J70000D01*
G01*
G37*
G36*
G01*
X95043500Y67030000D02*
X95043500Y67810000D01*
G75*
G02*
X95113500Y67880000I70000J0D01*
G01*
X95673500Y67880000D01*
G75*
G02*
X95743500Y67810000I0J-70000D01*
G01*
X95743500Y67030000D01*
G75*
G02*
X95673500Y66960000I-70000J0D01*
G01*
X95113500Y66960000D01*
G75*
G02*
X95043500Y67030000I0J70000D01*
G01*
G37*
G04 #@! TD*
G04 #@! TO.C,F1*
G36*
G01*
X95806000Y66152250D02*
X95806000Y65639750D01*
G75*
G02*
X95587250Y65421000I-218750J0D01*
G01*
X95149750Y65421000D01*
G75*
G02*
X94931000Y65639750I0J218750D01*
G01*
X94931000Y66152250D01*
G75*
G02*
X95149750Y66371000I218750J0D01*
G01*
X95587250Y66371000D01*
G75*
G02*
X95806000Y66152250I0J-218750D01*
G01*
G37*
G36*
G01*
X94231000Y66152250D02*
X94231000Y65639750D01*
G75*
G02*
X94012250Y65421000I-218750J0D01*
G01*
X93574750Y65421000D01*
G75*
G02*
X93356000Y65639750I0J218750D01*
G01*
X93356000Y66152250D01*
G75*
G02*
X93574750Y66371000I218750J0D01*
G01*
X94012250Y66371000D01*
G75*
G02*
X94231000Y66152250I0J-218750D01*
G01*
G37*
G04 #@! TD*
G04 #@! TO.C,R12*
G36*
G01*
X86129000Y68326500D02*
X83279000Y68326500D01*
G75*
G02*
X83029000Y68576500I0J250000D01*
G01*
X83029000Y69301500D01*
G75*
G02*
X83279000Y69551500I250000J0D01*
G01*
X86129000Y69551500D01*
G75*
G02*
X86379000Y69301500I0J-250000D01*
G01*
X86379000Y68576500D01*
G75*
G02*
X86129000Y68326500I-250000J0D01*
G01*
G37*
G36*
G01*
X86129000Y74251500D02*
X83279000Y74251500D01*
G75*
G02*
X83029000Y74501500I0J250000D01*
G01*
X83029000Y75226500D01*
G75*
G02*
X83279000Y75476500I250000J0D01*
G01*
X86129000Y75476500D01*
G75*
G02*
X86379000Y75226500I0J-250000D01*
G01*
X86379000Y74501500D01*
G75*
G02*
X86129000Y74251500I-250000J0D01*
G01*
G37*
G04 #@! TD*
G04 #@! TO.C,F4*
G36*
G01*
X65806000Y66152250D02*
X65806000Y65639750D01*
G75*
G02*
X65587250Y65421000I-218750J0D01*
G01*
X65149750Y65421000D01*
G75*
G02*
X64931000Y65639750I0J218750D01*
G01*
X64931000Y66152250D01*
G75*
G02*
X65149750Y66371000I218750J0D01*
G01*
X65587250Y66371000D01*
G75*
G02*
X65806000Y66152250I0J-218750D01*
G01*
G37*
G36*
G01*
X64231000Y66152250D02*
X64231000Y65639750D01*
G75*
G02*
X64012250Y65421000I-218750J0D01*
G01*
X63574750Y65421000D01*
G75*
G02*
X63356000Y65639750I0J218750D01*
G01*
X63356000Y66152250D01*
G75*
G02*
X63574750Y66371000I218750J0D01*
G01*
X64012250Y66371000D01*
G75*
G02*
X64231000Y66152250I0J-218750D01*
G01*
G37*
G04 #@! TD*
G04 #@! TO.C,F3*
G36*
G01*
X75806000Y66152250D02*
X75806000Y65639750D01*
G75*
G02*
X75587250Y65421000I-218750J0D01*
G01*
X75149750Y65421000D01*
G75*
G02*
X74931000Y65639750I0J218750D01*
G01*
X74931000Y66152250D01*
G75*
G02*
X75149750Y66371000I218750J0D01*
G01*
X75587250Y66371000D01*
G75*
G02*
X75806000Y66152250I0J-218750D01*
G01*
G37*
G36*
G01*
X74231000Y66152250D02*
X74231000Y65639750D01*
G75*
G02*
X74012250Y65421000I-218750J0D01*
G01*
X73574750Y65421000D01*
G75*
G02*
X73356000Y65639750I0J218750D01*
G01*
X73356000Y66152250D01*
G75*
G02*
X73574750Y66371000I218750J0D01*
G01*
X74012250Y66371000D01*
G75*
G02*
X74231000Y66152250I0J-218750D01*
G01*
G37*
G04 #@! TD*
G04 #@! TO.C,U2*
G36*
G01*
X55230000Y70075000D02*
X54930000Y70075000D01*
G75*
G02*
X54780000Y70225000I0J150000D01*
G01*
X54780000Y71875000D01*
G75*
G02*
X54930000Y72025000I150000J0D01*
G01*
X55230000Y72025000D01*
G75*
G02*
X55380000Y71875000I0J-150000D01*
G01*
X55380000Y70225000D01*
G75*
G02*
X55230000Y70075000I-150000J0D01*
G01*
G37*
G36*
G01*
X53960000Y70075000D02*
X53660000Y70075000D01*
G75*
G02*
X53510000Y70225000I0J150000D01*
G01*
X53510000Y71875000D01*
G75*
G02*
X53660000Y72025000I150000J0D01*
G01*
X53960000Y72025000D01*
G75*
G02*
X54110000Y71875000I0J-150000D01*
G01*
X54110000Y70225000D01*
G75*
G02*
X53960000Y70075000I-150000J0D01*
G01*
G37*
G36*
G01*
X52690000Y70075000D02*
X52390000Y70075000D01*
G75*
G02*
X52240000Y70225000I0J150000D01*
G01*
X52240000Y71875000D01*
G75*
G02*
X52390000Y72025000I150000J0D01*
G01*
X52690000Y72025000D01*
G75*
G02*
X52840000Y71875000I0J-150000D01*
G01*
X52840000Y70225000D01*
G75*
G02*
X52690000Y70075000I-150000J0D01*
G01*
G37*
G36*
G01*
X51420000Y70075000D02*
X51120000Y70075000D01*
G75*
G02*
X50970000Y70225000I0J150000D01*
G01*
X50970000Y71875000D01*
G75*
G02*
X51120000Y72025000I150000J0D01*
G01*
X51420000Y72025000D01*
G75*
G02*
X51570000Y71875000I0J-150000D01*
G01*
X51570000Y70225000D01*
G75*
G02*
X51420000Y70075000I-150000J0D01*
G01*
G37*
G36*
G01*
X51420000Y75025000D02*
X51120000Y75025000D01*
G75*
G02*
X50970000Y75175000I0J150000D01*
G01*
X50970000Y76825000D01*
G75*
G02*
X51120000Y76975000I150000J0D01*
G01*
X51420000Y76975000D01*
G75*
G02*
X51570000Y76825000I0J-150000D01*
G01*
X51570000Y75175000D01*
G75*
G02*
X51420000Y75025000I-150000J0D01*
G01*
G37*
G36*
G01*
X52690000Y75025000D02*
X52390000Y75025000D01*
G75*
G02*
X52240000Y75175000I0J150000D01*
G01*
X52240000Y76825000D01*
G75*
G02*
X52390000Y76975000I150000J0D01*
G01*
X52690000Y76975000D01*
G75*
G02*
X52840000Y76825000I0J-150000D01*
G01*
X52840000Y75175000D01*
G75*
G02*
X52690000Y75025000I-150000J0D01*
G01*
G37*
G36*
G01*
X53960000Y75025000D02*
X53660000Y75025000D01*
G75*
G02*
X53510000Y75175000I0J150000D01*
G01*
X53510000Y76825000D01*
G75*
G02*
X53660000Y76975000I150000J0D01*
G01*
X53960000Y76975000D01*
G75*
G02*
X54110000Y76825000I0J-150000D01*
G01*
X54110000Y75175000D01*
G75*
G02*
X53960000Y75025000I-150000J0D01*
G01*
G37*
G36*
G01*
X55230000Y75025000D02*
X54930000Y75025000D01*
G75*
G02*
X54780000Y75175000I0J150000D01*
G01*
X54780000Y76825000D01*
G75*
G02*
X54930000Y76975000I150000J0D01*
G01*
X55230000Y76975000D01*
G75*
G02*
X55380000Y76825000I0J-150000D01*
G01*
X55380000Y75175000D01*
G75*
G02*
X55230000Y75025000I-150000J0D01*
G01*
G37*
G04 #@! TD*
M02*
