G75*
G70*
%OFA0B0*%
%FSLAX25Y25*%
%IPPOS*%
%LPD*%
%AMOC8*
5,1,8,0,0,1.08239X$1,22.5*
%
%AMM1*
21,1,0.035430,0.030320,0.000000,0.000000,90.000000*
21,1,0.028350,0.037400,0.000000,0.000000,90.000000*
1,1,0.007090,0.015160,0.014170*
1,1,0.007090,0.015160,-0.014170*
1,1,0.007090,-0.015160,-0.014170*
1,1,0.007090,-0.015160,0.014170*
%
%AMM10*
21,1,0.025590,0.026380,0.000000,0.000000,90.000000*
21,1,0.020470,0.031500,0.000000,0.000000,90.000000*
1,1,0.005120,0.013190,0.010240*
1,1,0.005120,0.013190,-0.010240*
1,1,0.005120,-0.013190,-0.010240*
1,1,0.005120,-0.013190,0.010240*
%
%AMM11*
21,1,0.017720,0.027950,0.000000,0.000000,90.000000*
21,1,0.014170,0.031500,0.000000,0.000000,90.000000*
1,1,0.003540,0.013980,0.007090*
1,1,0.003540,0.013980,-0.007090*
1,1,0.003540,-0.013980,-0.007090*
1,1,0.003540,-0.013980,0.007090*
%
%AMM13*
21,1,0.012600,0.028980,0.000000,0.000000,90.000000*
21,1,0.010080,0.031500,0.000000,0.000000,90.000000*
1,1,0.002520,0.014490,0.005040*
1,1,0.002520,0.014490,-0.005040*
1,1,0.002520,-0.014490,-0.005040*
1,1,0.002520,-0.014490,0.005040*
%
%AMM16*
21,1,0.027560,0.018900,0.000000,0.000000,90.000000*
21,1,0.022840,0.023620,0.000000,0.000000,90.000000*
1,1,0.004720,0.009450,0.011420*
1,1,0.004720,0.009450,-0.011420*
1,1,0.004720,-0.009450,-0.011420*
1,1,0.004720,-0.009450,0.011420*
%
%AMM170*
21,1,0.035830,0.026770,0.000000,-0.000000,270.000000*
21,1,0.029130,0.033470,0.000000,-0.000000,270.000000*
1,1,0.006690,-0.013390,-0.014570*
1,1,0.006690,-0.013390,0.014570*
1,1,0.006690,0.013390,0.014570*
1,1,0.006690,0.013390,-0.014570*
%
%AMM171*
21,1,0.070870,0.036220,0.000000,-0.000000,0.000000*
21,1,0.061810,0.045280,0.000000,-0.000000,0.000000*
1,1,0.009060,0.030910,-0.018110*
1,1,0.009060,-0.030910,-0.018110*
1,1,0.009060,-0.030910,0.018110*
1,1,0.009060,0.030910,0.018110*
%
%AMM174*
21,1,0.023620,0.018900,0.000000,-0.000000,0.000000*
21,1,0.018900,0.023620,0.000000,-0.000000,0.000000*
1,1,0.004720,0.009450,-0.009450*
1,1,0.004720,-0.009450,-0.009450*
1,1,0.004720,-0.009450,0.009450*
1,1,0.004720,0.009450,0.009450*
%
%AMM175*
21,1,0.019680,0.019680,0.000000,-0.000000,270.000000*
21,1,0.015750,0.023620,0.000000,-0.000000,270.000000*
1,1,0.003940,-0.009840,-0.007870*
1,1,0.003940,-0.009840,0.007870*
1,1,0.003940,0.009840,0.007870*
1,1,0.003940,0.009840,-0.007870*
%
%AMM176*
21,1,0.019680,0.019680,0.000000,-0.000000,180.000000*
21,1,0.015750,0.023620,0.000000,-0.000000,180.000000*
1,1,0.003940,-0.007870,0.009840*
1,1,0.003940,0.007870,0.009840*
1,1,0.003940,0.007870,-0.009840*
1,1,0.003940,-0.007870,-0.009840*
%
%AMM190*
21,1,0.023620,0.018900,0.000000,-0.000000,270.000000*
21,1,0.018900,0.023620,0.000000,-0.000000,270.000000*
1,1,0.004720,-0.009450,-0.009450*
1,1,0.004720,-0.009450,0.009450*
1,1,0.004720,0.009450,0.009450*
1,1,0.004720,0.009450,-0.009450*
%
%AMM191*
21,1,0.106300,0.050390,0.000000,-0.000000,0.000000*
21,1,0.093700,0.062990,0.000000,-0.000000,0.000000*
1,1,0.012600,0.046850,-0.025200*
1,1,0.012600,-0.046850,-0.025200*
1,1,0.012600,-0.046850,0.025200*
1,1,0.012600,0.046850,0.025200*
%
%AMM192*
21,1,0.033470,0.026770,0.000000,-0.000000,180.000000*
21,1,0.026770,0.033470,0.000000,-0.000000,180.000000*
1,1,0.006690,-0.013390,0.013390*
1,1,0.006690,0.013390,0.013390*
1,1,0.006690,0.013390,-0.013390*
1,1,0.006690,-0.013390,-0.013390*
%
%AMM193*
21,1,0.122050,0.075590,0.000000,-0.000000,90.000000*
21,1,0.103150,0.094490,0.000000,-0.000000,90.000000*
1,1,0.018900,0.037800,0.051580*
1,1,0.018900,0.037800,-0.051580*
1,1,0.018900,-0.037800,-0.051580*
1,1,0.018900,-0.037800,0.051580*
%
%AMM194*
21,1,0.118110,0.083460,0.000000,-0.000000,270.000000*
21,1,0.097240,0.104330,0.000000,-0.000000,270.000000*
1,1,0.020870,-0.041730,-0.048620*
1,1,0.020870,-0.041730,0.048620*
1,1,0.020870,0.041730,0.048620*
1,1,0.020870,0.041730,-0.048620*
%
%AMM33*
21,1,0.033470,0.026770,0.000000,0.000000,180.000000*
21,1,0.026770,0.033470,0.000000,0.000000,180.000000*
1,1,0.006690,-0.013390,0.013390*
1,1,0.006690,0.013390,0.013390*
1,1,0.006690,0.013390,-0.013390*
1,1,0.006690,-0.013390,-0.013390*
%
%AMM34*
21,1,0.035430,0.030320,0.000000,0.000000,180.000000*
21,1,0.028350,0.037400,0.000000,0.000000,180.000000*
1,1,0.007090,-0.014170,0.015160*
1,1,0.007090,0.014170,0.015160*
1,1,0.007090,0.014170,-0.015160*
1,1,0.007090,-0.014170,-0.015160*
%
%AMM35*
21,1,0.035830,0.026770,0.000000,0.000000,0.000000*
21,1,0.029130,0.033470,0.000000,0.000000,0.000000*
1,1,0.006690,0.014570,-0.013390*
1,1,0.006690,-0.014570,-0.013390*
1,1,0.006690,-0.014570,0.013390*
1,1,0.006690,0.014570,0.013390*
%
%AMM36*
21,1,0.070870,0.036220,0.000000,0.000000,0.000000*
21,1,0.061810,0.045280,0.000000,0.000000,0.000000*
1,1,0.009060,0.030910,-0.018110*
1,1,0.009060,-0.030910,-0.018110*
1,1,0.009060,-0.030910,0.018110*
1,1,0.009060,0.030910,0.018110*
%
%AMM37*
21,1,0.059060,0.020470,0.000000,0.000000,90.000000*
21,1,0.053940,0.025590,0.000000,0.000000,90.000000*
1,1,0.005120,0.010240,0.026970*
1,1,0.005120,0.010240,-0.026970*
1,1,0.005120,-0.010240,-0.026970*
1,1,0.005120,-0.010240,0.026970*
%
%AMM38*
21,1,0.078740,0.045670,0.000000,0.000000,90.000000*
21,1,0.067320,0.057090,0.000000,0.000000,90.000000*
1,1,0.011420,0.022840,0.033660*
1,1,0.011420,0.022840,-0.033660*
1,1,0.011420,-0.022840,-0.033660*
1,1,0.011420,-0.022840,0.033660*
%
%AMM39*
21,1,0.025590,0.026380,0.000000,0.000000,0.000000*
21,1,0.020470,0.031500,0.000000,0.000000,0.000000*
1,1,0.005120,0.010240,-0.013190*
1,1,0.005120,-0.010240,-0.013190*
1,1,0.005120,-0.010240,0.013190*
1,1,0.005120,0.010240,0.013190*
%
%AMM40*
21,1,0.017720,0.027950,0.000000,0.000000,0.000000*
21,1,0.014170,0.031500,0.000000,0.000000,0.000000*
1,1,0.003540,0.007090,-0.013980*
1,1,0.003540,-0.007090,-0.013980*
1,1,0.003540,-0.007090,0.013980*
1,1,0.003540,0.007090,0.013980*
%
%AMM41*
21,1,0.027560,0.030710,0.000000,0.000000,90.000000*
21,1,0.022050,0.036220,0.000000,0.000000,90.000000*
1,1,0.005510,0.015350,0.011020*
1,1,0.005510,0.015350,-0.011020*
1,1,0.005510,-0.015350,-0.011020*
1,1,0.005510,-0.015350,0.011020*
%
%AMM42*
21,1,0.027560,0.049610,0.000000,0.000000,270.000000*
21,1,0.022050,0.055120,0.000000,0.000000,270.000000*
1,1,0.005510,-0.024800,-0.011020*
1,1,0.005510,-0.024800,0.011020*
1,1,0.005510,0.024800,0.011020*
1,1,0.005510,0.024800,-0.011020*
%
%AMM43*
21,1,0.027560,0.030710,0.000000,0.000000,0.000000*
21,1,0.022050,0.036220,0.000000,0.000000,0.000000*
1,1,0.005510,0.011020,-0.015350*
1,1,0.005510,-0.011020,-0.015350*
1,1,0.005510,-0.011020,0.015350*
1,1,0.005510,0.011020,0.015350*
%
%AMM44*
21,1,0.070870,0.036220,0.000000,0.000000,90.000000*
21,1,0.061810,0.045280,0.000000,0.000000,90.000000*
1,1,0.009060,0.018110,0.030910*
1,1,0.009060,0.018110,-0.030910*
1,1,0.009060,-0.018110,-0.030910*
1,1,0.009060,-0.018110,0.030910*
%
%AMM59*
21,1,0.023620,0.018900,0.000000,0.000000,180.000000*
21,1,0.018900,0.023620,0.000000,0.000000,180.000000*
1,1,0.004720,-0.009450,0.009450*
1,1,0.004720,0.009450,0.009450*
1,1,0.004720,0.009450,-0.009450*
1,1,0.004720,-0.009450,-0.009450*
%
%AMM60*
21,1,0.019680,0.019680,0.000000,0.000000,270.000000*
21,1,0.015750,0.023620,0.000000,0.000000,270.000000*
1,1,0.003940,-0.009840,-0.007870*
1,1,0.003940,-0.009840,0.007870*
1,1,0.003940,0.009840,0.007870*
1,1,0.003940,0.009840,-0.007870*
%
%AMM61*
21,1,0.033470,0.026770,0.000000,0.000000,270.000000*
21,1,0.026770,0.033470,0.000000,0.000000,270.000000*
1,1,0.006690,-0.013390,-0.013390*
1,1,0.006690,-0.013390,0.013390*
1,1,0.006690,0.013390,0.013390*
1,1,0.006690,0.013390,-0.013390*
%
%AMM62*
21,1,0.019680,0.019680,0.000000,0.000000,0.000000*
21,1,0.015750,0.023620,0.000000,0.000000,0.000000*
1,1,0.003940,0.007870,-0.009840*
1,1,0.003940,-0.007870,-0.009840*
1,1,0.003940,-0.007870,0.009840*
1,1,0.003940,0.007870,0.009840*
%
%AMM7*
21,1,0.027560,0.018900,0.000000,0.000000,180.000000*
21,1,0.022840,0.023620,0.000000,0.000000,180.000000*
1,1,0.004720,-0.011420,0.009450*
1,1,0.004720,0.011420,0.009450*
1,1,0.004720,0.011420,-0.009450*
1,1,0.004720,-0.011420,-0.009450*
%
%ADD132M33*%
%ADD133M34*%
%ADD134M35*%
%ADD135R,0.03937X0.04331*%
%ADD136M36*%
%ADD137M37*%
%ADD138M38*%
%ADD140R,0.09449X0.06693*%
%ADD141M39*%
%ADD142M40*%
%ADD143M41*%
%ADD144M42*%
%ADD145M43*%
%ADD146M44*%
%ADD147O,0.04961X0.00984*%
%ADD148R,0.00984X0.01378*%
%ADD149R,0.01378X0.00984*%
%ADD173M59*%
%ADD174M60*%
%ADD175M61*%
%ADD176M62*%
%ADD20R,0.00787X0.09055*%
%ADD21R,0.00787X0.21260*%
%ADD22R,0.00787X0.33858*%
%ADD23R,0.00787X0.19685*%
%ADD24R,0.05512X0.00787*%
%ADD243R,0.01772X0.05709*%
%ADD244R,0.02559X0.04803*%
%ADD25R,0.19685X0.00787*%
%ADD26R,0.26772X0.00787*%
%ADD27R,0.17717X0.00787*%
%ADD275O,0.08661X0.01968*%
%ADD28R,0.00787X0.06299*%
%ADD29R,0.00787X0.22441*%
%ADD30R,0.00787X0.07874*%
%ADD326M170*%
%ADD327M171*%
%ADD330M174*%
%ADD331M175*%
%ADD332M176*%
%ADD346M190*%
%ADD347M191*%
%ADD348M192*%
%ADD349M193*%
%ADD350M194*%
%ADD76M1*%
%ADD82M7*%
%ADD85M10*%
%ADD86M11*%
%ADD90M13*%
%ADD96M16*%
X0000000Y0000000D02*
%LPD*%
G01*
G36*
G01*
X0253715Y0215328D02*
X0253715Y0213310D01*
G75*
G02*
X0252853Y0212449I-000861J0000000D01*
G01*
X0251131Y0212449D01*
G75*
G02*
X0250270Y0213310I0000000J0000861D01*
G01*
X0250270Y0215328D01*
G75*
G02*
X0251131Y0216189I0000861J0000000D01*
G01*
X0252853Y0216189D01*
G75*
G02*
X0253715Y0215328I0000000J-000861D01*
G01*
G37*
G36*
G01*
X0247514Y0215328D02*
X0247514Y0213310D01*
G75*
G02*
X0246653Y0212449I-000861J0000000D01*
G01*
X0244930Y0212449D01*
G75*
G02*
X0244069Y0213310I0000000J0000861D01*
G01*
X0244069Y0215328D01*
G75*
G02*
X0244930Y0216189I0000861J0000000D01*
G01*
X0246653Y0216189D01*
G75*
G02*
X0247514Y0215328I0000000J-000861D01*
G01*
G37*
G36*
G01*
X0283685Y0218783D02*
X0283685Y0221854D01*
G75*
G02*
X0283961Y0222130I0000276J0000000D01*
G01*
X0286165Y0222130D01*
G75*
G02*
X0286441Y0221854I0000000J-000276D01*
G01*
X0286441Y0218783D01*
G75*
G02*
X0286165Y0218508I-000276J0000000D01*
G01*
X0283961Y0218508D01*
G75*
G02*
X0283685Y0218783I0000000J0000276D01*
G01*
G37*
G36*
G01*
X0289984Y0218783D02*
X0289984Y0221854D01*
G75*
G02*
X0290260Y0222130I0000276J0000000D01*
G01*
X0292465Y0222130D01*
G75*
G02*
X0292740Y0221854I0000000J-000276D01*
G01*
X0292740Y0218783D01*
G75*
G02*
X0292465Y0218508I-000276J0000000D01*
G01*
X0290260Y0218508D01*
G75*
G02*
X0289984Y0218783I0000000J0000276D01*
G01*
G37*
G36*
G01*
X0323055Y0218783D02*
X0323055Y0221854D01*
G75*
G02*
X0323331Y0222130I0000276J0000000D01*
G01*
X0325535Y0222130D01*
G75*
G02*
X0325811Y0221854I0000000J-000276D01*
G01*
X0325811Y0218783D01*
G75*
G02*
X0325535Y0218508I-000276J0000000D01*
G01*
X0323331Y0218508D01*
G75*
G02*
X0323055Y0218783I0000000J0000276D01*
G01*
G37*
G36*
G01*
X0329354Y0218783D02*
X0329354Y0221854D01*
G75*
G02*
X0329630Y0222130I0000276J0000000D01*
G01*
X0331835Y0222130D01*
G75*
G02*
X0332110Y0221854I0000000J-000276D01*
G01*
X0332110Y0218783D01*
G75*
G02*
X0331835Y0218508I-000276J0000000D01*
G01*
X0329630Y0218508D01*
G75*
G02*
X0329354Y0218783I0000000J0000276D01*
G01*
G37*
G36*
G01*
X0204945Y0218783D02*
X0204945Y0221854D01*
G75*
G02*
X0205220Y0222130I0000276J0000000D01*
G01*
X0207425Y0222130D01*
G75*
G02*
X0207701Y0221854I0000000J-000276D01*
G01*
X0207701Y0218783D01*
G75*
G02*
X0207425Y0218508I-000276J0000000D01*
G01*
X0205220Y0218508D01*
G75*
G02*
X0204945Y0218783I0000000J0000276D01*
G01*
G37*
G36*
G01*
X0211244Y0218783D02*
X0211244Y0221854D01*
G75*
G02*
X0211520Y0222130I0000276J0000000D01*
G01*
X0213724Y0222130D01*
G75*
G02*
X0214000Y0221854I0000000J-000276D01*
G01*
X0214000Y0218783D01*
G75*
G02*
X0213724Y0218508I-000276J0000000D01*
G01*
X0211520Y0218508D01*
G75*
G02*
X0211244Y0218783I0000000J0000276D01*
G01*
G37*
G36*
G01*
X0293085Y0215328D02*
X0293085Y0213310D01*
G75*
G02*
X0292223Y0212449I-000861J0000000D01*
G01*
X0290501Y0212449D01*
G75*
G02*
X0289640Y0213310I0000000J0000861D01*
G01*
X0289640Y0215328D01*
G75*
G02*
X0290501Y0216189I0000861J0000000D01*
G01*
X0292223Y0216189D01*
G75*
G02*
X0293085Y0215328I0000000J-000861D01*
G01*
G37*
G36*
G01*
X0286884Y0215328D02*
X0286884Y0213310D01*
G75*
G02*
X0286023Y0212449I-000861J0000000D01*
G01*
X0284300Y0212449D01*
G75*
G02*
X0283439Y0213310I0000000J0000861D01*
G01*
X0283439Y0215328D01*
G75*
G02*
X0284300Y0216189I0000861J0000000D01*
G01*
X0286023Y0216189D01*
G75*
G02*
X0286884Y0215328I0000000J-000861D01*
G01*
G37*
G36*
G01*
X0309535Y0078535D02*
X0306465Y0078535D01*
G75*
G02*
X0306189Y0078811I0000000J0000276D01*
G01*
X0306189Y0081016D01*
G75*
G02*
X0306465Y0081291I0000276J0000000D01*
G01*
X0309535Y0081291D01*
G75*
G02*
X0309811Y0081016I0000000J-000276D01*
G01*
X0309811Y0078811D01*
G75*
G02*
X0309535Y0078535I-000276J0000000D01*
G01*
G37*
G36*
G01*
X0309535Y0084835D02*
X0306465Y0084835D01*
G75*
G02*
X0306189Y0085110I0000000J0000276D01*
G01*
X0306189Y0087315D01*
G75*
G02*
X0306465Y0087591I0000276J0000000D01*
G01*
X0309535Y0087591D01*
G75*
G02*
X0309811Y0087315I0000000J-000276D01*
G01*
X0309811Y0085110D01*
G75*
G02*
X0309535Y0084835I-000276J0000000D01*
G01*
G37*
G36*
G01*
X0319535Y0078535D02*
X0316465Y0078535D01*
G75*
G02*
X0316189Y0078811I0000000J0000276D01*
G01*
X0316189Y0081016D01*
G75*
G02*
X0316465Y0081291I0000276J0000000D01*
G01*
X0319535Y0081291D01*
G75*
G02*
X0319811Y0081016I0000000J-000276D01*
G01*
X0319811Y0078811D01*
G75*
G02*
X0319535Y0078535I-000276J0000000D01*
G01*
G37*
G36*
G01*
X0319535Y0084835D02*
X0316465Y0084835D01*
G75*
G02*
X0316189Y0085110I0000000J0000276D01*
G01*
X0316189Y0087315D01*
G75*
G02*
X0316465Y0087591I0000276J0000000D01*
G01*
X0319535Y0087591D01*
G75*
G02*
X0319811Y0087315I0000000J-000276D01*
G01*
X0319811Y0085110D01*
G75*
G02*
X0319535Y0084835I-000276J0000000D01*
G01*
G37*
G36*
G01*
X0214344Y0215328D02*
X0214344Y0213310D01*
G75*
G02*
X0213483Y0212449I-000861J0000000D01*
G01*
X0211761Y0212449D01*
G75*
G02*
X0210900Y0213310I0000000J0000861D01*
G01*
X0210900Y0215328D01*
G75*
G02*
X0211761Y0216189I0000861J0000000D01*
G01*
X0213483Y0216189D01*
G75*
G02*
X0214344Y0215328I0000000J-000861D01*
G01*
G37*
G36*
G01*
X0208144Y0215328D02*
X0208144Y0213310D01*
G75*
G02*
X0207282Y0212449I-000861J0000000D01*
G01*
X0205560Y0212449D01*
G75*
G02*
X0204699Y0213310I0000000J0000861D01*
G01*
X0204699Y0215328D01*
G75*
G02*
X0205560Y0216189I0000861J0000000D01*
G01*
X0207282Y0216189D01*
G75*
G02*
X0208144Y0215328I0000000J-000861D01*
G01*
G37*
G36*
G01*
X0293976Y0224026D02*
X0282756Y0224026D01*
G75*
G02*
X0281772Y0225010I0000000J0000984D01*
G01*
X0281772Y0227864D01*
G75*
G02*
X0282756Y0228848I0000984J0000000D01*
G01*
X0293976Y0228848D01*
G75*
G02*
X0294961Y0227864I0000000J-000984D01*
G01*
X0294961Y0225010D01*
G75*
G02*
X0293976Y0224026I-000984J0000000D01*
G01*
G37*
G36*
G01*
X0293976Y0247352D02*
X0282756Y0247352D01*
G75*
G02*
X0281772Y0248337I0000000J0000984D01*
G01*
X0281772Y0251191D01*
G75*
G02*
X0282756Y0252175I0000984J0000000D01*
G01*
X0293976Y0252175D01*
G75*
G02*
X0294961Y0251191I0000000J-000984D01*
G01*
X0294961Y0248337D01*
G75*
G02*
X0293976Y0247352I-000984J0000000D01*
G01*
G37*
G36*
G01*
X0351031Y0078535D02*
X0347961Y0078535D01*
G75*
G02*
X0347685Y0078811I0000000J0000276D01*
G01*
X0347685Y0081016D01*
G75*
G02*
X0347961Y0081291I0000276J0000000D01*
G01*
X0351031Y0081291D01*
G75*
G02*
X0351307Y0081016I0000000J-000276D01*
G01*
X0351307Y0078811D01*
G75*
G02*
X0351031Y0078535I-000276J0000000D01*
G01*
G37*
G36*
G01*
X0351031Y0084835D02*
X0347961Y0084835D01*
G75*
G02*
X0347685Y0085110I0000000J0000276D01*
G01*
X0347685Y0087315D01*
G75*
G02*
X0347961Y0087591I0000276J0000000D01*
G01*
X0351031Y0087591D01*
G75*
G02*
X0351307Y0087315I0000000J-000276D01*
G01*
X0351307Y0085110D01*
G75*
G02*
X0351031Y0084835I-000276J0000000D01*
G01*
G37*
G36*
G01*
X0254606Y0224026D02*
X0243386Y0224026D01*
G75*
G02*
X0242402Y0225010I0000000J0000984D01*
G01*
X0242402Y0227864D01*
G75*
G02*
X0243386Y0228848I0000984J0000000D01*
G01*
X0254606Y0228848D01*
G75*
G02*
X0255591Y0227864I0000000J-000984D01*
G01*
X0255591Y0225010D01*
G75*
G02*
X0254606Y0224026I-000984J0000000D01*
G01*
G37*
G36*
G01*
X0254606Y0247352D02*
X0243386Y0247352D01*
G75*
G02*
X0242402Y0248337I0000000J0000984D01*
G01*
X0242402Y0251191D01*
G75*
G02*
X0243386Y0252175I0000984J0000000D01*
G01*
X0254606Y0252175D01*
G75*
G02*
X0255591Y0251191I0000000J-000984D01*
G01*
X0255591Y0248337D01*
G75*
G02*
X0254606Y0247352I-000984J0000000D01*
G01*
G37*
G36*
G01*
X0333346Y0224026D02*
X0322126Y0224026D01*
G75*
G02*
X0321142Y0225010I0000000J0000984D01*
G01*
X0321142Y0227864D01*
G75*
G02*
X0322126Y0228848I0000984J0000000D01*
G01*
X0333346Y0228848D01*
G75*
G02*
X0334331Y0227864I0000000J-000984D01*
G01*
X0334331Y0225010D01*
G75*
G02*
X0333346Y0224026I-000984J0000000D01*
G01*
G37*
G36*
G01*
X0333346Y0247352D02*
X0322126Y0247352D01*
G75*
G02*
X0321142Y0248337I0000000J0000984D01*
G01*
X0321142Y0251191D01*
G75*
G02*
X0322126Y0252175I0000984J0000000D01*
G01*
X0333346Y0252175D01*
G75*
G02*
X0334331Y0251191I0000000J-000984D01*
G01*
X0334331Y0248337D01*
G75*
G02*
X0333346Y0247352I-000984J0000000D01*
G01*
G37*
G36*
G01*
X0244315Y0218783D02*
X0244315Y0221854D01*
G75*
G02*
X0244591Y0222130I0000276J0000000D01*
G01*
X0246795Y0222130D01*
G75*
G02*
X0247071Y0221854I0000000J-000276D01*
G01*
X0247071Y0218783D01*
G75*
G02*
X0246795Y0218508I-000276J0000000D01*
G01*
X0244591Y0218508D01*
G75*
G02*
X0244315Y0218783I0000000J0000276D01*
G01*
G37*
G36*
G01*
X0250614Y0218783D02*
X0250614Y0221854D01*
G75*
G02*
X0250890Y0222130I0000276J0000000D01*
G01*
X0253094Y0222130D01*
G75*
G02*
X0253370Y0221854I0000000J-000276D01*
G01*
X0253370Y0218783D01*
G75*
G02*
X0253094Y0218508I-000276J0000000D01*
G01*
X0250890Y0218508D01*
G75*
G02*
X0250614Y0218783I0000000J0000276D01*
G01*
G37*
G36*
G01*
X0305992Y0136976D02*
X0310008Y0136976D01*
G75*
G02*
X0310362Y0136622I0000000J-000354D01*
G01*
X0310362Y0133787D01*
G75*
G02*
X0310008Y0133433I-000354J0000000D01*
G01*
X0305992Y0133433D01*
G75*
G02*
X0305638Y0133787I0000000J0000354D01*
G01*
X0305638Y0136622D01*
G75*
G02*
X0305992Y0136976I0000354J0000000D01*
G01*
G37*
G36*
G01*
X0305992Y0123984D02*
X0310008Y0123984D01*
G75*
G02*
X0310362Y0123630I0000000J-000354D01*
G01*
X0310362Y0120795D01*
G75*
G02*
X0310008Y0120441I-000354J0000000D01*
G01*
X0305992Y0120441D01*
G75*
G02*
X0305638Y0120795I0000000J0000354D01*
G01*
X0305638Y0123630D01*
G75*
G02*
X0305992Y0123984I0000354J0000000D01*
G01*
G37*
G36*
G01*
X0332455Y0215328D02*
X0332455Y0213310D01*
G75*
G02*
X0331594Y0212449I-000861J0000000D01*
G01*
X0329871Y0212449D01*
G75*
G02*
X0329010Y0213310I0000000J0000861D01*
G01*
X0329010Y0215328D01*
G75*
G02*
X0329871Y0216189I0000861J0000000D01*
G01*
X0331594Y0216189D01*
G75*
G02*
X0332455Y0215328I0000000J-000861D01*
G01*
G37*
G36*
G01*
X0326254Y0215328D02*
X0326254Y0213310D01*
G75*
G02*
X0325393Y0212449I-000861J0000000D01*
G01*
X0323670Y0212449D01*
G75*
G02*
X0322809Y0213310I0000000J0000861D01*
G01*
X0322809Y0215328D01*
G75*
G02*
X0323670Y0216189I0000861J0000000D01*
G01*
X0325393Y0216189D01*
G75*
G02*
X0326254Y0215328I0000000J-000861D01*
G01*
G37*
G36*
G01*
X0347488Y0136976D02*
X0351504Y0136976D01*
G75*
G02*
X0351858Y0136622I0000000J-000354D01*
G01*
X0351858Y0133787D01*
G75*
G02*
X0351504Y0133433I-000354J0000000D01*
G01*
X0347488Y0133433D01*
G75*
G02*
X0347134Y0133787I0000000J0000354D01*
G01*
X0347134Y0136622D01*
G75*
G02*
X0347488Y0136976I0000354J0000000D01*
G01*
G37*
G36*
G01*
X0347488Y0123984D02*
X0351504Y0123984D01*
G75*
G02*
X0351858Y0123630I0000000J-000354D01*
G01*
X0351858Y0120795D01*
G75*
G02*
X0351504Y0120441I-000354J0000000D01*
G01*
X0347488Y0120441D01*
G75*
G02*
X0347134Y0120795I0000000J0000354D01*
G01*
X0347134Y0123630D01*
G75*
G02*
X0347488Y0123984I0000354J0000000D01*
G01*
G37*
G36*
G01*
X0315992Y0136976D02*
X0320008Y0136976D01*
G75*
G02*
X0320362Y0136622I0000000J-000354D01*
G01*
X0320362Y0133787D01*
G75*
G02*
X0320008Y0133433I-000354J0000000D01*
G01*
X0315992Y0133433D01*
G75*
G02*
X0315638Y0133787I0000000J0000354D01*
G01*
X0315638Y0136622D01*
G75*
G02*
X0315992Y0136976I0000354J0000000D01*
G01*
G37*
G36*
G01*
X0315992Y0123984D02*
X0320008Y0123984D01*
G75*
G02*
X0320362Y0123630I0000000J-000354D01*
G01*
X0320362Y0120795D01*
G75*
G02*
X0320008Y0120441I-000354J0000000D01*
G01*
X0315992Y0120441D01*
G75*
G02*
X0315638Y0120795I0000000J0000354D01*
G01*
X0315638Y0123630D01*
G75*
G02*
X0315992Y0123984I0000354J0000000D01*
G01*
G37*
G36*
G01*
X0350087Y0090374D02*
X0348906Y0090374D01*
G75*
G02*
X0348315Y0090965I0000000J0000591D01*
G01*
X0348315Y0097461D01*
G75*
G02*
X0348906Y0098051I0000591J0000000D01*
G01*
X0350087Y0098051D01*
G75*
G02*
X0350677Y0097461I0000000J-000591D01*
G01*
X0350677Y0090965D01*
G75*
G02*
X0350087Y0090374I-000591J0000000D01*
G01*
G37*
G36*
G01*
X0345087Y0090374D02*
X0343906Y0090374D01*
G75*
G02*
X0343315Y0090965I0000000J0000591D01*
G01*
X0343315Y0097461D01*
G75*
G02*
X0343906Y0098051I0000591J0000000D01*
G01*
X0345087Y0098051D01*
G75*
G02*
X0345677Y0097461I0000000J-000591D01*
G01*
X0345677Y0090965D01*
G75*
G02*
X0345087Y0090374I-000591J0000000D01*
G01*
G37*
G36*
G01*
X0340087Y0090374D02*
X0338906Y0090374D01*
G75*
G02*
X0338315Y0090965I0000000J0000591D01*
G01*
X0338315Y0097461D01*
G75*
G02*
X0338906Y0098051I0000591J0000000D01*
G01*
X0340087Y0098051D01*
G75*
G02*
X0340677Y0097461I0000000J-000591D01*
G01*
X0340677Y0090965D01*
G75*
G02*
X0340087Y0090374I-000591J0000000D01*
G01*
G37*
G36*
G01*
X0335087Y0090374D02*
X0333906Y0090374D01*
G75*
G02*
X0333315Y0090965I0000000J0000591D01*
G01*
X0333315Y0097461D01*
G75*
G02*
X0333906Y0098051I0000591J0000000D01*
G01*
X0335087Y0098051D01*
G75*
G02*
X0335677Y0097461I0000000J-000591D01*
G01*
X0335677Y0090965D01*
G75*
G02*
X0335087Y0090374I-000591J0000000D01*
G01*
G37*
G36*
G01*
X0335087Y0109862D02*
X0333906Y0109862D01*
G75*
G02*
X0333315Y0110453I0000000J0000591D01*
G01*
X0333315Y0116949D01*
G75*
G02*
X0333906Y0117539I0000591J0000000D01*
G01*
X0335087Y0117539D01*
G75*
G02*
X0335677Y0116949I0000000J-000591D01*
G01*
X0335677Y0110453D01*
G75*
G02*
X0335087Y0109862I-000591J0000000D01*
G01*
G37*
G36*
G01*
X0340087Y0109862D02*
X0338906Y0109862D01*
G75*
G02*
X0338315Y0110453I0000000J0000591D01*
G01*
X0338315Y0116949D01*
G75*
G02*
X0338906Y0117539I0000591J0000000D01*
G01*
X0340087Y0117539D01*
G75*
G02*
X0340677Y0116949I0000000J-000591D01*
G01*
X0340677Y0110453D01*
G75*
G02*
X0340087Y0109862I-000591J0000000D01*
G01*
G37*
G36*
G01*
X0345087Y0109862D02*
X0343906Y0109862D01*
G75*
G02*
X0343315Y0110453I0000000J0000591D01*
G01*
X0343315Y0116949D01*
G75*
G02*
X0343906Y0117539I0000591J0000000D01*
G01*
X0345087Y0117539D01*
G75*
G02*
X0345677Y0116949I0000000J-000591D01*
G01*
X0345677Y0110453D01*
G75*
G02*
X0345087Y0109862I-000591J0000000D01*
G01*
G37*
G36*
G01*
X0350087Y0109862D02*
X0348906Y0109862D01*
G75*
G02*
X0348315Y0110453I0000000J0000591D01*
G01*
X0348315Y0116949D01*
G75*
G02*
X0348906Y0117539I0000591J0000000D01*
G01*
X0350087Y0117539D01*
G75*
G02*
X0350677Y0116949I0000000J-000591D01*
G01*
X0350677Y0110453D01*
G75*
G02*
X0350087Y0109862I-000591J0000000D01*
G01*
G37*
G36*
G01*
X0341031Y0078535D02*
X0337961Y0078535D01*
G75*
G02*
X0337685Y0078811I0000000J0000276D01*
G01*
X0337685Y0081016D01*
G75*
G02*
X0337961Y0081291I0000276J0000000D01*
G01*
X0341031Y0081291D01*
G75*
G02*
X0341307Y0081016I0000000J-000276D01*
G01*
X0341307Y0078811D01*
G75*
G02*
X0341031Y0078535I-000276J0000000D01*
G01*
G37*
G36*
G01*
X0341031Y0084835D02*
X0337961Y0084835D01*
G75*
G02*
X0337685Y0085110I0000000J0000276D01*
G01*
X0337685Y0087315D01*
G75*
G02*
X0337961Y0087591I0000276J0000000D01*
G01*
X0341031Y0087591D01*
G75*
G02*
X0341307Y0087315I0000000J-000276D01*
G01*
X0341307Y0085110D01*
G75*
G02*
X0341031Y0084835I-000276J0000000D01*
G01*
G37*
G36*
G01*
X0215236Y0224026D02*
X0204016Y0224026D01*
G75*
G02*
X0203031Y0225010I0000000J0000984D01*
G01*
X0203031Y0227864D01*
G75*
G02*
X0204016Y0228848I0000984J0000000D01*
G01*
X0215236Y0228848D01*
G75*
G02*
X0216220Y0227864I0000000J-000984D01*
G01*
X0216220Y0225010D01*
G75*
G02*
X0215236Y0224026I-000984J0000000D01*
G01*
G37*
G36*
G01*
X0215236Y0247352D02*
X0204016Y0247352D01*
G75*
G02*
X0203031Y0248337I0000000J0000984D01*
G01*
X0203031Y0251191D01*
G75*
G02*
X0204016Y0252175I0000984J0000000D01*
G01*
X0215236Y0252175D01*
G75*
G02*
X0216220Y0251191I0000000J-000984D01*
G01*
X0216220Y0248337D01*
G75*
G02*
X0215236Y0247352I-000984J0000000D01*
G01*
G37*
G36*
G01*
X0318591Y0090374D02*
X0317409Y0090374D01*
G75*
G02*
X0316819Y0090965I0000000J0000591D01*
G01*
X0316819Y0097461D01*
G75*
G02*
X0317409Y0098051I0000591J0000000D01*
G01*
X0318591Y0098051D01*
G75*
G02*
X0319181Y0097461I0000000J-000591D01*
G01*
X0319181Y0090965D01*
G75*
G02*
X0318591Y0090374I-000591J0000000D01*
G01*
G37*
G36*
G01*
X0313591Y0090374D02*
X0312409Y0090374D01*
G75*
G02*
X0311819Y0090965I0000000J0000591D01*
G01*
X0311819Y0097461D01*
G75*
G02*
X0312409Y0098051I0000591J0000000D01*
G01*
X0313591Y0098051D01*
G75*
G02*
X0314181Y0097461I0000000J-000591D01*
G01*
X0314181Y0090965D01*
G75*
G02*
X0313591Y0090374I-000591J0000000D01*
G01*
G37*
G36*
G01*
X0308591Y0090374D02*
X0307409Y0090374D01*
G75*
G02*
X0306819Y0090965I0000000J0000591D01*
G01*
X0306819Y0097461D01*
G75*
G02*
X0307409Y0098051I0000591J0000000D01*
G01*
X0308591Y0098051D01*
G75*
G02*
X0309181Y0097461I0000000J-000591D01*
G01*
X0309181Y0090965D01*
G75*
G02*
X0308591Y0090374I-000591J0000000D01*
G01*
G37*
G36*
G01*
X0303591Y0090374D02*
X0302409Y0090374D01*
G75*
G02*
X0301819Y0090965I0000000J0000591D01*
G01*
X0301819Y0097461D01*
G75*
G02*
X0302409Y0098051I0000591J0000000D01*
G01*
X0303591Y0098051D01*
G75*
G02*
X0304181Y0097461I0000000J-000591D01*
G01*
X0304181Y0090965D01*
G75*
G02*
X0303591Y0090374I-000591J0000000D01*
G01*
G37*
G36*
G01*
X0303591Y0109862D02*
X0302409Y0109862D01*
G75*
G02*
X0301819Y0110453I0000000J0000591D01*
G01*
X0301819Y0116949D01*
G75*
G02*
X0302409Y0117539I0000591J0000000D01*
G01*
X0303591Y0117539D01*
G75*
G02*
X0304181Y0116949I0000000J-000591D01*
G01*
X0304181Y0110453D01*
G75*
G02*
X0303591Y0109862I-000591J0000000D01*
G01*
G37*
G36*
G01*
X0308591Y0109862D02*
X0307409Y0109862D01*
G75*
G02*
X0306819Y0110453I0000000J0000591D01*
G01*
X0306819Y0116949D01*
G75*
G02*
X0307409Y0117539I0000591J0000000D01*
G01*
X0308591Y0117539D01*
G75*
G02*
X0309181Y0116949I0000000J-000591D01*
G01*
X0309181Y0110453D01*
G75*
G02*
X0308591Y0109862I-000591J0000000D01*
G01*
G37*
G36*
G01*
X0313591Y0109862D02*
X0312409Y0109862D01*
G75*
G02*
X0311819Y0110453I0000000J0000591D01*
G01*
X0311819Y0116949D01*
G75*
G02*
X0312409Y0117539I0000591J0000000D01*
G01*
X0313591Y0117539D01*
G75*
G02*
X0314181Y0116949I0000000J-000591D01*
G01*
X0314181Y0110453D01*
G75*
G02*
X0313591Y0109862I-000591J0000000D01*
G01*
G37*
G36*
G01*
X0318591Y0109862D02*
X0317409Y0109862D01*
G75*
G02*
X0316819Y0110453I0000000J0000591D01*
G01*
X0316819Y0116949D01*
G75*
G02*
X0317409Y0117539I0000591J0000000D01*
G01*
X0318591Y0117539D01*
G75*
G02*
X0319181Y0116949I0000000J-000591D01*
G01*
X0319181Y0110453D01*
G75*
G02*
X0318591Y0109862I-000591J0000000D01*
G01*
G37*
G36*
G01*
X0337488Y0136976D02*
X0341504Y0136976D01*
G75*
G02*
X0341858Y0136622I0000000J-000354D01*
G01*
X0341858Y0133787D01*
G75*
G02*
X0341504Y0133433I-000354J0000000D01*
G01*
X0337488Y0133433D01*
G75*
G02*
X0337134Y0133787I0000000J0000354D01*
G01*
X0337134Y0136622D01*
G75*
G02*
X0337488Y0136976I0000354J0000000D01*
G01*
G37*
G36*
G01*
X0337488Y0123984D02*
X0341504Y0123984D01*
G75*
G02*
X0341858Y0123630I0000000J-000354D01*
G01*
X0341858Y0120795D01*
G75*
G02*
X0341504Y0120441I-000354J0000000D01*
G01*
X0337488Y0120441D01*
G75*
G02*
X0337134Y0120795I0000000J0000354D01*
G01*
X0337134Y0123630D01*
G75*
G02*
X0337488Y0123984I0000354J0000000D01*
G01*
G37*
X0005888Y0140291D02*
%LPD*%
G01*
X0089543Y0020906D02*
G01*
G75*
D21*
X0089937Y0048465D02*
D03*
D20*
X0089937Y0025434D02*
D03*
D23*
X0089937Y0072874D02*
D03*
D30*
X0255685Y0024843D02*
D03*
D25*
X0102535Y0178386D02*
D03*
D26*
X0136000Y0178386D02*
D03*
D27*
X0174779Y0178386D02*
D03*
D29*
X0255685Y0047087D02*
D03*
D28*
X0255685Y0172481D02*
D03*
D24*
X0097023Y0021300D02*
D03*
D22*
X0089937Y0158701D02*
D03*
D76*
X0101158Y0122148D02*
D03*
X0110410Y0125888D02*
D03*
D76*
X0101158Y0129629D02*
D03*
D82*
X0237525Y0117363D02*
D03*
X0237525Y0113426D02*
D03*
X0121236Y0072874D02*
D03*
X0121236Y0076811D02*
D03*
X0241905Y0115788D02*
D03*
X0241905Y0111851D02*
D03*
X0118185Y0175040D02*
D03*
X0118185Y0171103D02*
D03*
X0151368Y0097678D02*
D03*
X0151368Y0093741D02*
D03*
X0168273Y0097606D02*
D03*
X0168273Y0101543D02*
D03*
X0146236Y0094134D02*
D03*
X0146236Y0098071D02*
D03*
X0095042Y0077722D02*
D03*
X0095042Y0073785D02*
D03*
X0112771Y0146890D02*
D03*
X0112771Y0142953D02*
D03*
X0092299Y0165985D02*
D03*
X0092299Y0169922D02*
D03*
X0224189Y0090197D02*
D03*
X0224189Y0086260D02*
D03*
X0150567Y0154764D02*
D03*
X0150567Y0158701D02*
D03*
X0180784Y0088327D02*
D03*
X0180784Y0092264D02*
D03*
X0169759Y0169627D02*
D03*
X0169759Y0173563D02*
D03*
X0222614Y0102008D02*
D03*
X0222614Y0098071D02*
D03*
X0226551Y0102008D02*
D03*
X0226551Y0098071D02*
D03*
X0096433Y0165985D02*
D03*
X0096433Y0169922D02*
D03*
X0233441Y0117363D02*
D03*
X0233441Y0113426D02*
D03*
X0233244Y0139804D02*
D03*
X0233244Y0135867D02*
D03*
X0185114Y0088327D02*
D03*
X0185114Y0092264D02*
D03*
X0188756Y0174843D02*
D03*
X0188756Y0170906D02*
D03*
X0150567Y0125237D02*
D03*
X0150567Y0129174D02*
D03*
X0150567Y0121693D02*
D03*
X0150567Y0117756D02*
D03*
X0137181Y0045315D02*
D03*
X0137181Y0041378D02*
D03*
X0141905Y0045315D02*
D03*
X0141905Y0041378D02*
D03*
X0146630Y0045315D02*
D03*
X0146630Y0041378D02*
D03*
X0151354Y0045315D02*
D03*
X0151354Y0041378D02*
D03*
X0236000Y0026024D02*
D03*
X0236000Y0029961D02*
D03*
X0240724Y0029961D02*
D03*
X0240724Y0026024D02*
D03*
X0245448Y0026024D02*
D03*
X0245448Y0029961D02*
D03*
X0250173Y0026024D02*
D03*
X0250173Y0029961D02*
D03*
X0117299Y0072874D02*
D03*
X0117299Y0076811D02*
D03*
X0145252Y0072874D02*
D03*
X0145252Y0076811D02*
D03*
X0113559Y0045315D02*
D03*
X0113559Y0041378D02*
D03*
X0108835Y0045315D02*
D03*
X0108835Y0041378D02*
D03*
X0104110Y0045315D02*
D03*
X0104110Y0041378D02*
D03*
X0099386Y0045315D02*
D03*
X0099386Y0041378D02*
D03*
X0132457Y0045315D02*
D03*
X0132457Y0041378D02*
D03*
X0127732Y0045315D02*
D03*
X0127732Y0041378D02*
D03*
X0123008Y0045315D02*
D03*
X0123008Y0041378D02*
D03*
X0118283Y0045315D02*
D03*
X0118283Y0041378D02*
D03*
X0170252Y0045315D02*
D03*
X0170252Y0041378D02*
D03*
X0165528Y0045315D02*
D03*
X0165528Y0041378D02*
D03*
X0160803Y0045315D02*
D03*
X0160803Y0041378D02*
D03*
X0156079Y0045315D02*
D03*
X0156079Y0041378D02*
D03*
X0189150Y0041378D02*
D03*
X0189150Y0045315D02*
D03*
X0184425Y0045315D02*
D03*
X0184425Y0041378D02*
D03*
X0179701Y0045315D02*
D03*
X0179701Y0041378D02*
D03*
X0174976Y0045315D02*
D03*
X0174976Y0041378D02*
D03*
X0208047Y0045315D02*
D03*
X0208047Y0041378D02*
D03*
X0203323Y0045315D02*
D03*
X0203323Y0041378D02*
D03*
X0198598Y0045315D02*
D03*
X0198598Y0041378D02*
D03*
X0193874Y0045315D02*
D03*
X0193874Y0041378D02*
D03*
X0222220Y0045315D02*
D03*
X0222220Y0041378D02*
D03*
X0217496Y0045315D02*
D03*
X0217496Y0041378D02*
D03*
X0212771Y0045315D02*
D03*
X0212771Y0041378D02*
D03*
X0094267Y0036063D02*
D03*
X0094267Y0040000D02*
D03*
X0231276Y0029961D02*
D03*
X0231276Y0026024D02*
D03*
X0145252Y0062638D02*
D03*
X0145252Y0066575D02*
D03*
X0232850Y0041378D02*
D03*
X0232850Y0045315D02*
D03*
X0094267Y0028386D02*
D03*
X0094267Y0032323D02*
D03*
X0232850Y0037441D02*
D03*
X0232850Y0033504D02*
D03*
X0237968Y0167756D02*
D03*
X0237968Y0163819D02*
D03*
X0226945Y0045315D02*
D03*
X0226945Y0041378D02*
D03*
D85*
X0126945Y0137737D02*
D03*
X0134031Y0137737D02*
D03*
X0134031Y0127697D02*
D03*
X0126945Y0127697D02*
D03*
X0141512Y0089508D02*
D03*
X0134425Y0089508D02*
D03*
X0134425Y0099548D02*
D03*
X0141512Y0099548D02*
D03*
X0141512Y0105650D02*
D03*
X0134425Y0105650D02*
D03*
X0134425Y0115690D02*
D03*
X0141512Y0115690D02*
D03*
X0236984Y0069823D02*
D03*
X0229897Y0069823D02*
D03*
X0229897Y0059784D02*
D03*
X0236984Y0059784D02*
D03*
X0218480Y0059784D02*
D03*
X0225567Y0059784D02*
D03*
X0225567Y0069823D02*
D03*
X0218480Y0069823D02*
D03*
X0168480Y0069823D02*
D03*
X0161394Y0069823D02*
D03*
X0161394Y0059784D02*
D03*
X0168480Y0059784D02*
D03*
X0149976Y0059784D02*
D03*
X0157063Y0059784D02*
D03*
X0157063Y0069823D02*
D03*
X0149976Y0069823D02*
D03*
X0191315Y0069823D02*
D03*
X0184228Y0069823D02*
D03*
X0184228Y0059784D02*
D03*
X0191315Y0059784D02*
D03*
X0172811Y0059784D02*
D03*
X0179898Y0059784D02*
D03*
X0179898Y0069823D02*
D03*
X0172811Y0069823D02*
D03*
X0214150Y0069823D02*
D03*
X0207063Y0069823D02*
D03*
X0207063Y0059784D02*
D03*
X0214150Y0059784D02*
D03*
X0195646Y0059784D02*
D03*
X0202732Y0059784D02*
D03*
X0202732Y0069823D02*
D03*
X0195646Y0069823D02*
D03*
D86*
X0134031Y0131142D02*
D03*
X0134031Y0134292D02*
D03*
X0126945Y0134292D02*
D03*
X0126945Y0131142D02*
D03*
X0134425Y0096103D02*
D03*
X0134425Y0092953D02*
D03*
X0141512Y0092953D02*
D03*
X0141512Y0096103D02*
D03*
X0134425Y0112245D02*
D03*
X0134425Y0109095D02*
D03*
X0141512Y0109095D02*
D03*
X0141512Y0112245D02*
D03*
X0236984Y0066378D02*
D03*
X0236984Y0063229D02*
D03*
X0229897Y0063229D02*
D03*
X0229897Y0066378D02*
D03*
X0218480Y0063229D02*
D03*
X0218480Y0066378D02*
D03*
X0225567Y0066378D02*
D03*
X0225567Y0063229D02*
D03*
X0168480Y0066378D02*
D03*
X0168480Y0063229D02*
D03*
X0161394Y0063229D02*
D03*
X0161394Y0066378D02*
D03*
X0149976Y0063229D02*
D03*
X0149976Y0066378D02*
D03*
X0157063Y0066378D02*
D03*
X0157063Y0063229D02*
D03*
X0191315Y0066378D02*
D03*
X0191315Y0063229D02*
D03*
X0184228Y0063229D02*
D03*
X0184228Y0066378D02*
D03*
X0172811Y0063229D02*
D03*
X0172811Y0066378D02*
D03*
X0179898Y0066378D02*
D03*
X0179898Y0063229D02*
D03*
X0214150Y0066378D02*
D03*
X0214150Y0063229D02*
D03*
X0207063Y0063229D02*
D03*
X0207063Y0066378D02*
D03*
X0195646Y0063229D02*
D03*
X0195646Y0066378D02*
D03*
X0202732Y0066378D02*
D03*
X0202732Y0063229D02*
D03*
D90*
X0114937Y0131733D02*
D03*
X0114937Y0134292D02*
D03*
X0114937Y0136851D02*
D03*
X0122417Y0136851D02*
D03*
X0122417Y0131733D02*
D03*
D96*
X0133244Y0172284D02*
D03*
X0129307Y0172284D02*
D03*
X0249386Y0156536D02*
D03*
X0245448Y0156536D02*
D03*
X0108286Y0151715D02*
D03*
X0112223Y0151715D02*
D03*
X0134031Y0145709D02*
D03*
X0130094Y0145709D02*
D03*
X0122220Y0145709D02*
D03*
X0126157Y0145709D02*
D03*
X0230882Y0090985D02*
D03*
X0234819Y0090985D02*
D03*
X0161590Y0172875D02*
D03*
X0165527Y0172875D02*
D03*
X0230291Y0160670D02*
D03*
X0234228Y0160670D02*
D03*
X0202929Y0171693D02*
D03*
X0206866Y0171693D02*
D03*
X0158453Y0084884D02*
D03*
X0154516Y0084884D02*
D03*
X0149189Y0107520D02*
D03*
X0153126Y0107520D02*
D03*
X0159228Y0105945D02*
D03*
X0163165Y0105945D02*
D03*
X0158441Y0134292D02*
D03*
X0162378Y0134292D02*
D03*
X0253716Y0174449D02*
D03*
X0249779Y0174449D02*
D03*
X0140527Y0173465D02*
D03*
X0136590Y0173465D02*
D03*
X0122614Y0159095D02*
D03*
X0126551Y0159095D02*
D03*
X0233638Y0097284D02*
D03*
X0237575Y0097284D02*
D03*
X0233638Y0101221D02*
D03*
X0237575Y0101221D02*
D03*
X0234228Y0164607D02*
D03*
X0230291Y0164607D02*
D03*
X0207161Y0088721D02*
D03*
X0203224Y0088721D02*
D03*
X0150567Y0133898D02*
D03*
X0154504Y0133898D02*
D03*
X0150567Y0102205D02*
D03*
X0154504Y0102205D02*
D03*
X0158834Y0157520D02*
D03*
X0162771Y0157520D02*
D03*
X0158047Y0142166D02*
D03*
X0161984Y0142166D02*
D03*
X0172909Y0088327D02*
D03*
X0176846Y0088327D02*
D03*
X0227142Y0076024D02*
D03*
X0223205Y0076024D02*
D03*
X0158638Y0076024D02*
D03*
X0154701Y0076024D02*
D03*
X0181472Y0076024D02*
D03*
X0177535Y0076024D02*
D03*
X0204307Y0076024D02*
D03*
X0200370Y0076024D02*
D03*
X0165134Y0052008D02*
D03*
X0161197Y0052008D02*
D03*
X0110082Y0055552D02*
D03*
X0114019Y0055552D02*
D03*
X0100893Y0055552D02*
D03*
X0096956Y0055552D02*
D03*
X0134886Y0055552D02*
D03*
X0138823Y0055552D02*
D03*
X0125697Y0055552D02*
D03*
X0121760Y0055552D02*
D03*
X0098795Y0137441D02*
D03*
X0094858Y0137441D02*
D03*
X0103323Y0137441D02*
D03*
X0107260Y0137441D02*
D03*
X0140331Y0049252D02*
D03*
X0136394Y0049252D02*
D03*
X0093480Y0087048D02*
D03*
X0097417Y0087048D02*
D03*
X0093480Y0099449D02*
D03*
X0097417Y0099449D02*
D03*
X0093480Y0103583D02*
D03*
X0097417Y0103583D02*
D03*
X0093480Y0111851D02*
D03*
X0097417Y0111851D02*
D03*
X0093480Y0107717D02*
D03*
X0097417Y0107717D02*
D03*
X0093480Y0115985D02*
D03*
X0097417Y0115985D02*
D03*
X0093480Y0095316D02*
D03*
X0097417Y0095316D02*
D03*
X0093480Y0091182D02*
D03*
X0097417Y0091182D02*
D03*
D132*
X0143520Y0138426D02*
D03*
X0149740Y0138426D02*
D03*
D133*
X0246123Y0148777D02*
D03*
X0249863Y0139525D02*
D03*
X0163694Y0091026D02*
D03*
X0159954Y0100278D02*
D03*
X0100173Y0151890D02*
D03*
X0096433Y0161142D02*
D03*
X0105882Y0165315D02*
D03*
X0109622Y0156064D02*
D03*
X0242496Y0056930D02*
D03*
X0246236Y0047678D02*
D03*
X0246236Y0062573D02*
D03*
X0242496Y0071825D02*
D03*
X0242496Y0086720D02*
D03*
X0246236Y0077468D02*
D03*
X0241709Y0101615D02*
D03*
X0245449Y0092363D02*
D03*
D133*
X0242383Y0139525D02*
D03*
X0156214Y0091026D02*
D03*
X0092693Y0151890D02*
D03*
X0113362Y0165316D02*
D03*
X0249976Y0056930D02*
D03*
X0249976Y0071825D02*
D03*
X0249976Y0086720D02*
D03*
X0249189Y0101615D02*
D03*
D134*
X0093874Y0144528D02*
D03*
X0106866Y0144528D02*
D03*
X0131275Y0154764D02*
D03*
X0144268Y0154764D02*
D03*
D135*
X0126354Y0153189D02*
D03*
X0119661Y0153189D02*
D03*
D136*
X0248598Y0115394D02*
D03*
X0248598Y0126811D02*
D03*
D137*
X0186669Y0126430D02*
D03*
X0191000Y0126430D02*
D03*
X0195331Y0126430D02*
D03*
X0199661Y0126430D02*
D03*
X0203992Y0126430D02*
D03*
X0208323Y0126430D02*
D03*
X0212654Y0126430D02*
D03*
X0216984Y0126430D02*
D03*
D138*
X0226354Y0116194D02*
D03*
X0226354Y0148871D02*
D03*
X0172221Y0148871D02*
D03*
X0172221Y0116194D02*
D03*
D140*
X0161591Y0127402D02*
D03*
X0161591Y0112835D02*
D03*
D141*
X0208146Y0103583D02*
D03*
X0208146Y0096497D02*
D03*
X0218185Y0096497D02*
D03*
X0218185Y0103583D02*
D03*
X0139248Y0028583D02*
D03*
X0139248Y0035670D02*
D03*
X0149287Y0035670D02*
D03*
X0149287Y0028583D02*
D03*
X0111098Y0063032D02*
D03*
X0111098Y0070119D02*
D03*
X0101059Y0070119D02*
D03*
X0101059Y0063032D02*
D03*
X0101059Y0081536D02*
D03*
X0101059Y0074449D02*
D03*
X0111098Y0074449D02*
D03*
X0111098Y0081536D02*
D03*
X0139051Y0063032D02*
D03*
X0139051Y0070119D02*
D03*
X0129012Y0070119D02*
D03*
X0129012Y0063032D02*
D03*
X0129012Y0081536D02*
D03*
X0129012Y0074449D02*
D03*
X0139051Y0074449D02*
D03*
X0139051Y0081536D02*
D03*
X0101453Y0028583D02*
D03*
X0101453Y0035670D02*
D03*
X0111492Y0035670D02*
D03*
X0111492Y0028583D02*
D03*
X0120350Y0028583D02*
D03*
X0120350Y0035670D02*
D03*
X0130389Y0035670D02*
D03*
X0130389Y0028583D02*
D03*
X0158145Y0028583D02*
D03*
X0158145Y0035670D02*
D03*
X0168185Y0035670D02*
D03*
X0168185Y0028583D02*
D03*
X0177043Y0028583D02*
D03*
X0177043Y0035670D02*
D03*
X0187083Y0035670D02*
D03*
X0187083Y0028583D02*
D03*
X0195941Y0028583D02*
D03*
X0195941Y0035670D02*
D03*
X0205980Y0035670D02*
D03*
X0205980Y0028583D02*
D03*
X0214838Y0028583D02*
D03*
X0214838Y0035670D02*
D03*
X0224878Y0035670D02*
D03*
X0224878Y0028583D02*
D03*
X0248106Y0034292D02*
D03*
X0248106Y0041378D02*
D03*
X0238067Y0041378D02*
D03*
X0238067Y0034292D02*
D03*
D142*
X0211590Y0103583D02*
D03*
X0214740Y0103583D02*
D03*
X0214740Y0096497D02*
D03*
X0211590Y0096497D02*
D03*
X0145842Y0035670D02*
D03*
X0142693Y0035670D02*
D03*
X0142693Y0028583D02*
D03*
X0145842Y0028583D02*
D03*
X0107653Y0063032D02*
D03*
X0104504Y0063032D02*
D03*
X0104504Y0070119D02*
D03*
X0107653Y0070119D02*
D03*
X0104504Y0081536D02*
D03*
X0107653Y0081536D02*
D03*
X0107653Y0074449D02*
D03*
X0104504Y0074449D02*
D03*
X0135606Y0063032D02*
D03*
X0132456Y0063032D02*
D03*
X0132456Y0070119D02*
D03*
X0135606Y0070119D02*
D03*
X0132457Y0081536D02*
D03*
X0135606Y0081536D02*
D03*
X0135606Y0074449D02*
D03*
X0132457Y0074449D02*
D03*
X0108047Y0035670D02*
D03*
X0104898Y0035670D02*
D03*
X0104898Y0028583D02*
D03*
X0108047Y0028583D02*
D03*
X0126945Y0035670D02*
D03*
X0123795Y0035670D02*
D03*
X0123795Y0028583D02*
D03*
X0126945Y0028583D02*
D03*
X0164740Y0035670D02*
D03*
X0161590Y0035670D02*
D03*
X0161590Y0028583D02*
D03*
X0164740Y0028583D02*
D03*
X0183638Y0035670D02*
D03*
X0180488Y0035670D02*
D03*
X0180488Y0028583D02*
D03*
X0183638Y0028583D02*
D03*
X0202535Y0035670D02*
D03*
X0199386Y0035670D02*
D03*
X0199386Y0028583D02*
D03*
X0202535Y0028583D02*
D03*
X0221433Y0035670D02*
D03*
X0218283Y0035670D02*
D03*
X0218283Y0028583D02*
D03*
X0221433Y0028583D02*
D03*
X0244661Y0034292D02*
D03*
X0241512Y0034292D02*
D03*
X0241512Y0041378D02*
D03*
X0244661Y0041378D02*
D03*
D143*
X0233244Y0131142D02*
D03*
X0233244Y0124843D02*
D03*
X0179602Y0166871D02*
D03*
X0179602Y0173170D02*
D03*
X0094268Y0133111D02*
D03*
X0094268Y0126811D02*
D03*
X0238756Y0123662D02*
D03*
X0238756Y0129961D02*
D03*
D144*
X0158834Y0152599D02*
D03*
X0158834Y0146693D02*
D03*
D145*
X0149780Y0147678D02*
D03*
X0143480Y0147678D02*
D03*
X0149780Y0143052D02*
D03*
X0143480Y0143052D02*
D03*
D146*
X0101354Y0172284D02*
D03*
X0112771Y0172284D02*
D03*
D147*
X0103165Y0088032D02*
D03*
X0103165Y0090591D02*
D03*
X0103165Y0093150D02*
D03*
X0103165Y0095709D02*
D03*
X0103165Y0098268D02*
D03*
X0103165Y0100827D02*
D03*
X0103165Y0103386D02*
D03*
X0103165Y0105945D02*
D03*
X0103165Y0108504D02*
D03*
X0103165Y0111064D02*
D03*
X0103165Y0113622D02*
D03*
X0103165Y0116182D02*
D03*
X0126158Y0088032D02*
D03*
X0126158Y0090591D02*
D03*
X0126158Y0093150D02*
D03*
X0126158Y0095709D02*
D03*
X0126158Y0098268D02*
D03*
X0126158Y0100827D02*
D03*
X0126158Y0103386D02*
D03*
X0126158Y0105945D02*
D03*
X0126158Y0108504D02*
D03*
X0126158Y0111064D02*
D03*
X0126158Y0113622D02*
D03*
X0126158Y0116182D02*
D03*
D148*
X0246433Y0164213D02*
D03*
X0244465Y0164213D02*
D03*
X0244465Y0170512D02*
D03*
X0246433Y0170512D02*
D03*
D149*
X0242299Y0164410D02*
D03*
X0242299Y0166379D02*
D03*
X0242299Y0168347D02*
D03*
X0242299Y0170315D02*
D03*
X0248599Y0164410D02*
D03*
X0248599Y0170315D02*
D03*
X0248599Y0166379D02*
D03*
X0248599Y0168347D02*
D03*
X0319693Y0001102D02*
G01*
G75*
D173*
X0347646Y0011338D02*
D03*
X0351583Y0011338D02*
D03*
X0336523Y0011338D02*
D03*
X0332586Y0011338D02*
D03*
X0328157Y0011338D02*
D03*
X0324220Y0011338D02*
D03*
X0347646Y0004055D02*
D03*
X0351583Y0004055D02*
D03*
D174*
X0344261Y0003858D02*
D03*
X0344261Y0007401D02*
D03*
D175*
X0340376Y0010571D02*
D03*
X0340376Y0004350D02*
D03*
D176*
X0327764Y0007401D02*
D03*
X0324221Y0007401D02*
D03*
X0336130Y0003858D02*
D03*
X0332587Y0003858D02*
D03*
X0350992Y0007459D02*
D03*
X0347449Y0007459D02*
D03*
X0324221Y0003858D02*
D03*
X0327764Y0003858D02*
D03*
X0057496Y0167811D02*
%LPD*%
G01*
G36*
G01*
X0050137Y0247516D02*
X0048779Y0247516D01*
G75*
G02*
X0048198Y0248096I0000000J0000581D01*
G01*
X0048198Y0249258D01*
G75*
G02*
X0048779Y0249839I0000581J0000000D01*
G01*
X0050137Y0249839D01*
G75*
G02*
X0050718Y0249258I0000000J-000581D01*
G01*
X0050718Y0248096D01*
G75*
G02*
X0050137Y0247516I-000581J0000000D01*
G01*
G37*
G36*
G01*
X0050137Y0251335D02*
X0048779Y0251335D01*
G75*
G02*
X0048198Y0251915I0000000J0000581D01*
G01*
X0048198Y0253077D01*
G75*
G02*
X0048779Y0253657I0000581J0000000D01*
G01*
X0050137Y0253657D01*
G75*
G02*
X0050718Y0253077I0000000J-000581D01*
G01*
X0050718Y0251915D01*
G75*
G02*
X0050137Y0251335I-000581J0000000D01*
G01*
G37*
G36*
G01*
X0034848Y0261984D02*
X0033490Y0261984D01*
G75*
G02*
X0032909Y0262565I0000000J0000581D01*
G01*
X0032909Y0263726D01*
G75*
G02*
X0033490Y0264307I0000581J0000000D01*
G01*
X0034848Y0264307D01*
G75*
G02*
X0035429Y0263726I0000000J-000581D01*
G01*
X0035429Y0262565D01*
G75*
G02*
X0034848Y0261984I-000581J0000000D01*
G01*
G37*
G36*
G01*
X0034848Y0265803D02*
X0033490Y0265803D01*
G75*
G02*
X0032909Y0266384I0000000J0000581D01*
G01*
X0032909Y0267545D01*
G75*
G02*
X0033490Y0268126I0000581J0000000D01*
G01*
X0034848Y0268126D01*
G75*
G02*
X0035429Y0267545I0000000J-000581D01*
G01*
X0035429Y0266384D01*
G75*
G02*
X0034848Y0265803I-000581J0000000D01*
G01*
G37*
G36*
G01*
X0008652Y0212102D02*
X0010670Y0212102D01*
G75*
G02*
X0011531Y0211241I0000000J-000861D01*
G01*
X0011531Y0209519D01*
G75*
G02*
X0010670Y0208657I-000861J0000000D01*
G01*
X0008652Y0208657D01*
G75*
G02*
X0007791Y0209519I0000000J0000861D01*
G01*
X0007791Y0211241D01*
G75*
G02*
X0008652Y0212102I0000861J0000000D01*
G01*
G37*
G36*
G01*
X0008652Y0205902D02*
X0010670Y0205902D01*
G75*
G02*
X0011531Y0205040I0000000J-000861D01*
G01*
X0011531Y0203318D01*
G75*
G02*
X0010670Y0202457I-000861J0000000D01*
G01*
X0008652Y0202457D01*
G75*
G02*
X0007791Y0203318I0000000J0000861D01*
G01*
X0007791Y0205040D01*
G75*
G02*
X0008652Y0205902I0000861J0000000D01*
G01*
G37*
G36*
G01*
X0052978Y0253657D02*
X0054337Y0253657D01*
G75*
G02*
X0054917Y0253077I0000000J-000581D01*
G01*
X0054917Y0251915D01*
G75*
G02*
X0054337Y0251335I-000581J0000000D01*
G01*
X0052978Y0251335D01*
G75*
G02*
X0052398Y0251915I0000000J0000581D01*
G01*
X0052398Y0253077D01*
G75*
G02*
X0052978Y0253657I0000581J0000000D01*
G01*
G37*
G36*
G01*
X0052978Y0249839D02*
X0054337Y0249839D01*
G75*
G02*
X0054917Y0249258I0000000J-000581D01*
G01*
X0054917Y0248096D01*
G75*
G02*
X0054337Y0247516I-000581J0000000D01*
G01*
X0052978Y0247516D01*
G75*
G02*
X0052398Y0248096I0000000J0000581D01*
G01*
X0052398Y0249258D01*
G75*
G02*
X0052978Y0249839I0000581J0000000D01*
G01*
G37*
G36*
G01*
X0013982Y0193956D02*
X0012624Y0193956D01*
G75*
G02*
X0012043Y0194536I0000000J0000581D01*
G01*
X0012043Y0195698D01*
G75*
G02*
X0012624Y0196278I0000581J0000000D01*
G01*
X0013982Y0196278D01*
G75*
G02*
X0014563Y0195698I0000000J-000581D01*
G01*
X0014563Y0194536D01*
G75*
G02*
X0013982Y0193956I-000581J0000000D01*
G01*
G37*
G36*
G01*
X0013982Y0197774D02*
X0012624Y0197774D01*
G75*
G02*
X0012043Y0198355I0000000J0000581D01*
G01*
X0012043Y0199517D01*
G75*
G02*
X0012624Y0200097I0000581J0000000D01*
G01*
X0013982Y0200097D01*
G75*
G02*
X0014563Y0199517I0000000J-000581D01*
G01*
X0014563Y0198355D01*
G75*
G02*
X0013982Y0197774I-000581J0000000D01*
G01*
G37*
G36*
G01*
X0015852Y0202043D02*
X0014494Y0202043D01*
G75*
G02*
X0013913Y0202624I0000000J0000581D01*
G01*
X0013913Y0203785D01*
G75*
G02*
X0014494Y0204366I0000581J0000000D01*
G01*
X0015852Y0204366D01*
G75*
G02*
X0016433Y0203785I0000000J-000581D01*
G01*
X0016433Y0202624D01*
G75*
G02*
X0015852Y0202043I-000581J0000000D01*
G01*
G37*
G36*
G01*
X0015852Y0205862D02*
X0014494Y0205862D01*
G75*
G02*
X0013913Y0206443I0000000J0000581D01*
G01*
X0013913Y0207604D01*
G75*
G02*
X0014494Y0208185I0000581J0000000D01*
G01*
X0015852Y0208185D01*
G75*
G02*
X0016433Y0207604I0000000J-000581D01*
G01*
X0016433Y0206443D01*
G75*
G02*
X0015852Y0205862I-000581J0000000D01*
G01*
G37*
G36*
G01*
X0008520Y0173431D02*
X0008520Y0174789D01*
G75*
G02*
X0009100Y0175370I0000581J0000000D01*
G01*
X0010262Y0175370D01*
G75*
G02*
X0010842Y0174789I0000000J-000581D01*
G01*
X0010842Y0173431D01*
G75*
G02*
X0010262Y0172850I-000581J0000000D01*
G01*
X0009100Y0172850D01*
G75*
G02*
X0008520Y0173431I0000000J0000581D01*
G01*
G37*
G36*
G01*
X0012339Y0173431D02*
X0012339Y0174789D01*
G75*
G02*
X0012919Y0175370I0000581J0000000D01*
G01*
X0014081Y0175370D01*
G75*
G02*
X0014661Y0174789I0000000J-000581D01*
G01*
X0014661Y0173431D01*
G75*
G02*
X0014081Y0172850I-000581J0000000D01*
G01*
X0012919Y0172850D01*
G75*
G02*
X0012339Y0173431I0000000J0000581D01*
G01*
G37*
G36*
G01*
X0026108Y0222949D02*
X0027466Y0222949D01*
G75*
G02*
X0028047Y0222368I0000000J-000581D01*
G01*
X0028047Y0221207D01*
G75*
G02*
X0027466Y0220626I-000581J0000000D01*
G01*
X0026108Y0220626D01*
G75*
G02*
X0025527Y0221207I0000000J0000581D01*
G01*
X0025527Y0222368D01*
G75*
G02*
X0026108Y0222949I0000581J0000000D01*
G01*
G37*
G36*
G01*
X0026108Y0219130D02*
X0027466Y0219130D01*
G75*
G02*
X0028047Y0218549I0000000J-000581D01*
G01*
X0028047Y0217388D01*
G75*
G02*
X0027466Y0216807I-000581J0000000D01*
G01*
X0026108Y0216807D01*
G75*
G02*
X0025527Y0217388I0000000J0000581D01*
G01*
X0025527Y0218549D01*
G75*
G02*
X0026108Y0219130I0000581J0000000D01*
G01*
G37*
G36*
G01*
X0031403Y0216807D02*
X0030045Y0216807D01*
G75*
G02*
X0029465Y0217388I0000000J0000581D01*
G01*
X0029465Y0218549D01*
G75*
G02*
X0030045Y0219130I0000581J0000000D01*
G01*
X0031403Y0219130D01*
G75*
G02*
X0031984Y0218549I0000000J-000581D01*
G01*
X0031984Y0217388D01*
G75*
G02*
X0031403Y0216807I-000581J0000000D01*
G01*
G37*
G36*
G01*
X0031403Y0220626D02*
X0030045Y0220626D01*
G75*
G02*
X0029465Y0221207I0000000J0000581D01*
G01*
X0029465Y0222368D01*
G75*
G02*
X0030045Y0222949I0000581J0000000D01*
G01*
X0031403Y0222949D01*
G75*
G02*
X0031984Y0222368I0000000J-000581D01*
G01*
X0031984Y0221207D01*
G75*
G02*
X0031403Y0220626I-000581J0000000D01*
G01*
G37*
G36*
G01*
X0028963Y0264287D02*
X0030321Y0264287D01*
G75*
G02*
X0030902Y0263707I0000000J-000581D01*
G01*
X0030902Y0262545D01*
G75*
G02*
X0030321Y0261965I-000581J0000000D01*
G01*
X0028963Y0261965D01*
G75*
G02*
X0028382Y0262545I0000000J0000581D01*
G01*
X0028382Y0263707D01*
G75*
G02*
X0028963Y0264287I0000581J0000000D01*
G01*
G37*
G36*
G01*
X0028963Y0260468D02*
X0030321Y0260468D01*
G75*
G02*
X0030902Y0259888I0000000J-000581D01*
G01*
X0030902Y0258726D01*
G75*
G02*
X0030321Y0258146I-000581J0000000D01*
G01*
X0028963Y0258146D01*
G75*
G02*
X0028382Y0258726I0000000J0000581D01*
G01*
X0028382Y0259888D01*
G75*
G02*
X0028963Y0260468I0000581J0000000D01*
G01*
G37*
D243*
X0052378Y0209937D03*
X0049819Y0209937D03*
X0047260Y0209937D03*
X0044701Y0209937D03*
X0042142Y0209937D03*
X0039583Y0209937D03*
X0037024Y0209937D03*
X0037024Y0233165D03*
X0039583Y0233165D03*
X0042142Y0233165D03*
X0044701Y0233165D03*
X0047260Y0233165D03*
X0049819Y0233165D03*
X0052378Y0233165D03*
G36*
G01*
X0008884Y0200114D02*
X0010242Y0200114D01*
G75*
G02*
X0010823Y0199533I0000000J-000581D01*
G01*
X0010823Y0198372D01*
G75*
G02*
X0010242Y0197791I-000581J0000000D01*
G01*
X0008884Y0197791D01*
G75*
G02*
X0008303Y0198372I0000000J0000581D01*
G01*
X0008303Y0199533D01*
G75*
G02*
X0008884Y0200114I0000581J0000000D01*
G01*
G37*
G36*
G01*
X0008884Y0196295D02*
X0010242Y0196295D01*
G75*
G02*
X0010823Y0195715I0000000J-000581D01*
G01*
X0010823Y0194553D01*
G75*
G02*
X0010242Y0193972I-000581J0000000D01*
G01*
X0008884Y0193972D01*
G75*
G02*
X0008303Y0194553I0000000J0000581D01*
G01*
X0008303Y0195715D01*
G75*
G02*
X0008884Y0196295I0000581J0000000D01*
G01*
G37*
G36*
G01*
X0006502Y0193972D02*
X0005144Y0193972D01*
G75*
G02*
X0004563Y0194553I0000000J0000581D01*
G01*
X0004563Y0195715D01*
G75*
G02*
X0005144Y0196295I0000581J0000000D01*
G01*
X0006502Y0196295D01*
G75*
G02*
X0007083Y0195715I0000000J-000581D01*
G01*
X0007083Y0194553D01*
G75*
G02*
X0006502Y0193972I-000581J0000000D01*
G01*
G37*
G36*
G01*
X0006502Y0197791D02*
X0005144Y0197791D01*
G75*
G02*
X0004563Y0198372I0000000J0000581D01*
G01*
X0004563Y0199533D01*
G75*
G02*
X0005144Y0200114I0000581J0000000D01*
G01*
X0006502Y0200114D01*
G75*
G02*
X0007083Y0199533I0000000J-000581D01*
G01*
X0007083Y0198372D01*
G75*
G02*
X0006502Y0197791I-000581J0000000D01*
G01*
G37*
G36*
G01*
X0015951Y0254209D02*
X0014592Y0254209D01*
G75*
G02*
X0014012Y0254789I0000000J0000581D01*
G01*
X0014012Y0255951D01*
G75*
G02*
X0014592Y0256531I0000581J0000000D01*
G01*
X0015951Y0256531D01*
G75*
G02*
X0016531Y0255951I0000000J-000581D01*
G01*
X0016531Y0254789D01*
G75*
G02*
X0015951Y0254209I-000581J0000000D01*
G01*
G37*
G36*
G01*
X0015951Y0258028D02*
X0014592Y0258028D01*
G75*
G02*
X0014012Y0258608I0000000J0000581D01*
G01*
X0014012Y0259770D01*
G75*
G02*
X0014592Y0260350I0000581J0000000D01*
G01*
X0015951Y0260350D01*
G75*
G02*
X0016531Y0259770I0000000J-000581D01*
G01*
X0016531Y0258608D01*
G75*
G02*
X0015951Y0258028I-000581J0000000D01*
G01*
G37*
G36*
G01*
X0045249Y0247516D02*
X0043890Y0247516D01*
G75*
G02*
X0043310Y0248096I0000000J0000581D01*
G01*
X0043310Y0249258D01*
G75*
G02*
X0043890Y0249839I0000581J0000000D01*
G01*
X0045249Y0249839D01*
G75*
G02*
X0045829Y0249258I0000000J-000581D01*
G01*
X0045829Y0248096D01*
G75*
G02*
X0045249Y0247516I-000581J0000000D01*
G01*
G37*
G36*
G01*
X0045249Y0251335D02*
X0043890Y0251335D01*
G75*
G02*
X0043310Y0251915I0000000J0000581D01*
G01*
X0043310Y0253077D01*
G75*
G02*
X0043890Y0253657I0000581J0000000D01*
G01*
X0045249Y0253657D01*
G75*
G02*
X0045829Y0253077I0000000J-000581D01*
G01*
X0045829Y0251915D01*
G75*
G02*
X0045249Y0251335I-000581J0000000D01*
G01*
G37*
G36*
G01*
X0022171Y0219701D02*
X0023529Y0219701D01*
G75*
G02*
X0024110Y0219120I0000000J-000581D01*
G01*
X0024110Y0217959D01*
G75*
G02*
X0023529Y0217378I-000581J0000000D01*
G01*
X0022171Y0217378D01*
G75*
G02*
X0021590Y0217959I0000000J0000581D01*
G01*
X0021590Y0219120D01*
G75*
G02*
X0022171Y0219701I0000581J0000000D01*
G01*
G37*
G36*
G01*
X0022171Y0215882D02*
X0023529Y0215882D01*
G75*
G02*
X0024110Y0215301I0000000J-000581D01*
G01*
X0024110Y0214140D01*
G75*
G02*
X0023529Y0213559I-000581J0000000D01*
G01*
X0022171Y0213559D01*
G75*
G02*
X0021590Y0214140I0000000J0000581D01*
G01*
X0021590Y0215301D01*
G75*
G02*
X0022171Y0215882I0000581J0000000D01*
G01*
G37*
G36*
G01*
X0014592Y0268028D02*
X0015951Y0268028D01*
G75*
G02*
X0016531Y0267447I0000000J-000581D01*
G01*
X0016531Y0266285D01*
G75*
G02*
X0015951Y0265705I-000581J0000000D01*
G01*
X0014592Y0265705D01*
G75*
G02*
X0014012Y0266285I0000000J0000581D01*
G01*
X0014012Y0267447D01*
G75*
G02*
X0014592Y0268028I0000581J0000000D01*
G01*
G37*
G36*
G01*
X0014592Y0264209D02*
X0015951Y0264209D01*
G75*
G02*
X0016531Y0263628I0000000J-000581D01*
G01*
X0016531Y0262467D01*
G75*
G02*
X0015951Y0261886I-000581J0000000D01*
G01*
X0014592Y0261886D01*
G75*
G02*
X0014012Y0262467I0000000J0000581D01*
G01*
X0014012Y0263628D01*
G75*
G02*
X0014592Y0264209I0000581J0000000D01*
G01*
G37*
G36*
G01*
X0030045Y0215567D02*
X0031403Y0215567D01*
G75*
G02*
X0031984Y0214986I0000000J-000581D01*
G01*
X0031984Y0213825D01*
G75*
G02*
X0031403Y0213244I-000581J0000000D01*
G01*
X0030045Y0213244D01*
G75*
G02*
X0029465Y0213825I0000000J0000581D01*
G01*
X0029465Y0214986D01*
G75*
G02*
X0030045Y0215567I0000581J0000000D01*
G01*
G37*
G36*
G01*
X0030045Y0211748D02*
X0031403Y0211748D01*
G75*
G02*
X0031984Y0211167I0000000J-000581D01*
G01*
X0031984Y0210006D01*
G75*
G02*
X0031403Y0209425I-000581J0000000D01*
G01*
X0030045Y0209425D01*
G75*
G02*
X0029465Y0210006I0000000J0000581D01*
G01*
X0029465Y0211167D01*
G75*
G02*
X0030045Y0211748I0000581J0000000D01*
G01*
G37*
G36*
G01*
X0054661Y0204317D02*
X0054661Y0202959D01*
G75*
G02*
X0054081Y0202378I-000581J0000000D01*
G01*
X0052919Y0202378D01*
G75*
G02*
X0052339Y0202959I0000000J0000581D01*
G01*
X0052339Y0204317D01*
G75*
G02*
X0052919Y0204898I0000581J0000000D01*
G01*
X0054081Y0204898D01*
G75*
G02*
X0054661Y0204317I0000000J-000581D01*
G01*
G37*
G36*
G01*
X0050842Y0204317D02*
X0050842Y0202959D01*
G75*
G02*
X0050262Y0202378I-000581J0000000D01*
G01*
X0049100Y0202378D01*
G75*
G02*
X0048520Y0202959I0000000J0000581D01*
G01*
X0048520Y0204317D01*
G75*
G02*
X0049100Y0204898I0000581J0000000D01*
G01*
X0050262Y0204898D01*
G75*
G02*
X0050842Y0204317I0000000J-000581D01*
G01*
G37*
G36*
G01*
X0026108Y0230429D02*
X0027466Y0230429D01*
G75*
G02*
X0028047Y0229848I0000000J-000581D01*
G01*
X0028047Y0228687D01*
G75*
G02*
X0027466Y0228106I-000581J0000000D01*
G01*
X0026108Y0228106D01*
G75*
G02*
X0025527Y0228687I0000000J0000581D01*
G01*
X0025527Y0229848D01*
G75*
G02*
X0026108Y0230429I0000581J0000000D01*
G01*
G37*
G36*
G01*
X0026108Y0226610D02*
X0027466Y0226610D01*
G75*
G02*
X0028047Y0226030I0000000J-000581D01*
G01*
X0028047Y0224868D01*
G75*
G02*
X0027466Y0224287I-000581J0000000D01*
G01*
X0026108Y0224287D01*
G75*
G02*
X0025527Y0224868I0000000J0000581D01*
G01*
X0025527Y0226030D01*
G75*
G02*
X0026108Y0226610I0000581J0000000D01*
G01*
G37*
G36*
G01*
X0027466Y0231768D02*
X0026108Y0231768D01*
G75*
G02*
X0025527Y0232348I0000000J0000581D01*
G01*
X0025527Y0233510D01*
G75*
G02*
X0026108Y0234091I0000581J0000000D01*
G01*
X0027466Y0234091D01*
G75*
G02*
X0028047Y0233510I0000000J-000581D01*
G01*
X0028047Y0232348D01*
G75*
G02*
X0027466Y0231768I-000581J0000000D01*
G01*
G37*
G36*
G01*
X0027466Y0235587D02*
X0026108Y0235587D01*
G75*
G02*
X0025527Y0236167I0000000J0000581D01*
G01*
X0025527Y0237329D01*
G75*
G02*
X0026108Y0237909I0000581J0000000D01*
G01*
X0027466Y0237909D01*
G75*
G02*
X0028047Y0237329I0000000J-000581D01*
G01*
X0028047Y0236167D01*
G75*
G02*
X0027466Y0235587I-000581J0000000D01*
G01*
G37*
G36*
G01*
X0054661Y0200577D02*
X0054661Y0199218D01*
G75*
G02*
X0054081Y0198638I-000581J0000000D01*
G01*
X0052919Y0198638D01*
G75*
G02*
X0052339Y0199218I0000000J0000581D01*
G01*
X0052339Y0200577D01*
G75*
G02*
X0052919Y0201157I0000581J0000000D01*
G01*
X0054081Y0201157D01*
G75*
G02*
X0054661Y0200577I0000000J-000581D01*
G01*
G37*
G36*
G01*
X0050842Y0200577D02*
X0050842Y0199218D01*
G75*
G02*
X0050262Y0198638I-000581J0000000D01*
G01*
X0049100Y0198638D01*
G75*
G02*
X0048520Y0199218I0000000J0000581D01*
G01*
X0048520Y0200577D01*
G75*
G02*
X0049100Y0201157I0000581J0000000D01*
G01*
X0050262Y0201157D01*
G75*
G02*
X0050842Y0200577I0000000J-000581D01*
G01*
G37*
D244*
X0005823Y0189898D03*
X0009563Y0189898D03*
X0013303Y0189898D03*
X0013303Y0179583D03*
X0005823Y0179583D03*
G36*
G01*
X0023529Y0224386D02*
X0022171Y0224386D01*
G75*
G02*
X0021590Y0224967I0000000J0000581D01*
G01*
X0021590Y0226128D01*
G75*
G02*
X0022171Y0226709I0000581J0000000D01*
G01*
X0023529Y0226709D01*
G75*
G02*
X0024110Y0226128I0000000J-000581D01*
G01*
X0024110Y0224967D01*
G75*
G02*
X0023529Y0224386I-000581J0000000D01*
G01*
G37*
G36*
G01*
X0023529Y0228205D02*
X0022171Y0228205D01*
G75*
G02*
X0021590Y0228785I0000000J0000581D01*
G01*
X0021590Y0229947D01*
G75*
G02*
X0022171Y0230528I0000581J0000000D01*
G01*
X0023529Y0230528D01*
G75*
G02*
X0024110Y0229947I0000000J-000581D01*
G01*
X0024110Y0228785D01*
G75*
G02*
X0023529Y0228205I-000581J0000000D01*
G01*
G37*
G36*
G01*
X0019425Y0211797D02*
X0019425Y0210439D01*
G75*
G02*
X0018844Y0209858I-000581J0000000D01*
G01*
X0017683Y0209858D01*
G75*
G02*
X0017102Y0210439I0000000J0000581D01*
G01*
X0017102Y0211797D01*
G75*
G02*
X0017683Y0212378I0000581J0000000D01*
G01*
X0018844Y0212378D01*
G75*
G02*
X0019425Y0211797I0000000J-000581D01*
G01*
G37*
G36*
G01*
X0015606Y0211797D02*
X0015606Y0210439D01*
G75*
G02*
X0015026Y0209858I-000581J0000000D01*
G01*
X0013864Y0209858D01*
G75*
G02*
X0013283Y0210439I0000000J0000581D01*
G01*
X0013283Y0211797D01*
G75*
G02*
X0013864Y0212378I0000581J0000000D01*
G01*
X0015026Y0212378D01*
G75*
G02*
X0015606Y0211797I0000000J-000581D01*
G01*
G37*
G36*
G01*
X0039858Y0202959D02*
X0039858Y0204317D01*
G75*
G02*
X0040439Y0204898I0000581J0000000D01*
G01*
X0041600Y0204898D01*
G75*
G02*
X0042181Y0204317I0000000J-000581D01*
G01*
X0042181Y0202959D01*
G75*
G02*
X0041600Y0202378I-000581J0000000D01*
G01*
X0040439Y0202378D01*
G75*
G02*
X0039858Y0202959I0000000J0000581D01*
G01*
G37*
G36*
G01*
X0043677Y0202959D02*
X0043677Y0204317D01*
G75*
G02*
X0044258Y0204898I0000581J0000000D01*
G01*
X0045419Y0204898D01*
G75*
G02*
X0046000Y0204317I0000000J-000581D01*
G01*
X0046000Y0202959D01*
G75*
G02*
X0045419Y0202378I-000581J0000000D01*
G01*
X0044258Y0202378D01*
G75*
G02*
X0043677Y0202959I0000000J0000581D01*
G01*
G37*
G36*
G01*
X0038903Y0246079D02*
X0040262Y0246079D01*
G75*
G02*
X0040842Y0245498I0000000J-000581D01*
G01*
X0040842Y0244337D01*
G75*
G02*
X0040262Y0243756I-000581J0000000D01*
G01*
X0038903Y0243756D01*
G75*
G02*
X0038323Y0244337I0000000J0000581D01*
G01*
X0038323Y0245498D01*
G75*
G02*
X0038903Y0246079I0000581J0000000D01*
G01*
G37*
G36*
G01*
X0038903Y0242260D02*
X0040262Y0242260D01*
G75*
G02*
X0040842Y0241679I0000000J-000581D01*
G01*
X0040842Y0240518D01*
G75*
G02*
X0040262Y0239937I-000581J0000000D01*
G01*
X0038903Y0239937D01*
G75*
G02*
X0038323Y0240518I0000000J0000581D01*
G01*
X0038323Y0241679D01*
G75*
G02*
X0038903Y0242260I0000581J0000000D01*
G01*
G37*
G36*
G01*
X0038903Y0253657D02*
X0040262Y0253657D01*
G75*
G02*
X0040842Y0253077I0000000J-000581D01*
G01*
X0040842Y0251915D01*
G75*
G02*
X0040262Y0251335I-000581J0000000D01*
G01*
X0038903Y0251335D01*
G75*
G02*
X0038323Y0251915I0000000J0000581D01*
G01*
X0038323Y0253077D01*
G75*
G02*
X0038903Y0253657I0000581J0000000D01*
G01*
G37*
G36*
G01*
X0038903Y0249839D02*
X0040262Y0249839D01*
G75*
G02*
X0040842Y0249258I0000000J-000581D01*
G01*
X0040842Y0248096D01*
G75*
G02*
X0040262Y0247516I-000581J0000000D01*
G01*
X0038903Y0247516D01*
G75*
G02*
X0038323Y0248096I0000000J0000581D01*
G01*
X0038323Y0249258D01*
G75*
G02*
X0038903Y0249839I0000581J0000000D01*
G01*
G37*
G36*
G01*
X0039858Y0199218D02*
X0039858Y0200577D01*
G75*
G02*
X0040439Y0201157I0000581J0000000D01*
G01*
X0041600Y0201157D01*
G75*
G02*
X0042181Y0200577I0000000J-000581D01*
G01*
X0042181Y0199218D01*
G75*
G02*
X0041600Y0198638I-000581J0000000D01*
G01*
X0040439Y0198638D01*
G75*
G02*
X0039858Y0199218I0000000J0000581D01*
G01*
G37*
G36*
G01*
X0043677Y0199218D02*
X0043677Y0200577D01*
G75*
G02*
X0044258Y0201157I0000581J0000000D01*
G01*
X0045419Y0201157D01*
G75*
G02*
X0046000Y0200577I0000000J-000581D01*
G01*
X0046000Y0199218D01*
G75*
G02*
X0045419Y0198638I-000581J0000000D01*
G01*
X0044258Y0198638D01*
G75*
G02*
X0043677Y0199218I0000000J0000581D01*
G01*
G37*
G36*
G01*
X0030045Y0233579D02*
X0031403Y0233579D01*
G75*
G02*
X0031984Y0232998I0000000J-000581D01*
G01*
X0031984Y0231837D01*
G75*
G02*
X0031403Y0231256I-000581J0000000D01*
G01*
X0030045Y0231256D01*
G75*
G02*
X0029465Y0231837I0000000J0000581D01*
G01*
X0029465Y0232998D01*
G75*
G02*
X0030045Y0233579I0000581J0000000D01*
G01*
G37*
G36*
G01*
X0030045Y0229760D02*
X0031403Y0229760D01*
G75*
G02*
X0031984Y0229179I0000000J-000581D01*
G01*
X0031984Y0228018D01*
G75*
G02*
X0031403Y0227437I-000581J0000000D01*
G01*
X0030045Y0227437D01*
G75*
G02*
X0029465Y0228018I0000000J0000581D01*
G01*
X0029465Y0229179D01*
G75*
G02*
X0030045Y0229760I0000581J0000000D01*
G01*
G37*
G36*
G01*
X0039858Y0195478D02*
X0039858Y0196837D01*
G75*
G02*
X0040439Y0197417I0000581J0000000D01*
G01*
X0041600Y0197417D01*
G75*
G02*
X0042181Y0196837I0000000J-000581D01*
G01*
X0042181Y0195478D01*
G75*
G02*
X0041600Y0194898I-000581J0000000D01*
G01*
X0040439Y0194898D01*
G75*
G02*
X0039858Y0195478I0000000J0000581D01*
G01*
G37*
G36*
G01*
X0043677Y0195478D02*
X0043677Y0196837D01*
G75*
G02*
X0044258Y0197417I0000581J0000000D01*
G01*
X0045419Y0197417D01*
G75*
G02*
X0046000Y0196837I0000000J-000581D01*
G01*
X0046000Y0195478D01*
G75*
G02*
X0045419Y0194898I-000581J0000000D01*
G01*
X0044258Y0194898D01*
G75*
G02*
X0043677Y0195478I0000000J0000581D01*
G01*
G37*
G36*
G01*
X0048520Y0195478D02*
X0048520Y0196837D01*
G75*
G02*
X0049100Y0197417I0000581J0000000D01*
G01*
X0050262Y0197417D01*
G75*
G02*
X0050842Y0196837I0000000J-000581D01*
G01*
X0050842Y0195478D01*
G75*
G02*
X0050262Y0194898I-000581J0000000D01*
G01*
X0049100Y0194898D01*
G75*
G02*
X0048520Y0195478I0000000J0000581D01*
G01*
G37*
G36*
G01*
X0052339Y0195478D02*
X0052339Y0196837D01*
G75*
G02*
X0052919Y0197417I0000581J0000000D01*
G01*
X0054081Y0197417D01*
G75*
G02*
X0054661Y0196837I0000000J-000581D01*
G01*
X0054661Y0195478D01*
G75*
G02*
X0054081Y0194898I-000581J0000000D01*
G01*
X0052919Y0194898D01*
G75*
G02*
X0052339Y0195478I0000000J0000581D01*
G01*
G37*
G36*
G01*
X0042713Y0180665D02*
X0041374Y0180665D01*
G75*
G02*
X0040823Y0181216I0000000J0000551D01*
G01*
X0040823Y0182319D01*
G75*
G02*
X0041374Y0182870I0000551J0000000D01*
G01*
X0042713Y0182870D01*
G75*
G02*
X0043264Y0182319I0000000J-000551D01*
G01*
X0043264Y0181216D01*
G75*
G02*
X0042713Y0180665I-000551J0000000D01*
G01*
G37*
G36*
G01*
X0042713Y0184445D02*
X0041374Y0184445D01*
G75*
G02*
X0040823Y0184996I0000000J0000551D01*
G01*
X0040823Y0186098D01*
G75*
G02*
X0041374Y0186649I0000551J0000000D01*
G01*
X0042713Y0186649D01*
G75*
G02*
X0043264Y0186098I0000000J-000551D01*
G01*
X0043264Y0184996D01*
G75*
G02*
X0042713Y0184445I-000551J0000000D01*
G01*
G37*
G36*
G01*
X0016453Y0235606D02*
X0017909Y0235606D01*
G75*
G02*
X0018441Y0235075I0000000J-000531D01*
G01*
X0018441Y0234012D01*
G75*
G02*
X0017909Y0233480I-000531J0000000D01*
G01*
X0016453Y0233480D01*
G75*
G02*
X0015921Y0234012I0000000J0000531D01*
G01*
X0015921Y0235075D01*
G75*
G02*
X0016453Y0235606I0000531J0000000D01*
G01*
G37*
G36*
G01*
X0016453Y0231591D02*
X0017909Y0231591D01*
G75*
G02*
X0018441Y0231059I0000000J-000531D01*
G01*
X0018441Y0229996D01*
G75*
G02*
X0017909Y0229465I-000531J0000000D01*
G01*
X0016453Y0229465D01*
G75*
G02*
X0015921Y0229996I0000000J0000531D01*
G01*
X0015921Y0231059D01*
G75*
G02*
X0016453Y0231591I0000531J0000000D01*
G01*
G37*
G36*
G01*
X0030986Y0174878D02*
X0030986Y0173421D01*
G75*
G02*
X0030454Y0172890I-000531J0000000D01*
G01*
X0029391Y0172890D01*
G75*
G02*
X0028860Y0173421I0000000J0000531D01*
G01*
X0028860Y0174878D01*
G75*
G02*
X0029391Y0175409I0000531J0000000D01*
G01*
X0030454Y0175409D01*
G75*
G02*
X0030986Y0174878I0000000J-000531D01*
G01*
G37*
G36*
G01*
X0026970Y0174878D02*
X0026970Y0173421D01*
G75*
G02*
X0026438Y0172890I-000531J0000000D01*
G01*
X0025375Y0172890D01*
G75*
G02*
X0024844Y0173421I0000000J0000531D01*
G01*
X0024844Y0174878D01*
G75*
G02*
X0025375Y0175409I0000531J0000000D01*
G01*
X0026438Y0175409D01*
G75*
G02*
X0026970Y0174878I0000000J-000531D01*
G01*
G37*
G36*
G01*
X0054937Y0175488D02*
X0053756Y0175488D01*
G75*
G02*
X0053165Y0176079I0000000J0000591D01*
G01*
X0053165Y0180705D01*
G75*
G02*
X0053756Y0181295I0000591J0000000D01*
G01*
X0054937Y0181295D01*
G75*
G02*
X0055527Y0180705I0000000J-000591D01*
G01*
X0055527Y0176079D01*
G75*
G02*
X0054937Y0175488I-000591J0000000D01*
G01*
G37*
G36*
G01*
X0047457Y0175488D02*
X0046276Y0175488D01*
G75*
G02*
X0045685Y0176079I0000000J0000591D01*
G01*
X0045685Y0180705D01*
G75*
G02*
X0046276Y0181295I0000591J0000000D01*
G01*
X0047457Y0181295D01*
G75*
G02*
X0048047Y0180705I0000000J-000591D01*
G01*
X0048047Y0176079D01*
G75*
G02*
X0047457Y0175488I-000591J0000000D01*
G01*
G37*
G36*
G01*
X0051197Y0182870D02*
X0050016Y0182870D01*
G75*
G02*
X0049425Y0183461I0000000J0000591D01*
G01*
X0049425Y0188087D01*
G75*
G02*
X0050016Y0188677I0000591J0000000D01*
G01*
X0051197Y0188677D01*
G75*
G02*
X0051787Y0188087I0000000J-000591D01*
G01*
X0051787Y0183461D01*
G75*
G02*
X0051197Y0182870I-000591J0000000D01*
G01*
G37*
G36*
G01*
X0017005Y0173441D02*
X0017005Y0174780D01*
G75*
G02*
X0017557Y0175331I0000551J0000000D01*
G01*
X0018659Y0175331D01*
G75*
G02*
X0019210Y0174780I0000000J-000551D01*
G01*
X0019210Y0173441D01*
G75*
G02*
X0018659Y0172890I-000551J0000000D01*
G01*
X0017557Y0172890D01*
G75*
G02*
X0017005Y0173441I0000000J0000551D01*
G01*
G37*
G36*
G01*
X0020785Y0173441D02*
X0020785Y0174780D01*
G75*
G02*
X0021336Y0175331I0000551J0000000D01*
G01*
X0022438Y0175331D01*
G75*
G02*
X0022990Y0174780I0000000J-000551D01*
G01*
X0022990Y0173441D01*
G75*
G02*
X0022438Y0172890I-000551J0000000D01*
G01*
X0021336Y0172890D01*
G75*
G02*
X0020785Y0173441I0000000J0000551D01*
G01*
G37*
G36*
G01*
X0020076Y0204228D02*
X0021257Y0204228D01*
G75*
G02*
X0021848Y0203638I0000000J-000591D01*
G01*
X0021848Y0197929D01*
G75*
G02*
X0021257Y0197339I-000591J0000000D01*
G01*
X0020076Y0197339D01*
G75*
G02*
X0019486Y0197929I0000000J0000591D01*
G01*
X0019486Y0203638D01*
G75*
G02*
X0020076Y0204228I0000591J0000000D01*
G01*
G37*
G36*
G01*
X0025076Y0204228D02*
X0026257Y0204228D01*
G75*
G02*
X0026848Y0203638I0000000J-000591D01*
G01*
X0026848Y0197929D01*
G75*
G02*
X0026257Y0197339I-000591J0000000D01*
G01*
X0025076Y0197339D01*
G75*
G02*
X0024486Y0197929I0000000J0000591D01*
G01*
X0024486Y0203638D01*
G75*
G02*
X0025076Y0204228I0000591J0000000D01*
G01*
G37*
G36*
G01*
X0030076Y0204228D02*
X0031257Y0204228D01*
G75*
G02*
X0031848Y0203638I0000000J-000591D01*
G01*
X0031848Y0197929D01*
G75*
G02*
X0031257Y0197339I-000591J0000000D01*
G01*
X0030076Y0197339D01*
G75*
G02*
X0029486Y0197929I0000000J0000591D01*
G01*
X0029486Y0203638D01*
G75*
G02*
X0030076Y0204228I0000591J0000000D01*
G01*
G37*
G36*
G01*
X0035076Y0204228D02*
X0036257Y0204228D01*
G75*
G02*
X0036848Y0203638I0000000J-000591D01*
G01*
X0036848Y0197929D01*
G75*
G02*
X0036257Y0197339I-000591J0000000D01*
G01*
X0035076Y0197339D01*
G75*
G02*
X0034486Y0197929I0000000J0000591D01*
G01*
X0034486Y0203638D01*
G75*
G02*
X0035076Y0204228I0000591J0000000D01*
G01*
G37*
G36*
G01*
X0035076Y0183953D02*
X0036257Y0183953D01*
G75*
G02*
X0036848Y0183362I0000000J-000591D01*
G01*
X0036848Y0177654D01*
G75*
G02*
X0036257Y0177063I-000591J0000000D01*
G01*
X0035076Y0177063D01*
G75*
G02*
X0034486Y0177654I0000000J0000591D01*
G01*
X0034486Y0183362D01*
G75*
G02*
X0035076Y0183953I0000591J0000000D01*
G01*
G37*
G36*
G01*
X0030076Y0183953D02*
X0031257Y0183953D01*
G75*
G02*
X0031848Y0183362I0000000J-000591D01*
G01*
X0031848Y0177654D01*
G75*
G02*
X0031257Y0177063I-000591J0000000D01*
G01*
X0030076Y0177063D01*
G75*
G02*
X0029486Y0177654I0000000J0000591D01*
G01*
X0029486Y0183362D01*
G75*
G02*
X0030076Y0183953I0000591J0000000D01*
G01*
G37*
G36*
G01*
X0025076Y0183953D02*
X0026257Y0183953D01*
G75*
G02*
X0026848Y0183362I0000000J-000591D01*
G01*
X0026848Y0177654D01*
G75*
G02*
X0026257Y0177063I-000591J0000000D01*
G01*
X0025076Y0177063D01*
G75*
G02*
X0024486Y0177654I0000000J0000591D01*
G01*
X0024486Y0183362D01*
G75*
G02*
X0025076Y0183953I0000591J0000000D01*
G01*
G37*
G36*
G01*
X0020076Y0183953D02*
X0021257Y0183953D01*
G75*
G02*
X0021848Y0183362I0000000J-000591D01*
G01*
X0021848Y0177654D01*
G75*
G02*
X0021257Y0177063I-000591J0000000D01*
G01*
X0020076Y0177063D01*
G75*
G02*
X0019486Y0177654I0000000J0000591D01*
G01*
X0019486Y0183362D01*
G75*
G02*
X0020076Y0183953I0000591J0000000D01*
G01*
G37*
X0005888Y0070291D02*
%LPD*%
G01*
X0088504Y0342315D02*
G01*
G75*
D326*
X0164882Y0312400D02*
D03*
X0164882Y0325392D02*
D03*
D327*
X0165276Y0292540D02*
D03*
X0165276Y0303957D02*
D03*
X0157244Y0292540D02*
D03*
X0157244Y0303957D02*
D03*
D330*
X0143228Y0329913D02*
D03*
X0147165Y0329913D02*
D03*
X0157795Y0333260D02*
D03*
X0157795Y0324598D02*
D03*
X0152547Y0334047D02*
D03*
X0152547Y0325386D02*
D03*
D331*
X0099921Y0322160D02*
D03*
X0099921Y0325704D02*
D03*
X0136654Y0312769D02*
D03*
X0136654Y0309225D02*
D03*
X0151759Y0320766D02*
D03*
X0151759Y0317223D02*
D03*
X0099921Y0313542D02*
D03*
X0099921Y0317085D02*
D03*
X0103858Y0334047D02*
D03*
X0103858Y0330504D02*
D03*
D332*
X0153334Y0308562D02*
D03*
X0156878Y0308562D02*
D03*
X0165736Y0329329D02*
D03*
X0162192Y0329329D02*
D03*
X0107419Y0280565D02*
D03*
X0110963Y0280565D02*
D03*
D346*
X0166457Y0284441D02*
D03*
X0157795Y0284441D02*
D03*
X0103858Y0322357D02*
D03*
X0103858Y0326294D02*
D03*
X0103858Y0317676D02*
D03*
X0103858Y0313739D02*
D03*
X0157795Y0320963D02*
D03*
X0157795Y0317026D02*
D03*
X0136181Y0298030D02*
D03*
X0136181Y0294093D02*
D03*
X0098740Y0290254D02*
D03*
X0098740Y0294192D02*
D03*
D347*
X0144803Y0293102D02*
D03*
X0144803Y0304126D02*
D03*
D348*
X0140480Y0325780D02*
D03*
X0146700Y0325780D02*
D03*
X0140480Y0311686D02*
D03*
X0146700Y0311686D02*
D03*
X0140480Y0316377D02*
D03*
X0146700Y0316377D02*
D03*
X0140480Y0321069D02*
D03*
X0146700Y0321069D02*
D03*
X0152724Y0312867D02*
D03*
X0158945Y0312867D02*
D03*
D275*
X0110618Y0317243D02*
D03*
X0110618Y0322243D02*
D03*
X0110618Y0327243D02*
D03*
X0110618Y0332243D02*
D03*
X0133255Y0317243D02*
D03*
X0133255Y0322243D02*
D03*
X0133255Y0327243D02*
D03*
X0133255Y0332243D02*
D03*
X0105335Y0294176D02*
D03*
X0105335Y0299176D02*
D03*
X0105335Y0304176D02*
D03*
X0105335Y0309176D02*
D03*
X0128760Y0294176D02*
D03*
X0128760Y0299176D02*
D03*
X0128760Y0304176D02*
D03*
X0128760Y0309176D02*
D03*
D349*
X0121936Y0324743D02*
D03*
D350*
X0117047Y0301676D02*
D03*
M02*
