M48
INCH,TZ
T01C0.011800
T02C0.031500
T03C0.039200
T04C0.043300
T05C0.070900
T06C0.118100
%
T01
X2082Y28052
X3683Y28470
X4200Y28070
X4500Y28370
X7300Y24576
X7700Y24776
X8700Y18976
X8900Y19476
X9034Y18542
X9167Y19009
X12500Y36970
X12500Y36670
X14100Y24170
X14400Y25370
X14700Y18176
X14794Y18564
X15650Y18376
X15730Y24239
X15900Y18670
X17500Y24239
X17747Y18573
X18200Y25470
X18319Y31270
X18650Y18728
X18713Y31270
X18900Y24976
X19106Y31270
X19500Y31270
X19900Y35170
X20065Y22235
X20100Y34970
X20963Y27476
X21168Y27682
X23962Y22232
X24900Y27476
X25087Y27663
X26100Y18076
X26200Y18706
X26534Y18310
X26567Y17943
X27962Y22232
X28837Y27476
X29055Y27695
X31862Y22232
X32774Y27776
X32774Y27476
X907Y17001
X1301Y17001
X1313Y13881
X1313Y6881
X1694Y17001
X1707Y13881
X1707Y6881
X2592Y17001
X2833Y8202
X2833Y1202
X2992Y17001
X3305Y8202
X3305Y1202
X3778Y8202
X3778Y1202
X3919Y27470
X4250Y8202
X4250Y1202
X4313Y27470
X4706Y27470
X5100Y27470
X9072Y3587
X9072Y3193
X9072Y13980
X9072Y13587
X9072Y13193
X9072Y12799
X9072Y12406
X9072Y12012
X9072Y8469
X9072Y17760
X9072Y11618
X9072Y11224
X9072Y10831
X9072Y10437
X9072Y10043
X9072Y9650
X9072Y9256
X9072Y8862
X9072Y6106
X9230Y2209
X10175Y2209
X10268Y27657
X10647Y2209
X10661Y27657
X11120Y2209
X11435Y17760
X11592Y2209
X11750Y17760
X12065Y17760
X12065Y2209
X12537Y2209
X13009Y2209
X13482Y2209
X13954Y2209
X14427Y2209
X14899Y2209
X15135Y17760
X15372Y2209
X15450Y17760
X15765Y17760
X15844Y2209
X16080Y17760
X16317Y2209
X16395Y17760
X16789Y2209
X17261Y2209
X17734Y2209
X18206Y2209
X18561Y17760
X18679Y2209
X18876Y17760
X19151Y2209
X19191Y17760
X19506Y17760
X19624Y2209
X19820Y17760
X20096Y2209
X20135Y17760
X20450Y17760
X20569Y2209
X20765Y17760
X21041Y2209
X21080Y17760
X21395Y17760
X21513Y2209
X21710Y17760
X21986Y2209
X22025Y17760
X22340Y17760
X22458Y2209
X22655Y17760
X22931Y2209
X22970Y17760
X23285Y17760
X23364Y2209
X23600Y17760
X23836Y2209
X23915Y17760
X24230Y17760
X24309Y2209
X24545Y17760
X24781Y2209
X24860Y17760
X25175Y17760
X25254Y2209
X25490Y15161
X25490Y14846
X25490Y13272
X25490Y12957
X25490Y12642
X25490Y11382
X25490Y11067
X25490Y7602
X25490Y3390
X25490Y17760
X25490Y16736
X25490Y16421
X25490Y16106
X25490Y15791
X25490Y15476
X25490Y14531
X25490Y14217
X25490Y13902
X25490Y13587
X25490Y12327
X25490Y12012
X25490Y11697
X25490Y10752
X25490Y10437
X25490Y10122
X25490Y9807
X25490Y9492
X25490Y9177
X25490Y8862
X25490Y8547
X25490Y8232
X25490Y7917
X25490Y7287
X25490Y6972
X25490Y6657
X25490Y6343
X25490Y6028
X25490Y3075
X32087Y1134
X32087Y780
X35513Y1134
X35513Y760
X35513Y386
X2813Y13753
X845Y13753
X4152Y13714
X2735Y12887
X1672Y12730
X845Y12612
X4152Y12375
X3246Y11982
X2262Y11942
X1632Y11391
X845Y11352
X4152Y10958
X3443Y10722
X845Y10643
X2752Y10557
X1199Y10131
X2065Y9620
X1120Y9383
X4152Y9226
X845Y8911
X3327Y8593
X2459Y8320
X1120Y8320
X1707Y13881
X1313Y13881
X4250Y8202
X3778Y8202
X3306Y8202
X2833Y8202
X9230Y2209
X9153Y2608
X9072Y3193
X9072Y3587
X9830Y3847
X10544Y3863
X10828Y3886
X11434Y3705
X11749Y3705
X12315Y3893
X12741Y3893
X13324Y3705
X13639Y3705
X14208Y3875
X14493Y3884
X15181Y3683
X15565Y3683
X16076Y3909
X16518Y3893
X17104Y3705
X17419Y3705
X17999Y3802
X18383Y3863
X18993Y3705
X19308Y3705
X19938Y3863
X20253Y3863
X20883Y3705
X21198Y3705
X21828Y3863
X22143Y3863
X22773Y3705
X23009Y3941
X23285Y4808
X23600Y4689
X23797Y4414
X24151Y4414
X24239Y5339
X23737Y5359
X23800Y5637
X23698Y6481
X24072Y6619
X24176Y6894
X24279Y6382
X24000Y7708
X23992Y8205
X23678Y8233
X23718Y8626
X23600Y9414
X23005Y9490
X22615Y9532
X22281Y9543
X22537Y9256
X22789Y9096
X22952Y9960
X22968Y10347
X22723Y10507
X23109Y10752
X23019Y11460
X23088Y11737
X22970Y12603
X22773Y12957
X23000Y13518
X23021Y13902
X23822Y13606
X24145Y13385
X24528Y13361
X24107Y14821
X24058Y15471
X24277Y15654
X23715Y16069
X22991Y16262
X22615Y15949
X22371Y16097
X22222Y16776
X21946Y16658
X23168Y16865
X23446Y16739
X23590Y17258
X23905Y17359
X24528Y16803
X20619Y16793
X20321Y16843
X20375Y16204
X20714Y15994
X21311Y15319
X21119Y15083
X20883Y14847
X20056Y14611
X19437Y14507
X19466Y14847
X19156Y14419
X18954Y14217
X19111Y13272
X19545Y13248
X20371Y13508
X20686Y13508
X20830Y13092
X21474Y13193
X21513Y13902
X21741Y14073
X22064Y13430
X22064Y12485
X21119Y12170
X20804Y12170
X20883Y11603
X20804Y10634
X21198Y10634
X21476Y11111
X22190Y11220
X22054Y10463
X22068Y10086
X21001Y10004
X21080Y9285
X21395Y9296
X20507Y9211
X20726Y8430
X21041Y8351
X21671Y8469
X21917Y8324
X22211Y8076
X21848Y7603
X21454Y7603
X20804Y7288
X20489Y7291
X20174Y7288
X19545Y7424
X19278Y7613
X19387Y8154
X19600Y8390
X19750Y7985
X18757Y8154
X18836Y8430
X17970Y8469
X17891Y8115
X17891Y7288
X18206Y7291
X18521Y7327
X18797Y6894
X18797Y6579
X18806Y6294
X19033Y5752
X19623Y5752
X19997Y5989
X19997Y6619
X19564Y6481
X21021Y6343
X21016Y6633
X21848Y6481
X22281Y6619
X22281Y5989
X21907Y5752
X21316Y5752
X20745Y5004
X20238Y4906
X19953Y4906
X18349Y4906
X18063Y4906
X17790Y4990
X17714Y5989
X17340Y5752
X16789Y5752
X16454Y6343
X16449Y6633
X16258Y7303
X15923Y7291
X15608Y7288
X15430Y6619
X14997Y6481
X15096Y5752
X15430Y5989
X15668Y5022
X16173Y4867
X16459Y4906
X14926Y5262
X14569Y4906
X14284Y4906
X14269Y5556
X14219Y6257
X14200Y6934
X14213Y7229
X14200Y7588
X14190Y8075
X14230Y8508
X13850Y8636
X13565Y8656
X13403Y8154
X13541Y7721
X13043Y7832
X12623Y7932
X12598Y8217
X12104Y8233
X11767Y8116
X11368Y8399
X11690Y8745
X12182Y8831
X12249Y9314
X12215Y9650
X12261Y10034
X12261Y10319
X12261Y10871
X12222Y11619
X12419Y12130
X12340Y12406
X12364Y12868
X12328Y13448
X12300Y14217
X11907Y14315
X11897Y14655
X11041Y14886
X11060Y14296
X11114Y13548
X10726Y13469
X10332Y13465
X9682Y13461
X9072Y13587
X9072Y13193
X9072Y12800
X9072Y12406
X9072Y12012
X9072Y11619
X9072Y11225
X9072Y10831
X9072Y10437
X9072Y10044
X9072Y9650
X9072Y9256
X9072Y8863
X9072Y8469
X9308Y8233
X9848Y8400
X9840Y7918
X10115Y7780
X10477Y7820
X10745Y7719
X11405Y7514
X11418Y7229
X11405Y6934
X11434Y6579
X10953Y6722
X10451Y6729
X10608Y6304
X10491Y5978
X10879Y5950
X10548Y5556
X10509Y5004
X10790Y4906
X11552Y4975
X12025Y4975
X12394Y4906
X12679Y4906
X13088Y4965
X13442Y4926
X13029Y5556
X13088Y5989
X13403Y6304
X13265Y6697
X13895Y6697
X13769Y5864
X12025Y5989
X11789Y5556
X12565Y6586
X12606Y6869
X12537Y7445
X13068Y8902
X13139Y10147
X13098Y10752
X13076Y11166
X13108Y11678
X13098Y12248
X13098Y12957
X13098Y13587
X13039Y14251
X13942Y14360
X13966Y14974
X14170Y15175
X14613Y15103
X14663Y14689
X14663Y14404
X14663Y13583
X14649Y13194
X14126Y13193
X14126Y12908
X14412Y12889
X14623Y12642
X14545Y12288
X14658Y11835
X15564Y11842
X15847Y11951
X15726Y12209
X15477Y12526
X15489Y11422
X15637Y10640
X15726Y10241
X15539Y9896
X15253Y8981
X14724Y8965
X14581Y9221
X14545Y8223
X14899Y7930
X14979Y7620
X15647Y8154
X16132Y8168
X16119Y8453
X16280Y9434
X16688Y9477
X16749Y9198
X17025Y9493
X17674Y9517
X17665Y9232
X18108Y9591
X18339Y9375
X18826Y9908
X17933Y10201
X17450Y10205
X17714Y10565
X18048Y11067
X18521Y11540
X17615Y11579
X17143Y12760
X16828Y12721
X16549Y12223
X16080Y11786
X16552Y10595
X14702Y10792
X14466Y10201
X14151Y10260
X13741Y10324
X13865Y9709
X13954Y12308
X15479Y13775
X15489Y14217
X15411Y14847
X15419Y15132
X15551Y15606
X15479Y15883
X15608Y16382
X15155Y16967
X15923Y17522
X16719Y17635
X17044Y17590
X17332Y17632
X17651Y17629
X17965Y17623
X17576Y16737
X16956Y16766
X16670Y16766
X16385Y16776
X16530Y15771
X16592Y15477
X16247Y14965
X16395Y14217
X16237Y13705
X17143Y13626
X17498Y13538
X17773Y13272
X17576Y14414
X17123Y14138
X18285Y14847
X17812Y15319
X17812Y16257
X18206Y16461
X18546Y16860
X19495Y16778
X18678Y15516
X18993Y12063
X19505Y12181
X19727Y12000
X19947Y12181
X20125Y11958
X19978Y10792
X19466Y10595
X19348Y11304
X17263Y8381
X17025Y8036
X16887Y7603
X17182Y7603
X17281Y6481
X17714Y6619
X17497Y2406
X17734Y2209
X17970Y2406
X18206Y2209
X18442Y2406
X18678Y2209
X18915Y2406
X19151Y2209
X19387Y2406
X19623Y2209
X19860Y2406
X20096Y2209
X20332Y2406
X20568Y2209
X20804Y2406
X21041Y2209
X21277Y2406
X21513Y2209
X21749Y2406
X21986Y2209
X22222Y2406
X22458Y2209
X22694Y2406
X22930Y2209
X23363Y2209
X23600Y2406
X23836Y2209
X24072Y2406
X24308Y2209
X24545Y2406
X24241Y3113
X23768Y3113
X22734Y4965
X22128Y4906
X21843Y4906
X22458Y7288
X22773Y7291
X23088Y7288
X23374Y7233
X24476Y10250
X22182Y14611
X22223Y14893
X14742Y15480
X14418Y15811
X14493Y16087
X14169Y15952
X13777Y16402
X13509Y16286
X13219Y16125
X12919Y16112
X12970Y15831
X13206Y15201
X13581Y14936
X13710Y16786
X13039Y16630
X12287Y16323
X11918Y16478
X11899Y16183
X12049Y15779
X11720Y15792
X11226Y15991
X10363Y15789
X9954Y15698
X10017Y16264
X9171Y16343
X9151Y15949
X9741Y17229
X9781Y17682
X10863Y17682
X11503Y16885
X12243Y16982
X13263Y17524
X14269Y17406
X10224Y14846
X10056Y14611
X9881Y14033
X9485Y14020
X9072Y13981
X10198Y12588
X10470Y12248
X10638Y11487
X11444Y11461
X11444Y10752
X11444Y10044
X11444Y9335
X11009Y8951
X10694Y9182
X10194Y8646
X9200Y7554
X9810Y6934
X9485Y6264
X9072Y6107
X9308Y5556
X9111Y4965
X9663Y4768
X9426Y4286
X10062Y5101
X9938Y5890
X9663Y2800
X9706Y2240
X9938Y2406
X10174Y2209
X10411Y2406
X10647Y2209
X10883Y2406
X11119Y2209
X11356Y2406
X11592Y2209
X11828Y2406
X12064Y2209
X12300Y2406
X12537Y2209
X12773Y2406
X13009Y2209
X13245Y2406
X13482Y2209
X13718Y2406
X13954Y2209
X14190Y2406
X14426Y2209
X14663Y2406
X14899Y2209
X15135Y2406
X15371Y2209
X15608Y2406
X15844Y2209
X16080Y2406
X16316Y2209
X16552Y2406
X16789Y2209
X17025Y2406
X17261Y2209
X10923Y12780
X24623Y12937
X24810Y13153
X25489Y13272
X25489Y13587
X25489Y13902
X25489Y14217
X25489Y14532
X25489Y14847
X25489Y15162
X25489Y15477
X25489Y15792
X25489Y16107
X25489Y16422
X25489Y16737
X25411Y17052
X25088Y16737
X25216Y15907
X25251Y14689
X25251Y13745
X24634Y14087
X24661Y12172
X25489Y12327
X25489Y12642
X25489Y12957
X25489Y12012
X25489Y11697
X25489Y11382
X25489Y11067
X25489Y10752
X25489Y10437
X25489Y10122
X25489Y9808
X25489Y9493
X25489Y9178
X25489Y8863
X25489Y8548
X25489Y8233
X25489Y7918
X25489Y7603
X25489Y7288
X25489Y6973
X25489Y6658
X25489Y6343
X25489Y6028
X24661Y5903
X24663Y5201
X24978Y5044
X25123Y5290
X25096Y4729
X25214Y4414
X25293Y4138
X25293Y3745
X25489Y3390
X25489Y3075
X25145Y3105
X24683Y3106
X24781Y2209
X25017Y2406
X25253Y2209
X25450Y2524
X24978Y6579
X24638Y6634
X25206Y9528
X24879Y11117
X24584Y11117
X24860Y17760
X25174Y17760
X25489Y17760
X24545Y17760
X24230Y17760
X23915Y17760
X23600Y17760
X23285Y17760
X22970Y17760
X22655Y17760
X22340Y17760
X22025Y17760
X21710Y17760
X21395Y17760
X21080Y17760
X20765Y17760
X20450Y17760
X20135Y17760
X19820Y17760
X19505Y17760
X19190Y17760
X18875Y17760
X18560Y17760
X16395Y17760
X16080Y17760
X15765Y17760
X15450Y17760
X15135Y17760
X12999Y17734
X12064Y17760
X11749Y17760
X11434Y17760
X9072Y17760
X32093Y239
X32245Y492
X32087Y779
X32087Y1134
X33089Y800
X33363Y695
X33606Y908
X33056Y395
X34535Y1135
X35512Y1134
X35512Y760
X35512Y386
X3368Y16938
X438Y17013
X2108Y17057
X5474Y17057
X5284Y17290
X4004Y17346
X3693Y17346
X670Y17500
X2261Y17728
X1563Y17820
X4191Y17883
X5124Y18020
X5396Y18312
X356Y18415
X993Y18461
X1370Y18503
X2677Y18578
X3914Y18582
X5435Y18858
X3349Y18939
X4638Y19064
X2689Y19124
X1642Y19133
X3399Y19242
X5474Y19340
X351Y20137
X4667Y20305
X2862Y20595
X1923Y20825
X3423Y20826
X2630Y20827
X2387Y21033
X5573Y21053
X2728Y21111
X1351Y21418
X3486Y21626
X1402Y21715
X5543Y21840
X2049Y21856
X1396Y22025
X4829Y22043
X3447Y22116
X2447Y22175
X1772Y22328
X4746Y22332
X4013Y22633
X1047Y22651
X746Y22659
X5553Y23031
X915Y23238
X330Y23263
X1214Y23272
X549Y23529
X2191Y23667
X3038Y23713
X3551Y23783
X4451Y23783
X4752Y23783
X5053Y23783
X5354Y23783
X3959Y23787
X2423Y24163
X2640Y24419
X5595Y26494
X3846Y26711
X593Y26751
X1006Y26899
X3939Y26998
X1587Y27037
X1862Y27037
X2138Y27037
X1026Y27214
X5602Y27234
X1587Y27342
X1862Y27342
X612Y27539
X907Y17001
X1301Y17001
X1695Y17001
X2593Y17001
X2993Y17001
X3919Y27470
X4313Y27470
X4707Y27470
X5100Y27470
X2813Y6753
X845Y6753
X4152Y6714
X2735Y5887
X1672Y5730
X845Y5612
X4152Y5375
X3246Y4982
X2262Y4942
X1632Y4391
X845Y4352
X4152Y3958
X3443Y3722
X845Y3643
X2752Y3557
X1199Y3131
X2065Y2620
X1120Y2383
X4152Y2226
X845Y1911
X3327Y1593
X2459Y1320
X1120Y1320
X1707Y6881
X1313Y6881
X4250Y1202
X3778Y1202
X3306Y1202
X2833Y1202
X9033Y33139
X9669Y33411
X10054Y33197
X10483Y33838
X10819Y33878
X11409Y33681
X11665Y33405
X12196Y33287
X12492Y33681
X12000Y33878
X13181Y33878
X14756Y33878
X14736Y33405
X15028Y32294
X15003Y31247
X14715Y30925
X14640Y29872
X14756Y28760
X14756Y27972
X13752Y28445
X13746Y29090
X12500Y29030
X12590Y28563
X12110Y28395
X12393Y27972
X11225Y28394
X11053Y27698
X10661Y27657
X10267Y27657
X10361Y28339
X9872Y28649
X9555Y28262
X9125Y28659
X9504Y29048
X10228Y29123
X10661Y29075
X9676Y30391
X9047Y30391
X9033Y31310
X9033Y32165
X9675Y31942
X10700Y31358
X12147Y30965
X12196Y31712
X12706Y31279
X13704Y30690
X15661Y29744
X15728Y28812
X15346Y28366
X15937Y27972
X16724Y28799
X16892Y30798
X16486Y30840
X16476Y31627
X16073Y31892
X16150Y33329
X15515Y32920
X15282Y33760
T02
X14938Y8311
X16631Y8193
X18363Y8233
X20253Y8193
X21395Y8193
X22576Y8193
X23088Y8666
T03
X9146Y27834
X9323Y33936
X11606Y27834
X13299Y27834
X14047Y27834
X14067Y33936
X16016Y33936
X16567Y27834
X16744Y33936
X9387Y17445
X12529Y16685
X12529Y17485
X14529Y17085
X4589Y24324
X3407Y25112
X4589Y25899
X4667Y17198
X4267Y19198
X5067Y19198
X9322Y33937
X14067Y33937
X14047Y27834
X13299Y27834
X11606Y27834
X9145Y27834
X16567Y27834
X16744Y33937
X16015Y33937
T04
X3172Y38642
X3172Y36870
X4353Y38642
X4353Y36870
X5534Y38642
X5534Y36870
X6715Y38642
X6715Y36870
X7896Y38642
X7896Y36870
X9077Y38642
X9077Y36870
X10258Y38642
X10258Y36870
X11439Y38642
X11439Y36870
X14589Y38642
X14589Y36870
X15770Y38642
X15770Y36870
X16951Y38642
X16951Y36870
X18132Y38642
X18132Y36870
X19313Y38642
X19313Y36870
X20494Y38642
X20494Y36870
X21676Y38642
X21676Y36870
X22857Y38642
X22857Y36870
X24038Y38642
X24038Y36870
X25219Y38642
X25219Y36870
X26400Y38642
X26400Y36870
X27581Y38642
X27581Y36870
X28762Y38642
X28762Y36870
X780Y24147
X780Y25147
X780Y26147
T05
X3800Y33824
X3800Y32170
X3800Y30517
X5965Y33824
X5965Y32170
X5965Y30517
X31093Y35735
X31093Y33570
X32746Y35735
X32746Y33570
X34400Y35735
X34400Y33570
X36054Y35735
X36054Y33570
T06
X926Y33824
X926Y30517
X31093Y38609
X36054Y38609
M30
