G04 #@! TF.GenerationSoftware,KiCad,Pcbnew,8.0.9-8.0.9-0~ubuntu24.04.1*
G04 #@! TF.CreationDate,2026-08-07T09:24:37+00:00*
G04 #@! TF.ProjectId,EP91Starlet,45503931-5374-4617-926c-65742e6b6963,rev?*
G04 #@! TF.SameCoordinates,Original*
G04 #@! TF.FileFunction,Paste,Top*
G04 #@! TF.FilePolarity,Positive*
%FSLAX46Y46*%
G04 Gerber Fmt 4.6, Leading zero omitted, Abs format (unit mm)*
G04 Created by KiCad (PCBNEW 8.0.9-8.0.9-0~ubuntu24.04.1) date 2026-08-07 09:24:37*
%MOMM*%
%LPD*%
G01*
G04 APERTURE LIST*
%ADD10R,1.950000X1.160000*%
%ADD11R,2.000000X0.650000*%
%ADD12R,1.525000X0.650000*%
%ADD13R,4.399991X2.299995*%
%ADD14R,3.999992X2.299995*%
%ADD15R,0.500000X2.500000*%
%ADD16R,2.000000X2.500000*%
%ADD17O,0.000001X0.000001*%
G04 APERTURE END LIST*
G04 #@! TO.C,Q2*
G36*
G01*
X-84619993Y30671671D02*
X-84619993Y30971671D01*
G75*
G02*
X-84469993Y31121671I150000J0D01*
G01*
X-83294993Y31121671D01*
G75*
G02*
X-83144993Y30971671I0J-150000D01*
G01*
X-83144993Y30671671D01*
G75*
G02*
X-83294993Y30521671I-150000J0D01*
G01*
X-84469993Y30521671D01*
G75*
G02*
X-84619993Y30671671I0J150000D01*
G01*
G37*
G36*
G01*
X-84619993Y28771671D02*
X-84619993Y29071671D01*
G75*
G02*
X-84469993Y29221671I150000J0D01*
G01*
X-83294993Y29221671D01*
G75*
G02*
X-83144993Y29071671I0J-150000D01*
G01*
X-83144993Y28771671D01*
G75*
G02*
X-83294993Y28621671I-150000J0D01*
G01*
X-84469993Y28621671D01*
G75*
G02*
X-84619993Y28771671I0J150000D01*
G01*
G37*
G36*
G01*
X-82744993Y29721671D02*
X-82744993Y30021671D01*
G75*
G02*
X-82594993Y30171671I150000J0D01*
G01*
X-81419993Y30171671D01*
G75*
G02*
X-81269993Y30021671I0J-150000D01*
G01*
X-81269993Y29721671D01*
G75*
G02*
X-81419993Y29571671I-150000J0D01*
G01*
X-82594993Y29571671D01*
G75*
G02*
X-82744993Y29721671I0J150000D01*
G01*
G37*
G04 #@! TD*
G04 #@! TO.C,R12*
G36*
G01*
X-17394993Y66241671D02*
X-17394993Y66611671D01*
G75*
G02*
X-17259993Y66746671I135000J0D01*
G01*
X-16989993Y66746671D01*
G75*
G02*
X-16854993Y66611671I0J-135000D01*
G01*
X-16854993Y66241671D01*
G75*
G02*
X-16989993Y66106671I-135000J0D01*
G01*
X-17259993Y66106671D01*
G75*
G02*
X-17394993Y66241671I0J135000D01*
G01*
G37*
G36*
G01*
X-16374993Y66241671D02*
X-16374993Y66611671D01*
G75*
G02*
X-16239993Y66746671I135000J0D01*
G01*
X-15969993Y66746671D01*
G75*
G02*
X-15834993Y66611671I0J-135000D01*
G01*
X-15834993Y66241671D01*
G75*
G02*
X-15969993Y66106671I-135000J0D01*
G01*
X-16239993Y66106671D01*
G75*
G02*
X-16374993Y66241671I0J135000D01*
G01*
G37*
G04 #@! TD*
D10*
G04 #@! TO.C,U8*
X-34875000Y99470000D03*
X-34875000Y98010000D03*
X-34875000Y96550000D03*
X-34875000Y95090000D03*
X-34875000Y93630000D03*
X-32625000Y99470000D03*
X-32625000Y98010000D03*
X-32625000Y96550000D03*
X-32625000Y95090000D03*
X-32625000Y93630000D03*
D11*
X-38550000Y99050000D03*
X-38550000Y98050000D03*
X-38550000Y97050000D03*
X-38550000Y96050000D03*
X-38550000Y95050000D03*
X-38550000Y94050000D03*
X-28950000Y94050000D03*
X-28950000Y95050000D03*
X-28950000Y96050000D03*
X-28950000Y97050000D03*
X-28950000Y98050000D03*
X-28950000Y99050000D03*
G04 #@! TD*
D12*
G04 #@! TO.C,IC2*
X119300000Y77290000D03*
X119300000Y76020000D03*
X119300000Y74750000D03*
X119300000Y73480000D03*
X124724000Y73480000D03*
X124724000Y74750000D03*
X124724000Y76020000D03*
X124724000Y77290000D03*
G04 #@! TD*
G04 #@! TO.C,D9*
G36*
G01*
X-64369993Y30861671D02*
X-64369993Y31611671D01*
G75*
G02*
X-64144993Y31836671I225000J0D01*
G01*
X-63694993Y31836671D01*
G75*
G02*
X-63469993Y31611671I0J-225000D01*
G01*
X-63469993Y30861671D01*
G75*
G02*
X-63694993Y30636671I-225000J0D01*
G01*
X-64144993Y30636671D01*
G75*
G02*
X-64369993Y30861671I0J225000D01*
G01*
G37*
G36*
G01*
X-61069993Y30861671D02*
X-61069993Y31611671D01*
G75*
G02*
X-60844993Y31836671I225000J0D01*
G01*
X-60394993Y31836671D01*
G75*
G02*
X-60169993Y31611671I0J-225000D01*
G01*
X-60169993Y30861671D01*
G75*
G02*
X-60394993Y30636671I-225000J0D01*
G01*
X-60844993Y30636671D01*
G75*
G02*
X-61069993Y30861671I0J225000D01*
G01*
G37*
G04 #@! TD*
G04 #@! TO.C,R15*
G36*
G01*
X-38100000Y83335000D02*
X-38100000Y83885000D01*
G75*
G02*
X-37900000Y84085000I200000J0D01*
G01*
X-37500000Y84085000D01*
G75*
G02*
X-37300000Y83885000I0J-200000D01*
G01*
X-37300000Y83335000D01*
G75*
G02*
X-37500000Y83135000I-200000J0D01*
G01*
X-37900000Y83135000D01*
G75*
G02*
X-38100000Y83335000I0J200000D01*
G01*
G37*
G36*
G01*
X-36450000Y83335000D02*
X-36450000Y83885000D01*
G75*
G02*
X-36250000Y84085000I200000J0D01*
G01*
X-35850000Y84085000D01*
G75*
G02*
X-35650000Y83885000I0J-200000D01*
G01*
X-35650000Y83335000D01*
G75*
G02*
X-35850000Y83135000I-200000J0D01*
G01*
X-36250000Y83135000D01*
G75*
G02*
X-36450000Y83335000I0J200000D01*
G01*
G37*
G04 #@! TD*
G04 #@! TO.C,C9*
G36*
G01*
X-46120000Y83360000D02*
X-46120000Y83860000D01*
G75*
G02*
X-45895000Y84085000I225000J0D01*
G01*
X-45445000Y84085000D01*
G75*
G02*
X-45220000Y83860000I0J-225000D01*
G01*
X-45220000Y83360000D01*
G75*
G02*
X-45445000Y83135000I-225000J0D01*
G01*
X-45895000Y83135000D01*
G75*
G02*
X-46120000Y83360000I0J225000D01*
G01*
G37*
G36*
G01*
X-44570000Y83360000D02*
X-44570000Y83860000D01*
G75*
G02*
X-44345000Y84085000I225000J0D01*
G01*
X-43895000Y84085000D01*
G75*
G02*
X-43670000Y83860000I0J-225000D01*
G01*
X-43670000Y83360000D01*
G75*
G02*
X-43895000Y83135000I-225000J0D01*
G01*
X-44345000Y83135000D01*
G75*
G02*
X-44570000Y83360000I0J225000D01*
G01*
G37*
G04 #@! TD*
G04 #@! TO.C,C10*
G36*
G01*
X-46120000Y80850000D02*
X-46120000Y81350000D01*
G75*
G02*
X-45895000Y81575000I225000J0D01*
G01*
X-45445000Y81575000D01*
G75*
G02*
X-45220000Y81350000I0J-225000D01*
G01*
X-45220000Y80850000D01*
G75*
G02*
X-45445000Y80625000I-225000J0D01*
G01*
X-45895000Y80625000D01*
G75*
G02*
X-46120000Y80850000I0J225000D01*
G01*
G37*
G36*
G01*
X-44570000Y80850000D02*
X-44570000Y81350000D01*
G75*
G02*
X-44345000Y81575000I225000J0D01*
G01*
X-43895000Y81575000D01*
G75*
G02*
X-43670000Y81350000I0J-225000D01*
G01*
X-43670000Y80850000D01*
G75*
G02*
X-43895000Y80625000I-225000J0D01*
G01*
X-44345000Y80625000D01*
G75*
G02*
X-44570000Y80850000I0J225000D01*
G01*
G37*
G04 #@! TD*
G04 #@! TO.C,C17*
G36*
G01*
X-38100000Y88380000D02*
X-38100000Y88880000D01*
G75*
G02*
X-37875000Y89105000I225000J0D01*
G01*
X-37425000Y89105000D01*
G75*
G02*
X-37200000Y88880000I0J-225000D01*
G01*
X-37200000Y88380000D01*
G75*
G02*
X-37425000Y88155000I-225000J0D01*
G01*
X-37875000Y88155000D01*
G75*
G02*
X-38100000Y88380000I0J225000D01*
G01*
G37*
G36*
G01*
X-36550000Y88380000D02*
X-36550000Y88880000D01*
G75*
G02*
X-36325000Y89105000I225000J0D01*
G01*
X-35875000Y89105000D01*
G75*
G02*
X-35650000Y88880000I0J-225000D01*
G01*
X-35650000Y88380000D01*
G75*
G02*
X-35875000Y88155000I-225000J0D01*
G01*
X-36325000Y88155000D01*
G75*
G02*
X-36550000Y88380000I0J225000D01*
G01*
G37*
G04 #@! TD*
G04 #@! TO.C,R4*
G36*
G01*
X-23214993Y62261671D02*
X-23214993Y62631671D01*
G75*
G02*
X-23079993Y62766671I135000J0D01*
G01*
X-22809993Y62766671D01*
G75*
G02*
X-22674993Y62631671I0J-135000D01*
G01*
X-22674993Y62261671D01*
G75*
G02*
X-22809993Y62126671I-135000J0D01*
G01*
X-23079993Y62126671D01*
G75*
G02*
X-23214993Y62261671I0J135000D01*
G01*
G37*
G36*
G01*
X-22194993Y62261671D02*
X-22194993Y62631671D01*
G75*
G02*
X-22059993Y62766671I135000J0D01*
G01*
X-21789993Y62766671D01*
G75*
G02*
X-21654993Y62631671I0J-135000D01*
G01*
X-21654993Y62261671D01*
G75*
G02*
X-21789993Y62126671I-135000J0D01*
G01*
X-22059993Y62126671D01*
G75*
G02*
X-22194993Y62261671I0J135000D01*
G01*
G37*
G04 #@! TD*
G04 #@! TO.C,D10*
G36*
G01*
X-16187500Y76550000D02*
X-16187500Y76850000D01*
G75*
G02*
X-16037500Y77000000I150000J0D01*
G01*
X-14862500Y77000000D01*
G75*
G02*
X-14712500Y76850000I0J-150000D01*
G01*
X-14712500Y76550000D01*
G75*
G02*
X-14862500Y76400000I-150000J0D01*
G01*
X-16037500Y76400000D01*
G75*
G02*
X-16187500Y76550000I0J150000D01*
G01*
G37*
G36*
G01*
X-16187500Y74650000D02*
X-16187500Y74950000D01*
G75*
G02*
X-16037500Y75100000I150000J0D01*
G01*
X-14862500Y75100000D01*
G75*
G02*
X-14712500Y74950000I0J-150000D01*
G01*
X-14712500Y74650000D01*
G75*
G02*
X-14862500Y74500000I-150000J0D01*
G01*
X-16037500Y74500000D01*
G75*
G02*
X-16187500Y74650000I0J150000D01*
G01*
G37*
G36*
G01*
X-14312500Y75600000D02*
X-14312500Y75900000D01*
G75*
G02*
X-14162500Y76050000I150000J0D01*
G01*
X-12987500Y76050000D01*
G75*
G02*
X-12837500Y75900000I0J-150000D01*
G01*
X-12837500Y75600000D01*
G75*
G02*
X-12987500Y75450000I-150000J0D01*
G01*
X-14162500Y75450000D01*
G75*
G02*
X-14312500Y75600000I0J150000D01*
G01*
G37*
G04 #@! TD*
G04 #@! TO.C,U7*
G36*
G01*
X71325000Y63460000D02*
X71325000Y63760000D01*
G75*
G02*
X71475000Y63910000I150000J0D01*
G01*
X73125000Y63910000D01*
G75*
G02*
X73275000Y63760000I0J-150000D01*
G01*
X73275000Y63460000D01*
G75*
G02*
X73125000Y63310000I-150000J0D01*
G01*
X71475000Y63310000D01*
G75*
G02*
X71325000Y63460000I0J150000D01*
G01*
G37*
G36*
G01*
X71325000Y62190000D02*
X71325000Y62490000D01*
G75*
G02*
X71475000Y62640000I150000J0D01*
G01*
X73125000Y62640000D01*
G75*
G02*
X73275000Y62490000I0J-150000D01*
G01*
X73275000Y62190000D01*
G75*
G02*
X73125000Y62040000I-150000J0D01*
G01*
X71475000Y62040000D01*
G75*
G02*
X71325000Y62190000I0J150000D01*
G01*
G37*
G36*
G01*
X71325000Y60920000D02*
X71325000Y61220000D01*
G75*
G02*
X71475000Y61370000I150000J0D01*
G01*
X73125000Y61370000D01*
G75*
G02*
X73275000Y61220000I0J-150000D01*
G01*
X73275000Y60920000D01*
G75*
G02*
X73125000Y60770000I-150000J0D01*
G01*
X71475000Y60770000D01*
G75*
G02*
X71325000Y60920000I0J150000D01*
G01*
G37*
G36*
G01*
X71325000Y59650000D02*
X71325000Y59950000D01*
G75*
G02*
X71475000Y60100000I150000J0D01*
G01*
X73125000Y60100000D01*
G75*
G02*
X73275000Y59950000I0J-150000D01*
G01*
X73275000Y59650000D01*
G75*
G02*
X73125000Y59500000I-150000J0D01*
G01*
X71475000Y59500000D01*
G75*
G02*
X71325000Y59650000I0J150000D01*
G01*
G37*
G36*
G01*
X76275000Y59650000D02*
X76275000Y59950000D01*
G75*
G02*
X76425000Y60100000I150000J0D01*
G01*
X78075000Y60100000D01*
G75*
G02*
X78225000Y59950000I0J-150000D01*
G01*
X78225000Y59650000D01*
G75*
G02*
X78075000Y59500000I-150000J0D01*
G01*
X76425000Y59500000D01*
G75*
G02*
X76275000Y59650000I0J150000D01*
G01*
G37*
G36*
G01*
X76275000Y60920000D02*
X76275000Y61220000D01*
G75*
G02*
X76425000Y61370000I150000J0D01*
G01*
X78075000Y61370000D01*
G75*
G02*
X78225000Y61220000I0J-150000D01*
G01*
X78225000Y60920000D01*
G75*
G02*
X78075000Y60770000I-150000J0D01*
G01*
X76425000Y60770000D01*
G75*
G02*
X76275000Y60920000I0J150000D01*
G01*
G37*
G36*
G01*
X76275000Y62190000D02*
X76275000Y62490000D01*
G75*
G02*
X76425000Y62640000I150000J0D01*
G01*
X78075000Y62640000D01*
G75*
G02*
X78225000Y62490000I0J-150000D01*
G01*
X78225000Y62190000D01*
G75*
G02*
X78075000Y62040000I-150000J0D01*
G01*
X76425000Y62040000D01*
G75*
G02*
X76275000Y62190000I0J150000D01*
G01*
G37*
G36*
G01*
X76275000Y63460000D02*
X76275000Y63760000D01*
G75*
G02*
X76425000Y63910000I150000J0D01*
G01*
X78075000Y63910000D01*
G75*
G02*
X78225000Y63760000I0J-150000D01*
G01*
X78225000Y63460000D01*
G75*
G02*
X78075000Y63310000I-150000J0D01*
G01*
X76425000Y63310000D01*
G75*
G02*
X76275000Y63460000I0J150000D01*
G01*
G37*
G04 #@! TD*
G04 #@! TO.C,R1*
G36*
G01*
X-23214993Y68231671D02*
X-23214993Y68601671D01*
G75*
G02*
X-23079993Y68736671I135000J0D01*
G01*
X-22809993Y68736671D01*
G75*
G02*
X-22674993Y68601671I0J-135000D01*
G01*
X-22674993Y68231671D01*
G75*
G02*
X-22809993Y68096671I-135000J0D01*
G01*
X-23079993Y68096671D01*
G75*
G02*
X-23214993Y68231671I0J135000D01*
G01*
G37*
G36*
G01*
X-22194993Y68231671D02*
X-22194993Y68601671D01*
G75*
G02*
X-22059993Y68736671I135000J0D01*
G01*
X-21789993Y68736671D01*
G75*
G02*
X-21654993Y68601671I0J-135000D01*
G01*
X-21654993Y68231671D01*
G75*
G02*
X-21789993Y68096671I-135000J0D01*
G01*
X-22059993Y68096671D01*
G75*
G02*
X-22194993Y68231671I0J135000D01*
G01*
G37*
G04 #@! TD*
G04 #@! TO.C,C4*
G36*
G01*
X-9299993Y77526671D02*
X-9299993Y78026671D01*
G75*
G02*
X-9074993Y78251671I225000J0D01*
G01*
X-8624993Y78251671D01*
G75*
G02*
X-8399993Y78026671I0J-225000D01*
G01*
X-8399993Y77526671D01*
G75*
G02*
X-8624993Y77301671I-225000J0D01*
G01*
X-9074993Y77301671D01*
G75*
G02*
X-9299993Y77526671I0J225000D01*
G01*
G37*
G36*
G01*
X-7749993Y77526671D02*
X-7749993Y78026671D01*
G75*
G02*
X-7524993Y78251671I225000J0D01*
G01*
X-7074993Y78251671D01*
G75*
G02*
X-6849993Y78026671I0J-225000D01*
G01*
X-6849993Y77526671D01*
G75*
G02*
X-7074993Y77301671I-225000J0D01*
G01*
X-7524993Y77301671D01*
G75*
G02*
X-7749993Y77526671I0J225000D01*
G01*
G37*
G04 #@! TD*
G04 #@! TO.C,F1*
G36*
G01*
X-84614993Y33291672D02*
X-84614993Y34541670D01*
G75*
G02*
X-84364992Y34791671I250001J0D01*
G01*
X-83439994Y34791671D01*
G75*
G02*
X-83189993Y34541670I0J-250001D01*
G01*
X-83189993Y33291672D01*
G75*
G02*
X-83439994Y33041671I-250001J0D01*
G01*
X-84364992Y33041671D01*
G75*
G02*
X-84614993Y33291672I0J250001D01*
G01*
G37*
G36*
G01*
X-81639993Y33291672D02*
X-81639993Y34541670D01*
G75*
G02*
X-81389992Y34791671I250001J0D01*
G01*
X-80464994Y34791671D01*
G75*
G02*
X-80214993Y34541670I0J-250001D01*
G01*
X-80214993Y33291672D01*
G75*
G02*
X-80464994Y33041671I-250001J0D01*
G01*
X-81389992Y33041671D01*
G75*
G02*
X-81639993Y33291672I0J250001D01*
G01*
G37*
G04 #@! TD*
G04 #@! TO.C,C2*
G36*
G01*
X-9299993Y82546671D02*
X-9299993Y83046671D01*
G75*
G02*
X-9074993Y83271671I225000J0D01*
G01*
X-8624993Y83271671D01*
G75*
G02*
X-8399993Y83046671I0J-225000D01*
G01*
X-8399993Y82546671D01*
G75*
G02*
X-8624993Y82321671I-225000J0D01*
G01*
X-9074993Y82321671D01*
G75*
G02*
X-9299993Y82546671I0J225000D01*
G01*
G37*
G36*
G01*
X-7749993Y82546671D02*
X-7749993Y83046671D01*
G75*
G02*
X-7524993Y83271671I225000J0D01*
G01*
X-7074993Y83271671D01*
G75*
G02*
X-6849993Y83046671I0J-225000D01*
G01*
X-6849993Y82546671D01*
G75*
G02*
X-7074993Y82321671I-225000J0D01*
G01*
X-7524993Y82321671D01*
G75*
G02*
X-7749993Y82546671I0J225000D01*
G01*
G37*
G04 #@! TD*
G04 #@! TO.C,C13*
G36*
G01*
X-42110000Y85870000D02*
X-42110000Y86370000D01*
G75*
G02*
X-41885000Y86595000I225000J0D01*
G01*
X-41435000Y86595000D01*
G75*
G02*
X-41210000Y86370000I0J-225000D01*
G01*
X-41210000Y85870000D01*
G75*
G02*
X-41435000Y85645000I-225000J0D01*
G01*
X-41885000Y85645000D01*
G75*
G02*
X-42110000Y85870000I0J225000D01*
G01*
G37*
G36*
G01*
X-40560000Y85870000D02*
X-40560000Y86370000D01*
G75*
G02*
X-40335000Y86595000I225000J0D01*
G01*
X-39885000Y86595000D01*
G75*
G02*
X-39660000Y86370000I0J-225000D01*
G01*
X-39660000Y85870000D01*
G75*
G02*
X-39885000Y85645000I-225000J0D01*
G01*
X-40335000Y85645000D01*
G75*
G02*
X-40560000Y85870000I0J225000D01*
G01*
G37*
G04 #@! TD*
G04 #@! TO.C,R9*
G36*
G01*
X-20304993Y62261671D02*
X-20304993Y62631671D01*
G75*
G02*
X-20169993Y62766671I135000J0D01*
G01*
X-19899993Y62766671D01*
G75*
G02*
X-19764993Y62631671I0J-135000D01*
G01*
X-19764993Y62261671D01*
G75*
G02*
X-19899993Y62126671I-135000J0D01*
G01*
X-20169993Y62126671D01*
G75*
G02*
X-20304993Y62261671I0J135000D01*
G01*
G37*
G36*
G01*
X-19284993Y62261671D02*
X-19284993Y62631671D01*
G75*
G02*
X-19149993Y62766671I135000J0D01*
G01*
X-18879993Y62766671D01*
G75*
G02*
X-18744993Y62631671I0J-135000D01*
G01*
X-18744993Y62261671D01*
G75*
G02*
X-18879993Y62126671I-135000J0D01*
G01*
X-19149993Y62126671D01*
G75*
G02*
X-19284993Y62261671I0J135000D01*
G01*
G37*
G04 #@! TD*
G04 #@! TO.C,C1*
G36*
G01*
X-9299993Y85056671D02*
X-9299993Y85556671D01*
G75*
G02*
X-9074993Y85781671I225000J0D01*
G01*
X-8624993Y85781671D01*
G75*
G02*
X-8399993Y85556671I0J-225000D01*
G01*
X-8399993Y85056671D01*
G75*
G02*
X-8624993Y84831671I-225000J0D01*
G01*
X-9074993Y84831671D01*
G75*
G02*
X-9299993Y85056671I0J225000D01*
G01*
G37*
G36*
G01*
X-7749993Y85056671D02*
X-7749993Y85556671D01*
G75*
G02*
X-7524993Y85781671I225000J0D01*
G01*
X-7074993Y85781671D01*
G75*
G02*
X-6849993Y85556671I0J-225000D01*
G01*
X-6849993Y85056671D01*
G75*
G02*
X-7074993Y84831671I-225000J0D01*
G01*
X-7524993Y84831671D01*
G75*
G02*
X-7749993Y85056671I0J225000D01*
G01*
G37*
G04 #@! TD*
G04 #@! TO.C,R3*
G36*
G01*
X-23214993Y64251671D02*
X-23214993Y64621671D01*
G75*
G02*
X-23079993Y64756671I135000J0D01*
G01*
X-22809993Y64756671D01*
G75*
G02*
X-22674993Y64621671I0J-135000D01*
G01*
X-22674993Y64251671D01*
G75*
G02*
X-22809993Y64116671I-135000J0D01*
G01*
X-23079993Y64116671D01*
G75*
G02*
X-23214993Y64251671I0J135000D01*
G01*
G37*
G36*
G01*
X-22194993Y64251671D02*
X-22194993Y64621671D01*
G75*
G02*
X-22059993Y64756671I135000J0D01*
G01*
X-21789993Y64756671D01*
G75*
G02*
X-21654993Y64621671I0J-135000D01*
G01*
X-21654993Y64251671D01*
G75*
G02*
X-21789993Y64116671I-135000J0D01*
G01*
X-22059993Y64116671D01*
G75*
G02*
X-22194993Y64251671I0J135000D01*
G01*
G37*
G04 #@! TD*
G04 #@! TO.C,C14*
G36*
G01*
X-42110000Y83360000D02*
X-42110000Y83860000D01*
G75*
G02*
X-41885000Y84085000I225000J0D01*
G01*
X-41435000Y84085000D01*
G75*
G02*
X-41210000Y83860000I0J-225000D01*
G01*
X-41210000Y83360000D01*
G75*
G02*
X-41435000Y83135000I-225000J0D01*
G01*
X-41885000Y83135000D01*
G75*
G02*
X-42110000Y83360000I0J225000D01*
G01*
G37*
G36*
G01*
X-40560000Y83360000D02*
X-40560000Y83860000D01*
G75*
G02*
X-40335000Y84085000I225000J0D01*
G01*
X-39885000Y84085000D01*
G75*
G02*
X-39660000Y83860000I0J-225000D01*
G01*
X-39660000Y83360000D01*
G75*
G02*
X-39885000Y83135000I-225000J0D01*
G01*
X-40335000Y83135000D01*
G75*
G02*
X-40560000Y83360000I0J225000D01*
G01*
G37*
G04 #@! TD*
G04 #@! TO.C,IC5*
X110338000Y51205000D03*
X110338000Y49935000D03*
X110338000Y48665000D03*
X110338000Y47395000D03*
X115762000Y47395000D03*
X115762000Y48665000D03*
X115762000Y49935000D03*
X115762000Y51205000D03*
G04 #@! TD*
G04 #@! TO.C,R2*
G36*
G01*
X-23214993Y66241671D02*
X-23214993Y66611671D01*
G75*
G02*
X-23079993Y66746671I135000J0D01*
G01*
X-22809993Y66746671D01*
G75*
G02*
X-22674993Y66611671I0J-135000D01*
G01*
X-22674993Y66241671D01*
G75*
G02*
X-22809993Y66106671I-135000J0D01*
G01*
X-23079993Y66106671D01*
G75*
G02*
X-23214993Y66241671I0J135000D01*
G01*
G37*
G36*
G01*
X-22194993Y66241671D02*
X-22194993Y66611671D01*
G75*
G02*
X-22059993Y66746671I135000J0D01*
G01*
X-21789993Y66746671D01*
G75*
G02*
X-21654993Y66611671I0J-135000D01*
G01*
X-21654993Y66241671D01*
G75*
G02*
X-21789993Y66106671I-135000J0D01*
G01*
X-22059993Y66106671D01*
G75*
G02*
X-22194993Y66241671I0J135000D01*
G01*
G37*
G04 #@! TD*
D13*
G04 #@! TO.C,BT1*
X-78200019Y20800000D03*
D14*
X-62200000Y20800000D03*
G04 #@! TD*
G04 #@! TO.C,D7*
G36*
G01*
X-64369993Y37561671D02*
X-64369993Y38311671D01*
G75*
G02*
X-64144993Y38536671I225000J0D01*
G01*
X-63694993Y38536671D01*
G75*
G02*
X-63469993Y38311671I0J-225000D01*
G01*
X-63469993Y37561671D01*
G75*
G02*
X-63694993Y37336671I-225000J0D01*
G01*
X-64144993Y37336671D01*
G75*
G02*
X-64369993Y37561671I0J225000D01*
G01*
G37*
G36*
G01*
X-61069993Y37561671D02*
X-61069993Y38311671D01*
G75*
G02*
X-60844993Y38536671I225000J0D01*
G01*
X-60394993Y38536671D01*
G75*
G02*
X-60169993Y38311671I0J-225000D01*
G01*
X-60169993Y37561671D01*
G75*
G02*
X-60394993Y37336671I-225000J0D01*
G01*
X-60844993Y37336671D01*
G75*
G02*
X-61069993Y37561671I0J225000D01*
G01*
G37*
G04 #@! TD*
G04 #@! TO.C,C3*
G36*
G01*
X-9299993Y80036671D02*
X-9299993Y80536671D01*
G75*
G02*
X-9074993Y80761671I225000J0D01*
G01*
X-8624993Y80761671D01*
G75*
G02*
X-8399993Y80536671I0J-225000D01*
G01*
X-8399993Y80036671D01*
G75*
G02*
X-8624993Y79811671I-225000J0D01*
G01*
X-9074993Y79811671D01*
G75*
G02*
X-9299993Y80036671I0J225000D01*
G01*
G37*
G36*
G01*
X-7749993Y80036671D02*
X-7749993Y80536671D01*
G75*
G02*
X-7524993Y80761671I225000J0D01*
G01*
X-7074993Y80761671D01*
G75*
G02*
X-6849993Y80536671I0J-225000D01*
G01*
X-6849993Y80036671D01*
G75*
G02*
X-7074993Y79811671I-225000J0D01*
G01*
X-7524993Y79811671D01*
G75*
G02*
X-7749993Y80036671I0J225000D01*
G01*
G37*
G04 #@! TD*
D15*
G04 #@! TO.C,J4*
X61950000Y7425000D03*
X62750000Y7425000D03*
X63550000Y7425000D03*
X64350000Y7425000D03*
X65150000Y7425000D03*
D16*
X59150000Y7425000D03*
X59150000Y1925000D03*
X67950000Y7425000D03*
X67950000Y1925000D03*
G04 #@! TD*
G04 #@! TO.C,C18*
G36*
G01*
X-38100000Y85870000D02*
X-38100000Y86370000D01*
G75*
G02*
X-37875000Y86595000I225000J0D01*
G01*
X-37425000Y86595000D01*
G75*
G02*
X-37200000Y86370000I0J-225000D01*
G01*
X-37200000Y85870000D01*
G75*
G02*
X-37425000Y85645000I-225000J0D01*
G01*
X-37875000Y85645000D01*
G75*
G02*
X-38100000Y85870000I0J225000D01*
G01*
G37*
G36*
G01*
X-36550000Y85870000D02*
X-36550000Y86370000D01*
G75*
G02*
X-36325000Y86595000I225000J0D01*
G01*
X-35875000Y86595000D01*
G75*
G02*
X-35650000Y86370000I0J-225000D01*
G01*
X-35650000Y85870000D01*
G75*
G02*
X-35875000Y85645000I-225000J0D01*
G01*
X-36325000Y85645000D01*
G75*
G02*
X-36550000Y85870000I0J225000D01*
G01*
G37*
G04 #@! TD*
G04 #@! TO.C,R13*
G36*
G01*
X-17394993Y64251671D02*
X-17394993Y64621671D01*
G75*
G02*
X-17259993Y64756671I135000J0D01*
G01*
X-16989993Y64756671D01*
G75*
G02*
X-16854993Y64621671I0J-135000D01*
G01*
X-16854993Y64251671D01*
G75*
G02*
X-16989993Y64116671I-135000J0D01*
G01*
X-17259993Y64116671D01*
G75*
G02*
X-17394993Y64251671I0J135000D01*
G01*
G37*
G36*
G01*
X-16374993Y64251671D02*
X-16374993Y64621671D01*
G75*
G02*
X-16239993Y64756671I135000J0D01*
G01*
X-15969993Y64756671D01*
G75*
G02*
X-15834993Y64621671I0J-135000D01*
G01*
X-15834993Y64251671D01*
G75*
G02*
X-15969993Y64116671I-135000J0D01*
G01*
X-16239993Y64116671D01*
G75*
G02*
X-16374993Y64251671I0J135000D01*
G01*
G37*
G04 #@! TD*
G04 #@! TO.C,C8*
G36*
G01*
X-46120000Y85870000D02*
X-46120000Y86370000D01*
G75*
G02*
X-45895000Y86595000I225000J0D01*
G01*
X-45445000Y86595000D01*
G75*
G02*
X-45220000Y86370000I0J-225000D01*
G01*
X-45220000Y85870000D01*
G75*
G02*
X-45445000Y85645000I-225000J0D01*
G01*
X-45895000Y85645000D01*
G75*
G02*
X-46120000Y85870000I0J225000D01*
G01*
G37*
G36*
G01*
X-44570000Y85870000D02*
X-44570000Y86370000D01*
G75*
G02*
X-44345000Y86595000I225000J0D01*
G01*
X-43895000Y86595000D01*
G75*
G02*
X-43670000Y86370000I0J-225000D01*
G01*
X-43670000Y85870000D01*
G75*
G02*
X-43895000Y85645000I-225000J0D01*
G01*
X-44345000Y85645000D01*
G75*
G02*
X-44570000Y85870000I0J225000D01*
G01*
G37*
G04 #@! TD*
D17*
G04 #@! TO.C,M7*
X55500001Y11950003D03*
G04 #@! TD*
G04 #@! TO.C,L2*
G36*
G01*
X-9299993Y69990421D02*
X-9299993Y70502921D01*
G75*
G02*
X-9081243Y70721671I218750J0D01*
G01*
X-8643743Y70721671D01*
G75*
G02*
X-8424993Y70502921I0J-218750D01*
G01*
X-8424993Y69990421D01*
G75*
G02*
X-8643743Y69771671I-218750J0D01*
G01*
X-9081243Y69771671D01*
G75*
G02*
X-9299993Y69990421I0J218750D01*
G01*
G37*
G36*
G01*
X-7724993Y69990421D02*
X-7724993Y70502921D01*
G75*
G02*
X-7506243Y70721671I218750J0D01*
G01*
X-7068743Y70721671D01*
G75*
G02*
X-6849993Y70502921I0J-218750D01*
G01*
X-6849993Y69990421D01*
G75*
G02*
X-7068743Y69771671I-218750J0D01*
G01*
X-7506243Y69771671D01*
G75*
G02*
X-7724993Y69990421I0J218750D01*
G01*
G37*
G04 #@! TD*
G04 #@! TO.C,C16*
G36*
G01*
X-38100000Y90890000D02*
X-38100000Y91390000D01*
G75*
G02*
X-37875000Y91615000I225000J0D01*
G01*
X-37425000Y91615000D01*
G75*
G02*
X-37200000Y91390000I0J-225000D01*
G01*
X-37200000Y90890000D01*
G75*
G02*
X-37425000Y90665000I-225000J0D01*
G01*
X-37875000Y90665000D01*
G75*
G02*
X-38100000Y90890000I0J225000D01*
G01*
G37*
G36*
G01*
X-36550000Y90890000D02*
X-36550000Y91390000D01*
G75*
G02*
X-36325000Y91615000I225000J0D01*
G01*
X-35875000Y91615000D01*
G75*
G02*
X-35650000Y91390000I0J-225000D01*
G01*
X-35650000Y90890000D01*
G75*
G02*
X-35875000Y90665000I-225000J0D01*
G01*
X-36325000Y90665000D01*
G75*
G02*
X-36550000Y90890000I0J225000D01*
G01*
G37*
G04 #@! TD*
G04 #@! TO.C,L1*
G36*
G01*
X-9299993Y72500421D02*
X-9299993Y73012921D01*
G75*
G02*
X-9081243Y73231671I218750J0D01*
G01*
X-8643743Y73231671D01*
G75*
G02*
X-8424993Y73012921I0J-218750D01*
G01*
X-8424993Y72500421D01*
G75*
G02*
X-8643743Y72281671I-218750J0D01*
G01*
X-9081243Y72281671D01*
G75*
G02*
X-9299993Y72500421I0J218750D01*
G01*
G37*
G36*
G01*
X-7724993Y72500421D02*
X-7724993Y73012921D01*
G75*
G02*
X-7506243Y73231671I218750J0D01*
G01*
X-7068743Y73231671D01*
G75*
G02*
X-6849993Y73012921I0J-218750D01*
G01*
X-6849993Y72500421D01*
G75*
G02*
X-7068743Y72281671I-218750J0D01*
G01*
X-7506243Y72281671D01*
G75*
G02*
X-7724993Y72500421I0J218750D01*
G01*
G37*
G04 #@! TD*
G04 #@! TO.C,C7*
G36*
G01*
X-46120000Y88380000D02*
X-46120000Y88880000D01*
G75*
G02*
X-45895000Y89105000I225000J0D01*
G01*
X-45445000Y89105000D01*
G75*
G02*
X-45220000Y88880000I0J-225000D01*
G01*
X-45220000Y88380000D01*
G75*
G02*
X-45445000Y88155000I-225000J0D01*
G01*
X-45895000Y88155000D01*
G75*
G02*
X-46120000Y88380000I0J225000D01*
G01*
G37*
G36*
G01*
X-44570000Y88380000D02*
X-44570000Y88880000D01*
G75*
G02*
X-44345000Y89105000I225000J0D01*
G01*
X-43895000Y89105000D01*
G75*
G02*
X-43670000Y88880000I0J-225000D01*
G01*
X-43670000Y88380000D01*
G75*
G02*
X-43895000Y88155000I-225000J0D01*
G01*
X-44345000Y88155000D01*
G75*
G02*
X-44570000Y88380000I0J225000D01*
G01*
G37*
G04 #@! TD*
G04 #@! TO.C,C12*
G36*
G01*
X-42110000Y88380000D02*
X-42110000Y88880000D01*
G75*
G02*
X-41885000Y89105000I225000J0D01*
G01*
X-41435000Y89105000D01*
G75*
G02*
X-41210000Y88880000I0J-225000D01*
G01*
X-41210000Y88380000D01*
G75*
G02*
X-41435000Y88155000I-225000J0D01*
G01*
X-41885000Y88155000D01*
G75*
G02*
X-42110000Y88380000I0J225000D01*
G01*
G37*
G36*
G01*
X-40560000Y88380000D02*
X-40560000Y88880000D01*
G75*
G02*
X-40335000Y89105000I225000J0D01*
G01*
X-39885000Y89105000D01*
G75*
G02*
X-39660000Y88880000I0J-225000D01*
G01*
X-39660000Y88380000D01*
G75*
G02*
X-39885000Y88155000I-225000J0D01*
G01*
X-40335000Y88155000D01*
G75*
G02*
X-40560000Y88380000I0J225000D01*
G01*
G37*
G04 #@! TD*
G04 #@! TO.C,C11*
G36*
G01*
X-42110000Y90890000D02*
X-42110000Y91390000D01*
G75*
G02*
X-41885000Y91615000I225000J0D01*
G01*
X-41435000Y91615000D01*
G75*
G02*
X-41210000Y91390000I0J-225000D01*
G01*
X-41210000Y90890000D01*
G75*
G02*
X-41435000Y90665000I-225000J0D01*
G01*
X-41885000Y90665000D01*
G75*
G02*
X-42110000Y90890000I0J225000D01*
G01*
G37*
G36*
G01*
X-40560000Y90890000D02*
X-40560000Y91390000D01*
G75*
G02*
X-40335000Y91615000I225000J0D01*
G01*
X-39885000Y91615000D01*
G75*
G02*
X-39660000Y91390000I0J-225000D01*
G01*
X-39660000Y90890000D01*
G75*
G02*
X-39885000Y90665000I-225000J0D01*
G01*
X-40335000Y90665000D01*
G75*
G02*
X-40560000Y90890000I0J225000D01*
G01*
G37*
G04 #@! TD*
D12*
G04 #@! TO.C,IC6*
X119300000Y51090000D03*
X119300000Y49820000D03*
X119300000Y48550000D03*
X119300000Y47280000D03*
X124724000Y47280000D03*
X124724000Y48550000D03*
X124724000Y49820000D03*
X124724000Y51090000D03*
G04 #@! TD*
G04 #@! TO.C,R14*
G36*
G01*
X-17394993Y62261671D02*
X-17394993Y62631671D01*
G75*
G02*
X-17259993Y62766671I135000J0D01*
G01*
X-16989993Y62766671D01*
G75*
G02*
X-16854993Y62631671I0J-135000D01*
G01*
X-16854993Y62261671D01*
G75*
G02*
X-16989993Y62126671I-135000J0D01*
G01*
X-17259993Y62126671D01*
G75*
G02*
X-17394993Y62261671I0J135000D01*
G01*
G37*
G36*
G01*
X-16374993Y62261671D02*
X-16374993Y62631671D01*
G75*
G02*
X-16239993Y62766671I135000J0D01*
G01*
X-15969993Y62766671D01*
G75*
G02*
X-15834993Y62631671I0J-135000D01*
G01*
X-15834993Y62261671D01*
G75*
G02*
X-15969993Y62126671I-135000J0D01*
G01*
X-16239993Y62126671D01*
G75*
G02*
X-16374993Y62261671I0J135000D01*
G01*
G37*
G04 #@! TD*
G04 #@! TO.C,D6*
G36*
G01*
X-64369993Y40911671D02*
X-64369993Y41661671D01*
G75*
G02*
X-64144993Y41886671I225000J0D01*
G01*
X-63694993Y41886671D01*
G75*
G02*
X-63469993Y41661671I0J-225000D01*
G01*
X-63469993Y40911671D01*
G75*
G02*
X-63694993Y40686671I-225000J0D01*
G01*
X-64144993Y40686671D01*
G75*
G02*
X-64369993Y40911671I0J225000D01*
G01*
G37*
G36*
G01*
X-61069993Y40911671D02*
X-61069993Y41661671D01*
G75*
G02*
X-60844993Y41886671I225000J0D01*
G01*
X-60394993Y41886671D01*
G75*
G02*
X-60169993Y41661671I0J-225000D01*
G01*
X-60169993Y40911671D01*
G75*
G02*
X-60394993Y40686671I-225000J0D01*
G01*
X-60844993Y40686671D01*
G75*
G02*
X-61069993Y40911671I0J225000D01*
G01*
G37*
G04 #@! TD*
G04 #@! TO.C,C5*
G36*
G01*
X-9299993Y75016671D02*
X-9299993Y75516671D01*
G75*
G02*
X-9074993Y75741671I225000J0D01*
G01*
X-8624993Y75741671D01*
G75*
G02*
X-8399993Y75516671I0J-225000D01*
G01*
X-8399993Y75016671D01*
G75*
G02*
X-8624993Y74791671I-225000J0D01*
G01*
X-9074993Y74791671D01*
G75*
G02*
X-9299993Y75016671I0J225000D01*
G01*
G37*
G36*
G01*
X-7749993Y75016671D02*
X-7749993Y75516671D01*
G75*
G02*
X-7524993Y75741671I225000J0D01*
G01*
X-7074993Y75741671D01*
G75*
G02*
X-6849993Y75516671I0J-225000D01*
G01*
X-6849993Y75016671D01*
G75*
G02*
X-7074993Y74791671I-225000J0D01*
G01*
X-7524993Y74791671D01*
G75*
G02*
X-7749993Y75016671I0J225000D01*
G01*
G37*
G04 #@! TD*
G04 #@! TO.C,R10*
G36*
G01*
X-20304993Y60271671D02*
X-20304993Y60641671D01*
G75*
G02*
X-20169993Y60776671I135000J0D01*
G01*
X-19899993Y60776671D01*
G75*
G02*
X-19764993Y60641671I0J-135000D01*
G01*
X-19764993Y60271671D01*
G75*
G02*
X-19899993Y60136671I-135000J0D01*
G01*
X-20169993Y60136671D01*
G75*
G02*
X-20304993Y60271671I0J135000D01*
G01*
G37*
G36*
G01*
X-19284993Y60271671D02*
X-19284993Y60641671D01*
G75*
G02*
X-19149993Y60776671I135000J0D01*
G01*
X-18879993Y60776671D01*
G75*
G02*
X-18744993Y60641671I0J-135000D01*
G01*
X-18744993Y60271671D01*
G75*
G02*
X-18879993Y60136671I-135000J0D01*
G01*
X-19149993Y60136671D01*
G75*
G02*
X-19284993Y60271671I0J135000D01*
G01*
G37*
G04 #@! TD*
G04 #@! TO.C,C6*
G36*
G01*
X-46120000Y90890000D02*
X-46120000Y91390000D01*
G75*
G02*
X-45895000Y91615000I225000J0D01*
G01*
X-45445000Y91615000D01*
G75*
G02*
X-45220000Y91390000I0J-225000D01*
G01*
X-45220000Y90890000D01*
G75*
G02*
X-45445000Y90665000I-225000J0D01*
G01*
X-45895000Y90665000D01*
G75*
G02*
X-46120000Y90890000I0J225000D01*
G01*
G37*
G36*
G01*
X-44570000Y90890000D02*
X-44570000Y91390000D01*
G75*
G02*
X-44345000Y91615000I225000J0D01*
G01*
X-43895000Y91615000D01*
G75*
G02*
X-43670000Y91390000I0J-225000D01*
G01*
X-43670000Y90890000D01*
G75*
G02*
X-43895000Y90665000I-225000J0D01*
G01*
X-44345000Y90665000D01*
G75*
G02*
X-44570000Y90890000I0J225000D01*
G01*
G37*
G04 #@! TD*
G04 #@! TO.C,IC1*
X106027993Y78308329D03*
X106027993Y77038329D03*
X106027993Y75768329D03*
X106027993Y74498329D03*
X111451993Y74498329D03*
X111451993Y75768329D03*
X111451993Y77038329D03*
X111451993Y78308329D03*
G04 #@! TD*
G04 #@! TO.C,D5*
G36*
G01*
X-58880014Y19122763D02*
X-58880014Y19347763D01*
G75*
G02*
X-58767514Y19460263I112500J0D01*
G01*
X-58392514Y19460263D01*
G75*
G02*
X-58280014Y19347763I0J-112500D01*
G01*
X-58280014Y19122763D01*
G75*
G02*
X-58392514Y19010263I-112500J0D01*
G01*
X-58767514Y19010263D01*
G75*
G02*
X-58880014Y19122763I0J112500D01*
G01*
G37*
G36*
G01*
X-56780014Y19122763D02*
X-56780014Y19347763D01*
G75*
G02*
X-56667514Y19460263I112500J0D01*
G01*
X-56292514Y19460263D01*
G75*
G02*
X-56180014Y19347763I0J-112500D01*
G01*
X-56180014Y19122763D01*
G75*
G02*
X-56292514Y19010263I-112500J0D01*
G01*
X-56667514Y19010263D01*
G75*
G02*
X-56780014Y19122763I0J112500D01*
G01*
G37*
G04 #@! TD*
G04 #@! TO.C,D8*
G36*
G01*
X-64369993Y34211671D02*
X-64369993Y34961671D01*
G75*
G02*
X-64144993Y35186671I225000J0D01*
G01*
X-63694993Y35186671D01*
G75*
G02*
X-63469993Y34961671I0J-225000D01*
G01*
X-63469993Y34211671D01*
G75*
G02*
X-63694993Y33986671I-225000J0D01*
G01*
X-64144993Y33986671D01*
G75*
G02*
X-64369993Y34211671I0J225000D01*
G01*
G37*
G36*
G01*
X-61069993Y34211671D02*
X-61069993Y34961671D01*
G75*
G02*
X-60844993Y35186671I225000J0D01*
G01*
X-60394993Y35186671D01*
G75*
G02*
X-60169993Y34961671I0J-225000D01*
G01*
X-60169993Y34211671D01*
G75*
G02*
X-60394993Y33986671I-225000J0D01*
G01*
X-60844993Y33986671D01*
G75*
G02*
X-61069993Y34211671I0J225000D01*
G01*
G37*
G04 #@! TD*
G04 #@! TO.C,R11*
G36*
G01*
X-17394993Y68231671D02*
X-17394993Y68601671D01*
G75*
G02*
X-17259993Y68736671I135000J0D01*
G01*
X-16989993Y68736671D01*
G75*
G02*
X-16854993Y68601671I0J-135000D01*
G01*
X-16854993Y68231671D01*
G75*
G02*
X-16989993Y68096671I-135000J0D01*
G01*
X-17259993Y68096671D01*
G75*
G02*
X-17394993Y68231671I0J135000D01*
G01*
G37*
G36*
G01*
X-16374993Y68231671D02*
X-16374993Y68601671D01*
G75*
G02*
X-16239993Y68736671I135000J0D01*
G01*
X-15969993Y68736671D01*
G75*
G02*
X-15834993Y68601671I0J-135000D01*
G01*
X-15834993Y68231671D01*
G75*
G02*
X-15969993Y68096671I-135000J0D01*
G01*
X-16239993Y68096671D01*
G75*
G02*
X-16374993Y68231671I0J135000D01*
G01*
G37*
G04 #@! TD*
G04 #@! TO.C,C15*
G36*
G01*
X-42110000Y80850000D02*
X-42110000Y81350000D01*
G75*
G02*
X-41885000Y81575000I225000J0D01*
G01*
X-41435000Y81575000D01*
G75*
G02*
X-41210000Y81350000I0J-225000D01*
G01*
X-41210000Y80850000D01*
G75*
G02*
X-41435000Y80625000I-225000J0D01*
G01*
X-41885000Y80625000D01*
G75*
G02*
X-42110000Y80850000I0J225000D01*
G01*
G37*
G36*
G01*
X-40560000Y80850000D02*
X-40560000Y81350000D01*
G75*
G02*
X-40335000Y81575000I225000J0D01*
G01*
X-39885000Y81575000D01*
G75*
G02*
X-39660000Y81350000I0J-225000D01*
G01*
X-39660000Y80850000D01*
G75*
G02*
X-39885000Y80625000I-225000J0D01*
G01*
X-40335000Y80625000D01*
G75*
G02*
X-40560000Y80850000I0J225000D01*
G01*
G37*
G04 #@! TD*
M02*
