G04 #@! TF.GenerationSoftware,KiCad,Pcbnew,8.0.9-8.0.9-0~ubuntu24.04.1*
G04 #@! TF.CreationDate,2025-06-27T01:28:59+00:00*
G04 #@! TF.ProjectId,EP91Starlet,45503931-5374-4617-926c-65742e6b6963,rev?*
G04 #@! TF.SameCoordinates,Original*
G04 #@! TF.FileFunction,Paste,Top*
G04 #@! TF.FilePolarity,Positive*
%FSLAX46Y46*%
G04 Gerber Fmt 4.6, Leading zero omitted, Abs format (unit mm)*
G04 Created by KiCad (PCBNEW 8.0.9-8.0.9-0~ubuntu24.04.1) date 2025-06-27 01:28:59*
%MOMM*%
%LPD*%
G01*
G04 APERTURE LIST*
G04 APERTURE END LIST*
G04 #@! TO.C,D1*
G36*
G01*
X16920000Y46916000D02*
X16920000Y45896000D01*
G75*
G02*
X16830000Y45806000I-90000J0D01*
G01*
X16110000Y45806000D01*
G75*
G02*
X16020000Y45896000I0J90000D01*
G01*
X16020000Y46916000D01*
G75*
G02*
X16110000Y47006000I90000J0D01*
G01*
X16830000Y47006000D01*
G75*
G02*
X16920000Y46916000I0J-90000D01*
G01*
G37*
G36*
G01*
X13620000Y46916000D02*
X13620000Y45896000D01*
G75*
G02*
X13530000Y45806000I-90000J0D01*
G01*
X12810000Y45806000D01*
G75*
G02*
X12720000Y45896000I0J90000D01*
G01*
X12720000Y46916000D01*
G75*
G02*
X12810000Y47006000I90000J0D01*
G01*
X13530000Y47006000D01*
G75*
G02*
X13620000Y46916000I0J-90000D01*
G01*
G37*
G04 #@! TD*
G04 #@! TO.C,U5*
G36*
G01*
X4829000Y54384000D02*
X4829000Y54684000D01*
G75*
G02*
X4979000Y54834000I150000J0D01*
G01*
X6629000Y54834000D01*
G75*
G02*
X6779000Y54684000I0J-150000D01*
G01*
X6779000Y54384000D01*
G75*
G02*
X6629000Y54234000I-150000J0D01*
G01*
X4979000Y54234000D01*
G75*
G02*
X4829000Y54384000I0J150000D01*
G01*
G37*
G36*
G01*
X4829000Y53114000D02*
X4829000Y53414000D01*
G75*
G02*
X4979000Y53564000I150000J0D01*
G01*
X6629000Y53564000D01*
G75*
G02*
X6779000Y53414000I0J-150000D01*
G01*
X6779000Y53114000D01*
G75*
G02*
X6629000Y52964000I-150000J0D01*
G01*
X4979000Y52964000D01*
G75*
G02*
X4829000Y53114000I0J150000D01*
G01*
G37*
G36*
G01*
X4829000Y51844000D02*
X4829000Y52144000D01*
G75*
G02*
X4979000Y52294000I150000J0D01*
G01*
X6629000Y52294000D01*
G75*
G02*
X6779000Y52144000I0J-150000D01*
G01*
X6779000Y51844000D01*
G75*
G02*
X6629000Y51694000I-150000J0D01*
G01*
X4979000Y51694000D01*
G75*
G02*
X4829000Y51844000I0J150000D01*
G01*
G37*
G36*
G01*
X4829000Y50574000D02*
X4829000Y50874000D01*
G75*
G02*
X4979000Y51024000I150000J0D01*
G01*
X6629000Y51024000D01*
G75*
G02*
X6779000Y50874000I0J-150000D01*
G01*
X6779000Y50574000D01*
G75*
G02*
X6629000Y50424000I-150000J0D01*
G01*
X4979000Y50424000D01*
G75*
G02*
X4829000Y50574000I0J150000D01*
G01*
G37*
G36*
G01*
X9779000Y50574000D02*
X9779000Y50874000D01*
G75*
G02*
X9929000Y51024000I150000J0D01*
G01*
X11579000Y51024000D01*
G75*
G02*
X11729000Y50874000I0J-150000D01*
G01*
X11729000Y50574000D01*
G75*
G02*
X11579000Y50424000I-150000J0D01*
G01*
X9929000Y50424000D01*
G75*
G02*
X9779000Y50574000I0J150000D01*
G01*
G37*
G36*
G01*
X9779000Y51844000D02*
X9779000Y52144000D01*
G75*
G02*
X9929000Y52294000I150000J0D01*
G01*
X11579000Y52294000D01*
G75*
G02*
X11729000Y52144000I0J-150000D01*
G01*
X11729000Y51844000D01*
G75*
G02*
X11579000Y51694000I-150000J0D01*
G01*
X9929000Y51694000D01*
G75*
G02*
X9779000Y51844000I0J150000D01*
G01*
G37*
G36*
G01*
X9779000Y53114000D02*
X9779000Y53414000D01*
G75*
G02*
X9929000Y53564000I150000J0D01*
G01*
X11579000Y53564000D01*
G75*
G02*
X11729000Y53414000I0J-150000D01*
G01*
X11729000Y53114000D01*
G75*
G02*
X11579000Y52964000I-150000J0D01*
G01*
X9929000Y52964000D01*
G75*
G02*
X9779000Y53114000I0J150000D01*
G01*
G37*
G36*
G01*
X9779000Y54384000D02*
X9779000Y54684000D01*
G75*
G02*
X9929000Y54834000I150000J0D01*
G01*
X11579000Y54834000D01*
G75*
G02*
X11729000Y54684000I0J-150000D01*
G01*
X11729000Y54384000D01*
G75*
G02*
X11579000Y54234000I-150000J0D01*
G01*
X9929000Y54234000D01*
G75*
G02*
X9779000Y54384000I0J150000D01*
G01*
G37*
G04 #@! TD*
G04 #@! TO.C,Q2*
G36*
G01*
X82774000Y68724000D02*
X82074000Y68724000D01*
G75*
G02*
X81824000Y68974000I0J250000D01*
G01*
X81824000Y70674000D01*
G75*
G02*
X82074000Y70924000I250000J0D01*
G01*
X82774000Y70924000D01*
G75*
G02*
X83024000Y70674000I0J-250000D01*
G01*
X83024000Y68974000D01*
G75*
G02*
X82774000Y68724000I-250000J0D01*
G01*
G37*
G36*
G01*
X84304000Y72924000D02*
X82054000Y72924000D01*
G75*
G02*
X81804000Y73174000I0J250000D01*
G01*
X81804000Y75724000D01*
G75*
G02*
X82054000Y75974000I250000J0D01*
G01*
X84304000Y75974000D01*
G75*
G02*
X84554000Y75724000I0J-250000D01*
G01*
X84554000Y73174000D01*
G75*
G02*
X84304000Y72924000I-250000J0D01*
G01*
G37*
G36*
G01*
X87354000Y72924000D02*
X85104000Y72924000D01*
G75*
G02*
X84854000Y73174000I0J250000D01*
G01*
X84854000Y75724000D01*
G75*
G02*
X85104000Y75974000I250000J0D01*
G01*
X87354000Y75974000D01*
G75*
G02*
X87604000Y75724000I0J-250000D01*
G01*
X87604000Y73174000D01*
G75*
G02*
X87354000Y72924000I-250000J0D01*
G01*
G37*
G36*
G01*
X84304000Y76274000D02*
X82054000Y76274000D01*
G75*
G02*
X81804000Y76524000I0J250000D01*
G01*
X81804000Y79074000D01*
G75*
G02*
X82054000Y79324000I250000J0D01*
G01*
X84304000Y79324000D01*
G75*
G02*
X84554000Y79074000I0J-250000D01*
G01*
X84554000Y76524000D01*
G75*
G02*
X84304000Y76274000I-250000J0D01*
G01*
G37*
G36*
G01*
X87354000Y76274000D02*
X85104000Y76274000D01*
G75*
G02*
X84854000Y76524000I0J250000D01*
G01*
X84854000Y79074000D01*
G75*
G02*
X85104000Y79324000I250000J0D01*
G01*
X87354000Y79324000D01*
G75*
G02*
X87604000Y79074000I0J-250000D01*
G01*
X87604000Y76524000D01*
G75*
G02*
X87354000Y76274000I-250000J0D01*
G01*
G37*
G36*
G01*
X87334000Y68724000D02*
X86634000Y68724000D01*
G75*
G02*
X86384000Y68974000I0J250000D01*
G01*
X86384000Y70674000D01*
G75*
G02*
X86634000Y70924000I250000J0D01*
G01*
X87334000Y70924000D01*
G75*
G02*
X87584000Y70674000I0J-250000D01*
G01*
X87584000Y68974000D01*
G75*
G02*
X87334000Y68724000I-250000J0D01*
G01*
G37*
G04 #@! TD*
G04 #@! TO.C,R5*
G36*
G01*
X1314000Y51604000D02*
X1314000Y52384000D01*
G75*
G02*
X1384000Y52454000I70000J0D01*
G01*
X1944000Y52454000D01*
G75*
G02*
X2014000Y52384000I0J-70000D01*
G01*
X2014000Y51604000D01*
G75*
G02*
X1944000Y51534000I-70000J0D01*
G01*
X1384000Y51534000D01*
G75*
G02*
X1314000Y51604000I0J70000D01*
G01*
G37*
G36*
G01*
X2914000Y51604000D02*
X2914000Y52384000D01*
G75*
G02*
X2984000Y52454000I70000J0D01*
G01*
X3544000Y52454000D01*
G75*
G02*
X3614000Y52384000I0J-70000D01*
G01*
X3614000Y51604000D01*
G75*
G02*
X3544000Y51534000I-70000J0D01*
G01*
X2984000Y51534000D01*
G75*
G02*
X2914000Y51604000I0J70000D01*
G01*
G37*
G04 #@! TD*
G04 #@! TO.C,D2*
G36*
G01*
X16920000Y44376000D02*
X16920000Y43356000D01*
G75*
G02*
X16830000Y43266000I-90000J0D01*
G01*
X16110000Y43266000D01*
G75*
G02*
X16020000Y43356000I0J90000D01*
G01*
X16020000Y44376000D01*
G75*
G02*
X16110000Y44466000I90000J0D01*
G01*
X16830000Y44466000D01*
G75*
G02*
X16920000Y44376000I0J-90000D01*
G01*
G37*
G36*
G01*
X13620000Y44376000D02*
X13620000Y43356000D01*
G75*
G02*
X13530000Y43266000I-90000J0D01*
G01*
X12810000Y43266000D01*
G75*
G02*
X12720000Y43356000I0J90000D01*
G01*
X12720000Y44376000D01*
G75*
G02*
X12810000Y44466000I90000J0D01*
G01*
X13530000Y44466000D01*
G75*
G02*
X13620000Y44376000I0J-90000D01*
G01*
G37*
G04 #@! TD*
G04 #@! TO.C,R8*
G36*
G01*
X1314000Y46016000D02*
X1314000Y46796000D01*
G75*
G02*
X1384000Y46866000I70000J0D01*
G01*
X1944000Y46866000D01*
G75*
G02*
X2014000Y46796000I0J-70000D01*
G01*
X2014000Y46016000D01*
G75*
G02*
X1944000Y45946000I-70000J0D01*
G01*
X1384000Y45946000D01*
G75*
G02*
X1314000Y46016000I0J70000D01*
G01*
G37*
G36*
G01*
X2914000Y46016000D02*
X2914000Y46796000D01*
G75*
G02*
X2984000Y46866000I70000J0D01*
G01*
X3544000Y46866000D01*
G75*
G02*
X3614000Y46796000I0J-70000D01*
G01*
X3614000Y46016000D01*
G75*
G02*
X3544000Y45946000I-70000J0D01*
G01*
X2984000Y45946000D01*
G75*
G02*
X2914000Y46016000I0J70000D01*
G01*
G37*
G04 #@! TD*
G04 #@! TO.C,Q3*
G36*
G01*
X72774000Y68724000D02*
X72074000Y68724000D01*
G75*
G02*
X71824000Y68974000I0J250000D01*
G01*
X71824000Y70674000D01*
G75*
G02*
X72074000Y70924000I250000J0D01*
G01*
X72774000Y70924000D01*
G75*
G02*
X73024000Y70674000I0J-250000D01*
G01*
X73024000Y68974000D01*
G75*
G02*
X72774000Y68724000I-250000J0D01*
G01*
G37*
G36*
G01*
X74304000Y72924000D02*
X72054000Y72924000D01*
G75*
G02*
X71804000Y73174000I0J250000D01*
G01*
X71804000Y75724000D01*
G75*
G02*
X72054000Y75974000I250000J0D01*
G01*
X74304000Y75974000D01*
G75*
G02*
X74554000Y75724000I0J-250000D01*
G01*
X74554000Y73174000D01*
G75*
G02*
X74304000Y72924000I-250000J0D01*
G01*
G37*
G36*
G01*
X77354000Y72924000D02*
X75104000Y72924000D01*
G75*
G02*
X74854000Y73174000I0J250000D01*
G01*
X74854000Y75724000D01*
G75*
G02*
X75104000Y75974000I250000J0D01*
G01*
X77354000Y75974000D01*
G75*
G02*
X77604000Y75724000I0J-250000D01*
G01*
X77604000Y73174000D01*
G75*
G02*
X77354000Y72924000I-250000J0D01*
G01*
G37*
G36*
G01*
X74304000Y76274000D02*
X72054000Y76274000D01*
G75*
G02*
X71804000Y76524000I0J250000D01*
G01*
X71804000Y79074000D01*
G75*
G02*
X72054000Y79324000I250000J0D01*
G01*
X74304000Y79324000D01*
G75*
G02*
X74554000Y79074000I0J-250000D01*
G01*
X74554000Y76524000D01*
G75*
G02*
X74304000Y76274000I-250000J0D01*
G01*
G37*
G36*
G01*
X77354000Y76274000D02*
X75104000Y76274000D01*
G75*
G02*
X74854000Y76524000I0J250000D01*
G01*
X74854000Y79074000D01*
G75*
G02*
X75104000Y79324000I250000J0D01*
G01*
X77354000Y79324000D01*
G75*
G02*
X77604000Y79074000I0J-250000D01*
G01*
X77604000Y76524000D01*
G75*
G02*
X77354000Y76274000I-250000J0D01*
G01*
G37*
G36*
G01*
X77334000Y68724000D02*
X76634000Y68724000D01*
G75*
G02*
X76384000Y68974000I0J250000D01*
G01*
X76384000Y70674000D01*
G75*
G02*
X76634000Y70924000I250000J0D01*
G01*
X77334000Y70924000D01*
G75*
G02*
X77584000Y70674000I0J-250000D01*
G01*
X77584000Y68974000D01*
G75*
G02*
X77334000Y68724000I-250000J0D01*
G01*
G37*
G04 #@! TD*
G04 #@! TO.C,R6*
G36*
G01*
X1314000Y43222000D02*
X1314000Y44002000D01*
G75*
G02*
X1384000Y44072000I70000J0D01*
G01*
X1944000Y44072000D01*
G75*
G02*
X2014000Y44002000I0J-70000D01*
G01*
X2014000Y43222000D01*
G75*
G02*
X1944000Y43152000I-70000J0D01*
G01*
X1384000Y43152000D01*
G75*
G02*
X1314000Y43222000I0J70000D01*
G01*
G37*
G36*
G01*
X2914000Y43222000D02*
X2914000Y44002000D01*
G75*
G02*
X2984000Y44072000I70000J0D01*
G01*
X3544000Y44072000D01*
G75*
G02*
X3614000Y44002000I0J-70000D01*
G01*
X3614000Y43222000D01*
G75*
G02*
X3544000Y43152000I-70000J0D01*
G01*
X2984000Y43152000D01*
G75*
G02*
X2914000Y43222000I0J70000D01*
G01*
G37*
G04 #@! TD*
G04 #@! TO.C,R7*
G36*
G01*
X1314000Y54144000D02*
X1314000Y54924000D01*
G75*
G02*
X1384000Y54994000I70000J0D01*
G01*
X1944000Y54994000D01*
G75*
G02*
X2014000Y54924000I0J-70000D01*
G01*
X2014000Y54144000D01*
G75*
G02*
X1944000Y54074000I-70000J0D01*
G01*
X1384000Y54074000D01*
G75*
G02*
X1314000Y54144000I0J70000D01*
G01*
G37*
G36*
G01*
X2914000Y54144000D02*
X2914000Y54924000D01*
G75*
G02*
X2984000Y54994000I70000J0D01*
G01*
X3544000Y54994000D01*
G75*
G02*
X3614000Y54924000I0J-70000D01*
G01*
X3614000Y54144000D01*
G75*
G02*
X3544000Y54074000I-70000J0D01*
G01*
X2984000Y54074000D01*
G75*
G02*
X2914000Y54144000I0J70000D01*
G01*
G37*
G04 #@! TD*
G04 #@! TO.C,Q1*
G36*
G01*
X92774000Y68724000D02*
X92074000Y68724000D01*
G75*
G02*
X91824000Y68974000I0J250000D01*
G01*
X91824000Y70674000D01*
G75*
G02*
X92074000Y70924000I250000J0D01*
G01*
X92774000Y70924000D01*
G75*
G02*
X93024000Y70674000I0J-250000D01*
G01*
X93024000Y68974000D01*
G75*
G02*
X92774000Y68724000I-250000J0D01*
G01*
G37*
G36*
G01*
X94304000Y72924000D02*
X92054000Y72924000D01*
G75*
G02*
X91804000Y73174000I0J250000D01*
G01*
X91804000Y75724000D01*
G75*
G02*
X92054000Y75974000I250000J0D01*
G01*
X94304000Y75974000D01*
G75*
G02*
X94554000Y75724000I0J-250000D01*
G01*
X94554000Y73174000D01*
G75*
G02*
X94304000Y72924000I-250000J0D01*
G01*
G37*
G36*
G01*
X97354000Y72924000D02*
X95104000Y72924000D01*
G75*
G02*
X94854000Y73174000I0J250000D01*
G01*
X94854000Y75724000D01*
G75*
G02*
X95104000Y75974000I250000J0D01*
G01*
X97354000Y75974000D01*
G75*
G02*
X97604000Y75724000I0J-250000D01*
G01*
X97604000Y73174000D01*
G75*
G02*
X97354000Y72924000I-250000J0D01*
G01*
G37*
G36*
G01*
X94304000Y76274000D02*
X92054000Y76274000D01*
G75*
G02*
X91804000Y76524000I0J250000D01*
G01*
X91804000Y79074000D01*
G75*
G02*
X92054000Y79324000I250000J0D01*
G01*
X94304000Y79324000D01*
G75*
G02*
X94554000Y79074000I0J-250000D01*
G01*
X94554000Y76524000D01*
G75*
G02*
X94304000Y76274000I-250000J0D01*
G01*
G37*
G36*
G01*
X97354000Y76274000D02*
X95104000Y76274000D01*
G75*
G02*
X94854000Y76524000I0J250000D01*
G01*
X94854000Y79074000D01*
G75*
G02*
X95104000Y79324000I250000J0D01*
G01*
X97354000Y79324000D01*
G75*
G02*
X97604000Y79074000I0J-250000D01*
G01*
X97604000Y76524000D01*
G75*
G02*
X97354000Y76274000I-250000J0D01*
G01*
G37*
G36*
G01*
X97334000Y68724000D02*
X96634000Y68724000D01*
G75*
G02*
X96384000Y68974000I0J250000D01*
G01*
X96384000Y70674000D01*
G75*
G02*
X96634000Y70924000I250000J0D01*
G01*
X97334000Y70924000D01*
G75*
G02*
X97584000Y70674000I0J-250000D01*
G01*
X97584000Y68974000D01*
G75*
G02*
X97334000Y68724000I-250000J0D01*
G01*
G37*
G04 #@! TD*
G04 #@! TO.C,U4*
G36*
G01*
X4705000Y46256000D02*
X4705000Y46556000D01*
G75*
G02*
X4855000Y46706000I150000J0D01*
G01*
X6505000Y46706000D01*
G75*
G02*
X6655000Y46556000I0J-150000D01*
G01*
X6655000Y46256000D01*
G75*
G02*
X6505000Y46106000I-150000J0D01*
G01*
X4855000Y46106000D01*
G75*
G02*
X4705000Y46256000I0J150000D01*
G01*
G37*
G36*
G01*
X4705000Y44986000D02*
X4705000Y45286000D01*
G75*
G02*
X4855000Y45436000I150000J0D01*
G01*
X6505000Y45436000D01*
G75*
G02*
X6655000Y45286000I0J-150000D01*
G01*
X6655000Y44986000D01*
G75*
G02*
X6505000Y44836000I-150000J0D01*
G01*
X4855000Y44836000D01*
G75*
G02*
X4705000Y44986000I0J150000D01*
G01*
G37*
G36*
G01*
X4705000Y43716000D02*
X4705000Y44016000D01*
G75*
G02*
X4855000Y44166000I150000J0D01*
G01*
X6505000Y44166000D01*
G75*
G02*
X6655000Y44016000I0J-150000D01*
G01*
X6655000Y43716000D01*
G75*
G02*
X6505000Y43566000I-150000J0D01*
G01*
X4855000Y43566000D01*
G75*
G02*
X4705000Y43716000I0J150000D01*
G01*
G37*
G36*
G01*
X4705000Y42446000D02*
X4705000Y42746000D01*
G75*
G02*
X4855000Y42896000I150000J0D01*
G01*
X6505000Y42896000D01*
G75*
G02*
X6655000Y42746000I0J-150000D01*
G01*
X6655000Y42446000D01*
G75*
G02*
X6505000Y42296000I-150000J0D01*
G01*
X4855000Y42296000D01*
G75*
G02*
X4705000Y42446000I0J150000D01*
G01*
G37*
G36*
G01*
X9655000Y42446000D02*
X9655000Y42746000D01*
G75*
G02*
X9805000Y42896000I150000J0D01*
G01*
X11455000Y42896000D01*
G75*
G02*
X11605000Y42746000I0J-150000D01*
G01*
X11605000Y42446000D01*
G75*
G02*
X11455000Y42296000I-150000J0D01*
G01*
X9805000Y42296000D01*
G75*
G02*
X9655000Y42446000I0J150000D01*
G01*
G37*
G36*
G01*
X9655000Y43716000D02*
X9655000Y44016000D01*
G75*
G02*
X9805000Y44166000I150000J0D01*
G01*
X11455000Y44166000D01*
G75*
G02*
X11605000Y44016000I0J-150000D01*
G01*
X11605000Y43716000D01*
G75*
G02*
X11455000Y43566000I-150000J0D01*
G01*
X9805000Y43566000D01*
G75*
G02*
X9655000Y43716000I0J150000D01*
G01*
G37*
G36*
G01*
X9655000Y44986000D02*
X9655000Y45286000D01*
G75*
G02*
X9805000Y45436000I150000J0D01*
G01*
X11455000Y45436000D01*
G75*
G02*
X11605000Y45286000I0J-150000D01*
G01*
X11605000Y44986000D01*
G75*
G02*
X11455000Y44836000I-150000J0D01*
G01*
X9805000Y44836000D01*
G75*
G02*
X9655000Y44986000I0J150000D01*
G01*
G37*
G36*
G01*
X9655000Y46256000D02*
X9655000Y46556000D01*
G75*
G02*
X9805000Y46706000I150000J0D01*
G01*
X11455000Y46706000D01*
G75*
G02*
X11605000Y46556000I0J-150000D01*
G01*
X11605000Y46256000D01*
G75*
G02*
X11455000Y46106000I-150000J0D01*
G01*
X9805000Y46106000D01*
G75*
G02*
X9655000Y46256000I0J150000D01*
G01*
G37*
G04 #@! TD*
G04 #@! TO.C,D3*
G36*
G01*
X16920000Y55044000D02*
X16920000Y54024000D01*
G75*
G02*
X16830000Y53934000I-90000J0D01*
G01*
X16110000Y53934000D01*
G75*
G02*
X16020000Y54024000I0J90000D01*
G01*
X16020000Y55044000D01*
G75*
G02*
X16110000Y55134000I90000J0D01*
G01*
X16830000Y55134000D01*
G75*
G02*
X16920000Y55044000I0J-90000D01*
G01*
G37*
G36*
G01*
X13620000Y55044000D02*
X13620000Y54024000D01*
G75*
G02*
X13530000Y53934000I-90000J0D01*
G01*
X12810000Y53934000D01*
G75*
G02*
X12720000Y54024000I0J90000D01*
G01*
X12720000Y55044000D01*
G75*
G02*
X12810000Y55134000I90000J0D01*
G01*
X13530000Y55134000D01*
G75*
G02*
X13620000Y55044000I0J-90000D01*
G01*
G37*
G04 #@! TD*
G04 #@! TO.C,D4*
G36*
G01*
X16920000Y52504000D02*
X16920000Y51484000D01*
G75*
G02*
X16830000Y51394000I-90000J0D01*
G01*
X16110000Y51394000D01*
G75*
G02*
X16020000Y51484000I0J90000D01*
G01*
X16020000Y52504000D01*
G75*
G02*
X16110000Y52594000I90000J0D01*
G01*
X16830000Y52594000D01*
G75*
G02*
X16920000Y52504000I0J-90000D01*
G01*
G37*
G36*
G01*
X13620000Y52504000D02*
X13620000Y51484000D01*
G75*
G02*
X13530000Y51394000I-90000J0D01*
G01*
X12810000Y51394000D01*
G75*
G02*
X12720000Y51484000I0J90000D01*
G01*
X12720000Y52504000D01*
G75*
G02*
X12810000Y52594000I90000J0D01*
G01*
X13530000Y52594000D01*
G75*
G02*
X13620000Y52504000I0J-90000D01*
G01*
G37*
G04 #@! TD*
G04 #@! TO.C,Q4*
G36*
G01*
X62774000Y68724000D02*
X62074000Y68724000D01*
G75*
G02*
X61824000Y68974000I0J250000D01*
G01*
X61824000Y70674000D01*
G75*
G02*
X62074000Y70924000I250000J0D01*
G01*
X62774000Y70924000D01*
G75*
G02*
X63024000Y70674000I0J-250000D01*
G01*
X63024000Y68974000D01*
G75*
G02*
X62774000Y68724000I-250000J0D01*
G01*
G37*
G36*
G01*
X64304000Y72924000D02*
X62054000Y72924000D01*
G75*
G02*
X61804000Y73174000I0J250000D01*
G01*
X61804000Y75724000D01*
G75*
G02*
X62054000Y75974000I250000J0D01*
G01*
X64304000Y75974000D01*
G75*
G02*
X64554000Y75724000I0J-250000D01*
G01*
X64554000Y73174000D01*
G75*
G02*
X64304000Y72924000I-250000J0D01*
G01*
G37*
G36*
G01*
X67354000Y72924000D02*
X65104000Y72924000D01*
G75*
G02*
X64854000Y73174000I0J250000D01*
G01*
X64854000Y75724000D01*
G75*
G02*
X65104000Y75974000I250000J0D01*
G01*
X67354000Y75974000D01*
G75*
G02*
X67604000Y75724000I0J-250000D01*
G01*
X67604000Y73174000D01*
G75*
G02*
X67354000Y72924000I-250000J0D01*
G01*
G37*
G36*
G01*
X64304000Y76274000D02*
X62054000Y76274000D01*
G75*
G02*
X61804000Y76524000I0J250000D01*
G01*
X61804000Y79074000D01*
G75*
G02*
X62054000Y79324000I250000J0D01*
G01*
X64304000Y79324000D01*
G75*
G02*
X64554000Y79074000I0J-250000D01*
G01*
X64554000Y76524000D01*
G75*
G02*
X64304000Y76274000I-250000J0D01*
G01*
G37*
G36*
G01*
X67354000Y76274000D02*
X65104000Y76274000D01*
G75*
G02*
X64854000Y76524000I0J250000D01*
G01*
X64854000Y79074000D01*
G75*
G02*
X65104000Y79324000I250000J0D01*
G01*
X67354000Y79324000D01*
G75*
G02*
X67604000Y79074000I0J-250000D01*
G01*
X67604000Y76524000D01*
G75*
G02*
X67354000Y76274000I-250000J0D01*
G01*
G37*
G36*
G01*
X67334000Y68724000D02*
X66634000Y68724000D01*
G75*
G02*
X66384000Y68974000I0J250000D01*
G01*
X66384000Y70674000D01*
G75*
G02*
X66634000Y70924000I250000J0D01*
G01*
X67334000Y70924000D01*
G75*
G02*
X67584000Y70674000I0J-250000D01*
G01*
X67584000Y68974000D01*
G75*
G02*
X67334000Y68724000I-250000J0D01*
G01*
G37*
G04 #@! TD*
M02*
