G04 #@! TF.GenerationSoftware,KiCad,Pcbnew,8.0.9-8.0.9-0~ubuntu24.04.1*
G04 #@! TF.CreationDate,2025-06-29T23:13:03+00:00*
G04 #@! TF.ProjectId,EP91Starlet,45503931-5374-4617-926c-65742e6b6963,rev?*
G04 #@! TF.SameCoordinates,Original*
G04 #@! TF.FileFunction,Copper,L3,Inr*
G04 #@! TF.FilePolarity,Positive*
%FSLAX46Y46*%
G04 Gerber Fmt 4.6, Leading zero omitted, Abs format (unit mm)*
G04 Created by KiCad (PCBNEW 8.0.9-8.0.9-0~ubuntu24.04.1) date 2025-06-29 23:13:03*
%MOMM*%
%LPD*%
G01*
G04 APERTURE LIST*
G04 #@! TA.AperFunction,ComponentPad*
%ADD10C,0.700000*%
G04 #@! TD*
G04 #@! TA.AperFunction,Conductor*
%ADD11R,1.100000X0.250000*%
G04 #@! TD*
G04 #@! TA.AperFunction,Conductor*
%ADD12R,0.980000X0.250000*%
G04 #@! TD*
G04 #@! TA.AperFunction,Conductor*
%ADD13R,6.300000X0.250000*%
G04 #@! TD*
G04 #@! TA.AperFunction,Conductor*
%ADD14R,0.250000X27.600000*%
G04 #@! TD*
G04 #@! TA.AperFunction,Conductor*
%ADD15R,8.750000X0.250000*%
G04 #@! TD*
G04 #@! TA.AperFunction,Conductor*
%ADD16R,0.950000X0.250000*%
G04 #@! TD*
G04 #@! TA.AperFunction,ComponentPad*
%ADD17C,0.600000*%
G04 #@! TD*
G04 #@! TA.AperFunction,Conductor*
%ADD18R,0.200000X2.300000*%
G04 #@! TD*
G04 #@! TA.AperFunction,Conductor*
%ADD19R,0.200000X5.400000*%
G04 #@! TD*
G04 #@! TA.AperFunction,Conductor*
%ADD20R,0.200000X8.600000*%
G04 #@! TD*
G04 #@! TA.AperFunction,Conductor*
%ADD21R,0.200000X5.000000*%
G04 #@! TD*
G04 #@! TA.AperFunction,Conductor*
%ADD22R,1.400000X0.200000*%
G04 #@! TD*
G04 #@! TA.AperFunction,Conductor*
%ADD23R,5.000000X0.200000*%
G04 #@! TD*
G04 #@! TA.AperFunction,Conductor*
%ADD24R,6.800000X0.200000*%
G04 #@! TD*
G04 #@! TA.AperFunction,Conductor*
%ADD25R,4.500000X0.200000*%
G04 #@! TD*
G04 #@! TA.AperFunction,Conductor*
%ADD26R,0.200000X1.600000*%
G04 #@! TD*
G04 #@! TA.AperFunction,Conductor*
%ADD27R,0.200000X5.700000*%
G04 #@! TD*
G04 #@! TA.AperFunction,Conductor*
%ADD28R,0.200000X2.000000*%
G04 #@! TD*
G04 #@! TA.AperFunction,ComponentPad*
%ADD29O,2.700000X3.700000*%
G04 #@! TD*
G04 #@! TA.AperFunction,Conductor*
%ADD30R,6.185000X0.250000*%
G04 #@! TD*
G04 #@! TA.AperFunction,Conductor*
%ADD31R,1.115000X0.250000*%
G04 #@! TD*
G04 #@! TA.AperFunction,Conductor*
%ADD32R,0.250000X14.275000*%
G04 #@! TD*
G04 #@! TA.AperFunction,Conductor*
%ADD33R,0.250000X15.100000*%
G04 #@! TD*
G04 #@! TA.AperFunction,Conductor*
%ADD34R,5.175000X0.250000*%
G04 #@! TD*
G04 #@! TA.AperFunction,ComponentPad*
%ADD35C,1.500000*%
G04 #@! TD*
G04 #@! TA.AperFunction,Conductor*
%ADD36O,3.300000X0.200000*%
G04 #@! TD*
G04 #@! TA.AperFunction,Conductor*
%ADD37O,10.200000X0.200000*%
G04 #@! TD*
G04 #@! TA.AperFunction,Conductor*
%ADD38O,0.300000X0.200000*%
G04 #@! TD*
G04 #@! TA.AperFunction,Conductor*
%ADD39O,0.200000X17.000000*%
G04 #@! TD*
G04 #@! TA.AperFunction,Conductor*
%ADD40O,0.200000X15.400000*%
G04 #@! TD*
G04 #@! TA.AperFunction,Conductor*
%ADD41O,4.800000X0.200000*%
G04 #@! TD*
G04 #@! TA.AperFunction,Conductor*
%ADD42O,2.600000X0.200000*%
G04 #@! TD*
G04 #@! TA.AperFunction,Conductor*
%ADD43O,1.000000X0.200000*%
G04 #@! TD*
G04 #@! TA.AperFunction,Conductor*
%ADD44O,1.500000X0.200000*%
G04 #@! TD*
G04 #@! TA.AperFunction,ComponentPad*
%ADD45O,1.800000X2.000000*%
G04 #@! TD*
G04 #@! TA.AperFunction,ComponentPad*
%ADD46O,3.700000X2.700000*%
G04 #@! TD*
G04 #@! TA.AperFunction,Conductor*
%ADD47O,0.200000X1.225000*%
G04 #@! TD*
G04 #@! TA.AperFunction,Conductor*
%ADD48O,9.300000X0.200000*%
G04 #@! TD*
G04 #@! TA.AperFunction,ViaPad*
%ADD49C,0.600000*%
G04 #@! TD*
G04 #@! TA.AperFunction,Conductor*
%ADD50C,1.000000*%
G04 #@! TD*
G04 #@! TA.AperFunction,Conductor*
%ADD51C,0.300000*%
G04 #@! TD*
G04 APERTURE END LIST*
D10*
G04 #@! TO.N,Net-(J2-Pin_4)*
G04 #@! TO.C,M4*
X12954000Y69774000D03*
G04 #@! TO.N,Net-(J2-Pin_6)*
X9954000Y69774000D03*
G04 #@! TO.N,Net-(J2-Pin_3)*
X10954000Y69774000D03*
G04 #@! TO.N,Net-(J2-Pin_1)*
X11954000Y69774000D03*
D11*
G04 #@! TO.N,GND*
X1104000Y42799000D03*
X1104000Y42799000D03*
D12*
X5444000Y42799000D03*
D13*
X11404000Y42799000D03*
D14*
X679000Y56474000D03*
X14429000Y56474000D03*
D15*
X4929000Y70149000D03*
D16*
X14079000Y70149000D03*
D10*
G04 #@! TO.N,+5VA*
X3304000Y43182800D03*
G04 #@! TO.N,unconnected-(M4-CAN_VIO-PadW2)*
X4304000Y43182800D03*
G04 #@! TO.N,/CAN-*
X7600000Y43182800D03*
G04 #@! TO.N,/CAN+*
X6584000Y43182800D03*
G04 #@! TO.N,unconnected-(M4-VDDA-PadW9)*
X2304000Y43182800D03*
G04 #@! TD*
D17*
G04 #@! TO.N,unconnected-(M2-SPI2_SCK{slash}CAN2_TX-PadE1)*
G04 #@! TO.C,M2*
X64743998Y42510001D03*
G04 #@! TO.N,unconnected-(M2-SPI2_MISO-PadE2)*
X64743998Y41710000D03*
G04 #@! TO.N,unconnected-(M2-SPI2_MOSI-PadE3)*
X64743998Y40910002D03*
G04 #@! TO.N,unconnected-(M2-SPI2_CS{slash}CAN2_RX-PadE4)*
X64743998Y40110001D03*
G04 #@! TO.N,unconnected-(M2-OUT_IO3-PadE6)*
X64743998Y39310000D03*
G04 #@! TO.N,unconnected-(M2-OUT_IO5-PadE7)*
X64743995Y38510002D03*
G04 #@! TO.N,unconnected-(M2-OUT_IO1-PadE8)*
X64743995Y37710001D03*
G04 #@! TO.N,unconnected-(M2-OUT_IO6-PadE9)*
X64743998Y36909997D03*
G04 #@! TO.N,unconnected-(M2-OUT_IO10-PadE10)*
X64743998Y36110001D03*
G04 #@! TO.N,unconnected-(M2-OUT_IO9-PadE11)*
X64743998Y35310001D03*
G04 #@! TO.N,unconnected-(M2-OUT_IO2-PadE12)*
X64743998Y34510000D03*
G04 #@! TO.N,unconnected-(M2-OUT_IO12-PadE13)*
X64743995Y33710001D03*
G04 #@! TO.N,unconnected-(M2-OUT_PWM5-PadE14)*
X64743995Y32910000D03*
G04 #@! TO.N,unconnected-(M2-OUT_PWM4-PadE15)*
X64743995Y32109999D03*
G04 #@! TO.N,unconnected-(M2-OUT_PWM3-PadE16)*
X64743998Y31310001D03*
G04 #@! TO.N,unconnected-(M2-OUT_PWM2-PadE17)*
X64743998Y30510000D03*
G04 #@! TO.N,/INJ4/IN2*
X64743998Y29710002D03*
G04 #@! TO.N,/INJ4/IN1*
X64743995Y28910001D03*
G04 #@! TO.N,unconnected-(M2-OUT_IO13-PadE20)*
X64743995Y28110000D03*
G04 #@! TO.N,unconnected-(M2-OUT_IO4-PadE21)*
X64743998Y27310001D03*
G04 #@! TO.N,unconnected-(M2-OUT_IO8-PadE22)*
X64743998Y26510000D03*
G04 #@! TO.N,unconnected-(M2-OUT_IO7-PadE23)*
X64743998Y25709999D03*
G04 #@! TO.N,unconnected-(M2-OUT_IO11-PadE24)*
X64743998Y24910001D03*
G04 #@! TO.N,unconnected-(M2-OUT_PWM7-PadE25)*
X64743998Y24110000D03*
G04 #@! TO.N,unconnected-(M2-OUT_PWM6-PadE26)*
X64743998Y23310002D03*
G04 #@! TO.N,unconnected-(M2-OUT_PWM1-PadE27)*
X64743998Y22510001D03*
G04 #@! TO.N,unconnected-(M2-OUT_PWM8-PadE28)*
X64743998Y21710000D03*
G04 #@! TO.N,/INJ4/IN3*
X64743998Y20910001D03*
G04 #@! TO.N,/INJ4/IN4*
X64743998Y20110000D03*
G04 #@! TO.N,/LS_PROTECTED_2 A/IN1*
X64743995Y19310002D03*
G04 #@! TO.N,/LS_PROTECTED_2 A/IN2*
X64743998Y18509999D03*
G04 #@! TO.N,/LS_PROTECTED_2 B/IN1*
X64743998Y17710000D03*
G04 #@! TO.N,/LS_PROTECTED_2 B/IN2*
X64743998Y16910002D03*
G04 #@! TO.N,unconnected-(M2-IO6-PadE35)*
X64743998Y16110001D03*
G04 #@! TO.N,unconnected-(M2-IO7-PadE36)*
X64743998Y15310000D03*
G04 #@! TO.N,+5VA*
X64743995Y8610006D03*
G04 #@! TO.N,unconnected-(M2-GNDA-PadE39)*
X64743998Y7810005D03*
D18*
G04 #@! TO.N,GND*
X22843993Y6460005D03*
D19*
X22843995Y12310008D03*
D20*
X22843996Y40310005D03*
D21*
X22843996Y18510005D03*
D22*
X24644002Y5410002D03*
D23*
X26043997Y45310003D03*
D24*
X34544000Y45310003D03*
D25*
X44394003Y45310003D03*
D26*
X64943998Y43810004D03*
D27*
X64943998Y11960001D03*
D28*
X64943998Y6310008D03*
D17*
G04 #@! TO.N,unconnected-(M2-USBID-PadN1)*
X64743998Y45110004D03*
G04 #@! TO.N,unconnected-(M2-USBM-PadN2)*
X63944000Y45110006D03*
G04 #@! TO.N,unconnected-(M2-USBP-PadN3)*
X63143999Y45110006D03*
G04 #@! TO.N,unconnected-(M2-VBUS-PadN4)*
X62344000Y45110004D03*
G04 #@! TO.N,unconnected-(M2-BOOT0-PadN5)*
X61543999Y45110004D03*
G04 #@! TO.N,unconnected-(M2-SWO-PadN6)*
X60743998Y45110004D03*
G04 #@! TO.N,unconnected-(M2-SWDIO-PadN7)*
X59944000Y45110004D03*
G04 #@! TO.N,unconnected-(M2-SWCLK-PadN8)*
X59143999Y45110006D03*
G04 #@! TO.N,unconnected-(M2-nReset-PadN9)*
X58344001Y45110004D03*
G04 #@! TO.N,unconnected-(M2-SPI3_CS-PadN10)*
X57544000Y45110004D03*
G04 #@! TO.N,unconnected-(M2-SPI3_SCK-PadN11)*
X56743999Y45110004D03*
G04 #@! TO.N,unconnected-(M2-SPI3_MISO-PadN12)*
X55943998Y45110004D03*
G04 #@! TO.N,unconnected-(M2-SPI3_MOSI-PadN13)*
X55143999Y45110004D03*
G04 #@! TO.N,unconnected-(M2-I2C_SCL-PadN14)*
X54343998Y45110004D03*
G04 #@! TO.N,unconnected-(M2-I2C_SDA-PadN15)*
X53543997Y45110006D03*
G04 #@! TO.N,unconnected-(M2-IO1-PadN16)*
X52743997Y45110006D03*
G04 #@! TO.N,unconnected-(M2-UART2_TX-PadN17)*
X51943998Y45110004D03*
G04 #@! TO.N,unconnected-(M2-UART2_RX-PadN18)*
X51143997Y45110004D03*
G04 #@! TO.N,unconnected-(M2-IO2-PadN19)*
X50343999Y45110004D03*
G04 #@! TO.N,unconnected-(M2-IO4-PadN20)*
X49543998Y45110004D03*
G04 #@! TO.N,unconnected-(M2-IO3-PadN21)*
X48743999Y45110006D03*
G04 #@! TO.N,unconnected-(M2-V33-PadN22)*
X47943998Y45110004D03*
G04 #@! TO.N,unconnected-(M2-IO5-PadN23)*
X47143998Y45110004D03*
G04 #@! TO.N,unconnected-(M2-UART8_RX-PadN24)*
X41643998Y45110004D03*
G04 #@! TO.N,unconnected-(M2-UART8_TX-PadN25)*
X40843997Y45110004D03*
G04 #@! TO.N,Net-(M2-IN_VIGN)*
X40043999Y45110004D03*
G04 #@! TO.N,Net-(M2-VBAT)*
X39244001Y45110004D03*
G04 #@! TO.N,unconnected-(M2-V33_SWITCHABLE-PadN28)*
X38444002Y45110004D03*
G04 #@! TO.N,Net-(M2-OUT_PWR_EN)*
X30643998Y45110004D03*
G04 #@! TO.N,unconnected-(M2-V5A_SWITCHABLE-PadN30)*
X29843999Y45110004D03*
G04 #@! TO.N,+5V*
X29044001Y45110004D03*
G04 #@! TO.N,unconnected-(M2-V33-PadN32)*
X23043997Y45110004D03*
G04 #@! TO.N,unconnected-(M2-IN_D4-PadS1)*
X64143997Y5609999D03*
G04 #@! TO.N,unconnected-(M2-IN_D3-PadS2)*
X62943996Y5610001D03*
G04 #@! TO.N,unconnected-(M2-IN_D2-PadS3)*
X61743999Y5610001D03*
G04 #@! TO.N,unconnected-(M2-IN_D1-PadS4)*
X60543999Y5609999D03*
G04 #@! TO.N,unconnected-(M2-VREF2-PadS5)*
X59343999Y5610001D03*
G04 #@! TO.N,unconnected-(M2-IN_SENS4-PadS6)*
X58244011Y5610001D03*
G04 #@! TO.N,unconnected-(M2-IN_SENS3-PadS7)*
X57044011Y5610001D03*
G04 #@! TO.N,unconnected-(M2-IN_SENS2-PadS8)*
X55844013Y5609999D03*
G04 #@! TO.N,unconnected-(M2-IN_SENS1-PadS9)*
X54644013Y5610001D03*
G04 #@! TO.N,unconnected-(M2-IN_AUX4-PadS10)*
X53444010Y5610001D03*
G04 #@! TO.N,unconnected-(M2-IN_AUX3-PadS11)*
X52244008Y5609999D03*
G04 #@! TO.N,unconnected-(M2-IN_AUX2-PadS12)*
X51044010Y5610001D03*
G04 #@! TO.N,/NEUTRAL STARTER SWITCH*
X49844012Y5610001D03*
G04 #@! TO.N,unconnected-(M2-IN_RES2-PadS14)*
X48644005Y5610001D03*
G04 #@! TO.N,unconnected-(M2-IN_O2S2-PadS15)*
X47444005Y5610001D03*
G04 #@! TO.N,unconnected-(M2-IN_O2S-PadS16)*
X46244007Y5610001D03*
G04 #@! TO.N,unconnected-(M2-IN_RES1-PadS17)*
X45044007Y5610001D03*
G04 #@! TO.N,unconnected-(M2-IN_RES3-PadS18)*
X43844002Y5610001D03*
G04 #@! TO.N,unconnected-(M2-IN_MAP3-PadS19)*
X42644001Y5610001D03*
G04 #@! TO.N,unconnected-(M2-IN_MAP2-PadS20)*
X41444004Y5609999D03*
G04 #@! TO.N,Net-(M2-IN_MAP1)*
X40244004Y5610001D03*
G04 #@! TO.N,Net-(M1-OUT)*
X39044001Y5609999D03*
G04 #@! TO.N,Net-(M2-IN_KNOCK)*
X37844001Y5610001D03*
G04 #@! TO.N,Net-(M2-IN_CAM)*
X36644006Y5610001D03*
G04 #@! TO.N,unconnected-(M2-IN_VSS-PadS25)*
X35444003Y5609999D03*
G04 #@! TO.N,Net-(M2-IN_IAT)*
X34243998Y5610001D03*
G04 #@! TO.N,unconnected-(M2-IN_AT1-PadS27)*
X33043998Y5609999D03*
G04 #@! TO.N,Net-(M2-IN_CLT)*
X31844000Y5610001D03*
G04 #@! TO.N,unconnected-(M2-IN_AT2-PadS29)*
X30644000Y5610001D03*
G04 #@! TO.N,Net-(M2-IN_TPS)*
X29443995Y5610001D03*
G04 #@! TO.N,unconnected-(M2-IN_PPS-PadS31)*
X28243995Y5610001D03*
G04 #@! TO.N,unconnected-(M2-IN_TPS2-PadS32)*
X27043997Y5610001D03*
G04 #@! TO.N,unconnected-(M2-IN_PPS2-PadS33)*
X25843997Y5610001D03*
G04 #@! TO.N,unconnected-(M2-VREF1-PadS35)*
X23443997Y5610001D03*
G04 #@! TO.N,GNDA*
X23043995Y8110004D03*
G04 #@! TO.N,+5VA*
X23043995Y9110005D03*
G04 #@! TO.N,unconnected-(M2-V33_REF-PadW3)*
X23043997Y15510007D03*
G04 #@! TO.N,unconnected-(M2-BOOT1-PadW3a)*
X23043996Y21510005D03*
G04 #@! TO.N,unconnected-(M2-IGN8-PadW4)*
X23043997Y22510003D03*
G04 #@! TO.N,unconnected-(M2-IGN7-PadW5)*
X23043997Y23510004D03*
G04 #@! TO.N,unconnected-(M2-IGN6-PadW6)*
X23043997Y24510002D03*
G04 #@! TO.N,unconnected-(M2-IGN5-PadW7)*
X23043997Y25510002D03*
G04 #@! TO.N,/IGN4/IN4*
X23043997Y26510003D03*
G04 #@! TO.N,/IGN4/IN3*
X23043997Y27510001D03*
G04 #@! TO.N,/IGN4/IN2*
X23043997Y28510001D03*
G04 #@! TO.N,/IGN4/IN1*
X23043997Y29509999D03*
G04 #@! TO.N,unconnected-(M2-LED_RED-PadW11a)*
X23043996Y30510005D03*
G04 #@! TO.N,unconnected-(M2-LED_GREEN-PadW11b)*
X23043996Y31510005D03*
G04 #@! TO.N,unconnected-(M2-LED_BLUE-PadW11c)*
X23043996Y32510005D03*
G04 #@! TO.N,unconnected-(M2-LED_YELLOW-PadW11d)*
X23043996Y33510005D03*
G04 #@! TO.N,/CAN+*
X23043996Y34510005D03*
G04 #@! TO.N,/CAN-*
X23043996Y35510005D03*
G04 #@! TD*
G04 #@! TO.N,/INJ4/OUT4*
G04 #@! TO.C,J1*
G04 #@! TA.AperFunction,ComponentPad*
G36*
G01*
X77626000Y89168001D02*
X77626000Y92367999D01*
G75*
G02*
X77876001Y92618000I250001J0D01*
G01*
X80075999Y92618000D01*
G75*
G02*
X80326000Y92367999I0J-250001D01*
G01*
X80326000Y89168001D01*
G75*
G02*
X80075999Y88918000I-250001J0D01*
G01*
X77876001Y88918000D01*
G75*
G02*
X77626000Y89168001I0J250001D01*
G01*
G37*
G04 #@! TD.AperFunction*
D29*
G04 #@! TO.N,/INJ4/OUT3*
X83176000Y90768000D03*
G04 #@! TO.N,/INJ4/OUT2*
X87376000Y90768000D03*
G04 #@! TO.N,/INJ4/OUT1*
X91576000Y90768000D03*
G04 #@! TO.N,/IGN4/OUT4*
X78976000Y85268000D03*
G04 #@! TO.N,/IGN4/OUT3*
X83176000Y85268000D03*
G04 #@! TO.N,/IGN4/OUT2*
X87376000Y85268000D03*
G04 #@! TO.N,/IGN4/OUT1*
X91576000Y85268000D03*
G04 #@! TD*
D17*
G04 #@! TO.N,unconnected-(M1-HALL_EN-PadE1)*
G04 #@! TO.C,M1*
X8395500Y20834000D03*
G04 #@! TO.N,unconnected-(M1-NC-PadE2)*
X7195500Y20834000D03*
G04 #@! TO.N,Net-(M1-OUT)*
X9595500Y20834000D03*
G04 #@! TO.N,+5VA*
X10795500Y20834000D03*
D30*
G04 #@! TO.N,GND*
X8128000Y35484000D03*
D31*
X2078000Y35484000D03*
D32*
X11095500Y28471500D03*
D33*
X1645500Y28059000D03*
D34*
X4108000Y20634000D03*
D17*
G04 #@! TO.N,unconnected-(M1-VR-{slash}HALL-PadW1)*
X4335500Y35259000D03*
G04 #@! TO.N,Net-(M1-VR+)*
X3335500Y35259000D03*
G04 #@! TD*
D35*
G04 #@! TO.N,Net-(M2-VBAT)*
G04 #@! TO.C,M6*
X42080000Y70698003D03*
G04 #@! TO.N,unconnected-(M6-V12-PadE2)*
X35680003Y70698003D03*
G04 #@! TO.N,Net-(M2-IN_VIGN)*
X33780000Y70698003D03*
G04 #@! TO.N,+5V*
X29480000Y70698003D03*
D17*
G04 #@! TO.N,Net-(M2-OUT_PWR_EN)*
X27080003Y70248004D03*
G04 #@! TO.N,unconnected-(M6-PG_5VP-PadE6)*
X26080002Y70248004D03*
D36*
G04 #@! TO.N,GND*
X38230000Y86847999D03*
D37*
X29730002Y86847999D03*
D38*
X22630000Y86847999D03*
D39*
X22580000Y78448001D03*
D40*
X43180000Y77648000D03*
D35*
X23230000Y70698003D03*
D38*
X43130000Y70048002D03*
D41*
X38930002Y70048002D03*
D42*
X31580000Y70048002D03*
D43*
X28080003Y70048002D03*
D44*
X24780002Y70048002D03*
D35*
G04 #@! TO.N,+12V_RAW*
X42530002Y86198000D03*
X40680003Y86198000D03*
X35730000Y86198000D03*
G04 #@! TO.N,+5VP*
X23680002Y86198000D03*
G04 #@! TD*
D17*
G04 #@! TO.N,unconnected-(M5-HALL_EN-PadE1)*
G04 #@! TO.C,M5*
X8395500Y3054000D03*
G04 #@! TO.N,unconnected-(M5-NC-PadE2)*
X7195500Y3054000D03*
G04 #@! TO.N,Net-(M2-IN_CAM)*
X9595500Y3054000D03*
G04 #@! TO.N,+5VA*
X10795500Y3054000D03*
D30*
G04 #@! TO.N,GND*
X8128000Y17704000D03*
D31*
X2078000Y17704000D03*
D32*
X11095500Y10691500D03*
D33*
X1645500Y10279000D03*
D34*
X4108000Y2854000D03*
D17*
G04 #@! TO.N,unconnected-(M5-VR-{slash}HALL-PadW1)*
X4335500Y17479000D03*
G04 #@! TO.N,Net-(M5-VR+)*
X3335500Y17479000D03*
G04 #@! TD*
D45*
G04 #@! TO.N,unconnected-(U1-~~-Pad1)*
G04 #@! TO.C,U1*
X8056000Y93650000D03*
G04 #@! TO.N,/INJ4/OUT1*
X11056000Y93650000D03*
G04 #@! TO.N,GND*
X14056000Y93650000D03*
G04 #@! TO.N,/IDLE UP SOLENOID*
X17056000Y93650000D03*
G04 #@! TO.N,unconnected-(U1-ELS3-Pad5)*
X20056000Y93650000D03*
G04 #@! TO.N,Net-(M1-VR+)*
X23056000Y93650000D03*
G04 #@! TO.N,/RAD FAN*
X26056000Y93650000D03*
G04 #@! TO.N,unconnected-(U1-IDL-Pad8)*
X29056000Y93650000D03*
G04 #@! TO.N,+5VP*
X37056000Y93650000D03*
G04 #@! TO.N,Net-(M2-IN_TPS)*
X40056000Y93650000D03*
G04 #@! TO.N,unconnected-(U1-E2-Pad11)*
X43056000Y93650000D03*
G04 #@! TO.N,unconnected-(U1-HT-Pad12)*
X46056000Y93650000D03*
G04 #@! TO.N,unconnected-(U1-RSO-Pad13)*
X49056000Y93650000D03*
G04 #@! TO.N,unconnected-(U1-VF-Pad14)*
X52056000Y93650000D03*
G04 #@! TO.N,unconnected-(U1-ELS2-Pad15)*
X55056000Y93650000D03*
G04 #@! TO.N,unconnected-(U1-ACT-Pad16)*
X58056000Y93650000D03*
G04 #@! TO.N,unconnected-(U1-SPD-Pad17)*
X61056000Y93650000D03*
G04 #@! TO.N,unconnected-(U1-AC1-Pad18)*
X64056000Y93650000D03*
G04 #@! TO.N,unconnected-(U1-EGW-Pad19)*
X67056000Y93650000D03*
G04 #@! TO.N,unconnected-(U1-W-Pad20)*
X70056000Y93650000D03*
G04 #@! TO.N,unconnected-(U1-+B-Pad21)*
X73056000Y93650000D03*
G04 #@! TO.N,unconnected-(U1-Pad22)*
X73056000Y98150000D03*
G04 #@! TO.N,+12V_RAW*
X70056000Y98150000D03*
G04 #@! TO.N,/CARBON CAN SOLENOID*
X67056000Y98150000D03*
G04 #@! TO.N,/FUEL PUMP RELAY*
X64056000Y98150000D03*
G04 #@! TO.N,unconnected-(U1-ELS1-Pad26)*
X61056000Y98150000D03*
G04 #@! TO.N,unconnected-(U1-AC2-Pad27)*
X58056000Y98150000D03*
G04 #@! TO.N,unconnected-(U1-TE2-Pad28)*
X55056000Y98150000D03*
G04 #@! TO.N,unconnected-(U1-TE1-Pad29)*
X52056000Y98150000D03*
G04 #@! TO.N,unconnected-(U1-RSC-Pad30)*
X49056000Y98150000D03*
G04 #@! TO.N,/NEUTRAL STARTER SWITCH*
X46056000Y98150000D03*
G04 #@! TO.N,Net-(M2-IN_CLT)*
X43056000Y98150000D03*
G04 #@! TO.N,Net-(M2-IN_MAP1)*
X40056000Y98150000D03*
G04 #@! TO.N,Net-(M2-IN_IAT)*
X37056000Y98150000D03*
G04 #@! TO.N,/IGN4/OUT4*
X29056000Y98150000D03*
G04 #@! TO.N,unconnected-(U1-IGF-Pad36)*
X26056000Y98150000D03*
G04 #@! TO.N,unconnected-(U1-G2-Pad37)*
X23056000Y98150000D03*
G04 #@! TO.N,Net-(M5-VR+)*
X20056000Y98150000D03*
G04 #@! TO.N,unconnected-(U1-OX-Pad39)*
X17056000Y98150000D03*
G04 #@! TO.N,unconnected-(U1-STA-Pad40)*
X14056000Y98150000D03*
G04 #@! TO.N,/INJ4/OUT3*
X11056000Y98150000D03*
G04 #@! TO.N,unconnected-(U1-E01-Pad42)*
X8056000Y98150000D03*
G04 #@! TD*
G04 #@! TO.N,Net-(J2-Pin_1)*
G04 #@! TO.C,J2*
G04 #@! TA.AperFunction,ComponentPad*
G36*
G01*
X11251999Y76162000D02*
X8052001Y76162000D01*
G75*
G02*
X7802000Y76412001I0J250001D01*
G01*
X7802000Y78611999D01*
G75*
G02*
X8052001Y78862000I250001J0D01*
G01*
X11251999Y78862000D01*
G75*
G02*
X11502000Y78611999I0J-250001D01*
G01*
X11502000Y76412001D01*
G75*
G02*
X11251999Y76162000I-250001J0D01*
G01*
G37*
G04 #@! TD.AperFunction*
D46*
G04 #@! TO.N,Net-(J2-Pin_2)*
X9652000Y81712000D03*
G04 #@! TO.N,Net-(J2-Pin_3)*
X9652000Y85912000D03*
G04 #@! TO.N,Net-(J2-Pin_4)*
X15152000Y77512000D03*
G04 #@! TO.N,+12V_RAW*
X15152000Y81712000D03*
G04 #@! TO.N,Net-(J2-Pin_6)*
X15152000Y85912000D03*
G04 #@! TD*
D17*
G04 #@! TO.N,+5VA*
G04 #@! TO.C,M3*
X90202000Y2880000D03*
D47*
G04 #@! TO.N,GND*
X81302000Y905000D03*
D48*
X85852000Y3480000D03*
X85852000Y380000D03*
D17*
X90202000Y1930000D03*
G04 #@! TO.N,Net-(M2-IN_KNOCK)*
X90202000Y980002D03*
G04 #@! TO.N,unconnected-(M3-IN_KNOCK-PadW1)*
X81502000Y1980000D03*
G04 #@! TO.N,unconnected-(M3-VREF-PadW2)*
X81502000Y2880000D03*
G04 #@! TD*
D49*
G04 #@! TO.N,/IGN4/IN1*
X22946530Y47097470D03*
G04 #@! TO.N,/IGN4/IN2*
X23284265Y48283735D03*
G04 #@! TO.N,/IGN4/IN3*
X22098000Y48200000D03*
G04 #@! TO.N,/IGN4/IN4*
X22606000Y49470000D03*
G04 #@! TO.N,/INJ4/IN2*
X66294000Y45914000D03*
X37338000Y46168000D03*
G04 #@! TO.N,/INJ4/IN3*
X45077000Y47176000D03*
X67396530Y46508530D03*
G04 #@! TO.N,/INJ4/IN4*
X66548000Y47514000D03*
X47371000Y47568000D03*
G04 #@! TO.N,/INJ4/IN1*
X39751000Y46676000D03*
X67480265Y45576265D03*
G04 #@! TO.N,/IGN4/OUT1*
X83245000Y70552000D03*
X83245000Y69790000D03*
G04 #@! TO.N,Net-(Q1-G)*
X50965000Y56476000D03*
G04 #@! TO.N,/IGN4/OUT2*
X73245000Y69790000D03*
X73800000Y70345000D03*
G04 #@! TO.N,Net-(Q2-G)*
X60864000Y56469000D03*
G04 #@! TO.N,/IGN4/OUT3*
X63720000Y70265000D03*
X63245000Y69790000D03*
G04 #@! TO.N,Net-(Q3-G)*
X71024000Y56469000D03*
G04 #@! TO.N,/IGN4/OUT4*
X31750000Y93904000D03*
X50546000Y89332000D03*
X53767000Y70312000D03*
X51054000Y88824000D03*
X53245000Y69790000D03*
X31750000Y93142000D03*
G04 #@! TO.N,Net-(Q4-G)*
X80930000Y56469000D03*
G04 #@! TO.N,/INJ4/OUT2*
X44450000Y61567001D03*
X39955002Y61567001D03*
X47530000Y79426000D03*
G04 #@! TO.N,/INJ4/OUT1*
X35815000Y61392000D03*
X46228000Y64694000D03*
X36576000Y64440000D03*
X18542000Y62424000D03*
X46530000Y79426000D03*
G04 #@! TO.N,/INJ4/OUT3*
X48530000Y79426000D03*
X19558000Y62932000D03*
X48006000Y63440000D03*
G04 #@! TO.N,/INJ4/OUT4*
X49530000Y79426000D03*
G04 #@! TO.N,Net-(M2-VBAT)*
X37576971Y47152971D03*
X40386000Y47422000D03*
G04 #@! TO.N,Net-(J2-Pin_3)*
X5289339Y71253339D03*
X10668000Y71298000D03*
G04 #@! TO.N,Net-(J2-Pin_1)*
X9354000Y72314000D03*
X11430000Y72060000D03*
G04 #@! TD*
D50*
G04 #@! TO.N,+12V_RAW*
X42672000Y87808000D02*
X71120000Y87808000D01*
X40680003Y87594003D02*
X40894000Y87808000D01*
X35730000Y86198000D02*
X35730000Y87258660D01*
X36279340Y87808000D02*
X40894000Y87808000D01*
X71120000Y87808000D02*
X74656000Y91344000D01*
X74656000Y91344000D02*
X74656000Y94432000D01*
X72644000Y96444000D02*
X71762000Y96444000D01*
X42530002Y87666002D02*
X42672000Y87808000D01*
X35730000Y87258660D02*
X36279340Y87808000D01*
X42530002Y86198000D02*
X42530002Y87666002D01*
X74656000Y94432000D02*
X72644000Y96444000D01*
X71762000Y96444000D02*
X70056000Y98150000D01*
X40680003Y86198000D02*
X40680003Y87594003D01*
X40894000Y87808000D02*
X42672000Y87808000D01*
G04 #@! TO.N,+5VP*
X23680002Y87258660D02*
X28371342Y91950000D01*
X28371342Y91950000D02*
X35356000Y91950000D01*
X23680002Y86198000D02*
X23680002Y87258660D01*
X35356000Y91950000D02*
X37056000Y93650000D01*
D51*
G04 #@! TO.N,+5V*
X29044001Y70262004D02*
X29044001Y45110004D01*
X29480000Y70698003D02*
X29044001Y70262004D01*
G04 #@! TD*
G04 #@! TA.AperFunction,Conductor*
G04 #@! TO.N,GND*
G36*
X7576888Y99779815D02*
G01*
X7622643Y99727011D01*
X7632587Y99657853D01*
X7603562Y99594297D01*
X7548167Y99557569D01*
X7518396Y99547897D01*
X7518393Y99547896D01*
X7321974Y99447813D01*
X7143641Y99318248D01*
X7143636Y99318244D01*
X6987756Y99162364D01*
X6987752Y99162359D01*
X6858187Y98984026D01*
X6758104Y98787607D01*
X6758103Y98787604D01*
X6689985Y98577953D01*
X6689985Y98577951D01*
X6655500Y98360222D01*
X6655500Y97939778D01*
X6668897Y97855191D01*
X6689985Y97722048D01*
X6758103Y97512397D01*
X6758104Y97512394D01*
X6858187Y97315975D01*
X6987752Y97137642D01*
X6987756Y97137637D01*
X7143636Y96981757D01*
X7143641Y96981753D01*
X7299192Y96868740D01*
X7321978Y96852185D01*
X7421562Y96801444D01*
X7518393Y96752105D01*
X7518396Y96752104D01*
X7623221Y96718045D01*
X7728049Y96683985D01*
X7945778Y96649500D01*
X7945779Y96649500D01*
X8166221Y96649500D01*
X8166222Y96649500D01*
X8383951Y96683985D01*
X8593606Y96752105D01*
X8790022Y96852185D01*
X8968365Y96981758D01*
X9124242Y97137635D01*
X9253815Y97315978D01*
X9353895Y97512394D01*
X9422015Y97722049D01*
X9433527Y97794734D01*
X9463456Y97857867D01*
X9522767Y97894799D01*
X9592630Y97893801D01*
X9650863Y97855191D01*
X9678473Y97794733D01*
X9689985Y97722048D01*
X9758103Y97512397D01*
X9758104Y97512394D01*
X9858187Y97315975D01*
X9987752Y97137642D01*
X9987756Y97137637D01*
X10143636Y96981757D01*
X10143641Y96981753D01*
X10299192Y96868740D01*
X10321978Y96852185D01*
X10421562Y96801444D01*
X10518393Y96752105D01*
X10518396Y96752104D01*
X10623221Y96718045D01*
X10728049Y96683985D01*
X10945778Y96649500D01*
X10945779Y96649500D01*
X11166221Y96649500D01*
X11166222Y96649500D01*
X11383951Y96683985D01*
X11593606Y96752105D01*
X11790022Y96852185D01*
X11968365Y96981758D01*
X12124242Y97137635D01*
X12253815Y97315978D01*
X12353895Y97512394D01*
X12422015Y97722049D01*
X12433527Y97794734D01*
X12463456Y97857867D01*
X12522767Y97894799D01*
X12592630Y97893801D01*
X12650863Y97855191D01*
X12678473Y97794733D01*
X12689985Y97722048D01*
X12758103Y97512397D01*
X12758104Y97512394D01*
X12858187Y97315975D01*
X12987752Y97137642D01*
X12987756Y97137637D01*
X13143636Y96981757D01*
X13143641Y96981753D01*
X13299192Y96868740D01*
X13321978Y96852185D01*
X13421562Y96801444D01*
X13518393Y96752105D01*
X13518396Y96752104D01*
X13623221Y96718045D01*
X13728049Y96683985D01*
X13945778Y96649500D01*
X13945779Y96649500D01*
X14166221Y96649500D01*
X14166222Y96649500D01*
X14383951Y96683985D01*
X14593606Y96752105D01*
X14790022Y96852185D01*
X14968365Y96981758D01*
X15124242Y97137635D01*
X15253815Y97315978D01*
X15353895Y97512394D01*
X15422015Y97722049D01*
X15433527Y97794734D01*
X15463456Y97857867D01*
X15522767Y97894799D01*
X15592630Y97893801D01*
X15650863Y97855191D01*
X15678473Y97794733D01*
X15689985Y97722048D01*
X15758103Y97512397D01*
X15758104Y97512394D01*
X15858187Y97315975D01*
X15987752Y97137642D01*
X15987756Y97137637D01*
X16143636Y96981757D01*
X16143641Y96981753D01*
X16299192Y96868740D01*
X16321978Y96852185D01*
X16421562Y96801444D01*
X16518393Y96752105D01*
X16518396Y96752104D01*
X16623221Y96718045D01*
X16728049Y96683985D01*
X16945778Y96649500D01*
X16945779Y96649500D01*
X17166221Y96649500D01*
X17166222Y96649500D01*
X17383951Y96683985D01*
X17593606Y96752105D01*
X17790022Y96852185D01*
X17968365Y96981758D01*
X18124242Y97137635D01*
X18253815Y97315978D01*
X18353895Y97512394D01*
X18422015Y97722049D01*
X18433527Y97794734D01*
X18463456Y97857867D01*
X18522767Y97894799D01*
X18592630Y97893801D01*
X18650863Y97855191D01*
X18678473Y97794733D01*
X18689985Y97722048D01*
X18758103Y97512397D01*
X18758104Y97512394D01*
X18858187Y97315975D01*
X18987752Y97137642D01*
X18987756Y97137637D01*
X19143636Y96981757D01*
X19143641Y96981753D01*
X19299192Y96868740D01*
X19321978Y96852185D01*
X19421562Y96801444D01*
X19518393Y96752105D01*
X19518396Y96752104D01*
X19623221Y96718045D01*
X19728049Y96683985D01*
X19945778Y96649500D01*
X19945779Y96649500D01*
X20166221Y96649500D01*
X20166222Y96649500D01*
X20383951Y96683985D01*
X20593606Y96752105D01*
X20790022Y96852185D01*
X20968365Y96981758D01*
X21124242Y97137635D01*
X21253815Y97315978D01*
X21353895Y97512394D01*
X21422015Y97722049D01*
X21433527Y97794734D01*
X21463456Y97857867D01*
X21522767Y97894799D01*
X21592630Y97893801D01*
X21650863Y97855191D01*
X21678473Y97794733D01*
X21689985Y97722048D01*
X21758103Y97512397D01*
X21758104Y97512394D01*
X21858187Y97315975D01*
X21987752Y97137642D01*
X21987756Y97137637D01*
X22143636Y96981757D01*
X22143641Y96981753D01*
X22299192Y96868740D01*
X22321978Y96852185D01*
X22421562Y96801444D01*
X22518393Y96752105D01*
X22518396Y96752104D01*
X22623221Y96718045D01*
X22728049Y96683985D01*
X22945778Y96649500D01*
X22945779Y96649500D01*
X23166221Y96649500D01*
X23166222Y96649500D01*
X23383951Y96683985D01*
X23593606Y96752105D01*
X23790022Y96852185D01*
X23968365Y96981758D01*
X24124242Y97137635D01*
X24253815Y97315978D01*
X24353895Y97512394D01*
X24422015Y97722049D01*
X24433527Y97794734D01*
X24463456Y97857867D01*
X24522767Y97894799D01*
X24592630Y97893801D01*
X24650863Y97855191D01*
X24678473Y97794733D01*
X24689985Y97722048D01*
X24758103Y97512397D01*
X24758104Y97512394D01*
X24858187Y97315975D01*
X24987752Y97137642D01*
X24987756Y97137637D01*
X25143636Y96981757D01*
X25143641Y96981753D01*
X25299192Y96868740D01*
X25321978Y96852185D01*
X25421562Y96801444D01*
X25518393Y96752105D01*
X25518396Y96752104D01*
X25623221Y96718045D01*
X25728049Y96683985D01*
X25945778Y96649500D01*
X25945779Y96649500D01*
X26166221Y96649500D01*
X26166222Y96649500D01*
X26383951Y96683985D01*
X26593606Y96752105D01*
X26790022Y96852185D01*
X26968365Y96981758D01*
X27124242Y97137635D01*
X27253815Y97315978D01*
X27353895Y97512394D01*
X27422015Y97722049D01*
X27433527Y97794734D01*
X27463456Y97857867D01*
X27522767Y97894799D01*
X27592630Y97893801D01*
X27650863Y97855191D01*
X27678473Y97794733D01*
X27689985Y97722048D01*
X27758103Y97512397D01*
X27758104Y97512394D01*
X27858187Y97315975D01*
X27987752Y97137642D01*
X27987756Y97137637D01*
X28143636Y96981757D01*
X28143641Y96981753D01*
X28299192Y96868740D01*
X28321978Y96852185D01*
X28421562Y96801444D01*
X28518393Y96752105D01*
X28518396Y96752104D01*
X28623221Y96718045D01*
X28728049Y96683985D01*
X28945778Y96649500D01*
X28945779Y96649500D01*
X29166221Y96649500D01*
X29166222Y96649500D01*
X29383951Y96683985D01*
X29593606Y96752105D01*
X29790022Y96852185D01*
X29968365Y96981758D01*
X30124242Y97137635D01*
X30253815Y97315978D01*
X30353895Y97512394D01*
X30422015Y97722049D01*
X30456500Y97939778D01*
X30456500Y98360222D01*
X30422015Y98577951D01*
X30353895Y98787606D01*
X30353895Y98787607D01*
X30319237Y98855625D01*
X30253815Y98984022D01*
X30237260Y99006808D01*
X30124247Y99162359D01*
X30124243Y99162364D01*
X29968363Y99318244D01*
X29968358Y99318248D01*
X29790025Y99447813D01*
X29790024Y99447814D01*
X29790022Y99447815D01*
X29727096Y99479878D01*
X29593606Y99547896D01*
X29593603Y99547897D01*
X29563833Y99557569D01*
X29506158Y99597006D01*
X29478959Y99661364D01*
X29490873Y99730211D01*
X29538117Y99781687D01*
X29602151Y99799500D01*
X36509849Y99799500D01*
X36576888Y99779815D01*
X36622643Y99727011D01*
X36632587Y99657853D01*
X36603562Y99594297D01*
X36548167Y99557569D01*
X36518396Y99547897D01*
X36518393Y99547896D01*
X36321974Y99447813D01*
X36143641Y99318248D01*
X36143636Y99318244D01*
X35987756Y99162364D01*
X35987752Y99162359D01*
X35858187Y98984026D01*
X35758104Y98787607D01*
X35758103Y98787604D01*
X35689985Y98577953D01*
X35689985Y98577951D01*
X35655500Y98360222D01*
X35655500Y97939778D01*
X35668897Y97855191D01*
X35689985Y97722048D01*
X35758103Y97512397D01*
X35758104Y97512394D01*
X35858187Y97315975D01*
X35987752Y97137642D01*
X35987756Y97137637D01*
X36143636Y96981757D01*
X36143641Y96981753D01*
X36299192Y96868740D01*
X36321978Y96852185D01*
X36421562Y96801444D01*
X36518393Y96752105D01*
X36518396Y96752104D01*
X36623221Y96718045D01*
X36728049Y96683985D01*
X36945778Y96649500D01*
X36945779Y96649500D01*
X37166221Y96649500D01*
X37166222Y96649500D01*
X37383951Y96683985D01*
X37593606Y96752105D01*
X37790022Y96852185D01*
X37968365Y96981758D01*
X38124242Y97137635D01*
X38253815Y97315978D01*
X38353895Y97512394D01*
X38422015Y97722049D01*
X38433527Y97794734D01*
X38463456Y97857867D01*
X38522767Y97894799D01*
X38592630Y97893801D01*
X38650863Y97855191D01*
X38678473Y97794733D01*
X38689985Y97722048D01*
X38758103Y97512397D01*
X38758104Y97512394D01*
X38858187Y97315975D01*
X38987752Y97137642D01*
X38987756Y97137637D01*
X39143636Y96981757D01*
X39143641Y96981753D01*
X39299192Y96868740D01*
X39321978Y96852185D01*
X39421562Y96801444D01*
X39518393Y96752105D01*
X39518396Y96752104D01*
X39623221Y96718045D01*
X39728049Y96683985D01*
X39945778Y96649500D01*
X39945779Y96649500D01*
X40166221Y96649500D01*
X40166222Y96649500D01*
X40383951Y96683985D01*
X40593606Y96752105D01*
X40790022Y96852185D01*
X40968365Y96981758D01*
X41124242Y97137635D01*
X41253815Y97315978D01*
X41353895Y97512394D01*
X41422015Y97722049D01*
X41433527Y97794734D01*
X41463456Y97857867D01*
X41522767Y97894799D01*
X41592630Y97893801D01*
X41650863Y97855191D01*
X41678473Y97794733D01*
X41689985Y97722048D01*
X41758103Y97512397D01*
X41758104Y97512394D01*
X41858187Y97315975D01*
X41987752Y97137642D01*
X41987756Y97137637D01*
X42143636Y96981757D01*
X42143641Y96981753D01*
X42299192Y96868740D01*
X42321978Y96852185D01*
X42421562Y96801444D01*
X42518393Y96752105D01*
X42518396Y96752104D01*
X42623221Y96718045D01*
X42728049Y96683985D01*
X42945778Y96649500D01*
X42945779Y96649500D01*
X43166221Y96649500D01*
X43166222Y96649500D01*
X43383951Y96683985D01*
X43593606Y96752105D01*
X43790022Y96852185D01*
X43968365Y96981758D01*
X44124242Y97137635D01*
X44253815Y97315978D01*
X44353895Y97512394D01*
X44422015Y97722049D01*
X44433527Y97794734D01*
X44463456Y97857867D01*
X44522767Y97894799D01*
X44592630Y97893801D01*
X44650863Y97855191D01*
X44678473Y97794733D01*
X44689985Y97722048D01*
X44758103Y97512397D01*
X44758104Y97512394D01*
X44858187Y97315975D01*
X44987752Y97137642D01*
X44987756Y97137637D01*
X45143636Y96981757D01*
X45143641Y96981753D01*
X45299192Y96868740D01*
X45321978Y96852185D01*
X45421562Y96801444D01*
X45518393Y96752105D01*
X45518396Y96752104D01*
X45623221Y96718045D01*
X45728049Y96683985D01*
X45945778Y96649500D01*
X45945779Y96649500D01*
X46166221Y96649500D01*
X46166222Y96649500D01*
X46383951Y96683985D01*
X46593606Y96752105D01*
X46790022Y96852185D01*
X46968365Y96981758D01*
X47124242Y97137635D01*
X47253815Y97315978D01*
X47353895Y97512394D01*
X47422015Y97722049D01*
X47433527Y97794734D01*
X47463456Y97857867D01*
X47522767Y97894799D01*
X47592630Y97893801D01*
X47650863Y97855191D01*
X47678473Y97794733D01*
X47689985Y97722048D01*
X47758103Y97512397D01*
X47758104Y97512394D01*
X47858187Y97315975D01*
X47987752Y97137642D01*
X47987756Y97137637D01*
X48143636Y96981757D01*
X48143641Y96981753D01*
X48299192Y96868740D01*
X48321978Y96852185D01*
X48421562Y96801444D01*
X48518393Y96752105D01*
X48518396Y96752104D01*
X48623221Y96718045D01*
X48728049Y96683985D01*
X48945778Y96649500D01*
X48945779Y96649500D01*
X49166221Y96649500D01*
X49166222Y96649500D01*
X49383951Y96683985D01*
X49593606Y96752105D01*
X49790022Y96852185D01*
X49968365Y96981758D01*
X50124242Y97137635D01*
X50253815Y97315978D01*
X50353895Y97512394D01*
X50422015Y97722049D01*
X50433527Y97794734D01*
X50463456Y97857867D01*
X50522767Y97894799D01*
X50592630Y97893801D01*
X50650863Y97855191D01*
X50678473Y97794733D01*
X50689985Y97722048D01*
X50758103Y97512397D01*
X50758104Y97512394D01*
X50858187Y97315975D01*
X50987752Y97137642D01*
X50987756Y97137637D01*
X51143636Y96981757D01*
X51143641Y96981753D01*
X51299192Y96868740D01*
X51321978Y96852185D01*
X51421562Y96801444D01*
X51518393Y96752105D01*
X51518396Y96752104D01*
X51623221Y96718045D01*
X51728049Y96683985D01*
X51945778Y96649500D01*
X51945779Y96649500D01*
X52166221Y96649500D01*
X52166222Y96649500D01*
X52383951Y96683985D01*
X52593606Y96752105D01*
X52790022Y96852185D01*
X52968365Y96981758D01*
X53124242Y97137635D01*
X53253815Y97315978D01*
X53353895Y97512394D01*
X53422015Y97722049D01*
X53433527Y97794734D01*
X53463456Y97857867D01*
X53522767Y97894799D01*
X53592630Y97893801D01*
X53650863Y97855191D01*
X53678473Y97794733D01*
X53689985Y97722048D01*
X53758103Y97512397D01*
X53758104Y97512394D01*
X53858187Y97315975D01*
X53987752Y97137642D01*
X53987756Y97137637D01*
X54143636Y96981757D01*
X54143641Y96981753D01*
X54299192Y96868740D01*
X54321978Y96852185D01*
X54421562Y96801444D01*
X54518393Y96752105D01*
X54518396Y96752104D01*
X54623221Y96718045D01*
X54728049Y96683985D01*
X54945778Y96649500D01*
X54945779Y96649500D01*
X55166221Y96649500D01*
X55166222Y96649500D01*
X55383951Y96683985D01*
X55593606Y96752105D01*
X55790022Y96852185D01*
X55968365Y96981758D01*
X56124242Y97137635D01*
X56253815Y97315978D01*
X56353895Y97512394D01*
X56422015Y97722049D01*
X56433527Y97794734D01*
X56463456Y97857867D01*
X56522767Y97894799D01*
X56592630Y97893801D01*
X56650863Y97855191D01*
X56678473Y97794733D01*
X56689985Y97722048D01*
X56758103Y97512397D01*
X56758104Y97512394D01*
X56858187Y97315975D01*
X56987752Y97137642D01*
X56987756Y97137637D01*
X57143636Y96981757D01*
X57143641Y96981753D01*
X57299192Y96868740D01*
X57321978Y96852185D01*
X57421562Y96801444D01*
X57518393Y96752105D01*
X57518396Y96752104D01*
X57623221Y96718045D01*
X57728049Y96683985D01*
X57945778Y96649500D01*
X57945779Y96649500D01*
X58166221Y96649500D01*
X58166222Y96649500D01*
X58383951Y96683985D01*
X58593606Y96752105D01*
X58790022Y96852185D01*
X58968365Y96981758D01*
X59124242Y97137635D01*
X59253815Y97315978D01*
X59353895Y97512394D01*
X59422015Y97722049D01*
X59433527Y97794734D01*
X59463456Y97857867D01*
X59522767Y97894799D01*
X59592630Y97893801D01*
X59650863Y97855191D01*
X59678473Y97794733D01*
X59689985Y97722048D01*
X59758103Y97512397D01*
X59758104Y97512394D01*
X59858187Y97315975D01*
X59987752Y97137642D01*
X59987756Y97137637D01*
X60143636Y96981757D01*
X60143641Y96981753D01*
X60299192Y96868740D01*
X60321978Y96852185D01*
X60421562Y96801444D01*
X60518393Y96752105D01*
X60518396Y96752104D01*
X60623221Y96718045D01*
X60728049Y96683985D01*
X60945778Y96649500D01*
X60945779Y96649500D01*
X61166221Y96649500D01*
X61166222Y96649500D01*
X61383951Y96683985D01*
X61593606Y96752105D01*
X61790022Y96852185D01*
X61968365Y96981758D01*
X62124242Y97137635D01*
X62253815Y97315978D01*
X62353895Y97512394D01*
X62422015Y97722049D01*
X62433527Y97794734D01*
X62463456Y97857867D01*
X62522767Y97894799D01*
X62592630Y97893801D01*
X62650863Y97855191D01*
X62678473Y97794733D01*
X62689985Y97722048D01*
X62758103Y97512397D01*
X62758104Y97512394D01*
X62858187Y97315975D01*
X62987752Y97137642D01*
X62987756Y97137637D01*
X63143636Y96981757D01*
X63143641Y96981753D01*
X63299192Y96868740D01*
X63321978Y96852185D01*
X63421562Y96801444D01*
X63518393Y96752105D01*
X63518396Y96752104D01*
X63623221Y96718045D01*
X63728049Y96683985D01*
X63945778Y96649500D01*
X63945779Y96649500D01*
X64166221Y96649500D01*
X64166222Y96649500D01*
X64383951Y96683985D01*
X64593606Y96752105D01*
X64790022Y96852185D01*
X64968365Y96981758D01*
X65124242Y97137635D01*
X65253815Y97315978D01*
X65353895Y97512394D01*
X65422015Y97722049D01*
X65433527Y97794734D01*
X65463456Y97857867D01*
X65522767Y97894799D01*
X65592630Y97893801D01*
X65650863Y97855191D01*
X65678473Y97794733D01*
X65689985Y97722048D01*
X65758103Y97512397D01*
X65758104Y97512394D01*
X65858187Y97315975D01*
X65987752Y97137642D01*
X65987756Y97137637D01*
X66143636Y96981757D01*
X66143641Y96981753D01*
X66299192Y96868740D01*
X66321978Y96852185D01*
X66421562Y96801444D01*
X66518393Y96752105D01*
X66518396Y96752104D01*
X66623221Y96718045D01*
X66728049Y96683985D01*
X66945778Y96649500D01*
X66945779Y96649500D01*
X67166221Y96649500D01*
X67166222Y96649500D01*
X67383951Y96683985D01*
X67593606Y96752105D01*
X67790022Y96852185D01*
X67968365Y96981758D01*
X68124242Y97137635D01*
X68253815Y97315978D01*
X68353895Y97512394D01*
X68422015Y97722049D01*
X68433527Y97794734D01*
X68463456Y97857867D01*
X68522767Y97894799D01*
X68592630Y97893801D01*
X68650863Y97855191D01*
X68678473Y97794733D01*
X68689985Y97722048D01*
X68758103Y97512397D01*
X68758104Y97512394D01*
X68858187Y97315975D01*
X68987752Y97137642D01*
X68987756Y97137637D01*
X69143636Y96981757D01*
X69143641Y96981753D01*
X69299192Y96868740D01*
X69321978Y96852185D01*
X69421562Y96801444D01*
X69518393Y96752105D01*
X69518396Y96752104D01*
X69623221Y96718045D01*
X69728049Y96683985D01*
X69945778Y96649500D01*
X70090218Y96649500D01*
X70157257Y96629815D01*
X70177898Y96613182D01*
X70984860Y95806219D01*
X70984861Y95806218D01*
X71124218Y95666861D01*
X71288086Y95557368D01*
X71394745Y95513189D01*
X71470164Y95481949D01*
X71663454Y95443501D01*
X71663457Y95443500D01*
X71663459Y95443500D01*
X71860540Y95443500D01*
X72178218Y95443500D01*
X72245257Y95423815D01*
X72265899Y95407181D01*
X72468455Y95204624D01*
X72501940Y95143301D01*
X72496956Y95073609D01*
X72455084Y95017676D01*
X72437070Y95006459D01*
X72321976Y94947815D01*
X72143641Y94818248D01*
X72143636Y94818244D01*
X71987756Y94662364D01*
X71987752Y94662359D01*
X71858187Y94484026D01*
X71758104Y94287607D01*
X71758103Y94287604D01*
X71689985Y94077953D01*
X71678473Y94005268D01*
X71648544Y93942133D01*
X71589232Y93905202D01*
X71519370Y93906200D01*
X71461137Y93944810D01*
X71433527Y94005268D01*
X71422032Y94077841D01*
X71422015Y94077951D01*
X71387955Y94182779D01*
X71353896Y94287604D01*
X71353895Y94287607D01*
X71293436Y94406262D01*
X71253815Y94484022D01*
X71220017Y94530541D01*
X71124247Y94662359D01*
X71124243Y94662364D01*
X70968363Y94818244D01*
X70968358Y94818248D01*
X70790025Y94947813D01*
X70790024Y94947814D01*
X70790022Y94947815D01*
X70727096Y94979878D01*
X70593606Y95047896D01*
X70593603Y95047897D01*
X70383952Y95116015D01*
X70275086Y95133258D01*
X70166222Y95150500D01*
X69945778Y95150500D01*
X69873201Y95139005D01*
X69728047Y95116015D01*
X69518396Y95047897D01*
X69518393Y95047896D01*
X69321974Y94947813D01*
X69143641Y94818248D01*
X69143636Y94818244D01*
X68987756Y94662364D01*
X68987752Y94662359D01*
X68858187Y94484026D01*
X68758104Y94287607D01*
X68758103Y94287604D01*
X68689985Y94077953D01*
X68678473Y94005268D01*
X68648544Y93942133D01*
X68589232Y93905202D01*
X68519370Y93906200D01*
X68461137Y93944810D01*
X68433527Y94005268D01*
X68422032Y94077841D01*
X68422015Y94077951D01*
X68387955Y94182779D01*
X68353896Y94287604D01*
X68353895Y94287607D01*
X68293436Y94406262D01*
X68253815Y94484022D01*
X68220017Y94530541D01*
X68124247Y94662359D01*
X68124243Y94662364D01*
X67968363Y94818244D01*
X67968358Y94818248D01*
X67790025Y94947813D01*
X67790024Y94947814D01*
X67790022Y94947815D01*
X67727096Y94979878D01*
X67593606Y95047896D01*
X67593603Y95047897D01*
X67383952Y95116015D01*
X67275086Y95133258D01*
X67166222Y95150500D01*
X66945778Y95150500D01*
X66873201Y95139005D01*
X66728047Y95116015D01*
X66518396Y95047897D01*
X66518393Y95047896D01*
X66321974Y94947813D01*
X66143641Y94818248D01*
X66143636Y94818244D01*
X65987756Y94662364D01*
X65987752Y94662359D01*
X65858187Y94484026D01*
X65758104Y94287607D01*
X65758103Y94287604D01*
X65689985Y94077953D01*
X65678473Y94005268D01*
X65648544Y93942133D01*
X65589232Y93905202D01*
X65519370Y93906200D01*
X65461137Y93944810D01*
X65433527Y94005268D01*
X65422032Y94077841D01*
X65422015Y94077951D01*
X65387955Y94182779D01*
X65353896Y94287604D01*
X65353895Y94287607D01*
X65293436Y94406262D01*
X65253815Y94484022D01*
X65220017Y94530541D01*
X65124247Y94662359D01*
X65124243Y94662364D01*
X64968363Y94818244D01*
X64968358Y94818248D01*
X64790025Y94947813D01*
X64790024Y94947814D01*
X64790022Y94947815D01*
X64727096Y94979878D01*
X64593606Y95047896D01*
X64593603Y95047897D01*
X64383952Y95116015D01*
X64275086Y95133258D01*
X64166222Y95150500D01*
X63945778Y95150500D01*
X63873201Y95139005D01*
X63728047Y95116015D01*
X63518396Y95047897D01*
X63518393Y95047896D01*
X63321974Y94947813D01*
X63143641Y94818248D01*
X63143636Y94818244D01*
X62987756Y94662364D01*
X62987752Y94662359D01*
X62858187Y94484026D01*
X62758104Y94287607D01*
X62758103Y94287604D01*
X62689985Y94077953D01*
X62678473Y94005268D01*
X62648544Y93942133D01*
X62589232Y93905202D01*
X62519370Y93906200D01*
X62461137Y93944810D01*
X62433527Y94005268D01*
X62422032Y94077841D01*
X62422015Y94077951D01*
X62387955Y94182779D01*
X62353896Y94287604D01*
X62353895Y94287607D01*
X62293436Y94406262D01*
X62253815Y94484022D01*
X62220017Y94530541D01*
X62124247Y94662359D01*
X62124243Y94662364D01*
X61968363Y94818244D01*
X61968358Y94818248D01*
X61790025Y94947813D01*
X61790024Y94947814D01*
X61790022Y94947815D01*
X61727096Y94979878D01*
X61593606Y95047896D01*
X61593603Y95047897D01*
X61383952Y95116015D01*
X61275086Y95133258D01*
X61166222Y95150500D01*
X60945778Y95150500D01*
X60873201Y95139005D01*
X60728047Y95116015D01*
X60518396Y95047897D01*
X60518393Y95047896D01*
X60321974Y94947813D01*
X60143641Y94818248D01*
X60143636Y94818244D01*
X59987756Y94662364D01*
X59987752Y94662359D01*
X59858187Y94484026D01*
X59758104Y94287607D01*
X59758103Y94287604D01*
X59689985Y94077953D01*
X59678473Y94005268D01*
X59648544Y93942133D01*
X59589232Y93905202D01*
X59519370Y93906200D01*
X59461137Y93944810D01*
X59433527Y94005268D01*
X59422032Y94077841D01*
X59422015Y94077951D01*
X59387955Y94182779D01*
X59353896Y94287604D01*
X59353895Y94287607D01*
X59293436Y94406262D01*
X59253815Y94484022D01*
X59220017Y94530541D01*
X59124247Y94662359D01*
X59124243Y94662364D01*
X58968363Y94818244D01*
X58968358Y94818248D01*
X58790025Y94947813D01*
X58790024Y94947814D01*
X58790022Y94947815D01*
X58727096Y94979878D01*
X58593606Y95047896D01*
X58593603Y95047897D01*
X58383952Y95116015D01*
X58275086Y95133258D01*
X58166222Y95150500D01*
X57945778Y95150500D01*
X57873201Y95139005D01*
X57728047Y95116015D01*
X57518396Y95047897D01*
X57518393Y95047896D01*
X57321974Y94947813D01*
X57143641Y94818248D01*
X57143636Y94818244D01*
X56987756Y94662364D01*
X56987752Y94662359D01*
X56858187Y94484026D01*
X56758104Y94287607D01*
X56758103Y94287604D01*
X56689985Y94077953D01*
X56678473Y94005268D01*
X56648544Y93942133D01*
X56589232Y93905202D01*
X56519370Y93906200D01*
X56461137Y93944810D01*
X56433527Y94005268D01*
X56422032Y94077841D01*
X56422015Y94077951D01*
X56387955Y94182779D01*
X56353896Y94287604D01*
X56353895Y94287607D01*
X56293436Y94406262D01*
X56253815Y94484022D01*
X56220017Y94530541D01*
X56124247Y94662359D01*
X56124243Y94662364D01*
X55968363Y94818244D01*
X55968358Y94818248D01*
X55790025Y94947813D01*
X55790024Y94947814D01*
X55790022Y94947815D01*
X55727096Y94979878D01*
X55593606Y95047896D01*
X55593603Y95047897D01*
X55383952Y95116015D01*
X55275086Y95133258D01*
X55166222Y95150500D01*
X54945778Y95150500D01*
X54873201Y95139005D01*
X54728047Y95116015D01*
X54518396Y95047897D01*
X54518393Y95047896D01*
X54321974Y94947813D01*
X54143641Y94818248D01*
X54143636Y94818244D01*
X53987756Y94662364D01*
X53987752Y94662359D01*
X53858187Y94484026D01*
X53758104Y94287607D01*
X53758103Y94287604D01*
X53689985Y94077953D01*
X53678473Y94005268D01*
X53648544Y93942133D01*
X53589232Y93905202D01*
X53519370Y93906200D01*
X53461137Y93944810D01*
X53433527Y94005268D01*
X53422032Y94077841D01*
X53422015Y94077951D01*
X53387955Y94182779D01*
X53353896Y94287604D01*
X53353895Y94287607D01*
X53293436Y94406262D01*
X53253815Y94484022D01*
X53220017Y94530541D01*
X53124247Y94662359D01*
X53124243Y94662364D01*
X52968363Y94818244D01*
X52968358Y94818248D01*
X52790025Y94947813D01*
X52790024Y94947814D01*
X52790022Y94947815D01*
X52727096Y94979878D01*
X52593606Y95047896D01*
X52593603Y95047897D01*
X52383952Y95116015D01*
X52275086Y95133258D01*
X52166222Y95150500D01*
X51945778Y95150500D01*
X51873201Y95139005D01*
X51728047Y95116015D01*
X51518396Y95047897D01*
X51518393Y95047896D01*
X51321974Y94947813D01*
X51143641Y94818248D01*
X51143636Y94818244D01*
X50987756Y94662364D01*
X50987752Y94662359D01*
X50858187Y94484026D01*
X50758104Y94287607D01*
X50758103Y94287604D01*
X50689985Y94077953D01*
X50678473Y94005268D01*
X50648544Y93942133D01*
X50589232Y93905202D01*
X50519370Y93906200D01*
X50461137Y93944810D01*
X50433527Y94005268D01*
X50422032Y94077841D01*
X50422015Y94077951D01*
X50387955Y94182779D01*
X50353896Y94287604D01*
X50353895Y94287607D01*
X50293436Y94406262D01*
X50253815Y94484022D01*
X50220017Y94530541D01*
X50124247Y94662359D01*
X50124243Y94662364D01*
X49968363Y94818244D01*
X49968358Y94818248D01*
X49790025Y94947813D01*
X49790024Y94947814D01*
X49790022Y94947815D01*
X49727096Y94979878D01*
X49593606Y95047896D01*
X49593603Y95047897D01*
X49383952Y95116015D01*
X49275086Y95133258D01*
X49166222Y95150500D01*
X48945778Y95150500D01*
X48873201Y95139005D01*
X48728047Y95116015D01*
X48518396Y95047897D01*
X48518393Y95047896D01*
X48321974Y94947813D01*
X48143641Y94818248D01*
X48143636Y94818244D01*
X47987756Y94662364D01*
X47987752Y94662359D01*
X47858187Y94484026D01*
X47758104Y94287607D01*
X47758103Y94287604D01*
X47689985Y94077953D01*
X47678473Y94005268D01*
X47648544Y93942133D01*
X47589232Y93905202D01*
X47519370Y93906200D01*
X47461137Y93944810D01*
X47433527Y94005268D01*
X47422032Y94077841D01*
X47422015Y94077951D01*
X47387955Y94182779D01*
X47353896Y94287604D01*
X47353895Y94287607D01*
X47293436Y94406262D01*
X47253815Y94484022D01*
X47220017Y94530541D01*
X47124247Y94662359D01*
X47124243Y94662364D01*
X46968363Y94818244D01*
X46968358Y94818248D01*
X46790025Y94947813D01*
X46790024Y94947814D01*
X46790022Y94947815D01*
X46727096Y94979878D01*
X46593606Y95047896D01*
X46593603Y95047897D01*
X46383952Y95116015D01*
X46275086Y95133258D01*
X46166222Y95150500D01*
X45945778Y95150500D01*
X45873201Y95139005D01*
X45728047Y95116015D01*
X45518396Y95047897D01*
X45518393Y95047896D01*
X45321974Y94947813D01*
X45143641Y94818248D01*
X45143636Y94818244D01*
X44987756Y94662364D01*
X44987752Y94662359D01*
X44858187Y94484026D01*
X44758104Y94287607D01*
X44758103Y94287604D01*
X44689985Y94077953D01*
X44678473Y94005268D01*
X44648544Y93942133D01*
X44589232Y93905202D01*
X44519370Y93906200D01*
X44461137Y93944810D01*
X44433527Y94005268D01*
X44422032Y94077841D01*
X44422015Y94077951D01*
X44387955Y94182779D01*
X44353896Y94287604D01*
X44353895Y94287607D01*
X44293436Y94406262D01*
X44253815Y94484022D01*
X44220017Y94530541D01*
X44124247Y94662359D01*
X44124243Y94662364D01*
X43968363Y94818244D01*
X43968358Y94818248D01*
X43790025Y94947813D01*
X43790024Y94947814D01*
X43790022Y94947815D01*
X43727096Y94979878D01*
X43593606Y95047896D01*
X43593603Y95047897D01*
X43383952Y95116015D01*
X43275086Y95133258D01*
X43166222Y95150500D01*
X42945778Y95150500D01*
X42873201Y95139005D01*
X42728047Y95116015D01*
X42518396Y95047897D01*
X42518393Y95047896D01*
X42321974Y94947813D01*
X42143641Y94818248D01*
X42143636Y94818244D01*
X41987756Y94662364D01*
X41987752Y94662359D01*
X41858187Y94484026D01*
X41758104Y94287607D01*
X41758103Y94287604D01*
X41689985Y94077953D01*
X41678473Y94005268D01*
X41648544Y93942133D01*
X41589232Y93905202D01*
X41519370Y93906200D01*
X41461137Y93944810D01*
X41433527Y94005268D01*
X41422032Y94077841D01*
X41422015Y94077951D01*
X41387955Y94182779D01*
X41353896Y94287604D01*
X41353895Y94287607D01*
X41293436Y94406262D01*
X41253815Y94484022D01*
X41220017Y94530541D01*
X41124247Y94662359D01*
X41124243Y94662364D01*
X40968363Y94818244D01*
X40968358Y94818248D01*
X40790025Y94947813D01*
X40790024Y94947814D01*
X40790022Y94947815D01*
X40727096Y94979878D01*
X40593606Y95047896D01*
X40593603Y95047897D01*
X40383952Y95116015D01*
X40275086Y95133258D01*
X40166222Y95150500D01*
X39945778Y95150500D01*
X39873201Y95139005D01*
X39728047Y95116015D01*
X39518396Y95047897D01*
X39518393Y95047896D01*
X39321974Y94947813D01*
X39143641Y94818248D01*
X39143636Y94818244D01*
X38987756Y94662364D01*
X38987752Y94662359D01*
X38858187Y94484026D01*
X38758104Y94287607D01*
X38758103Y94287604D01*
X38689985Y94077953D01*
X38678473Y94005268D01*
X38648544Y93942133D01*
X38589232Y93905202D01*
X38519370Y93906200D01*
X38461137Y93944810D01*
X38433527Y94005268D01*
X38422032Y94077841D01*
X38422015Y94077951D01*
X38387955Y94182779D01*
X38353896Y94287604D01*
X38353895Y94287607D01*
X38293436Y94406262D01*
X38253815Y94484022D01*
X38220017Y94530541D01*
X38124247Y94662359D01*
X38124243Y94662364D01*
X37968363Y94818244D01*
X37968358Y94818248D01*
X37790025Y94947813D01*
X37790024Y94947814D01*
X37790022Y94947815D01*
X37727096Y94979878D01*
X37593606Y95047896D01*
X37593603Y95047897D01*
X37383952Y95116015D01*
X37275086Y95133258D01*
X37166222Y95150500D01*
X36945778Y95150500D01*
X36873201Y95139005D01*
X36728047Y95116015D01*
X36518396Y95047897D01*
X36518393Y95047896D01*
X36321974Y94947813D01*
X36143641Y94818248D01*
X36143636Y94818244D01*
X35987756Y94662364D01*
X35987752Y94662359D01*
X35858187Y94484026D01*
X35758104Y94287607D01*
X35758103Y94287604D01*
X35689985Y94077953D01*
X35655500Y93860222D01*
X35655500Y93715782D01*
X35635815Y93648743D01*
X35619181Y93628101D01*
X34977899Y92986819D01*
X34916576Y92953334D01*
X34890218Y92950500D01*
X32672744Y92950500D01*
X32605705Y92970185D01*
X32559950Y93022989D01*
X32549524Y93088384D01*
X32555565Y93141998D01*
X32555565Y93142004D01*
X32535369Y93321250D01*
X32535366Y93321263D01*
X32479106Y93482045D01*
X32475544Y93551824D01*
X32479106Y93563955D01*
X32535366Y93724738D01*
X32535369Y93724751D01*
X32555565Y93903997D01*
X32555565Y93904004D01*
X32535369Y94083250D01*
X32535368Y94083255D01*
X32475788Y94253524D01*
X32379815Y94406263D01*
X32252262Y94533816D01*
X32099523Y94629789D01*
X31929254Y94689369D01*
X31929249Y94689370D01*
X31750004Y94709565D01*
X31749996Y94709565D01*
X31570750Y94689370D01*
X31570745Y94689369D01*
X31400476Y94629789D01*
X31247737Y94533816D01*
X31120184Y94406263D01*
X31024211Y94253524D01*
X30964631Y94083255D01*
X30964630Y94083250D01*
X30944435Y93904004D01*
X30944435Y93903997D01*
X30964630Y93724751D01*
X30964633Y93724738D01*
X31020894Y93563955D01*
X31024456Y93494176D01*
X31020894Y93482045D01*
X30964633Y93321263D01*
X30964630Y93321250D01*
X30944435Y93142004D01*
X30944435Y93141998D01*
X30950476Y93088384D01*
X30938422Y93019562D01*
X30891073Y92968183D01*
X30827256Y92950500D01*
X30504456Y92950500D01*
X30437417Y92970185D01*
X30391662Y93022989D01*
X30381718Y93092147D01*
X30386525Y93112817D01*
X30422014Y93222046D01*
X30422013Y93222046D01*
X30422015Y93222049D01*
X30456500Y93439778D01*
X30456500Y93860222D01*
X30422015Y94077951D01*
X30387955Y94182779D01*
X30353896Y94287604D01*
X30353895Y94287607D01*
X30293436Y94406262D01*
X30253815Y94484022D01*
X30220017Y94530541D01*
X30124247Y94662359D01*
X30124243Y94662364D01*
X29968363Y94818244D01*
X29968358Y94818248D01*
X29790025Y94947813D01*
X29790024Y94947814D01*
X29790022Y94947815D01*
X29727096Y94979878D01*
X29593606Y95047896D01*
X29593603Y95047897D01*
X29383952Y95116015D01*
X29275086Y95133258D01*
X29166222Y95150500D01*
X28945778Y95150500D01*
X28873201Y95139005D01*
X28728047Y95116015D01*
X28518396Y95047897D01*
X28518393Y95047896D01*
X28321974Y94947813D01*
X28143641Y94818248D01*
X28143636Y94818244D01*
X27987756Y94662364D01*
X27987752Y94662359D01*
X27858187Y94484026D01*
X27758104Y94287607D01*
X27758103Y94287604D01*
X27689985Y94077953D01*
X27678473Y94005268D01*
X27648544Y93942133D01*
X27589232Y93905202D01*
X27519370Y93906200D01*
X27461137Y93944810D01*
X27433527Y94005268D01*
X27422032Y94077841D01*
X27422015Y94077951D01*
X27387955Y94182779D01*
X27353896Y94287604D01*
X27353895Y94287607D01*
X27293436Y94406262D01*
X27253815Y94484022D01*
X27220017Y94530541D01*
X27124247Y94662359D01*
X27124243Y94662364D01*
X26968363Y94818244D01*
X26968358Y94818248D01*
X26790025Y94947813D01*
X26790024Y94947814D01*
X26790022Y94947815D01*
X26727096Y94979878D01*
X26593606Y95047896D01*
X26593603Y95047897D01*
X26383952Y95116015D01*
X26275086Y95133258D01*
X26166222Y95150500D01*
X25945778Y95150500D01*
X25873201Y95139005D01*
X25728047Y95116015D01*
X25518396Y95047897D01*
X25518393Y95047896D01*
X25321974Y94947813D01*
X25143641Y94818248D01*
X25143636Y94818244D01*
X24987756Y94662364D01*
X24987752Y94662359D01*
X24858187Y94484026D01*
X24758104Y94287607D01*
X24758103Y94287604D01*
X24689985Y94077953D01*
X24678473Y94005268D01*
X24648544Y93942133D01*
X24589232Y93905202D01*
X24519370Y93906200D01*
X24461137Y93944810D01*
X24433527Y94005268D01*
X24422032Y94077841D01*
X24422015Y94077951D01*
X24387955Y94182779D01*
X24353896Y94287604D01*
X24353895Y94287607D01*
X24293436Y94406262D01*
X24253815Y94484022D01*
X24220017Y94530541D01*
X24124247Y94662359D01*
X24124243Y94662364D01*
X23968363Y94818244D01*
X23968358Y94818248D01*
X23790025Y94947813D01*
X23790024Y94947814D01*
X23790022Y94947815D01*
X23727096Y94979878D01*
X23593606Y95047896D01*
X23593603Y95047897D01*
X23383952Y95116015D01*
X23275086Y95133258D01*
X23166222Y95150500D01*
X22945778Y95150500D01*
X22873201Y95139005D01*
X22728047Y95116015D01*
X22518396Y95047897D01*
X22518393Y95047896D01*
X22321974Y94947813D01*
X22143641Y94818248D01*
X22143636Y94818244D01*
X21987756Y94662364D01*
X21987752Y94662359D01*
X21858187Y94484026D01*
X21758104Y94287607D01*
X21758103Y94287604D01*
X21689985Y94077953D01*
X21678473Y94005268D01*
X21648544Y93942133D01*
X21589232Y93905202D01*
X21519370Y93906200D01*
X21461137Y93944810D01*
X21433527Y94005268D01*
X21422032Y94077841D01*
X21422015Y94077951D01*
X21387955Y94182779D01*
X21353896Y94287604D01*
X21353895Y94287607D01*
X21293436Y94406262D01*
X21253815Y94484022D01*
X21220017Y94530541D01*
X21124247Y94662359D01*
X21124243Y94662364D01*
X20968363Y94818244D01*
X20968358Y94818248D01*
X20790025Y94947813D01*
X20790024Y94947814D01*
X20790022Y94947815D01*
X20727096Y94979878D01*
X20593606Y95047896D01*
X20593603Y95047897D01*
X20383952Y95116015D01*
X20275086Y95133258D01*
X20166222Y95150500D01*
X19945778Y95150500D01*
X19873201Y95139005D01*
X19728047Y95116015D01*
X19518396Y95047897D01*
X19518393Y95047896D01*
X19321974Y94947813D01*
X19143641Y94818248D01*
X19143636Y94818244D01*
X18987756Y94662364D01*
X18987752Y94662359D01*
X18858187Y94484026D01*
X18758104Y94287607D01*
X18758103Y94287604D01*
X18689985Y94077953D01*
X18678473Y94005268D01*
X18648544Y93942133D01*
X18589232Y93905202D01*
X18519370Y93906200D01*
X18461137Y93944810D01*
X18433527Y94005268D01*
X18422032Y94077841D01*
X18422015Y94077951D01*
X18387955Y94182779D01*
X18353896Y94287604D01*
X18353895Y94287607D01*
X18293436Y94406262D01*
X18253815Y94484022D01*
X18220017Y94530541D01*
X18124247Y94662359D01*
X18124243Y94662364D01*
X17968363Y94818244D01*
X17968358Y94818248D01*
X17790025Y94947813D01*
X17790024Y94947814D01*
X17790022Y94947815D01*
X17727096Y94979878D01*
X17593606Y95047896D01*
X17593603Y95047897D01*
X17383952Y95116015D01*
X17275086Y95133258D01*
X17166222Y95150500D01*
X16945778Y95150500D01*
X16873201Y95139005D01*
X16728047Y95116015D01*
X16518396Y95047897D01*
X16518393Y95047896D01*
X16321974Y94947813D01*
X16143641Y94818248D01*
X16143636Y94818244D01*
X15987756Y94662364D01*
X15987752Y94662359D01*
X15858187Y94484026D01*
X15758104Y94287607D01*
X15758103Y94287604D01*
X15689985Y94077953D01*
X15678219Y94003668D01*
X15648289Y93940534D01*
X15588977Y93903603D01*
X15519115Y93904601D01*
X15460882Y93943212D01*
X15433272Y94003670D01*
X15421525Y94077841D01*
X15353432Y94287411D01*
X15253387Y94483759D01*
X15253386Y94483761D01*
X15249146Y94489596D01*
X14579786Y93820237D01*
X14568518Y93862292D01*
X14496110Y93987708D01*
X14393708Y94090110D01*
X14268292Y94162518D01*
X14226234Y94173788D01*
X14911433Y94858986D01*
X14789760Y94947387D01*
X14593410Y95047433D01*
X14383835Y95115527D01*
X14166181Y95150000D01*
X13945819Y95150000D01*
X13728164Y95115527D01*
X13518589Y95047433D01*
X13322243Y94947389D01*
X13200565Y94858986D01*
X13885763Y94173788D01*
X13843708Y94162518D01*
X13718292Y94090110D01*
X13615890Y93987708D01*
X13543482Y93862292D01*
X13532212Y93820236D01*
X12862852Y94489595D01*
X12862850Y94489595D01*
X12858615Y94483765D01*
X12858611Y94483759D01*
X12758567Y94287411D01*
X12690473Y94077836D01*
X12678726Y94003669D01*
X12648797Y93940534D01*
X12589485Y93903603D01*
X12519622Y93904601D01*
X12461390Y93943211D01*
X12433780Y94003670D01*
X12422015Y94077952D01*
X12353896Y94287604D01*
X12353895Y94287607D01*
X12293436Y94406262D01*
X12253815Y94484022D01*
X12220017Y94530541D01*
X12124247Y94662359D01*
X12124243Y94662364D01*
X11968363Y94818244D01*
X11968358Y94818248D01*
X11790025Y94947813D01*
X11790024Y94947814D01*
X11790022Y94947815D01*
X11727096Y94979878D01*
X11593606Y95047896D01*
X11593603Y95047897D01*
X11383952Y95116015D01*
X11275086Y95133258D01*
X11166222Y95150500D01*
X10945778Y95150500D01*
X10873201Y95139005D01*
X10728047Y95116015D01*
X10518396Y95047897D01*
X10518393Y95047896D01*
X10321974Y94947813D01*
X10143641Y94818248D01*
X10143636Y94818244D01*
X9987756Y94662364D01*
X9987752Y94662359D01*
X9858187Y94484026D01*
X9758104Y94287607D01*
X9758103Y94287604D01*
X9689985Y94077953D01*
X9678473Y94005268D01*
X9648544Y93942133D01*
X9589232Y93905202D01*
X9519370Y93906200D01*
X9461137Y93944810D01*
X9433527Y94005268D01*
X9422032Y94077841D01*
X9422015Y94077951D01*
X9387955Y94182779D01*
X9353896Y94287604D01*
X9353895Y94287607D01*
X9293436Y94406262D01*
X9253815Y94484022D01*
X9220017Y94530541D01*
X9124247Y94662359D01*
X9124243Y94662364D01*
X8968363Y94818244D01*
X8968358Y94818248D01*
X8790025Y94947813D01*
X8790024Y94947814D01*
X8790022Y94947815D01*
X8727096Y94979878D01*
X8593606Y95047896D01*
X8593603Y95047897D01*
X8383952Y95116015D01*
X8275086Y95133258D01*
X8166222Y95150500D01*
X7945778Y95150500D01*
X7873201Y95139005D01*
X7728047Y95116015D01*
X7518396Y95047897D01*
X7518393Y95047896D01*
X7321974Y94947813D01*
X7143641Y94818248D01*
X7143636Y94818244D01*
X6987756Y94662364D01*
X6987752Y94662359D01*
X6858187Y94484026D01*
X6758104Y94287607D01*
X6758103Y94287604D01*
X6689985Y94077953D01*
X6678201Y94003552D01*
X6655500Y93860222D01*
X6655500Y93439778D01*
X6668644Y93356791D01*
X6689985Y93222048D01*
X6758103Y93012397D01*
X6758104Y93012394D01*
X6799464Y92931223D01*
X6858050Y92816242D01*
X6858187Y92815975D01*
X6987752Y92637642D01*
X6987756Y92637637D01*
X7143636Y92481757D01*
X7143641Y92481753D01*
X7299192Y92368740D01*
X7321978Y92352185D01*
X7427744Y92298294D01*
X7518393Y92252105D01*
X7518396Y92252104D01*
X7612677Y92221471D01*
X7728049Y92183985D01*
X7945778Y92149500D01*
X7945779Y92149500D01*
X8166221Y92149500D01*
X8166222Y92149500D01*
X8383951Y92183985D01*
X8593606Y92252105D01*
X8790022Y92352185D01*
X8968365Y92481758D01*
X9124242Y92637635D01*
X9253815Y92815978D01*
X9353895Y93012394D01*
X9422015Y93222049D01*
X9433527Y93294734D01*
X9463456Y93357867D01*
X9522767Y93394799D01*
X9592630Y93393801D01*
X9650863Y93355191D01*
X9678473Y93294733D01*
X9689985Y93222048D01*
X9758103Y93012397D01*
X9758104Y93012394D01*
X9799464Y92931223D01*
X9858050Y92816242D01*
X9858187Y92815975D01*
X9987752Y92637642D01*
X9987756Y92637637D01*
X10143636Y92481757D01*
X10143641Y92481753D01*
X10299192Y92368740D01*
X10321978Y92352185D01*
X10427744Y92298294D01*
X10518393Y92252105D01*
X10518396Y92252104D01*
X10612677Y92221471D01*
X10728049Y92183985D01*
X10945778Y92149500D01*
X10945779Y92149500D01*
X11166221Y92149500D01*
X11166222Y92149500D01*
X11383951Y92183985D01*
X11593606Y92252105D01*
X11790022Y92352185D01*
X11968365Y92481758D01*
X12124242Y92637635D01*
X12253815Y92815978D01*
X12353895Y93012394D01*
X12422015Y93222049D01*
X12433780Y93296332D01*
X12463709Y93359466D01*
X12523020Y93396398D01*
X12592883Y93395400D01*
X12651116Y93356791D01*
X12678726Y93296332D01*
X12690473Y93222165D01*
X12758567Y93012590D01*
X12858611Y92816242D01*
X12858615Y92816236D01*
X12862850Y92810406D01*
X12862852Y92810406D01*
X13532212Y93479766D01*
X13543482Y93437708D01*
X13615890Y93312292D01*
X13718292Y93209890D01*
X13843708Y93137482D01*
X13885763Y93126214D01*
X13200565Y92441015D01*
X13200566Y92441014D01*
X13322236Y92352616D01*
X13518589Y92252568D01*
X13728164Y92184474D01*
X13945819Y92150000D01*
X14166181Y92150000D01*
X14383835Y92184474D01*
X14593410Y92252568D01*
X14789760Y92352614D01*
X14911433Y92441016D01*
X14911434Y92441016D01*
X14226236Y93126214D01*
X14268292Y93137482D01*
X14393708Y93209890D01*
X14496110Y93312292D01*
X14568518Y93437708D01*
X14579787Y93479766D01*
X15249146Y92810406D01*
X15253386Y92816241D01*
X15353432Y93012590D01*
X15421525Y93222160D01*
X15433272Y93296331D01*
X15463201Y93359466D01*
X15522512Y93396397D01*
X15592375Y93395401D01*
X15650608Y93356791D01*
X15678219Y93296333D01*
X15689985Y93222048D01*
X15758103Y93012397D01*
X15758104Y93012394D01*
X15799464Y92931223D01*
X15858050Y92816242D01*
X15858187Y92815975D01*
X15987752Y92637642D01*
X15987756Y92637637D01*
X16143636Y92481757D01*
X16143641Y92481753D01*
X16299192Y92368740D01*
X16321978Y92352185D01*
X16427744Y92298294D01*
X16518393Y92252105D01*
X16518396Y92252104D01*
X16612677Y92221471D01*
X16728049Y92183985D01*
X16945778Y92149500D01*
X16945779Y92149500D01*
X17166221Y92149500D01*
X17166222Y92149500D01*
X17383951Y92183985D01*
X17593606Y92252105D01*
X17790022Y92352185D01*
X17968365Y92481758D01*
X18124242Y92637635D01*
X18253815Y92815978D01*
X18353895Y93012394D01*
X18422015Y93222049D01*
X18433527Y93294734D01*
X18463456Y93357867D01*
X18522767Y93394799D01*
X18592630Y93393801D01*
X18650863Y93355191D01*
X18678473Y93294733D01*
X18689985Y93222048D01*
X18758103Y93012397D01*
X18758104Y93012394D01*
X18799464Y92931223D01*
X18858050Y92816242D01*
X18858187Y92815975D01*
X18987752Y92637642D01*
X18987756Y92637637D01*
X19143636Y92481757D01*
X19143641Y92481753D01*
X19299192Y92368740D01*
X19321978Y92352185D01*
X19427744Y92298294D01*
X19518393Y92252105D01*
X19518396Y92252104D01*
X19612677Y92221471D01*
X19728049Y92183985D01*
X19945778Y92149500D01*
X19945779Y92149500D01*
X20166221Y92149500D01*
X20166222Y92149500D01*
X20383951Y92183985D01*
X20593606Y92252105D01*
X20790022Y92352185D01*
X20968365Y92481758D01*
X21124242Y92637635D01*
X21253815Y92815978D01*
X21353895Y93012394D01*
X21422015Y93222049D01*
X21433527Y93294734D01*
X21463456Y93357867D01*
X21522767Y93394799D01*
X21592630Y93393801D01*
X21650863Y93355191D01*
X21678473Y93294733D01*
X21689985Y93222048D01*
X21758103Y93012397D01*
X21758104Y93012394D01*
X21799464Y92931223D01*
X21858050Y92816242D01*
X21858187Y92815975D01*
X21987752Y92637642D01*
X21987756Y92637637D01*
X22143636Y92481757D01*
X22143641Y92481753D01*
X22299192Y92368740D01*
X22321978Y92352185D01*
X22427744Y92298294D01*
X22518393Y92252105D01*
X22518396Y92252104D01*
X22612677Y92221471D01*
X22728049Y92183985D01*
X22945778Y92149500D01*
X22945779Y92149500D01*
X23166221Y92149500D01*
X23166222Y92149500D01*
X23383951Y92183985D01*
X23593606Y92252105D01*
X23790022Y92352185D01*
X23968365Y92481758D01*
X24124242Y92637635D01*
X24253815Y92815978D01*
X24353895Y93012394D01*
X24422015Y93222049D01*
X24433527Y93294734D01*
X24463456Y93357867D01*
X24522767Y93394799D01*
X24592630Y93393801D01*
X24650863Y93355191D01*
X24678473Y93294733D01*
X24689985Y93222048D01*
X24758103Y93012397D01*
X24758104Y93012394D01*
X24799464Y92931223D01*
X24858050Y92816242D01*
X24858187Y92815975D01*
X24987752Y92637642D01*
X24987756Y92637637D01*
X25143636Y92481757D01*
X25143641Y92481753D01*
X25299192Y92368740D01*
X25321978Y92352185D01*
X25427744Y92298294D01*
X25518393Y92252105D01*
X25518396Y92252104D01*
X25612677Y92221471D01*
X25728049Y92183985D01*
X25945778Y92149500D01*
X25945779Y92149500D01*
X26166221Y92149500D01*
X26166222Y92149500D01*
X26383951Y92183985D01*
X26593606Y92252105D01*
X26790022Y92352185D01*
X26968365Y92481758D01*
X27124242Y92637635D01*
X27253815Y92815978D01*
X27353895Y93012394D01*
X27422015Y93222049D01*
X27433527Y93294734D01*
X27463456Y93357867D01*
X27522767Y93394799D01*
X27592630Y93393801D01*
X27650863Y93355191D01*
X27678473Y93294733D01*
X27689985Y93222048D01*
X27758103Y93012397D01*
X27758104Y93012394D01*
X27810275Y92910005D01*
X27823171Y92841336D01*
X27796895Y92776595D01*
X27768683Y92750609D01*
X27733559Y92727140D01*
X27733557Y92727138D01*
X24179945Y89173524D01*
X23042222Y88035801D01*
X23042220Y88035799D01*
X22972540Y87966120D01*
X22902861Y87896441D01*
X22793373Y87732581D01*
X22793366Y87732568D01*
X22746119Y87618500D01*
X22746119Y87618499D01*
X22727066Y87572501D01*
X22717952Y87550499D01*
X22717949Y87550491D01*
X22679502Y87357204D01*
X22679502Y86988416D01*
X22659817Y86921377D01*
X22657078Y86917294D01*
X22645583Y86900877D01*
X22591006Y86857251D01*
X22588822Y86856822D01*
X22580000Y86847999D01*
X22580000Y86825465D01*
X22568382Y86773060D01*
X22500428Y86627332D01*
X22500424Y86627323D01*
X22443795Y86415980D01*
X22443795Y86415976D01*
X22424725Y86198003D01*
X22424725Y86197998D01*
X22430693Y86129786D01*
X22438312Y86042690D01*
X22443795Y85980025D01*
X22443795Y85980021D01*
X22500424Y85768678D01*
X22500426Y85768674D01*
X22500427Y85768670D01*
X22568382Y85622941D01*
X22580000Y85570536D01*
X22580000Y70047996D01*
X25213913Y70047996D01*
X25280952Y70028311D01*
X25326707Y69975507D01*
X25330955Y69964950D01*
X25354213Y69898481D01*
X25421215Y69791849D01*
X25450186Y69745742D01*
X25577740Y69618188D01*
X25615734Y69594315D01*
X25688749Y69548436D01*
X25730480Y69522215D01*
X25855379Y69478511D01*
X25900747Y69462636D01*
X25900752Y69462635D01*
X26079998Y69442439D01*
X26080002Y69442439D01*
X26080006Y69442439D01*
X26259251Y69462635D01*
X26259254Y69462636D01*
X26259257Y69462636D01*
X26429524Y69522215D01*
X26514030Y69575315D01*
X26581265Y69594315D01*
X26645973Y69575315D01*
X26703432Y69539211D01*
X26730481Y69522215D01*
X26855380Y69478511D01*
X26900748Y69462636D01*
X26900753Y69462635D01*
X27079999Y69442439D01*
X27080003Y69442439D01*
X27080007Y69442439D01*
X27259252Y69462635D01*
X27259255Y69462636D01*
X27259258Y69462636D01*
X27429525Y69522215D01*
X27582265Y69618188D01*
X27709819Y69745742D01*
X27805792Y69898482D01*
X27829050Y69964951D01*
X27869772Y70021726D01*
X27934725Y70047474D01*
X27946092Y70047996D01*
X28269501Y70047996D01*
X28336540Y70028311D01*
X28382295Y69975507D01*
X28393501Y69923996D01*
X28393501Y45615073D01*
X28374495Y45549101D01*
X28318212Y45459528D01*
X28294949Y45393044D01*
X28254227Y45336268D01*
X28189274Y45310521D01*
X28177907Y45309999D01*
X23910091Y45309999D01*
X23843052Y45329684D01*
X23797297Y45382488D01*
X23793049Y45393044D01*
X23769785Y45459528D01*
X23673812Y45612267D01*
X23546259Y45739820D01*
X23393520Y45835793D01*
X23223251Y45895373D01*
X23223246Y45895374D01*
X23044001Y45915569D01*
X23043993Y45915569D01*
X22864747Y45895374D01*
X22864742Y45895373D01*
X22694473Y45835793D01*
X22541734Y45739820D01*
X22414181Y45612267D01*
X22318208Y45459528D01*
X22258628Y45289259D01*
X22258627Y45289254D01*
X22238432Y45110008D01*
X22238432Y45110001D01*
X22258627Y44930755D01*
X22258628Y44930750D01*
X22318208Y44760481D01*
X22414181Y44607742D01*
X22541735Y44480188D01*
X22694475Y44384215D01*
X22760950Y44360955D01*
X22817726Y44320234D01*
X22843474Y44255281D01*
X22843996Y44243913D01*
X22843996Y36376097D01*
X22824311Y36309058D01*
X22771507Y36263303D01*
X22760952Y36259056D01*
X22694472Y36235794D01*
X22694471Y36235793D01*
X22541733Y36139821D01*
X22414180Y36012268D01*
X22318207Y35859529D01*
X22258627Y35689260D01*
X22258626Y35689255D01*
X22238431Y35510009D01*
X22238431Y35510002D01*
X22258626Y35330756D01*
X22258629Y35330743D01*
X22318205Y35160485D01*
X22371305Y35075976D01*
X22390305Y35008739D01*
X22371305Y34944034D01*
X22318205Y34859526D01*
X22258629Y34689268D01*
X22258626Y34689255D01*
X22238431Y34510009D01*
X22238431Y34510002D01*
X22258626Y34330756D01*
X22258629Y34330743D01*
X22318205Y34160485D01*
X22371305Y34075976D01*
X22390305Y34008739D01*
X22371305Y33944034D01*
X22318205Y33859526D01*
X22258629Y33689268D01*
X22258626Y33689255D01*
X22238431Y33510009D01*
X22238431Y33510002D01*
X22258626Y33330756D01*
X22258629Y33330743D01*
X22318205Y33160485D01*
X22371305Y33075976D01*
X22390305Y33008739D01*
X22371305Y32944034D01*
X22318205Y32859526D01*
X22258629Y32689268D01*
X22258626Y32689255D01*
X22238431Y32510009D01*
X22238431Y32510002D01*
X22258626Y32330756D01*
X22258629Y32330743D01*
X22318205Y32160485D01*
X22371305Y32075976D01*
X22390305Y32008739D01*
X22371305Y31944034D01*
X22318205Y31859526D01*
X22258629Y31689268D01*
X22258626Y31689255D01*
X22238431Y31510009D01*
X22238431Y31510002D01*
X22258626Y31330756D01*
X22258629Y31330743D01*
X22318205Y31160485D01*
X22371305Y31075976D01*
X22390305Y31008739D01*
X22371305Y30944034D01*
X22318205Y30859526D01*
X22258629Y30689268D01*
X22258626Y30689255D01*
X22238431Y30510009D01*
X22238431Y30510002D01*
X22258626Y30330756D01*
X22258627Y30330751D01*
X22318207Y30160481D01*
X22371307Y30075975D01*
X22390308Y30008738D01*
X22371308Y29944031D01*
X22318206Y29859520D01*
X22258630Y29689262D01*
X22258627Y29689249D01*
X22238432Y29510003D01*
X22238432Y29509996D01*
X22258627Y29330750D01*
X22258628Y29330745D01*
X22318209Y29160474D01*
X22371305Y29075971D01*
X22390305Y29008735D01*
X22371305Y28944029D01*
X22318209Y28859527D01*
X22258628Y28689256D01*
X22258627Y28689251D01*
X22238432Y28510005D01*
X22238432Y28509998D01*
X22258627Y28330752D01*
X22258630Y28330739D01*
X22318206Y28160481D01*
X22371306Y28075972D01*
X22390306Y28008735D01*
X22371306Y27944030D01*
X22318206Y27859522D01*
X22258630Y27689264D01*
X22258627Y27689251D01*
X22238432Y27510005D01*
X22238432Y27509998D01*
X22258627Y27330752D01*
X22258628Y27330747D01*
X22318209Y27160476D01*
X22371305Y27075973D01*
X22390305Y27008737D01*
X22371305Y26944031D01*
X22318209Y26859529D01*
X22258628Y26689258D01*
X22258627Y26689253D01*
X22238432Y26510007D01*
X22238432Y26510000D01*
X22258627Y26330754D01*
X22258628Y26330749D01*
X22318208Y26160480D01*
X22371306Y26075975D01*
X22390306Y26008738D01*
X22371306Y25944032D01*
X22318210Y25859530D01*
X22318206Y25859521D01*
X22258630Y25689265D01*
X22258627Y25689252D01*
X22238432Y25510006D01*
X22238432Y25509999D01*
X22258627Y25330753D01*
X22258630Y25330740D01*
X22318206Y25160482D01*
X22371306Y25075973D01*
X22390306Y25008736D01*
X22371306Y24944031D01*
X22318206Y24859523D01*
X22258630Y24689265D01*
X22258627Y24689252D01*
X22238432Y24510006D01*
X22238432Y24509999D01*
X22258627Y24330753D01*
X22258628Y24330748D01*
X22318209Y24160477D01*
X22371305Y24075974D01*
X22390305Y24008738D01*
X22371305Y23944032D01*
X22318209Y23859530D01*
X22258628Y23689259D01*
X22258627Y23689254D01*
X22238432Y23510008D01*
X22238432Y23510001D01*
X22258627Y23330755D01*
X22258628Y23330750D01*
X22318208Y23160481D01*
X22371306Y23075976D01*
X22390306Y23008739D01*
X22371306Y22944033D01*
X22318210Y22859531D01*
X22318206Y22859522D01*
X22258630Y22689266D01*
X22258627Y22689253D01*
X22238432Y22510007D01*
X22238432Y22510000D01*
X22258627Y22330754D01*
X22258630Y22330741D01*
X22318206Y22160485D01*
X22318208Y22160481D01*
X22371305Y22075977D01*
X22390305Y22008740D01*
X22371305Y21944034D01*
X22318205Y21859526D01*
X22258629Y21689268D01*
X22258626Y21689255D01*
X22238431Y21510009D01*
X22238431Y21510002D01*
X22258626Y21330756D01*
X22258627Y21330751D01*
X22318207Y21160482D01*
X22362957Y21089264D01*
X22414180Y21007743D01*
X22541734Y20880189D01*
X22615248Y20833997D01*
X22694474Y20784216D01*
X22760950Y20760955D01*
X22817726Y20720233D01*
X22843474Y20655281D01*
X22843996Y20643913D01*
X22843996Y16376099D01*
X22824311Y16309060D01*
X22771507Y16263305D01*
X22760952Y16259058D01*
X22694473Y16235796D01*
X22694472Y16235795D01*
X22541734Y16139823D01*
X22414181Y16012270D01*
X22318208Y15859531D01*
X22258628Y15689262D01*
X22258627Y15689257D01*
X22238432Y15510011D01*
X22238432Y15510004D01*
X22258627Y15330758D01*
X22258628Y15330753D01*
X22318208Y15160484D01*
X22414181Y15007745D01*
X22541735Y14880191D01*
X22694475Y14784218D01*
X22760950Y14760958D01*
X22817726Y14720237D01*
X22843474Y14655284D01*
X22843996Y14643916D01*
X22843996Y9976097D01*
X22824311Y9909058D01*
X22771507Y9863303D01*
X22760951Y9859056D01*
X22694474Y9835795D01*
X22694470Y9835793D01*
X22541732Y9739821D01*
X22414179Y9612268D01*
X22318206Y9459529D01*
X22258626Y9289260D01*
X22258625Y9289255D01*
X22238430Y9110009D01*
X22238430Y9110002D01*
X22258625Y8930756D01*
X22258626Y8930751D01*
X22318206Y8760482D01*
X22371304Y8675977D01*
X22390304Y8608740D01*
X22371304Y8544034D01*
X22318208Y8459532D01*
X22318204Y8459523D01*
X22258628Y8289267D01*
X22258625Y8289254D01*
X22238430Y8110008D01*
X22238430Y8110001D01*
X22258625Y7930755D01*
X22258626Y7930750D01*
X22318206Y7760481D01*
X22399718Y7630756D01*
X22414179Y7607742D01*
X22541733Y7480188D01*
X22694473Y7384215D01*
X22760950Y7360954D01*
X22817726Y7320232D01*
X22843474Y7255280D01*
X22843996Y7243912D01*
X22843996Y6193039D01*
X22824311Y6126000D01*
X22816943Y6115726D01*
X22814181Y6112263D01*
X22718208Y5959525D01*
X22658628Y5789256D01*
X22658627Y5789251D01*
X22638432Y5610005D01*
X22638432Y5609998D01*
X22658627Y5430752D01*
X22658628Y5430747D01*
X22718208Y5260478D01*
X22814181Y5107739D01*
X22941735Y4980185D01*
X23094475Y4884212D01*
X23264742Y4824633D01*
X23264747Y4824632D01*
X23443993Y4804436D01*
X23443997Y4804436D01*
X23444001Y4804436D01*
X23623246Y4824632D01*
X23623249Y4824633D01*
X23623252Y4824633D01*
X23793519Y4884212D01*
X23946259Y4980185D01*
X24073813Y5107739D01*
X24169786Y5260479D01*
X24193048Y5326959D01*
X24233768Y5383731D01*
X24298721Y5409478D01*
X24310088Y5410000D01*
X24977906Y5410000D01*
X25044945Y5390315D01*
X25090700Y5337511D01*
X25094939Y5326977D01*
X25118208Y5260479D01*
X25118209Y5260478D01*
X25118210Y5260475D01*
X25214181Y5107739D01*
X25341735Y4980185D01*
X25494475Y4884212D01*
X25664742Y4824633D01*
X25664747Y4824632D01*
X25843993Y4804436D01*
X25843997Y4804436D01*
X25844001Y4804436D01*
X26023246Y4824632D01*
X26023249Y4824633D01*
X26023252Y4824633D01*
X26193519Y4884212D01*
X26346259Y4980185D01*
X26356316Y4990242D01*
X26417639Y5023727D01*
X26487331Y5018743D01*
X26531678Y4990242D01*
X26541735Y4980185D01*
X26694475Y4884212D01*
X26864742Y4824633D01*
X26864747Y4824632D01*
X27043993Y4804436D01*
X27043997Y4804436D01*
X27044001Y4804436D01*
X27223246Y4824632D01*
X27223249Y4824633D01*
X27223252Y4824633D01*
X27393519Y4884212D01*
X27546259Y4980185D01*
X27556315Y4990241D01*
X27617638Y5023726D01*
X27687330Y5018742D01*
X27731677Y4990241D01*
X27741733Y4980185D01*
X27894473Y4884212D01*
X28064740Y4824633D01*
X28064745Y4824632D01*
X28243991Y4804436D01*
X28243995Y4804436D01*
X28243999Y4804436D01*
X28423244Y4824632D01*
X28423247Y4824633D01*
X28423250Y4824633D01*
X28593517Y4884212D01*
X28746257Y4980185D01*
X28756314Y4990242D01*
X28817637Y5023727D01*
X28887329Y5018743D01*
X28931676Y4990242D01*
X28941733Y4980185D01*
X29094473Y4884212D01*
X29264740Y4824633D01*
X29264745Y4824632D01*
X29443991Y4804436D01*
X29443995Y4804436D01*
X29443999Y4804436D01*
X29623244Y4824632D01*
X29623247Y4824633D01*
X29623250Y4824633D01*
X29793517Y4884212D01*
X29946257Y4980185D01*
X29956311Y4990241D01*
X30017631Y5023728D01*
X30087323Y5018749D01*
X30131678Y4990245D01*
X30141738Y4980185D01*
X30294478Y4884212D01*
X30464745Y4824633D01*
X30464750Y4824632D01*
X30643996Y4804436D01*
X30644000Y4804436D01*
X30644004Y4804436D01*
X30823249Y4824632D01*
X30823252Y4824633D01*
X30823255Y4824633D01*
X30993522Y4884212D01*
X31146262Y4980185D01*
X31156319Y4990242D01*
X31217642Y5023727D01*
X31287334Y5018743D01*
X31331681Y4990242D01*
X31341738Y4980185D01*
X31494478Y4884212D01*
X31664745Y4824633D01*
X31664750Y4824632D01*
X31843996Y4804436D01*
X31844000Y4804436D01*
X31844004Y4804436D01*
X32023249Y4824632D01*
X32023252Y4824633D01*
X32023255Y4824633D01*
X32193522Y4884212D01*
X32346262Y4980185D01*
X32356317Y4990240D01*
X32417640Y5023725D01*
X32487332Y5018741D01*
X32531679Y4990240D01*
X32541736Y4980183D01*
X32559973Y4968724D01*
X32694472Y4884212D01*
X32694476Y4884210D01*
X32864737Y4824633D01*
X32864743Y4824631D01*
X32864748Y4824630D01*
X33043994Y4804434D01*
X33043998Y4804434D01*
X33044002Y4804434D01*
X33223247Y4824630D01*
X33223250Y4824631D01*
X33223253Y4824631D01*
X33393520Y4884210D01*
X33546260Y4980183D01*
X33556318Y4990241D01*
X33617641Y5023726D01*
X33687333Y5018742D01*
X33731680Y4990241D01*
X33741736Y4980185D01*
X33894476Y4884212D01*
X34064743Y4824633D01*
X34064748Y4824632D01*
X34243994Y4804436D01*
X34243998Y4804436D01*
X34244002Y4804436D01*
X34423247Y4824632D01*
X34423250Y4824633D01*
X34423253Y4824633D01*
X34593520Y4884212D01*
X34746260Y4980185D01*
X34756313Y4990240D01*
X34817633Y5023727D01*
X34887325Y5018748D01*
X34931680Y4990244D01*
X34941741Y4980183D01*
X34959978Y4968724D01*
X35094477Y4884212D01*
X35094481Y4884210D01*
X35264742Y4824633D01*
X35264748Y4824631D01*
X35264753Y4824630D01*
X35443999Y4804434D01*
X35444003Y4804434D01*
X35444007Y4804434D01*
X35623252Y4824630D01*
X35623255Y4824631D01*
X35623258Y4824631D01*
X35793525Y4884210D01*
X35946265Y4980183D01*
X35956319Y4990239D01*
X36017639Y5023726D01*
X36087331Y5018747D01*
X36131686Y4990243D01*
X36141744Y4980185D01*
X36294484Y4884212D01*
X36464751Y4824633D01*
X36464756Y4824632D01*
X36644002Y4804436D01*
X36644006Y4804436D01*
X36644010Y4804436D01*
X36823255Y4824632D01*
X36823258Y4824633D01*
X36823261Y4824633D01*
X36993528Y4884212D01*
X37146268Y4980185D01*
X37156317Y4990236D01*
X37217637Y5023723D01*
X37287329Y5018744D01*
X37331684Y4990240D01*
X37341739Y4980185D01*
X37494479Y4884212D01*
X37664746Y4824633D01*
X37664751Y4824632D01*
X37843997Y4804436D01*
X37844001Y4804436D01*
X37844005Y4804436D01*
X38023250Y4824632D01*
X38023253Y4824633D01*
X38023256Y4824633D01*
X38193523Y4884212D01*
X38346263Y4980185D01*
X38356319Y4990241D01*
X38417642Y5023726D01*
X38487334Y5018742D01*
X38531681Y4990241D01*
X38541739Y4980183D01*
X38559976Y4968724D01*
X38694475Y4884212D01*
X38694479Y4884210D01*
X38864740Y4824633D01*
X38864746Y4824631D01*
X38864751Y4824630D01*
X39043997Y4804434D01*
X39044001Y4804434D01*
X39044005Y4804434D01*
X39223250Y4824630D01*
X39223253Y4824631D01*
X39223256Y4824631D01*
X39393523Y4884210D01*
X39546263Y4980183D01*
X39556317Y4990239D01*
X39617637Y5023726D01*
X39687329Y5018747D01*
X39731684Y4990243D01*
X39741742Y4980185D01*
X39894482Y4884212D01*
X40064749Y4824633D01*
X40064754Y4824632D01*
X40244000Y4804436D01*
X40244004Y4804436D01*
X40244008Y4804436D01*
X40423253Y4824632D01*
X40423256Y4824633D01*
X40423259Y4824633D01*
X40593526Y4884212D01*
X40746266Y4980185D01*
X40756322Y4990241D01*
X40817645Y5023726D01*
X40887337Y5018742D01*
X40931684Y4990241D01*
X40941742Y4980183D01*
X40959979Y4968724D01*
X41094478Y4884212D01*
X41094482Y4884210D01*
X41264743Y4824633D01*
X41264749Y4824631D01*
X41264754Y4824630D01*
X41444000Y4804434D01*
X41444004Y4804434D01*
X41444008Y4804434D01*
X41623253Y4824630D01*
X41623256Y4824631D01*
X41623259Y4824631D01*
X41793526Y4884210D01*
X41946266Y4980183D01*
X41956317Y4990236D01*
X42017637Y5023723D01*
X42087329Y5018744D01*
X42131684Y4990240D01*
X42141739Y4980185D01*
X42294479Y4884212D01*
X42464746Y4824633D01*
X42464751Y4824632D01*
X42643997Y4804436D01*
X42644001Y4804436D01*
X42644005Y4804436D01*
X42823250Y4824632D01*
X42823253Y4824633D01*
X42823256Y4824633D01*
X42993523Y4884212D01*
X43146263Y4980185D01*
X43156315Y4990239D01*
X43217635Y5023726D01*
X43287327Y5018747D01*
X43331682Y4990243D01*
X43341740Y4980185D01*
X43494480Y4884212D01*
X43664747Y4824633D01*
X43664752Y4824632D01*
X43843998Y4804436D01*
X43844002Y4804436D01*
X43844006Y4804436D01*
X44023251Y4824632D01*
X44023254Y4824633D01*
X44023257Y4824633D01*
X44193524Y4884212D01*
X44346264Y4980185D01*
X44356318Y4990241D01*
X44417638Y5023728D01*
X44487330Y5018749D01*
X44531685Y4990245D01*
X44541745Y4980185D01*
X44694485Y4884212D01*
X44864752Y4824633D01*
X44864757Y4824632D01*
X45044003Y4804436D01*
X45044007Y4804436D01*
X45044011Y4804436D01*
X45223256Y4824632D01*
X45223259Y4824633D01*
X45223262Y4824633D01*
X45393529Y4884212D01*
X45546269Y4980185D01*
X45556326Y4990242D01*
X45617649Y5023727D01*
X45687341Y5018743D01*
X45731688Y4990242D01*
X45741745Y4980185D01*
X45894485Y4884212D01*
X46064752Y4824633D01*
X46064757Y4824632D01*
X46244003Y4804436D01*
X46244007Y4804436D01*
X46244011Y4804436D01*
X46423256Y4824632D01*
X46423259Y4824633D01*
X46423262Y4824633D01*
X46593529Y4884212D01*
X46746269Y4980185D01*
X46756325Y4990241D01*
X46817648Y5023726D01*
X46887340Y5018742D01*
X46931687Y4990241D01*
X46941743Y4980185D01*
X47094483Y4884212D01*
X47264750Y4824633D01*
X47264755Y4824632D01*
X47444001Y4804436D01*
X47444005Y4804436D01*
X47444009Y4804436D01*
X47623254Y4824632D01*
X47623257Y4824633D01*
X47623260Y4824633D01*
X47793527Y4884212D01*
X47946267Y4980185D01*
X47956324Y4990242D01*
X48017647Y5023727D01*
X48087339Y5018743D01*
X48131686Y4990242D01*
X48141743Y4980185D01*
X48294483Y4884212D01*
X48464750Y4824633D01*
X48464755Y4824632D01*
X48644001Y4804436D01*
X48644005Y4804436D01*
X48644009Y4804436D01*
X48823254Y4824632D01*
X48823257Y4824633D01*
X48823260Y4824633D01*
X48993527Y4884212D01*
X49146267Y4980185D01*
X49156322Y4990242D01*
X49217642Y5023729D01*
X49287334Y5018750D01*
X49331689Y4990246D01*
X49341750Y4980185D01*
X49494490Y4884212D01*
X49664757Y4824633D01*
X49664762Y4824632D01*
X49844008Y4804436D01*
X49844012Y4804436D01*
X49844016Y4804436D01*
X50023261Y4824632D01*
X50023264Y4824633D01*
X50023267Y4824633D01*
X50193534Y4884212D01*
X50346274Y4980185D01*
X50356330Y4990241D01*
X50417653Y5023726D01*
X50487345Y5018742D01*
X50531692Y4990241D01*
X50541748Y4980185D01*
X50694488Y4884212D01*
X50864755Y4824633D01*
X50864760Y4824632D01*
X51044006Y4804436D01*
X51044010Y4804436D01*
X51044014Y4804436D01*
X51223259Y4824632D01*
X51223262Y4824633D01*
X51223265Y4824633D01*
X51393532Y4884212D01*
X51546272Y4980185D01*
X51556327Y4990240D01*
X51617650Y5023725D01*
X51687342Y5018741D01*
X51731689Y4990240D01*
X51741746Y4980183D01*
X51759983Y4968724D01*
X51894482Y4884212D01*
X51894486Y4884210D01*
X52064747Y4824633D01*
X52064753Y4824631D01*
X52064758Y4824630D01*
X52244004Y4804434D01*
X52244008Y4804434D01*
X52244012Y4804434D01*
X52423257Y4824630D01*
X52423260Y4824631D01*
X52423263Y4824631D01*
X52593530Y4884210D01*
X52746270Y4980183D01*
X52756329Y4990242D01*
X52817652Y5023727D01*
X52887344Y5018743D01*
X52931691Y4990242D01*
X52941748Y4980185D01*
X53094488Y4884212D01*
X53264755Y4824633D01*
X53264760Y4824632D01*
X53444006Y4804436D01*
X53444010Y4804436D01*
X53444014Y4804436D01*
X53623259Y4824632D01*
X53623262Y4824633D01*
X53623265Y4824633D01*
X53793532Y4884212D01*
X53946272Y4980185D01*
X53956325Y4990240D01*
X54017645Y5023727D01*
X54087337Y5018748D01*
X54131692Y4990244D01*
X54141751Y4980185D01*
X54294491Y4884212D01*
X54464758Y4824633D01*
X54464763Y4824632D01*
X54644009Y4804436D01*
X54644013Y4804436D01*
X54644017Y4804436D01*
X54823262Y4824632D01*
X54823265Y4824633D01*
X54823268Y4824633D01*
X54993535Y4884212D01*
X55146275Y4980185D01*
X55156331Y4990241D01*
X55217654Y5023726D01*
X55287346Y5018742D01*
X55331693Y4990241D01*
X55341751Y4980183D01*
X55359988Y4968724D01*
X55494487Y4884212D01*
X55494491Y4884210D01*
X55664752Y4824633D01*
X55664758Y4824631D01*
X55664763Y4824630D01*
X55844009Y4804434D01*
X55844013Y4804434D01*
X55844017Y4804434D01*
X56023262Y4824630D01*
X56023265Y4824631D01*
X56023268Y4824631D01*
X56193535Y4884210D01*
X56346275Y4980183D01*
X56356332Y4990240D01*
X56417655Y5023725D01*
X56487347Y5018741D01*
X56531694Y4990240D01*
X56541749Y4980185D01*
X56694489Y4884212D01*
X56864756Y4824633D01*
X56864761Y4824632D01*
X57044007Y4804436D01*
X57044011Y4804436D01*
X57044015Y4804436D01*
X57223260Y4824632D01*
X57223263Y4824633D01*
X57223266Y4824633D01*
X57393533Y4884212D01*
X57546273Y4980185D01*
X57556330Y4990242D01*
X57617653Y5023727D01*
X57687345Y5018743D01*
X57731692Y4990242D01*
X57741749Y4980185D01*
X57894489Y4884212D01*
X58064756Y4824633D01*
X58064761Y4824632D01*
X58244007Y4804436D01*
X58244011Y4804436D01*
X58244015Y4804436D01*
X58423260Y4824632D01*
X58423263Y4824633D01*
X58423266Y4824633D01*
X58593533Y4884212D01*
X58728033Y4968725D01*
X58795269Y4987725D01*
X58859976Y4968725D01*
X58913860Y4934868D01*
X58994474Y4884213D01*
X59164744Y4824633D01*
X59164749Y4824632D01*
X59343995Y4804436D01*
X59343999Y4804436D01*
X59344003Y4804436D01*
X59523248Y4824632D01*
X59523251Y4824633D01*
X59523254Y4824633D01*
X59693521Y4884212D01*
X59846261Y4980185D01*
X59856317Y4990241D01*
X59917640Y5023726D01*
X59987332Y5018742D01*
X60031679Y4990241D01*
X60041737Y4980183D01*
X60059974Y4968724D01*
X60194473Y4884212D01*
X60194477Y4884210D01*
X60364738Y4824633D01*
X60364744Y4824631D01*
X60364749Y4824630D01*
X60543995Y4804434D01*
X60543999Y4804434D01*
X60544003Y4804434D01*
X60723248Y4824630D01*
X60723251Y4824631D01*
X60723254Y4824631D01*
X60893521Y4884210D01*
X61046261Y4980183D01*
X61056319Y4990241D01*
X61117642Y5023726D01*
X61187334Y5018742D01*
X61231681Y4990241D01*
X61241737Y4980185D01*
X61394477Y4884212D01*
X61564744Y4824633D01*
X61564749Y4824632D01*
X61743995Y4804436D01*
X61743999Y4804436D01*
X61744003Y4804436D01*
X61923248Y4824632D01*
X61923251Y4824633D01*
X61923254Y4824633D01*
X62093521Y4884212D01*
X62246261Y4980185D01*
X62256311Y4990237D01*
X62317631Y5023724D01*
X62387323Y5018745D01*
X62431678Y4990241D01*
X62441734Y4980185D01*
X62594474Y4884212D01*
X62764741Y4824633D01*
X62764746Y4824632D01*
X62943992Y4804436D01*
X62943996Y4804436D01*
X62944000Y4804436D01*
X63123245Y4824632D01*
X63123248Y4824633D01*
X63123251Y4824633D01*
X63293518Y4884212D01*
X63446258Y4980185D01*
X63456309Y4990238D01*
X63517629Y5023725D01*
X63587321Y5018746D01*
X63631676Y4990242D01*
X63641735Y4980183D01*
X63659972Y4968724D01*
X63794471Y4884212D01*
X63794475Y4884210D01*
X63964736Y4824633D01*
X63964742Y4824631D01*
X63964747Y4824630D01*
X64143993Y4804434D01*
X64143997Y4804434D01*
X64144001Y4804434D01*
X64323246Y4824630D01*
X64323249Y4824631D01*
X64323252Y4824631D01*
X64493519Y4884210D01*
X64646259Y4980183D01*
X64773813Y5107737D01*
X64869786Y5260477D01*
X64900977Y5349617D01*
X64930338Y5396343D01*
X64943995Y5410000D01*
X64943996Y5410000D01*
X64943996Y5553639D01*
X64944776Y5567524D01*
X64949562Y5609998D01*
X64949562Y5610002D01*
X64944776Y5652476D01*
X64943996Y5666360D01*
X64943996Y6943913D01*
X64963681Y7010952D01*
X65016485Y7056707D01*
X65027035Y7060953D01*
X65093520Y7084216D01*
X65246260Y7180189D01*
X65373814Y7307743D01*
X65469787Y7460483D01*
X65529366Y7630750D01*
X65549563Y7810005D01*
X65535958Y7930750D01*
X65529367Y7989255D01*
X65529364Y7989268D01*
X65467487Y8166100D01*
X65469634Y8166852D01*
X65460031Y8225134D01*
X65468389Y8253595D01*
X65467484Y8253911D01*
X65529361Y8430744D01*
X65529364Y8430757D01*
X65549560Y8610003D01*
X65549560Y8610010D01*
X65529364Y8789256D01*
X65529363Y8789261D01*
X65479854Y8930750D01*
X65469784Y8959528D01*
X65373811Y9112268D01*
X65246257Y9239822D01*
X65093519Y9335794D01*
X65093518Y9335795D01*
X65027040Y9359057D01*
X64970264Y9399779D01*
X64944518Y9464732D01*
X64943996Y9476098D01*
X64943996Y14443908D01*
X64963681Y14510947D01*
X65016485Y14556702D01*
X65027035Y14560948D01*
X65093520Y14584211D01*
X65246260Y14680184D01*
X65373814Y14807738D01*
X65469787Y14960478D01*
X65529366Y15130745D01*
X65549563Y15310000D01*
X65547224Y15330758D01*
X65529367Y15489250D01*
X65529364Y15489263D01*
X65467488Y15666094D01*
X65469633Y15666845D01*
X65460035Y15725145D01*
X65468391Y15753590D01*
X65467487Y15753906D01*
X65529364Y15930739D01*
X65529367Y15930752D01*
X65549563Y16109998D01*
X65549563Y16110005D01*
X65529367Y16289251D01*
X65529364Y16289264D01*
X65467488Y16466095D01*
X65469633Y16466846D01*
X65460035Y16525146D01*
X65468391Y16553591D01*
X65467487Y16553907D01*
X65529364Y16730740D01*
X65529367Y16730753D01*
X65549563Y16909999D01*
X65549563Y16910006D01*
X65529367Y17089252D01*
X65529366Y17089257D01*
X65467487Y17266097D01*
X65469639Y17266851D01*
X65460032Y17325112D01*
X65468393Y17353588D01*
X65467487Y17353905D01*
X65529366Y17530746D01*
X65529367Y17530751D01*
X65549563Y17709997D01*
X65549563Y17710004D01*
X65529367Y17889250D01*
X65529364Y17889263D01*
X65467487Y18066095D01*
X65469635Y18066847D01*
X65460033Y18125128D01*
X65468391Y18153588D01*
X65467487Y18153904D01*
X65529364Y18330737D01*
X65529367Y18330750D01*
X65549563Y18509996D01*
X65549563Y18510003D01*
X65529367Y18689249D01*
X65529366Y18689254D01*
X65467487Y18866094D01*
X65469632Y18866845D01*
X65460034Y18925145D01*
X65468388Y18953591D01*
X65467484Y18953907D01*
X65529363Y19130748D01*
X65529364Y19130753D01*
X65549560Y19309999D01*
X65549560Y19310006D01*
X65529364Y19489252D01*
X65529363Y19489257D01*
X65467484Y19666097D01*
X65469637Y19666851D01*
X65460030Y19725112D01*
X65468392Y19753589D01*
X65467487Y19753905D01*
X65529364Y19930738D01*
X65529367Y19930751D01*
X65549563Y20109997D01*
X65549563Y20110004D01*
X65529367Y20289250D01*
X65529364Y20289263D01*
X65467488Y20466094D01*
X65469633Y20466845D01*
X65460035Y20525145D01*
X65468391Y20553590D01*
X65467487Y20553906D01*
X65529364Y20730739D01*
X65529367Y20730752D01*
X65549563Y20909998D01*
X65549563Y20910005D01*
X65529367Y21089251D01*
X65529364Y21089264D01*
X65467487Y21266096D01*
X65469635Y21266848D01*
X65460033Y21325129D01*
X65468391Y21353589D01*
X65467487Y21353905D01*
X65529364Y21530738D01*
X65529367Y21530751D01*
X65549563Y21709997D01*
X65549563Y21710004D01*
X65529367Y21889250D01*
X65529364Y21889263D01*
X65467488Y22066094D01*
X65469633Y22066845D01*
X65460035Y22125145D01*
X65468391Y22153590D01*
X65467487Y22153906D01*
X65529364Y22330739D01*
X65529367Y22330752D01*
X65549563Y22509998D01*
X65549563Y22510005D01*
X65529367Y22689251D01*
X65529364Y22689264D01*
X65467488Y22866095D01*
X65469633Y22866846D01*
X65460035Y22925146D01*
X65468391Y22953591D01*
X65467487Y22953907D01*
X65529364Y23130740D01*
X65529367Y23130753D01*
X65549563Y23309999D01*
X65549563Y23310006D01*
X65529367Y23489252D01*
X65529366Y23489257D01*
X65467487Y23666097D01*
X65469639Y23666851D01*
X65460032Y23725112D01*
X65468393Y23753588D01*
X65467487Y23753905D01*
X65529366Y23930746D01*
X65529367Y23930751D01*
X65549563Y24109997D01*
X65549563Y24110004D01*
X65529367Y24289250D01*
X65529364Y24289263D01*
X65467488Y24466094D01*
X65469633Y24466845D01*
X65460035Y24525145D01*
X65468391Y24553590D01*
X65467487Y24553906D01*
X65529364Y24730739D01*
X65529367Y24730752D01*
X65549563Y24909998D01*
X65549563Y24910005D01*
X65529367Y25089251D01*
X65529366Y25089256D01*
X65467487Y25266096D01*
X65469639Y25266850D01*
X65460032Y25325111D01*
X65468393Y25353587D01*
X65467487Y25353904D01*
X65529366Y25530745D01*
X65529367Y25530750D01*
X65549563Y25709996D01*
X65549563Y25710003D01*
X65529367Y25889249D01*
X65529364Y25889262D01*
X65467488Y26066093D01*
X65469633Y26066844D01*
X65460035Y26125144D01*
X65468391Y26153589D01*
X65467487Y26153905D01*
X65529364Y26330738D01*
X65529367Y26330751D01*
X65549563Y26509997D01*
X65549563Y26510004D01*
X65529367Y26689250D01*
X65529364Y26689263D01*
X65467488Y26866094D01*
X65469633Y26866845D01*
X65460035Y26925145D01*
X65468391Y26953590D01*
X65467487Y26953906D01*
X65529364Y27130739D01*
X65529367Y27130752D01*
X65549563Y27309998D01*
X65549563Y27310005D01*
X65529367Y27489251D01*
X65529366Y27489256D01*
X65467487Y27666096D01*
X65469638Y27666849D01*
X65460030Y27725113D01*
X65468392Y27753588D01*
X65467484Y27753905D01*
X65529363Y27930746D01*
X65529364Y27930751D01*
X65549560Y28109997D01*
X65549560Y28110004D01*
X65529364Y28289250D01*
X65529361Y28289263D01*
X65467485Y28466094D01*
X65469630Y28466845D01*
X65460032Y28525145D01*
X65468388Y28553590D01*
X65467484Y28553906D01*
X65529361Y28730739D01*
X65529364Y28730752D01*
X65549560Y28909998D01*
X65549560Y28910005D01*
X65529364Y29089251D01*
X65529363Y29089256D01*
X65467484Y29266096D01*
X65469630Y29266848D01*
X65460034Y29325145D01*
X65468389Y29353592D01*
X65467487Y29353907D01*
X65529364Y29530740D01*
X65529367Y29530753D01*
X65549563Y29709999D01*
X65549563Y29710006D01*
X65529367Y29889252D01*
X65529366Y29889257D01*
X65467487Y30066097D01*
X65469639Y30066851D01*
X65460032Y30125112D01*
X65468393Y30153588D01*
X65467487Y30153905D01*
X65529366Y30330746D01*
X65529367Y30330751D01*
X65549563Y30509997D01*
X65549563Y30510004D01*
X65529367Y30689250D01*
X65529364Y30689263D01*
X65467488Y30866094D01*
X65469633Y30866845D01*
X65460035Y30925145D01*
X65468391Y30953590D01*
X65467487Y30953906D01*
X65529364Y31130739D01*
X65529367Y31130752D01*
X65549563Y31309998D01*
X65549563Y31310005D01*
X65529367Y31489251D01*
X65529366Y31489256D01*
X65467487Y31666096D01*
X65469635Y31666848D01*
X65460032Y31725130D01*
X65468390Y31753587D01*
X65467484Y31753904D01*
X65529361Y31930737D01*
X65529364Y31930750D01*
X65549560Y32109996D01*
X65549560Y32110003D01*
X65529364Y32289249D01*
X65529361Y32289262D01*
X65467485Y32466093D01*
X65469630Y32466844D01*
X65460032Y32525144D01*
X65468388Y32553589D01*
X65467484Y32553905D01*
X65529361Y32730738D01*
X65529364Y32730751D01*
X65549560Y32909997D01*
X65549560Y32910004D01*
X65529364Y33089250D01*
X65529361Y33089263D01*
X65467485Y33266094D01*
X65469630Y33266845D01*
X65460032Y33325145D01*
X65468388Y33353590D01*
X65467484Y33353906D01*
X65529361Y33530739D01*
X65529364Y33530752D01*
X65549560Y33709998D01*
X65549560Y33710005D01*
X65529364Y33889251D01*
X65529361Y33889264D01*
X65467485Y34066095D01*
X65469634Y34066848D01*
X65460032Y34125127D01*
X65468389Y34153590D01*
X65467487Y34153905D01*
X65529364Y34330738D01*
X65529367Y34330751D01*
X65549563Y34509997D01*
X65549563Y34510004D01*
X65529367Y34689250D01*
X65529364Y34689263D01*
X65467488Y34866094D01*
X65469633Y34866845D01*
X65460035Y34925145D01*
X65468391Y34953590D01*
X65467487Y34953906D01*
X65529364Y35130739D01*
X65529367Y35130752D01*
X65549563Y35309998D01*
X65549563Y35310005D01*
X65529367Y35489251D01*
X65529364Y35489264D01*
X65467487Y35666096D01*
X65469635Y35666848D01*
X65460033Y35725129D01*
X65468390Y35753590D01*
X65467487Y35753906D01*
X65529364Y35930739D01*
X65529367Y35930752D01*
X65549563Y36109998D01*
X65549563Y36110005D01*
X65529367Y36289251D01*
X65529364Y36289264D01*
X65467487Y36466096D01*
X65469636Y36466849D01*
X65460034Y36525128D01*
X65468390Y36553586D01*
X65467487Y36553902D01*
X65529364Y36730735D01*
X65529367Y36730748D01*
X65549563Y36909994D01*
X65549563Y36910001D01*
X65529367Y37089247D01*
X65529366Y37089252D01*
X65467487Y37266092D01*
X65469635Y37266844D01*
X65460031Y37325127D01*
X65468388Y37353590D01*
X65467484Y37353906D01*
X65529361Y37530739D01*
X65529364Y37530752D01*
X65549560Y37709998D01*
X65549560Y37710005D01*
X65529364Y37889251D01*
X65529361Y37889264D01*
X65467485Y38066095D01*
X65469630Y38066846D01*
X65460032Y38125146D01*
X65468388Y38153591D01*
X65467484Y38153907D01*
X65529361Y38330740D01*
X65529364Y38330753D01*
X65549560Y38509999D01*
X65549560Y38510006D01*
X65529364Y38689252D01*
X65529363Y38689257D01*
X65467484Y38866097D01*
X65469637Y38866851D01*
X65460030Y38925112D01*
X65468392Y38953589D01*
X65467487Y38953905D01*
X65529364Y39130738D01*
X65529367Y39130751D01*
X65549563Y39309997D01*
X65549563Y39310004D01*
X65529367Y39489250D01*
X65529364Y39489263D01*
X65467488Y39666094D01*
X65469633Y39666845D01*
X65460035Y39725145D01*
X65468391Y39753590D01*
X65467487Y39753906D01*
X65529364Y39930739D01*
X65529367Y39930752D01*
X65549563Y40109998D01*
X65549563Y40110005D01*
X65529367Y40289251D01*
X65529364Y40289264D01*
X65467488Y40466095D01*
X65469633Y40466846D01*
X65460035Y40525146D01*
X65468391Y40553591D01*
X65467487Y40553907D01*
X65529364Y40730740D01*
X65529367Y40730753D01*
X65549563Y40909999D01*
X65549563Y40910006D01*
X65529367Y41089252D01*
X65529366Y41089257D01*
X65467487Y41266097D01*
X65469639Y41266851D01*
X65460032Y41325112D01*
X65468393Y41353588D01*
X65467487Y41353905D01*
X65529366Y41530746D01*
X65529367Y41530751D01*
X65549563Y41709997D01*
X65549563Y41710004D01*
X65529367Y41889250D01*
X65529364Y41889263D01*
X65467488Y42066094D01*
X65469633Y42066845D01*
X65460035Y42125145D01*
X65468391Y42153590D01*
X65467487Y42153906D01*
X65529364Y42330739D01*
X65529367Y42330752D01*
X65549563Y42509998D01*
X65549563Y42510005D01*
X65529367Y42689251D01*
X65529366Y42689256D01*
X65490965Y42799000D01*
X65469787Y42859523D01*
X65373814Y43012263D01*
X65246260Y43139817D01*
X65093518Y43235792D01*
X65027042Y43259053D01*
X64970267Y43299775D01*
X64944520Y43364728D01*
X64943998Y43376094D01*
X64943998Y44243913D01*
X64963683Y44310952D01*
X65016487Y44356707D01*
X65027045Y44360955D01*
X65093520Y44384215D01*
X65246260Y44480188D01*
X65373814Y44607742D01*
X65469787Y44760482D01*
X65529366Y44930749D01*
X65545507Y45074003D01*
X65549563Y45110001D01*
X65549563Y45110007D01*
X65540751Y45188212D01*
X65536371Y45227086D01*
X65548425Y45295907D01*
X65595774Y45347286D01*
X65663384Y45364911D01*
X65729790Y45343185D01*
X65747272Y45328650D01*
X65791738Y45284184D01*
X65882080Y45227418D01*
X65923398Y45201456D01*
X65944478Y45188211D01*
X65985837Y45173739D01*
X66114745Y45128632D01*
X66114750Y45128631D01*
X66293996Y45108435D01*
X66294000Y45108435D01*
X66294004Y45108435D01*
X66473249Y45128631D01*
X66473251Y45128632D01*
X66473255Y45128632D01*
X66473258Y45128634D01*
X66473262Y45128634D01*
X66602163Y45173739D01*
X66643522Y45188211D01*
X66643531Y45188217D01*
X66647440Y45190099D01*
X66716380Y45201456D01*
X66780517Y45173739D01*
X66806243Y45144356D01*
X66850449Y45074003D01*
X66978003Y44946449D01*
X67130743Y44850476D01*
X67301010Y44790897D01*
X67301015Y44790896D01*
X67480261Y44770700D01*
X67480265Y44770700D01*
X67480269Y44770700D01*
X67659514Y44790896D01*
X67659517Y44790897D01*
X67659520Y44790897D01*
X67829787Y44850476D01*
X67982527Y44946449D01*
X68110081Y45074003D01*
X68206054Y45226743D01*
X68265633Y45397010D01*
X68265634Y45397016D01*
X68285830Y45576262D01*
X68285830Y45576269D01*
X68265634Y45755515D01*
X68265633Y45755520D01*
X68206053Y45925790D01*
X68131529Y46044392D01*
X68112528Y46111629D01*
X68121921Y46151770D01*
X68120019Y46152435D01*
X68181896Y46329268D01*
X68181899Y46329281D01*
X68202095Y46508527D01*
X68202095Y46508534D01*
X68181899Y46687780D01*
X68181898Y46687785D01*
X68155777Y46762435D01*
X68122319Y46858052D01*
X68026346Y47010792D01*
X67898792Y47138346D01*
X67875521Y47152968D01*
X67746053Y47234319D01*
X67575784Y47293899D01*
X67575780Y47293900D01*
X67455082Y47307499D01*
X67390668Y47334566D01*
X67351113Y47392161D01*
X67345746Y47444603D01*
X67353565Y47513998D01*
X67353565Y47514004D01*
X67333369Y47693250D01*
X67333368Y47693255D01*
X67314474Y47747250D01*
X67273789Y47863522D01*
X67264214Y47878760D01*
X67212308Y47961368D01*
X67177816Y48016262D01*
X67050262Y48143816D01*
X66960846Y48200000D01*
X66897523Y48239789D01*
X66727254Y48299369D01*
X66727249Y48299370D01*
X66548004Y48319565D01*
X66547996Y48319565D01*
X66368750Y48299370D01*
X66368745Y48299369D01*
X66198476Y48239789D01*
X66045737Y48143816D01*
X65918184Y48016263D01*
X65822211Y47863524D01*
X65762631Y47693255D01*
X65762630Y47693250D01*
X65742435Y47514004D01*
X65742435Y47513997D01*
X65762630Y47334751D01*
X65762631Y47334746D01*
X65822211Y47164477D01*
X65918184Y47011738D01*
X66045737Y46884185D01*
X66051184Y46879841D01*
X66049493Y46877722D01*
X66087614Y46834621D01*
X66098261Y46765568D01*
X66069884Y46701720D01*
X66016305Y46664924D01*
X65944480Y46639792D01*
X65791737Y46543816D01*
X65664184Y46416263D01*
X65568211Y46263524D01*
X65508631Y46093255D01*
X65508630Y46093250D01*
X65488435Y45914004D01*
X65488435Y45913997D01*
X65501626Y45796919D01*
X65489571Y45728097D01*
X65442222Y45676718D01*
X65374612Y45659094D01*
X65308206Y45680821D01*
X65290725Y45695355D01*
X65246260Y45739820D01*
X65093521Y45835793D01*
X64923252Y45895373D01*
X64923247Y45895374D01*
X64744002Y45915569D01*
X64743994Y45915569D01*
X64564748Y45895374D01*
X64564735Y45895371D01*
X64387904Y45833494D01*
X64387153Y45835639D01*
X64328838Y45826047D01*
X64300408Y45834395D01*
X64300094Y45833496D01*
X64123262Y45895373D01*
X64123249Y45895376D01*
X63944004Y45915571D01*
X63943996Y45915571D01*
X63764750Y45895376D01*
X63764737Y45895373D01*
X63587906Y45833496D01*
X63587156Y45835640D01*
X63528839Y45826046D01*
X63500407Y45834397D01*
X63500093Y45833496D01*
X63323261Y45895373D01*
X63323248Y45895376D01*
X63144003Y45915571D01*
X63143995Y45915571D01*
X62964749Y45895376D01*
X62964736Y45895373D01*
X62787905Y45833496D01*
X62787156Y45835637D01*
X62728820Y45826048D01*
X62700410Y45834395D01*
X62700095Y45833493D01*
X62523254Y45895373D01*
X62523249Y45895374D01*
X62344004Y45915569D01*
X62343996Y45915569D01*
X62164750Y45895374D01*
X62164737Y45895371D01*
X61987906Y45833494D01*
X61987156Y45835638D01*
X61928839Y45826044D01*
X61900407Y45834395D01*
X61900093Y45833494D01*
X61723261Y45895371D01*
X61723248Y45895374D01*
X61544003Y45915569D01*
X61543995Y45915569D01*
X61364749Y45895374D01*
X61364736Y45895371D01*
X61187905Y45833494D01*
X61187155Y45835638D01*
X61128838Y45826044D01*
X61100406Y45834395D01*
X61100092Y45833494D01*
X60923260Y45895371D01*
X60923247Y45895374D01*
X60744002Y45915569D01*
X60743994Y45915569D01*
X60564748Y45895374D01*
X60564735Y45895371D01*
X60387904Y45833494D01*
X60387154Y45835638D01*
X60328837Y45826045D01*
X60300408Y45834393D01*
X60300094Y45833494D01*
X60123262Y45895371D01*
X60123249Y45895374D01*
X59944004Y45915569D01*
X59943996Y45915569D01*
X59764750Y45895374D01*
X59764737Y45895371D01*
X59587906Y45833494D01*
X59587156Y45835638D01*
X59528839Y45826045D01*
X59500407Y45834397D01*
X59500093Y45833496D01*
X59323261Y45895373D01*
X59323248Y45895376D01*
X59144003Y45915571D01*
X59143995Y45915571D01*
X58964749Y45895376D01*
X58964736Y45895373D01*
X58787905Y45833496D01*
X58787155Y45835640D01*
X58728838Y45826046D01*
X58700409Y45834394D01*
X58700095Y45833494D01*
X58523263Y45895371D01*
X58523250Y45895374D01*
X58344005Y45915569D01*
X58343997Y45915569D01*
X58164751Y45895374D01*
X58164738Y45895371D01*
X57987907Y45833494D01*
X57987157Y45835638D01*
X57928840Y45826044D01*
X57900408Y45834395D01*
X57900094Y45833494D01*
X57723262Y45895371D01*
X57723249Y45895374D01*
X57544004Y45915569D01*
X57543996Y45915569D01*
X57364750Y45895374D01*
X57364737Y45895371D01*
X57187906Y45833494D01*
X57187156Y45835638D01*
X57128839Y45826044D01*
X57100407Y45834395D01*
X57100093Y45833494D01*
X56923261Y45895371D01*
X56923248Y45895374D01*
X56744003Y45915569D01*
X56743995Y45915569D01*
X56564749Y45895374D01*
X56564736Y45895371D01*
X56387905Y45833494D01*
X56387155Y45835638D01*
X56328838Y45826044D01*
X56300406Y45834395D01*
X56300092Y45833494D01*
X56123260Y45895371D01*
X56123247Y45895374D01*
X55944002Y45915569D01*
X55943994Y45915569D01*
X55764748Y45895374D01*
X55764735Y45895371D01*
X55587904Y45833494D01*
X55587154Y45835638D01*
X55528837Y45826045D01*
X55500408Y45834393D01*
X55500094Y45833493D01*
X55323253Y45895373D01*
X55323248Y45895374D01*
X55144003Y45915569D01*
X55143995Y45915569D01*
X54964749Y45895374D01*
X54964736Y45895371D01*
X54787905Y45833494D01*
X54787155Y45835638D01*
X54728838Y45826044D01*
X54700406Y45834395D01*
X54700092Y45833494D01*
X54523260Y45895371D01*
X54523247Y45895374D01*
X54344002Y45915569D01*
X54343994Y45915569D01*
X54164748Y45895374D01*
X54164735Y45895371D01*
X53987904Y45833494D01*
X53987154Y45835638D01*
X53928837Y45826045D01*
X53900405Y45834397D01*
X53900091Y45833496D01*
X53723259Y45895373D01*
X53723246Y45895376D01*
X53544001Y45915571D01*
X53543993Y45915571D01*
X53364747Y45895376D01*
X53364734Y45895373D01*
X53187903Y45833496D01*
X53187152Y45835642D01*
X53128853Y45826044D01*
X53100406Y45834397D01*
X53100091Y45833496D01*
X52923259Y45895373D01*
X52923246Y45895376D01*
X52744001Y45915571D01*
X52743993Y45915571D01*
X52564747Y45895376D01*
X52564734Y45895373D01*
X52387903Y45833496D01*
X52387154Y45835637D01*
X52328818Y45826048D01*
X52300408Y45834395D01*
X52300093Y45833493D01*
X52123252Y45895373D01*
X52123247Y45895374D01*
X51944002Y45915569D01*
X51943994Y45915569D01*
X51764748Y45895374D01*
X51764735Y45895371D01*
X51587904Y45833494D01*
X51587154Y45835638D01*
X51528837Y45826044D01*
X51500405Y45834395D01*
X51500091Y45833494D01*
X51323259Y45895371D01*
X51323246Y45895374D01*
X51144001Y45915569D01*
X51143993Y45915569D01*
X50964747Y45895374D01*
X50964734Y45895371D01*
X50787903Y45833494D01*
X50787153Y45835638D01*
X50728836Y45826045D01*
X50700407Y45834393D01*
X50700093Y45833494D01*
X50523261Y45895371D01*
X50523248Y45895374D01*
X50344003Y45915569D01*
X50343995Y45915569D01*
X50164749Y45895374D01*
X50164736Y45895371D01*
X49987905Y45833494D01*
X49987155Y45835638D01*
X49928838Y45826044D01*
X49900406Y45834395D01*
X49900092Y45833494D01*
X49723260Y45895371D01*
X49723247Y45895374D01*
X49544002Y45915569D01*
X49543994Y45915569D01*
X49364748Y45895374D01*
X49364735Y45895371D01*
X49187904Y45833494D01*
X49187154Y45835636D01*
X49128821Y45826049D01*
X49100407Y45834395D01*
X49100093Y45833496D01*
X48923261Y45895373D01*
X48923248Y45895376D01*
X48744003Y45915571D01*
X48743995Y45915571D01*
X48564749Y45895376D01*
X48564736Y45895373D01*
X48387905Y45833496D01*
X48387155Y45835639D01*
X48328837Y45826045D01*
X48300406Y45834395D01*
X48300092Y45833494D01*
X48123260Y45895371D01*
X48123247Y45895374D01*
X47944002Y45915569D01*
X47943994Y45915569D01*
X47764748Y45895374D01*
X47764735Y45895371D01*
X47587904Y45833494D01*
X47587153Y45835640D01*
X47528854Y45826042D01*
X47500407Y45834395D01*
X47500092Y45833494D01*
X47323260Y45895371D01*
X47323247Y45895374D01*
X47144002Y45915569D01*
X47143994Y45915569D01*
X46964748Y45895374D01*
X46964743Y45895373D01*
X46794474Y45835793D01*
X46641735Y45739820D01*
X46514182Y45612267D01*
X46418209Y45459528D01*
X46394946Y45393044D01*
X46354224Y45336268D01*
X46289271Y45310521D01*
X46277904Y45309999D01*
X42510092Y45309999D01*
X42443053Y45329684D01*
X42397298Y45382488D01*
X42393050Y45393044D01*
X42369786Y45459528D01*
X42273813Y45612267D01*
X42146260Y45739820D01*
X41993521Y45835793D01*
X41823252Y45895373D01*
X41823247Y45895374D01*
X41644002Y45915569D01*
X41643994Y45915569D01*
X41464748Y45895374D01*
X41464735Y45895371D01*
X41287904Y45833494D01*
X41287154Y45835638D01*
X41228837Y45826044D01*
X41200405Y45834395D01*
X41200091Y45833494D01*
X41023259Y45895371D01*
X41023246Y45895374D01*
X40844001Y45915569D01*
X40843993Y45915569D01*
X40664747Y45895374D01*
X40664734Y45895371D01*
X40487903Y45833494D01*
X40487153Y45835638D01*
X40428836Y45826045D01*
X40400406Y45834393D01*
X40400092Y45833494D01*
X40320033Y45861509D01*
X40263257Y45902231D01*
X40237511Y45967184D01*
X40250968Y46035746D01*
X40273302Y46066225D01*
X40380816Y46173738D01*
X40476789Y46326478D01*
X40536368Y46496745D01*
X40537466Y46506490D01*
X40542867Y46554425D01*
X40569933Y46618839D01*
X40625130Y46657584D01*
X40735522Y46696211D01*
X40888262Y46792184D01*
X41015816Y46919738D01*
X41111789Y47072478D01*
X41148014Y47176004D01*
X44271435Y47176004D01*
X44271435Y47175997D01*
X44291630Y46996751D01*
X44291631Y46996746D01*
X44351211Y46826477D01*
X44433063Y46696211D01*
X44447184Y46673738D01*
X44574738Y46546184D01*
X44625664Y46514185D01*
X44699717Y46467654D01*
X44727478Y46450211D01*
X44824496Y46416263D01*
X44897745Y46390632D01*
X44897750Y46390631D01*
X45076996Y46370435D01*
X45077000Y46370435D01*
X45077004Y46370435D01*
X45256249Y46390631D01*
X45256252Y46390632D01*
X45256255Y46390632D01*
X45426522Y46450211D01*
X45579262Y46546184D01*
X45706816Y46673738D01*
X45802789Y46826478D01*
X45862368Y46996745D01*
X45863951Y47010793D01*
X45882565Y47175997D01*
X45882565Y47176004D01*
X45862369Y47355250D01*
X45862368Y47355255D01*
X45839013Y47422000D01*
X45802789Y47525522D01*
X45776096Y47568004D01*
X46565435Y47568004D01*
X46565435Y47567997D01*
X46585630Y47388751D01*
X46585631Y47388746D01*
X46645211Y47218477D01*
X46695561Y47138346D01*
X46741184Y47065738D01*
X46868738Y46938184D01*
X46954561Y46884258D01*
X47000726Y46855250D01*
X47021478Y46842211D01*
X47148352Y46797816D01*
X47191745Y46782632D01*
X47191750Y46782631D01*
X47370996Y46762435D01*
X47371000Y46762435D01*
X47371004Y46762435D01*
X47550249Y46782631D01*
X47550252Y46782632D01*
X47550255Y46782632D01*
X47720522Y46842211D01*
X47873262Y46938184D01*
X48000816Y47065738D01*
X48096789Y47218478D01*
X48156368Y47388745D01*
X48157009Y47394435D01*
X48176565Y47567997D01*
X48176565Y47568004D01*
X48156369Y47747250D01*
X48156368Y47747255D01*
X48096788Y47917524D01*
X48034746Y48016263D01*
X48000816Y48070262D01*
X47873262Y48197816D01*
X47825917Y48227565D01*
X47720523Y48293789D01*
X47550254Y48353369D01*
X47550249Y48353370D01*
X47371004Y48373565D01*
X47370996Y48373565D01*
X47191750Y48353370D01*
X47191745Y48353369D01*
X47021476Y48293789D01*
X46868737Y48197816D01*
X46741184Y48070263D01*
X46645211Y47917524D01*
X46585631Y47747255D01*
X46585630Y47747250D01*
X46565435Y47568004D01*
X45776096Y47568004D01*
X45706816Y47678262D01*
X45579262Y47805816D01*
X45426523Y47901789D01*
X45256254Y47961369D01*
X45256249Y47961370D01*
X45077004Y47981565D01*
X45076996Y47981565D01*
X44897750Y47961370D01*
X44897745Y47961369D01*
X44727476Y47901789D01*
X44574737Y47805816D01*
X44447184Y47678263D01*
X44351211Y47525524D01*
X44291631Y47355255D01*
X44291630Y47355250D01*
X44271435Y47176004D01*
X41148014Y47176004D01*
X41171368Y47242745D01*
X41177132Y47293900D01*
X41191565Y47421997D01*
X41191565Y47422004D01*
X41171369Y47601250D01*
X41171368Y47601255D01*
X41144422Y47678263D01*
X41111789Y47771522D01*
X41105536Y47781473D01*
X41062178Y47850478D01*
X41015816Y47924262D01*
X40888262Y48051816D01*
X40735523Y48147789D01*
X40565254Y48207369D01*
X40565249Y48207370D01*
X40386004Y48227565D01*
X40385996Y48227565D01*
X40206750Y48207370D01*
X40206745Y48207369D01*
X40036476Y48147789D01*
X39883737Y48051816D01*
X39756184Y47924263D01*
X39660210Y47771522D01*
X39600630Y47601250D01*
X39594132Y47543574D01*
X39567065Y47479160D01*
X39511867Y47440417D01*
X39401480Y47401791D01*
X39248737Y47305816D01*
X39121184Y47178263D01*
X39025211Y47025524D01*
X38965631Y46855255D01*
X38965630Y46855250D01*
X38945435Y46676004D01*
X38945435Y46675997D01*
X38965630Y46496751D01*
X38965631Y46496746D01*
X39025211Y46326477D01*
X39121184Y46173738D01*
X39183574Y46111348D01*
X39217059Y46050025D01*
X39212075Y45980333D01*
X39170203Y45924400D01*
X39109778Y45900447D01*
X39064750Y45895374D01*
X39064738Y45895371D01*
X38887907Y45833494D01*
X38887157Y45835638D01*
X38828840Y45826045D01*
X38800411Y45834393D01*
X38800097Y45833493D01*
X38623256Y45895373D01*
X38623251Y45895374D01*
X38444006Y45915569D01*
X38443998Y45915569D01*
X38265407Y45895448D01*
X38196585Y45907503D01*
X38145206Y45954852D01*
X38127582Y46022463D01*
X38128304Y46032552D01*
X38143565Y46167998D01*
X38143565Y46168004D01*
X38123369Y46347252D01*
X38114821Y46371681D01*
X38092064Y46436713D01*
X38088502Y46506490D01*
X38121422Y46565345D01*
X38206787Y46650709D01*
X38302760Y46803449D01*
X38362339Y46973716D01*
X38364934Y46996746D01*
X38382536Y47152968D01*
X38382536Y47152975D01*
X38362340Y47332221D01*
X38362339Y47332226D01*
X38324481Y47440417D01*
X38302760Y47502493D01*
X38206787Y47655233D01*
X38079233Y47782787D01*
X38042583Y47805816D01*
X37926494Y47878760D01*
X37756225Y47938340D01*
X37756220Y47938341D01*
X37576975Y47958536D01*
X37576967Y47958536D01*
X37397721Y47938341D01*
X37397716Y47938340D01*
X37227447Y47878760D01*
X37074708Y47782787D01*
X36947155Y47655234D01*
X36851182Y47502495D01*
X36791602Y47332226D01*
X36791601Y47332221D01*
X36771406Y47152975D01*
X36771406Y47152968D01*
X36791601Y46973722D01*
X36791603Y46973714D01*
X36822905Y46884258D01*
X36826466Y46814479D01*
X36793545Y46755623D01*
X36708183Y46670261D01*
X36612211Y46517524D01*
X36552631Y46347255D01*
X36552630Y46347250D01*
X36532435Y46168004D01*
X36532435Y46167997D01*
X36552630Y45988751D01*
X36552631Y45988746D01*
X36612211Y45818477D01*
X36708184Y45665738D01*
X36835737Y45538185D01*
X36841184Y45533841D01*
X36840152Y45532548D01*
X36880742Y45486659D01*
X36891391Y45417605D01*
X36863016Y45353757D01*
X36804626Y45315385D01*
X36768479Y45309999D01*
X31510092Y45309999D01*
X31443053Y45329684D01*
X31397298Y45382488D01*
X31393050Y45393044D01*
X31369786Y45459528D01*
X31273813Y45612267D01*
X31146260Y45739820D01*
X30993521Y45835793D01*
X30823252Y45895373D01*
X30823247Y45895374D01*
X30644002Y45915569D01*
X30643994Y45915569D01*
X30464748Y45895374D01*
X30464735Y45895371D01*
X30287904Y45833494D01*
X30287154Y45835638D01*
X30228837Y45826045D01*
X30200408Y45834393D01*
X30200094Y45833493D01*
X30023253Y45895373D01*
X30023248Y45895374D01*
X29844003Y45915569D01*
X29844002Y45915569D01*
X29844000Y45915569D01*
X29843999Y45915569D01*
X29832381Y45914261D01*
X29763560Y45926317D01*
X29712182Y45973667D01*
X29694501Y46037481D01*
X29694501Y56476004D01*
X50159435Y56476004D01*
X50159435Y56475997D01*
X50179630Y56296751D01*
X50179631Y56296746D01*
X50239211Y56126477D01*
X50335184Y55973738D01*
X50462738Y55846184D01*
X50615478Y55750211D01*
X50785745Y55690632D01*
X50785750Y55690631D01*
X50964996Y55670435D01*
X50965000Y55670435D01*
X50965004Y55670435D01*
X51144249Y55690631D01*
X51144252Y55690632D01*
X51144255Y55690632D01*
X51314522Y55750211D01*
X51467262Y55846184D01*
X51594816Y55973738D01*
X51690789Y56126478D01*
X51750368Y56296745D01*
X51769776Y56468997D01*
X51769777Y56469004D01*
X60058435Y56469004D01*
X60058435Y56468997D01*
X60078630Y56289751D01*
X60078631Y56289746D01*
X60138211Y56119477D01*
X60229786Y55973738D01*
X60234184Y55966738D01*
X60361738Y55839184D01*
X60452080Y55782418D01*
X60503337Y55750211D01*
X60514478Y55743211D01*
X60664740Y55690632D01*
X60684745Y55683632D01*
X60684750Y55683631D01*
X60863996Y55663435D01*
X60864000Y55663435D01*
X60864004Y55663435D01*
X61043249Y55683631D01*
X61043252Y55683632D01*
X61043255Y55683632D01*
X61213522Y55743211D01*
X61366262Y55839184D01*
X61493816Y55966738D01*
X61589789Y56119478D01*
X61649368Y56289745D01*
X61650157Y56296746D01*
X61669565Y56468997D01*
X61669565Y56469004D01*
X70218435Y56469004D01*
X70218435Y56468997D01*
X70238630Y56289751D01*
X70238631Y56289746D01*
X70298211Y56119477D01*
X70389786Y55973738D01*
X70394184Y55966738D01*
X70521738Y55839184D01*
X70612080Y55782418D01*
X70663337Y55750211D01*
X70674478Y55743211D01*
X70824740Y55690632D01*
X70844745Y55683632D01*
X70844750Y55683631D01*
X71023996Y55663435D01*
X71024000Y55663435D01*
X71024004Y55663435D01*
X71203249Y55683631D01*
X71203252Y55683632D01*
X71203255Y55683632D01*
X71373522Y55743211D01*
X71526262Y55839184D01*
X71653816Y55966738D01*
X71749789Y56119478D01*
X71809368Y56289745D01*
X71810157Y56296746D01*
X71829565Y56468997D01*
X71829565Y56469004D01*
X80124435Y56469004D01*
X80124435Y56468997D01*
X80144630Y56289751D01*
X80144631Y56289746D01*
X80204211Y56119477D01*
X80295786Y55973738D01*
X80300184Y55966738D01*
X80427738Y55839184D01*
X80518080Y55782418D01*
X80569337Y55750211D01*
X80580478Y55743211D01*
X80730740Y55690632D01*
X80750745Y55683632D01*
X80750750Y55683631D01*
X80929996Y55663435D01*
X80930000Y55663435D01*
X80930004Y55663435D01*
X81109249Y55683631D01*
X81109252Y55683632D01*
X81109255Y55683632D01*
X81279522Y55743211D01*
X81432262Y55839184D01*
X81559816Y55966738D01*
X81655789Y56119478D01*
X81715368Y56289745D01*
X81716157Y56296746D01*
X81735565Y56468997D01*
X81735565Y56469004D01*
X81715369Y56648250D01*
X81715368Y56648255D01*
X81655788Y56818524D01*
X81559815Y56971263D01*
X81432262Y57098816D01*
X81279523Y57194789D01*
X81109254Y57254369D01*
X81109249Y57254370D01*
X80930004Y57274565D01*
X80929996Y57274565D01*
X80750750Y57254370D01*
X80750745Y57254369D01*
X80580476Y57194789D01*
X80427737Y57098816D01*
X80300184Y56971263D01*
X80204211Y56818524D01*
X80144631Y56648255D01*
X80144630Y56648250D01*
X80124435Y56469004D01*
X71829565Y56469004D01*
X71809369Y56648250D01*
X71809368Y56648255D01*
X71749788Y56818524D01*
X71653815Y56971263D01*
X71526262Y57098816D01*
X71373523Y57194789D01*
X71203254Y57254369D01*
X71203249Y57254370D01*
X71024004Y57274565D01*
X71023996Y57274565D01*
X70844750Y57254370D01*
X70844745Y57254369D01*
X70674476Y57194789D01*
X70521737Y57098816D01*
X70394184Y56971263D01*
X70298211Y56818524D01*
X70238631Y56648255D01*
X70238630Y56648250D01*
X70218435Y56469004D01*
X61669565Y56469004D01*
X61649369Y56648250D01*
X61649368Y56648255D01*
X61589788Y56818524D01*
X61493815Y56971263D01*
X61366262Y57098816D01*
X61213523Y57194789D01*
X61043254Y57254369D01*
X61043249Y57254370D01*
X60864004Y57274565D01*
X60863996Y57274565D01*
X60684750Y57254370D01*
X60684745Y57254369D01*
X60514476Y57194789D01*
X60361737Y57098816D01*
X60234184Y56971263D01*
X60138211Y56818524D01*
X60078631Y56648255D01*
X60078630Y56648250D01*
X60058435Y56469004D01*
X51769777Y56469004D01*
X51770565Y56475997D01*
X51770565Y56476004D01*
X51750369Y56655250D01*
X51750368Y56655255D01*
X51693238Y56818522D01*
X51690789Y56825522D01*
X51594816Y56978262D01*
X51467262Y57105816D01*
X51314523Y57201789D01*
X51144254Y57261369D01*
X51144249Y57261370D01*
X50965004Y57281565D01*
X50964996Y57281565D01*
X50785750Y57261370D01*
X50785745Y57261369D01*
X50615476Y57201789D01*
X50462737Y57105816D01*
X50335184Y56978263D01*
X50239211Y56825524D01*
X50179631Y56655255D01*
X50179630Y56655250D01*
X50159435Y56476004D01*
X29694501Y56476004D01*
X29694501Y61392004D01*
X35009435Y61392004D01*
X35009435Y61391997D01*
X35029630Y61212751D01*
X35029631Y61212746D01*
X35089211Y61042477D01*
X35155370Y60937186D01*
X35185184Y60889738D01*
X35312738Y60762184D01*
X35465478Y60666211D01*
X35635745Y60606632D01*
X35635750Y60606631D01*
X35814996Y60586435D01*
X35815000Y60586435D01*
X35815004Y60586435D01*
X35994249Y60606631D01*
X35994252Y60606632D01*
X35994255Y60606632D01*
X36164522Y60666211D01*
X36317262Y60762184D01*
X36444816Y60889738D01*
X36540789Y61042478D01*
X36600368Y61212745D01*
X36600369Y61212751D01*
X36620565Y61391997D01*
X36620565Y61392004D01*
X36600847Y61567005D01*
X39149437Y61567005D01*
X39149437Y61566998D01*
X39169632Y61387752D01*
X39169633Y61387747D01*
X39229213Y61217478D01*
X39325186Y61064739D01*
X39452740Y60937185D01*
X39605480Y60841212D01*
X39775747Y60781633D01*
X39775752Y60781632D01*
X39954998Y60761436D01*
X39955002Y60761436D01*
X39955006Y60761436D01*
X40134251Y60781632D01*
X40134254Y60781633D01*
X40134257Y60781633D01*
X40304524Y60841212D01*
X40457264Y60937185D01*
X40584818Y61064739D01*
X40680791Y61217479D01*
X40740370Y61387746D01*
X40740849Y61391997D01*
X40760567Y61566998D01*
X40760567Y61567005D01*
X43644435Y61567005D01*
X43644435Y61566998D01*
X43664630Y61387752D01*
X43664631Y61387747D01*
X43724211Y61217478D01*
X43820184Y61064739D01*
X43947738Y60937185D01*
X44100478Y60841212D01*
X44270745Y60781633D01*
X44270750Y60781632D01*
X44449996Y60761436D01*
X44450000Y60761436D01*
X44450004Y60761436D01*
X44629249Y60781632D01*
X44629252Y60781633D01*
X44629255Y60781633D01*
X44799522Y60841212D01*
X44952262Y60937185D01*
X45079816Y61064739D01*
X45175789Y61217479D01*
X45235368Y61387746D01*
X45235847Y61391997D01*
X45255565Y61566998D01*
X45255565Y61567005D01*
X45235369Y61746251D01*
X45235368Y61746256D01*
X45175788Y61916525D01*
X45079815Y62069264D01*
X44952262Y62196817D01*
X44799523Y62292790D01*
X44629254Y62352370D01*
X44629249Y62352371D01*
X44450004Y62372566D01*
X44449996Y62372566D01*
X44270750Y62352371D01*
X44270745Y62352370D01*
X44100476Y62292790D01*
X43947737Y62196817D01*
X43820184Y62069264D01*
X43724211Y61916525D01*
X43664631Y61746256D01*
X43664630Y61746251D01*
X43644435Y61567005D01*
X40760567Y61567005D01*
X40740371Y61746251D01*
X40740370Y61746256D01*
X40680790Y61916525D01*
X40584817Y62069264D01*
X40457264Y62196817D01*
X40304525Y62292790D01*
X40134256Y62352370D01*
X40134251Y62352371D01*
X39955006Y62372566D01*
X39954998Y62372566D01*
X39775752Y62352371D01*
X39775747Y62352370D01*
X39605478Y62292790D01*
X39452739Y62196817D01*
X39325186Y62069264D01*
X39229213Y61916525D01*
X39169633Y61746256D01*
X39169632Y61746251D01*
X39149437Y61567005D01*
X36600847Y61567005D01*
X36600369Y61571250D01*
X36600368Y61571255D01*
X36540788Y61741524D01*
X36444815Y61894263D01*
X36317262Y62021816D01*
X36164523Y62117789D01*
X35994254Y62177369D01*
X35994249Y62177370D01*
X35815004Y62197565D01*
X35814996Y62197565D01*
X35635750Y62177370D01*
X35635745Y62177369D01*
X35465476Y62117789D01*
X35312737Y62021816D01*
X35185184Y61894263D01*
X35089211Y61741524D01*
X35029631Y61571255D01*
X35029630Y61571250D01*
X35009435Y61392004D01*
X29694501Y61392004D01*
X29694501Y63440004D01*
X47200435Y63440004D01*
X47200435Y63439997D01*
X47220630Y63260751D01*
X47220631Y63260746D01*
X47280211Y63090477D01*
X47303247Y63053816D01*
X47376184Y62937738D01*
X47503738Y62810184D01*
X47656478Y62714211D01*
X47826745Y62654632D01*
X47826750Y62654631D01*
X48005996Y62634435D01*
X48006000Y62634435D01*
X48006004Y62634435D01*
X48185249Y62654631D01*
X48185252Y62654632D01*
X48185255Y62654632D01*
X48355522Y62714211D01*
X48508262Y62810184D01*
X48635816Y62937738D01*
X48731789Y63090478D01*
X48791368Y63260745D01*
X48793045Y63275626D01*
X48811565Y63439997D01*
X48811565Y63440004D01*
X48791369Y63619250D01*
X48791368Y63619255D01*
X48757036Y63717370D01*
X48731789Y63789522D01*
X48635816Y63942262D01*
X48508262Y64069816D01*
X48475379Y64090478D01*
X48355523Y64165789D01*
X48185254Y64225369D01*
X48185249Y64225370D01*
X48006004Y64245565D01*
X48005996Y64245565D01*
X47826750Y64225370D01*
X47826745Y64225369D01*
X47656476Y64165789D01*
X47503737Y64069816D01*
X47376184Y63942263D01*
X47280211Y63789524D01*
X47220631Y63619255D01*
X47220630Y63619250D01*
X47200435Y63440004D01*
X29694501Y63440004D01*
X29694501Y64440004D01*
X35770435Y64440004D01*
X35770435Y64439997D01*
X35790630Y64260751D01*
X35790631Y64260746D01*
X35850211Y64090477D01*
X35943341Y63942263D01*
X35946184Y63937738D01*
X36073738Y63810184D01*
X36164080Y63753418D01*
X36221453Y63717368D01*
X36226478Y63714211D01*
X36387723Y63657789D01*
X36396745Y63654632D01*
X36396750Y63654631D01*
X36575996Y63634435D01*
X36576000Y63634435D01*
X36576004Y63634435D01*
X36755249Y63654631D01*
X36755252Y63654632D01*
X36755255Y63654632D01*
X36925522Y63714211D01*
X37078262Y63810184D01*
X37205816Y63937738D01*
X37301789Y64090478D01*
X37361368Y64260745D01*
X37361369Y64260751D01*
X37381565Y64439997D01*
X37381565Y64440004D01*
X37361369Y64619250D01*
X37361368Y64619255D01*
X37335215Y64693997D01*
X37335213Y64694004D01*
X45422435Y64694004D01*
X45422435Y64693997D01*
X45442630Y64514751D01*
X45442631Y64514746D01*
X45502211Y64344477D01*
X45577052Y64225369D01*
X45598184Y64191738D01*
X45725738Y64064184D01*
X45878478Y63968211D01*
X45952636Y63942262D01*
X46048745Y63908632D01*
X46048750Y63908631D01*
X46227996Y63888435D01*
X46228000Y63888435D01*
X46228004Y63888435D01*
X46407249Y63908631D01*
X46407252Y63908632D01*
X46407255Y63908632D01*
X46577522Y63968211D01*
X46730262Y64064184D01*
X46857816Y64191738D01*
X46953789Y64344478D01*
X47013368Y64514745D01*
X47025143Y64619250D01*
X47033565Y64693997D01*
X47033565Y64694004D01*
X47013369Y64873250D01*
X47013368Y64873255D01*
X46953788Y65043524D01*
X46857815Y65196263D01*
X46730262Y65323816D01*
X46577523Y65419789D01*
X46407254Y65479369D01*
X46407249Y65479370D01*
X46228004Y65499565D01*
X46227996Y65499565D01*
X46048750Y65479370D01*
X46048745Y65479369D01*
X45878476Y65419789D01*
X45725737Y65323816D01*
X45598184Y65196263D01*
X45502211Y65043524D01*
X45442631Y64873255D01*
X45442630Y64873250D01*
X45422435Y64694004D01*
X37335213Y64694004D01*
X37301789Y64789522D01*
X37205816Y64942262D01*
X37078262Y65069816D01*
X36925523Y65165789D01*
X36755254Y65225369D01*
X36755249Y65225370D01*
X36576004Y65245565D01*
X36575996Y65245565D01*
X36396750Y65225370D01*
X36396745Y65225369D01*
X36226476Y65165789D01*
X36073737Y65069816D01*
X35946184Y64942263D01*
X35850211Y64789524D01*
X35790631Y64619255D01*
X35790630Y64619250D01*
X35770435Y64440004D01*
X29694501Y64440004D01*
X29694501Y69365717D01*
X29714186Y69432756D01*
X29766990Y69478511D01*
X29786401Y69485490D01*
X29891383Y69513619D01*
X29909320Y69518425D01*
X29909321Y69518426D01*
X29909330Y69518428D01*
X30107639Y69610901D01*
X30286877Y69736405D01*
X30441598Y69891126D01*
X30496626Y69969715D01*
X30514416Y69995120D01*
X30568993Y70038745D01*
X30615990Y70047996D01*
X32644010Y70047996D01*
X32711049Y70028311D01*
X32745584Y69995120D01*
X32768441Y69962477D01*
X32818402Y69891126D01*
X32973123Y69736405D01*
X33152361Y69610901D01*
X33350670Y69518428D01*
X33350676Y69518427D01*
X33350677Y69518426D01*
X33367091Y69514028D01*
X33562023Y69461796D01*
X33744926Y69445795D01*
X33779998Y69442726D01*
X33780000Y69442726D01*
X33780002Y69442726D01*
X33808254Y69445198D01*
X33997977Y69461796D01*
X34209330Y69518428D01*
X34407639Y69610901D01*
X34586877Y69736405D01*
X34642322Y69791851D01*
X34703642Y69825334D01*
X34773334Y69820350D01*
X34817682Y69791849D01*
X34873126Y69736405D01*
X35052364Y69610901D01*
X35250673Y69518428D01*
X35250679Y69518427D01*
X35250680Y69518426D01*
X35267094Y69514028D01*
X35462026Y69461796D01*
X35644929Y69445795D01*
X35680001Y69442726D01*
X35680003Y69442726D01*
X35680005Y69442726D01*
X35708257Y69445198D01*
X35897980Y69461796D01*
X36109333Y69518428D01*
X36307642Y69610901D01*
X36486880Y69736405D01*
X36641601Y69891126D01*
X36696629Y69969715D01*
X36714419Y69995120D01*
X36768996Y70038745D01*
X36815993Y70047996D01*
X40944010Y70047996D01*
X41011049Y70028311D01*
X41045584Y69995120D01*
X41068441Y69962477D01*
X41118402Y69891126D01*
X41273123Y69736405D01*
X41452361Y69610901D01*
X41650670Y69518428D01*
X41650676Y69518427D01*
X41650677Y69518426D01*
X41667091Y69514028D01*
X41862023Y69461796D01*
X42044926Y69445795D01*
X42079998Y69442726D01*
X42080000Y69442726D01*
X42080002Y69442726D01*
X42108254Y69445198D01*
X42297977Y69461796D01*
X42509330Y69518428D01*
X42707639Y69610901D01*
X42886877Y69736405D01*
X42940476Y69790004D01*
X52439435Y69790004D01*
X52439435Y69789997D01*
X52459630Y69610751D01*
X52459631Y69610746D01*
X52519211Y69440477D01*
X52566186Y69365717D01*
X52615184Y69287738D01*
X52742738Y69160184D01*
X52895478Y69064211D01*
X53065745Y69004632D01*
X53065750Y69004631D01*
X53244996Y68984435D01*
X53245000Y68984435D01*
X53245004Y68984435D01*
X53424249Y69004631D01*
X53424252Y69004632D01*
X53424255Y69004632D01*
X53594522Y69064211D01*
X53747262Y69160184D01*
X53874816Y69287738D01*
X53970789Y69440478D01*
X53988841Y69492071D01*
X54029561Y69548846D01*
X54064928Y69568159D01*
X54116522Y69586211D01*
X54269262Y69682184D01*
X54377082Y69790004D01*
X62439435Y69790004D01*
X62439435Y69789997D01*
X62459630Y69610751D01*
X62459631Y69610746D01*
X62519211Y69440477D01*
X62566186Y69365717D01*
X62615184Y69287738D01*
X62742738Y69160184D01*
X62895478Y69064211D01*
X63065745Y69004632D01*
X63065750Y69004631D01*
X63244996Y68984435D01*
X63245000Y68984435D01*
X63245004Y68984435D01*
X63424249Y69004631D01*
X63424252Y69004632D01*
X63424255Y69004632D01*
X63594522Y69064211D01*
X63747262Y69160184D01*
X63874816Y69287738D01*
X63970789Y69440478D01*
X63976658Y69457254D01*
X64017377Y69514028D01*
X64052744Y69533341D01*
X64069522Y69539211D01*
X64222262Y69635184D01*
X64349816Y69762738D01*
X64366948Y69790004D01*
X72439435Y69790004D01*
X72439435Y69789997D01*
X72459630Y69610751D01*
X72459631Y69610746D01*
X72519211Y69440477D01*
X72566186Y69365717D01*
X72615184Y69287738D01*
X72742738Y69160184D01*
X72895478Y69064211D01*
X73065745Y69004632D01*
X73065750Y69004631D01*
X73244996Y68984435D01*
X73245000Y68984435D01*
X73245004Y68984435D01*
X73424249Y69004631D01*
X73424252Y69004632D01*
X73424255Y69004632D01*
X73594522Y69064211D01*
X73747262Y69160184D01*
X73874816Y69287738D01*
X73970789Y69440478D01*
X73997395Y69516517D01*
X74038116Y69573293D01*
X74073483Y69592605D01*
X74149522Y69619211D01*
X74302262Y69715184D01*
X74429816Y69842738D01*
X74525789Y69995478D01*
X74585368Y70165745D01*
X74585960Y70171000D01*
X74605565Y70344997D01*
X74605565Y70345004D01*
X74585369Y70524250D01*
X74585368Y70524255D01*
X74575658Y70552004D01*
X82439435Y70552004D01*
X82439435Y70551997D01*
X82459630Y70372751D01*
X82459633Y70372738D01*
X82515894Y70211955D01*
X82519456Y70142176D01*
X82515894Y70130045D01*
X82459633Y69969263D01*
X82459630Y69969250D01*
X82439435Y69790004D01*
X82439435Y69789997D01*
X82459630Y69610751D01*
X82459631Y69610746D01*
X82519211Y69440477D01*
X82566186Y69365717D01*
X82615184Y69287738D01*
X82742738Y69160184D01*
X82895478Y69064211D01*
X83065745Y69004632D01*
X83065750Y69004631D01*
X83244996Y68984435D01*
X83245000Y68984435D01*
X83245004Y68984435D01*
X83424249Y69004631D01*
X83424252Y69004632D01*
X83424255Y69004632D01*
X83594522Y69064211D01*
X83747262Y69160184D01*
X83874816Y69287738D01*
X83970789Y69440478D01*
X84030368Y69610745D01*
X84038417Y69682184D01*
X84050565Y69789997D01*
X84050565Y69790004D01*
X84030369Y69969250D01*
X84030366Y69969263D01*
X83974106Y70130045D01*
X83970544Y70199824D01*
X83974106Y70211955D01*
X84030366Y70372738D01*
X84030369Y70372751D01*
X84050565Y70551997D01*
X84050565Y70552004D01*
X84030369Y70731250D01*
X84030368Y70731255D01*
X84007804Y70795738D01*
X83970789Y70901522D01*
X83961704Y70915980D01*
X83914699Y70990789D01*
X83874816Y71054262D01*
X83747262Y71181816D01*
X83594523Y71277789D01*
X83424254Y71337369D01*
X83424249Y71337370D01*
X83245004Y71357565D01*
X83244996Y71357565D01*
X83065750Y71337370D01*
X83065745Y71337369D01*
X82895476Y71277789D01*
X82742737Y71181816D01*
X82615184Y71054263D01*
X82519211Y70901524D01*
X82459631Y70731255D01*
X82459630Y70731250D01*
X82439435Y70552004D01*
X74575658Y70552004D01*
X74553782Y70614522D01*
X74525789Y70694522D01*
X74429816Y70847262D01*
X74302262Y70974816D01*
X74276841Y70990789D01*
X74149523Y71070789D01*
X73979254Y71130369D01*
X73979249Y71130370D01*
X73800004Y71150565D01*
X73799996Y71150565D01*
X73620750Y71130370D01*
X73620745Y71130369D01*
X73450476Y71070789D01*
X73297737Y70974816D01*
X73170184Y70847263D01*
X73074210Y70694522D01*
X73047604Y70618484D01*
X73006882Y70561708D01*
X72971516Y70542396D01*
X72895478Y70515790D01*
X72742737Y70419816D01*
X72615184Y70292263D01*
X72519211Y70139524D01*
X72459631Y69969255D01*
X72459630Y69969250D01*
X72439435Y69790004D01*
X64366948Y69790004D01*
X64445789Y69915478D01*
X64505368Y70085745D01*
X64505369Y70085751D01*
X64525565Y70264997D01*
X64525565Y70265004D01*
X64505369Y70444250D01*
X64505368Y70444255D01*
X64480749Y70514613D01*
X64445789Y70614522D01*
X64445242Y70615392D01*
X64372444Y70731250D01*
X64349816Y70767262D01*
X64222262Y70894816D01*
X64069523Y70990789D01*
X63899254Y71050369D01*
X63899249Y71050370D01*
X63720004Y71070565D01*
X63719996Y71070565D01*
X63540750Y71050370D01*
X63540745Y71050369D01*
X63370476Y70990789D01*
X63217737Y70894816D01*
X63090184Y70767263D01*
X62994212Y70614525D01*
X62994210Y70614520D01*
X62988339Y70597743D01*
X62947616Y70540968D01*
X62912257Y70521661D01*
X62895480Y70515790D01*
X62895475Y70515788D01*
X62742737Y70419816D01*
X62615184Y70292263D01*
X62519211Y70139524D01*
X62459631Y69969255D01*
X62459630Y69969250D01*
X62439435Y69790004D01*
X54377082Y69790004D01*
X54396816Y69809738D01*
X54492789Y69962478D01*
X54552368Y70132745D01*
X54556086Y70165745D01*
X54572565Y70311997D01*
X54572565Y70312004D01*
X54552369Y70491250D01*
X54552368Y70491255D01*
X54544195Y70514613D01*
X54492789Y70661522D01*
X54472052Y70694524D01*
X54396815Y70814263D01*
X54269262Y70941816D01*
X54116523Y71037789D01*
X53946254Y71097369D01*
X53946249Y71097370D01*
X53767004Y71117565D01*
X53766996Y71117565D01*
X53587750Y71097370D01*
X53587745Y71097369D01*
X53417476Y71037789D01*
X53264737Y70941816D01*
X53137184Y70814263D01*
X53041210Y70661522D01*
X53023158Y70609930D01*
X52982436Y70553154D01*
X52947070Y70533842D01*
X52895478Y70515790D01*
X52742737Y70419816D01*
X52615184Y70292263D01*
X52519211Y70139524D01*
X52459631Y69969255D01*
X52459630Y69969250D01*
X52439435Y69790004D01*
X42940476Y69790004D01*
X43041598Y69891126D01*
X43096626Y69969715D01*
X43114416Y69995120D01*
X43134324Y70011034D01*
X43133681Y70011677D01*
X43170000Y70047996D01*
X43170000Y70049089D01*
X43181618Y70101494D01*
X43192113Y70124000D01*
X43259575Y70268673D01*
X43316207Y70480026D01*
X43333737Y70680400D01*
X43335277Y70698001D01*
X43335277Y70698006D01*
X43329218Y70767263D01*
X43316207Y70915980D01*
X43259575Y71127333D01*
X43258160Y71130368D01*
X43181618Y71294514D01*
X43170000Y71346918D01*
X43170000Y79426004D01*
X45724435Y79426004D01*
X45724435Y79425997D01*
X45744630Y79246751D01*
X45744631Y79246746D01*
X45804211Y79076477D01*
X45894875Y78932187D01*
X45900184Y78923738D01*
X46027738Y78796184D01*
X46180478Y78700211D01*
X46289633Y78662016D01*
X46350745Y78640632D01*
X46350750Y78640631D01*
X46529996Y78620435D01*
X46530000Y78620435D01*
X46530004Y78620435D01*
X46709249Y78640631D01*
X46709252Y78640632D01*
X46709255Y78640632D01*
X46879522Y78700211D01*
X46934472Y78734738D01*
X46964027Y78753309D01*
X47031264Y78772310D01*
X47095973Y78753309D01*
X47180475Y78700212D01*
X47350745Y78640632D01*
X47350750Y78640631D01*
X47529996Y78620435D01*
X47530000Y78620435D01*
X47530004Y78620435D01*
X47709249Y78640631D01*
X47709252Y78640632D01*
X47709255Y78640632D01*
X47879522Y78700211D01*
X47934472Y78734738D01*
X47964027Y78753309D01*
X48031264Y78772310D01*
X48095973Y78753309D01*
X48180475Y78700212D01*
X48350745Y78640632D01*
X48350750Y78640631D01*
X48529996Y78620435D01*
X48530000Y78620435D01*
X48530004Y78620435D01*
X48709249Y78640631D01*
X48709252Y78640632D01*
X48709255Y78640632D01*
X48879522Y78700211D01*
X48934472Y78734738D01*
X48964027Y78753309D01*
X49031264Y78772310D01*
X49095973Y78753309D01*
X49180475Y78700212D01*
X49350745Y78640632D01*
X49350750Y78640631D01*
X49529996Y78620435D01*
X49530000Y78620435D01*
X49530004Y78620435D01*
X49709249Y78640631D01*
X49709252Y78640632D01*
X49709255Y78640632D01*
X49879522Y78700211D01*
X50032262Y78796184D01*
X50159816Y78923738D01*
X50255789Y79076478D01*
X50315368Y79246745D01*
X50317769Y79268054D01*
X50335565Y79425997D01*
X50335565Y79426004D01*
X50315369Y79605250D01*
X50315368Y79605255D01*
X50255788Y79775524D01*
X50159815Y79928263D01*
X50032262Y80055816D01*
X49879523Y80151789D01*
X49709254Y80211369D01*
X49709249Y80211370D01*
X49530004Y80231565D01*
X49529996Y80231565D01*
X49350750Y80211370D01*
X49350737Y80211367D01*
X49180479Y80151791D01*
X49095971Y80098691D01*
X49028734Y80079691D01*
X48964029Y80098691D01*
X48879520Y80151791D01*
X48709262Y80211367D01*
X48709249Y80211370D01*
X48530004Y80231565D01*
X48529996Y80231565D01*
X48350750Y80211370D01*
X48350737Y80211367D01*
X48180479Y80151791D01*
X48095971Y80098691D01*
X48028734Y80079691D01*
X47964029Y80098691D01*
X47879520Y80151791D01*
X47709262Y80211367D01*
X47709249Y80211370D01*
X47530004Y80231565D01*
X47529996Y80231565D01*
X47350750Y80211370D01*
X47350737Y80211367D01*
X47180479Y80151791D01*
X47095971Y80098691D01*
X47028734Y80079691D01*
X46964029Y80098691D01*
X46879520Y80151791D01*
X46709262Y80211367D01*
X46709249Y80211370D01*
X46530004Y80231565D01*
X46529996Y80231565D01*
X46350750Y80211370D01*
X46350745Y80211369D01*
X46180476Y80151789D01*
X46027737Y80055816D01*
X45900184Y79928263D01*
X45804211Y79775524D01*
X45744631Y79605255D01*
X45744630Y79605250D01*
X45724435Y79426004D01*
X43170000Y79426004D01*
X43170000Y85055002D01*
X43189685Y85122041D01*
X43222877Y85156577D01*
X43336879Y85236402D01*
X43491600Y85391123D01*
X43617104Y85570361D01*
X43709577Y85768670D01*
X43741897Y85889289D01*
X77125500Y85889289D01*
X77125500Y84646712D01*
X77157161Y84406215D01*
X77219947Y84171896D01*
X77226554Y84155946D01*
X77312776Y83947788D01*
X77434064Y83737711D01*
X77434066Y83737708D01*
X77434067Y83737707D01*
X77581733Y83545264D01*
X77581739Y83545257D01*
X77753256Y83373740D01*
X77753262Y83373735D01*
X77945711Y83226064D01*
X78155788Y83104776D01*
X78379900Y83011946D01*
X78614211Y82949162D01*
X78794586Y82925416D01*
X78854711Y82917500D01*
X78854712Y82917500D01*
X79097289Y82917500D01*
X79145388Y82923833D01*
X79337789Y82949162D01*
X79572100Y83011946D01*
X79796212Y83104776D01*
X80006289Y83226064D01*
X80198738Y83373735D01*
X80370265Y83545262D01*
X80517936Y83737711D01*
X80639224Y83947788D01*
X80732054Y84171900D01*
X80794838Y84406211D01*
X80826500Y84646712D01*
X80826500Y85889288D01*
X80826500Y85889289D01*
X81325500Y85889289D01*
X81325500Y84646712D01*
X81357161Y84406215D01*
X81419947Y84171896D01*
X81426554Y84155946D01*
X81512776Y83947788D01*
X81634064Y83737711D01*
X81634066Y83737708D01*
X81634067Y83737707D01*
X81781733Y83545264D01*
X81781739Y83545257D01*
X81953256Y83373740D01*
X81953262Y83373735D01*
X82145711Y83226064D01*
X82355788Y83104776D01*
X82579900Y83011946D01*
X82814211Y82949162D01*
X82994586Y82925416D01*
X83054711Y82917500D01*
X83054712Y82917500D01*
X83297289Y82917500D01*
X83345388Y82923833D01*
X83537789Y82949162D01*
X83772100Y83011946D01*
X83996212Y83104776D01*
X84206289Y83226064D01*
X84398738Y83373735D01*
X84570265Y83545262D01*
X84717936Y83737711D01*
X84839224Y83947788D01*
X84932054Y84171900D01*
X84994838Y84406211D01*
X85026500Y84646712D01*
X85026500Y85889288D01*
X85026500Y85889289D01*
X85525500Y85889289D01*
X85525500Y84646712D01*
X85557161Y84406215D01*
X85619947Y84171896D01*
X85626554Y84155946D01*
X85712776Y83947788D01*
X85834064Y83737711D01*
X85834066Y83737708D01*
X85834067Y83737707D01*
X85981733Y83545264D01*
X85981739Y83545257D01*
X86153256Y83373740D01*
X86153262Y83373735D01*
X86345711Y83226064D01*
X86555788Y83104776D01*
X86779900Y83011946D01*
X87014211Y82949162D01*
X87194586Y82925416D01*
X87254711Y82917500D01*
X87254712Y82917500D01*
X87497289Y82917500D01*
X87545388Y82923833D01*
X87737789Y82949162D01*
X87972100Y83011946D01*
X88196212Y83104776D01*
X88406289Y83226064D01*
X88598738Y83373735D01*
X88770265Y83545262D01*
X88917936Y83737711D01*
X89039224Y83947788D01*
X89132054Y84171900D01*
X89194838Y84406211D01*
X89226500Y84646712D01*
X89226500Y85889288D01*
X89226500Y85889289D01*
X89725500Y85889289D01*
X89725500Y84646712D01*
X89757161Y84406215D01*
X89819947Y84171896D01*
X89826554Y84155946D01*
X89912776Y83947788D01*
X90034064Y83737711D01*
X90034066Y83737708D01*
X90034067Y83737707D01*
X90181733Y83545264D01*
X90181739Y83545257D01*
X90353256Y83373740D01*
X90353262Y83373735D01*
X90545711Y83226064D01*
X90755788Y83104776D01*
X90979900Y83011946D01*
X91214211Y82949162D01*
X91394586Y82925416D01*
X91454711Y82917500D01*
X91454712Y82917500D01*
X91697289Y82917500D01*
X91745388Y82923833D01*
X91937789Y82949162D01*
X92172100Y83011946D01*
X92396212Y83104776D01*
X92606289Y83226064D01*
X92798738Y83373735D01*
X92970265Y83545262D01*
X93117936Y83737711D01*
X93239224Y83947788D01*
X93332054Y84171900D01*
X93394838Y84406211D01*
X93426500Y84646712D01*
X93426500Y85889288D01*
X93394838Y86129789D01*
X93332054Y86364100D01*
X93239224Y86588212D01*
X93117936Y86798289D01*
X93039218Y86900877D01*
X92970266Y86990737D01*
X92970260Y86990744D01*
X92798743Y87162261D01*
X92798736Y87162267D01*
X92606293Y87309933D01*
X92606292Y87309934D01*
X92606289Y87309936D01*
X92396212Y87431224D01*
X92396205Y87431227D01*
X92172104Y87524053D01*
X91981136Y87575223D01*
X91937789Y87586838D01*
X91937788Y87586839D01*
X91937785Y87586839D01*
X91697289Y87618500D01*
X91697288Y87618500D01*
X91454712Y87618500D01*
X91454711Y87618500D01*
X91214214Y87586839D01*
X90979895Y87524053D01*
X90755794Y87431227D01*
X90755785Y87431223D01*
X90545706Y87309933D01*
X90353263Y87162267D01*
X90353256Y87162261D01*
X90181739Y86990744D01*
X90181733Y86990737D01*
X90034067Y86798294D01*
X89912777Y86588215D01*
X89912773Y86588206D01*
X89819947Y86364105D01*
X89757161Y86129786D01*
X89725500Y85889289D01*
X89226500Y85889289D01*
X89194838Y86129789D01*
X89132054Y86364100D01*
X89039224Y86588212D01*
X88917936Y86798289D01*
X88839218Y86900877D01*
X88770266Y86990737D01*
X88770260Y86990744D01*
X88598743Y87162261D01*
X88598736Y87162267D01*
X88406293Y87309933D01*
X88406292Y87309934D01*
X88406289Y87309936D01*
X88196212Y87431224D01*
X88196205Y87431227D01*
X87972104Y87524053D01*
X87781136Y87575223D01*
X87737789Y87586838D01*
X87737788Y87586839D01*
X87737785Y87586839D01*
X87497289Y87618500D01*
X87497288Y87618500D01*
X87254712Y87618500D01*
X87254711Y87618500D01*
X87014214Y87586839D01*
X86779895Y87524053D01*
X86555794Y87431227D01*
X86555785Y87431223D01*
X86345706Y87309933D01*
X86153263Y87162267D01*
X86153256Y87162261D01*
X85981739Y86990744D01*
X85981733Y86990737D01*
X85834067Y86798294D01*
X85712777Y86588215D01*
X85712773Y86588206D01*
X85619947Y86364105D01*
X85557161Y86129786D01*
X85525500Y85889289D01*
X85026500Y85889289D01*
X84994838Y86129789D01*
X84932054Y86364100D01*
X84839224Y86588212D01*
X84717936Y86798289D01*
X84639218Y86900877D01*
X84570266Y86990737D01*
X84570260Y86990744D01*
X84398743Y87162261D01*
X84398736Y87162267D01*
X84206293Y87309933D01*
X84206292Y87309934D01*
X84206289Y87309936D01*
X83996212Y87431224D01*
X83996205Y87431227D01*
X83772104Y87524053D01*
X83581136Y87575223D01*
X83537789Y87586838D01*
X83537788Y87586839D01*
X83537785Y87586839D01*
X83297289Y87618500D01*
X83297288Y87618500D01*
X83054712Y87618500D01*
X83054711Y87618500D01*
X82814214Y87586839D01*
X82579895Y87524053D01*
X82355794Y87431227D01*
X82355785Y87431223D01*
X82145706Y87309933D01*
X81953263Y87162267D01*
X81953256Y87162261D01*
X81781739Y86990744D01*
X81781733Y86990737D01*
X81634067Y86798294D01*
X81512777Y86588215D01*
X81512773Y86588206D01*
X81419947Y86364105D01*
X81357161Y86129786D01*
X81325500Y85889289D01*
X80826500Y85889289D01*
X80794838Y86129789D01*
X80732054Y86364100D01*
X80639224Y86588212D01*
X80517936Y86798289D01*
X80439218Y86900877D01*
X80370266Y86990737D01*
X80370260Y86990744D01*
X80198743Y87162261D01*
X80198736Y87162267D01*
X80006293Y87309933D01*
X80006292Y87309934D01*
X80006289Y87309936D01*
X79796212Y87431224D01*
X79796205Y87431227D01*
X79572104Y87524053D01*
X79381136Y87575223D01*
X79337789Y87586838D01*
X79337788Y87586839D01*
X79337785Y87586839D01*
X79097289Y87618500D01*
X79097288Y87618500D01*
X78854712Y87618500D01*
X78854711Y87618500D01*
X78614214Y87586839D01*
X78379895Y87524053D01*
X78155794Y87431227D01*
X78155785Y87431223D01*
X77945706Y87309933D01*
X77753263Y87162267D01*
X77753256Y87162261D01*
X77581739Y86990744D01*
X77581733Y86990737D01*
X77434067Y86798294D01*
X77312777Y86588215D01*
X77312773Y86588206D01*
X77219947Y86364105D01*
X77157161Y86129786D01*
X77125500Y85889289D01*
X43741897Y85889289D01*
X43766209Y85980023D01*
X43785279Y86198000D01*
X43766209Y86415977D01*
X43709577Y86627330D01*
X43707821Y86631094D01*
X43697329Y86700171D01*
X43725847Y86763955D01*
X43784323Y86802196D01*
X43820203Y86807500D01*
X71218543Y86807500D01*
X71313329Y86826355D01*
X71360723Y86835782D01*
X71411836Y86845949D01*
X71465165Y86868039D01*
X71593914Y86921368D01*
X71757782Y87030861D01*
X71897139Y87170218D01*
X71897140Y87170221D01*
X71904206Y87177286D01*
X71904209Y87177290D01*
X75293778Y90566859D01*
X75293782Y90566861D01*
X75433139Y90706218D01*
X75542632Y90870086D01*
X75542635Y90870093D01*
X75618050Y91052162D01*
X75618051Y91052167D01*
X75620281Y91063371D01*
X75656499Y91245456D01*
X75656500Y91245459D01*
X75656500Y92418016D01*
X77125500Y92418016D01*
X77125500Y89117985D01*
X77136000Y89015205D01*
X77136001Y89015204D01*
X77191186Y88848665D01*
X77191187Y88848663D01*
X77283286Y88699349D01*
X77283289Y88699345D01*
X77407344Y88575290D01*
X77407348Y88575287D01*
X77556662Y88483188D01*
X77556664Y88483187D01*
X77556666Y88483186D01*
X77723203Y88428001D01*
X77825992Y88417500D01*
X77825997Y88417500D01*
X80126003Y88417500D01*
X80126008Y88417500D01*
X80228797Y88428001D01*
X80395334Y88483186D01*
X80544655Y88575289D01*
X80668711Y88699345D01*
X80760814Y88848666D01*
X80815999Y89015203D01*
X80826500Y89117992D01*
X80826500Y91389289D01*
X81325500Y91389289D01*
X81325500Y90146712D01*
X81357161Y89906215D01*
X81419947Y89671896D01*
X81464551Y89564213D01*
X81512776Y89447788D01*
X81634064Y89237711D01*
X81634066Y89237708D01*
X81634067Y89237707D01*
X81781733Y89045264D01*
X81781739Y89045257D01*
X81953256Y88873740D01*
X81953263Y88873734D01*
X81990946Y88844819D01*
X82145711Y88726064D01*
X82355788Y88604776D01*
X82579900Y88511946D01*
X82814211Y88449162D01*
X82974940Y88428002D01*
X83054711Y88417500D01*
X83054712Y88417500D01*
X83297289Y88417500D01*
X83377052Y88428001D01*
X83537789Y88449162D01*
X83772100Y88511946D01*
X83996212Y88604776D01*
X84206289Y88726064D01*
X84398738Y88873735D01*
X84570265Y89045262D01*
X84717936Y89237711D01*
X84839224Y89447788D01*
X84932054Y89671900D01*
X84994838Y89906211D01*
X85026500Y90146712D01*
X85026500Y91389288D01*
X85026500Y91389289D01*
X85525500Y91389289D01*
X85525500Y90146712D01*
X85557161Y89906215D01*
X85619947Y89671896D01*
X85664551Y89564213D01*
X85712776Y89447788D01*
X85834064Y89237711D01*
X85834066Y89237708D01*
X85834067Y89237707D01*
X85981733Y89045264D01*
X85981739Y89045257D01*
X86153256Y88873740D01*
X86153263Y88873734D01*
X86190946Y88844819D01*
X86345711Y88726064D01*
X86555788Y88604776D01*
X86779900Y88511946D01*
X87014211Y88449162D01*
X87174940Y88428002D01*
X87254711Y88417500D01*
X87254712Y88417500D01*
X87497289Y88417500D01*
X87577052Y88428001D01*
X87737789Y88449162D01*
X87972100Y88511946D01*
X88196212Y88604776D01*
X88406289Y88726064D01*
X88598738Y88873735D01*
X88770265Y89045262D01*
X88917936Y89237711D01*
X89039224Y89447788D01*
X89132054Y89671900D01*
X89194838Y89906211D01*
X89226500Y90146712D01*
X89226500Y91389288D01*
X89226500Y91389289D01*
X89725500Y91389289D01*
X89725500Y90146712D01*
X89757161Y89906215D01*
X89819947Y89671896D01*
X89864551Y89564213D01*
X89912776Y89447788D01*
X90034064Y89237711D01*
X90034066Y89237708D01*
X90034067Y89237707D01*
X90181733Y89045264D01*
X90181739Y89045257D01*
X90353256Y88873740D01*
X90353263Y88873734D01*
X90390946Y88844819D01*
X90545711Y88726064D01*
X90755788Y88604776D01*
X90979900Y88511946D01*
X91214211Y88449162D01*
X91374940Y88428002D01*
X91454711Y88417500D01*
X91454712Y88417500D01*
X91697289Y88417500D01*
X91777052Y88428001D01*
X91937789Y88449162D01*
X92172100Y88511946D01*
X92396212Y88604776D01*
X92606289Y88726064D01*
X92798738Y88873735D01*
X92970265Y89045262D01*
X93117936Y89237711D01*
X93239224Y89447788D01*
X93332054Y89671900D01*
X93394838Y89906211D01*
X93426500Y90146712D01*
X93426500Y91389288D01*
X93394838Y91629789D01*
X93332054Y91864100D01*
X93239224Y92088212D01*
X93117936Y92298289D01*
X93026073Y92418008D01*
X92970266Y92490737D01*
X92970260Y92490744D01*
X92798743Y92662261D01*
X92798736Y92662267D01*
X92606293Y92809933D01*
X92606292Y92809934D01*
X92606289Y92809936D01*
X92396212Y92931224D01*
X92342834Y92953334D01*
X92172104Y93024053D01*
X91937785Y93086839D01*
X91697289Y93118500D01*
X91697288Y93118500D01*
X91454712Y93118500D01*
X91454711Y93118500D01*
X91214214Y93086839D01*
X90979895Y93024053D01*
X90755794Y92931227D01*
X90755785Y92931223D01*
X90545706Y92809933D01*
X90353263Y92662267D01*
X90353256Y92662261D01*
X90181739Y92490744D01*
X90181733Y92490737D01*
X90034067Y92298294D01*
X89912777Y92088215D01*
X89912773Y92088206D01*
X89819947Y91864105D01*
X89757161Y91629786D01*
X89725500Y91389289D01*
X89226500Y91389289D01*
X89194838Y91629789D01*
X89132054Y91864100D01*
X89039224Y92088212D01*
X88917936Y92298289D01*
X88826073Y92418008D01*
X88770266Y92490737D01*
X88770260Y92490744D01*
X88598743Y92662261D01*
X88598736Y92662267D01*
X88406293Y92809933D01*
X88406292Y92809934D01*
X88406289Y92809936D01*
X88196212Y92931224D01*
X88142834Y92953334D01*
X87972104Y93024053D01*
X87737785Y93086839D01*
X87497289Y93118500D01*
X87497288Y93118500D01*
X87254712Y93118500D01*
X87254711Y93118500D01*
X87014214Y93086839D01*
X86779895Y93024053D01*
X86555794Y92931227D01*
X86555785Y92931223D01*
X86345706Y92809933D01*
X86153263Y92662267D01*
X86153256Y92662261D01*
X85981739Y92490744D01*
X85981733Y92490737D01*
X85834067Y92298294D01*
X85712777Y92088215D01*
X85712773Y92088206D01*
X85619947Y91864105D01*
X85557161Y91629786D01*
X85525500Y91389289D01*
X85026500Y91389289D01*
X84994838Y91629789D01*
X84932054Y91864100D01*
X84839224Y92088212D01*
X84717936Y92298289D01*
X84626073Y92418008D01*
X84570266Y92490737D01*
X84570260Y92490744D01*
X84398743Y92662261D01*
X84398736Y92662267D01*
X84206293Y92809933D01*
X84206292Y92809934D01*
X84206289Y92809936D01*
X83996212Y92931224D01*
X83942834Y92953334D01*
X83772104Y93024053D01*
X83537785Y93086839D01*
X83297289Y93118500D01*
X83297288Y93118500D01*
X83054712Y93118500D01*
X83054711Y93118500D01*
X82814214Y93086839D01*
X82579895Y93024053D01*
X82355794Y92931227D01*
X82355785Y92931223D01*
X82145706Y92809933D01*
X81953263Y92662267D01*
X81953256Y92662261D01*
X81781739Y92490744D01*
X81781733Y92490737D01*
X81634067Y92298294D01*
X81512777Y92088215D01*
X81512773Y92088206D01*
X81419947Y91864105D01*
X81357161Y91629786D01*
X81325500Y91389289D01*
X80826500Y91389289D01*
X80826500Y92418008D01*
X80815999Y92520797D01*
X80760814Y92687334D01*
X80736262Y92727138D01*
X80668713Y92836652D01*
X80668710Y92836656D01*
X80544655Y92960711D01*
X80544651Y92960714D01*
X80395337Y93052813D01*
X80395335Y93052814D01*
X80312065Y93080407D01*
X80228797Y93107999D01*
X80228795Y93108000D01*
X80126015Y93118500D01*
X80126008Y93118500D01*
X77825992Y93118500D01*
X77825984Y93118500D01*
X77723204Y93108000D01*
X77723203Y93107999D01*
X77556664Y93052814D01*
X77556662Y93052813D01*
X77407348Y92960714D01*
X77407344Y92960711D01*
X77283289Y92836656D01*
X77283286Y92836652D01*
X77191187Y92687338D01*
X77191186Y92687336D01*
X77136001Y92520797D01*
X77136000Y92520796D01*
X77125500Y92418016D01*
X75656500Y92418016D01*
X75656500Y94530542D01*
X75656499Y94530543D01*
X75646475Y94580941D01*
X75618052Y94723835D01*
X75542632Y94905914D01*
X75542631Y94905915D01*
X75542628Y94905921D01*
X75433140Y95069781D01*
X75433137Y95069785D01*
X73812009Y96690911D01*
X73778524Y96752234D01*
X73783508Y96821925D01*
X73825380Y96877859D01*
X73826714Y96878844D01*
X73968365Y96981758D01*
X74124242Y97137635D01*
X74253815Y97315978D01*
X74353895Y97512394D01*
X74422015Y97722049D01*
X74456500Y97939778D01*
X74456500Y98360222D01*
X74422015Y98577951D01*
X74353895Y98787606D01*
X74353895Y98787607D01*
X74319237Y98855625D01*
X74253815Y98984022D01*
X74237260Y99006808D01*
X74124247Y99162359D01*
X74124243Y99162364D01*
X73968363Y99318244D01*
X73968358Y99318248D01*
X73790025Y99447813D01*
X73790024Y99447814D01*
X73790022Y99447815D01*
X73727096Y99479878D01*
X73593606Y99547896D01*
X73593603Y99547897D01*
X73563833Y99557569D01*
X73506158Y99597006D01*
X73478959Y99661364D01*
X73490873Y99730211D01*
X73538117Y99781687D01*
X73602151Y99799500D01*
X78200196Y99799500D01*
X78267235Y99779815D01*
X78312990Y99727011D01*
X78322934Y99657853D01*
X78293909Y99594297D01*
X78256491Y99565015D01*
X78105707Y99488187D01*
X77894254Y99334557D01*
X77709443Y99149746D01*
X77555813Y98938293D01*
X77437152Y98705409D01*
X77356387Y98456837D01*
X77315500Y98198690D01*
X77315500Y97937311D01*
X77356387Y97679164D01*
X77437152Y97430592D01*
X77437154Y97430589D01*
X77555813Y97197708D01*
X77709441Y96986257D01*
X77894257Y96801441D01*
X78105708Y96647813D01*
X78338589Y96529154D01*
X78338591Y96529153D01*
X78462877Y96488771D01*
X78587165Y96448387D01*
X78706726Y96429451D01*
X78845311Y96407500D01*
X78845316Y96407500D01*
X79106689Y96407500D01*
X79231835Y96427323D01*
X79364835Y96448387D01*
X79613411Y96529154D01*
X79846292Y96647813D01*
X80057743Y96801441D01*
X80242559Y96986257D01*
X80396187Y97197708D01*
X80514846Y97430589D01*
X80595613Y97679165D01*
X80629608Y97893801D01*
X80636500Y97937311D01*
X80636500Y98198690D01*
X80610915Y98360222D01*
X80595613Y98456835D01*
X80514846Y98705411D01*
X80396187Y98938292D01*
X80242559Y99149743D01*
X80057743Y99334559D01*
X79846292Y99488187D01*
X79729105Y99547897D01*
X79695509Y99565015D01*
X79644713Y99612990D01*
X79627918Y99680811D01*
X79650455Y99746946D01*
X79705171Y99790397D01*
X79751804Y99799500D01*
X90800196Y99799500D01*
X90867235Y99779815D01*
X90912990Y99727011D01*
X90922934Y99657853D01*
X90893909Y99594297D01*
X90856491Y99565015D01*
X90705707Y99488187D01*
X90494254Y99334557D01*
X90309443Y99149746D01*
X90155813Y98938293D01*
X90037152Y98705409D01*
X89956387Y98456837D01*
X89915500Y98198690D01*
X89915500Y97937311D01*
X89956387Y97679164D01*
X90037152Y97430592D01*
X90037154Y97430589D01*
X90155813Y97197708D01*
X90309441Y96986257D01*
X90494257Y96801441D01*
X90705708Y96647813D01*
X90938589Y96529154D01*
X90938591Y96529153D01*
X91062877Y96488771D01*
X91187165Y96448387D01*
X91306726Y96429451D01*
X91445311Y96407500D01*
X91445316Y96407500D01*
X91706689Y96407500D01*
X91831835Y96427323D01*
X91964835Y96448387D01*
X92213411Y96529154D01*
X92446292Y96647813D01*
X92657743Y96801441D01*
X92842559Y96986257D01*
X92996187Y97197708D01*
X93114846Y97430589D01*
X93195613Y97679165D01*
X93229608Y97893801D01*
X93236500Y97937311D01*
X93236500Y98198690D01*
X93210915Y98360222D01*
X93195613Y98456835D01*
X93114846Y98705411D01*
X92996187Y98938292D01*
X92842559Y99149743D01*
X92657743Y99334559D01*
X92446292Y99488187D01*
X92329105Y99547897D01*
X92295509Y99565015D01*
X92244713Y99612990D01*
X92227918Y99680811D01*
X92250455Y99746946D01*
X92305171Y99790397D01*
X92351804Y99799500D01*
X99675500Y99799500D01*
X99742539Y99779815D01*
X99788294Y99727011D01*
X99799500Y99675500D01*
X99799500Y324500D01*
X99779815Y257461D01*
X99727011Y211706D01*
X99675500Y200500D01*
X90853938Y200500D01*
X90786899Y220185D01*
X90741144Y272989D01*
X90731200Y342147D01*
X90760225Y405703D01*
X90766257Y412181D01*
X90831816Y477740D01*
X90927789Y630480D01*
X90987368Y800747D01*
X91007565Y980002D01*
X90987368Y1159257D01*
X90927789Y1329524D01*
X90914807Y1350184D01*
X90831815Y1482265D01*
X90704262Y1609818D01*
X90551524Y1705790D01*
X90551523Y1705791D01*
X90485044Y1729053D01*
X90428269Y1769775D01*
X90402522Y1834728D01*
X90402000Y1846094D01*
X90402000Y2013908D01*
X90421685Y2080947D01*
X90474489Y2126702D01*
X90485046Y2130950D01*
X90492813Y2133668D01*
X90551522Y2154211D01*
X90704262Y2250184D01*
X90831816Y2377738D01*
X90927789Y2530478D01*
X90987368Y2700745D01*
X90987369Y2700751D01*
X91007565Y2879997D01*
X91007565Y2880004D01*
X90987369Y3059250D01*
X90987368Y3059255D01*
X90927788Y3229524D01*
X90831815Y3382263D01*
X90704262Y3509816D01*
X90551523Y3605789D01*
X90381254Y3665369D01*
X90381249Y3665370D01*
X90202004Y3685565D01*
X90201996Y3685565D01*
X90022750Y3665370D01*
X90022745Y3665369D01*
X89852476Y3605789D01*
X89699736Y3509815D01*
X89696281Y3507059D01*
X89631595Y3480648D01*
X89618965Y3480003D01*
X82085035Y3480003D01*
X82017996Y3499688D01*
X82007719Y3507059D01*
X82004263Y3509815D01*
X82004262Y3509816D01*
X81930342Y3556263D01*
X81851523Y3605789D01*
X81681254Y3665369D01*
X81681249Y3665370D01*
X81502004Y3685565D01*
X81501996Y3685565D01*
X81322750Y3665370D01*
X81322745Y3665369D01*
X81152476Y3605789D01*
X80999737Y3509816D01*
X80872184Y3382263D01*
X80776211Y3229524D01*
X80716631Y3059255D01*
X80716630Y3059250D01*
X80696435Y2880004D01*
X80696435Y2879997D01*
X80716630Y2700751D01*
X80716633Y2700738D01*
X80776209Y2530481D01*
X80797893Y2495970D01*
X80816892Y2428733D01*
X80797893Y2364030D01*
X80776209Y2329520D01*
X80716633Y2159263D01*
X80716630Y2159250D01*
X80696435Y1980004D01*
X80696435Y1979997D01*
X80716630Y1800751D01*
X80716631Y1800746D01*
X80776211Y1630477D01*
X80869339Y1482265D01*
X80872184Y1477738D01*
X80999738Y1350184D01*
X81152478Y1254211D01*
X81218954Y1230950D01*
X81275730Y1190228D01*
X81301478Y1125276D01*
X81302000Y1113908D01*
X81302000Y353247D01*
X81303304Y350858D01*
X81302000Y332624D01*
X81302000Y328638D01*
X81301715Y328638D01*
X81298320Y281166D01*
X81256448Y225233D01*
X81190984Y200816D01*
X81182138Y200500D01*
X324500Y200500D01*
X257461Y220185D01*
X211706Y272989D01*
X200500Y324500D01*
X200500Y17754000D01*
X1695500Y17754000D01*
X1695500Y2854000D01*
X6329408Y2854000D01*
X6396447Y2834315D01*
X6442202Y2781511D01*
X6446450Y2770954D01*
X6469710Y2704479D01*
X6472061Y2700738D01*
X6565684Y2551738D01*
X6693238Y2424184D01*
X6767156Y2377738D01*
X6843894Y2329520D01*
X6845978Y2328211D01*
X7016245Y2268632D01*
X7016250Y2268631D01*
X7195496Y2248435D01*
X7195500Y2248435D01*
X7195504Y2248435D01*
X7374749Y2268631D01*
X7374752Y2268632D01*
X7374755Y2268632D01*
X7545022Y2328211D01*
X7697762Y2424184D01*
X7707819Y2434241D01*
X7769142Y2467726D01*
X7838834Y2462742D01*
X7883181Y2434241D01*
X7893238Y2424184D01*
X7967156Y2377738D01*
X8043894Y2329520D01*
X8045978Y2328211D01*
X8216245Y2268632D01*
X8216250Y2268631D01*
X8395496Y2248435D01*
X8395500Y2248435D01*
X8395504Y2248435D01*
X8574749Y2268631D01*
X8574752Y2268632D01*
X8574755Y2268632D01*
X8745022Y2328211D01*
X8897762Y2424184D01*
X8907819Y2434241D01*
X8969142Y2467726D01*
X9038834Y2462742D01*
X9083181Y2434241D01*
X9093238Y2424184D01*
X9167156Y2377738D01*
X9243894Y2329520D01*
X9245978Y2328211D01*
X9416245Y2268632D01*
X9416250Y2268631D01*
X9595496Y2248435D01*
X9595500Y2248435D01*
X9595504Y2248435D01*
X9774749Y2268631D01*
X9774752Y2268632D01*
X9774755Y2268632D01*
X9945022Y2328211D01*
X10097762Y2424184D01*
X10107819Y2434241D01*
X10169142Y2467726D01*
X10238834Y2462742D01*
X10283181Y2434241D01*
X10293238Y2424184D01*
X10367156Y2377738D01*
X10443894Y2329520D01*
X10445978Y2328211D01*
X10616245Y2268632D01*
X10616250Y2268631D01*
X10795496Y2248435D01*
X10795500Y2248435D01*
X10795504Y2248435D01*
X10974749Y2268631D01*
X10974752Y2268632D01*
X10974755Y2268632D01*
X11145022Y2328211D01*
X11297762Y2424184D01*
X11425316Y2551738D01*
X11521289Y2704478D01*
X11580868Y2874745D01*
X11601065Y3054000D01*
X11600473Y3059250D01*
X11580869Y3233250D01*
X11580868Y3233255D01*
X11521288Y3403524D01*
X11456232Y3507059D01*
X11425316Y3556262D01*
X11297762Y3683816D01*
X11297760Y3683818D01*
X11153527Y3774446D01*
X11107237Y3826780D01*
X11095500Y3879439D01*
X11095500Y17754000D01*
X5175091Y17754000D01*
X5108052Y17773685D01*
X5063368Y17824205D01*
X5061289Y17828522D01*
X4965315Y17981263D01*
X4837762Y18108816D01*
X4685023Y18204789D01*
X4514754Y18264369D01*
X4514749Y18264370D01*
X4335504Y18284565D01*
X4335496Y18284565D01*
X4156250Y18264370D01*
X4156237Y18264367D01*
X3985979Y18204791D01*
X3901471Y18151691D01*
X3834234Y18132691D01*
X3769529Y18151691D01*
X3685020Y18204791D01*
X3514762Y18264367D01*
X3514749Y18264370D01*
X3335504Y18284565D01*
X3335496Y18284565D01*
X3156250Y18264370D01*
X3156245Y18264369D01*
X2985976Y18204789D01*
X2833237Y18108816D01*
X2705684Y17981263D01*
X2609710Y17828522D01*
X2607632Y17824205D01*
X2560813Y17772342D01*
X2495909Y17754000D01*
X1695500Y17754000D01*
X200500Y17754000D01*
X200500Y35534000D01*
X1695500Y35534000D01*
X1695500Y20634000D01*
X6329408Y20634000D01*
X6396447Y20614315D01*
X6442202Y20561511D01*
X6446450Y20550954D01*
X6469710Y20484479D01*
X6481262Y20466094D01*
X6565684Y20331738D01*
X6693238Y20204184D01*
X6783580Y20147418D01*
X6843135Y20109997D01*
X6845978Y20108211D01*
X7016245Y20048632D01*
X7016250Y20048631D01*
X7195496Y20028435D01*
X7195500Y20028435D01*
X7195504Y20028435D01*
X7374749Y20048631D01*
X7374752Y20048632D01*
X7374755Y20048632D01*
X7545022Y20108211D01*
X7697762Y20204184D01*
X7707819Y20214241D01*
X7769142Y20247726D01*
X7838834Y20242742D01*
X7883181Y20214241D01*
X7893238Y20204184D01*
X7983580Y20147418D01*
X8043135Y20109997D01*
X8045978Y20108211D01*
X8216245Y20048632D01*
X8216250Y20048631D01*
X8395496Y20028435D01*
X8395500Y20028435D01*
X8395504Y20028435D01*
X8574749Y20048631D01*
X8574752Y20048632D01*
X8574755Y20048632D01*
X8745022Y20108211D01*
X8897762Y20204184D01*
X8907819Y20214241D01*
X8969142Y20247726D01*
X9038834Y20242742D01*
X9083181Y20214241D01*
X9093238Y20204184D01*
X9183580Y20147418D01*
X9243135Y20109997D01*
X9245978Y20108211D01*
X9416245Y20048632D01*
X9416250Y20048631D01*
X9595496Y20028435D01*
X9595500Y20028435D01*
X9595504Y20028435D01*
X9774749Y20048631D01*
X9774752Y20048632D01*
X9774755Y20048632D01*
X9945022Y20108211D01*
X10097762Y20204184D01*
X10107819Y20214241D01*
X10169142Y20247726D01*
X10238834Y20242742D01*
X10283181Y20214241D01*
X10293238Y20204184D01*
X10383580Y20147418D01*
X10443135Y20109997D01*
X10445978Y20108211D01*
X10616245Y20048632D01*
X10616250Y20048631D01*
X10795496Y20028435D01*
X10795500Y20028435D01*
X10795504Y20028435D01*
X10974749Y20048631D01*
X10974752Y20048632D01*
X10974755Y20048632D01*
X11145022Y20108211D01*
X11297762Y20204184D01*
X11425316Y20331738D01*
X11521289Y20484478D01*
X11580868Y20654745D01*
X11580869Y20654751D01*
X11601065Y20833997D01*
X11601065Y20834004D01*
X11580869Y21013250D01*
X11580868Y21013255D01*
X11529351Y21160482D01*
X11521289Y21183522D01*
X11425316Y21336262D01*
X11297762Y21463816D01*
X11297760Y21463818D01*
X11153527Y21554446D01*
X11107237Y21606780D01*
X11095500Y21659439D01*
X11095500Y35534000D01*
X5175091Y35534000D01*
X5108052Y35553685D01*
X5063368Y35604205D01*
X5061289Y35608522D01*
X4988020Y35725129D01*
X4965316Y35761262D01*
X4837762Y35888816D01*
X4771031Y35930746D01*
X4685023Y35984789D01*
X4514754Y36044369D01*
X4514749Y36044370D01*
X4335504Y36064565D01*
X4335496Y36064565D01*
X4156250Y36044370D01*
X4156237Y36044367D01*
X3985979Y35984791D01*
X3901471Y35931691D01*
X3834234Y35912691D01*
X3769529Y35931691D01*
X3685020Y35984791D01*
X3514762Y36044367D01*
X3514749Y36044370D01*
X3335504Y36064565D01*
X3335496Y36064565D01*
X3156250Y36044370D01*
X3156245Y36044369D01*
X2985976Y35984789D01*
X2833237Y35888816D01*
X2705684Y35761263D01*
X2609710Y35608522D01*
X2607632Y35604205D01*
X2560813Y35552342D01*
X2495909Y35534000D01*
X1695500Y35534000D01*
X200500Y35534000D01*
X200500Y70124000D01*
X704000Y70124000D01*
X704000Y42799000D01*
X1471923Y42799000D01*
X1538962Y42779315D01*
X1579309Y42737001D01*
X1612141Y42680135D01*
X1653812Y42633854D01*
X1731764Y42547279D01*
X1731767Y42547277D01*
X1731770Y42547274D01*
X1876407Y42442188D01*
X2039733Y42369471D01*
X2214609Y42332300D01*
X2214610Y42332300D01*
X2393389Y42332300D01*
X2393391Y42332300D01*
X2568267Y42369471D01*
X2731593Y42442188D01*
X2731597Y42442192D01*
X2737224Y42445439D01*
X2737904Y42444261D01*
X2796911Y42465320D01*
X2864966Y42449500D01*
X2875783Y42442548D01*
X2876402Y42442191D01*
X2876404Y42442190D01*
X2876407Y42442188D01*
X3039733Y42369471D01*
X3214609Y42332300D01*
X3214610Y42332300D01*
X3393389Y42332300D01*
X3393391Y42332300D01*
X3568267Y42369471D01*
X3731593Y42442188D01*
X3731597Y42442192D01*
X3737224Y42445439D01*
X3737904Y42444261D01*
X3796911Y42465320D01*
X3864966Y42449500D01*
X3875783Y42442548D01*
X3876402Y42442191D01*
X3876404Y42442190D01*
X3876407Y42442188D01*
X4039733Y42369471D01*
X4214609Y42332300D01*
X4214610Y42332300D01*
X4393389Y42332300D01*
X4393391Y42332300D01*
X4568267Y42369471D01*
X4731593Y42442188D01*
X4876230Y42547274D01*
X4995859Y42680135D01*
X5028690Y42737001D01*
X5079256Y42785215D01*
X5136077Y42799000D01*
X5751923Y42799000D01*
X5818962Y42779315D01*
X5859309Y42737001D01*
X5892141Y42680135D01*
X5933812Y42633854D01*
X6011764Y42547279D01*
X6011767Y42547277D01*
X6011770Y42547274D01*
X6156407Y42442188D01*
X6319733Y42369471D01*
X6494609Y42332300D01*
X6494610Y42332300D01*
X6673389Y42332300D01*
X6673391Y42332300D01*
X6848267Y42369471D01*
X7011593Y42442188D01*
X7019112Y42447652D01*
X7084918Y42471133D01*
X7152972Y42455309D01*
X7164887Y42447652D01*
X7172407Y42442188D01*
X7335733Y42369471D01*
X7510609Y42332300D01*
X7510610Y42332300D01*
X7689389Y42332300D01*
X7689391Y42332300D01*
X7864267Y42369471D01*
X8027593Y42442188D01*
X8172230Y42547274D01*
X8291859Y42680135D01*
X8324690Y42737001D01*
X8375256Y42785215D01*
X8432077Y42799000D01*
X14403999Y42799000D01*
X14404000Y42799000D01*
X14408941Y48200004D01*
X21292435Y48200004D01*
X21292435Y48199997D01*
X21312630Y48020751D01*
X21312631Y48020746D01*
X21372211Y47850477D01*
X21468184Y47697738D01*
X21595738Y47570184D01*
X21685148Y47514004D01*
X21740601Y47479160D01*
X21748478Y47474211D01*
X21897697Y47421997D01*
X21918745Y47414632D01*
X21918749Y47414631D01*
X21998730Y47405620D01*
X22050246Y47399816D01*
X22114659Y47372750D01*
X22154214Y47315156D01*
X22159582Y47262713D01*
X22140965Y47097475D01*
X22140965Y47097467D01*
X22161160Y46918221D01*
X22161161Y46918216D01*
X22220741Y46747947D01*
X22291626Y46635135D01*
X22316714Y46595208D01*
X22444268Y46467654D01*
X22493512Y46436712D01*
X22566847Y46390632D01*
X22597008Y46371681D01*
X22726191Y46326478D01*
X22767275Y46312102D01*
X22767280Y46312101D01*
X22946526Y46291905D01*
X22946530Y46291905D01*
X22946534Y46291905D01*
X23125779Y46312101D01*
X23125782Y46312102D01*
X23125785Y46312102D01*
X23296052Y46371681D01*
X23448792Y46467654D01*
X23576346Y46595208D01*
X23672319Y46747948D01*
X23731898Y46918215D01*
X23734148Y46938185D01*
X23752095Y47097467D01*
X23752095Y47097474D01*
X23731899Y47276720D01*
X23731898Y47276725D01*
X23725889Y47293898D01*
X23672319Y47446992D01*
X23672317Y47446995D01*
X23672317Y47446996D01*
X23670430Y47450915D01*
X23659075Y47519856D01*
X23686795Y47583992D01*
X23716173Y47609714D01*
X23786527Y47653919D01*
X23914081Y47781473D01*
X24010054Y47934213D01*
X24069633Y48104480D01*
X24074513Y48147789D01*
X24089830Y48283732D01*
X24089830Y48283739D01*
X24069634Y48462985D01*
X24069633Y48462990D01*
X24010053Y48633259D01*
X23914080Y48785998D01*
X23786527Y48913551D01*
X23633786Y49009525D01*
X23533110Y49044753D01*
X23463520Y49069103D01*
X23463518Y49069104D01*
X23463513Y49069105D01*
X23460153Y49069872D01*
X23458203Y49070963D01*
X23456948Y49071402D01*
X23457024Y49071622D01*
X23399177Y49103985D01*
X23366323Y49165649D01*
X23370713Y49231717D01*
X23391367Y49290741D01*
X23391369Y49290751D01*
X23411565Y49469997D01*
X23411565Y49470004D01*
X23391369Y49649250D01*
X23391368Y49649255D01*
X23331788Y49819524D01*
X23235815Y49972263D01*
X23108262Y50099816D01*
X22955523Y50195789D01*
X22785254Y50255369D01*
X22785249Y50255370D01*
X22606004Y50275565D01*
X22605996Y50275565D01*
X22426750Y50255370D01*
X22426745Y50255369D01*
X22256476Y50195789D01*
X22103737Y50099816D01*
X21976184Y49972263D01*
X21880211Y49819524D01*
X21820631Y49649255D01*
X21820630Y49649250D01*
X21800435Y49470004D01*
X21800435Y49469997D01*
X21820630Y49290751D01*
X21820631Y49290746D01*
X21880213Y49120473D01*
X21881247Y49118325D01*
X21881498Y49116800D01*
X21882511Y49113905D01*
X21882003Y49113728D01*
X21892597Y49049384D01*
X21864873Y48985250D01*
X21810480Y48947486D01*
X21748480Y48925792D01*
X21595737Y48829816D01*
X21468184Y48702263D01*
X21372211Y48549524D01*
X21312631Y48379255D01*
X21312630Y48379250D01*
X21292435Y48200004D01*
X14408941Y48200004D01*
X14421955Y62424004D01*
X17736435Y62424004D01*
X17736435Y62423997D01*
X17756630Y62244751D01*
X17756631Y62244746D01*
X17816211Y62074477D01*
X17912184Y61921738D01*
X18039738Y61794184D01*
X18192478Y61698211D01*
X18362745Y61638632D01*
X18362750Y61638631D01*
X18541996Y61618435D01*
X18542000Y61618435D01*
X18542004Y61618435D01*
X18721249Y61638631D01*
X18721252Y61638632D01*
X18721255Y61638632D01*
X18891522Y61698211D01*
X19044262Y61794184D01*
X19171816Y61921738D01*
X19267789Y62074478D01*
X19267793Y62074491D01*
X19268275Y62075490D01*
X19268769Y62076038D01*
X19271494Y62080374D01*
X19272252Y62079898D01*
X19315090Y62127357D01*
X19382514Y62145681D01*
X19393883Y62144927D01*
X19453032Y62138262D01*
X19557997Y62126435D01*
X19558000Y62126435D01*
X19558004Y62126435D01*
X19737249Y62146631D01*
X19737252Y62146632D01*
X19737255Y62146632D01*
X19907522Y62206211D01*
X20060262Y62302184D01*
X20187816Y62429738D01*
X20283789Y62582478D01*
X20343368Y62752745D01*
X20345709Y62773522D01*
X20363565Y62931997D01*
X20363565Y62932004D01*
X20343369Y63111250D01*
X20343368Y63111255D01*
X20308439Y63211075D01*
X20283789Y63281522D01*
X20187816Y63434262D01*
X20060262Y63561816D01*
X19907523Y63657789D01*
X19737254Y63717369D01*
X19737249Y63717370D01*
X19558004Y63737565D01*
X19557996Y63737565D01*
X19378750Y63717370D01*
X19378745Y63717369D01*
X19208476Y63657789D01*
X19055737Y63561816D01*
X18928184Y63434263D01*
X18832209Y63281521D01*
X18831715Y63280493D01*
X18831218Y63279944D01*
X18828506Y63275626D01*
X18827749Y63276102D01*
X18784892Y63228633D01*
X18717465Y63210321D01*
X18706112Y63211075D01*
X18542004Y63229565D01*
X18541996Y63229565D01*
X18362750Y63209370D01*
X18362745Y63209369D01*
X18192476Y63149789D01*
X18039737Y63053816D01*
X17912184Y62926263D01*
X17816211Y62773524D01*
X17756631Y62603255D01*
X17756630Y62603250D01*
X17736435Y62424004D01*
X14421955Y62424004D01*
X14429000Y70124000D01*
X14428999Y70124000D01*
X13805591Y70124000D01*
X13738552Y70143685D01*
X13698204Y70185999D01*
X13645859Y70276665D01*
X13631815Y70292262D01*
X13526235Y70409522D01*
X13526232Y70409524D01*
X13526231Y70409525D01*
X13526230Y70409526D01*
X13381593Y70514612D01*
X13218267Y70587329D01*
X13218265Y70587330D01*
X13047987Y70623523D01*
X13043391Y70624500D01*
X12864609Y70624500D01*
X12860013Y70623523D01*
X12689733Y70587330D01*
X12689728Y70587328D01*
X12526408Y70514612D01*
X12520775Y70511360D01*
X12520097Y70512535D01*
X12461064Y70491479D01*
X12393012Y70507313D01*
X12382207Y70514258D01*
X12381597Y70514610D01*
X12381593Y70514612D01*
X12218267Y70587329D01*
X12218265Y70587330D01*
X12047987Y70623523D01*
X12043391Y70624500D01*
X11864609Y70624500D01*
X11860013Y70623523D01*
X11689733Y70587330D01*
X11689728Y70587328D01*
X11526408Y70514612D01*
X11520775Y70511360D01*
X11520097Y70512535D01*
X11461064Y70491479D01*
X11393012Y70507313D01*
X11382207Y70514258D01*
X11381600Y70514608D01*
X11381596Y70514610D01*
X11381593Y70514612D01*
X11293924Y70553645D01*
X11240689Y70598894D01*
X11220368Y70665743D01*
X11239413Y70732967D01*
X11256678Y70754601D01*
X11297816Y70795738D01*
X11393789Y70948478D01*
X11453368Y71118745D01*
X11454336Y71127333D01*
X11458082Y71160580D01*
X11485148Y71224995D01*
X11542742Y71264550D01*
X11567420Y71269918D01*
X11609249Y71274631D01*
X11609252Y71274632D01*
X11609255Y71274632D01*
X11779522Y71334211D01*
X11932262Y71430184D01*
X12059816Y71557738D01*
X12155789Y71710478D01*
X12215368Y71880745D01*
X12220672Y71927816D01*
X12235565Y72059997D01*
X12235565Y72060004D01*
X12215369Y72239250D01*
X12215368Y72239255D01*
X12189214Y72313998D01*
X12155789Y72409522D01*
X12059816Y72562262D01*
X11932262Y72689816D01*
X11779523Y72785789D01*
X11609254Y72845369D01*
X11609249Y72845370D01*
X11430004Y72865565D01*
X11429996Y72865565D01*
X11250750Y72845370D01*
X11250745Y72845369D01*
X11080476Y72785789D01*
X10927737Y72689816D01*
X10800184Y72562263D01*
X10704210Y72409522D01*
X10644630Y72239250D01*
X10639917Y72197418D01*
X10612850Y72133004D01*
X10555254Y72093450D01*
X10530582Y72088083D01*
X10488750Y72083370D01*
X10318477Y72023790D01*
X10318010Y72023564D01*
X10317677Y72023510D01*
X10311904Y72021489D01*
X10311550Y72022501D01*
X10249068Y72012215D01*
X10184935Y72039941D01*
X10145972Y72097938D01*
X10140993Y72149171D01*
X10159565Y72313998D01*
X10159565Y72314004D01*
X10139369Y72493250D01*
X10139368Y72493255D01*
X10079788Y72663524D01*
X9983815Y72816263D01*
X9856262Y72943816D01*
X9703523Y73039789D01*
X9533254Y73099369D01*
X9533249Y73099370D01*
X9354004Y73119565D01*
X9353996Y73119565D01*
X9174750Y73099370D01*
X9174745Y73099369D01*
X9004476Y73039789D01*
X8851737Y72943816D01*
X8724184Y72816263D01*
X8628211Y72663524D01*
X8568631Y72493255D01*
X8568630Y72493250D01*
X8548435Y72314004D01*
X8548435Y72313997D01*
X8568630Y72134751D01*
X8568631Y72134746D01*
X8628211Y71964477D01*
X8680820Y71880751D01*
X8724184Y71811738D01*
X8851738Y71684184D01*
X8910085Y71647522D01*
X9000817Y71590511D01*
X9004478Y71588211D01*
X9091565Y71557738D01*
X9174745Y71528632D01*
X9174750Y71528631D01*
X9353996Y71508435D01*
X9354000Y71508435D01*
X9354004Y71508435D01*
X9533249Y71528631D01*
X9533252Y71528632D01*
X9533255Y71528632D01*
X9703522Y71588211D01*
X9703531Y71588217D01*
X9703969Y71588427D01*
X9704290Y71588481D01*
X9710095Y71590511D01*
X9710450Y71589496D01*
X9772909Y71599788D01*
X9837047Y71572074D01*
X9876021Y71514084D01*
X9881006Y71462831D01*
X9862435Y71298004D01*
X9862435Y71297997D01*
X9882630Y71118751D01*
X9882631Y71118746D01*
X9927406Y70990789D01*
X9942211Y70948478D01*
X10005809Y70847262D01*
X10026413Y70814472D01*
X10045413Y70747236D01*
X10025045Y70680400D01*
X9971778Y70635186D01*
X9921419Y70624500D01*
X9864609Y70624500D01*
X9860013Y70623523D01*
X9689733Y70587330D01*
X9689728Y70587328D01*
X9526408Y70514613D01*
X9381768Y70409525D01*
X9262141Y70276666D01*
X9255406Y70265000D01*
X9209795Y70186000D01*
X9159230Y70137785D01*
X9102409Y70124000D01*
X704000Y70124000D01*
X200500Y70124000D01*
X200500Y71253343D01*
X4483774Y71253343D01*
X4483774Y71253336D01*
X4503969Y71074090D01*
X4503970Y71074085D01*
X4563550Y70903816D01*
X4649353Y70767263D01*
X4659523Y70751077D01*
X4787077Y70623523D01*
X4877419Y70566757D01*
X4917803Y70541382D01*
X4939817Y70527550D01*
X5075627Y70480028D01*
X5110084Y70467971D01*
X5110089Y70467970D01*
X5289335Y70447774D01*
X5289339Y70447774D01*
X5289343Y70447774D01*
X5468588Y70467970D01*
X5468591Y70467971D01*
X5468594Y70467971D01*
X5638861Y70527550D01*
X5791601Y70623523D01*
X5919155Y70751077D01*
X6015128Y70903817D01*
X6074707Y71074084D01*
X6074708Y71074090D01*
X6094904Y71253336D01*
X6094904Y71253343D01*
X6074708Y71432589D01*
X6074707Y71432594D01*
X6025901Y71572074D01*
X6015128Y71602861D01*
X5919155Y71755601D01*
X5791601Y71883155D01*
X5638862Y71979128D01*
X5468593Y72038708D01*
X5468588Y72038709D01*
X5289343Y72058904D01*
X5289335Y72058904D01*
X5110089Y72038709D01*
X5110084Y72038708D01*
X4939815Y71979128D01*
X4787076Y71883155D01*
X4659523Y71755602D01*
X4563550Y71602863D01*
X4503970Y71432594D01*
X4503969Y71432589D01*
X4483774Y71253343D01*
X200500Y71253343D01*
X200500Y77642690D01*
X691500Y77642690D01*
X691500Y77381311D01*
X732387Y77123164D01*
X813152Y76874592D01*
X813154Y76874589D01*
X931813Y76641708D01*
X1085441Y76430257D01*
X1270257Y76245441D01*
X1481708Y76091813D01*
X1714589Y75973154D01*
X1714591Y75973153D01*
X1806332Y75943345D01*
X1963165Y75892387D01*
X2082726Y75873451D01*
X2221311Y75851500D01*
X2221316Y75851500D01*
X2482689Y75851500D01*
X2607835Y75871323D01*
X2740835Y75892387D01*
X2989411Y75973154D01*
X3222292Y76091813D01*
X3433743Y76245441D01*
X3618559Y76430257D01*
X3772187Y76641708D01*
X3890846Y76874589D01*
X3971613Y77123165D01*
X3992677Y77256165D01*
X4012500Y77381311D01*
X4012500Y77642690D01*
X3975897Y77873786D01*
X3971613Y77900835D01*
X3890846Y78149411D01*
X3772187Y78382292D01*
X3618559Y78593743D01*
X3550286Y78662016D01*
X7301500Y78662016D01*
X7301500Y76361985D01*
X7312000Y76259205D01*
X7312001Y76259203D01*
X7339593Y76175935D01*
X7367186Y76092665D01*
X7367187Y76092663D01*
X7459286Y75943349D01*
X7459289Y75943345D01*
X7583344Y75819290D01*
X7583348Y75819287D01*
X7732662Y75727188D01*
X7732664Y75727187D01*
X7732666Y75727186D01*
X7899203Y75672001D01*
X8001992Y75661500D01*
X8001997Y75661500D01*
X11302003Y75661500D01*
X11302008Y75661500D01*
X11404797Y75672001D01*
X11571334Y75727186D01*
X11720655Y75819289D01*
X11844711Y75943345D01*
X11936814Y76092666D01*
X11991999Y76259203D01*
X12002500Y76361992D01*
X12002500Y77633289D01*
X12801500Y77633289D01*
X12801500Y77390712D01*
X12833161Y77150215D01*
X12895947Y76915896D01*
X12988773Y76691795D01*
X12988776Y76691788D01*
X13110064Y76481711D01*
X13110066Y76481708D01*
X13110067Y76481707D01*
X13257733Y76289264D01*
X13257739Y76289257D01*
X13429256Y76117740D01*
X13429263Y76117734D01*
X13463043Y76091814D01*
X13621711Y75970064D01*
X13831788Y75848776D01*
X14055900Y75755946D01*
X14290211Y75693162D01*
X14450940Y75672002D01*
X14530711Y75661500D01*
X14530712Y75661500D01*
X15773289Y75661500D01*
X15853052Y75672001D01*
X16013789Y75693162D01*
X16248100Y75755946D01*
X16472212Y75848776D01*
X16682289Y75970064D01*
X16874738Y76117735D01*
X17046265Y76289262D01*
X17193936Y76481711D01*
X17315224Y76691788D01*
X17408054Y76915900D01*
X17470838Y77150211D01*
X17502500Y77390712D01*
X17502500Y77633288D01*
X17470838Y77873789D01*
X17408054Y78108100D01*
X17315224Y78332212D01*
X17193936Y78542289D01*
X17102073Y78662008D01*
X17046266Y78734737D01*
X17046260Y78734744D01*
X16874743Y78906261D01*
X16874736Y78906267D01*
X16682293Y79053933D01*
X16682292Y79053934D01*
X16682289Y79053936D01*
X16472212Y79175224D01*
X16472205Y79175227D01*
X16248104Y79268053D01*
X16013785Y79330839D01*
X15773289Y79362500D01*
X15773288Y79362500D01*
X14530712Y79362500D01*
X14530711Y79362500D01*
X14290214Y79330839D01*
X14055895Y79268053D01*
X13831794Y79175227D01*
X13831785Y79175223D01*
X13621706Y79053933D01*
X13429263Y78906267D01*
X13429256Y78906261D01*
X13257739Y78734744D01*
X13257733Y78734737D01*
X13110067Y78542294D01*
X12988777Y78332215D01*
X12988773Y78332206D01*
X12895947Y78108105D01*
X12833161Y77873786D01*
X12801500Y77633289D01*
X12002500Y77633289D01*
X12002500Y78662008D01*
X11991999Y78764797D01*
X11936814Y78931334D01*
X11863096Y79050848D01*
X11844713Y79080652D01*
X11844710Y79080656D01*
X11720655Y79204711D01*
X11720651Y79204714D01*
X11571337Y79296813D01*
X11571335Y79296814D01*
X11488065Y79324407D01*
X11404797Y79351999D01*
X11404795Y79352000D01*
X11302015Y79362500D01*
X11302008Y79362500D01*
X8001992Y79362500D01*
X8001984Y79362500D01*
X7899204Y79352000D01*
X7899203Y79351999D01*
X7732664Y79296814D01*
X7732662Y79296813D01*
X7583348Y79204714D01*
X7583344Y79204711D01*
X7459289Y79080656D01*
X7459286Y79080652D01*
X7367187Y78931338D01*
X7367186Y78931336D01*
X7312001Y78764797D01*
X7312000Y78764796D01*
X7301500Y78662016D01*
X3550286Y78662016D01*
X3433743Y78778559D01*
X3222292Y78932187D01*
X2989408Y79050848D01*
X2740836Y79131613D01*
X2482689Y79172500D01*
X2482684Y79172500D01*
X2221316Y79172500D01*
X2221311Y79172500D01*
X1963163Y79131613D01*
X1714591Y79050848D01*
X1481707Y78932187D01*
X1270254Y78778557D01*
X1085443Y78593746D01*
X931813Y78382293D01*
X813152Y78149409D01*
X732387Y77900837D01*
X691500Y77642690D01*
X200500Y77642690D01*
X200500Y81833289D01*
X7301500Y81833289D01*
X7301500Y81590712D01*
X7333161Y81350215D01*
X7395947Y81115896D01*
X7488773Y80891795D01*
X7488776Y80891788D01*
X7610064Y80681711D01*
X7610066Y80681708D01*
X7610067Y80681707D01*
X7757733Y80489264D01*
X7757739Y80489257D01*
X7929256Y80317740D01*
X7929262Y80317735D01*
X8121711Y80170064D01*
X8331788Y80048776D01*
X8555900Y79955946D01*
X8790211Y79893162D01*
X8970586Y79869416D01*
X9030711Y79861500D01*
X9030712Y79861500D01*
X10273289Y79861500D01*
X10321388Y79867833D01*
X10513789Y79893162D01*
X10748100Y79955946D01*
X10972212Y80048776D01*
X11182289Y80170064D01*
X11374738Y80317735D01*
X11546265Y80489262D01*
X11693936Y80681711D01*
X11815224Y80891788D01*
X11908054Y81115900D01*
X11970838Y81350211D01*
X12002500Y81590712D01*
X12002500Y81833288D01*
X12002500Y81833289D01*
X12801500Y81833289D01*
X12801500Y81590712D01*
X12833161Y81350215D01*
X12895947Y81115896D01*
X12988773Y80891795D01*
X12988776Y80891788D01*
X13110064Y80681711D01*
X13110066Y80681708D01*
X13110067Y80681707D01*
X13257733Y80489264D01*
X13257739Y80489257D01*
X13429256Y80317740D01*
X13429262Y80317735D01*
X13621711Y80170064D01*
X13831788Y80048776D01*
X14055900Y79955946D01*
X14290211Y79893162D01*
X14470586Y79869416D01*
X14530711Y79861500D01*
X14530712Y79861500D01*
X15773289Y79861500D01*
X15821388Y79867833D01*
X16013789Y79893162D01*
X16248100Y79955946D01*
X16472212Y80048776D01*
X16682289Y80170064D01*
X16874738Y80317735D01*
X17046265Y80489262D01*
X17193936Y80681711D01*
X17315224Y80891788D01*
X17408054Y81115900D01*
X17470838Y81350211D01*
X17502500Y81590712D01*
X17502500Y81833288D01*
X17470838Y82073789D01*
X17408054Y82308100D01*
X17315224Y82532212D01*
X17193936Y82742289D01*
X17046265Y82934738D01*
X17046260Y82934744D01*
X16874743Y83106261D01*
X16874736Y83106267D01*
X16682293Y83253933D01*
X16682292Y83253934D01*
X16682289Y83253936D01*
X16474791Y83373735D01*
X16472214Y83375223D01*
X16472205Y83375227D01*
X16248104Y83468053D01*
X16013785Y83530839D01*
X15773289Y83562500D01*
X15773288Y83562500D01*
X14530712Y83562500D01*
X14530711Y83562500D01*
X14290214Y83530839D01*
X14055895Y83468053D01*
X13831794Y83375227D01*
X13831785Y83375223D01*
X13621706Y83253933D01*
X13429263Y83106267D01*
X13429256Y83106261D01*
X13257739Y82934744D01*
X13257733Y82934737D01*
X13110067Y82742294D01*
X12988777Y82532215D01*
X12988773Y82532206D01*
X12895947Y82308105D01*
X12833161Y82073786D01*
X12801500Y81833289D01*
X12002500Y81833289D01*
X11970838Y82073789D01*
X11908054Y82308100D01*
X11815224Y82532212D01*
X11693936Y82742289D01*
X11546265Y82934738D01*
X11546260Y82934744D01*
X11374743Y83106261D01*
X11374736Y83106267D01*
X11182293Y83253933D01*
X11182292Y83253934D01*
X11182289Y83253936D01*
X10974791Y83373735D01*
X10972214Y83375223D01*
X10972205Y83375227D01*
X10748104Y83468053D01*
X10513785Y83530839D01*
X10273289Y83562500D01*
X10273288Y83562500D01*
X9030712Y83562500D01*
X9030711Y83562500D01*
X8790214Y83530839D01*
X8555895Y83468053D01*
X8331794Y83375227D01*
X8331785Y83375223D01*
X8121706Y83253933D01*
X7929263Y83106267D01*
X7929256Y83106261D01*
X7757739Y82934744D01*
X7757733Y82934737D01*
X7610067Y82742294D01*
X7488777Y82532215D01*
X7488773Y82532206D01*
X7395947Y82308105D01*
X7333161Y82073786D01*
X7301500Y81833289D01*
X200500Y81833289D01*
X200500Y86042690D01*
X691500Y86042690D01*
X691500Y85781311D01*
X732387Y85523164D01*
X813152Y85274592D01*
X873284Y85156577D01*
X931813Y85041708D01*
X1085441Y84830257D01*
X1270257Y84645441D01*
X1481708Y84491813D01*
X1649711Y84406211D01*
X1714591Y84373153D01*
X1838877Y84332771D01*
X1963165Y84292387D01*
X2082726Y84273451D01*
X2221311Y84251500D01*
X2221316Y84251500D01*
X2482689Y84251500D01*
X2607835Y84271323D01*
X2740835Y84292387D01*
X2989411Y84373154D01*
X3222292Y84491813D01*
X3433743Y84645441D01*
X3618559Y84830257D01*
X3772187Y85041708D01*
X3890846Y85274589D01*
X3971613Y85523165D01*
X3992677Y85656165D01*
X4012500Y85781311D01*
X4012500Y86033289D01*
X7301500Y86033289D01*
X7301500Y85790712D01*
X7333161Y85550215D01*
X7395947Y85315896D01*
X7476245Y85122041D01*
X7488776Y85091788D01*
X7610064Y84881711D01*
X7610066Y84881708D01*
X7610067Y84881707D01*
X7757733Y84689264D01*
X7757739Y84689257D01*
X7929256Y84517740D01*
X7929262Y84517735D01*
X8121711Y84370064D01*
X8331788Y84248776D01*
X8555900Y84155946D01*
X8790211Y84093162D01*
X8970586Y84069416D01*
X9030711Y84061500D01*
X9030712Y84061500D01*
X10273289Y84061500D01*
X10321388Y84067833D01*
X10513789Y84093162D01*
X10748100Y84155946D01*
X10972212Y84248776D01*
X11182289Y84370064D01*
X11374738Y84517735D01*
X11546265Y84689262D01*
X11693936Y84881711D01*
X11815224Y85091788D01*
X11908054Y85315900D01*
X11970838Y85550211D01*
X12002500Y85790712D01*
X12002500Y86033288D01*
X12002500Y86033289D01*
X12801500Y86033289D01*
X12801500Y85790712D01*
X12833161Y85550215D01*
X12895947Y85315896D01*
X12976245Y85122041D01*
X12988776Y85091788D01*
X13110064Y84881711D01*
X13110066Y84881708D01*
X13110067Y84881707D01*
X13257733Y84689264D01*
X13257739Y84689257D01*
X13429256Y84517740D01*
X13429262Y84517735D01*
X13621711Y84370064D01*
X13831788Y84248776D01*
X14055900Y84155946D01*
X14290211Y84093162D01*
X14470586Y84069416D01*
X14530711Y84061500D01*
X14530712Y84061500D01*
X15773289Y84061500D01*
X15821388Y84067833D01*
X16013789Y84093162D01*
X16248100Y84155946D01*
X16472212Y84248776D01*
X16682289Y84370064D01*
X16874738Y84517735D01*
X17046265Y84689262D01*
X17193936Y84881711D01*
X17315224Y85091788D01*
X17408054Y85315900D01*
X17470838Y85550211D01*
X17502500Y85790712D01*
X17502500Y86033288D01*
X17470838Y86273789D01*
X17408054Y86508100D01*
X17315224Y86732212D01*
X17193936Y86942289D01*
X17046265Y87134738D01*
X17046260Y87134744D01*
X16874743Y87306261D01*
X16874736Y87306267D01*
X16682293Y87453933D01*
X16682292Y87453934D01*
X16682289Y87453936D01*
X16476930Y87572500D01*
X16472214Y87575223D01*
X16472205Y87575227D01*
X16248104Y87668053D01*
X16013785Y87730839D01*
X15773289Y87762500D01*
X15773288Y87762500D01*
X14530712Y87762500D01*
X14530711Y87762500D01*
X14290214Y87730839D01*
X14055895Y87668053D01*
X13831794Y87575227D01*
X13831785Y87575223D01*
X13621706Y87453933D01*
X13429263Y87306267D01*
X13429256Y87306261D01*
X13257739Y87134744D01*
X13257733Y87134737D01*
X13110067Y86942294D01*
X12988777Y86732215D01*
X12988773Y86732206D01*
X12895947Y86508105D01*
X12833161Y86273786D01*
X12801500Y86033289D01*
X12002500Y86033289D01*
X11970838Y86273789D01*
X11908054Y86508100D01*
X11815224Y86732212D01*
X11693936Y86942289D01*
X11546265Y87134738D01*
X11546260Y87134744D01*
X11374743Y87306261D01*
X11374736Y87306267D01*
X11182293Y87453933D01*
X11182292Y87453934D01*
X11182289Y87453936D01*
X10976930Y87572500D01*
X10972214Y87575223D01*
X10972205Y87575227D01*
X10748104Y87668053D01*
X10513785Y87730839D01*
X10273289Y87762500D01*
X10273288Y87762500D01*
X9030712Y87762500D01*
X9030711Y87762500D01*
X8790214Y87730839D01*
X8555895Y87668053D01*
X8331794Y87575227D01*
X8331785Y87575223D01*
X8121706Y87453933D01*
X7929263Y87306267D01*
X7929256Y87306261D01*
X7757739Y87134744D01*
X7757733Y87134737D01*
X7610067Y86942294D01*
X7488777Y86732215D01*
X7488773Y86732206D01*
X7395947Y86508105D01*
X7333161Y86273786D01*
X7301500Y86033289D01*
X4012500Y86033289D01*
X4012500Y86042690D01*
X3975897Y86273786D01*
X3971613Y86300835D01*
X3890846Y86549411D01*
X3772187Y86782292D01*
X3618559Y86993743D01*
X3433743Y87178559D01*
X3222292Y87332187D01*
X2989408Y87450848D01*
X2740836Y87531613D01*
X2482689Y87572500D01*
X2482684Y87572500D01*
X2221316Y87572500D01*
X2221311Y87572500D01*
X1963163Y87531613D01*
X1714591Y87450848D01*
X1481707Y87332187D01*
X1270254Y87178557D01*
X1085443Y86993746D01*
X931813Y86782293D01*
X813152Y86549409D01*
X732387Y86300837D01*
X691500Y86042690D01*
X200500Y86042690D01*
X200500Y99675500D01*
X220185Y99742539D01*
X272989Y99788294D01*
X324500Y99799500D01*
X7509849Y99799500D01*
X7576888Y99779815D01*
G37*
G04 #@! TD.AperFunction*
G04 #@! TA.AperFunction,Conductor*
G36*
X71592630Y93393801D02*
G01*
X71650863Y93355191D01*
X71678473Y93294733D01*
X71689985Y93222048D01*
X71758103Y93012397D01*
X71758104Y93012394D01*
X71799464Y92931223D01*
X71858050Y92816242D01*
X71858187Y92815975D01*
X71987752Y92637642D01*
X71987756Y92637637D01*
X72143636Y92481757D01*
X72143641Y92481753D01*
X72299192Y92368740D01*
X72321978Y92352185D01*
X72427744Y92298294D01*
X72518393Y92252105D01*
X72518396Y92252104D01*
X72612677Y92221471D01*
X72728049Y92183985D01*
X72945778Y92149500D01*
X72945779Y92149500D01*
X73166221Y92149500D01*
X73166222Y92149500D01*
X73383951Y92183985D01*
X73493182Y92219477D01*
X73563023Y92221471D01*
X73622856Y92185391D01*
X73653684Y92122690D01*
X73655500Y92101545D01*
X73655500Y91809782D01*
X73635815Y91742743D01*
X73619181Y91722101D01*
X70741899Y88844819D01*
X70680576Y88811334D01*
X70654218Y88808500D01*
X51972125Y88808500D01*
X51905086Y88828185D01*
X51859331Y88880989D01*
X51848905Y88918617D01*
X51839369Y89003250D01*
X51839368Y89003255D01*
X51835187Y89015204D01*
X51779789Y89173522D01*
X51683816Y89326262D01*
X51556262Y89453816D01*
X51403523Y89549789D01*
X51362300Y89564213D01*
X51305524Y89604935D01*
X51286212Y89640302D01*
X51275157Y89671896D01*
X51271789Y89681522D01*
X51175816Y89834262D01*
X51048262Y89961816D01*
X50895523Y90057789D01*
X50725254Y90117369D01*
X50725249Y90117370D01*
X50546004Y90137565D01*
X50545996Y90137565D01*
X50366750Y90117370D01*
X50366745Y90117369D01*
X50196476Y90057789D01*
X50043737Y89961816D01*
X49916184Y89834263D01*
X49820211Y89681524D01*
X49760631Y89511255D01*
X49760630Y89511250D01*
X49740435Y89332004D01*
X49740435Y89331997D01*
X49760630Y89152751D01*
X49760631Y89152746D01*
X49822511Y88975905D01*
X49820212Y88975101D01*
X49829722Y88917366D01*
X49802003Y88853230D01*
X49744009Y88814262D01*
X49706649Y88808500D01*
X36180795Y88808500D01*
X36084152Y88789276D01*
X35987507Y88770053D01*
X35987501Y88770051D01*
X35934174Y88747963D01*
X35934174Y88747962D01*
X35888655Y88729108D01*
X35805429Y88694634D01*
X35805419Y88694629D01*
X35641559Y88585141D01*
X35571880Y88515462D01*
X35502201Y88445782D01*
X35502198Y88445779D01*
X35092221Y88035802D01*
X35092218Y88035799D01*
X35022538Y87966120D01*
X34952859Y87896441D01*
X34843371Y87732581D01*
X34843364Y87732568D01*
X34796117Y87618500D01*
X34796117Y87618499D01*
X34777064Y87572501D01*
X34767950Y87550499D01*
X34767947Y87550491D01*
X34729500Y87357204D01*
X34729500Y86988416D01*
X34709815Y86921377D01*
X34707076Y86917294D01*
X34695581Y86900877D01*
X34641004Y86857251D01*
X34594005Y86847999D01*
X24983622Y86847999D01*
X24916583Y86867684D01*
X24870828Y86920488D01*
X24860884Y86989646D01*
X24889909Y87053202D01*
X24895941Y87059680D01*
X28749444Y90913181D01*
X28810767Y90946666D01*
X28837125Y90949500D01*
X35454542Y90949500D01*
X35473870Y90953345D01*
X35551188Y90968725D01*
X35647836Y90987949D01*
X35701165Y91010039D01*
X35829914Y91063368D01*
X35993782Y91172861D01*
X36133139Y91312218D01*
X36133140Y91312221D01*
X36140206Y91319286D01*
X36140208Y91319290D01*
X36934101Y92113181D01*
X36995424Y92146666D01*
X37021782Y92149500D01*
X37166221Y92149500D01*
X37166222Y92149500D01*
X37383951Y92183985D01*
X37593606Y92252105D01*
X37790022Y92352185D01*
X37968365Y92481758D01*
X38124242Y92637635D01*
X38253815Y92815978D01*
X38353895Y93012394D01*
X38422015Y93222049D01*
X38433527Y93294734D01*
X38463456Y93357867D01*
X38522767Y93394799D01*
X38592630Y93393801D01*
X38650863Y93355191D01*
X38678473Y93294733D01*
X38689985Y93222048D01*
X38758103Y93012397D01*
X38758104Y93012394D01*
X38799464Y92931223D01*
X38858050Y92816242D01*
X38858187Y92815975D01*
X38987752Y92637642D01*
X38987756Y92637637D01*
X39143636Y92481757D01*
X39143641Y92481753D01*
X39299192Y92368740D01*
X39321978Y92352185D01*
X39427744Y92298294D01*
X39518393Y92252105D01*
X39518396Y92252104D01*
X39612677Y92221471D01*
X39728049Y92183985D01*
X39945778Y92149500D01*
X39945779Y92149500D01*
X40166221Y92149500D01*
X40166222Y92149500D01*
X40383951Y92183985D01*
X40593606Y92252105D01*
X40790022Y92352185D01*
X40968365Y92481758D01*
X41124242Y92637635D01*
X41253815Y92815978D01*
X41353895Y93012394D01*
X41422015Y93222049D01*
X41433527Y93294734D01*
X41463456Y93357867D01*
X41522767Y93394799D01*
X41592630Y93393801D01*
X41650863Y93355191D01*
X41678473Y93294733D01*
X41689985Y93222048D01*
X41758103Y93012397D01*
X41758104Y93012394D01*
X41799464Y92931223D01*
X41858050Y92816242D01*
X41858187Y92815975D01*
X41987752Y92637642D01*
X41987756Y92637637D01*
X42143636Y92481757D01*
X42143641Y92481753D01*
X42299192Y92368740D01*
X42321978Y92352185D01*
X42427744Y92298294D01*
X42518393Y92252105D01*
X42518396Y92252104D01*
X42612677Y92221471D01*
X42728049Y92183985D01*
X42945778Y92149500D01*
X42945779Y92149500D01*
X43166221Y92149500D01*
X43166222Y92149500D01*
X43383951Y92183985D01*
X43593606Y92252105D01*
X43790022Y92352185D01*
X43968365Y92481758D01*
X44124242Y92637635D01*
X44253815Y92815978D01*
X44353895Y93012394D01*
X44422015Y93222049D01*
X44433527Y93294734D01*
X44463456Y93357867D01*
X44522767Y93394799D01*
X44592630Y93393801D01*
X44650863Y93355191D01*
X44678473Y93294733D01*
X44689985Y93222048D01*
X44758103Y93012397D01*
X44758104Y93012394D01*
X44799464Y92931223D01*
X44858050Y92816242D01*
X44858187Y92815975D01*
X44987752Y92637642D01*
X44987756Y92637637D01*
X45143636Y92481757D01*
X45143641Y92481753D01*
X45299192Y92368740D01*
X45321978Y92352185D01*
X45427744Y92298294D01*
X45518393Y92252105D01*
X45518396Y92252104D01*
X45612677Y92221471D01*
X45728049Y92183985D01*
X45945778Y92149500D01*
X45945779Y92149500D01*
X46166221Y92149500D01*
X46166222Y92149500D01*
X46383951Y92183985D01*
X46593606Y92252105D01*
X46790022Y92352185D01*
X46968365Y92481758D01*
X47124242Y92637635D01*
X47253815Y92815978D01*
X47353895Y93012394D01*
X47422015Y93222049D01*
X47433527Y93294734D01*
X47463456Y93357867D01*
X47522767Y93394799D01*
X47592630Y93393801D01*
X47650863Y93355191D01*
X47678473Y93294733D01*
X47689985Y93222048D01*
X47758103Y93012397D01*
X47758104Y93012394D01*
X47799464Y92931223D01*
X47858050Y92816242D01*
X47858187Y92815975D01*
X47987752Y92637642D01*
X47987756Y92637637D01*
X48143636Y92481757D01*
X48143641Y92481753D01*
X48299192Y92368740D01*
X48321978Y92352185D01*
X48427744Y92298294D01*
X48518393Y92252105D01*
X48518396Y92252104D01*
X48612677Y92221471D01*
X48728049Y92183985D01*
X48945778Y92149500D01*
X48945779Y92149500D01*
X49166221Y92149500D01*
X49166222Y92149500D01*
X49383951Y92183985D01*
X49593606Y92252105D01*
X49790022Y92352185D01*
X49968365Y92481758D01*
X50124242Y92637635D01*
X50253815Y92815978D01*
X50353895Y93012394D01*
X50422015Y93222049D01*
X50433527Y93294734D01*
X50463456Y93357867D01*
X50522767Y93394799D01*
X50592630Y93393801D01*
X50650863Y93355191D01*
X50678473Y93294733D01*
X50689985Y93222048D01*
X50758103Y93012397D01*
X50758104Y93012394D01*
X50799464Y92931223D01*
X50858050Y92816242D01*
X50858187Y92815975D01*
X50987752Y92637642D01*
X50987756Y92637637D01*
X51143636Y92481757D01*
X51143641Y92481753D01*
X51299192Y92368740D01*
X51321978Y92352185D01*
X51427744Y92298294D01*
X51518393Y92252105D01*
X51518396Y92252104D01*
X51612677Y92221471D01*
X51728049Y92183985D01*
X51945778Y92149500D01*
X51945779Y92149500D01*
X52166221Y92149500D01*
X52166222Y92149500D01*
X52383951Y92183985D01*
X52593606Y92252105D01*
X52790022Y92352185D01*
X52968365Y92481758D01*
X53124242Y92637635D01*
X53253815Y92815978D01*
X53353895Y93012394D01*
X53422015Y93222049D01*
X53433527Y93294734D01*
X53463456Y93357867D01*
X53522767Y93394799D01*
X53592630Y93393801D01*
X53650863Y93355191D01*
X53678473Y93294733D01*
X53689985Y93222048D01*
X53758103Y93012397D01*
X53758104Y93012394D01*
X53799464Y92931223D01*
X53858050Y92816242D01*
X53858187Y92815975D01*
X53987752Y92637642D01*
X53987756Y92637637D01*
X54143636Y92481757D01*
X54143641Y92481753D01*
X54299192Y92368740D01*
X54321978Y92352185D01*
X54427744Y92298294D01*
X54518393Y92252105D01*
X54518396Y92252104D01*
X54612677Y92221471D01*
X54728049Y92183985D01*
X54945778Y92149500D01*
X54945779Y92149500D01*
X55166221Y92149500D01*
X55166222Y92149500D01*
X55383951Y92183985D01*
X55593606Y92252105D01*
X55790022Y92352185D01*
X55968365Y92481758D01*
X56124242Y92637635D01*
X56253815Y92815978D01*
X56353895Y93012394D01*
X56422015Y93222049D01*
X56433527Y93294734D01*
X56463456Y93357867D01*
X56522767Y93394799D01*
X56592630Y93393801D01*
X56650863Y93355191D01*
X56678473Y93294733D01*
X56689985Y93222048D01*
X56758103Y93012397D01*
X56758104Y93012394D01*
X56799464Y92931223D01*
X56858050Y92816242D01*
X56858187Y92815975D01*
X56987752Y92637642D01*
X56987756Y92637637D01*
X57143636Y92481757D01*
X57143641Y92481753D01*
X57299192Y92368740D01*
X57321978Y92352185D01*
X57427744Y92298294D01*
X57518393Y92252105D01*
X57518396Y92252104D01*
X57612677Y92221471D01*
X57728049Y92183985D01*
X57945778Y92149500D01*
X57945779Y92149500D01*
X58166221Y92149500D01*
X58166222Y92149500D01*
X58383951Y92183985D01*
X58593606Y92252105D01*
X58790022Y92352185D01*
X58968365Y92481758D01*
X59124242Y92637635D01*
X59253815Y92815978D01*
X59353895Y93012394D01*
X59422015Y93222049D01*
X59433527Y93294734D01*
X59463456Y93357867D01*
X59522767Y93394799D01*
X59592630Y93393801D01*
X59650863Y93355191D01*
X59678473Y93294733D01*
X59689985Y93222048D01*
X59758103Y93012397D01*
X59758104Y93012394D01*
X59799464Y92931223D01*
X59858050Y92816242D01*
X59858187Y92815975D01*
X59987752Y92637642D01*
X59987756Y92637637D01*
X60143636Y92481757D01*
X60143641Y92481753D01*
X60299192Y92368740D01*
X60321978Y92352185D01*
X60427744Y92298294D01*
X60518393Y92252105D01*
X60518396Y92252104D01*
X60612677Y92221471D01*
X60728049Y92183985D01*
X60945778Y92149500D01*
X60945779Y92149500D01*
X61166221Y92149500D01*
X61166222Y92149500D01*
X61383951Y92183985D01*
X61593606Y92252105D01*
X61790022Y92352185D01*
X61968365Y92481758D01*
X62124242Y92637635D01*
X62253815Y92815978D01*
X62353895Y93012394D01*
X62422015Y93222049D01*
X62433527Y93294734D01*
X62463456Y93357867D01*
X62522767Y93394799D01*
X62592630Y93393801D01*
X62650863Y93355191D01*
X62678473Y93294733D01*
X62689985Y93222048D01*
X62758103Y93012397D01*
X62758104Y93012394D01*
X62799464Y92931223D01*
X62858050Y92816242D01*
X62858187Y92815975D01*
X62987752Y92637642D01*
X62987756Y92637637D01*
X63143636Y92481757D01*
X63143641Y92481753D01*
X63299192Y92368740D01*
X63321978Y92352185D01*
X63427744Y92298294D01*
X63518393Y92252105D01*
X63518396Y92252104D01*
X63612677Y92221471D01*
X63728049Y92183985D01*
X63945778Y92149500D01*
X63945779Y92149500D01*
X64166221Y92149500D01*
X64166222Y92149500D01*
X64383951Y92183985D01*
X64593606Y92252105D01*
X64790022Y92352185D01*
X64968365Y92481758D01*
X65124242Y92637635D01*
X65253815Y92815978D01*
X65353895Y93012394D01*
X65422015Y93222049D01*
X65433527Y93294734D01*
X65463456Y93357867D01*
X65522767Y93394799D01*
X65592630Y93393801D01*
X65650863Y93355191D01*
X65678473Y93294733D01*
X65689985Y93222048D01*
X65758103Y93012397D01*
X65758104Y93012394D01*
X65799464Y92931223D01*
X65858050Y92816242D01*
X65858187Y92815975D01*
X65987752Y92637642D01*
X65987756Y92637637D01*
X66143636Y92481757D01*
X66143641Y92481753D01*
X66299192Y92368740D01*
X66321978Y92352185D01*
X66427744Y92298294D01*
X66518393Y92252105D01*
X66518396Y92252104D01*
X66612677Y92221471D01*
X66728049Y92183985D01*
X66945778Y92149500D01*
X66945779Y92149500D01*
X67166221Y92149500D01*
X67166222Y92149500D01*
X67383951Y92183985D01*
X67593606Y92252105D01*
X67790022Y92352185D01*
X67968365Y92481758D01*
X68124242Y92637635D01*
X68253815Y92815978D01*
X68353895Y93012394D01*
X68422015Y93222049D01*
X68433527Y93294734D01*
X68463456Y93357867D01*
X68522767Y93394799D01*
X68592630Y93393801D01*
X68650863Y93355191D01*
X68678473Y93294733D01*
X68689985Y93222048D01*
X68758103Y93012397D01*
X68758104Y93012394D01*
X68799464Y92931223D01*
X68858050Y92816242D01*
X68858187Y92815975D01*
X68987752Y92637642D01*
X68987756Y92637637D01*
X69143636Y92481757D01*
X69143641Y92481753D01*
X69299192Y92368740D01*
X69321978Y92352185D01*
X69427744Y92298294D01*
X69518393Y92252105D01*
X69518396Y92252104D01*
X69612677Y92221471D01*
X69728049Y92183985D01*
X69945778Y92149500D01*
X69945779Y92149500D01*
X70166221Y92149500D01*
X70166222Y92149500D01*
X70383951Y92183985D01*
X70593606Y92252105D01*
X70790022Y92352185D01*
X70968365Y92481758D01*
X71124242Y92637635D01*
X71253815Y92815978D01*
X71353895Y93012394D01*
X71422015Y93222049D01*
X71433527Y93294734D01*
X71463456Y93357867D01*
X71522767Y93394799D01*
X71592630Y93393801D01*
G37*
G04 #@! TD.AperFunction*
G04 #@! TD*
M02*
