G04 #@! TF.GenerationSoftware,KiCad,Pcbnew,8.0.9-8.0.9-0~ubuntu24.04.1*
G04 #@! TF.CreationDate,2025-06-27T08:15:53+00:00*
G04 #@! TF.ProjectId,EP91Starlet,45503931-5374-4617-926c-65742e6b6963,rev?*
G04 #@! TF.SameCoordinates,Original*
G04 #@! TF.FileFunction,Legend,Top*
G04 #@! TF.FilePolarity,Positive*
%FSLAX46Y46*%
G04 Gerber Fmt 4.6, Leading zero omitted, Abs format (unit mm)*
G04 Created by KiCad (PCBNEW 8.0.9-8.0.9-0~ubuntu24.04.1) date 2025-06-27 08:15:53*
%MOMM*%
%LPD*%
G01*
G04 APERTURE LIST*
%ADD10C,0.150000*%
%ADD11C,0.170000*%
%ADD12C,0.200000*%
%ADD13C,0.120000*%
%ADD14C,0.203200*%
%ADD15C,0.100000*%
G04 APERTURE END LIST*
D10*
X86700666Y114795181D02*
X86700666Y114080896D01*
X86700666Y114080896D02*
X86653047Y113938039D01*
X86653047Y113938039D02*
X86557809Y113842800D01*
X86557809Y113842800D02*
X86414952Y113795181D01*
X86414952Y113795181D02*
X86319714Y113795181D01*
X87700666Y113795181D02*
X87129238Y113795181D01*
X87414952Y113795181D02*
X87414952Y114795181D01*
X87414952Y114795181D02*
X87319714Y114652324D01*
X87319714Y114652324D02*
X87224476Y114557086D01*
X87224476Y114557086D02*
X87129238Y114509467D01*
D11*
X93190092Y43530061D02*
X92916759Y43920537D01*
X92721521Y43530061D02*
X92721521Y44350061D01*
X92721521Y44350061D02*
X93033902Y44350061D01*
X93033902Y44350061D02*
X93111997Y44311013D01*
X93111997Y44311013D02*
X93151044Y44271966D01*
X93151044Y44271966D02*
X93190092Y44193870D01*
X93190092Y44193870D02*
X93190092Y44076728D01*
X93190092Y44076728D02*
X93151044Y43998632D01*
X93151044Y43998632D02*
X93111997Y43959585D01*
X93111997Y43959585D02*
X93033902Y43920537D01*
X93033902Y43920537D02*
X92721521Y43920537D01*
X93931997Y44350061D02*
X93541521Y44350061D01*
X93541521Y44350061D02*
X93502473Y43959585D01*
X93502473Y43959585D02*
X93541521Y43998632D01*
X93541521Y43998632D02*
X93619616Y44037680D01*
X93619616Y44037680D02*
X93814854Y44037680D01*
X93814854Y44037680D02*
X93892949Y43998632D01*
X93892949Y43998632D02*
X93931997Y43959585D01*
X93931997Y43959585D02*
X93971044Y43881489D01*
X93971044Y43881489D02*
X93971044Y43686251D01*
X93971044Y43686251D02*
X93931997Y43608156D01*
X93931997Y43608156D02*
X93892949Y43569108D01*
X93892949Y43569108D02*
X93814854Y43530061D01*
X93814854Y43530061D02*
X93619616Y43530061D01*
X93619616Y43530061D02*
X93541521Y43569108D01*
X93541521Y43569108D02*
X93502473Y43608156D01*
X93190092Y41581015D02*
X92916759Y41971491D01*
X92721521Y41581015D02*
X92721521Y42401015D01*
X92721521Y42401015D02*
X93033902Y42401015D01*
X93033902Y42401015D02*
X93111997Y42361967D01*
X93111997Y42361967D02*
X93151044Y42322920D01*
X93151044Y42322920D02*
X93190092Y42244824D01*
X93190092Y42244824D02*
X93190092Y42127682D01*
X93190092Y42127682D02*
X93151044Y42049586D01*
X93151044Y42049586D02*
X93111997Y42010539D01*
X93111997Y42010539D02*
X93033902Y41971491D01*
X93033902Y41971491D02*
X92721521Y41971491D01*
X93892949Y42401015D02*
X93736759Y42401015D01*
X93736759Y42401015D02*
X93658663Y42361967D01*
X93658663Y42361967D02*
X93619616Y42322920D01*
X93619616Y42322920D02*
X93541521Y42205777D01*
X93541521Y42205777D02*
X93502473Y42049586D01*
X93502473Y42049586D02*
X93502473Y41737205D01*
X93502473Y41737205D02*
X93541521Y41659110D01*
X93541521Y41659110D02*
X93580568Y41620062D01*
X93580568Y41620062D02*
X93658663Y41581015D01*
X93658663Y41581015D02*
X93814854Y41581015D01*
X93814854Y41581015D02*
X93892949Y41620062D01*
X93892949Y41620062D02*
X93931997Y41659110D01*
X93931997Y41659110D02*
X93971044Y41737205D01*
X93971044Y41737205D02*
X93971044Y41932443D01*
X93971044Y41932443D02*
X93931997Y42010539D01*
X93931997Y42010539D02*
X93892949Y42049586D01*
X93892949Y42049586D02*
X93814854Y42088634D01*
X93814854Y42088634D02*
X93658663Y42088634D01*
X93658663Y42088634D02*
X93580568Y42049586D01*
X93580568Y42049586D02*
X93541521Y42010539D01*
X93541521Y42010539D02*
X93502473Y41932443D01*
X82480092Y41581015D02*
X82206759Y41971491D01*
X82011521Y41581015D02*
X82011521Y42401015D01*
X82011521Y42401015D02*
X82323902Y42401015D01*
X82323902Y42401015D02*
X82401997Y42361967D01*
X82401997Y42361967D02*
X82441044Y42322920D01*
X82441044Y42322920D02*
X82480092Y42244824D01*
X82480092Y42244824D02*
X82480092Y42127682D01*
X82480092Y42127682D02*
X82441044Y42049586D01*
X82441044Y42049586D02*
X82401997Y42010539D01*
X82401997Y42010539D02*
X82323902Y41971491D01*
X82323902Y41971491D02*
X82011521Y41971491D01*
X82948663Y42049586D02*
X82870568Y42088634D01*
X82870568Y42088634D02*
X82831521Y42127682D01*
X82831521Y42127682D02*
X82792473Y42205777D01*
X82792473Y42205777D02*
X82792473Y42244824D01*
X82792473Y42244824D02*
X82831521Y42322920D01*
X82831521Y42322920D02*
X82870568Y42361967D01*
X82870568Y42361967D02*
X82948663Y42401015D01*
X82948663Y42401015D02*
X83104854Y42401015D01*
X83104854Y42401015D02*
X83182949Y42361967D01*
X83182949Y42361967D02*
X83221997Y42322920D01*
X83221997Y42322920D02*
X83261044Y42244824D01*
X83261044Y42244824D02*
X83261044Y42205777D01*
X83261044Y42205777D02*
X83221997Y42127682D01*
X83221997Y42127682D02*
X83182949Y42088634D01*
X83182949Y42088634D02*
X83104854Y42049586D01*
X83104854Y42049586D02*
X82948663Y42049586D01*
X82948663Y42049586D02*
X82870568Y42010539D01*
X82870568Y42010539D02*
X82831521Y41971491D01*
X82831521Y41971491D02*
X82792473Y41893396D01*
X82792473Y41893396D02*
X82792473Y41737205D01*
X82792473Y41737205D02*
X82831521Y41659110D01*
X82831521Y41659110D02*
X82870568Y41620062D01*
X82870568Y41620062D02*
X82948663Y41581015D01*
X82948663Y41581015D02*
X83104854Y41581015D01*
X83104854Y41581015D02*
X83182949Y41620062D01*
X83182949Y41620062D02*
X83221997Y41659110D01*
X83221997Y41659110D02*
X83261044Y41737205D01*
X83261044Y41737205D02*
X83261044Y41893396D01*
X83261044Y41893396D02*
X83221997Y41971491D01*
X83221997Y41971491D02*
X83182949Y42010539D01*
X83182949Y42010539D02*
X83104854Y42049586D01*
X85520092Y65270061D02*
X85246759Y65660537D01*
X85051521Y65270061D02*
X85051521Y66090061D01*
X85051521Y66090061D02*
X85363902Y66090061D01*
X85363902Y66090061D02*
X85441997Y66051013D01*
X85441997Y66051013D02*
X85481044Y66011966D01*
X85481044Y66011966D02*
X85520092Y65933870D01*
X85520092Y65933870D02*
X85520092Y65816728D01*
X85520092Y65816728D02*
X85481044Y65738632D01*
X85481044Y65738632D02*
X85441997Y65699585D01*
X85441997Y65699585D02*
X85363902Y65660537D01*
X85363902Y65660537D02*
X85051521Y65660537D01*
X86301044Y65270061D02*
X85832473Y65270061D01*
X86066759Y65270061D02*
X86066759Y66090061D01*
X86066759Y66090061D02*
X85988663Y65972918D01*
X85988663Y65972918D02*
X85910568Y65894823D01*
X85910568Y65894823D02*
X85832473Y65855775D01*
D10*
X125709761Y112998943D02*
X125614523Y113046562D01*
X125614523Y113046562D02*
X125519285Y113141800D01*
X125519285Y113141800D02*
X125376428Y113284658D01*
X125376428Y113284658D02*
X125281190Y113332277D01*
X125281190Y113332277D02*
X125185952Y113332277D01*
X125233571Y113094181D02*
X125138333Y113141800D01*
X125138333Y113141800D02*
X125043095Y113237039D01*
X125043095Y113237039D02*
X124995476Y113427515D01*
X124995476Y113427515D02*
X124995476Y113760848D01*
X124995476Y113760848D02*
X125043095Y113951324D01*
X125043095Y113951324D02*
X125138333Y114046562D01*
X125138333Y114046562D02*
X125233571Y114094181D01*
X125233571Y114094181D02*
X125424047Y114094181D01*
X125424047Y114094181D02*
X125519285Y114046562D01*
X125519285Y114046562D02*
X125614523Y113951324D01*
X125614523Y113951324D02*
X125662142Y113760848D01*
X125662142Y113760848D02*
X125662142Y113427515D01*
X125662142Y113427515D02*
X125614523Y113237039D01*
X125614523Y113237039D02*
X125519285Y113141800D01*
X125519285Y113141800D02*
X125424047Y113094181D01*
X125424047Y113094181D02*
X125233571Y113094181D01*
X126043095Y113998943D02*
X126090714Y114046562D01*
X126090714Y114046562D02*
X126185952Y114094181D01*
X126185952Y114094181D02*
X126424047Y114094181D01*
X126424047Y114094181D02*
X126519285Y114046562D01*
X126519285Y114046562D02*
X126566904Y113998943D01*
X126566904Y113998943D02*
X126614523Y113903705D01*
X126614523Y113903705D02*
X126614523Y113808467D01*
X126614523Y113808467D02*
X126566904Y113665610D01*
X126566904Y113665610D02*
X125995476Y113094181D01*
X125995476Y113094181D02*
X126614523Y113094181D01*
D11*
X88794762Y40693133D02*
X88794762Y41513133D01*
X88794762Y41513133D02*
X88990000Y41513133D01*
X88990000Y41513133D02*
X89107143Y41474085D01*
X89107143Y41474085D02*
X89185238Y41395990D01*
X89185238Y41395990D02*
X89224285Y41317895D01*
X89224285Y41317895D02*
X89263333Y41161704D01*
X89263333Y41161704D02*
X89263333Y41044561D01*
X89263333Y41044561D02*
X89224285Y40888371D01*
X89224285Y40888371D02*
X89185238Y40810276D01*
X89185238Y40810276D02*
X89107143Y40732180D01*
X89107143Y40732180D02*
X88990000Y40693133D01*
X88990000Y40693133D02*
X88794762Y40693133D01*
X89575714Y41435038D02*
X89614762Y41474085D01*
X89614762Y41474085D02*
X89692857Y41513133D01*
X89692857Y41513133D02*
X89888095Y41513133D01*
X89888095Y41513133D02*
X89966190Y41474085D01*
X89966190Y41474085D02*
X90005238Y41435038D01*
X90005238Y41435038D02*
X90044285Y41356942D01*
X90044285Y41356942D02*
X90044285Y41278847D01*
X90044285Y41278847D02*
X90005238Y41161704D01*
X90005238Y41161704D02*
X89536666Y40693133D01*
X89536666Y40693133D02*
X90044285Y40693133D01*
D10*
X125709761Y122998943D02*
X125614523Y123046562D01*
X125614523Y123046562D02*
X125519285Y123141800D01*
X125519285Y123141800D02*
X125376428Y123284658D01*
X125376428Y123284658D02*
X125281190Y123332277D01*
X125281190Y123332277D02*
X125185952Y123332277D01*
X125233571Y123094181D02*
X125138333Y123141800D01*
X125138333Y123141800D02*
X125043095Y123237039D01*
X125043095Y123237039D02*
X124995476Y123427515D01*
X124995476Y123427515D02*
X124995476Y123760848D01*
X124995476Y123760848D02*
X125043095Y123951324D01*
X125043095Y123951324D02*
X125138333Y124046562D01*
X125138333Y124046562D02*
X125233571Y124094181D01*
X125233571Y124094181D02*
X125424047Y124094181D01*
X125424047Y124094181D02*
X125519285Y124046562D01*
X125519285Y124046562D02*
X125614523Y123951324D01*
X125614523Y123951324D02*
X125662142Y123760848D01*
X125662142Y123760848D02*
X125662142Y123427515D01*
X125662142Y123427515D02*
X125614523Y123237039D01*
X125614523Y123237039D02*
X125519285Y123141800D01*
X125519285Y123141800D02*
X125424047Y123094181D01*
X125424047Y123094181D02*
X125233571Y123094181D01*
X126614523Y123094181D02*
X126043095Y123094181D01*
X126328809Y123094181D02*
X126328809Y124094181D01*
X126328809Y124094181D02*
X126233571Y123951324D01*
X126233571Y123951324D02*
X126138333Y123856086D01*
X126138333Y123856086D02*
X126043095Y123808467D01*
D11*
X85520092Y63321015D02*
X85246759Y63711491D01*
X85051521Y63321015D02*
X85051521Y64141015D01*
X85051521Y64141015D02*
X85363902Y64141015D01*
X85363902Y64141015D02*
X85441997Y64101967D01*
X85441997Y64101967D02*
X85481044Y64062920D01*
X85481044Y64062920D02*
X85520092Y63984824D01*
X85520092Y63984824D02*
X85520092Y63867682D01*
X85520092Y63867682D02*
X85481044Y63789586D01*
X85481044Y63789586D02*
X85441997Y63750539D01*
X85441997Y63750539D02*
X85363902Y63711491D01*
X85363902Y63711491D02*
X85051521Y63711491D01*
X85832473Y64062920D02*
X85871521Y64101967D01*
X85871521Y64101967D02*
X85949616Y64141015D01*
X85949616Y64141015D02*
X86144854Y64141015D01*
X86144854Y64141015D02*
X86222949Y64101967D01*
X86222949Y64101967D02*
X86261997Y64062920D01*
X86261997Y64062920D02*
X86301044Y63984824D01*
X86301044Y63984824D02*
X86301044Y63906729D01*
X86301044Y63906729D02*
X86261997Y63789586D01*
X86261997Y63789586D02*
X85793425Y63321015D01*
X85793425Y63321015D02*
X86301044Y63321015D01*
D10*
X2024819Y104028096D02*
X2834342Y104028096D01*
X2834342Y104028096D02*
X2929580Y104075715D01*
X2929580Y104075715D02*
X2977200Y104123334D01*
X2977200Y104123334D02*
X3024819Y104218572D01*
X3024819Y104218572D02*
X3024819Y104409048D01*
X3024819Y104409048D02*
X2977200Y104504286D01*
X2977200Y104504286D02*
X2929580Y104551905D01*
X2929580Y104551905D02*
X2834342Y104599524D01*
X2834342Y104599524D02*
X2024819Y104599524D01*
X3024819Y105599524D02*
X3024819Y105028096D01*
X3024819Y105313810D02*
X2024819Y105313810D01*
X2024819Y105313810D02*
X2167676Y105218572D01*
X2167676Y105218572D02*
X2262914Y105123334D01*
X2262914Y105123334D02*
X2310533Y105028096D01*
X138684666Y65011181D02*
X138684666Y64296896D01*
X138684666Y64296896D02*
X138637047Y64154039D01*
X138637047Y64154039D02*
X138541809Y64058800D01*
X138541809Y64058800D02*
X138398952Y64011181D01*
X138398952Y64011181D02*
X138303714Y64011181D01*
X139113238Y64915943D02*
X139160857Y64963562D01*
X139160857Y64963562D02*
X139256095Y65011181D01*
X139256095Y65011181D02*
X139494190Y65011181D01*
X139494190Y65011181D02*
X139589428Y64963562D01*
X139589428Y64963562D02*
X139637047Y64915943D01*
X139637047Y64915943D02*
X139684666Y64820705D01*
X139684666Y64820705D02*
X139684666Y64725467D01*
X139684666Y64725467D02*
X139637047Y64582610D01*
X139637047Y64582610D02*
X139065619Y64011181D01*
X139065619Y64011181D02*
X139684666Y64011181D01*
D11*
X78084762Y43813133D02*
X78084762Y44633133D01*
X78084762Y44633133D02*
X78280000Y44633133D01*
X78280000Y44633133D02*
X78397143Y44594085D01*
X78397143Y44594085D02*
X78475238Y44515990D01*
X78475238Y44515990D02*
X78514285Y44437895D01*
X78514285Y44437895D02*
X78553333Y44281704D01*
X78553333Y44281704D02*
X78553333Y44164561D01*
X78553333Y44164561D02*
X78514285Y44008371D01*
X78514285Y44008371D02*
X78475238Y43930276D01*
X78475238Y43930276D02*
X78397143Y43852180D01*
X78397143Y43852180D02*
X78280000Y43813133D01*
X78280000Y43813133D02*
X78084762Y43813133D01*
X78826666Y44633133D02*
X79334285Y44633133D01*
X79334285Y44633133D02*
X79060952Y44320752D01*
X79060952Y44320752D02*
X79178095Y44320752D01*
X79178095Y44320752D02*
X79256190Y44281704D01*
X79256190Y44281704D02*
X79295238Y44242657D01*
X79295238Y44242657D02*
X79334285Y44164561D01*
X79334285Y44164561D02*
X79334285Y43969323D01*
X79334285Y43969323D02*
X79295238Y43891228D01*
X79295238Y43891228D02*
X79256190Y43852180D01*
X79256190Y43852180D02*
X79178095Y43813133D01*
X79178095Y43813133D02*
X78943809Y43813133D01*
X78943809Y43813133D02*
X78865714Y43852180D01*
X78865714Y43852180D02*
X78826666Y43891228D01*
X88794762Y43813133D02*
X88794762Y44633133D01*
X88794762Y44633133D02*
X88990000Y44633133D01*
X88990000Y44633133D02*
X89107143Y44594085D01*
X89107143Y44594085D02*
X89185238Y44515990D01*
X89185238Y44515990D02*
X89224285Y44437895D01*
X89224285Y44437895D02*
X89263333Y44281704D01*
X89263333Y44281704D02*
X89263333Y44164561D01*
X89263333Y44164561D02*
X89224285Y44008371D01*
X89224285Y44008371D02*
X89185238Y43930276D01*
X89185238Y43930276D02*
X89107143Y43852180D01*
X89107143Y43852180D02*
X88990000Y43813133D01*
X88990000Y43813133D02*
X88794762Y43813133D01*
X90044285Y43813133D02*
X89575714Y43813133D01*
X89810000Y43813133D02*
X89810000Y44633133D01*
X89810000Y44633133D02*
X89731904Y44515990D01*
X89731904Y44515990D02*
X89653809Y44437895D01*
X89653809Y44437895D02*
X89575714Y44398847D01*
D10*
X79343095Y50913822D02*
X79343095Y50104299D01*
X79343095Y50104299D02*
X79390714Y50009061D01*
X79390714Y50009061D02*
X79438333Y49961441D01*
X79438333Y49961441D02*
X79533571Y49913822D01*
X79533571Y49913822D02*
X79724047Y49913822D01*
X79724047Y49913822D02*
X79819285Y49961441D01*
X79819285Y49961441D02*
X79866904Y50009061D01*
X79866904Y50009061D02*
X79914523Y50104299D01*
X79914523Y50104299D02*
X79914523Y50913822D01*
X80866904Y50913822D02*
X80390714Y50913822D01*
X80390714Y50913822D02*
X80343095Y50437632D01*
X80343095Y50437632D02*
X80390714Y50485251D01*
X80390714Y50485251D02*
X80485952Y50532870D01*
X80485952Y50532870D02*
X80724047Y50532870D01*
X80724047Y50532870D02*
X80819285Y50485251D01*
X80819285Y50485251D02*
X80866904Y50437632D01*
X80866904Y50437632D02*
X80914523Y50342394D01*
X80914523Y50342394D02*
X80914523Y50104299D01*
X80914523Y50104299D02*
X80866904Y50009061D01*
X80866904Y50009061D02*
X80819285Y49961441D01*
X80819285Y49961441D02*
X80724047Y49913822D01*
X80724047Y49913822D02*
X80485952Y49913822D01*
X80485952Y49913822D02*
X80390714Y49961441D01*
X80390714Y49961441D02*
X80343095Y50009061D01*
D11*
X82480092Y43530061D02*
X82206759Y43920537D01*
X82011521Y43530061D02*
X82011521Y44350061D01*
X82011521Y44350061D02*
X82323902Y44350061D01*
X82323902Y44350061D02*
X82401997Y44311013D01*
X82401997Y44311013D02*
X82441044Y44271966D01*
X82441044Y44271966D02*
X82480092Y44193870D01*
X82480092Y44193870D02*
X82480092Y44076728D01*
X82480092Y44076728D02*
X82441044Y43998632D01*
X82441044Y43998632D02*
X82401997Y43959585D01*
X82401997Y43959585D02*
X82323902Y43920537D01*
X82323902Y43920537D02*
X82011521Y43920537D01*
X82753425Y44350061D02*
X83300092Y44350061D01*
X83300092Y44350061D02*
X82948663Y43530061D01*
D10*
X79343095Y59493822D02*
X79343095Y58684299D01*
X79343095Y58684299D02*
X79390714Y58589061D01*
X79390714Y58589061D02*
X79438333Y58541441D01*
X79438333Y58541441D02*
X79533571Y58493822D01*
X79533571Y58493822D02*
X79724047Y58493822D01*
X79724047Y58493822D02*
X79819285Y58541441D01*
X79819285Y58541441D02*
X79866904Y58589061D01*
X79866904Y58589061D02*
X79914523Y58684299D01*
X79914523Y58684299D02*
X79914523Y59493822D01*
X80295476Y59493822D02*
X80914523Y59493822D01*
X80914523Y59493822D02*
X80581190Y59112870D01*
X80581190Y59112870D02*
X80724047Y59112870D01*
X80724047Y59112870D02*
X80819285Y59065251D01*
X80819285Y59065251D02*
X80866904Y59017632D01*
X80866904Y59017632D02*
X80914523Y58922394D01*
X80914523Y58922394D02*
X80914523Y58684299D01*
X80914523Y58684299D02*
X80866904Y58589061D01*
X80866904Y58589061D02*
X80819285Y58541441D01*
X80819285Y58541441D02*
X80724047Y58493822D01*
X80724047Y58493822D02*
X80438333Y58493822D01*
X80438333Y58493822D02*
X80343095Y58541441D01*
X80343095Y58541441D02*
X80295476Y58589061D01*
X66383741Y8310926D02*
X66383741Y8910926D01*
X66383741Y8910926D02*
X66583741Y8482355D01*
X66583741Y8482355D02*
X66783741Y8910926D01*
X66783741Y8910926D02*
X66783741Y8310926D01*
X67012312Y8910926D02*
X67383740Y8910926D01*
X67383740Y8910926D02*
X67183740Y8682355D01*
X67183740Y8682355D02*
X67269455Y8682355D01*
X67269455Y8682355D02*
X67326598Y8653783D01*
X67326598Y8653783D02*
X67355169Y8625212D01*
X67355169Y8625212D02*
X67383740Y8568069D01*
X67383740Y8568069D02*
X67383740Y8425212D01*
X67383740Y8425212D02*
X67355169Y8368069D01*
X67355169Y8368069D02*
X67326598Y8339497D01*
X67326598Y8339497D02*
X67269455Y8310926D01*
X67269455Y8310926D02*
X67098026Y8310926D01*
X67098026Y8310926D02*
X67040883Y8339497D01*
X67040883Y8339497D02*
X67012312Y8368069D01*
X125709761Y102998943D02*
X125614523Y103046562D01*
X125614523Y103046562D02*
X125519285Y103141800D01*
X125519285Y103141800D02*
X125376428Y103284658D01*
X125376428Y103284658D02*
X125281190Y103332277D01*
X125281190Y103332277D02*
X125185952Y103332277D01*
X125233571Y103094181D02*
X125138333Y103141800D01*
X125138333Y103141800D02*
X125043095Y103237039D01*
X125043095Y103237039D02*
X124995476Y103427515D01*
X124995476Y103427515D02*
X124995476Y103760848D01*
X124995476Y103760848D02*
X125043095Y103951324D01*
X125043095Y103951324D02*
X125138333Y104046562D01*
X125138333Y104046562D02*
X125233571Y104094181D01*
X125233571Y104094181D02*
X125424047Y104094181D01*
X125424047Y104094181D02*
X125519285Y104046562D01*
X125519285Y104046562D02*
X125614523Y103951324D01*
X125614523Y103951324D02*
X125662142Y103760848D01*
X125662142Y103760848D02*
X125662142Y103427515D01*
X125662142Y103427515D02*
X125614523Y103237039D01*
X125614523Y103237039D02*
X125519285Y103141800D01*
X125519285Y103141800D02*
X125424047Y103094181D01*
X125424047Y103094181D02*
X125233571Y103094181D01*
X125995476Y104094181D02*
X126614523Y104094181D01*
X126614523Y104094181D02*
X126281190Y103713229D01*
X126281190Y103713229D02*
X126424047Y103713229D01*
X126424047Y103713229D02*
X126519285Y103665610D01*
X126519285Y103665610D02*
X126566904Y103617991D01*
X126566904Y103617991D02*
X126614523Y103522753D01*
X126614523Y103522753D02*
X126614523Y103284658D01*
X126614523Y103284658D02*
X126566904Y103189420D01*
X126566904Y103189420D02*
X126519285Y103141800D01*
X126519285Y103141800D02*
X126424047Y103094181D01*
X126424047Y103094181D02*
X126138333Y103094181D01*
X126138333Y103094181D02*
X126043095Y103141800D01*
X126043095Y103141800D02*
X125995476Y103189420D01*
X79343095Y66073822D02*
X79343095Y65264299D01*
X79343095Y65264299D02*
X79390714Y65169061D01*
X79390714Y65169061D02*
X79438333Y65121441D01*
X79438333Y65121441D02*
X79533571Y65073822D01*
X79533571Y65073822D02*
X79724047Y65073822D01*
X79724047Y65073822D02*
X79819285Y65121441D01*
X79819285Y65121441D02*
X79866904Y65169061D01*
X79866904Y65169061D02*
X79914523Y65264299D01*
X79914523Y65264299D02*
X79914523Y66073822D01*
X80343095Y65978584D02*
X80390714Y66026203D01*
X80390714Y66026203D02*
X80485952Y66073822D01*
X80485952Y66073822D02*
X80724047Y66073822D01*
X80724047Y66073822D02*
X80819285Y66026203D01*
X80819285Y66026203D02*
X80866904Y65978584D01*
X80866904Y65978584D02*
X80914523Y65883346D01*
X80914523Y65883346D02*
X80914523Y65788108D01*
X80914523Y65788108D02*
X80866904Y65645251D01*
X80866904Y65645251D02*
X80295476Y65073822D01*
X80295476Y65073822D02*
X80914523Y65073822D01*
D11*
X85520092Y61371969D02*
X85246759Y61762445D01*
X85051521Y61371969D02*
X85051521Y62191969D01*
X85051521Y62191969D02*
X85363902Y62191969D01*
X85363902Y62191969D02*
X85441997Y62152921D01*
X85441997Y62152921D02*
X85481044Y62113874D01*
X85481044Y62113874D02*
X85520092Y62035778D01*
X85520092Y62035778D02*
X85520092Y61918636D01*
X85520092Y61918636D02*
X85481044Y61840540D01*
X85481044Y61840540D02*
X85441997Y61801493D01*
X85441997Y61801493D02*
X85363902Y61762445D01*
X85363902Y61762445D02*
X85051521Y61762445D01*
X85793425Y62191969D02*
X86301044Y62191969D01*
X86301044Y62191969D02*
X86027711Y61879588D01*
X86027711Y61879588D02*
X86144854Y61879588D01*
X86144854Y61879588D02*
X86222949Y61840540D01*
X86222949Y61840540D02*
X86261997Y61801493D01*
X86261997Y61801493D02*
X86301044Y61723397D01*
X86301044Y61723397D02*
X86301044Y61528159D01*
X86301044Y61528159D02*
X86261997Y61450064D01*
X86261997Y61450064D02*
X86222949Y61411016D01*
X86222949Y61411016D02*
X86144854Y61371969D01*
X86144854Y61371969D02*
X85910568Y61371969D01*
X85910568Y61371969D02*
X85832473Y61411016D01*
X85832473Y61411016D02*
X85793425Y61450064D01*
D10*
X90053095Y50913822D02*
X90053095Y50104299D01*
X90053095Y50104299D02*
X90100714Y50009061D01*
X90100714Y50009061D02*
X90148333Y49961441D01*
X90148333Y49961441D02*
X90243571Y49913822D01*
X90243571Y49913822D02*
X90434047Y49913822D01*
X90434047Y49913822D02*
X90529285Y49961441D01*
X90529285Y49961441D02*
X90576904Y50009061D01*
X90576904Y50009061D02*
X90624523Y50104299D01*
X90624523Y50104299D02*
X90624523Y50913822D01*
X91529285Y50580489D02*
X91529285Y49913822D01*
X91291190Y50961441D02*
X91053095Y50247156D01*
X91053095Y50247156D02*
X91672142Y50247156D01*
D11*
X85520092Y59422923D02*
X85246759Y59813399D01*
X85051521Y59422923D02*
X85051521Y60242923D01*
X85051521Y60242923D02*
X85363902Y60242923D01*
X85363902Y60242923D02*
X85441997Y60203875D01*
X85441997Y60203875D02*
X85481044Y60164828D01*
X85481044Y60164828D02*
X85520092Y60086732D01*
X85520092Y60086732D02*
X85520092Y59969590D01*
X85520092Y59969590D02*
X85481044Y59891494D01*
X85481044Y59891494D02*
X85441997Y59852447D01*
X85441997Y59852447D02*
X85363902Y59813399D01*
X85363902Y59813399D02*
X85051521Y59813399D01*
X86222949Y59969590D02*
X86222949Y59422923D01*
X86027711Y60281970D02*
X85832473Y59696256D01*
X85832473Y59696256D02*
X86340092Y59696256D01*
D10*
X125709761Y92998943D02*
X125614523Y93046562D01*
X125614523Y93046562D02*
X125519285Y93141800D01*
X125519285Y93141800D02*
X125376428Y93284658D01*
X125376428Y93284658D02*
X125281190Y93332277D01*
X125281190Y93332277D02*
X125185952Y93332277D01*
X125233571Y93094181D02*
X125138333Y93141800D01*
X125138333Y93141800D02*
X125043095Y93237039D01*
X125043095Y93237039D02*
X124995476Y93427515D01*
X124995476Y93427515D02*
X124995476Y93760848D01*
X124995476Y93760848D02*
X125043095Y93951324D01*
X125043095Y93951324D02*
X125138333Y94046562D01*
X125138333Y94046562D02*
X125233571Y94094181D01*
X125233571Y94094181D02*
X125424047Y94094181D01*
X125424047Y94094181D02*
X125519285Y94046562D01*
X125519285Y94046562D02*
X125614523Y93951324D01*
X125614523Y93951324D02*
X125662142Y93760848D01*
X125662142Y93760848D02*
X125662142Y93427515D01*
X125662142Y93427515D02*
X125614523Y93237039D01*
X125614523Y93237039D02*
X125519285Y93141800D01*
X125519285Y93141800D02*
X125424047Y93094181D01*
X125424047Y93094181D02*
X125233571Y93094181D01*
X126519285Y93760848D02*
X126519285Y93094181D01*
X126281190Y94141800D02*
X126043095Y93427515D01*
X126043095Y93427515D02*
X126662142Y93427515D01*
D11*
X78084762Y40693133D02*
X78084762Y41513133D01*
X78084762Y41513133D02*
X78280000Y41513133D01*
X78280000Y41513133D02*
X78397143Y41474085D01*
X78397143Y41474085D02*
X78475238Y41395990D01*
X78475238Y41395990D02*
X78514285Y41317895D01*
X78514285Y41317895D02*
X78553333Y41161704D01*
X78553333Y41161704D02*
X78553333Y41044561D01*
X78553333Y41044561D02*
X78514285Y40888371D01*
X78514285Y40888371D02*
X78475238Y40810276D01*
X78475238Y40810276D02*
X78397143Y40732180D01*
X78397143Y40732180D02*
X78280000Y40693133D01*
X78280000Y40693133D02*
X78084762Y40693133D01*
X79256190Y41239800D02*
X79256190Y40693133D01*
X79060952Y41552180D02*
X78865714Y40966466D01*
X78865714Y40966466D02*
X79373333Y40966466D01*
G04 #@! TO.C,M4*
D12*
X93214000Y83311000D02*
X65714000Y83311000D01*
X65714000Y69411000D01*
X93214000Y69411000D01*
X93214000Y83311000D01*
G04 #@! TO.C,M2*
X24146000Y62777994D02*
X64946003Y62777994D01*
X24146000Y22877995D02*
X24146000Y62777994D01*
X24146000Y22877995D02*
X66246000Y22877995D01*
X64946003Y62777994D02*
X66246003Y62777994D01*
X66246000Y22877995D02*
X66246003Y62777994D01*
D13*
G04 #@! TO.C,J1*
X77924000Y113160000D02*
X87034000Y113160000D01*
X77924000Y100140000D02*
X77924000Y113160000D01*
X78134000Y99450000D02*
X78734000Y99150000D01*
X78134000Y98850000D02*
X78134000Y99450000D01*
X78734000Y100140000D02*
X77924000Y100140000D01*
X78734000Y99150000D02*
X78134000Y98850000D01*
X80434000Y97040000D02*
X80434000Y95760000D01*
X81034000Y97040000D02*
X81034000Y95760000D01*
X82344000Y100150000D02*
X83324000Y100150000D01*
X84634000Y97040000D02*
X84634000Y95760000D01*
X85234000Y97040000D02*
X85234000Y95760000D01*
X86544000Y100150000D02*
X87524000Y100150000D01*
X88834000Y97040000D02*
X88834000Y95760000D01*
X89434000Y97040000D02*
X89434000Y95760000D01*
X90744000Y100150000D02*
X91724000Y100150000D01*
X93034000Y97040000D02*
X93034000Y95760000D01*
X93634000Y97040000D02*
X93634000Y95760000D01*
X95334000Y100140000D02*
X96144000Y100140000D01*
X96144000Y113160000D02*
X87034000Y113160000D01*
X96144000Y100140000D02*
X96144000Y113160000D01*
D14*
G04 #@! TO.C,R5*
X93448944Y42396206D02*
X93848943Y42396195D01*
X93450000Y43142041D02*
X93850000Y43142031D01*
G04 #@! TO.C,R6*
X93448944Y40447160D02*
X93848943Y40447149D01*
X93450000Y41192995D02*
X93850000Y41192985D01*
G04 #@! TO.C,R8*
X82738944Y40447160D02*
X83138943Y40447149D01*
X82740000Y41192995D02*
X83140000Y41192985D01*
D12*
G04 #@! TO.C,M1*
X72655500Y34568000D02*
X72655500Y28168000D01*
X72655500Y24968000D02*
X72655500Y26268000D01*
X72655500Y24968000D02*
X87655500Y24968000D01*
X87055500Y34568000D02*
X72655500Y34568000D01*
X87655500Y24968000D02*
X87655500Y30068000D01*
D14*
G04 #@! TO.C,R1*
X85778944Y64136206D02*
X86178943Y64136195D01*
X85780000Y64882041D02*
X86180000Y64882031D01*
D13*
G04 #@! TO.C,Q2*
X122495000Y112499000D02*
X122495000Y112229000D01*
X122495000Y105599000D02*
X122495000Y105869000D01*
X128915000Y112499000D02*
X122495000Y112499000D01*
X128915000Y105599000D02*
X122495000Y105599000D01*
X120765000Y112189000D02*
X120425000Y112659000D01*
X121105000Y112659000D01*
X120765000Y112189000D01*
G36*
X120765000Y112189000D02*
G01*
X120425000Y112659000D01*
X121105000Y112659000D01*
X120765000Y112189000D01*
G37*
G04 #@! TO.C,D2*
X87150000Y40063641D02*
X87150000Y38063641D01*
X87150000Y40063641D02*
X91050000Y40063641D01*
X87150000Y38063641D02*
X91050000Y38063641D01*
D11*
X88850000Y39063641D02*
X89050000Y39063641D01*
X89050000Y39063641D02*
X89750000Y39413641D01*
X89050000Y39063641D02*
X89750000Y38713641D01*
X89050000Y38713641D02*
X89050000Y39413641D01*
X89750000Y39063641D02*
X90050000Y39063641D01*
X89750000Y38713641D02*
X89750000Y39413641D01*
D13*
G04 #@! TO.C,Q1*
X122495000Y122499000D02*
X122495000Y122229000D01*
X122495000Y115599000D02*
X122495000Y115869000D01*
X128915000Y122499000D02*
X122495000Y122499000D01*
X128915000Y115599000D02*
X122495000Y115599000D01*
X120765000Y122189000D02*
X120425000Y122659000D01*
X121105000Y122659000D01*
X120765000Y122189000D01*
G36*
X120765000Y122189000D02*
G01*
X120425000Y122659000D01*
X121105000Y122659000D01*
X120765000Y122189000D01*
G37*
D12*
G04 #@! TO.C,M6*
X39290000Y93797996D02*
X39290000Y78397996D01*
X39290000Y93797996D02*
X39590000Y93797996D01*
X40740000Y76997999D02*
X42290000Y76997994D01*
X41190000Y93797996D02*
X51590002Y93797996D01*
X44290002Y76997999D02*
X45390005Y76997999D01*
X46990000Y76997999D02*
X49690000Y76997999D01*
X53190002Y76997999D02*
X57990002Y76997999D01*
X53290000Y93797996D02*
X56490003Y93797996D01*
X59590002Y76997997D02*
X59890000Y76997997D01*
X59889998Y92297996D02*
X59890000Y76997997D01*
D14*
G04 #@! TO.C,R2*
X85778944Y62187160D02*
X86178943Y62187149D01*
X85780000Y62932995D02*
X86180000Y62932985D01*
D12*
G04 #@! TO.C,M5*
X66342000Y18441500D02*
X66342000Y12041500D01*
X66342000Y8841500D02*
X66342000Y10141500D01*
X66342000Y8841500D02*
X81342000Y8841500D01*
X80742000Y18441500D02*
X66342000Y18441500D01*
X81342000Y8841500D02*
X81342000Y13941500D01*
D13*
G04 #@! TO.C,U1*
X3570000Y108540000D02*
X3570000Y103540001D01*
X3570000Y103540001D02*
X3570000Y101040001D01*
X3570000Y101040001D02*
X71370000Y101040000D01*
D15*
X71370000Y108539999D02*
X3570000Y108540000D01*
D13*
X71370000Y101040000D02*
X71370000Y108539999D01*
G04 #@! TO.C,J2*
X132008000Y63376000D02*
X139018000Y63376000D01*
X132008000Y50356000D02*
X132008000Y63376000D01*
X132218000Y49666000D02*
X132818000Y49366000D01*
X132218000Y49066000D02*
X132218000Y49666000D01*
X132818000Y50356000D02*
X132008000Y50356000D01*
X132818000Y49366000D02*
X132218000Y49066000D01*
X134518000Y47256000D02*
X134518000Y45976000D01*
X135118000Y47256000D02*
X135118000Y45976000D01*
X136428000Y50366000D02*
X137408000Y50366000D01*
X138718000Y47256000D02*
X138718000Y45976000D01*
X139318000Y47256000D02*
X139318000Y45976000D01*
X140628000Y50366000D02*
X141608000Y50366000D01*
X142918000Y47256000D02*
X142918000Y45976000D01*
X143518000Y47256000D02*
X143518000Y45976000D01*
X145218000Y50356000D02*
X146028000Y50356000D01*
X146028000Y63376000D02*
X139018000Y63376000D01*
X146028000Y50356000D02*
X146028000Y63376000D01*
G04 #@! TO.C,D3*
X76440000Y43183641D02*
X76440000Y41183641D01*
X76440000Y43183641D02*
X80340000Y43183641D01*
X76440000Y41183641D02*
X80340000Y41183641D01*
D11*
X78140000Y42183641D02*
X78340000Y42183641D01*
X78340000Y42183641D02*
X79040000Y42533641D01*
X78340000Y42183641D02*
X79040000Y41833641D01*
X78340000Y41833641D02*
X78340000Y42533641D01*
X79040000Y42183641D02*
X79340000Y42183641D01*
X79040000Y41833641D02*
X79040000Y42533641D01*
D13*
G04 #@! TO.C,D1*
X87150000Y43183641D02*
X87150000Y41183641D01*
X87150000Y43183641D02*
X91050000Y43183641D01*
X87150000Y41183641D02*
X91050000Y41183641D01*
D11*
X88850000Y42183641D02*
X89050000Y42183641D01*
X89050000Y42183641D02*
X89750000Y42533641D01*
X89050000Y42183641D02*
X89750000Y41833641D01*
X89050000Y41833641D02*
X89050000Y42533641D01*
X89750000Y42183641D02*
X90050000Y42183641D01*
X89750000Y41833641D02*
X89750000Y42533641D01*
D13*
G04 #@! TO.C,U5*
X80105000Y49528641D02*
X78155000Y49528641D01*
X80105000Y49528641D02*
X82055000Y49528641D01*
X80105000Y44408641D02*
X78155000Y44408641D01*
X80105000Y44408641D02*
X82055000Y44408641D01*
X77405000Y49433641D02*
X77165000Y49763641D01*
X77645000Y49763641D01*
X77405000Y49433641D01*
G36*
X77405000Y49433641D02*
G01*
X77165000Y49763641D01*
X77645000Y49763641D01*
X77405000Y49433641D01*
G37*
D14*
G04 #@! TO.C,R7*
X82738944Y42396206D02*
X83138943Y42396195D01*
X82740000Y43142041D02*
X83140000Y43142031D01*
D13*
G04 #@! TO.C,U3*
X80105000Y58108641D02*
X78155000Y58108641D01*
X80105000Y58108641D02*
X82055000Y58108641D01*
X80105000Y52988641D02*
X78155000Y52988641D01*
X80105000Y52988641D02*
X82055000Y52988641D01*
X77405000Y58013641D02*
X77165000Y58343641D01*
X77645000Y58343641D01*
X77405000Y58013641D01*
G36*
X77405000Y58013641D02*
G01*
X77165000Y58343641D01*
X77645000Y58343641D01*
X77405000Y58013641D01*
G37*
D12*
G04 #@! TO.C,M3*
X66342000Y7391500D02*
X75442000Y7391500D01*
X66342000Y4291497D02*
X66342000Y5291499D01*
X66342000Y4291497D02*
X75442000Y4291497D01*
D13*
G04 #@! TO.C,Q3*
X122495000Y102499000D02*
X122495000Y102229000D01*
X122495000Y95599000D02*
X122495000Y95869000D01*
X128915000Y102499000D02*
X122495000Y102499000D01*
X128915000Y95599000D02*
X122495000Y95599000D01*
X120765000Y102189000D02*
X120425000Y102659000D01*
X121105000Y102659000D01*
X120765000Y102189000D01*
G36*
X120765000Y102189000D02*
G01*
X120425000Y102659000D01*
X121105000Y102659000D01*
X120765000Y102189000D01*
G37*
G04 #@! TO.C,U2*
X80105000Y64688641D02*
X78155000Y64688641D01*
X80105000Y64688641D02*
X82055000Y64688641D01*
X80105000Y59568641D02*
X78155000Y59568641D01*
X80105000Y59568641D02*
X82055000Y59568641D01*
X77405000Y64593641D02*
X77165000Y64923641D01*
X77645000Y64923641D01*
X77405000Y64593641D01*
G36*
X77405000Y64593641D02*
G01*
X77165000Y64923641D01*
X77645000Y64923641D01*
X77405000Y64593641D01*
G37*
D14*
G04 #@! TO.C,R3*
X85778944Y60238114D02*
X86178943Y60238103D01*
X85780000Y60983949D02*
X86180000Y60983939D01*
D13*
G04 #@! TO.C,U4*
X90815000Y49528641D02*
X88865000Y49528641D01*
X90815000Y49528641D02*
X92765000Y49528641D01*
X90815000Y44408641D02*
X88865000Y44408641D01*
X90815000Y44408641D02*
X92765000Y44408641D01*
X88115000Y49433641D02*
X87875000Y49763641D01*
X88355000Y49763641D01*
X88115000Y49433641D01*
G36*
X88115000Y49433641D02*
G01*
X87875000Y49763641D01*
X88355000Y49763641D01*
X88115000Y49433641D01*
G37*
D14*
G04 #@! TO.C,R4*
X85778944Y58289068D02*
X86178943Y58289057D01*
X85780000Y59034903D02*
X86180000Y59034893D01*
D13*
G04 #@! TO.C,Q4*
X122495000Y92499000D02*
X122495000Y92229000D01*
X122495000Y85599000D02*
X122495000Y85869000D01*
X128915000Y92499000D02*
X122495000Y92499000D01*
X128915000Y85599000D02*
X122495000Y85599000D01*
X120765000Y92189000D02*
X120425000Y92659000D01*
X121105000Y92659000D01*
X120765000Y92189000D01*
G36*
X120765000Y92189000D02*
G01*
X120425000Y92659000D01*
X121105000Y92659000D01*
X120765000Y92189000D01*
G37*
G04 #@! TO.C,D4*
X76440000Y40063641D02*
X76440000Y38063641D01*
X76440000Y40063641D02*
X80340000Y40063641D01*
X76440000Y38063641D02*
X80340000Y38063641D01*
D11*
X78140000Y39063641D02*
X78340000Y39063641D01*
X78340000Y39063641D02*
X79040000Y39413641D01*
X78340000Y39063641D02*
X79040000Y38713641D01*
X78340000Y38713641D02*
X78340000Y39413641D01*
X79040000Y39063641D02*
X79340000Y39063641D01*
X79040000Y38713641D02*
X79040000Y39413641D01*
G04 #@! TD*
M02*
