G04 #@! TF.GenerationSoftware,KiCad,Pcbnew,8.0.9-8.0.9-0~ubuntu24.04.1*
G04 #@! TF.CreationDate,2025-06-27T12:24:32+00:00*
G04 #@! TF.ProjectId,EP91Starlet,45503931-5374-4617-926c-65742e6b6963,rev?*
G04 #@! TF.SameCoordinates,Original*
G04 #@! TF.FileFunction,Legend,Bot*
G04 #@! TF.FilePolarity,Positive*
%FSLAX46Y46*%
G04 Gerber Fmt 4.6, Leading zero omitted, Abs format (unit mm)*
G04 Created by KiCad (PCBNEW 8.0.9-8.0.9-0~ubuntu24.04.1) date 2025-06-27 12:24:32*
%MOMM*%
%LPD*%
G01*
G04 APERTURE LIST*
%ADD10C,0.150000*%
%ADD11C,0.170000*%
%ADD12C,0.200000*%
%ADD13C,0.120000*%
%ADD14C,0.203200*%
G04 APERTURE END LIST*
D10*
X62857509Y63685834D02*
X62857509Y64019167D01*
X63381319Y64019167D02*
X62381319Y64019167D01*
X62381319Y64019167D02*
X62381319Y63542977D01*
X62476557Y63209643D02*
X62428938Y63162024D01*
X62428938Y63162024D02*
X62381319Y63066786D01*
X62381319Y63066786D02*
X62381319Y62828691D01*
X62381319Y62828691D02*
X62428938Y62733453D01*
X62428938Y62733453D02*
X62476557Y62685834D01*
X62476557Y62685834D02*
X62571795Y62638215D01*
X62571795Y62638215D02*
X62667033Y62638215D01*
X62667033Y62638215D02*
X62809890Y62685834D01*
X62809890Y62685834D02*
X63381319Y63257262D01*
X63381319Y63257262D02*
X63381319Y62638215D01*
D11*
X67178808Y65091349D02*
X66788332Y65364682D01*
X67178808Y65559920D02*
X66358808Y65559920D01*
X66358808Y65559920D02*
X66358808Y65247539D01*
X66358808Y65247539D02*
X66397856Y65169444D01*
X66397856Y65169444D02*
X66436903Y65130397D01*
X66436903Y65130397D02*
X66514999Y65091349D01*
X66514999Y65091349D02*
X66632141Y65091349D01*
X66632141Y65091349D02*
X66710237Y65130397D01*
X66710237Y65130397D02*
X66749284Y65169444D01*
X66749284Y65169444D02*
X66788332Y65247539D01*
X66788332Y65247539D02*
X66788332Y65559920D01*
X67178808Y64310397D02*
X67178808Y64778968D01*
X67178808Y64544682D02*
X66358808Y64544682D01*
X66358808Y64544682D02*
X66475951Y64622778D01*
X66475951Y64622778D02*
X66554046Y64700873D01*
X66554046Y64700873D02*
X66593094Y64778968D01*
X66358808Y64037064D02*
X66358808Y63529445D01*
X66358808Y63529445D02*
X66671189Y63802778D01*
X66671189Y63802778D02*
X66671189Y63685635D01*
X66671189Y63685635D02*
X66710237Y63607540D01*
X66710237Y63607540D02*
X66749284Y63568492D01*
X66749284Y63568492D02*
X66827380Y63529445D01*
X66827380Y63529445D02*
X67022618Y63529445D01*
X67022618Y63529445D02*
X67100713Y63568492D01*
X67100713Y63568492D02*
X67139761Y63607540D01*
X67139761Y63607540D02*
X67178808Y63685635D01*
X67178808Y63685635D02*
X67178808Y63919921D01*
X67178808Y63919921D02*
X67139761Y63998016D01*
X67139761Y63998016D02*
X67100713Y64037064D01*
X76210808Y65091349D02*
X75820332Y65364682D01*
X76210808Y65559920D02*
X75390808Y65559920D01*
X75390808Y65559920D02*
X75390808Y65247539D01*
X75390808Y65247539D02*
X75429856Y65169444D01*
X75429856Y65169444D02*
X75468903Y65130397D01*
X75468903Y65130397D02*
X75546999Y65091349D01*
X75546999Y65091349D02*
X75664141Y65091349D01*
X75664141Y65091349D02*
X75742237Y65130397D01*
X75742237Y65130397D02*
X75781284Y65169444D01*
X75781284Y65169444D02*
X75820332Y65247539D01*
X75820332Y65247539D02*
X75820332Y65559920D01*
X76210808Y64310397D02*
X76210808Y64778968D01*
X76210808Y64544682D02*
X75390808Y64544682D01*
X75390808Y64544682D02*
X75507951Y64622778D01*
X75507951Y64622778D02*
X75586046Y64700873D01*
X75586046Y64700873D02*
X75625094Y64778968D01*
X75664141Y63607540D02*
X76210808Y63607540D01*
X75351761Y63802778D02*
X75937475Y63998016D01*
X75937475Y63998016D02*
X75937475Y63490397D01*
X48016808Y65091349D02*
X47626332Y65364682D01*
X48016808Y65559920D02*
X47196808Y65559920D01*
X47196808Y65559920D02*
X47196808Y65247539D01*
X47196808Y65247539D02*
X47235856Y65169444D01*
X47235856Y65169444D02*
X47274903Y65130397D01*
X47274903Y65130397D02*
X47352999Y65091349D01*
X47352999Y65091349D02*
X47470141Y65091349D01*
X47470141Y65091349D02*
X47548237Y65130397D01*
X47548237Y65130397D02*
X47587284Y65169444D01*
X47587284Y65169444D02*
X47626332Y65247539D01*
X47626332Y65247539D02*
X47626332Y65559920D01*
X48016808Y64700873D02*
X48016808Y64544682D01*
X48016808Y64544682D02*
X47977761Y64466587D01*
X47977761Y64466587D02*
X47938713Y64427539D01*
X47938713Y64427539D02*
X47821570Y64349444D01*
X47821570Y64349444D02*
X47665380Y64310397D01*
X47665380Y64310397D02*
X47352999Y64310397D01*
X47352999Y64310397D02*
X47274903Y64349444D01*
X47274903Y64349444D02*
X47235856Y64388492D01*
X47235856Y64388492D02*
X47196808Y64466587D01*
X47196808Y64466587D02*
X47196808Y64622778D01*
X47196808Y64622778D02*
X47235856Y64700873D01*
X47235856Y64700873D02*
X47274903Y64739920D01*
X47274903Y64739920D02*
X47352999Y64778968D01*
X47352999Y64778968D02*
X47548237Y64778968D01*
X47548237Y64778968D02*
X47626332Y64739920D01*
X47626332Y64739920D02*
X47665380Y64700873D01*
X47665380Y64700873D02*
X47704427Y64622778D01*
X47704427Y64622778D02*
X47704427Y64466587D01*
X47704427Y64466587D02*
X47665380Y64388492D01*
X47665380Y64388492D02*
X47626332Y64349444D01*
X47626332Y64349444D02*
X47548237Y64310397D01*
D10*
X72695009Y63660334D02*
X72695009Y63993667D01*
X73218819Y63993667D02*
X72218819Y63993667D01*
X72218819Y63993667D02*
X72218819Y63517477D01*
X72218819Y63231762D02*
X72218819Y62612715D01*
X72218819Y62612715D02*
X72599771Y62946048D01*
X72599771Y62946048D02*
X72599771Y62803191D01*
X72599771Y62803191D02*
X72647390Y62707953D01*
X72647390Y62707953D02*
X72695009Y62660334D01*
X72695009Y62660334D02*
X72790247Y62612715D01*
X72790247Y62612715D02*
X73028342Y62612715D01*
X73028342Y62612715D02*
X73123580Y62660334D01*
X73123580Y62660334D02*
X73171200Y62707953D01*
X73171200Y62707953D02*
X73218819Y62803191D01*
X73218819Y62803191D02*
X73218819Y63088905D01*
X73218819Y63088905D02*
X73171200Y63184143D01*
X73171200Y63184143D02*
X73123580Y63231762D01*
D11*
X75909014Y29528093D02*
X76299490Y29254760D01*
X75909014Y29059522D02*
X76729014Y29059522D01*
X76729014Y29059522D02*
X76729014Y29371903D01*
X76729014Y29371903D02*
X76689966Y29449998D01*
X76689966Y29449998D02*
X76650919Y29489045D01*
X76650919Y29489045D02*
X76572823Y29528093D01*
X76572823Y29528093D02*
X76455681Y29528093D01*
X76455681Y29528093D02*
X76377585Y29489045D01*
X76377585Y29489045D02*
X76338538Y29449998D01*
X76338538Y29449998D02*
X76299490Y29371903D01*
X76299490Y29371903D02*
X76299490Y29059522D01*
X76729014Y30269998D02*
X76729014Y29879522D01*
X76729014Y29879522D02*
X76338538Y29840474D01*
X76338538Y29840474D02*
X76377585Y29879522D01*
X76377585Y29879522D02*
X76416633Y29957617D01*
X76416633Y29957617D02*
X76416633Y30152855D01*
X76416633Y30152855D02*
X76377585Y30230950D01*
X76377585Y30230950D02*
X76338538Y30269998D01*
X76338538Y30269998D02*
X76260442Y30309045D01*
X76260442Y30309045D02*
X76065204Y30309045D01*
X76065204Y30309045D02*
X75987109Y30269998D01*
X75987109Y30269998D02*
X75948062Y30230950D01*
X75948062Y30230950D02*
X75909014Y30152855D01*
X75909014Y30152855D02*
X75909014Y29957617D01*
X75909014Y29957617D02*
X75948062Y29879522D01*
X75948062Y29879522D02*
X75987109Y29840474D01*
X78449014Y29528093D02*
X78839490Y29254760D01*
X78449014Y29059522D02*
X79269014Y29059522D01*
X79269014Y29059522D02*
X79269014Y29371903D01*
X79269014Y29371903D02*
X79229966Y29449998D01*
X79229966Y29449998D02*
X79190919Y29489045D01*
X79190919Y29489045D02*
X79112823Y29528093D01*
X79112823Y29528093D02*
X78995681Y29528093D01*
X78995681Y29528093D02*
X78917585Y29489045D01*
X78917585Y29489045D02*
X78878538Y29449998D01*
X78878538Y29449998D02*
X78839490Y29371903D01*
X78839490Y29371903D02*
X78839490Y29059522D01*
X79269014Y30230950D02*
X79269014Y30074760D01*
X79269014Y30074760D02*
X79229966Y29996664D01*
X79229966Y29996664D02*
X79190919Y29957617D01*
X79190919Y29957617D02*
X79073776Y29879522D01*
X79073776Y29879522D02*
X78917585Y29840474D01*
X78917585Y29840474D02*
X78605204Y29840474D01*
X78605204Y29840474D02*
X78527109Y29879522D01*
X78527109Y29879522D02*
X78488062Y29918569D01*
X78488062Y29918569D02*
X78449014Y29996664D01*
X78449014Y29996664D02*
X78449014Y30152855D01*
X78449014Y30152855D02*
X78488062Y30230950D01*
X78488062Y30230950D02*
X78527109Y30269998D01*
X78527109Y30269998D02*
X78605204Y30309045D01*
X78605204Y30309045D02*
X78800442Y30309045D01*
X78800442Y30309045D02*
X78878538Y30269998D01*
X78878538Y30269998D02*
X78917585Y30230950D01*
X78917585Y30230950D02*
X78956633Y30152855D01*
X78956633Y30152855D02*
X78956633Y29996664D01*
X78956633Y29996664D02*
X78917585Y29918569D01*
X78917585Y29918569D02*
X78878538Y29879522D01*
X78878538Y29879522D02*
X78800442Y29840474D01*
D10*
X52375009Y63660334D02*
X52375009Y63993667D01*
X52898819Y63993667D02*
X51898819Y63993667D01*
X51898819Y63993667D02*
X51898819Y63517477D01*
X52898819Y62612715D02*
X52898819Y63184143D01*
X52898819Y62898429D02*
X51898819Y62898429D01*
X51898819Y62898429D02*
X52041676Y62993667D01*
X52041676Y62993667D02*
X52136914Y63088905D01*
X52136914Y63088905D02*
X52184533Y63184143D01*
X73233819Y70010358D02*
X72757628Y70343691D01*
X73233819Y70581786D02*
X72233819Y70581786D01*
X72233819Y70581786D02*
X72233819Y70200834D01*
X72233819Y70200834D02*
X72281438Y70105596D01*
X72281438Y70105596D02*
X72329057Y70057977D01*
X72329057Y70057977D02*
X72424295Y70010358D01*
X72424295Y70010358D02*
X72567152Y70010358D01*
X72567152Y70010358D02*
X72662390Y70057977D01*
X72662390Y70057977D02*
X72710009Y70105596D01*
X72710009Y70105596D02*
X72757628Y70200834D01*
X72757628Y70200834D02*
X72757628Y70581786D01*
X73233819Y69057977D02*
X73233819Y69629405D01*
X73233819Y69343691D02*
X72233819Y69343691D01*
X72233819Y69343691D02*
X72376676Y69438929D01*
X72376676Y69438929D02*
X72471914Y69534167D01*
X72471914Y69534167D02*
X72519533Y69629405D01*
X72233819Y68153215D02*
X72233819Y68629405D01*
X72233819Y68629405D02*
X72710009Y68677024D01*
X72710009Y68677024D02*
X72662390Y68629405D01*
X72662390Y68629405D02*
X72614771Y68534167D01*
X72614771Y68534167D02*
X72614771Y68296072D01*
X72614771Y68296072D02*
X72662390Y68200834D01*
X72662390Y68200834D02*
X72710009Y68153215D01*
X72710009Y68153215D02*
X72805247Y68105596D01*
X72805247Y68105596D02*
X73043342Y68105596D01*
X73043342Y68105596D02*
X73138580Y68153215D01*
X73138580Y68153215D02*
X73186200Y68200834D01*
X73186200Y68200834D02*
X73233819Y68296072D01*
X73233819Y68296072D02*
X73233819Y68534167D01*
X73233819Y68534167D02*
X73186200Y68629405D01*
X73186200Y68629405D02*
X73138580Y68677024D01*
D11*
X86449014Y29528093D02*
X86839490Y29254760D01*
X86449014Y29059522D02*
X87269014Y29059522D01*
X87269014Y29059522D02*
X87269014Y29371903D01*
X87269014Y29371903D02*
X87229966Y29449998D01*
X87229966Y29449998D02*
X87190919Y29489045D01*
X87190919Y29489045D02*
X87112823Y29528093D01*
X87112823Y29528093D02*
X86995681Y29528093D01*
X86995681Y29528093D02*
X86917585Y29489045D01*
X86917585Y29489045D02*
X86878538Y29449998D01*
X86878538Y29449998D02*
X86839490Y29371903D01*
X86839490Y29371903D02*
X86839490Y29059522D01*
X86917585Y29996664D02*
X86956633Y29918569D01*
X86956633Y29918569D02*
X86995681Y29879522D01*
X86995681Y29879522D02*
X87073776Y29840474D01*
X87073776Y29840474D02*
X87112823Y29840474D01*
X87112823Y29840474D02*
X87190919Y29879522D01*
X87190919Y29879522D02*
X87229966Y29918569D01*
X87229966Y29918569D02*
X87269014Y29996664D01*
X87269014Y29996664D02*
X87269014Y30152855D01*
X87269014Y30152855D02*
X87229966Y30230950D01*
X87229966Y30230950D02*
X87190919Y30269998D01*
X87190919Y30269998D02*
X87112823Y30309045D01*
X87112823Y30309045D02*
X87073776Y30309045D01*
X87073776Y30309045D02*
X86995681Y30269998D01*
X86995681Y30269998D02*
X86956633Y30230950D01*
X86956633Y30230950D02*
X86917585Y30152855D01*
X86917585Y30152855D02*
X86917585Y29996664D01*
X86917585Y29996664D02*
X86878538Y29918569D01*
X86878538Y29918569D02*
X86839490Y29879522D01*
X86839490Y29879522D02*
X86761395Y29840474D01*
X86761395Y29840474D02*
X86605204Y29840474D01*
X86605204Y29840474D02*
X86527109Y29879522D01*
X86527109Y29879522D02*
X86488062Y29918569D01*
X86488062Y29918569D02*
X86449014Y29996664D01*
X86449014Y29996664D02*
X86449014Y30152855D01*
X86449014Y30152855D02*
X86488062Y30230950D01*
X86488062Y30230950D02*
X86527109Y30269998D01*
X86527109Y30269998D02*
X86605204Y30309045D01*
X86605204Y30309045D02*
X86761395Y30309045D01*
X86761395Y30309045D02*
X86839490Y30269998D01*
X86839490Y30269998D02*
X86878538Y30230950D01*
X86878538Y30230950D02*
X86917585Y30152855D01*
D10*
X63233819Y70010358D02*
X62757628Y70343691D01*
X63233819Y70581786D02*
X62233819Y70581786D01*
X62233819Y70581786D02*
X62233819Y70200834D01*
X62233819Y70200834D02*
X62281438Y70105596D01*
X62281438Y70105596D02*
X62329057Y70057977D01*
X62329057Y70057977D02*
X62424295Y70010358D01*
X62424295Y70010358D02*
X62567152Y70010358D01*
X62567152Y70010358D02*
X62662390Y70057977D01*
X62662390Y70057977D02*
X62710009Y70105596D01*
X62710009Y70105596D02*
X62757628Y70200834D01*
X62757628Y70200834D02*
X62757628Y70581786D01*
X63233819Y69057977D02*
X63233819Y69629405D01*
X63233819Y69343691D02*
X62233819Y69343691D01*
X62233819Y69343691D02*
X62376676Y69438929D01*
X62376676Y69438929D02*
X62471914Y69534167D01*
X62471914Y69534167D02*
X62519533Y69629405D01*
X62329057Y68677024D02*
X62281438Y68629405D01*
X62281438Y68629405D02*
X62233819Y68534167D01*
X62233819Y68534167D02*
X62233819Y68296072D01*
X62233819Y68296072D02*
X62281438Y68200834D01*
X62281438Y68200834D02*
X62329057Y68153215D01*
X62329057Y68153215D02*
X62424295Y68105596D01*
X62424295Y68105596D02*
X62519533Y68105596D01*
X62519533Y68105596D02*
X62662390Y68153215D01*
X62662390Y68153215D02*
X63233819Y68724643D01*
X63233819Y68724643D02*
X63233819Y68105596D01*
X83233819Y70010358D02*
X82757628Y70343691D01*
X83233819Y70581786D02*
X82233819Y70581786D01*
X82233819Y70581786D02*
X82233819Y70200834D01*
X82233819Y70200834D02*
X82281438Y70105596D01*
X82281438Y70105596D02*
X82329057Y70057977D01*
X82329057Y70057977D02*
X82424295Y70010358D01*
X82424295Y70010358D02*
X82567152Y70010358D01*
X82567152Y70010358D02*
X82662390Y70057977D01*
X82662390Y70057977D02*
X82710009Y70105596D01*
X82710009Y70105596D02*
X82757628Y70200834D01*
X82757628Y70200834D02*
X82757628Y70581786D01*
X83233819Y69057977D02*
X83233819Y69629405D01*
X83233819Y69343691D02*
X82233819Y69343691D01*
X82233819Y69343691D02*
X82376676Y69438929D01*
X82376676Y69438929D02*
X82471914Y69534167D01*
X82471914Y69534167D02*
X82519533Y69629405D01*
X82233819Y68200834D02*
X82233819Y68391310D01*
X82233819Y68391310D02*
X82281438Y68486548D01*
X82281438Y68486548D02*
X82329057Y68534167D01*
X82329057Y68534167D02*
X82471914Y68629405D01*
X82471914Y68629405D02*
X82662390Y68677024D01*
X82662390Y68677024D02*
X83043342Y68677024D01*
X83043342Y68677024D02*
X83138580Y68629405D01*
X83138580Y68629405D02*
X83186200Y68581786D01*
X83186200Y68581786D02*
X83233819Y68486548D01*
X83233819Y68486548D02*
X83233819Y68296072D01*
X83233819Y68296072D02*
X83186200Y68200834D01*
X83186200Y68200834D02*
X83138580Y68153215D01*
X83138580Y68153215D02*
X83043342Y68105596D01*
X83043342Y68105596D02*
X82805247Y68105596D01*
X82805247Y68105596D02*
X82710009Y68153215D01*
X82710009Y68153215D02*
X82662390Y68200834D01*
X82662390Y68200834D02*
X82614771Y68296072D01*
X82614771Y68296072D02*
X82614771Y68486548D01*
X82614771Y68486548D02*
X82662390Y68581786D01*
X82662390Y68581786D02*
X82710009Y68629405D01*
X82710009Y68629405D02*
X82805247Y68677024D01*
D11*
X58016808Y65599349D02*
X57626332Y65872682D01*
X58016808Y66067920D02*
X57196808Y66067920D01*
X57196808Y66067920D02*
X57196808Y65755539D01*
X57196808Y65755539D02*
X57235856Y65677444D01*
X57235856Y65677444D02*
X57274903Y65638397D01*
X57274903Y65638397D02*
X57352999Y65599349D01*
X57352999Y65599349D02*
X57470141Y65599349D01*
X57470141Y65599349D02*
X57548237Y65638397D01*
X57548237Y65638397D02*
X57587284Y65677444D01*
X57587284Y65677444D02*
X57626332Y65755539D01*
X57626332Y65755539D02*
X57626332Y66067920D01*
X58016808Y64818397D02*
X58016808Y65286968D01*
X58016808Y65052682D02*
X57196808Y65052682D01*
X57196808Y65052682D02*
X57313951Y65130778D01*
X57313951Y65130778D02*
X57392046Y65208873D01*
X57392046Y65208873D02*
X57431094Y65286968D01*
X57196808Y64310778D02*
X57196808Y64232683D01*
X57196808Y64232683D02*
X57235856Y64154587D01*
X57235856Y64154587D02*
X57274903Y64115540D01*
X57274903Y64115540D02*
X57352999Y64076492D01*
X57352999Y64076492D02*
X57509189Y64037445D01*
X57509189Y64037445D02*
X57704427Y64037445D01*
X57704427Y64037445D02*
X57860618Y64076492D01*
X57860618Y64076492D02*
X57938713Y64115540D01*
X57938713Y64115540D02*
X57977761Y64154587D01*
X57977761Y64154587D02*
X58016808Y64232683D01*
X58016808Y64232683D02*
X58016808Y64310778D01*
X58016808Y64310778D02*
X57977761Y64388873D01*
X57977761Y64388873D02*
X57938713Y64427921D01*
X57938713Y64427921D02*
X57860618Y64466968D01*
X57860618Y64466968D02*
X57704427Y64506016D01*
X57704427Y64506016D02*
X57509189Y64506016D01*
X57509189Y64506016D02*
X57352999Y64466968D01*
X57352999Y64466968D02*
X57274903Y64427921D01*
X57274903Y64427921D02*
X57235856Y64388873D01*
X57235856Y64388873D02*
X57196808Y64310778D01*
X75388508Y45363238D02*
X74568508Y45363238D01*
X74568508Y45363238D02*
X74568508Y45168000D01*
X74568508Y45168000D02*
X74607556Y45050857D01*
X74607556Y45050857D02*
X74685651Y44972762D01*
X74685651Y44972762D02*
X74763746Y44933715D01*
X74763746Y44933715D02*
X74919937Y44894667D01*
X74919937Y44894667D02*
X75037080Y44894667D01*
X75037080Y44894667D02*
X75193270Y44933715D01*
X75193270Y44933715D02*
X75271365Y44972762D01*
X75271365Y44972762D02*
X75349461Y45050857D01*
X75349461Y45050857D02*
X75388508Y45168000D01*
X75388508Y45168000D02*
X75388508Y45363238D01*
X74646603Y44582286D02*
X74607556Y44543238D01*
X74607556Y44543238D02*
X74568508Y44465143D01*
X74568508Y44465143D02*
X74568508Y44269905D01*
X74568508Y44269905D02*
X74607556Y44191810D01*
X74607556Y44191810D02*
X74646603Y44152762D01*
X74646603Y44152762D02*
X74724699Y44113715D01*
X74724699Y44113715D02*
X74802794Y44113715D01*
X74802794Y44113715D02*
X74919937Y44152762D01*
X74919937Y44152762D02*
X75388508Y44621334D01*
X75388508Y44621334D02*
X75388508Y44113715D01*
D10*
X82832009Y63660334D02*
X82832009Y63993667D01*
X83355819Y63993667D02*
X82355819Y63993667D01*
X82355819Y63993667D02*
X82355819Y63517477D01*
X82689152Y62707953D02*
X83355819Y62707953D01*
X82308200Y62946048D02*
X83022485Y63184143D01*
X83022485Y63184143D02*
X83022485Y62565096D01*
D11*
X86056508Y45617238D02*
X85236508Y45617238D01*
X85236508Y45617238D02*
X85236508Y45422000D01*
X85236508Y45422000D02*
X85275556Y45304857D01*
X85275556Y45304857D02*
X85353651Y45226762D01*
X85353651Y45226762D02*
X85431746Y45187715D01*
X85431746Y45187715D02*
X85587937Y45148667D01*
X85587937Y45148667D02*
X85705080Y45148667D01*
X85705080Y45148667D02*
X85861270Y45187715D01*
X85861270Y45187715D02*
X85939365Y45226762D01*
X85939365Y45226762D02*
X86017461Y45304857D01*
X86017461Y45304857D02*
X86056508Y45422000D01*
X86056508Y45422000D02*
X86056508Y45617238D01*
X85236508Y44875334D02*
X85236508Y44367715D01*
X85236508Y44367715D02*
X85548889Y44641048D01*
X85548889Y44641048D02*
X85548889Y44523905D01*
X85548889Y44523905D02*
X85587937Y44445810D01*
X85587937Y44445810D02*
X85626984Y44406762D01*
X85626984Y44406762D02*
X85705080Y44367715D01*
X85705080Y44367715D02*
X85900318Y44367715D01*
X85900318Y44367715D02*
X85978413Y44406762D01*
X85978413Y44406762D02*
X86017461Y44445810D01*
X86017461Y44445810D02*
X86056508Y44523905D01*
X86056508Y44523905D02*
X86056508Y44758191D01*
X86056508Y44758191D02*
X86017461Y44836286D01*
X86017461Y44836286D02*
X85978413Y44875334D01*
X78182508Y45363238D02*
X77362508Y45363238D01*
X77362508Y45363238D02*
X77362508Y45168000D01*
X77362508Y45168000D02*
X77401556Y45050857D01*
X77401556Y45050857D02*
X77479651Y44972762D01*
X77479651Y44972762D02*
X77557746Y44933715D01*
X77557746Y44933715D02*
X77713937Y44894667D01*
X77713937Y44894667D02*
X77831080Y44894667D01*
X77831080Y44894667D02*
X77987270Y44933715D01*
X77987270Y44933715D02*
X78065365Y44972762D01*
X78065365Y44972762D02*
X78143461Y45050857D01*
X78143461Y45050857D02*
X78182508Y45168000D01*
X78182508Y45168000D02*
X78182508Y45363238D01*
X78182508Y44113715D02*
X78182508Y44582286D01*
X78182508Y44348000D02*
X77362508Y44348000D01*
X77362508Y44348000D02*
X77479651Y44426096D01*
X77479651Y44426096D02*
X77557746Y44504191D01*
X77557746Y44504191D02*
X77596794Y44582286D01*
D10*
X86635819Y36056905D02*
X87445342Y36056905D01*
X87445342Y36056905D02*
X87540580Y36009286D01*
X87540580Y36009286D02*
X87588200Y35961667D01*
X87588200Y35961667D02*
X87635819Y35866429D01*
X87635819Y35866429D02*
X87635819Y35675953D01*
X87635819Y35675953D02*
X87588200Y35580715D01*
X87588200Y35580715D02*
X87540580Y35533096D01*
X87540580Y35533096D02*
X87445342Y35485477D01*
X87445342Y35485477D02*
X86635819Y35485477D01*
X86635819Y34533096D02*
X86635819Y35009286D01*
X86635819Y35009286D02*
X87112009Y35056905D01*
X87112009Y35056905D02*
X87064390Y35009286D01*
X87064390Y35009286D02*
X87016771Y34914048D01*
X87016771Y34914048D02*
X87016771Y34675953D01*
X87016771Y34675953D02*
X87064390Y34580715D01*
X87064390Y34580715D02*
X87112009Y34533096D01*
X87112009Y34533096D02*
X87207247Y34485477D01*
X87207247Y34485477D02*
X87445342Y34485477D01*
X87445342Y34485477D02*
X87540580Y34533096D01*
X87540580Y34533096D02*
X87588200Y34580715D01*
X87588200Y34580715D02*
X87635819Y34675953D01*
X87635819Y34675953D02*
X87635819Y34914048D01*
X87635819Y34914048D02*
X87588200Y35009286D01*
X87588200Y35009286D02*
X87540580Y35056905D01*
D11*
X83909014Y29528093D02*
X84299490Y29254760D01*
X83909014Y29059522D02*
X84729014Y29059522D01*
X84729014Y29059522D02*
X84729014Y29371903D01*
X84729014Y29371903D02*
X84689966Y29449998D01*
X84689966Y29449998D02*
X84650919Y29489045D01*
X84650919Y29489045D02*
X84572823Y29528093D01*
X84572823Y29528093D02*
X84455681Y29528093D01*
X84455681Y29528093D02*
X84377585Y29489045D01*
X84377585Y29489045D02*
X84338538Y29449998D01*
X84338538Y29449998D02*
X84299490Y29371903D01*
X84299490Y29371903D02*
X84299490Y29059522D01*
X84729014Y29801426D02*
X84729014Y30348093D01*
X84729014Y30348093D02*
X83909014Y29996664D01*
D10*
X53233819Y70010358D02*
X52757628Y70343691D01*
X53233819Y70581786D02*
X52233819Y70581786D01*
X52233819Y70581786D02*
X52233819Y70200834D01*
X52233819Y70200834D02*
X52281438Y70105596D01*
X52281438Y70105596D02*
X52329057Y70057977D01*
X52329057Y70057977D02*
X52424295Y70010358D01*
X52424295Y70010358D02*
X52567152Y70010358D01*
X52567152Y70010358D02*
X52662390Y70057977D01*
X52662390Y70057977D02*
X52710009Y70105596D01*
X52710009Y70105596D02*
X52757628Y70200834D01*
X52757628Y70200834D02*
X52757628Y70581786D01*
X53233819Y69057977D02*
X53233819Y69629405D01*
X53233819Y69343691D02*
X52233819Y69343691D01*
X52233819Y69343691D02*
X52376676Y69438929D01*
X52376676Y69438929D02*
X52471914Y69534167D01*
X52471914Y69534167D02*
X52519533Y69629405D01*
X53233819Y68105596D02*
X53233819Y68677024D01*
X53233819Y68391310D02*
X52233819Y68391310D01*
X52233819Y68391310D02*
X52376676Y68486548D01*
X52376676Y68486548D02*
X52471914Y68581786D01*
X52471914Y68581786D02*
X52519533Y68677024D01*
X78635819Y36056905D02*
X79445342Y36056905D01*
X79445342Y36056905D02*
X79540580Y36009286D01*
X79540580Y36009286D02*
X79588200Y35961667D01*
X79588200Y35961667D02*
X79635819Y35866429D01*
X79635819Y35866429D02*
X79635819Y35675953D01*
X79635819Y35675953D02*
X79588200Y35580715D01*
X79588200Y35580715D02*
X79540580Y35533096D01*
X79540580Y35533096D02*
X79445342Y35485477D01*
X79445342Y35485477D02*
X78635819Y35485477D01*
X78969152Y34580715D02*
X79635819Y34580715D01*
X78588200Y34818810D02*
X79302485Y35056905D01*
X79302485Y35056905D02*
X79302485Y34437858D01*
D11*
X83516508Y45617238D02*
X82696508Y45617238D01*
X82696508Y45617238D02*
X82696508Y45422000D01*
X82696508Y45422000D02*
X82735556Y45304857D01*
X82735556Y45304857D02*
X82813651Y45226762D01*
X82813651Y45226762D02*
X82891746Y45187715D01*
X82891746Y45187715D02*
X83047937Y45148667D01*
X83047937Y45148667D02*
X83165080Y45148667D01*
X83165080Y45148667D02*
X83321270Y45187715D01*
X83321270Y45187715D02*
X83399365Y45226762D01*
X83399365Y45226762D02*
X83477461Y45304857D01*
X83477461Y45304857D02*
X83516508Y45422000D01*
X83516508Y45422000D02*
X83516508Y45617238D01*
X82969841Y44445810D02*
X83516508Y44445810D01*
X82657461Y44641048D02*
X83243175Y44836286D01*
X83243175Y44836286D02*
X83243175Y44328667D01*
G04 #@! TO.C,M4*
D12*
X-2482000Y79114000D02*
X11418000Y79114000D01*
X11418000Y51614000D01*
X-2482000Y51614000D01*
X-2482000Y79114000D01*
G04 #@! TO.C,M2*
X19757996Y54199999D02*
X60557999Y54199999D01*
X19757996Y14300000D02*
X19757996Y54199999D01*
X19757996Y14300000D02*
X61857996Y14300000D01*
X60557999Y54199999D02*
X61857999Y54199999D01*
X61857996Y14300000D02*
X61857999Y54199999D01*
G04 #@! TO.C,M1*
X-1490500Y44424000D02*
X-1490500Y29424000D01*
X-1490500Y44424000D02*
X-190500Y44424000D01*
X-1490500Y29424000D02*
X3609500Y29424000D01*
X8109500Y44424000D02*
X1709500Y44424000D01*
X8109500Y30024000D02*
X8109500Y44424000D01*
G04 #@! TO.C,M6*
X19494000Y95737999D02*
X19494000Y80337999D01*
X19494000Y95737999D02*
X19794000Y95737999D01*
X20944000Y78938002D02*
X22494000Y78937997D01*
X21394000Y95737999D02*
X31794002Y95737999D01*
X24494002Y78938002D02*
X25594005Y78938002D01*
X27194000Y78938002D02*
X29894000Y78938002D01*
X33394002Y78938002D02*
X38194002Y78938002D01*
X33494000Y95737999D02*
X36694003Y95737999D01*
X39794002Y78938000D02*
X40094000Y78938000D01*
X40093998Y94237999D02*
X40094000Y78938000D01*
G04 #@! TO.C,M5*
X-1490500Y26644000D02*
X-1490500Y11644000D01*
X-1490500Y26644000D02*
X-190500Y26644000D01*
X-1490500Y11644000D02*
X3609500Y11644000D01*
X8109500Y26644000D02*
X1709500Y26644000D01*
X8109500Y12244000D02*
X8109500Y26644000D01*
G04 #@! TO.C,M3*
X78216000Y12370003D02*
X87316000Y12370003D01*
X78216000Y9270000D02*
X78216000Y10270002D01*
X78216000Y9270000D02*
X87316000Y9270000D01*
D13*
G04 #@! TO.C,F2*
X59969721Y63837000D02*
X60295279Y63837000D01*
X59969721Y62817000D02*
X60295279Y62817000D01*
D14*
G04 #@! TO.C,R13*
X70318943Y65221851D02*
X69918944Y65221840D01*
X70320000Y64476015D02*
X69920000Y64476005D01*
G04 #@! TO.C,R14*
X80318943Y65221851D02*
X79918944Y65221840D01*
X80320000Y64476015D02*
X79920000Y64476005D01*
G04 #@! TO.C,R9*
X50318943Y65221851D02*
X49918944Y65221840D01*
X50320000Y64476015D02*
X49920000Y64476005D01*
D13*
G04 #@! TO.C,F3*
X69969721Y63837000D02*
X70295279Y63837000D01*
X69969721Y62817000D02*
X70295279Y62817000D01*
D14*
G04 #@! TO.C,R5*
X74775149Y30186943D02*
X74775160Y29786944D01*
X75520985Y30188000D02*
X75520995Y29788000D01*
G04 #@! TO.C,R6*
X77315149Y30186943D02*
X77315160Y29786944D01*
X78060985Y30188000D02*
X78060995Y29788000D01*
D13*
G04 #@! TO.C,F1*
X49969721Y63837000D02*
X50295279Y63837000D01*
X49969721Y62817000D02*
X50295279Y62817000D01*
G04 #@! TO.C,R15*
X68449000Y71544564D02*
X68449000Y67190436D01*
X71869000Y71544564D02*
X71869000Y67190436D01*
D14*
G04 #@! TO.C,R8*
X85315149Y30186943D02*
X85315160Y29786944D01*
X86060985Y30188000D02*
X86060995Y29788000D01*
D13*
G04 #@! TO.C,R12*
X58449000Y71544564D02*
X58449000Y67190436D01*
X61869000Y71544564D02*
X61869000Y67190436D01*
G04 #@! TO.C,R16*
X78449000Y71544564D02*
X78449000Y67190436D01*
X81869000Y71544564D02*
X81869000Y67190436D01*
D14*
G04 #@! TO.C,R10*
X60318943Y65221851D02*
X59918944Y65221840D01*
X60320000Y64476015D02*
X59920000Y64476005D01*
D13*
G04 #@! TO.C,D2*
X74146000Y39932000D02*
X74146000Y43832000D01*
D11*
X74796000Y41932000D02*
X75496000Y41932000D01*
X74796000Y41232000D02*
X75146000Y41932000D01*
X74796000Y41232000D02*
X75496000Y41232000D01*
X75146000Y41932000D02*
X75146000Y42132000D01*
X75146000Y40932000D02*
X75146000Y41232000D01*
X75496000Y41232000D02*
X75146000Y41932000D01*
D13*
X76146000Y43832000D02*
X74146000Y43832000D01*
X76146000Y39932000D02*
X76146000Y43832000D01*
G04 #@! TO.C,F4*
X79969721Y63837000D02*
X80295279Y63837000D01*
X79969721Y62817000D02*
X80295279Y62817000D01*
G04 #@! TO.C,D3*
X84686000Y39932000D02*
X84686000Y43832000D01*
D11*
X85336000Y41932000D02*
X86036000Y41932000D01*
X85336000Y41232000D02*
X85686000Y41932000D01*
X85336000Y41232000D02*
X86036000Y41232000D01*
X85686000Y41932000D02*
X85686000Y42132000D01*
X85686000Y40932000D02*
X85686000Y41232000D01*
X86036000Y41232000D02*
X85686000Y41932000D01*
D13*
X86686000Y43832000D02*
X84686000Y43832000D01*
X86686000Y39932000D02*
X86686000Y43832000D01*
G04 #@! TO.C,D1*
X76686000Y39932000D02*
X76686000Y43832000D01*
D11*
X77336000Y41932000D02*
X78036000Y41932000D01*
X77336000Y41232000D02*
X77686000Y41932000D01*
X77336000Y41232000D02*
X78036000Y41232000D01*
X77686000Y41932000D02*
X77686000Y42132000D01*
X77686000Y40932000D02*
X77686000Y41232000D01*
X78036000Y41232000D02*
X77686000Y41932000D01*
D13*
X78686000Y43832000D02*
X76686000Y43832000D01*
X78686000Y39932000D02*
X78686000Y43832000D01*
G04 #@! TO.C,U5*
X81221000Y37245000D02*
X81221000Y35295000D01*
X81221000Y33345000D02*
X81221000Y35295000D01*
X86341000Y37245000D02*
X86341000Y35295000D01*
X86341000Y33345000D02*
X86341000Y35295000D01*
X86576000Y32355000D02*
X86246000Y32595000D01*
X86576000Y32835000D01*
X86576000Y32355000D01*
G36*
X86576000Y32355000D02*
G01*
X86246000Y32595000D01*
X86576000Y32835000D01*
X86576000Y32355000D01*
G37*
D14*
G04 #@! TO.C,R7*
X82775149Y30186943D02*
X82775160Y29786944D01*
X83520985Y30188000D02*
X83520995Y29788000D01*
D13*
G04 #@! TO.C,R11*
X48449000Y71544564D02*
X48449000Y67190436D01*
X51869000Y71544564D02*
X51869000Y67190436D01*
G04 #@! TO.C,U4*
X73221000Y37245000D02*
X73221000Y35295000D01*
X73221000Y33345000D02*
X73221000Y35295000D01*
X78341000Y37245000D02*
X78341000Y35295000D01*
X78341000Y33345000D02*
X78341000Y35295000D01*
X78576000Y32355000D02*
X78246000Y32595000D01*
X78576000Y32835000D01*
X78576000Y32355000D01*
G36*
X78576000Y32355000D02*
G01*
X78246000Y32595000D01*
X78576000Y32835000D01*
X78576000Y32355000D01*
G37*
G04 #@! TO.C,D4*
X82146000Y39932000D02*
X82146000Y43832000D01*
D11*
X82796000Y41932000D02*
X83496000Y41932000D01*
X82796000Y41232000D02*
X83146000Y41932000D01*
X82796000Y41232000D02*
X83496000Y41232000D01*
X83146000Y41932000D02*
X83146000Y42132000D01*
X83146000Y40932000D02*
X83146000Y41232000D01*
X83496000Y41232000D02*
X83146000Y41932000D01*
D13*
X84146000Y43832000D02*
X82146000Y43832000D01*
X84146000Y39932000D02*
X84146000Y43832000D01*
G04 #@! TD*
M02*
