G04 #@! TF.GenerationSoftware,KiCad,Pcbnew,8.0.9-8.0.9-0~ubuntu24.04.1*
G04 #@! TF.CreationDate,2025-06-27T08:15:53+00:00*
G04 #@! TF.ProjectId,EP91Starlet,45503931-5374-4617-926c-65742e6b6963,rev?*
G04 #@! TF.SameCoordinates,Original*
G04 #@! TF.FileFunction,Legend,Bot*
G04 #@! TF.FilePolarity,Positive*
%FSLAX46Y46*%
G04 Gerber Fmt 4.6, Leading zero omitted, Abs format (unit mm)*
G04 Created by KiCad (PCBNEW 8.0.9-8.0.9-0~ubuntu24.04.1) date 2025-06-27 08:15:53*
%MOMM*%
%LPD*%
G01*
G04 APERTURE LIST*
%ADD10C,0.150000*%
%ADD11C,0.170000*%
%ADD12C,0.200000*%
%ADD13C,0.120000*%
%ADD14C,0.203200*%
G04 APERTURE END LIST*
D10*
X117160833Y106350491D02*
X117494166Y106350491D01*
X117494166Y105826681D02*
X117494166Y106826681D01*
X117494166Y106826681D02*
X117017976Y106826681D01*
X116684642Y106731443D02*
X116637023Y106779062D01*
X116637023Y106779062D02*
X116541785Y106826681D01*
X116541785Y106826681D02*
X116303690Y106826681D01*
X116303690Y106826681D02*
X116208452Y106779062D01*
X116208452Y106779062D02*
X116160833Y106731443D01*
X116160833Y106731443D02*
X116113214Y106636205D01*
X116113214Y106636205D02*
X116113214Y106540967D01*
X116113214Y106540967D02*
X116160833Y106398110D01*
X116160833Y106398110D02*
X116732261Y105826681D01*
X116732261Y105826681D02*
X116113214Y105826681D01*
D11*
X118566348Y102029192D02*
X118839681Y102419668D01*
X119034919Y102029192D02*
X119034919Y102849192D01*
X119034919Y102849192D02*
X118722538Y102849192D01*
X118722538Y102849192D02*
X118644443Y102810144D01*
X118644443Y102810144D02*
X118605396Y102771097D01*
X118605396Y102771097D02*
X118566348Y102693001D01*
X118566348Y102693001D02*
X118566348Y102575859D01*
X118566348Y102575859D02*
X118605396Y102497763D01*
X118605396Y102497763D02*
X118644443Y102458716D01*
X118644443Y102458716D02*
X118722538Y102419668D01*
X118722538Y102419668D02*
X119034919Y102419668D01*
X117785396Y102029192D02*
X118253967Y102029192D01*
X118019681Y102029192D02*
X118019681Y102849192D01*
X118019681Y102849192D02*
X118097777Y102732049D01*
X118097777Y102732049D02*
X118175872Y102653954D01*
X118175872Y102653954D02*
X118253967Y102614906D01*
X117512063Y102849192D02*
X117004444Y102849192D01*
X117004444Y102849192D02*
X117277777Y102536811D01*
X117277777Y102536811D02*
X117160634Y102536811D01*
X117160634Y102536811D02*
X117082539Y102497763D01*
X117082539Y102497763D02*
X117043491Y102458716D01*
X117043491Y102458716D02*
X117004444Y102380620D01*
X117004444Y102380620D02*
X117004444Y102185382D01*
X117004444Y102185382D02*
X117043491Y102107287D01*
X117043491Y102107287D02*
X117082539Y102068239D01*
X117082539Y102068239D02*
X117160634Y102029192D01*
X117160634Y102029192D02*
X117394920Y102029192D01*
X117394920Y102029192D02*
X117473015Y102068239D01*
X117473015Y102068239D02*
X117512063Y102107287D01*
X118566348Y92997192D02*
X118839681Y93387668D01*
X119034919Y92997192D02*
X119034919Y93817192D01*
X119034919Y93817192D02*
X118722538Y93817192D01*
X118722538Y93817192D02*
X118644443Y93778144D01*
X118644443Y93778144D02*
X118605396Y93739097D01*
X118605396Y93739097D02*
X118566348Y93661001D01*
X118566348Y93661001D02*
X118566348Y93543859D01*
X118566348Y93543859D02*
X118605396Y93465763D01*
X118605396Y93465763D02*
X118644443Y93426716D01*
X118644443Y93426716D02*
X118722538Y93387668D01*
X118722538Y93387668D02*
X119034919Y93387668D01*
X117785396Y92997192D02*
X118253967Y92997192D01*
X118019681Y92997192D02*
X118019681Y93817192D01*
X118019681Y93817192D02*
X118097777Y93700049D01*
X118097777Y93700049D02*
X118175872Y93621954D01*
X118175872Y93621954D02*
X118253967Y93582906D01*
X117082539Y93543859D02*
X117082539Y92997192D01*
X117277777Y93856239D02*
X117473015Y93270525D01*
X117473015Y93270525D02*
X116965396Y93270525D01*
X118566348Y121191192D02*
X118839681Y121581668D01*
X119034919Y121191192D02*
X119034919Y122011192D01*
X119034919Y122011192D02*
X118722538Y122011192D01*
X118722538Y122011192D02*
X118644443Y121972144D01*
X118644443Y121972144D02*
X118605396Y121933097D01*
X118605396Y121933097D02*
X118566348Y121855001D01*
X118566348Y121855001D02*
X118566348Y121737859D01*
X118566348Y121737859D02*
X118605396Y121659763D01*
X118605396Y121659763D02*
X118644443Y121620716D01*
X118644443Y121620716D02*
X118722538Y121581668D01*
X118722538Y121581668D02*
X119034919Y121581668D01*
X118175872Y121191192D02*
X118019681Y121191192D01*
X118019681Y121191192D02*
X117941586Y121230239D01*
X117941586Y121230239D02*
X117902538Y121269287D01*
X117902538Y121269287D02*
X117824443Y121386430D01*
X117824443Y121386430D02*
X117785396Y121542620D01*
X117785396Y121542620D02*
X117785396Y121855001D01*
X117785396Y121855001D02*
X117824443Y121933097D01*
X117824443Y121933097D02*
X117863491Y121972144D01*
X117863491Y121972144D02*
X117941586Y122011192D01*
X117941586Y122011192D02*
X118097777Y122011192D01*
X118097777Y122011192D02*
X118175872Y121972144D01*
X118175872Y121972144D02*
X118214919Y121933097D01*
X118214919Y121933097D02*
X118253967Y121855001D01*
X118253967Y121855001D02*
X118253967Y121659763D01*
X118253967Y121659763D02*
X118214919Y121581668D01*
X118214919Y121581668D02*
X118175872Y121542620D01*
X118175872Y121542620D02*
X118097777Y121503573D01*
X118097777Y121503573D02*
X117941586Y121503573D01*
X117941586Y121503573D02*
X117863491Y121542620D01*
X117863491Y121542620D02*
X117824443Y121581668D01*
X117824443Y121581668D02*
X117785396Y121659763D01*
D10*
X117135333Y96512991D02*
X117468666Y96512991D01*
X117468666Y95989181D02*
X117468666Y96989181D01*
X117468666Y96989181D02*
X116992476Y96989181D01*
X116706761Y96989181D02*
X116087714Y96989181D01*
X116087714Y96989181D02*
X116421047Y96608229D01*
X116421047Y96608229D02*
X116278190Y96608229D01*
X116278190Y96608229D02*
X116182952Y96560610D01*
X116182952Y96560610D02*
X116135333Y96512991D01*
X116135333Y96512991D02*
X116087714Y96417753D01*
X116087714Y96417753D02*
X116087714Y96179658D01*
X116087714Y96179658D02*
X116135333Y96084420D01*
X116135333Y96084420D02*
X116182952Y96036800D01*
X116182952Y96036800D02*
X116278190Y95989181D01*
X116278190Y95989181D02*
X116563904Y95989181D01*
X116563904Y95989181D02*
X116659142Y96036800D01*
X116659142Y96036800D02*
X116706761Y96084420D01*
X117135333Y116832991D02*
X117468666Y116832991D01*
X117468666Y116309181D02*
X117468666Y117309181D01*
X117468666Y117309181D02*
X116992476Y117309181D01*
X116087714Y116309181D02*
X116659142Y116309181D01*
X116373428Y116309181D02*
X116373428Y117309181D01*
X116373428Y117309181D02*
X116468666Y117166324D01*
X116468666Y117166324D02*
X116563904Y117071086D01*
X116563904Y117071086D02*
X116659142Y117023467D01*
X123485357Y95974181D02*
X123818690Y96450372D01*
X124056785Y95974181D02*
X124056785Y96974181D01*
X124056785Y96974181D02*
X123675833Y96974181D01*
X123675833Y96974181D02*
X123580595Y96926562D01*
X123580595Y96926562D02*
X123532976Y96878943D01*
X123532976Y96878943D02*
X123485357Y96783705D01*
X123485357Y96783705D02*
X123485357Y96640848D01*
X123485357Y96640848D02*
X123532976Y96545610D01*
X123532976Y96545610D02*
X123580595Y96497991D01*
X123580595Y96497991D02*
X123675833Y96450372D01*
X123675833Y96450372D02*
X124056785Y96450372D01*
X122532976Y95974181D02*
X123104404Y95974181D01*
X122818690Y95974181D02*
X122818690Y96974181D01*
X122818690Y96974181D02*
X122913928Y96831324D01*
X122913928Y96831324D02*
X123009166Y96736086D01*
X123009166Y96736086D02*
X123104404Y96688467D01*
X121628214Y96974181D02*
X122104404Y96974181D01*
X122104404Y96974181D02*
X122152023Y96497991D01*
X122152023Y96497991D02*
X122104404Y96545610D01*
X122104404Y96545610D02*
X122009166Y96593229D01*
X122009166Y96593229D02*
X121771071Y96593229D01*
X121771071Y96593229D02*
X121675833Y96545610D01*
X121675833Y96545610D02*
X121628214Y96497991D01*
X121628214Y96497991D02*
X121580595Y96402753D01*
X121580595Y96402753D02*
X121580595Y96164658D01*
X121580595Y96164658D02*
X121628214Y96069420D01*
X121628214Y96069420D02*
X121675833Y96021800D01*
X121675833Y96021800D02*
X121771071Y95974181D01*
X121771071Y95974181D02*
X122009166Y95974181D01*
X122009166Y95974181D02*
X122104404Y96021800D01*
X122104404Y96021800D02*
X122152023Y96069420D01*
X123485357Y105974181D02*
X123818690Y106450372D01*
X124056785Y105974181D02*
X124056785Y106974181D01*
X124056785Y106974181D02*
X123675833Y106974181D01*
X123675833Y106974181D02*
X123580595Y106926562D01*
X123580595Y106926562D02*
X123532976Y106878943D01*
X123532976Y106878943D02*
X123485357Y106783705D01*
X123485357Y106783705D02*
X123485357Y106640848D01*
X123485357Y106640848D02*
X123532976Y106545610D01*
X123532976Y106545610D02*
X123580595Y106497991D01*
X123580595Y106497991D02*
X123675833Y106450372D01*
X123675833Y106450372D02*
X124056785Y106450372D01*
X122532976Y105974181D02*
X123104404Y105974181D01*
X122818690Y105974181D02*
X122818690Y106974181D01*
X122818690Y106974181D02*
X122913928Y106831324D01*
X122913928Y106831324D02*
X123009166Y106736086D01*
X123009166Y106736086D02*
X123104404Y106688467D01*
X122152023Y106878943D02*
X122104404Y106926562D01*
X122104404Y106926562D02*
X122009166Y106974181D01*
X122009166Y106974181D02*
X121771071Y106974181D01*
X121771071Y106974181D02*
X121675833Y106926562D01*
X121675833Y106926562D02*
X121628214Y106878943D01*
X121628214Y106878943D02*
X121580595Y106783705D01*
X121580595Y106783705D02*
X121580595Y106688467D01*
X121580595Y106688467D02*
X121628214Y106545610D01*
X121628214Y106545610D02*
X122199642Y105974181D01*
X122199642Y105974181D02*
X121580595Y105974181D01*
X123485357Y85974181D02*
X123818690Y86450372D01*
X124056785Y85974181D02*
X124056785Y86974181D01*
X124056785Y86974181D02*
X123675833Y86974181D01*
X123675833Y86974181D02*
X123580595Y86926562D01*
X123580595Y86926562D02*
X123532976Y86878943D01*
X123532976Y86878943D02*
X123485357Y86783705D01*
X123485357Y86783705D02*
X123485357Y86640848D01*
X123485357Y86640848D02*
X123532976Y86545610D01*
X123532976Y86545610D02*
X123580595Y86497991D01*
X123580595Y86497991D02*
X123675833Y86450372D01*
X123675833Y86450372D02*
X124056785Y86450372D01*
X122532976Y85974181D02*
X123104404Y85974181D01*
X122818690Y85974181D02*
X122818690Y86974181D01*
X122818690Y86974181D02*
X122913928Y86831324D01*
X122913928Y86831324D02*
X123009166Y86736086D01*
X123009166Y86736086D02*
X123104404Y86688467D01*
X121675833Y86974181D02*
X121866309Y86974181D01*
X121866309Y86974181D02*
X121961547Y86926562D01*
X121961547Y86926562D02*
X122009166Y86878943D01*
X122009166Y86878943D02*
X122104404Y86736086D01*
X122104404Y86736086D02*
X122152023Y86545610D01*
X122152023Y86545610D02*
X122152023Y86164658D01*
X122152023Y86164658D02*
X122104404Y86069420D01*
X122104404Y86069420D02*
X122056785Y86021800D01*
X122056785Y86021800D02*
X121961547Y85974181D01*
X121961547Y85974181D02*
X121771071Y85974181D01*
X121771071Y85974181D02*
X121675833Y86021800D01*
X121675833Y86021800D02*
X121628214Y86069420D01*
X121628214Y86069420D02*
X121580595Y86164658D01*
X121580595Y86164658D02*
X121580595Y86402753D01*
X121580595Y86402753D02*
X121628214Y86497991D01*
X121628214Y86497991D02*
X121675833Y86545610D01*
X121675833Y86545610D02*
X121771071Y86593229D01*
X121771071Y86593229D02*
X121961547Y86593229D01*
X121961547Y86593229D02*
X122056785Y86545610D01*
X122056785Y86545610D02*
X122104404Y86497991D01*
X122104404Y86497991D02*
X122152023Y86402753D01*
D11*
X119074348Y111191192D02*
X119347681Y111581668D01*
X119542919Y111191192D02*
X119542919Y112011192D01*
X119542919Y112011192D02*
X119230538Y112011192D01*
X119230538Y112011192D02*
X119152443Y111972144D01*
X119152443Y111972144D02*
X119113396Y111933097D01*
X119113396Y111933097D02*
X119074348Y111855001D01*
X119074348Y111855001D02*
X119074348Y111737859D01*
X119074348Y111737859D02*
X119113396Y111659763D01*
X119113396Y111659763D02*
X119152443Y111620716D01*
X119152443Y111620716D02*
X119230538Y111581668D01*
X119230538Y111581668D02*
X119542919Y111581668D01*
X118293396Y111191192D02*
X118761967Y111191192D01*
X118527681Y111191192D02*
X118527681Y112011192D01*
X118527681Y112011192D02*
X118605777Y111894049D01*
X118605777Y111894049D02*
X118683872Y111815954D01*
X118683872Y111815954D02*
X118761967Y111776906D01*
X117785777Y112011192D02*
X117707682Y112011192D01*
X117707682Y112011192D02*
X117629586Y111972144D01*
X117629586Y111972144D02*
X117590539Y111933097D01*
X117590539Y111933097D02*
X117551491Y111855001D01*
X117551491Y111855001D02*
X117512444Y111698811D01*
X117512444Y111698811D02*
X117512444Y111503573D01*
X117512444Y111503573D02*
X117551491Y111347382D01*
X117551491Y111347382D02*
X117590539Y111269287D01*
X117590539Y111269287D02*
X117629586Y111230239D01*
X117629586Y111230239D02*
X117707682Y111191192D01*
X117707682Y111191192D02*
X117785777Y111191192D01*
X117785777Y111191192D02*
X117863872Y111230239D01*
X117863872Y111230239D02*
X117902920Y111269287D01*
X117902920Y111269287D02*
X117941967Y111347382D01*
X117941967Y111347382D02*
X117981015Y111503573D01*
X117981015Y111503573D02*
X117981015Y111698811D01*
X117981015Y111698811D02*
X117941967Y111855001D01*
X117941967Y111855001D02*
X117902920Y111933097D01*
X117902920Y111933097D02*
X117863872Y111972144D01*
X117863872Y111972144D02*
X117785777Y112011192D01*
D10*
X117135333Y86375991D02*
X117468666Y86375991D01*
X117468666Y85852181D02*
X117468666Y86852181D01*
X117468666Y86852181D02*
X116992476Y86852181D01*
X116182952Y86518848D02*
X116182952Y85852181D01*
X116421047Y86899800D02*
X116659142Y86185515D01*
X116659142Y86185515D02*
X116040095Y86185515D01*
X123485357Y115974181D02*
X123818690Y116450372D01*
X124056785Y115974181D02*
X124056785Y116974181D01*
X124056785Y116974181D02*
X123675833Y116974181D01*
X123675833Y116974181D02*
X123580595Y116926562D01*
X123580595Y116926562D02*
X123532976Y116878943D01*
X123532976Y116878943D02*
X123485357Y116783705D01*
X123485357Y116783705D02*
X123485357Y116640848D01*
X123485357Y116640848D02*
X123532976Y116545610D01*
X123532976Y116545610D02*
X123580595Y116497991D01*
X123580595Y116497991D02*
X123675833Y116450372D01*
X123675833Y116450372D02*
X124056785Y116450372D01*
X122532976Y115974181D02*
X123104404Y115974181D01*
X122818690Y115974181D02*
X122818690Y116974181D01*
X122818690Y116974181D02*
X122913928Y116831324D01*
X122913928Y116831324D02*
X123009166Y116736086D01*
X123009166Y116736086D02*
X123104404Y116688467D01*
X121580595Y115974181D02*
X122152023Y115974181D01*
X121866309Y115974181D02*
X121866309Y116974181D01*
X121866309Y116974181D02*
X121961547Y116831324D01*
X121961547Y116831324D02*
X122056785Y116736086D01*
X122056785Y116736086D02*
X122152023Y116688467D01*
G04 #@! TO.C,M4*
D12*
X93214000Y83311000D02*
X65714000Y83311000D01*
X65714000Y69411000D01*
X93214000Y69411000D01*
X93214000Y83311000D01*
G04 #@! TO.C,M2*
X24146000Y62777994D02*
X64946003Y62777994D01*
X24146000Y22877995D02*
X24146000Y62777994D01*
X24146000Y22877995D02*
X66246000Y22877995D01*
X64946003Y62777994D02*
X66246003Y62777994D01*
X66246000Y22877995D02*
X66246003Y62777994D01*
G04 #@! TO.C,M1*
X72655500Y34568000D02*
X72655500Y28168000D01*
X72655500Y24968000D02*
X72655500Y26268000D01*
X72655500Y24968000D02*
X87655500Y24968000D01*
X87055500Y34568000D02*
X72655500Y34568000D01*
X87655500Y24968000D02*
X87655500Y30068000D01*
G04 #@! TO.C,M6*
X39290000Y93797996D02*
X39290000Y78397996D01*
X39290000Y93797996D02*
X39590000Y93797996D01*
X40740000Y76997999D02*
X42290000Y76997994D01*
X41190000Y93797996D02*
X51590002Y93797996D01*
X44290002Y76997999D02*
X45390005Y76997999D01*
X46990000Y76997999D02*
X49690000Y76997999D01*
X53190002Y76997999D02*
X57990002Y76997999D01*
X53290000Y93797996D02*
X56490003Y93797996D01*
X59590002Y76997997D02*
X59890000Y76997997D01*
X59889998Y92297996D02*
X59890000Y76997997D01*
G04 #@! TO.C,M5*
X66342000Y18441500D02*
X66342000Y12041500D01*
X66342000Y8841500D02*
X66342000Y10141500D01*
X66342000Y8841500D02*
X81342000Y8841500D01*
X80742000Y18441500D02*
X66342000Y18441500D01*
X81342000Y8841500D02*
X81342000Y13941500D01*
G04 #@! TO.C,M3*
X66342000Y7391500D02*
X75442000Y7391500D01*
X66342000Y4291497D02*
X66342000Y5291499D01*
X66342000Y4291497D02*
X75442000Y4291497D01*
D13*
G04 #@! TO.C,F2*
X116292000Y109238279D02*
X116292000Y108912721D01*
X117312000Y109238279D02*
X117312000Y108912721D01*
D14*
G04 #@! TO.C,R13*
X117951015Y98888000D02*
X117951005Y99288000D01*
X118696851Y98889057D02*
X118696840Y99289056D01*
G04 #@! TO.C,R14*
X117951015Y88888000D02*
X117951005Y89288000D01*
X118696851Y88889057D02*
X118696840Y89289056D01*
G04 #@! TO.C,R9*
X117951015Y118888000D02*
X117951005Y119288000D01*
X118696851Y118889057D02*
X118696840Y119289056D01*
D13*
G04 #@! TO.C,F3*
X116292000Y99238279D02*
X116292000Y98912721D01*
X117312000Y99238279D02*
X117312000Y98912721D01*
G04 #@! TO.C,F1*
X116292000Y119238279D02*
X116292000Y118912721D01*
X117312000Y119238279D02*
X117312000Y118912721D01*
G04 #@! TO.C,R15*
X125019564Y100759000D02*
X120665436Y100759000D01*
X125019564Y97339000D02*
X120665436Y97339000D01*
G04 #@! TO.C,R12*
X125019564Y110759000D02*
X120665436Y110759000D01*
X125019564Y107339000D02*
X120665436Y107339000D01*
G04 #@! TO.C,R16*
X125019564Y90759000D02*
X120665436Y90759000D01*
X125019564Y87339000D02*
X120665436Y87339000D01*
D14*
G04 #@! TO.C,R10*
X117951015Y108888000D02*
X117951005Y109288000D01*
X118696851Y108889057D02*
X118696840Y109289056D01*
D13*
G04 #@! TO.C,F4*
X116292000Y89238279D02*
X116292000Y88912721D01*
X117312000Y89238279D02*
X117312000Y88912721D01*
G04 #@! TO.C,R11*
X125019564Y120759000D02*
X120665436Y120759000D01*
X125019564Y117339000D02*
X120665436Y117339000D01*
G04 #@! TD*
M02*
