G04 #@! TF.GenerationSoftware,KiCad,Pcbnew,8.0.9-8.0.9-0~ubuntu24.04.1*
G04 #@! TF.CreationDate,2025-06-27T12:52:10+00:00*
G04 #@! TF.ProjectId,EP91Starlet,45503931-5374-4617-926c-65742e6b6963,rev?*
G04 #@! TF.SameCoordinates,Original*
G04 #@! TF.FileFunction,Paste,Top*
G04 #@! TF.FilePolarity,Positive*
%FSLAX46Y46*%
G04 Gerber Fmt 4.6, Leading zero omitted, Abs format (unit mm)*
G04 Created by KiCad (PCBNEW 8.0.9-8.0.9-0~ubuntu24.04.1) date 2025-06-27 12:52:10*
%MOMM*%
%LPD*%
G01*
G04 APERTURE LIST*
G04 APERTURE END LIST*
G04 #@! TO.C,R1*
G36*
G01*
X38745000Y50060000D02*
X37965000Y50060000D01*
G75*
G02*
X37895000Y50130000I0J70000D01*
G01*
X37895000Y50690000D01*
G75*
G02*
X37965000Y50760000I70000J0D01*
G01*
X38745000Y50760000D01*
G75*
G02*
X38815000Y50690000I0J-70000D01*
G01*
X38815000Y50130000D01*
G75*
G02*
X38745000Y50060000I-70000J0D01*
G01*
G37*
G36*
G01*
X38745000Y51660000D02*
X37965000Y51660000D01*
G75*
G02*
X37895000Y51730000I0J70000D01*
G01*
X37895000Y52290000D01*
G75*
G02*
X37965000Y52360000I70000J0D01*
G01*
X38745000Y52360000D01*
G75*
G02*
X38815000Y52290000I0J-70000D01*
G01*
X38815000Y51730000D01*
G75*
G02*
X38745000Y51660000I-70000J0D01*
G01*
G37*
G04 #@! TD*
G04 #@! TO.C,Q2*
G36*
G01*
X61315000Y57300000D02*
X60615000Y57300000D01*
G75*
G02*
X60365000Y57550000I0J250000D01*
G01*
X60365000Y59250000D01*
G75*
G02*
X60615000Y59500000I250000J0D01*
G01*
X61315000Y59500000D01*
G75*
G02*
X61565000Y59250000I0J-250000D01*
G01*
X61565000Y57550000D01*
G75*
G02*
X61315000Y57300000I-250000J0D01*
G01*
G37*
G36*
G01*
X62845000Y61500000D02*
X60595000Y61500000D01*
G75*
G02*
X60345000Y61750000I0J250000D01*
G01*
X60345000Y64300000D01*
G75*
G02*
X60595000Y64550000I250000J0D01*
G01*
X62845000Y64550000D01*
G75*
G02*
X63095000Y64300000I0J-250000D01*
G01*
X63095000Y61750000D01*
G75*
G02*
X62845000Y61500000I-250000J0D01*
G01*
G37*
G36*
G01*
X65895000Y61500000D02*
X63645000Y61500000D01*
G75*
G02*
X63395000Y61750000I0J250000D01*
G01*
X63395000Y64300000D01*
G75*
G02*
X63645000Y64550000I250000J0D01*
G01*
X65895000Y64550000D01*
G75*
G02*
X66145000Y64300000I0J-250000D01*
G01*
X66145000Y61750000D01*
G75*
G02*
X65895000Y61500000I-250000J0D01*
G01*
G37*
G36*
G01*
X62845000Y64850000D02*
X60595000Y64850000D01*
G75*
G02*
X60345000Y65100000I0J250000D01*
G01*
X60345000Y67650000D01*
G75*
G02*
X60595000Y67900000I250000J0D01*
G01*
X62845000Y67900000D01*
G75*
G02*
X63095000Y67650000I0J-250000D01*
G01*
X63095000Y65100000D01*
G75*
G02*
X62845000Y64850000I-250000J0D01*
G01*
G37*
G36*
G01*
X65895000Y64850000D02*
X63645000Y64850000D01*
G75*
G02*
X63395000Y65100000I0J250000D01*
G01*
X63395000Y67650000D01*
G75*
G02*
X63645000Y67900000I250000J0D01*
G01*
X65895000Y67900000D01*
G75*
G02*
X66145000Y67650000I0J-250000D01*
G01*
X66145000Y65100000D01*
G75*
G02*
X65895000Y64850000I-250000J0D01*
G01*
G37*
G36*
G01*
X65875000Y57300000D02*
X65175000Y57300000D01*
G75*
G02*
X64925000Y57550000I0J250000D01*
G01*
X64925000Y59250000D01*
G75*
G02*
X65175000Y59500000I250000J0D01*
G01*
X65875000Y59500000D01*
G75*
G02*
X66125000Y59250000I0J-250000D01*
G01*
X66125000Y57550000D01*
G75*
G02*
X65875000Y57300000I-250000J0D01*
G01*
G37*
G04 #@! TD*
G04 #@! TO.C,Q1*
G36*
G01*
X51315000Y57300000D02*
X50615000Y57300000D01*
G75*
G02*
X50365000Y57550000I0J250000D01*
G01*
X50365000Y59250000D01*
G75*
G02*
X50615000Y59500000I250000J0D01*
G01*
X51315000Y59500000D01*
G75*
G02*
X51565000Y59250000I0J-250000D01*
G01*
X51565000Y57550000D01*
G75*
G02*
X51315000Y57300000I-250000J0D01*
G01*
G37*
G36*
G01*
X52845000Y61500000D02*
X50595000Y61500000D01*
G75*
G02*
X50345000Y61750000I0J250000D01*
G01*
X50345000Y64300000D01*
G75*
G02*
X50595000Y64550000I250000J0D01*
G01*
X52845000Y64550000D01*
G75*
G02*
X53095000Y64300000I0J-250000D01*
G01*
X53095000Y61750000D01*
G75*
G02*
X52845000Y61500000I-250000J0D01*
G01*
G37*
G36*
G01*
X55895000Y61500000D02*
X53645000Y61500000D01*
G75*
G02*
X53395000Y61750000I0J250000D01*
G01*
X53395000Y64300000D01*
G75*
G02*
X53645000Y64550000I250000J0D01*
G01*
X55895000Y64550000D01*
G75*
G02*
X56145000Y64300000I0J-250000D01*
G01*
X56145000Y61750000D01*
G75*
G02*
X55895000Y61500000I-250000J0D01*
G01*
G37*
G36*
G01*
X52845000Y64850000D02*
X50595000Y64850000D01*
G75*
G02*
X50345000Y65100000I0J250000D01*
G01*
X50345000Y67650000D01*
G75*
G02*
X50595000Y67900000I250000J0D01*
G01*
X52845000Y67900000D01*
G75*
G02*
X53095000Y67650000I0J-250000D01*
G01*
X53095000Y65100000D01*
G75*
G02*
X52845000Y64850000I-250000J0D01*
G01*
G37*
G36*
G01*
X55895000Y64850000D02*
X53645000Y64850000D01*
G75*
G02*
X53395000Y65100000I0J250000D01*
G01*
X53395000Y67650000D01*
G75*
G02*
X53645000Y67900000I250000J0D01*
G01*
X55895000Y67900000D01*
G75*
G02*
X56145000Y67650000I0J-250000D01*
G01*
X56145000Y65100000D01*
G75*
G02*
X55895000Y64850000I-250000J0D01*
G01*
G37*
G36*
G01*
X55875000Y57300000D02*
X55175000Y57300000D01*
G75*
G02*
X54925000Y57550000I0J250000D01*
G01*
X54925000Y59250000D01*
G75*
G02*
X55175000Y59500000I250000J0D01*
G01*
X55875000Y59500000D01*
G75*
G02*
X56125000Y59250000I0J-250000D01*
G01*
X56125000Y57550000D01*
G75*
G02*
X55875000Y57300000I-250000J0D01*
G01*
G37*
G04 #@! TD*
G04 #@! TO.C,R2*
G36*
G01*
X46745000Y50060000D02*
X45965000Y50060000D01*
G75*
G02*
X45895000Y50130000I0J70000D01*
G01*
X45895000Y50690000D01*
G75*
G02*
X45965000Y50760000I70000J0D01*
G01*
X46745000Y50760000D01*
G75*
G02*
X46815000Y50690000I0J-70000D01*
G01*
X46815000Y50130000D01*
G75*
G02*
X46745000Y50060000I-70000J0D01*
G01*
G37*
G36*
G01*
X46745000Y51660000D02*
X45965000Y51660000D01*
G75*
G02*
X45895000Y51730000I0J70000D01*
G01*
X45895000Y52290000D01*
G75*
G02*
X45965000Y52360000I70000J0D01*
G01*
X46745000Y52360000D01*
G75*
G02*
X46815000Y52290000I0J-70000D01*
G01*
X46815000Y51730000D01*
G75*
G02*
X46745000Y51660000I-70000J0D01*
G01*
G37*
G04 #@! TD*
G04 #@! TO.C,U3*
G36*
G01*
X43965000Y53067000D02*
X43665000Y53067000D01*
G75*
G02*
X43515000Y53217000I0J150000D01*
G01*
X43515000Y54867000D01*
G75*
G02*
X43665000Y55017000I150000J0D01*
G01*
X43965000Y55017000D01*
G75*
G02*
X44115000Y54867000I0J-150000D01*
G01*
X44115000Y53217000D01*
G75*
G02*
X43965000Y53067000I-150000J0D01*
G01*
G37*
G36*
G01*
X45235000Y53067000D02*
X44935000Y53067000D01*
G75*
G02*
X44785000Y53217000I0J150000D01*
G01*
X44785000Y54867000D01*
G75*
G02*
X44935000Y55017000I150000J0D01*
G01*
X45235000Y55017000D01*
G75*
G02*
X45385000Y54867000I0J-150000D01*
G01*
X45385000Y53217000D01*
G75*
G02*
X45235000Y53067000I-150000J0D01*
G01*
G37*
G36*
G01*
X46505000Y53067000D02*
X46205000Y53067000D01*
G75*
G02*
X46055000Y53217000I0J150000D01*
G01*
X46055000Y54867000D01*
G75*
G02*
X46205000Y55017000I150000J0D01*
G01*
X46505000Y55017000D01*
G75*
G02*
X46655000Y54867000I0J-150000D01*
G01*
X46655000Y53217000D01*
G75*
G02*
X46505000Y53067000I-150000J0D01*
G01*
G37*
G36*
G01*
X47775000Y53067000D02*
X47475000Y53067000D01*
G75*
G02*
X47325000Y53217000I0J150000D01*
G01*
X47325000Y54867000D01*
G75*
G02*
X47475000Y55017000I150000J0D01*
G01*
X47775000Y55017000D01*
G75*
G02*
X47925000Y54867000I0J-150000D01*
G01*
X47925000Y53217000D01*
G75*
G02*
X47775000Y53067000I-150000J0D01*
G01*
G37*
G36*
G01*
X47775000Y58017000D02*
X47475000Y58017000D01*
G75*
G02*
X47325000Y58167000I0J150000D01*
G01*
X47325000Y59817000D01*
G75*
G02*
X47475000Y59967000I150000J0D01*
G01*
X47775000Y59967000D01*
G75*
G02*
X47925000Y59817000I0J-150000D01*
G01*
X47925000Y58167000D01*
G75*
G02*
X47775000Y58017000I-150000J0D01*
G01*
G37*
G36*
G01*
X46505000Y58017000D02*
X46205000Y58017000D01*
G75*
G02*
X46055000Y58167000I0J150000D01*
G01*
X46055000Y59817000D01*
G75*
G02*
X46205000Y59967000I150000J0D01*
G01*
X46505000Y59967000D01*
G75*
G02*
X46655000Y59817000I0J-150000D01*
G01*
X46655000Y58167000D01*
G75*
G02*
X46505000Y58017000I-150000J0D01*
G01*
G37*
G36*
G01*
X45235000Y58017000D02*
X44935000Y58017000D01*
G75*
G02*
X44785000Y58167000I0J150000D01*
G01*
X44785000Y59817000D01*
G75*
G02*
X44935000Y59967000I150000J0D01*
G01*
X45235000Y59967000D01*
G75*
G02*
X45385000Y59817000I0J-150000D01*
G01*
X45385000Y58167000D01*
G75*
G02*
X45235000Y58017000I-150000J0D01*
G01*
G37*
G36*
G01*
X43965000Y58017000D02*
X43665000Y58017000D01*
G75*
G02*
X43515000Y58167000I0J150000D01*
G01*
X43515000Y59817000D01*
G75*
G02*
X43665000Y59967000I150000J0D01*
G01*
X43965000Y59967000D01*
G75*
G02*
X44115000Y59817000I0J-150000D01*
G01*
X44115000Y58167000D01*
G75*
G02*
X43965000Y58017000I-150000J0D01*
G01*
G37*
G04 #@! TD*
G04 #@! TO.C,Q3*
G36*
G01*
X71315000Y57300000D02*
X70615000Y57300000D01*
G75*
G02*
X70365000Y57550000I0J250000D01*
G01*
X70365000Y59250000D01*
G75*
G02*
X70615000Y59500000I250000J0D01*
G01*
X71315000Y59500000D01*
G75*
G02*
X71565000Y59250000I0J-250000D01*
G01*
X71565000Y57550000D01*
G75*
G02*
X71315000Y57300000I-250000J0D01*
G01*
G37*
G36*
G01*
X72845000Y61500000D02*
X70595000Y61500000D01*
G75*
G02*
X70345000Y61750000I0J250000D01*
G01*
X70345000Y64300000D01*
G75*
G02*
X70595000Y64550000I250000J0D01*
G01*
X72845000Y64550000D01*
G75*
G02*
X73095000Y64300000I0J-250000D01*
G01*
X73095000Y61750000D01*
G75*
G02*
X72845000Y61500000I-250000J0D01*
G01*
G37*
G36*
G01*
X75895000Y61500000D02*
X73645000Y61500000D01*
G75*
G02*
X73395000Y61750000I0J250000D01*
G01*
X73395000Y64300000D01*
G75*
G02*
X73645000Y64550000I250000J0D01*
G01*
X75895000Y64550000D01*
G75*
G02*
X76145000Y64300000I0J-250000D01*
G01*
X76145000Y61750000D01*
G75*
G02*
X75895000Y61500000I-250000J0D01*
G01*
G37*
G36*
G01*
X72845000Y64850000D02*
X70595000Y64850000D01*
G75*
G02*
X70345000Y65100000I0J250000D01*
G01*
X70345000Y67650000D01*
G75*
G02*
X70595000Y67900000I250000J0D01*
G01*
X72845000Y67900000D01*
G75*
G02*
X73095000Y67650000I0J-250000D01*
G01*
X73095000Y65100000D01*
G75*
G02*
X72845000Y64850000I-250000J0D01*
G01*
G37*
G36*
G01*
X75895000Y64850000D02*
X73645000Y64850000D01*
G75*
G02*
X73395000Y65100000I0J250000D01*
G01*
X73395000Y67650000D01*
G75*
G02*
X73645000Y67900000I250000J0D01*
G01*
X75895000Y67900000D01*
G75*
G02*
X76145000Y67650000I0J-250000D01*
G01*
X76145000Y65100000D01*
G75*
G02*
X75895000Y64850000I-250000J0D01*
G01*
G37*
G36*
G01*
X75875000Y57300000D02*
X75175000Y57300000D01*
G75*
G02*
X74925000Y57550000I0J250000D01*
G01*
X74925000Y59250000D01*
G75*
G02*
X75175000Y59500000I250000J0D01*
G01*
X75875000Y59500000D01*
G75*
G02*
X76125000Y59250000I0J-250000D01*
G01*
X76125000Y57550000D01*
G75*
G02*
X75875000Y57300000I-250000J0D01*
G01*
G37*
G04 #@! TD*
G04 #@! TO.C,U2*
G36*
G01*
X35965000Y53067000D02*
X35665000Y53067000D01*
G75*
G02*
X35515000Y53217000I0J150000D01*
G01*
X35515000Y54867000D01*
G75*
G02*
X35665000Y55017000I150000J0D01*
G01*
X35965000Y55017000D01*
G75*
G02*
X36115000Y54867000I0J-150000D01*
G01*
X36115000Y53217000D01*
G75*
G02*
X35965000Y53067000I-150000J0D01*
G01*
G37*
G36*
G01*
X37235000Y53067000D02*
X36935000Y53067000D01*
G75*
G02*
X36785000Y53217000I0J150000D01*
G01*
X36785000Y54867000D01*
G75*
G02*
X36935000Y55017000I150000J0D01*
G01*
X37235000Y55017000D01*
G75*
G02*
X37385000Y54867000I0J-150000D01*
G01*
X37385000Y53217000D01*
G75*
G02*
X37235000Y53067000I-150000J0D01*
G01*
G37*
G36*
G01*
X38505000Y53067000D02*
X38205000Y53067000D01*
G75*
G02*
X38055000Y53217000I0J150000D01*
G01*
X38055000Y54867000D01*
G75*
G02*
X38205000Y55017000I150000J0D01*
G01*
X38505000Y55017000D01*
G75*
G02*
X38655000Y54867000I0J-150000D01*
G01*
X38655000Y53217000D01*
G75*
G02*
X38505000Y53067000I-150000J0D01*
G01*
G37*
G36*
G01*
X39775000Y53067000D02*
X39475000Y53067000D01*
G75*
G02*
X39325000Y53217000I0J150000D01*
G01*
X39325000Y54867000D01*
G75*
G02*
X39475000Y55017000I150000J0D01*
G01*
X39775000Y55017000D01*
G75*
G02*
X39925000Y54867000I0J-150000D01*
G01*
X39925000Y53217000D01*
G75*
G02*
X39775000Y53067000I-150000J0D01*
G01*
G37*
G36*
G01*
X39775000Y58017000D02*
X39475000Y58017000D01*
G75*
G02*
X39325000Y58167000I0J150000D01*
G01*
X39325000Y59817000D01*
G75*
G02*
X39475000Y59967000I150000J0D01*
G01*
X39775000Y59967000D01*
G75*
G02*
X39925000Y59817000I0J-150000D01*
G01*
X39925000Y58167000D01*
G75*
G02*
X39775000Y58017000I-150000J0D01*
G01*
G37*
G36*
G01*
X38505000Y58017000D02*
X38205000Y58017000D01*
G75*
G02*
X38055000Y58167000I0J150000D01*
G01*
X38055000Y59817000D01*
G75*
G02*
X38205000Y59967000I150000J0D01*
G01*
X38505000Y59967000D01*
G75*
G02*
X38655000Y59817000I0J-150000D01*
G01*
X38655000Y58167000D01*
G75*
G02*
X38505000Y58017000I-150000J0D01*
G01*
G37*
G36*
G01*
X37235000Y58017000D02*
X36935000Y58017000D01*
G75*
G02*
X36785000Y58167000I0J150000D01*
G01*
X36785000Y59817000D01*
G75*
G02*
X36935000Y59967000I150000J0D01*
G01*
X37235000Y59967000D01*
G75*
G02*
X37385000Y59817000I0J-150000D01*
G01*
X37385000Y58167000D01*
G75*
G02*
X37235000Y58017000I-150000J0D01*
G01*
G37*
G36*
G01*
X35965000Y58017000D02*
X35665000Y58017000D01*
G75*
G02*
X35515000Y58167000I0J150000D01*
G01*
X35515000Y59817000D01*
G75*
G02*
X35665000Y59967000I150000J0D01*
G01*
X35965000Y59967000D01*
G75*
G02*
X36115000Y59817000I0J-150000D01*
G01*
X36115000Y58167000D01*
G75*
G02*
X35965000Y58017000I-150000J0D01*
G01*
G37*
G04 #@! TD*
G04 #@! TO.C,R3*
G36*
G01*
X36205000Y50060000D02*
X35425000Y50060000D01*
G75*
G02*
X35355000Y50130000I0J70000D01*
G01*
X35355000Y50690000D01*
G75*
G02*
X35425000Y50760000I70000J0D01*
G01*
X36205000Y50760000D01*
G75*
G02*
X36275000Y50690000I0J-70000D01*
G01*
X36275000Y50130000D01*
G75*
G02*
X36205000Y50060000I-70000J0D01*
G01*
G37*
G36*
G01*
X36205000Y51660000D02*
X35425000Y51660000D01*
G75*
G02*
X35355000Y51730000I0J70000D01*
G01*
X35355000Y52290000D01*
G75*
G02*
X35425000Y52360000I70000J0D01*
G01*
X36205000Y52360000D01*
G75*
G02*
X36275000Y52290000I0J-70000D01*
G01*
X36275000Y51730000D01*
G75*
G02*
X36205000Y51660000I-70000J0D01*
G01*
G37*
G04 #@! TD*
G04 #@! TO.C,R4*
G36*
G01*
X44205000Y50060000D02*
X43425000Y50060000D01*
G75*
G02*
X43355000Y50130000I0J70000D01*
G01*
X43355000Y50690000D01*
G75*
G02*
X43425000Y50760000I70000J0D01*
G01*
X44205000Y50760000D01*
G75*
G02*
X44275000Y50690000I0J-70000D01*
G01*
X44275000Y50130000D01*
G75*
G02*
X44205000Y50060000I-70000J0D01*
G01*
G37*
G36*
G01*
X44205000Y51660000D02*
X43425000Y51660000D01*
G75*
G02*
X43355000Y51730000I0J70000D01*
G01*
X43355000Y52290000D01*
G75*
G02*
X43425000Y52360000I70000J0D01*
G01*
X44205000Y52360000D01*
G75*
G02*
X44275000Y52290000I0J-70000D01*
G01*
X44275000Y51730000D01*
G75*
G02*
X44205000Y51660000I-70000J0D01*
G01*
G37*
G04 #@! TD*
G04 #@! TO.C,Q4*
G36*
G01*
X81315000Y57300000D02*
X80615000Y57300000D01*
G75*
G02*
X80365000Y57550000I0J250000D01*
G01*
X80365000Y59250000D01*
G75*
G02*
X80615000Y59500000I250000J0D01*
G01*
X81315000Y59500000D01*
G75*
G02*
X81565000Y59250000I0J-250000D01*
G01*
X81565000Y57550000D01*
G75*
G02*
X81315000Y57300000I-250000J0D01*
G01*
G37*
G36*
G01*
X82845000Y61500000D02*
X80595000Y61500000D01*
G75*
G02*
X80345000Y61750000I0J250000D01*
G01*
X80345000Y64300000D01*
G75*
G02*
X80595000Y64550000I250000J0D01*
G01*
X82845000Y64550000D01*
G75*
G02*
X83095000Y64300000I0J-250000D01*
G01*
X83095000Y61750000D01*
G75*
G02*
X82845000Y61500000I-250000J0D01*
G01*
G37*
G36*
G01*
X85895000Y61500000D02*
X83645000Y61500000D01*
G75*
G02*
X83395000Y61750000I0J250000D01*
G01*
X83395000Y64300000D01*
G75*
G02*
X83645000Y64550000I250000J0D01*
G01*
X85895000Y64550000D01*
G75*
G02*
X86145000Y64300000I0J-250000D01*
G01*
X86145000Y61750000D01*
G75*
G02*
X85895000Y61500000I-250000J0D01*
G01*
G37*
G36*
G01*
X82845000Y64850000D02*
X80595000Y64850000D01*
G75*
G02*
X80345000Y65100000I0J250000D01*
G01*
X80345000Y67650000D01*
G75*
G02*
X80595000Y67900000I250000J0D01*
G01*
X82845000Y67900000D01*
G75*
G02*
X83095000Y67650000I0J-250000D01*
G01*
X83095000Y65100000D01*
G75*
G02*
X82845000Y64850000I-250000J0D01*
G01*
G37*
G36*
G01*
X85895000Y64850000D02*
X83645000Y64850000D01*
G75*
G02*
X83395000Y65100000I0J250000D01*
G01*
X83395000Y67650000D01*
G75*
G02*
X83645000Y67900000I250000J0D01*
G01*
X85895000Y67900000D01*
G75*
G02*
X86145000Y67650000I0J-250000D01*
G01*
X86145000Y65100000D01*
G75*
G02*
X85895000Y64850000I-250000J0D01*
G01*
G37*
G36*
G01*
X85875000Y57300000D02*
X85175000Y57300000D01*
G75*
G02*
X84925000Y57550000I0J250000D01*
G01*
X84925000Y59250000D01*
G75*
G02*
X85175000Y59500000I250000J0D01*
G01*
X85875000Y59500000D01*
G75*
G02*
X86125000Y59250000I0J-250000D01*
G01*
X86125000Y57550000D01*
G75*
G02*
X85875000Y57300000I-250000J0D01*
G01*
G37*
G04 #@! TD*
M02*
