G04 #@! TF.GenerationSoftware,KiCad,Pcbnew,8.0.9-8.0.9-0~ubuntu24.04.1*
G04 #@! TF.CreationDate,2025-06-27T12:37:52+00:00*
G04 #@! TF.ProjectId,EP91Starlet,45503931-5374-4617-926c-65742e6b6963,rev?*
G04 #@! TF.SameCoordinates,Original*
G04 #@! TF.FileFunction,Copper,L2,Inr*
G04 #@! TF.FilePolarity,Positive*
%FSLAX46Y46*%
G04 Gerber Fmt 4.6, Leading zero omitted, Abs format (unit mm)*
G04 Created by KiCad (PCBNEW 8.0.9-8.0.9-0~ubuntu24.04.1) date 2025-06-27 12:37:52*
%MOMM*%
%LPD*%
G01*
G04 APERTURE LIST*
G04 #@! TA.AperFunction,ComponentPad*
%ADD10C,0.700000*%
G04 #@! TD*
G04 #@! TA.AperFunction,Conductor*
%ADD11R,1.100000X0.250000*%
G04 #@! TD*
G04 #@! TA.AperFunction,Conductor*
%ADD12R,0.980000X0.250000*%
G04 #@! TD*
G04 #@! TA.AperFunction,Conductor*
%ADD13R,6.300000X0.250000*%
G04 #@! TD*
G04 #@! TA.AperFunction,Conductor*
%ADD14R,0.250000X27.600000*%
G04 #@! TD*
G04 #@! TA.AperFunction,Conductor*
%ADD15R,8.750000X0.250000*%
G04 #@! TD*
G04 #@! TA.AperFunction,Conductor*
%ADD16R,0.950000X0.250000*%
G04 #@! TD*
G04 #@! TA.AperFunction,ComponentPad*
%ADD17C,0.600000*%
G04 #@! TD*
G04 #@! TA.AperFunction,Conductor*
%ADD18R,0.200000X2.300000*%
G04 #@! TD*
G04 #@! TA.AperFunction,Conductor*
%ADD19R,0.200000X5.400000*%
G04 #@! TD*
G04 #@! TA.AperFunction,Conductor*
%ADD20R,0.200000X8.600000*%
G04 #@! TD*
G04 #@! TA.AperFunction,Conductor*
%ADD21R,0.200000X5.000000*%
G04 #@! TD*
G04 #@! TA.AperFunction,Conductor*
%ADD22R,1.400000X0.200000*%
G04 #@! TD*
G04 #@! TA.AperFunction,Conductor*
%ADD23R,5.000000X0.200000*%
G04 #@! TD*
G04 #@! TA.AperFunction,Conductor*
%ADD24R,6.800000X0.200000*%
G04 #@! TD*
G04 #@! TA.AperFunction,Conductor*
%ADD25R,4.500000X0.200000*%
G04 #@! TD*
G04 #@! TA.AperFunction,Conductor*
%ADD26R,0.200000X1.600000*%
G04 #@! TD*
G04 #@! TA.AperFunction,Conductor*
%ADD27R,0.200000X5.700000*%
G04 #@! TD*
G04 #@! TA.AperFunction,Conductor*
%ADD28R,0.200000X2.000000*%
G04 #@! TD*
G04 #@! TA.AperFunction,ComponentPad*
%ADD29O,2.700000X3.700000*%
G04 #@! TD*
G04 #@! TA.AperFunction,Conductor*
%ADD30R,6.185000X0.250000*%
G04 #@! TD*
G04 #@! TA.AperFunction,Conductor*
%ADD31R,1.115000X0.250000*%
G04 #@! TD*
G04 #@! TA.AperFunction,Conductor*
%ADD32R,0.250000X14.275000*%
G04 #@! TD*
G04 #@! TA.AperFunction,Conductor*
%ADD33R,0.250000X15.100000*%
G04 #@! TD*
G04 #@! TA.AperFunction,Conductor*
%ADD34R,5.175000X0.250000*%
G04 #@! TD*
G04 #@! TA.AperFunction,ComponentPad*
%ADD35C,1.500000*%
G04 #@! TD*
G04 #@! TA.AperFunction,Conductor*
%ADD36O,3.300000X0.200000*%
G04 #@! TD*
G04 #@! TA.AperFunction,Conductor*
%ADD37O,10.200000X0.200000*%
G04 #@! TD*
G04 #@! TA.AperFunction,Conductor*
%ADD38O,0.300000X0.200000*%
G04 #@! TD*
G04 #@! TA.AperFunction,Conductor*
%ADD39O,0.200000X17.000000*%
G04 #@! TD*
G04 #@! TA.AperFunction,Conductor*
%ADD40O,0.200000X15.400000*%
G04 #@! TD*
G04 #@! TA.AperFunction,Conductor*
%ADD41O,4.800000X0.200000*%
G04 #@! TD*
G04 #@! TA.AperFunction,Conductor*
%ADD42O,2.600000X0.200000*%
G04 #@! TD*
G04 #@! TA.AperFunction,Conductor*
%ADD43O,1.000000X0.200000*%
G04 #@! TD*
G04 #@! TA.AperFunction,Conductor*
%ADD44O,1.500000X0.200000*%
G04 #@! TD*
G04 #@! TA.AperFunction,ComponentPad*
%ADD45O,1.800000X2.000000*%
G04 #@! TD*
G04 #@! TA.AperFunction,ComponentPad*
%ADD46O,3.700000X2.700000*%
G04 #@! TD*
G04 #@! TA.AperFunction,Conductor*
%ADD47O,0.200000X1.225000*%
G04 #@! TD*
G04 #@! TA.AperFunction,Conductor*
%ADD48O,9.300000X0.200000*%
G04 #@! TD*
G04 #@! TA.AperFunction,ViaPad*
%ADD49C,0.600000*%
G04 #@! TD*
G04 APERTURE END LIST*
D10*
G04 #@! TO.N,Net-(J2-Pin_4)*
G04 #@! TO.C,M4*
X9868000Y78664000D03*
G04 #@! TO.N,Net-(J2-Pin_6)*
X6868000Y78664000D03*
G04 #@! TO.N,Net-(J2-Pin_3)*
X7868000Y78664000D03*
G04 #@! TO.N,Net-(J2-Pin_1)*
X8868000Y78664000D03*
D11*
G04 #@! TO.N,GND*
X-1982000Y51689000D03*
X-1982000Y51689000D03*
D12*
X2358000Y51689000D03*
D13*
X8318000Y51689000D03*
D14*
X-2407000Y65364000D03*
X11343000Y65364000D03*
D15*
X1843000Y79039000D03*
D16*
X10993000Y79039000D03*
D10*
G04 #@! TO.N,+5VA*
X218000Y52072800D03*
G04 #@! TO.N,unconnected-(M4-CAN_VIO-PadW2)*
X1218000Y52072800D03*
G04 #@! TO.N,/CAN-*
X4514000Y52072800D03*
G04 #@! TO.N,/CAN+*
X3498000Y52072800D03*
G04 #@! TO.N,unconnected-(M4-VDDA-PadW9)*
X-782000Y52072800D03*
G04 #@! TD*
D17*
G04 #@! TO.N,unconnected-(M2-SPI2_SCK{slash}CAN2_TX-PadE1)*
G04 #@! TO.C,M2*
X61657998Y51400001D03*
G04 #@! TO.N,unconnected-(M2-SPI2_MISO-PadE2)*
X61657998Y50600000D03*
G04 #@! TO.N,unconnected-(M2-SPI2_MOSI-PadE3)*
X61657998Y49800002D03*
G04 #@! TO.N,unconnected-(M2-SPI2_CS{slash}CAN2_RX-PadE4)*
X61657998Y49000001D03*
G04 #@! TO.N,unconnected-(M2-OUT_IO3-PadE6)*
X61657998Y48200000D03*
G04 #@! TO.N,unconnected-(M2-OUT_IO5-PadE7)*
X61657995Y47400002D03*
G04 #@! TO.N,unconnected-(M2-OUT_IO1-PadE8)*
X61657995Y46600001D03*
G04 #@! TO.N,unconnected-(M2-OUT_IO6-PadE9)*
X61657998Y45799997D03*
G04 #@! TO.N,unconnected-(M2-OUT_IO10-PadE10)*
X61657998Y45000001D03*
G04 #@! TO.N,unconnected-(M2-OUT_IO9-PadE11)*
X61657998Y44200001D03*
G04 #@! TO.N,unconnected-(M2-OUT_IO2-PadE12)*
X61657998Y43400000D03*
G04 #@! TO.N,unconnected-(M2-OUT_IO12-PadE13)*
X61657995Y42600001D03*
G04 #@! TO.N,unconnected-(M2-OUT_PWM5-PadE14)*
X61657995Y41800000D03*
G04 #@! TO.N,unconnected-(M2-OUT_PWM4-PadE15)*
X61657995Y40999999D03*
G04 #@! TO.N,unconnected-(M2-OUT_PWM3-PadE16)*
X61657998Y40200001D03*
G04 #@! TO.N,unconnected-(M2-OUT_PWM2-PadE17)*
X61657998Y39400000D03*
G04 #@! TO.N,/INJ4/IN2*
X61657998Y38600002D03*
G04 #@! TO.N,/INJ4/IN1*
X61657995Y37800001D03*
G04 #@! TO.N,unconnected-(M2-OUT_IO13-PadE20)*
X61657995Y37000000D03*
G04 #@! TO.N,unconnected-(M2-OUT_IO4-PadE21)*
X61657998Y36200001D03*
G04 #@! TO.N,unconnected-(M2-OUT_IO8-PadE22)*
X61657998Y35400000D03*
G04 #@! TO.N,unconnected-(M2-OUT_IO7-PadE23)*
X61657998Y34599999D03*
G04 #@! TO.N,unconnected-(M2-OUT_IO11-PadE24)*
X61657998Y33800001D03*
G04 #@! TO.N,unconnected-(M2-OUT_PWM7-PadE25)*
X61657998Y33000000D03*
G04 #@! TO.N,unconnected-(M2-OUT_PWM6-PadE26)*
X61657998Y32200002D03*
G04 #@! TO.N,unconnected-(M2-OUT_PWM1-PadE27)*
X61657998Y31400001D03*
G04 #@! TO.N,unconnected-(M2-OUT_PWM8-PadE28)*
X61657998Y30600000D03*
G04 #@! TO.N,/INJ4/IN3*
X61657998Y29800001D03*
G04 #@! TO.N,/INJ4/IN4*
X61657998Y29000000D03*
G04 #@! TO.N,/LS_PROTECTED_2 A/IN1*
X61657995Y28200002D03*
G04 #@! TO.N,/LS_PROTECTED_2 A/IN2*
X61657998Y27399999D03*
G04 #@! TO.N,/LS_PROTECTED_2 B/IN1*
X61657998Y26600000D03*
G04 #@! TO.N,/LS_PROTECTED_2 B/IN2*
X61657998Y25800002D03*
G04 #@! TO.N,unconnected-(M2-IO6-PadE35)*
X61657998Y25000001D03*
G04 #@! TO.N,unconnected-(M2-IO7-PadE36)*
X61657998Y24200000D03*
G04 #@! TO.N,+5VA*
X61657995Y17500006D03*
G04 #@! TO.N,unconnected-(M2-GNDA-PadE39)*
X61657998Y16700005D03*
D18*
G04 #@! TO.N,GND*
X19757993Y15350005D03*
D19*
X19757995Y21200008D03*
D20*
X19757996Y49200005D03*
D21*
X19757996Y27400005D03*
D22*
X21558002Y14300002D03*
D23*
X22957997Y54200003D03*
D24*
X31458000Y54200003D03*
D25*
X41308003Y54200003D03*
D26*
X61857998Y52700004D03*
D27*
X61857998Y20850001D03*
D28*
X61857998Y15200008D03*
D17*
G04 #@! TO.N,unconnected-(M2-USBID-PadN1)*
X61657998Y54000004D03*
G04 #@! TO.N,unconnected-(M2-USBM-PadN2)*
X60858000Y54000006D03*
G04 #@! TO.N,unconnected-(M2-USBP-PadN3)*
X60057999Y54000006D03*
G04 #@! TO.N,unconnected-(M2-VBUS-PadN4)*
X59258000Y54000004D03*
G04 #@! TO.N,unconnected-(M2-BOOT0-PadN5)*
X58457999Y54000004D03*
G04 #@! TO.N,unconnected-(M2-SWO-PadN6)*
X57657998Y54000004D03*
G04 #@! TO.N,unconnected-(M2-SWDIO-PadN7)*
X56858000Y54000004D03*
G04 #@! TO.N,unconnected-(M2-SWCLK-PadN8)*
X56057999Y54000006D03*
G04 #@! TO.N,unconnected-(M2-nReset-PadN9)*
X55258001Y54000004D03*
G04 #@! TO.N,unconnected-(M2-SPI3_CS-PadN10)*
X54458000Y54000004D03*
G04 #@! TO.N,unconnected-(M2-SPI3_SCK-PadN11)*
X53657999Y54000004D03*
G04 #@! TO.N,unconnected-(M2-SPI3_MISO-PadN12)*
X52857998Y54000004D03*
G04 #@! TO.N,unconnected-(M2-SPI3_MOSI-PadN13)*
X52057999Y54000004D03*
G04 #@! TO.N,unconnected-(M2-I2C_SCL-PadN14)*
X51257998Y54000004D03*
G04 #@! TO.N,unconnected-(M2-I2C_SDA-PadN15)*
X50457997Y54000006D03*
G04 #@! TO.N,unconnected-(M2-IO1-PadN16)*
X49657997Y54000006D03*
G04 #@! TO.N,unconnected-(M2-UART2_TX-PadN17)*
X48857998Y54000004D03*
G04 #@! TO.N,unconnected-(M2-UART2_RX-PadN18)*
X48057997Y54000004D03*
G04 #@! TO.N,unconnected-(M2-IO2-PadN19)*
X47257999Y54000004D03*
G04 #@! TO.N,unconnected-(M2-IO4-PadN20)*
X46457998Y54000004D03*
G04 #@! TO.N,unconnected-(M2-IO3-PadN21)*
X45657999Y54000006D03*
G04 #@! TO.N,unconnected-(M2-V33-PadN22)*
X44857998Y54000004D03*
G04 #@! TO.N,unconnected-(M2-IO5-PadN23)*
X44057998Y54000004D03*
G04 #@! TO.N,unconnected-(M2-UART8_RX-PadN24)*
X38557998Y54000004D03*
G04 #@! TO.N,unconnected-(M2-UART8_TX-PadN25)*
X37757997Y54000004D03*
G04 #@! TO.N,Net-(M2-IN_VIGN)*
X36957999Y54000004D03*
G04 #@! TO.N,Net-(M2-VBAT)*
X36158001Y54000004D03*
G04 #@! TO.N,unconnected-(M2-V33_SWITCHABLE-PadN28)*
X35358002Y54000004D03*
G04 #@! TO.N,Net-(M2-OUT_PWR_EN)*
X27557998Y54000004D03*
G04 #@! TO.N,unconnected-(M2-V5A_SWITCHABLE-PadN30)*
X26757999Y54000004D03*
G04 #@! TO.N,+5V*
X25958001Y54000004D03*
G04 #@! TO.N,unconnected-(M2-V33-PadN32)*
X19957997Y54000004D03*
G04 #@! TO.N,unconnected-(M2-IN_D4-PadS1)*
X61057997Y14499999D03*
G04 #@! TO.N,unconnected-(M2-IN_D3-PadS2)*
X59857996Y14500001D03*
G04 #@! TO.N,unconnected-(M2-IN_D2-PadS3)*
X58657999Y14500001D03*
G04 #@! TO.N,unconnected-(M2-IN_D1-PadS4)*
X57457999Y14499999D03*
G04 #@! TO.N,unconnected-(M2-VREF2-PadS5)*
X56257999Y14500001D03*
G04 #@! TO.N,unconnected-(M2-IN_SENS4-PadS6)*
X55158011Y14500001D03*
G04 #@! TO.N,unconnected-(M2-IN_SENS3-PadS7)*
X53958011Y14500001D03*
G04 #@! TO.N,unconnected-(M2-IN_SENS2-PadS8)*
X52758013Y14499999D03*
G04 #@! TO.N,unconnected-(M2-IN_SENS1-PadS9)*
X51558013Y14500001D03*
G04 #@! TO.N,unconnected-(M2-IN_AUX4-PadS10)*
X50358010Y14500001D03*
G04 #@! TO.N,unconnected-(M2-IN_AUX3-PadS11)*
X49158008Y14499999D03*
G04 #@! TO.N,unconnected-(M2-IN_AUX2-PadS12)*
X47958010Y14500001D03*
G04 #@! TO.N,/NEUTRAL STARTER SWITCH*
X46758012Y14500001D03*
G04 #@! TO.N,unconnected-(M2-IN_RES2-PadS14)*
X45558005Y14500001D03*
G04 #@! TO.N,unconnected-(M2-IN_O2S2-PadS15)*
X44358005Y14500001D03*
G04 #@! TO.N,unconnected-(M2-IN_O2S-PadS16)*
X43158007Y14500001D03*
G04 #@! TO.N,unconnected-(M2-IN_RES1-PadS17)*
X41958007Y14500001D03*
G04 #@! TO.N,unconnected-(M2-IN_RES3-PadS18)*
X40758002Y14500001D03*
G04 #@! TO.N,unconnected-(M2-IN_MAP3-PadS19)*
X39558001Y14500001D03*
G04 #@! TO.N,unconnected-(M2-IN_MAP2-PadS20)*
X38358004Y14499999D03*
G04 #@! TO.N,Net-(M2-IN_MAP1)*
X37158004Y14500001D03*
G04 #@! TO.N,Net-(M1-OUT)*
X35958001Y14499999D03*
G04 #@! TO.N,Net-(M2-IN_KNOCK)*
X34758001Y14500001D03*
G04 #@! TO.N,Net-(M2-IN_CAM)*
X33558006Y14500001D03*
G04 #@! TO.N,unconnected-(M2-IN_VSS-PadS25)*
X32358003Y14499999D03*
G04 #@! TO.N,Net-(M2-IN_IAT)*
X31157998Y14500001D03*
G04 #@! TO.N,unconnected-(M2-IN_AT1-PadS27)*
X29957998Y14499999D03*
G04 #@! TO.N,Net-(M2-IN_CLT)*
X28758000Y14500001D03*
G04 #@! TO.N,unconnected-(M2-IN_AT2-PadS29)*
X27558000Y14500001D03*
G04 #@! TO.N,Net-(M2-IN_TPS)*
X26357995Y14500001D03*
G04 #@! TO.N,unconnected-(M2-IN_PPS-PadS31)*
X25157995Y14500001D03*
G04 #@! TO.N,unconnected-(M2-IN_TPS2-PadS32)*
X23957997Y14500001D03*
G04 #@! TO.N,unconnected-(M2-IN_PPS2-PadS33)*
X22757997Y14500001D03*
G04 #@! TO.N,unconnected-(M2-VREF1-PadS35)*
X20357997Y14500001D03*
G04 #@! TO.N,GNDA*
X19957995Y17000004D03*
G04 #@! TO.N,+5VA*
X19957995Y18000005D03*
G04 #@! TO.N,unconnected-(M2-V33_REF-PadW3)*
X19957997Y24400007D03*
G04 #@! TO.N,unconnected-(M2-BOOT1-PadW3a)*
X19957996Y30400005D03*
G04 #@! TO.N,unconnected-(M2-IGN8-PadW4)*
X19957997Y31400003D03*
G04 #@! TO.N,unconnected-(M2-IGN7-PadW5)*
X19957997Y32400004D03*
G04 #@! TO.N,unconnected-(M2-IGN6-PadW6)*
X19957997Y33400002D03*
G04 #@! TO.N,unconnected-(M2-IGN5-PadW7)*
X19957997Y34400002D03*
G04 #@! TO.N,/IGN4/IN4*
X19957997Y35400003D03*
G04 #@! TO.N,/IGN4/IN3*
X19957997Y36400001D03*
G04 #@! TO.N,/IGN4/IN2*
X19957997Y37400001D03*
G04 #@! TO.N,/IGN4/IN1*
X19957997Y38399999D03*
G04 #@! TO.N,unconnected-(M2-LED_RED-PadW11a)*
X19957996Y39400005D03*
G04 #@! TO.N,unconnected-(M2-LED_GREEN-PadW11b)*
X19957996Y40400005D03*
G04 #@! TO.N,unconnected-(M2-LED_BLUE-PadW11c)*
X19957996Y41400005D03*
G04 #@! TO.N,unconnected-(M2-LED_YELLOW-PadW11d)*
X19957996Y42400005D03*
G04 #@! TO.N,/CAN+*
X19957996Y43400005D03*
G04 #@! TO.N,/CAN-*
X19957996Y44400005D03*
G04 #@! TD*
G04 #@! TO.N,/INJ4/OUT4*
G04 #@! TO.C,J1*
G04 #@! TA.AperFunction,ComponentPad*
G36*
G01*
X74540000Y98058001D02*
X74540000Y101257999D01*
G75*
G02*
X74790001Y101508000I250001J0D01*
G01*
X76989999Y101508000D01*
G75*
G02*
X77240000Y101257999I0J-250001D01*
G01*
X77240000Y98058001D01*
G75*
G02*
X76989999Y97808000I-250001J0D01*
G01*
X74790001Y97808000D01*
G75*
G02*
X74540000Y98058001I0J250001D01*
G01*
G37*
G04 #@! TD.AperFunction*
D29*
G04 #@! TO.N,/INJ4/OUT3*
X80090000Y99658000D03*
G04 #@! TO.N,/INJ4/OUT2*
X84290000Y99658000D03*
G04 #@! TO.N,/INJ4/OUT1*
X88490000Y99658000D03*
G04 #@! TO.N,/IGN4/OUT4*
X75890000Y94158000D03*
G04 #@! TO.N,/IGN4/OUT3*
X80090000Y94158000D03*
G04 #@! TO.N,/IGN4/OUT2*
X84290000Y94158000D03*
G04 #@! TO.N,/IGN4/OUT1*
X88490000Y94158000D03*
G04 #@! TD*
D17*
G04 #@! TO.N,unconnected-(M1-HALL_EN-PadE1)*
G04 #@! TO.C,M1*
X5309500Y29724000D03*
G04 #@! TO.N,unconnected-(M1-NC-PadE2)*
X4109500Y29724000D03*
G04 #@! TO.N,Net-(M1-OUT)*
X6509500Y29724000D03*
G04 #@! TO.N,+5VA*
X7709500Y29724000D03*
D30*
G04 #@! TO.N,GND*
X5042000Y44374000D03*
D31*
X-1008000Y44374000D03*
D32*
X8009500Y37361500D03*
D33*
X-1440500Y36949000D03*
D34*
X1022000Y29524000D03*
D17*
G04 #@! TO.N,unconnected-(M1-VR-{slash}HALL-PadW1)*
X1249500Y44149000D03*
G04 #@! TO.N,Net-(M1-VR+)*
X249500Y44149000D03*
G04 #@! TD*
D35*
G04 #@! TO.N,Net-(M2-VBAT)*
G04 #@! TO.C,M6*
X38994000Y79588003D03*
G04 #@! TO.N,unconnected-(M6-V12-PadE2)*
X32594003Y79588003D03*
G04 #@! TO.N,Net-(M2-IN_VIGN)*
X30694000Y79588003D03*
G04 #@! TO.N,+5V*
X26394000Y79588003D03*
D17*
G04 #@! TO.N,Net-(M2-OUT_PWR_EN)*
X23994003Y79138004D03*
G04 #@! TO.N,unconnected-(M6-PG_5VP-PadE6)*
X22994002Y79138004D03*
D36*
G04 #@! TO.N,GND*
X35144000Y95737999D03*
D37*
X26644002Y95737999D03*
D38*
X19544000Y95737999D03*
D39*
X19494000Y87338001D03*
D40*
X40094000Y86538000D03*
D35*
X20144000Y79588003D03*
D38*
X40044000Y78938002D03*
D41*
X35844002Y78938002D03*
D42*
X28494000Y78938002D03*
D43*
X24994003Y78938002D03*
D44*
X21694002Y78938002D03*
D35*
G04 #@! TO.N,+12V_RAW*
X39444002Y95088000D03*
X37594003Y95088000D03*
X32644000Y95088000D03*
G04 #@! TO.N,+5VP*
X20594002Y95088000D03*
G04 #@! TD*
D17*
G04 #@! TO.N,unconnected-(M5-HALL_EN-PadE1)*
G04 #@! TO.C,M5*
X5309500Y11944000D03*
G04 #@! TO.N,unconnected-(M5-NC-PadE2)*
X4109500Y11944000D03*
G04 #@! TO.N,Net-(M2-IN_CAM)*
X6509500Y11944000D03*
G04 #@! TO.N,+5VA*
X7709500Y11944000D03*
D30*
G04 #@! TO.N,GND*
X5042000Y26594000D03*
D31*
X-1008000Y26594000D03*
D32*
X8009500Y19581500D03*
D33*
X-1440500Y19169000D03*
D34*
X1022000Y11744000D03*
D17*
G04 #@! TO.N,unconnected-(M5-VR-{slash}HALL-PadW1)*
X1249500Y26369000D03*
G04 #@! TO.N,Net-(M5-VR+)*
X249500Y26369000D03*
G04 #@! TD*
D45*
G04 #@! TO.N,unconnected-(U1-~~-Pad1)*
G04 #@! TO.C,U1*
X4970000Y102540000D03*
G04 #@! TO.N,/INJ4/OUT1*
X7970000Y102540000D03*
G04 #@! TO.N,GND*
X10970000Y102540000D03*
G04 #@! TO.N,/IDLE UP SOLENOID*
X13970000Y102540000D03*
G04 #@! TO.N,unconnected-(U1-ELS3-Pad5)*
X16970000Y102540000D03*
G04 #@! TO.N,Net-(M1-VR+)*
X19970000Y102540000D03*
G04 #@! TO.N,/RAD FAN*
X22970000Y102540000D03*
G04 #@! TO.N,unconnected-(U1-IDL-Pad8)*
X25970000Y102540000D03*
G04 #@! TO.N,+5VP*
X33970000Y102540000D03*
G04 #@! TO.N,Net-(M2-IN_TPS)*
X36970000Y102540000D03*
G04 #@! TO.N,unconnected-(U1-E2-Pad11)*
X39970000Y102540000D03*
G04 #@! TO.N,unconnected-(U1-HT-Pad12)*
X42970000Y102540000D03*
G04 #@! TO.N,unconnected-(U1-RSO-Pad13)*
X45970000Y102540000D03*
G04 #@! TO.N,unconnected-(U1-VF-Pad14)*
X48970000Y102540000D03*
G04 #@! TO.N,unconnected-(U1-ELS2-Pad15)*
X51970000Y102540000D03*
G04 #@! TO.N,unconnected-(U1-ACT-Pad16)*
X54970000Y102540000D03*
G04 #@! TO.N,unconnected-(U1-SPD-Pad17)*
X57970000Y102540000D03*
G04 #@! TO.N,unconnected-(U1-AC1-Pad18)*
X60970000Y102540000D03*
G04 #@! TO.N,unconnected-(U1-EGW-Pad19)*
X63970000Y102540000D03*
G04 #@! TO.N,unconnected-(U1-W-Pad20)*
X66970000Y102540000D03*
G04 #@! TO.N,unconnected-(U1-+B-Pad21)*
X69970000Y102540000D03*
G04 #@! TO.N,unconnected-(U1-Pad22)*
X69970000Y107040000D03*
G04 #@! TO.N,+12V_RAW*
X66970000Y107040000D03*
G04 #@! TO.N,/CARBON CAN SOLENOID*
X63970000Y107040000D03*
G04 #@! TO.N,/FUEL PUMP RELAY*
X60970000Y107040000D03*
G04 #@! TO.N,unconnected-(U1-ELS1-Pad26)*
X57970000Y107040000D03*
G04 #@! TO.N,unconnected-(U1-AC2-Pad27)*
X54970000Y107040000D03*
G04 #@! TO.N,unconnected-(U1-TE2-Pad28)*
X51970000Y107040000D03*
G04 #@! TO.N,unconnected-(U1-TE1-Pad29)*
X48970000Y107040000D03*
G04 #@! TO.N,unconnected-(U1-RSC-Pad30)*
X45970000Y107040000D03*
G04 #@! TO.N,/NEUTRAL STARTER SWITCH*
X42970000Y107040000D03*
G04 #@! TO.N,Net-(M2-IN_CLT)*
X39970000Y107040000D03*
G04 #@! TO.N,Net-(M2-IN_MAP1)*
X36970000Y107040000D03*
G04 #@! TO.N,Net-(M2-IN_IAT)*
X33970000Y107040000D03*
G04 #@! TO.N,/IGN4/OUT4*
X25970000Y107040000D03*
G04 #@! TO.N,unconnected-(U1-IGF-Pad36)*
X22970000Y107040000D03*
G04 #@! TO.N,unconnected-(U1-G2-Pad37)*
X19970000Y107040000D03*
G04 #@! TO.N,Net-(M5-VR+)*
X16970000Y107040000D03*
G04 #@! TO.N,unconnected-(U1-OX-Pad39)*
X13970000Y107040000D03*
G04 #@! TO.N,unconnected-(U1-STA-Pad40)*
X10970000Y107040000D03*
G04 #@! TO.N,/INJ4/OUT3*
X7970000Y107040000D03*
G04 #@! TO.N,unconnected-(U1-E01-Pad42)*
X4970000Y107040000D03*
G04 #@! TD*
G04 #@! TO.N,Net-(J2-Pin_1)*
G04 #@! TO.C,J2*
G04 #@! TA.AperFunction,ComponentPad*
G36*
G01*
X8165999Y85052000D02*
X4966001Y85052000D01*
G75*
G02*
X4716000Y85302001I0J250001D01*
G01*
X4716000Y87501999D01*
G75*
G02*
X4966001Y87752000I250001J0D01*
G01*
X8165999Y87752000D01*
G75*
G02*
X8416000Y87501999I0J-250001D01*
G01*
X8416000Y85302001D01*
G75*
G02*
X8165999Y85052000I-250001J0D01*
G01*
G37*
G04 #@! TD.AperFunction*
D46*
G04 #@! TO.N,Net-(J2-Pin_2)*
X6566000Y90602000D03*
G04 #@! TO.N,Net-(J2-Pin_3)*
X6566000Y94802000D03*
G04 #@! TO.N,Net-(J2-Pin_4)*
X12066000Y86402000D03*
G04 #@! TO.N,+12V_RAW*
X12066000Y90602000D03*
G04 #@! TO.N,Net-(J2-Pin_6)*
X12066000Y94802000D03*
G04 #@! TD*
D17*
G04 #@! TO.N,+5VA*
G04 #@! TO.C,M3*
X87116000Y11770000D03*
D47*
G04 #@! TO.N,GND*
X78216000Y9795000D03*
D48*
X82766000Y12370000D03*
X82766000Y9270000D03*
D17*
X87116000Y10820000D03*
G04 #@! TO.N,Net-(M2-IN_KNOCK)*
X87116000Y9870002D03*
G04 #@! TO.N,unconnected-(M3-IN_KNOCK-PadW1)*
X78416000Y10870000D03*
G04 #@! TO.N,unconnected-(M3-VREF-PadW2)*
X78416000Y11770000D03*
G04 #@! TD*
D49*
G04 #@! TO.N,/IGN4/IN1*
X19860530Y55987470D03*
G04 #@! TO.N,/IGN4/IN2*
X20198265Y57173735D03*
G04 #@! TO.N,/IGN4/IN3*
X19012000Y57090000D03*
G04 #@! TO.N,/IGN4/IN4*
X19520000Y58360000D03*
G04 #@! TO.N,/INJ4/IN2*
X63208000Y54804000D03*
X34252000Y55058000D03*
G04 #@! TO.N,/INJ4/IN3*
X41991000Y56066000D03*
X64310530Y55398530D03*
G04 #@! TO.N,/INJ4/IN4*
X63462000Y56404000D03*
X44285000Y56458000D03*
G04 #@! TO.N,/INJ4/IN1*
X36665000Y55566000D03*
X64394265Y54466265D03*
G04 #@! TO.N,/IGN4/OUT1*
X80159000Y79442000D03*
X80159000Y78680000D03*
G04 #@! TO.N,Net-(Q1-G)*
X47879000Y65366000D03*
G04 #@! TO.N,/IGN4/OUT2*
X70159000Y78680000D03*
X70714000Y79235000D03*
G04 #@! TO.N,Net-(Q2-G)*
X57778000Y65359000D03*
G04 #@! TO.N,/IGN4/OUT3*
X60634000Y79155000D03*
X60159000Y78680000D03*
G04 #@! TO.N,Net-(Q3-G)*
X67938000Y65359000D03*
G04 #@! TO.N,/IGN4/OUT4*
X28664000Y102794000D03*
X47460000Y98222000D03*
X50681000Y79202000D03*
X47968000Y97714000D03*
X50159000Y78680000D03*
X28664000Y102032000D03*
G04 #@! TO.N,Net-(Q4-G)*
X77844000Y65359000D03*
G04 #@! TO.N,/INJ4/OUT2*
X41364000Y70457001D03*
X36869002Y70457001D03*
X44444000Y88316000D03*
G04 #@! TO.N,/INJ4/OUT1*
X32729000Y70282000D03*
X43142000Y73584000D03*
X33490000Y73330000D03*
X15456000Y71314000D03*
X43444000Y88316000D03*
G04 #@! TO.N,/INJ4/OUT3*
X45444000Y88316000D03*
X16472000Y71822000D03*
X44920000Y72330000D03*
G04 #@! TO.N,/INJ4/OUT4*
X46444000Y88316000D03*
G04 #@! TO.N,Net-(M2-VBAT)*
X34490971Y56042971D03*
X37300000Y56312000D03*
G04 #@! TO.N,Net-(J2-Pin_3)*
X2203339Y80143339D03*
X7582000Y80188000D03*
G04 #@! TO.N,Net-(J2-Pin_1)*
X6268000Y81204000D03*
X8344000Y80950000D03*
G04 #@! TD*
G04 #@! TA.AperFunction,Conductor*
G04 #@! TO.N,GND*
G36*
X4490888Y108669815D02*
G01*
X4536643Y108617011D01*
X4546587Y108547853D01*
X4517562Y108484297D01*
X4462167Y108447569D01*
X4432396Y108437897D01*
X4432393Y108437896D01*
X4235974Y108337813D01*
X4057641Y108208248D01*
X4057636Y108208244D01*
X3901756Y108052364D01*
X3901752Y108052359D01*
X3772187Y107874026D01*
X3672104Y107677607D01*
X3672103Y107677604D01*
X3603985Y107467953D01*
X3603985Y107467951D01*
X3569500Y107250222D01*
X3569500Y106829778D01*
X3582897Y106745191D01*
X3603985Y106612048D01*
X3672103Y106402397D01*
X3672104Y106402394D01*
X3772187Y106205975D01*
X3901752Y106027642D01*
X3901756Y106027637D01*
X4057636Y105871757D01*
X4057641Y105871753D01*
X4213192Y105758740D01*
X4235978Y105742185D01*
X4335562Y105691444D01*
X4432393Y105642105D01*
X4432396Y105642104D01*
X4537221Y105608045D01*
X4642049Y105573985D01*
X4859778Y105539500D01*
X4859779Y105539500D01*
X5080221Y105539500D01*
X5080222Y105539500D01*
X5297951Y105573985D01*
X5507606Y105642105D01*
X5704022Y105742185D01*
X5882365Y105871758D01*
X6038242Y106027635D01*
X6167815Y106205978D01*
X6267895Y106402394D01*
X6336015Y106612049D01*
X6347527Y106684734D01*
X6377456Y106747867D01*
X6436767Y106784799D01*
X6506630Y106783801D01*
X6564863Y106745191D01*
X6592473Y106684733D01*
X6603985Y106612048D01*
X6672103Y106402397D01*
X6672104Y106402394D01*
X6772187Y106205975D01*
X6901752Y106027642D01*
X6901756Y106027637D01*
X7057636Y105871757D01*
X7057641Y105871753D01*
X7213192Y105758740D01*
X7235978Y105742185D01*
X7335562Y105691444D01*
X7432393Y105642105D01*
X7432396Y105642104D01*
X7537221Y105608045D01*
X7642049Y105573985D01*
X7859778Y105539500D01*
X7859779Y105539500D01*
X8080221Y105539500D01*
X8080222Y105539500D01*
X8297951Y105573985D01*
X8507606Y105642105D01*
X8704022Y105742185D01*
X8882365Y105871758D01*
X9038242Y106027635D01*
X9167815Y106205978D01*
X9267895Y106402394D01*
X9336015Y106612049D01*
X9347527Y106684734D01*
X9377456Y106747867D01*
X9436767Y106784799D01*
X9506630Y106783801D01*
X9564863Y106745191D01*
X9592473Y106684733D01*
X9603985Y106612048D01*
X9672103Y106402397D01*
X9672104Y106402394D01*
X9772187Y106205975D01*
X9901752Y106027642D01*
X9901756Y106027637D01*
X10057636Y105871757D01*
X10057641Y105871753D01*
X10213192Y105758740D01*
X10235978Y105742185D01*
X10335562Y105691444D01*
X10432393Y105642105D01*
X10432396Y105642104D01*
X10537221Y105608045D01*
X10642049Y105573985D01*
X10859778Y105539500D01*
X10859779Y105539500D01*
X11080221Y105539500D01*
X11080222Y105539500D01*
X11297951Y105573985D01*
X11507606Y105642105D01*
X11704022Y105742185D01*
X11882365Y105871758D01*
X12038242Y106027635D01*
X12167815Y106205978D01*
X12267895Y106402394D01*
X12336015Y106612049D01*
X12347527Y106684734D01*
X12377456Y106747867D01*
X12436767Y106784799D01*
X12506630Y106783801D01*
X12564863Y106745191D01*
X12592473Y106684733D01*
X12603985Y106612048D01*
X12672103Y106402397D01*
X12672104Y106402394D01*
X12772187Y106205975D01*
X12901752Y106027642D01*
X12901756Y106027637D01*
X13057636Y105871757D01*
X13057641Y105871753D01*
X13213192Y105758740D01*
X13235978Y105742185D01*
X13335562Y105691444D01*
X13432393Y105642105D01*
X13432396Y105642104D01*
X13537221Y105608045D01*
X13642049Y105573985D01*
X13859778Y105539500D01*
X13859779Y105539500D01*
X14080221Y105539500D01*
X14080222Y105539500D01*
X14297951Y105573985D01*
X14507606Y105642105D01*
X14704022Y105742185D01*
X14882365Y105871758D01*
X15038242Y106027635D01*
X15167815Y106205978D01*
X15267895Y106402394D01*
X15336015Y106612049D01*
X15347527Y106684734D01*
X15377456Y106747867D01*
X15436767Y106784799D01*
X15506630Y106783801D01*
X15564863Y106745191D01*
X15592473Y106684733D01*
X15603985Y106612048D01*
X15672103Y106402397D01*
X15672104Y106402394D01*
X15772187Y106205975D01*
X15901752Y106027642D01*
X15901756Y106027637D01*
X16057636Y105871757D01*
X16057641Y105871753D01*
X16213192Y105758740D01*
X16235978Y105742185D01*
X16335562Y105691444D01*
X16432393Y105642105D01*
X16432396Y105642104D01*
X16537221Y105608045D01*
X16642049Y105573985D01*
X16859778Y105539500D01*
X16859779Y105539500D01*
X17080221Y105539500D01*
X17080222Y105539500D01*
X17297951Y105573985D01*
X17507606Y105642105D01*
X17704022Y105742185D01*
X17882365Y105871758D01*
X18038242Y106027635D01*
X18167815Y106205978D01*
X18267895Y106402394D01*
X18336015Y106612049D01*
X18347527Y106684734D01*
X18377456Y106747867D01*
X18436767Y106784799D01*
X18506630Y106783801D01*
X18564863Y106745191D01*
X18592473Y106684733D01*
X18603985Y106612048D01*
X18672103Y106402397D01*
X18672104Y106402394D01*
X18772187Y106205975D01*
X18901752Y106027642D01*
X18901756Y106027637D01*
X19057636Y105871757D01*
X19057641Y105871753D01*
X19213192Y105758740D01*
X19235978Y105742185D01*
X19335562Y105691444D01*
X19432393Y105642105D01*
X19432396Y105642104D01*
X19537221Y105608045D01*
X19642049Y105573985D01*
X19859778Y105539500D01*
X19859779Y105539500D01*
X20080221Y105539500D01*
X20080222Y105539500D01*
X20297951Y105573985D01*
X20507606Y105642105D01*
X20704022Y105742185D01*
X20882365Y105871758D01*
X21038242Y106027635D01*
X21167815Y106205978D01*
X21267895Y106402394D01*
X21336015Y106612049D01*
X21347527Y106684734D01*
X21377456Y106747867D01*
X21436767Y106784799D01*
X21506630Y106783801D01*
X21564863Y106745191D01*
X21592473Y106684733D01*
X21603985Y106612048D01*
X21672103Y106402397D01*
X21672104Y106402394D01*
X21772187Y106205975D01*
X21901752Y106027642D01*
X21901756Y106027637D01*
X22057636Y105871757D01*
X22057641Y105871753D01*
X22213192Y105758740D01*
X22235978Y105742185D01*
X22335562Y105691444D01*
X22432393Y105642105D01*
X22432396Y105642104D01*
X22537221Y105608045D01*
X22642049Y105573985D01*
X22859778Y105539500D01*
X22859779Y105539500D01*
X23080221Y105539500D01*
X23080222Y105539500D01*
X23297951Y105573985D01*
X23507606Y105642105D01*
X23704022Y105742185D01*
X23882365Y105871758D01*
X24038242Y106027635D01*
X24167815Y106205978D01*
X24267895Y106402394D01*
X24336015Y106612049D01*
X24347527Y106684734D01*
X24377456Y106747867D01*
X24436767Y106784799D01*
X24506630Y106783801D01*
X24564863Y106745191D01*
X24592473Y106684733D01*
X24603985Y106612048D01*
X24672103Y106402397D01*
X24672104Y106402394D01*
X24772187Y106205975D01*
X24901752Y106027642D01*
X24901756Y106027637D01*
X25057636Y105871757D01*
X25057641Y105871753D01*
X25213192Y105758740D01*
X25235978Y105742185D01*
X25335562Y105691444D01*
X25432393Y105642105D01*
X25432396Y105642104D01*
X25537221Y105608045D01*
X25642049Y105573985D01*
X25859778Y105539500D01*
X25859779Y105539500D01*
X26080221Y105539500D01*
X26080222Y105539500D01*
X26297951Y105573985D01*
X26507606Y105642105D01*
X26704022Y105742185D01*
X26882365Y105871758D01*
X27038242Y106027635D01*
X27167815Y106205978D01*
X27267895Y106402394D01*
X27336015Y106612049D01*
X27370500Y106829778D01*
X27370500Y107250222D01*
X27336015Y107467951D01*
X27267895Y107677606D01*
X27267895Y107677607D01*
X27233237Y107745625D01*
X27167815Y107874022D01*
X27151260Y107896808D01*
X27038247Y108052359D01*
X27038243Y108052364D01*
X26882363Y108208244D01*
X26882358Y108208248D01*
X26704025Y108337813D01*
X26704024Y108337814D01*
X26704022Y108337815D01*
X26641096Y108369878D01*
X26507606Y108437896D01*
X26507603Y108437897D01*
X26477833Y108447569D01*
X26420158Y108487006D01*
X26392959Y108551364D01*
X26404873Y108620211D01*
X26452117Y108671687D01*
X26516151Y108689500D01*
X33423849Y108689500D01*
X33490888Y108669815D01*
X33536643Y108617011D01*
X33546587Y108547853D01*
X33517562Y108484297D01*
X33462167Y108447569D01*
X33432396Y108437897D01*
X33432393Y108437896D01*
X33235974Y108337813D01*
X33057641Y108208248D01*
X33057636Y108208244D01*
X32901756Y108052364D01*
X32901752Y108052359D01*
X32772187Y107874026D01*
X32672104Y107677607D01*
X32672103Y107677604D01*
X32603985Y107467953D01*
X32603985Y107467951D01*
X32569500Y107250222D01*
X32569500Y106829778D01*
X32582897Y106745191D01*
X32603985Y106612048D01*
X32672103Y106402397D01*
X32672104Y106402394D01*
X32772187Y106205975D01*
X32901752Y106027642D01*
X32901756Y106027637D01*
X33057636Y105871757D01*
X33057641Y105871753D01*
X33213192Y105758740D01*
X33235978Y105742185D01*
X33335562Y105691444D01*
X33432393Y105642105D01*
X33432396Y105642104D01*
X33537221Y105608045D01*
X33642049Y105573985D01*
X33859778Y105539500D01*
X33859779Y105539500D01*
X34080221Y105539500D01*
X34080222Y105539500D01*
X34297951Y105573985D01*
X34507606Y105642105D01*
X34704022Y105742185D01*
X34882365Y105871758D01*
X35038242Y106027635D01*
X35167815Y106205978D01*
X35267895Y106402394D01*
X35336015Y106612049D01*
X35347527Y106684734D01*
X35377456Y106747867D01*
X35436767Y106784799D01*
X35506630Y106783801D01*
X35564863Y106745191D01*
X35592473Y106684733D01*
X35603985Y106612048D01*
X35672103Y106402397D01*
X35672104Y106402394D01*
X35772187Y106205975D01*
X35901752Y106027642D01*
X35901756Y106027637D01*
X36057636Y105871757D01*
X36057641Y105871753D01*
X36213192Y105758740D01*
X36235978Y105742185D01*
X36335562Y105691444D01*
X36432393Y105642105D01*
X36432396Y105642104D01*
X36537221Y105608045D01*
X36642049Y105573985D01*
X36859778Y105539500D01*
X36859779Y105539500D01*
X37080221Y105539500D01*
X37080222Y105539500D01*
X37297951Y105573985D01*
X37507606Y105642105D01*
X37704022Y105742185D01*
X37882365Y105871758D01*
X38038242Y106027635D01*
X38167815Y106205978D01*
X38267895Y106402394D01*
X38336015Y106612049D01*
X38347527Y106684734D01*
X38377456Y106747867D01*
X38436767Y106784799D01*
X38506630Y106783801D01*
X38564863Y106745191D01*
X38592473Y106684733D01*
X38603985Y106612048D01*
X38672103Y106402397D01*
X38672104Y106402394D01*
X38772187Y106205975D01*
X38901752Y106027642D01*
X38901756Y106027637D01*
X39057636Y105871757D01*
X39057641Y105871753D01*
X39213192Y105758740D01*
X39235978Y105742185D01*
X39335562Y105691444D01*
X39432393Y105642105D01*
X39432396Y105642104D01*
X39537221Y105608045D01*
X39642049Y105573985D01*
X39859778Y105539500D01*
X39859779Y105539500D01*
X40080221Y105539500D01*
X40080222Y105539500D01*
X40297951Y105573985D01*
X40507606Y105642105D01*
X40704022Y105742185D01*
X40882365Y105871758D01*
X41038242Y106027635D01*
X41167815Y106205978D01*
X41267895Y106402394D01*
X41336015Y106612049D01*
X41347527Y106684734D01*
X41377456Y106747867D01*
X41436767Y106784799D01*
X41506630Y106783801D01*
X41564863Y106745191D01*
X41592473Y106684733D01*
X41603985Y106612048D01*
X41672103Y106402397D01*
X41672104Y106402394D01*
X41772187Y106205975D01*
X41901752Y106027642D01*
X41901756Y106027637D01*
X42057636Y105871757D01*
X42057641Y105871753D01*
X42213192Y105758740D01*
X42235978Y105742185D01*
X42335562Y105691444D01*
X42432393Y105642105D01*
X42432396Y105642104D01*
X42537221Y105608045D01*
X42642049Y105573985D01*
X42859778Y105539500D01*
X42859779Y105539500D01*
X43080221Y105539500D01*
X43080222Y105539500D01*
X43297951Y105573985D01*
X43507606Y105642105D01*
X43704022Y105742185D01*
X43882365Y105871758D01*
X44038242Y106027635D01*
X44167815Y106205978D01*
X44267895Y106402394D01*
X44336015Y106612049D01*
X44347527Y106684734D01*
X44377456Y106747867D01*
X44436767Y106784799D01*
X44506630Y106783801D01*
X44564863Y106745191D01*
X44592473Y106684733D01*
X44603985Y106612048D01*
X44672103Y106402397D01*
X44672104Y106402394D01*
X44772187Y106205975D01*
X44901752Y106027642D01*
X44901756Y106027637D01*
X45057636Y105871757D01*
X45057641Y105871753D01*
X45213192Y105758740D01*
X45235978Y105742185D01*
X45335562Y105691444D01*
X45432393Y105642105D01*
X45432396Y105642104D01*
X45537221Y105608045D01*
X45642049Y105573985D01*
X45859778Y105539500D01*
X45859779Y105539500D01*
X46080221Y105539500D01*
X46080222Y105539500D01*
X46297951Y105573985D01*
X46507606Y105642105D01*
X46704022Y105742185D01*
X46882365Y105871758D01*
X47038242Y106027635D01*
X47167815Y106205978D01*
X47267895Y106402394D01*
X47336015Y106612049D01*
X47347527Y106684734D01*
X47377456Y106747867D01*
X47436767Y106784799D01*
X47506630Y106783801D01*
X47564863Y106745191D01*
X47592473Y106684733D01*
X47603985Y106612048D01*
X47672103Y106402397D01*
X47672104Y106402394D01*
X47772187Y106205975D01*
X47901752Y106027642D01*
X47901756Y106027637D01*
X48057636Y105871757D01*
X48057641Y105871753D01*
X48213192Y105758740D01*
X48235978Y105742185D01*
X48335562Y105691444D01*
X48432393Y105642105D01*
X48432396Y105642104D01*
X48537221Y105608045D01*
X48642049Y105573985D01*
X48859778Y105539500D01*
X48859779Y105539500D01*
X49080221Y105539500D01*
X49080222Y105539500D01*
X49297951Y105573985D01*
X49507606Y105642105D01*
X49704022Y105742185D01*
X49882365Y105871758D01*
X50038242Y106027635D01*
X50167815Y106205978D01*
X50267895Y106402394D01*
X50336015Y106612049D01*
X50347527Y106684734D01*
X50377456Y106747867D01*
X50436767Y106784799D01*
X50506630Y106783801D01*
X50564863Y106745191D01*
X50592473Y106684733D01*
X50603985Y106612048D01*
X50672103Y106402397D01*
X50672104Y106402394D01*
X50772187Y106205975D01*
X50901752Y106027642D01*
X50901756Y106027637D01*
X51057636Y105871757D01*
X51057641Y105871753D01*
X51213192Y105758740D01*
X51235978Y105742185D01*
X51335562Y105691444D01*
X51432393Y105642105D01*
X51432396Y105642104D01*
X51537221Y105608045D01*
X51642049Y105573985D01*
X51859778Y105539500D01*
X51859779Y105539500D01*
X52080221Y105539500D01*
X52080222Y105539500D01*
X52297951Y105573985D01*
X52507606Y105642105D01*
X52704022Y105742185D01*
X52882365Y105871758D01*
X53038242Y106027635D01*
X53167815Y106205978D01*
X53267895Y106402394D01*
X53336015Y106612049D01*
X53347527Y106684734D01*
X53377456Y106747867D01*
X53436767Y106784799D01*
X53506630Y106783801D01*
X53564863Y106745191D01*
X53592473Y106684733D01*
X53603985Y106612048D01*
X53672103Y106402397D01*
X53672104Y106402394D01*
X53772187Y106205975D01*
X53901752Y106027642D01*
X53901756Y106027637D01*
X54057636Y105871757D01*
X54057641Y105871753D01*
X54213192Y105758740D01*
X54235978Y105742185D01*
X54335562Y105691444D01*
X54432393Y105642105D01*
X54432396Y105642104D01*
X54537221Y105608045D01*
X54642049Y105573985D01*
X54859778Y105539500D01*
X54859779Y105539500D01*
X55080221Y105539500D01*
X55080222Y105539500D01*
X55297951Y105573985D01*
X55507606Y105642105D01*
X55704022Y105742185D01*
X55882365Y105871758D01*
X56038242Y106027635D01*
X56167815Y106205978D01*
X56267895Y106402394D01*
X56336015Y106612049D01*
X56347527Y106684734D01*
X56377456Y106747867D01*
X56436767Y106784799D01*
X56506630Y106783801D01*
X56564863Y106745191D01*
X56592473Y106684733D01*
X56603985Y106612048D01*
X56672103Y106402397D01*
X56672104Y106402394D01*
X56772187Y106205975D01*
X56901752Y106027642D01*
X56901756Y106027637D01*
X57057636Y105871757D01*
X57057641Y105871753D01*
X57213192Y105758740D01*
X57235978Y105742185D01*
X57335562Y105691444D01*
X57432393Y105642105D01*
X57432396Y105642104D01*
X57537221Y105608045D01*
X57642049Y105573985D01*
X57859778Y105539500D01*
X57859779Y105539500D01*
X58080221Y105539500D01*
X58080222Y105539500D01*
X58297951Y105573985D01*
X58507606Y105642105D01*
X58704022Y105742185D01*
X58882365Y105871758D01*
X59038242Y106027635D01*
X59167815Y106205978D01*
X59267895Y106402394D01*
X59336015Y106612049D01*
X59347527Y106684734D01*
X59377456Y106747867D01*
X59436767Y106784799D01*
X59506630Y106783801D01*
X59564863Y106745191D01*
X59592473Y106684733D01*
X59603985Y106612048D01*
X59672103Y106402397D01*
X59672104Y106402394D01*
X59772187Y106205975D01*
X59901752Y106027642D01*
X59901756Y106027637D01*
X60057636Y105871757D01*
X60057641Y105871753D01*
X60213192Y105758740D01*
X60235978Y105742185D01*
X60335562Y105691444D01*
X60432393Y105642105D01*
X60432396Y105642104D01*
X60537221Y105608045D01*
X60642049Y105573985D01*
X60859778Y105539500D01*
X60859779Y105539500D01*
X61080221Y105539500D01*
X61080222Y105539500D01*
X61297951Y105573985D01*
X61507606Y105642105D01*
X61704022Y105742185D01*
X61882365Y105871758D01*
X62038242Y106027635D01*
X62167815Y106205978D01*
X62267895Y106402394D01*
X62336015Y106612049D01*
X62347527Y106684734D01*
X62377456Y106747867D01*
X62436767Y106784799D01*
X62506630Y106783801D01*
X62564863Y106745191D01*
X62592473Y106684733D01*
X62603985Y106612048D01*
X62672103Y106402397D01*
X62672104Y106402394D01*
X62772187Y106205975D01*
X62901752Y106027642D01*
X62901756Y106027637D01*
X63057636Y105871757D01*
X63057641Y105871753D01*
X63213192Y105758740D01*
X63235978Y105742185D01*
X63335562Y105691444D01*
X63432393Y105642105D01*
X63432396Y105642104D01*
X63537221Y105608045D01*
X63642049Y105573985D01*
X63859778Y105539500D01*
X63859779Y105539500D01*
X64080221Y105539500D01*
X64080222Y105539500D01*
X64297951Y105573985D01*
X64507606Y105642105D01*
X64704022Y105742185D01*
X64882365Y105871758D01*
X65038242Y106027635D01*
X65167815Y106205978D01*
X65267895Y106402394D01*
X65336015Y106612049D01*
X65347527Y106684734D01*
X65377456Y106747867D01*
X65436767Y106784799D01*
X65506630Y106783801D01*
X65564863Y106745191D01*
X65592473Y106684733D01*
X65603985Y106612048D01*
X65672103Y106402397D01*
X65672104Y106402394D01*
X65772187Y106205975D01*
X65901752Y106027642D01*
X65901756Y106027637D01*
X66057636Y105871757D01*
X66057641Y105871753D01*
X66213192Y105758740D01*
X66235978Y105742185D01*
X66335562Y105691444D01*
X66432393Y105642105D01*
X66432396Y105642104D01*
X66537221Y105608045D01*
X66642049Y105573985D01*
X66859778Y105539500D01*
X66859779Y105539500D01*
X67080221Y105539500D01*
X67080222Y105539500D01*
X67297951Y105573985D01*
X67507606Y105642105D01*
X67704022Y105742185D01*
X67882365Y105871758D01*
X68038242Y106027635D01*
X68167815Y106205978D01*
X68267895Y106402394D01*
X68336015Y106612049D01*
X68347527Y106684734D01*
X68377456Y106747867D01*
X68436767Y106784799D01*
X68506630Y106783801D01*
X68564863Y106745191D01*
X68592473Y106684733D01*
X68603985Y106612048D01*
X68672103Y106402397D01*
X68672104Y106402394D01*
X68772187Y106205975D01*
X68901752Y106027642D01*
X68901756Y106027637D01*
X69057636Y105871757D01*
X69057641Y105871753D01*
X69213192Y105758740D01*
X69235978Y105742185D01*
X69335562Y105691444D01*
X69432393Y105642105D01*
X69432396Y105642104D01*
X69537221Y105608045D01*
X69642049Y105573985D01*
X69859778Y105539500D01*
X69859779Y105539500D01*
X70080221Y105539500D01*
X70080222Y105539500D01*
X70297951Y105573985D01*
X70507606Y105642105D01*
X70704022Y105742185D01*
X70882365Y105871758D01*
X71038242Y106027635D01*
X71167815Y106205978D01*
X71267895Y106402394D01*
X71336015Y106612049D01*
X71370500Y106829778D01*
X71370500Y107250222D01*
X71336015Y107467951D01*
X71267895Y107677606D01*
X71267895Y107677607D01*
X71233237Y107745625D01*
X71167815Y107874022D01*
X71151260Y107896808D01*
X71038247Y108052359D01*
X71038243Y108052364D01*
X70882363Y108208244D01*
X70882358Y108208248D01*
X70704025Y108337813D01*
X70704024Y108337814D01*
X70704022Y108337815D01*
X70641096Y108369878D01*
X70507606Y108437896D01*
X70507603Y108437897D01*
X70477833Y108447569D01*
X70420158Y108487006D01*
X70392959Y108551364D01*
X70404873Y108620211D01*
X70452117Y108671687D01*
X70516151Y108689500D01*
X75114196Y108689500D01*
X75181235Y108669815D01*
X75226990Y108617011D01*
X75236934Y108547853D01*
X75207909Y108484297D01*
X75170491Y108455015D01*
X75019707Y108378187D01*
X74808254Y108224557D01*
X74623443Y108039746D01*
X74469813Y107828293D01*
X74351152Y107595409D01*
X74270387Y107346837D01*
X74229500Y107088690D01*
X74229500Y106827311D01*
X74270387Y106569164D01*
X74351152Y106320592D01*
X74351154Y106320589D01*
X74469813Y106087708D01*
X74623441Y105876257D01*
X74808257Y105691441D01*
X75019708Y105537813D01*
X75252589Y105419154D01*
X75252591Y105419153D01*
X75376877Y105378771D01*
X75501165Y105338387D01*
X75620726Y105319451D01*
X75759311Y105297500D01*
X75759316Y105297500D01*
X76020689Y105297500D01*
X76145835Y105317323D01*
X76278835Y105338387D01*
X76527411Y105419154D01*
X76760292Y105537813D01*
X76971743Y105691441D01*
X77156559Y105876257D01*
X77310187Y106087708D01*
X77428846Y106320589D01*
X77509613Y106569165D01*
X77543608Y106783801D01*
X77550500Y106827311D01*
X77550500Y107088690D01*
X77524915Y107250222D01*
X77509613Y107346835D01*
X77428846Y107595411D01*
X77310187Y107828292D01*
X77156559Y108039743D01*
X76971743Y108224559D01*
X76760292Y108378187D01*
X76643105Y108437897D01*
X76609509Y108455015D01*
X76558713Y108502990D01*
X76541918Y108570811D01*
X76564455Y108636946D01*
X76619171Y108680397D01*
X76665804Y108689500D01*
X87714196Y108689500D01*
X87781235Y108669815D01*
X87826990Y108617011D01*
X87836934Y108547853D01*
X87807909Y108484297D01*
X87770491Y108455015D01*
X87619707Y108378187D01*
X87408254Y108224557D01*
X87223443Y108039746D01*
X87069813Y107828293D01*
X86951152Y107595409D01*
X86870387Y107346837D01*
X86829500Y107088690D01*
X86829500Y106827311D01*
X86870387Y106569164D01*
X86951152Y106320592D01*
X86951154Y106320589D01*
X87069813Y106087708D01*
X87223441Y105876257D01*
X87408257Y105691441D01*
X87619708Y105537813D01*
X87852589Y105419154D01*
X87852591Y105419153D01*
X87976877Y105378771D01*
X88101165Y105338387D01*
X88220726Y105319451D01*
X88359311Y105297500D01*
X88359316Y105297500D01*
X88620689Y105297500D01*
X88745835Y105317323D01*
X88878835Y105338387D01*
X89127411Y105419154D01*
X89360292Y105537813D01*
X89571743Y105691441D01*
X89756559Y105876257D01*
X89910187Y106087708D01*
X90028846Y106320589D01*
X90109613Y106569165D01*
X90143608Y106783801D01*
X90150500Y106827311D01*
X90150500Y107088690D01*
X90124915Y107250222D01*
X90109613Y107346835D01*
X90028846Y107595411D01*
X89910187Y107828292D01*
X89756559Y108039743D01*
X89571743Y108224559D01*
X89360292Y108378187D01*
X89243105Y108437897D01*
X89209509Y108455015D01*
X89158713Y108502990D01*
X89141918Y108570811D01*
X89164455Y108636946D01*
X89219171Y108680397D01*
X89265804Y108689500D01*
X96589500Y108689500D01*
X96656539Y108669815D01*
X96702294Y108617011D01*
X96713500Y108565500D01*
X96713500Y9214500D01*
X96693815Y9147461D01*
X96641011Y9101706D01*
X96589500Y9090500D01*
X87767938Y9090500D01*
X87700899Y9110185D01*
X87655144Y9162989D01*
X87645200Y9232147D01*
X87674225Y9295703D01*
X87680257Y9302181D01*
X87745816Y9367740D01*
X87841789Y9520480D01*
X87901368Y9690747D01*
X87921565Y9870002D01*
X87901368Y10049257D01*
X87841789Y10219524D01*
X87828807Y10240184D01*
X87745815Y10372265D01*
X87618262Y10499818D01*
X87465524Y10595790D01*
X87465523Y10595791D01*
X87399044Y10619053D01*
X87342269Y10659775D01*
X87316522Y10724728D01*
X87316000Y10736094D01*
X87316000Y10903908D01*
X87335685Y10970947D01*
X87388489Y11016702D01*
X87399046Y11020950D01*
X87406813Y11023668D01*
X87465522Y11044211D01*
X87618262Y11140184D01*
X87745816Y11267738D01*
X87841789Y11420478D01*
X87901368Y11590745D01*
X87901369Y11590751D01*
X87921565Y11769997D01*
X87921565Y11770004D01*
X87901369Y11949250D01*
X87901368Y11949255D01*
X87841788Y12119524D01*
X87745815Y12272263D01*
X87618262Y12399816D01*
X87465523Y12495789D01*
X87295254Y12555369D01*
X87295249Y12555370D01*
X87116004Y12575565D01*
X87115996Y12575565D01*
X86936750Y12555370D01*
X86936745Y12555369D01*
X86766476Y12495789D01*
X86613736Y12399815D01*
X86610281Y12397059D01*
X86545595Y12370648D01*
X86532965Y12370003D01*
X78999035Y12370003D01*
X78931996Y12389688D01*
X78921719Y12397059D01*
X78918263Y12399815D01*
X78918262Y12399816D01*
X78844342Y12446263D01*
X78765523Y12495789D01*
X78595254Y12555369D01*
X78595249Y12555370D01*
X78416004Y12575565D01*
X78415996Y12575565D01*
X78236750Y12555370D01*
X78236745Y12555369D01*
X78066476Y12495789D01*
X77913737Y12399816D01*
X77786184Y12272263D01*
X77690211Y12119524D01*
X77630631Y11949255D01*
X77630630Y11949250D01*
X77610435Y11770004D01*
X77610435Y11769997D01*
X77630630Y11590751D01*
X77630633Y11590738D01*
X77690209Y11420481D01*
X77711893Y11385970D01*
X77730892Y11318733D01*
X77711893Y11254030D01*
X77690209Y11219520D01*
X77630633Y11049263D01*
X77630630Y11049250D01*
X77610435Y10870004D01*
X77610435Y10869997D01*
X77630630Y10690751D01*
X77630631Y10690746D01*
X77690211Y10520477D01*
X77783339Y10372265D01*
X77786184Y10367738D01*
X77913738Y10240184D01*
X78066478Y10144211D01*
X78132954Y10120950D01*
X78189730Y10080228D01*
X78215478Y10015276D01*
X78216000Y10003908D01*
X78216000Y9243247D01*
X78217304Y9240858D01*
X78216000Y9222624D01*
X78216000Y9218638D01*
X78215715Y9218638D01*
X78212320Y9171166D01*
X78170448Y9115233D01*
X78104984Y9090816D01*
X78096138Y9090500D01*
X-2761500Y9090500D01*
X-2828539Y9110185D01*
X-2874294Y9162989D01*
X-2885500Y9214500D01*
X-2885500Y26644000D01*
X-1390500Y26644000D01*
X-1390500Y11744000D01*
X3243408Y11744000D01*
X3310447Y11724315D01*
X3356202Y11671511D01*
X3360450Y11660954D01*
X3383710Y11594479D01*
X3386061Y11590738D01*
X3479684Y11441738D01*
X3607238Y11314184D01*
X3681156Y11267738D01*
X3757894Y11219520D01*
X3759978Y11218211D01*
X3930245Y11158632D01*
X3930250Y11158631D01*
X4109496Y11138435D01*
X4109500Y11138435D01*
X4109504Y11138435D01*
X4288749Y11158631D01*
X4288752Y11158632D01*
X4288755Y11158632D01*
X4459022Y11218211D01*
X4611762Y11314184D01*
X4621819Y11324241D01*
X4683142Y11357726D01*
X4752834Y11352742D01*
X4797181Y11324241D01*
X4807238Y11314184D01*
X4881156Y11267738D01*
X4957894Y11219520D01*
X4959978Y11218211D01*
X5130245Y11158632D01*
X5130250Y11158631D01*
X5309496Y11138435D01*
X5309500Y11138435D01*
X5309504Y11138435D01*
X5488749Y11158631D01*
X5488752Y11158632D01*
X5488755Y11158632D01*
X5659022Y11218211D01*
X5811762Y11314184D01*
X5821819Y11324241D01*
X5883142Y11357726D01*
X5952834Y11352742D01*
X5997181Y11324241D01*
X6007238Y11314184D01*
X6081156Y11267738D01*
X6157894Y11219520D01*
X6159978Y11218211D01*
X6330245Y11158632D01*
X6330250Y11158631D01*
X6509496Y11138435D01*
X6509500Y11138435D01*
X6509504Y11138435D01*
X6688749Y11158631D01*
X6688752Y11158632D01*
X6688755Y11158632D01*
X6859022Y11218211D01*
X7011762Y11314184D01*
X7021819Y11324241D01*
X7083142Y11357726D01*
X7152834Y11352742D01*
X7197181Y11324241D01*
X7207238Y11314184D01*
X7281156Y11267738D01*
X7357894Y11219520D01*
X7359978Y11218211D01*
X7530245Y11158632D01*
X7530250Y11158631D01*
X7709496Y11138435D01*
X7709500Y11138435D01*
X7709504Y11138435D01*
X7888749Y11158631D01*
X7888752Y11158632D01*
X7888755Y11158632D01*
X8059022Y11218211D01*
X8211762Y11314184D01*
X8339316Y11441738D01*
X8435289Y11594478D01*
X8494868Y11764745D01*
X8515065Y11944000D01*
X8514473Y11949250D01*
X8494869Y12123250D01*
X8494868Y12123255D01*
X8435288Y12293524D01*
X8370232Y12397059D01*
X8339316Y12446262D01*
X8211762Y12573816D01*
X8211760Y12573818D01*
X8067527Y12664446D01*
X8021237Y12716780D01*
X8009500Y12769439D01*
X8009500Y18000009D01*
X19152430Y18000009D01*
X19152430Y18000002D01*
X19172625Y17820756D01*
X19172626Y17820751D01*
X19232206Y17650482D01*
X19285304Y17565977D01*
X19304304Y17498740D01*
X19285304Y17434034D01*
X19232208Y17349532D01*
X19232204Y17349523D01*
X19172628Y17179267D01*
X19172625Y17179254D01*
X19152430Y17000008D01*
X19152430Y17000001D01*
X19172625Y16820755D01*
X19172626Y16820750D01*
X19232206Y16650481D01*
X19313718Y16520756D01*
X19328179Y16497742D01*
X19455733Y16370188D01*
X19608473Y16274215D01*
X19674950Y16250954D01*
X19731726Y16210232D01*
X19757474Y16145280D01*
X19757996Y16133912D01*
X19757996Y15083039D01*
X19738311Y15016000D01*
X19730943Y15005726D01*
X19728181Y15002263D01*
X19632208Y14849525D01*
X19572628Y14679256D01*
X19572627Y14679251D01*
X19552432Y14500005D01*
X19552432Y14499998D01*
X19572627Y14320752D01*
X19572628Y14320747D01*
X19632208Y14150478D01*
X19728181Y13997739D01*
X19855735Y13870185D01*
X20008475Y13774212D01*
X20178742Y13714633D01*
X20178747Y13714632D01*
X20357993Y13694436D01*
X20357997Y13694436D01*
X20358001Y13694436D01*
X20537246Y13714632D01*
X20537249Y13714633D01*
X20537252Y13714633D01*
X20707519Y13774212D01*
X20860259Y13870185D01*
X20987813Y13997739D01*
X21083786Y14150479D01*
X21107048Y14216959D01*
X21147768Y14273731D01*
X21212721Y14299478D01*
X21224088Y14300000D01*
X21891906Y14300000D01*
X21958945Y14280315D01*
X22004700Y14227511D01*
X22008939Y14216977D01*
X22032208Y14150479D01*
X22032209Y14150478D01*
X22032210Y14150475D01*
X22128181Y13997739D01*
X22255735Y13870185D01*
X22408475Y13774212D01*
X22578742Y13714633D01*
X22578747Y13714632D01*
X22757993Y13694436D01*
X22757997Y13694436D01*
X22758001Y13694436D01*
X22937246Y13714632D01*
X22937249Y13714633D01*
X22937252Y13714633D01*
X23107519Y13774212D01*
X23260259Y13870185D01*
X23270316Y13880242D01*
X23331639Y13913727D01*
X23401331Y13908743D01*
X23445678Y13880242D01*
X23455735Y13870185D01*
X23608475Y13774212D01*
X23778742Y13714633D01*
X23778747Y13714632D01*
X23957993Y13694436D01*
X23957997Y13694436D01*
X23958001Y13694436D01*
X24137246Y13714632D01*
X24137249Y13714633D01*
X24137252Y13714633D01*
X24307519Y13774212D01*
X24460259Y13870185D01*
X24470315Y13880241D01*
X24531638Y13913726D01*
X24601330Y13908742D01*
X24645677Y13880241D01*
X24655733Y13870185D01*
X24808473Y13774212D01*
X24978740Y13714633D01*
X24978745Y13714632D01*
X25157991Y13694436D01*
X25157995Y13694436D01*
X25157999Y13694436D01*
X25337244Y13714632D01*
X25337247Y13714633D01*
X25337250Y13714633D01*
X25507517Y13774212D01*
X25660257Y13870185D01*
X25670314Y13880242D01*
X25731637Y13913727D01*
X25801329Y13908743D01*
X25845676Y13880242D01*
X25855733Y13870185D01*
X26008473Y13774212D01*
X26178740Y13714633D01*
X26178745Y13714632D01*
X26357991Y13694436D01*
X26357995Y13694436D01*
X26357999Y13694436D01*
X26537244Y13714632D01*
X26537247Y13714633D01*
X26537250Y13714633D01*
X26707517Y13774212D01*
X26860257Y13870185D01*
X26870311Y13880241D01*
X26931631Y13913728D01*
X27001323Y13908749D01*
X27045678Y13880245D01*
X27055738Y13870185D01*
X27208478Y13774212D01*
X27378745Y13714633D01*
X27378750Y13714632D01*
X27557996Y13694436D01*
X27558000Y13694436D01*
X27558004Y13694436D01*
X27737249Y13714632D01*
X27737252Y13714633D01*
X27737255Y13714633D01*
X27907522Y13774212D01*
X28060262Y13870185D01*
X28070319Y13880242D01*
X28131642Y13913727D01*
X28201334Y13908743D01*
X28245681Y13880242D01*
X28255738Y13870185D01*
X28408478Y13774212D01*
X28578745Y13714633D01*
X28578750Y13714632D01*
X28757996Y13694436D01*
X28758000Y13694436D01*
X28758004Y13694436D01*
X28937249Y13714632D01*
X28937252Y13714633D01*
X28937255Y13714633D01*
X29107522Y13774212D01*
X29260262Y13870185D01*
X29270317Y13880240D01*
X29331640Y13913725D01*
X29401332Y13908741D01*
X29445679Y13880240D01*
X29455736Y13870183D01*
X29473973Y13858724D01*
X29608472Y13774212D01*
X29608476Y13774210D01*
X29778737Y13714633D01*
X29778743Y13714631D01*
X29778748Y13714630D01*
X29957994Y13694434D01*
X29957998Y13694434D01*
X29958002Y13694434D01*
X30137247Y13714630D01*
X30137250Y13714631D01*
X30137253Y13714631D01*
X30307520Y13774210D01*
X30460260Y13870183D01*
X30470318Y13880241D01*
X30531641Y13913726D01*
X30601333Y13908742D01*
X30645680Y13880241D01*
X30655736Y13870185D01*
X30808476Y13774212D01*
X30978743Y13714633D01*
X30978748Y13714632D01*
X31157994Y13694436D01*
X31157998Y13694436D01*
X31158002Y13694436D01*
X31337247Y13714632D01*
X31337250Y13714633D01*
X31337253Y13714633D01*
X31507520Y13774212D01*
X31660260Y13870185D01*
X31670313Y13880240D01*
X31731633Y13913727D01*
X31801325Y13908748D01*
X31845680Y13880244D01*
X31855741Y13870183D01*
X31873978Y13858724D01*
X32008477Y13774212D01*
X32008481Y13774210D01*
X32178742Y13714633D01*
X32178748Y13714631D01*
X32178753Y13714630D01*
X32357999Y13694434D01*
X32358003Y13694434D01*
X32358007Y13694434D01*
X32537252Y13714630D01*
X32537255Y13714631D01*
X32537258Y13714631D01*
X32707525Y13774210D01*
X32860265Y13870183D01*
X32870319Y13880239D01*
X32931639Y13913726D01*
X33001331Y13908747D01*
X33045686Y13880243D01*
X33055744Y13870185D01*
X33208484Y13774212D01*
X33378751Y13714633D01*
X33378756Y13714632D01*
X33558002Y13694436D01*
X33558006Y13694436D01*
X33558010Y13694436D01*
X33737255Y13714632D01*
X33737258Y13714633D01*
X33737261Y13714633D01*
X33907528Y13774212D01*
X34060268Y13870185D01*
X34070317Y13880236D01*
X34131637Y13913723D01*
X34201329Y13908744D01*
X34245684Y13880240D01*
X34255739Y13870185D01*
X34408479Y13774212D01*
X34578746Y13714633D01*
X34578751Y13714632D01*
X34757997Y13694436D01*
X34758001Y13694436D01*
X34758005Y13694436D01*
X34937250Y13714632D01*
X34937253Y13714633D01*
X34937256Y13714633D01*
X35107523Y13774212D01*
X35260263Y13870185D01*
X35270319Y13880241D01*
X35331642Y13913726D01*
X35401334Y13908742D01*
X35445681Y13880241D01*
X35455739Y13870183D01*
X35473976Y13858724D01*
X35608475Y13774212D01*
X35608479Y13774210D01*
X35778740Y13714633D01*
X35778746Y13714631D01*
X35778751Y13714630D01*
X35957997Y13694434D01*
X35958001Y13694434D01*
X35958005Y13694434D01*
X36137250Y13714630D01*
X36137253Y13714631D01*
X36137256Y13714631D01*
X36307523Y13774210D01*
X36460263Y13870183D01*
X36470317Y13880239D01*
X36531637Y13913726D01*
X36601329Y13908747D01*
X36645684Y13880243D01*
X36655742Y13870185D01*
X36808482Y13774212D01*
X36978749Y13714633D01*
X36978754Y13714632D01*
X37158000Y13694436D01*
X37158004Y13694436D01*
X37158008Y13694436D01*
X37337253Y13714632D01*
X37337256Y13714633D01*
X37337259Y13714633D01*
X37507526Y13774212D01*
X37660266Y13870185D01*
X37670322Y13880241D01*
X37731645Y13913726D01*
X37801337Y13908742D01*
X37845684Y13880241D01*
X37855742Y13870183D01*
X37873979Y13858724D01*
X38008478Y13774212D01*
X38008482Y13774210D01*
X38178743Y13714633D01*
X38178749Y13714631D01*
X38178754Y13714630D01*
X38358000Y13694434D01*
X38358004Y13694434D01*
X38358008Y13694434D01*
X38537253Y13714630D01*
X38537256Y13714631D01*
X38537259Y13714631D01*
X38707526Y13774210D01*
X38860266Y13870183D01*
X38870317Y13880236D01*
X38931637Y13913723D01*
X39001329Y13908744D01*
X39045684Y13880240D01*
X39055739Y13870185D01*
X39208479Y13774212D01*
X39378746Y13714633D01*
X39378751Y13714632D01*
X39557997Y13694436D01*
X39558001Y13694436D01*
X39558005Y13694436D01*
X39737250Y13714632D01*
X39737253Y13714633D01*
X39737256Y13714633D01*
X39907523Y13774212D01*
X40060263Y13870185D01*
X40070315Y13880239D01*
X40131635Y13913726D01*
X40201327Y13908747D01*
X40245682Y13880243D01*
X40255740Y13870185D01*
X40408480Y13774212D01*
X40578747Y13714633D01*
X40578752Y13714632D01*
X40757998Y13694436D01*
X40758002Y13694436D01*
X40758006Y13694436D01*
X40937251Y13714632D01*
X40937254Y13714633D01*
X40937257Y13714633D01*
X41107524Y13774212D01*
X41260264Y13870185D01*
X41270318Y13880241D01*
X41331638Y13913728D01*
X41401330Y13908749D01*
X41445685Y13880245D01*
X41455745Y13870185D01*
X41608485Y13774212D01*
X41778752Y13714633D01*
X41778757Y13714632D01*
X41958003Y13694436D01*
X41958007Y13694436D01*
X41958011Y13694436D01*
X42137256Y13714632D01*
X42137259Y13714633D01*
X42137262Y13714633D01*
X42307529Y13774212D01*
X42460269Y13870185D01*
X42470326Y13880242D01*
X42531649Y13913727D01*
X42601341Y13908743D01*
X42645688Y13880242D01*
X42655745Y13870185D01*
X42808485Y13774212D01*
X42978752Y13714633D01*
X42978757Y13714632D01*
X43158003Y13694436D01*
X43158007Y13694436D01*
X43158011Y13694436D01*
X43337256Y13714632D01*
X43337259Y13714633D01*
X43337262Y13714633D01*
X43507529Y13774212D01*
X43660269Y13870185D01*
X43670325Y13880241D01*
X43731648Y13913726D01*
X43801340Y13908742D01*
X43845687Y13880241D01*
X43855743Y13870185D01*
X44008483Y13774212D01*
X44178750Y13714633D01*
X44178755Y13714632D01*
X44358001Y13694436D01*
X44358005Y13694436D01*
X44358009Y13694436D01*
X44537254Y13714632D01*
X44537257Y13714633D01*
X44537260Y13714633D01*
X44707527Y13774212D01*
X44860267Y13870185D01*
X44870324Y13880242D01*
X44931647Y13913727D01*
X45001339Y13908743D01*
X45045686Y13880242D01*
X45055743Y13870185D01*
X45208483Y13774212D01*
X45378750Y13714633D01*
X45378755Y13714632D01*
X45558001Y13694436D01*
X45558005Y13694436D01*
X45558009Y13694436D01*
X45737254Y13714632D01*
X45737257Y13714633D01*
X45737260Y13714633D01*
X45907527Y13774212D01*
X46060267Y13870185D01*
X46070322Y13880242D01*
X46131642Y13913729D01*
X46201334Y13908750D01*
X46245689Y13880246D01*
X46255750Y13870185D01*
X46408490Y13774212D01*
X46578757Y13714633D01*
X46578762Y13714632D01*
X46758008Y13694436D01*
X46758012Y13694436D01*
X46758016Y13694436D01*
X46937261Y13714632D01*
X46937264Y13714633D01*
X46937267Y13714633D01*
X47107534Y13774212D01*
X47260274Y13870185D01*
X47270330Y13880241D01*
X47331653Y13913726D01*
X47401345Y13908742D01*
X47445692Y13880241D01*
X47455748Y13870185D01*
X47608488Y13774212D01*
X47778755Y13714633D01*
X47778760Y13714632D01*
X47958006Y13694436D01*
X47958010Y13694436D01*
X47958014Y13694436D01*
X48137259Y13714632D01*
X48137262Y13714633D01*
X48137265Y13714633D01*
X48307532Y13774212D01*
X48460272Y13870185D01*
X48470327Y13880240D01*
X48531650Y13913725D01*
X48601342Y13908741D01*
X48645689Y13880240D01*
X48655746Y13870183D01*
X48673983Y13858724D01*
X48808482Y13774212D01*
X48808486Y13774210D01*
X48978747Y13714633D01*
X48978753Y13714631D01*
X48978758Y13714630D01*
X49158004Y13694434D01*
X49158008Y13694434D01*
X49158012Y13694434D01*
X49337257Y13714630D01*
X49337260Y13714631D01*
X49337263Y13714631D01*
X49507530Y13774210D01*
X49660270Y13870183D01*
X49670329Y13880242D01*
X49731652Y13913727D01*
X49801344Y13908743D01*
X49845691Y13880242D01*
X49855748Y13870185D01*
X50008488Y13774212D01*
X50178755Y13714633D01*
X50178760Y13714632D01*
X50358006Y13694436D01*
X50358010Y13694436D01*
X50358014Y13694436D01*
X50537259Y13714632D01*
X50537262Y13714633D01*
X50537265Y13714633D01*
X50707532Y13774212D01*
X50860272Y13870185D01*
X50870325Y13880240D01*
X50931645Y13913727D01*
X51001337Y13908748D01*
X51045692Y13880244D01*
X51055751Y13870185D01*
X51208491Y13774212D01*
X51378758Y13714633D01*
X51378763Y13714632D01*
X51558009Y13694436D01*
X51558013Y13694436D01*
X51558017Y13694436D01*
X51737262Y13714632D01*
X51737265Y13714633D01*
X51737268Y13714633D01*
X51907535Y13774212D01*
X52060275Y13870185D01*
X52070331Y13880241D01*
X52131654Y13913726D01*
X52201346Y13908742D01*
X52245693Y13880241D01*
X52255751Y13870183D01*
X52273988Y13858724D01*
X52408487Y13774212D01*
X52408491Y13774210D01*
X52578752Y13714633D01*
X52578758Y13714631D01*
X52578763Y13714630D01*
X52758009Y13694434D01*
X52758013Y13694434D01*
X52758017Y13694434D01*
X52937262Y13714630D01*
X52937265Y13714631D01*
X52937268Y13714631D01*
X53107535Y13774210D01*
X53260275Y13870183D01*
X53270332Y13880240D01*
X53331655Y13913725D01*
X53401347Y13908741D01*
X53445694Y13880240D01*
X53455749Y13870185D01*
X53608489Y13774212D01*
X53778756Y13714633D01*
X53778761Y13714632D01*
X53958007Y13694436D01*
X53958011Y13694436D01*
X53958015Y13694436D01*
X54137260Y13714632D01*
X54137263Y13714633D01*
X54137266Y13714633D01*
X54307533Y13774212D01*
X54460273Y13870185D01*
X54470330Y13880242D01*
X54531653Y13913727D01*
X54601345Y13908743D01*
X54645692Y13880242D01*
X54655749Y13870185D01*
X54808489Y13774212D01*
X54978756Y13714633D01*
X54978761Y13714632D01*
X55158007Y13694436D01*
X55158011Y13694436D01*
X55158015Y13694436D01*
X55337260Y13714632D01*
X55337263Y13714633D01*
X55337266Y13714633D01*
X55507533Y13774212D01*
X55642033Y13858725D01*
X55709269Y13877725D01*
X55773976Y13858725D01*
X55827860Y13824868D01*
X55908474Y13774213D01*
X56078744Y13714633D01*
X56078749Y13714632D01*
X56257995Y13694436D01*
X56257999Y13694436D01*
X56258003Y13694436D01*
X56437248Y13714632D01*
X56437251Y13714633D01*
X56437254Y13714633D01*
X56607521Y13774212D01*
X56760261Y13870185D01*
X56770317Y13880241D01*
X56831640Y13913726D01*
X56901332Y13908742D01*
X56945679Y13880241D01*
X56955737Y13870183D01*
X56973974Y13858724D01*
X57108473Y13774212D01*
X57108477Y13774210D01*
X57278738Y13714633D01*
X57278744Y13714631D01*
X57278749Y13714630D01*
X57457995Y13694434D01*
X57457999Y13694434D01*
X57458003Y13694434D01*
X57637248Y13714630D01*
X57637251Y13714631D01*
X57637254Y13714631D01*
X57807521Y13774210D01*
X57960261Y13870183D01*
X57970319Y13880241D01*
X58031642Y13913726D01*
X58101334Y13908742D01*
X58145681Y13880241D01*
X58155737Y13870185D01*
X58308477Y13774212D01*
X58478744Y13714633D01*
X58478749Y13714632D01*
X58657995Y13694436D01*
X58657999Y13694436D01*
X58658003Y13694436D01*
X58837248Y13714632D01*
X58837251Y13714633D01*
X58837254Y13714633D01*
X59007521Y13774212D01*
X59160261Y13870185D01*
X59170311Y13880237D01*
X59231631Y13913724D01*
X59301323Y13908745D01*
X59345678Y13880241D01*
X59355734Y13870185D01*
X59508474Y13774212D01*
X59678741Y13714633D01*
X59678746Y13714632D01*
X59857992Y13694436D01*
X59857996Y13694436D01*
X59858000Y13694436D01*
X60037245Y13714632D01*
X60037248Y13714633D01*
X60037251Y13714633D01*
X60207518Y13774212D01*
X60360258Y13870185D01*
X60370309Y13880238D01*
X60431629Y13913725D01*
X60501321Y13908746D01*
X60545676Y13880242D01*
X60555735Y13870183D01*
X60573972Y13858724D01*
X60708471Y13774212D01*
X60708475Y13774210D01*
X60878736Y13714633D01*
X60878742Y13714631D01*
X60878747Y13714630D01*
X61057993Y13694434D01*
X61057997Y13694434D01*
X61058001Y13694434D01*
X61237246Y13714630D01*
X61237249Y13714631D01*
X61237252Y13714631D01*
X61407519Y13774210D01*
X61560259Y13870183D01*
X61687813Y13997737D01*
X61783786Y14150477D01*
X61814977Y14239617D01*
X61844338Y14286343D01*
X61857995Y14300000D01*
X61857996Y14300000D01*
X61857996Y14443639D01*
X61858776Y14457524D01*
X61863562Y14499998D01*
X61863562Y14500002D01*
X61858776Y14542476D01*
X61857996Y14556360D01*
X61857996Y15833913D01*
X61877681Y15900952D01*
X61930485Y15946707D01*
X61941035Y15950953D01*
X62007520Y15974216D01*
X62160260Y16070189D01*
X62287814Y16197743D01*
X62383787Y16350483D01*
X62443366Y16520750D01*
X62463563Y16700005D01*
X62449958Y16820750D01*
X62443367Y16879255D01*
X62443364Y16879268D01*
X62381487Y17056100D01*
X62383634Y17056852D01*
X62374031Y17115134D01*
X62382389Y17143595D01*
X62381484Y17143911D01*
X62443361Y17320744D01*
X62443364Y17320757D01*
X62463560Y17500003D01*
X62463560Y17500010D01*
X62443364Y17679256D01*
X62443363Y17679261D01*
X62393854Y17820750D01*
X62383784Y17849528D01*
X62287811Y18002268D01*
X62160257Y18129822D01*
X62007519Y18225794D01*
X62007518Y18225795D01*
X61941040Y18249057D01*
X61884264Y18289779D01*
X61858518Y18354732D01*
X61857996Y18366098D01*
X61857996Y23333908D01*
X61877681Y23400947D01*
X61930485Y23446702D01*
X61941035Y23450948D01*
X62007520Y23474211D01*
X62160260Y23570184D01*
X62287814Y23697738D01*
X62383787Y23850478D01*
X62443366Y24020745D01*
X62463563Y24200000D01*
X62461224Y24220758D01*
X62443367Y24379250D01*
X62443364Y24379263D01*
X62381488Y24556094D01*
X62383633Y24556845D01*
X62374035Y24615145D01*
X62382391Y24643590D01*
X62381487Y24643906D01*
X62443364Y24820739D01*
X62443367Y24820752D01*
X62463563Y24999998D01*
X62463563Y25000005D01*
X62443367Y25179251D01*
X62443364Y25179264D01*
X62381488Y25356095D01*
X62383633Y25356846D01*
X62374035Y25415146D01*
X62382391Y25443591D01*
X62381487Y25443907D01*
X62443364Y25620740D01*
X62443367Y25620753D01*
X62463563Y25799999D01*
X62463563Y25800006D01*
X62443367Y25979252D01*
X62443366Y25979257D01*
X62381487Y26156097D01*
X62383639Y26156851D01*
X62374032Y26215112D01*
X62382393Y26243588D01*
X62381487Y26243905D01*
X62443366Y26420746D01*
X62443367Y26420751D01*
X62463563Y26599997D01*
X62463563Y26600004D01*
X62443367Y26779250D01*
X62443364Y26779263D01*
X62381487Y26956095D01*
X62383635Y26956847D01*
X62374033Y27015128D01*
X62382391Y27043588D01*
X62381487Y27043904D01*
X62443364Y27220737D01*
X62443367Y27220750D01*
X62463563Y27399996D01*
X62463563Y27400003D01*
X62443367Y27579249D01*
X62443366Y27579254D01*
X62381487Y27756094D01*
X62383632Y27756845D01*
X62374034Y27815145D01*
X62382388Y27843591D01*
X62381484Y27843907D01*
X62443363Y28020748D01*
X62443364Y28020753D01*
X62463560Y28199999D01*
X62463560Y28200006D01*
X62443364Y28379252D01*
X62443363Y28379257D01*
X62381484Y28556097D01*
X62383637Y28556851D01*
X62374030Y28615112D01*
X62382392Y28643589D01*
X62381487Y28643905D01*
X62443364Y28820738D01*
X62443367Y28820751D01*
X62463563Y28999997D01*
X62463563Y29000004D01*
X62443367Y29179250D01*
X62443364Y29179263D01*
X62381488Y29356094D01*
X62383633Y29356845D01*
X62374035Y29415145D01*
X62382391Y29443590D01*
X62381487Y29443906D01*
X62443364Y29620739D01*
X62443367Y29620752D01*
X62463563Y29799998D01*
X62463563Y29800005D01*
X62443367Y29979251D01*
X62443364Y29979264D01*
X62381487Y30156096D01*
X62383635Y30156848D01*
X62374033Y30215129D01*
X62382391Y30243589D01*
X62381487Y30243905D01*
X62443364Y30420738D01*
X62443367Y30420751D01*
X62463563Y30599997D01*
X62463563Y30600004D01*
X62443367Y30779250D01*
X62443364Y30779263D01*
X62381488Y30956094D01*
X62383633Y30956845D01*
X62374035Y31015145D01*
X62382391Y31043590D01*
X62381487Y31043906D01*
X62443364Y31220739D01*
X62443367Y31220752D01*
X62463563Y31399998D01*
X62463563Y31400005D01*
X62443367Y31579251D01*
X62443364Y31579264D01*
X62381488Y31756095D01*
X62383633Y31756846D01*
X62374035Y31815146D01*
X62382391Y31843591D01*
X62381487Y31843907D01*
X62443364Y32020740D01*
X62443367Y32020753D01*
X62463563Y32199999D01*
X62463563Y32200006D01*
X62443367Y32379252D01*
X62443366Y32379257D01*
X62381487Y32556097D01*
X62383639Y32556851D01*
X62374032Y32615112D01*
X62382393Y32643588D01*
X62381487Y32643905D01*
X62443366Y32820746D01*
X62443367Y32820751D01*
X62463563Y32999997D01*
X62463563Y33000004D01*
X62443367Y33179250D01*
X62443364Y33179263D01*
X62381488Y33356094D01*
X62383633Y33356845D01*
X62374035Y33415145D01*
X62382391Y33443590D01*
X62381487Y33443906D01*
X62443364Y33620739D01*
X62443367Y33620752D01*
X62463563Y33799998D01*
X62463563Y33800005D01*
X62443367Y33979251D01*
X62443366Y33979256D01*
X62381487Y34156096D01*
X62383639Y34156850D01*
X62374032Y34215111D01*
X62382393Y34243587D01*
X62381487Y34243904D01*
X62443366Y34420745D01*
X62443367Y34420750D01*
X62463563Y34599996D01*
X62463563Y34600003D01*
X62443367Y34779249D01*
X62443364Y34779262D01*
X62381488Y34956093D01*
X62383633Y34956844D01*
X62374035Y35015144D01*
X62382391Y35043589D01*
X62381487Y35043905D01*
X62443364Y35220738D01*
X62443367Y35220751D01*
X62463563Y35399997D01*
X62463563Y35400004D01*
X62443367Y35579250D01*
X62443364Y35579263D01*
X62381488Y35756094D01*
X62383633Y35756845D01*
X62374035Y35815145D01*
X62382391Y35843590D01*
X62381487Y35843906D01*
X62443364Y36020739D01*
X62443367Y36020752D01*
X62463563Y36199998D01*
X62463563Y36200005D01*
X62443367Y36379251D01*
X62443366Y36379256D01*
X62381487Y36556096D01*
X62383638Y36556849D01*
X62374030Y36615113D01*
X62382392Y36643588D01*
X62381484Y36643905D01*
X62443363Y36820746D01*
X62443364Y36820751D01*
X62463560Y36999997D01*
X62463560Y37000004D01*
X62443364Y37179250D01*
X62443361Y37179263D01*
X62381485Y37356094D01*
X62383630Y37356845D01*
X62374032Y37415145D01*
X62382388Y37443590D01*
X62381484Y37443906D01*
X62443361Y37620739D01*
X62443364Y37620752D01*
X62463560Y37799998D01*
X62463560Y37800005D01*
X62443364Y37979251D01*
X62443363Y37979256D01*
X62381484Y38156096D01*
X62383630Y38156848D01*
X62374034Y38215145D01*
X62382389Y38243592D01*
X62381487Y38243907D01*
X62443364Y38420740D01*
X62443367Y38420753D01*
X62463563Y38599999D01*
X62463563Y38600006D01*
X62443367Y38779252D01*
X62443366Y38779257D01*
X62381487Y38956097D01*
X62383639Y38956851D01*
X62374032Y39015112D01*
X62382393Y39043588D01*
X62381487Y39043905D01*
X62443366Y39220746D01*
X62443367Y39220751D01*
X62463563Y39399997D01*
X62463563Y39400004D01*
X62443367Y39579250D01*
X62443364Y39579263D01*
X62381488Y39756094D01*
X62383633Y39756845D01*
X62374035Y39815145D01*
X62382391Y39843590D01*
X62381487Y39843906D01*
X62443364Y40020739D01*
X62443367Y40020752D01*
X62463563Y40199998D01*
X62463563Y40200005D01*
X62443367Y40379251D01*
X62443366Y40379256D01*
X62381487Y40556096D01*
X62383635Y40556848D01*
X62374032Y40615130D01*
X62382390Y40643587D01*
X62381484Y40643904D01*
X62443361Y40820737D01*
X62443364Y40820750D01*
X62463560Y40999996D01*
X62463560Y41000003D01*
X62443364Y41179249D01*
X62443361Y41179262D01*
X62381485Y41356093D01*
X62383630Y41356844D01*
X62374032Y41415144D01*
X62382388Y41443589D01*
X62381484Y41443905D01*
X62443361Y41620738D01*
X62443364Y41620751D01*
X62463560Y41799997D01*
X62463560Y41800004D01*
X62443364Y41979250D01*
X62443361Y41979263D01*
X62381485Y42156094D01*
X62383630Y42156845D01*
X62374032Y42215145D01*
X62382388Y42243590D01*
X62381484Y42243906D01*
X62443361Y42420739D01*
X62443364Y42420752D01*
X62463560Y42599998D01*
X62463560Y42600005D01*
X62443364Y42779251D01*
X62443361Y42779264D01*
X62381485Y42956095D01*
X62383634Y42956848D01*
X62374032Y43015127D01*
X62382389Y43043590D01*
X62381487Y43043905D01*
X62443364Y43220738D01*
X62443367Y43220751D01*
X62463563Y43399997D01*
X62463563Y43400004D01*
X62443367Y43579250D01*
X62443364Y43579263D01*
X62381488Y43756094D01*
X62383633Y43756845D01*
X62374035Y43815145D01*
X62382391Y43843590D01*
X62381487Y43843906D01*
X62443364Y44020739D01*
X62443367Y44020752D01*
X62463563Y44199998D01*
X62463563Y44200005D01*
X62443367Y44379251D01*
X62443364Y44379264D01*
X62381487Y44556096D01*
X62383635Y44556848D01*
X62374033Y44615129D01*
X62382390Y44643590D01*
X62381487Y44643906D01*
X62443364Y44820739D01*
X62443367Y44820752D01*
X62463563Y44999998D01*
X62463563Y45000005D01*
X62443367Y45179251D01*
X62443364Y45179264D01*
X62381487Y45356096D01*
X62383636Y45356849D01*
X62374034Y45415128D01*
X62382390Y45443586D01*
X62381487Y45443902D01*
X62443364Y45620735D01*
X62443367Y45620748D01*
X62463563Y45799994D01*
X62463563Y45800001D01*
X62443367Y45979247D01*
X62443366Y45979252D01*
X62381487Y46156092D01*
X62383635Y46156844D01*
X62374031Y46215127D01*
X62382388Y46243590D01*
X62381484Y46243906D01*
X62443361Y46420739D01*
X62443364Y46420752D01*
X62463560Y46599998D01*
X62463560Y46600005D01*
X62443364Y46779251D01*
X62443361Y46779264D01*
X62381485Y46956095D01*
X62383630Y46956846D01*
X62374032Y47015146D01*
X62382388Y47043591D01*
X62381484Y47043907D01*
X62443361Y47220740D01*
X62443364Y47220753D01*
X62463560Y47399999D01*
X62463560Y47400006D01*
X62443364Y47579252D01*
X62443363Y47579257D01*
X62381484Y47756097D01*
X62383637Y47756851D01*
X62374030Y47815112D01*
X62382392Y47843589D01*
X62381487Y47843905D01*
X62443364Y48020738D01*
X62443367Y48020751D01*
X62463563Y48199997D01*
X62463563Y48200004D01*
X62443367Y48379250D01*
X62443364Y48379263D01*
X62381488Y48556094D01*
X62383633Y48556845D01*
X62374035Y48615145D01*
X62382391Y48643590D01*
X62381487Y48643906D01*
X62443364Y48820739D01*
X62443367Y48820752D01*
X62463563Y48999998D01*
X62463563Y49000005D01*
X62443367Y49179251D01*
X62443364Y49179264D01*
X62381488Y49356095D01*
X62383633Y49356846D01*
X62374035Y49415146D01*
X62382391Y49443591D01*
X62381487Y49443907D01*
X62443364Y49620740D01*
X62443367Y49620753D01*
X62463563Y49799999D01*
X62463563Y49800006D01*
X62443367Y49979252D01*
X62443366Y49979257D01*
X62381487Y50156097D01*
X62383639Y50156851D01*
X62374032Y50215112D01*
X62382393Y50243588D01*
X62381487Y50243905D01*
X62443366Y50420746D01*
X62443367Y50420751D01*
X62463563Y50599997D01*
X62463563Y50600004D01*
X62443367Y50779250D01*
X62443364Y50779263D01*
X62381488Y50956094D01*
X62383633Y50956845D01*
X62374035Y51015145D01*
X62382391Y51043590D01*
X62381487Y51043906D01*
X62443364Y51220739D01*
X62443367Y51220752D01*
X62463563Y51399998D01*
X62463563Y51400005D01*
X62443367Y51579251D01*
X62443366Y51579256D01*
X62404965Y51689000D01*
X62383787Y51749523D01*
X62287814Y51902263D01*
X62160260Y52029817D01*
X62007518Y52125792D01*
X61941042Y52149053D01*
X61884267Y52189775D01*
X61858520Y52254728D01*
X61857998Y52266094D01*
X61857998Y53133913D01*
X61877683Y53200952D01*
X61930487Y53246707D01*
X61941045Y53250955D01*
X62007520Y53274215D01*
X62160260Y53370188D01*
X62287814Y53497742D01*
X62383787Y53650482D01*
X62443366Y53820749D01*
X62459507Y53964003D01*
X62463563Y54000001D01*
X62463563Y54000007D01*
X62454751Y54078212D01*
X62450371Y54117086D01*
X62462425Y54185907D01*
X62509774Y54237286D01*
X62577384Y54254911D01*
X62643790Y54233185D01*
X62661272Y54218650D01*
X62705738Y54174184D01*
X62796080Y54117418D01*
X62837398Y54091456D01*
X62858478Y54078211D01*
X62899837Y54063739D01*
X63028745Y54018632D01*
X63028750Y54018631D01*
X63207996Y53998435D01*
X63208000Y53998435D01*
X63208004Y53998435D01*
X63387249Y54018631D01*
X63387251Y54018632D01*
X63387255Y54018632D01*
X63387258Y54018634D01*
X63387262Y54018634D01*
X63516163Y54063739D01*
X63557522Y54078211D01*
X63557531Y54078217D01*
X63561440Y54080099D01*
X63630380Y54091456D01*
X63694517Y54063739D01*
X63720243Y54034356D01*
X63764449Y53964003D01*
X63892003Y53836449D01*
X64044743Y53740476D01*
X64215010Y53680897D01*
X64215015Y53680896D01*
X64394261Y53660700D01*
X64394265Y53660700D01*
X64394269Y53660700D01*
X64573514Y53680896D01*
X64573517Y53680897D01*
X64573520Y53680897D01*
X64743787Y53740476D01*
X64896527Y53836449D01*
X65024081Y53964003D01*
X65120054Y54116743D01*
X65179633Y54287010D01*
X65179634Y54287016D01*
X65199830Y54466262D01*
X65199830Y54466269D01*
X65179634Y54645515D01*
X65179633Y54645520D01*
X65120053Y54815790D01*
X65045529Y54934392D01*
X65026528Y55001629D01*
X65035921Y55041770D01*
X65034019Y55042435D01*
X65095896Y55219268D01*
X65095899Y55219281D01*
X65116095Y55398527D01*
X65116095Y55398534D01*
X65095899Y55577780D01*
X65095898Y55577785D01*
X65069777Y55652435D01*
X65036319Y55748052D01*
X64940346Y55900792D01*
X64812792Y56028346D01*
X64789521Y56042968D01*
X64660053Y56124319D01*
X64489784Y56183899D01*
X64489780Y56183900D01*
X64369082Y56197499D01*
X64304668Y56224566D01*
X64265113Y56282161D01*
X64259746Y56334603D01*
X64267565Y56403998D01*
X64267565Y56404004D01*
X64247369Y56583250D01*
X64247368Y56583255D01*
X64228474Y56637250D01*
X64187789Y56753522D01*
X64178214Y56768760D01*
X64126308Y56851368D01*
X64091816Y56906262D01*
X63964262Y57033816D01*
X63874846Y57090000D01*
X63811523Y57129789D01*
X63641254Y57189369D01*
X63641249Y57189370D01*
X63462004Y57209565D01*
X63461996Y57209565D01*
X63282750Y57189370D01*
X63282745Y57189369D01*
X63112476Y57129789D01*
X62959737Y57033816D01*
X62832184Y56906263D01*
X62736211Y56753524D01*
X62676631Y56583255D01*
X62676630Y56583250D01*
X62656435Y56404004D01*
X62656435Y56403997D01*
X62676630Y56224751D01*
X62676631Y56224746D01*
X62736211Y56054477D01*
X62832184Y55901738D01*
X62959737Y55774185D01*
X62965184Y55769841D01*
X62963493Y55767722D01*
X63001614Y55724621D01*
X63012261Y55655568D01*
X62983884Y55591720D01*
X62930305Y55554924D01*
X62858480Y55529792D01*
X62705737Y55433816D01*
X62578184Y55306263D01*
X62482211Y55153524D01*
X62422631Y54983255D01*
X62422630Y54983250D01*
X62402435Y54804004D01*
X62402435Y54803997D01*
X62415626Y54686919D01*
X62403571Y54618097D01*
X62356222Y54566718D01*
X62288612Y54549094D01*
X62222206Y54570821D01*
X62204725Y54585355D01*
X62160260Y54629820D01*
X62007521Y54725793D01*
X61837252Y54785373D01*
X61837247Y54785374D01*
X61658002Y54805569D01*
X61657994Y54805569D01*
X61478748Y54785374D01*
X61478735Y54785371D01*
X61301904Y54723494D01*
X61301153Y54725639D01*
X61242838Y54716047D01*
X61214408Y54724395D01*
X61214094Y54723496D01*
X61037262Y54785373D01*
X61037249Y54785376D01*
X60858004Y54805571D01*
X60857996Y54805571D01*
X60678750Y54785376D01*
X60678737Y54785373D01*
X60501906Y54723496D01*
X60501156Y54725640D01*
X60442839Y54716046D01*
X60414407Y54724397D01*
X60414093Y54723496D01*
X60237261Y54785373D01*
X60237248Y54785376D01*
X60058003Y54805571D01*
X60057995Y54805571D01*
X59878749Y54785376D01*
X59878736Y54785373D01*
X59701905Y54723496D01*
X59701156Y54725637D01*
X59642820Y54716048D01*
X59614410Y54724395D01*
X59614095Y54723493D01*
X59437254Y54785373D01*
X59437249Y54785374D01*
X59258004Y54805569D01*
X59257996Y54805569D01*
X59078750Y54785374D01*
X59078737Y54785371D01*
X58901906Y54723494D01*
X58901156Y54725638D01*
X58842839Y54716044D01*
X58814407Y54724395D01*
X58814093Y54723494D01*
X58637261Y54785371D01*
X58637248Y54785374D01*
X58458003Y54805569D01*
X58457995Y54805569D01*
X58278749Y54785374D01*
X58278736Y54785371D01*
X58101905Y54723494D01*
X58101155Y54725638D01*
X58042838Y54716044D01*
X58014406Y54724395D01*
X58014092Y54723494D01*
X57837260Y54785371D01*
X57837247Y54785374D01*
X57658002Y54805569D01*
X57657994Y54805569D01*
X57478748Y54785374D01*
X57478735Y54785371D01*
X57301904Y54723494D01*
X57301154Y54725638D01*
X57242837Y54716045D01*
X57214408Y54724393D01*
X57214094Y54723494D01*
X57037262Y54785371D01*
X57037249Y54785374D01*
X56858004Y54805569D01*
X56857996Y54805569D01*
X56678750Y54785374D01*
X56678737Y54785371D01*
X56501906Y54723494D01*
X56501156Y54725638D01*
X56442839Y54716045D01*
X56414407Y54724397D01*
X56414093Y54723496D01*
X56237261Y54785373D01*
X56237248Y54785376D01*
X56058003Y54805571D01*
X56057995Y54805571D01*
X55878749Y54785376D01*
X55878736Y54785373D01*
X55701905Y54723496D01*
X55701155Y54725640D01*
X55642838Y54716046D01*
X55614409Y54724394D01*
X55614095Y54723494D01*
X55437263Y54785371D01*
X55437250Y54785374D01*
X55258005Y54805569D01*
X55257997Y54805569D01*
X55078751Y54785374D01*
X55078738Y54785371D01*
X54901907Y54723494D01*
X54901157Y54725638D01*
X54842840Y54716044D01*
X54814408Y54724395D01*
X54814094Y54723494D01*
X54637262Y54785371D01*
X54637249Y54785374D01*
X54458004Y54805569D01*
X54457996Y54805569D01*
X54278750Y54785374D01*
X54278737Y54785371D01*
X54101906Y54723494D01*
X54101156Y54725638D01*
X54042839Y54716044D01*
X54014407Y54724395D01*
X54014093Y54723494D01*
X53837261Y54785371D01*
X53837248Y54785374D01*
X53658003Y54805569D01*
X53657995Y54805569D01*
X53478749Y54785374D01*
X53478736Y54785371D01*
X53301905Y54723494D01*
X53301155Y54725638D01*
X53242838Y54716044D01*
X53214406Y54724395D01*
X53214092Y54723494D01*
X53037260Y54785371D01*
X53037247Y54785374D01*
X52858002Y54805569D01*
X52857994Y54805569D01*
X52678748Y54785374D01*
X52678735Y54785371D01*
X52501904Y54723494D01*
X52501154Y54725638D01*
X52442837Y54716045D01*
X52414408Y54724393D01*
X52414094Y54723493D01*
X52237253Y54785373D01*
X52237248Y54785374D01*
X52058003Y54805569D01*
X52057995Y54805569D01*
X51878749Y54785374D01*
X51878736Y54785371D01*
X51701905Y54723494D01*
X51701155Y54725638D01*
X51642838Y54716044D01*
X51614406Y54724395D01*
X51614092Y54723494D01*
X51437260Y54785371D01*
X51437247Y54785374D01*
X51258002Y54805569D01*
X51257994Y54805569D01*
X51078748Y54785374D01*
X51078735Y54785371D01*
X50901904Y54723494D01*
X50901154Y54725638D01*
X50842837Y54716045D01*
X50814405Y54724397D01*
X50814091Y54723496D01*
X50637259Y54785373D01*
X50637246Y54785376D01*
X50458001Y54805571D01*
X50457993Y54805571D01*
X50278747Y54785376D01*
X50278734Y54785373D01*
X50101903Y54723496D01*
X50101152Y54725642D01*
X50042853Y54716044D01*
X50014406Y54724397D01*
X50014091Y54723496D01*
X49837259Y54785373D01*
X49837246Y54785376D01*
X49658001Y54805571D01*
X49657993Y54805571D01*
X49478747Y54785376D01*
X49478734Y54785373D01*
X49301903Y54723496D01*
X49301154Y54725637D01*
X49242818Y54716048D01*
X49214408Y54724395D01*
X49214093Y54723493D01*
X49037252Y54785373D01*
X49037247Y54785374D01*
X48858002Y54805569D01*
X48857994Y54805569D01*
X48678748Y54785374D01*
X48678735Y54785371D01*
X48501904Y54723494D01*
X48501154Y54725638D01*
X48442837Y54716044D01*
X48414405Y54724395D01*
X48414091Y54723494D01*
X48237259Y54785371D01*
X48237246Y54785374D01*
X48058001Y54805569D01*
X48057993Y54805569D01*
X47878747Y54785374D01*
X47878734Y54785371D01*
X47701903Y54723494D01*
X47701153Y54725638D01*
X47642836Y54716045D01*
X47614407Y54724393D01*
X47614093Y54723494D01*
X47437261Y54785371D01*
X47437248Y54785374D01*
X47258003Y54805569D01*
X47257995Y54805569D01*
X47078749Y54785374D01*
X47078736Y54785371D01*
X46901905Y54723494D01*
X46901155Y54725638D01*
X46842838Y54716044D01*
X46814406Y54724395D01*
X46814092Y54723494D01*
X46637260Y54785371D01*
X46637247Y54785374D01*
X46458002Y54805569D01*
X46457994Y54805569D01*
X46278748Y54785374D01*
X46278735Y54785371D01*
X46101904Y54723494D01*
X46101154Y54725636D01*
X46042821Y54716049D01*
X46014407Y54724395D01*
X46014093Y54723496D01*
X45837261Y54785373D01*
X45837248Y54785376D01*
X45658003Y54805571D01*
X45657995Y54805571D01*
X45478749Y54785376D01*
X45478736Y54785373D01*
X45301905Y54723496D01*
X45301155Y54725639D01*
X45242837Y54716045D01*
X45214406Y54724395D01*
X45214092Y54723494D01*
X45037260Y54785371D01*
X45037247Y54785374D01*
X44858002Y54805569D01*
X44857994Y54805569D01*
X44678748Y54785374D01*
X44678735Y54785371D01*
X44501904Y54723494D01*
X44501153Y54725640D01*
X44442854Y54716042D01*
X44414407Y54724395D01*
X44414092Y54723494D01*
X44237260Y54785371D01*
X44237247Y54785374D01*
X44058002Y54805569D01*
X44057994Y54805569D01*
X43878748Y54785374D01*
X43878743Y54785373D01*
X43708474Y54725793D01*
X43555735Y54629820D01*
X43428182Y54502267D01*
X43332209Y54349528D01*
X43308946Y54283044D01*
X43268224Y54226268D01*
X43203271Y54200521D01*
X43191904Y54199999D01*
X39424092Y54199999D01*
X39357053Y54219684D01*
X39311298Y54272488D01*
X39307050Y54283044D01*
X39283786Y54349528D01*
X39187813Y54502267D01*
X39060260Y54629820D01*
X38907521Y54725793D01*
X38737252Y54785373D01*
X38737247Y54785374D01*
X38558002Y54805569D01*
X38557994Y54805569D01*
X38378748Y54785374D01*
X38378735Y54785371D01*
X38201904Y54723494D01*
X38201154Y54725638D01*
X38142837Y54716044D01*
X38114405Y54724395D01*
X38114091Y54723494D01*
X37937259Y54785371D01*
X37937246Y54785374D01*
X37758001Y54805569D01*
X37757993Y54805569D01*
X37578747Y54785374D01*
X37578734Y54785371D01*
X37401903Y54723494D01*
X37401153Y54725638D01*
X37342836Y54716045D01*
X37314406Y54724393D01*
X37314092Y54723494D01*
X37234033Y54751509D01*
X37177257Y54792231D01*
X37151511Y54857184D01*
X37164968Y54925746D01*
X37187302Y54956225D01*
X37294816Y55063738D01*
X37390789Y55216478D01*
X37450368Y55386745D01*
X37451466Y55396490D01*
X37456867Y55444425D01*
X37483933Y55508839D01*
X37539130Y55547584D01*
X37649522Y55586211D01*
X37802262Y55682184D01*
X37929816Y55809738D01*
X38025789Y55962478D01*
X38062014Y56066004D01*
X41185435Y56066004D01*
X41185435Y56065997D01*
X41205630Y55886751D01*
X41205631Y55886746D01*
X41265211Y55716477D01*
X41347063Y55586211D01*
X41361184Y55563738D01*
X41488738Y55436184D01*
X41539664Y55404185D01*
X41613717Y55357654D01*
X41641478Y55340211D01*
X41738496Y55306263D01*
X41811745Y55280632D01*
X41811750Y55280631D01*
X41990996Y55260435D01*
X41991000Y55260435D01*
X41991004Y55260435D01*
X42170249Y55280631D01*
X42170252Y55280632D01*
X42170255Y55280632D01*
X42340522Y55340211D01*
X42493262Y55436184D01*
X42620816Y55563738D01*
X42716789Y55716478D01*
X42776368Y55886745D01*
X42777951Y55900793D01*
X42796565Y56065997D01*
X42796565Y56066004D01*
X42776369Y56245250D01*
X42776368Y56245255D01*
X42753013Y56312000D01*
X42716789Y56415522D01*
X42690096Y56458004D01*
X43479435Y56458004D01*
X43479435Y56457997D01*
X43499630Y56278751D01*
X43499631Y56278746D01*
X43559211Y56108477D01*
X43609561Y56028346D01*
X43655184Y55955738D01*
X43782738Y55828184D01*
X43868561Y55774258D01*
X43914726Y55745250D01*
X43935478Y55732211D01*
X44062352Y55687816D01*
X44105745Y55672632D01*
X44105750Y55672631D01*
X44284996Y55652435D01*
X44285000Y55652435D01*
X44285004Y55652435D01*
X44464249Y55672631D01*
X44464252Y55672632D01*
X44464255Y55672632D01*
X44634522Y55732211D01*
X44787262Y55828184D01*
X44914816Y55955738D01*
X45010789Y56108478D01*
X45070368Y56278745D01*
X45071009Y56284435D01*
X45090565Y56457997D01*
X45090565Y56458004D01*
X45070369Y56637250D01*
X45070368Y56637255D01*
X45010788Y56807524D01*
X44948746Y56906263D01*
X44914816Y56960262D01*
X44787262Y57087816D01*
X44739917Y57117565D01*
X44634523Y57183789D01*
X44464254Y57243369D01*
X44464249Y57243370D01*
X44285004Y57263565D01*
X44284996Y57263565D01*
X44105750Y57243370D01*
X44105745Y57243369D01*
X43935476Y57183789D01*
X43782737Y57087816D01*
X43655184Y56960263D01*
X43559211Y56807524D01*
X43499631Y56637255D01*
X43499630Y56637250D01*
X43479435Y56458004D01*
X42690096Y56458004D01*
X42620816Y56568262D01*
X42493262Y56695816D01*
X42340523Y56791789D01*
X42170254Y56851369D01*
X42170249Y56851370D01*
X41991004Y56871565D01*
X41990996Y56871565D01*
X41811750Y56851370D01*
X41811745Y56851369D01*
X41641476Y56791789D01*
X41488737Y56695816D01*
X41361184Y56568263D01*
X41265211Y56415524D01*
X41205631Y56245255D01*
X41205630Y56245250D01*
X41185435Y56066004D01*
X38062014Y56066004D01*
X38085368Y56132745D01*
X38091132Y56183900D01*
X38105565Y56311997D01*
X38105565Y56312004D01*
X38085369Y56491250D01*
X38085368Y56491255D01*
X38058422Y56568263D01*
X38025789Y56661522D01*
X38019536Y56671473D01*
X37976178Y56740478D01*
X37929816Y56814262D01*
X37802262Y56941816D01*
X37649523Y57037789D01*
X37479254Y57097369D01*
X37479249Y57097370D01*
X37300004Y57117565D01*
X37299996Y57117565D01*
X37120750Y57097370D01*
X37120745Y57097369D01*
X36950476Y57037789D01*
X36797737Y56941816D01*
X36670184Y56814263D01*
X36574210Y56661522D01*
X36514630Y56491250D01*
X36508132Y56433574D01*
X36481065Y56369160D01*
X36425867Y56330417D01*
X36315480Y56291791D01*
X36162737Y56195816D01*
X36035184Y56068263D01*
X35939211Y55915524D01*
X35879631Y55745255D01*
X35879630Y55745250D01*
X35859435Y55566004D01*
X35859435Y55565997D01*
X35879630Y55386751D01*
X35879631Y55386746D01*
X35939211Y55216477D01*
X36035184Y55063738D01*
X36097574Y55001348D01*
X36131059Y54940025D01*
X36126075Y54870333D01*
X36084203Y54814400D01*
X36023778Y54790447D01*
X35978750Y54785374D01*
X35978738Y54785371D01*
X35801907Y54723494D01*
X35801157Y54725638D01*
X35742840Y54716045D01*
X35714411Y54724393D01*
X35714097Y54723493D01*
X35537256Y54785373D01*
X35537251Y54785374D01*
X35358006Y54805569D01*
X35357998Y54805569D01*
X35179407Y54785448D01*
X35110585Y54797503D01*
X35059206Y54844852D01*
X35041582Y54912463D01*
X35042304Y54922552D01*
X35057565Y55057998D01*
X35057565Y55058004D01*
X35037369Y55237252D01*
X35028821Y55261681D01*
X35006064Y55326713D01*
X35002502Y55396490D01*
X35035422Y55455345D01*
X35120787Y55540709D01*
X35216760Y55693449D01*
X35276339Y55863716D01*
X35278934Y55886746D01*
X35296536Y56042968D01*
X35296536Y56042975D01*
X35276340Y56222221D01*
X35276339Y56222226D01*
X35238481Y56330417D01*
X35216760Y56392493D01*
X35120787Y56545233D01*
X34993233Y56672787D01*
X34956583Y56695816D01*
X34840494Y56768760D01*
X34670225Y56828340D01*
X34670220Y56828341D01*
X34490975Y56848536D01*
X34490967Y56848536D01*
X34311721Y56828341D01*
X34311716Y56828340D01*
X34141447Y56768760D01*
X33988708Y56672787D01*
X33861155Y56545234D01*
X33765182Y56392495D01*
X33705602Y56222226D01*
X33705601Y56222221D01*
X33685406Y56042975D01*
X33685406Y56042968D01*
X33705601Y55863722D01*
X33705603Y55863714D01*
X33736905Y55774258D01*
X33740466Y55704479D01*
X33707545Y55645623D01*
X33622183Y55560261D01*
X33526211Y55407524D01*
X33466631Y55237255D01*
X33466630Y55237250D01*
X33446435Y55058004D01*
X33446435Y55057997D01*
X33466630Y54878751D01*
X33466631Y54878746D01*
X33526211Y54708477D01*
X33622184Y54555738D01*
X33749737Y54428185D01*
X33755184Y54423841D01*
X33754152Y54422548D01*
X33794742Y54376659D01*
X33805391Y54307605D01*
X33777016Y54243757D01*
X33718626Y54205385D01*
X33682479Y54199999D01*
X28424092Y54199999D01*
X28357053Y54219684D01*
X28311298Y54272488D01*
X28307050Y54283044D01*
X28283786Y54349528D01*
X28187813Y54502267D01*
X28060260Y54629820D01*
X27907521Y54725793D01*
X27737252Y54785373D01*
X27737247Y54785374D01*
X27558002Y54805569D01*
X27557994Y54805569D01*
X27378748Y54785374D01*
X27378735Y54785371D01*
X27201904Y54723494D01*
X27201154Y54725638D01*
X27142837Y54716045D01*
X27114408Y54724393D01*
X27114094Y54723493D01*
X26937253Y54785373D01*
X26937248Y54785374D01*
X26758003Y54805569D01*
X26757995Y54805569D01*
X26578749Y54785374D01*
X26578736Y54785371D01*
X26401905Y54723494D01*
X26401155Y54725638D01*
X26342838Y54716045D01*
X26314409Y54724393D01*
X26314095Y54723494D01*
X26137263Y54785371D01*
X26137250Y54785374D01*
X25958005Y54805569D01*
X25957997Y54805569D01*
X25778751Y54785374D01*
X25778746Y54785373D01*
X25608477Y54725793D01*
X25455738Y54629820D01*
X25328185Y54502267D01*
X25232212Y54349528D01*
X25208949Y54283044D01*
X25168227Y54226268D01*
X25103274Y54200521D01*
X25091907Y54199999D01*
X20824091Y54199999D01*
X20757052Y54219684D01*
X20711297Y54272488D01*
X20707049Y54283044D01*
X20683785Y54349528D01*
X20587812Y54502267D01*
X20460259Y54629820D01*
X20307520Y54725793D01*
X20137251Y54785373D01*
X20137246Y54785374D01*
X19958001Y54805569D01*
X19957993Y54805569D01*
X19778747Y54785374D01*
X19778742Y54785373D01*
X19608473Y54725793D01*
X19455734Y54629820D01*
X19328181Y54502267D01*
X19232208Y54349528D01*
X19172628Y54179259D01*
X19172627Y54179254D01*
X19152432Y54000008D01*
X19152432Y54000001D01*
X19172627Y53820755D01*
X19172628Y53820750D01*
X19232208Y53650481D01*
X19328181Y53497742D01*
X19455735Y53370188D01*
X19608475Y53274215D01*
X19674950Y53250955D01*
X19731726Y53210234D01*
X19757474Y53145281D01*
X19757996Y53133913D01*
X19757996Y45266097D01*
X19738311Y45199058D01*
X19685507Y45153303D01*
X19674952Y45149056D01*
X19608472Y45125794D01*
X19608471Y45125793D01*
X19455733Y45029821D01*
X19328180Y44902268D01*
X19232207Y44749529D01*
X19172627Y44579260D01*
X19172626Y44579255D01*
X19152431Y44400009D01*
X19152431Y44400002D01*
X19172626Y44220756D01*
X19172629Y44220743D01*
X19232205Y44050485D01*
X19285305Y43965976D01*
X19304305Y43898739D01*
X19285305Y43834034D01*
X19232205Y43749526D01*
X19172629Y43579268D01*
X19172626Y43579255D01*
X19152431Y43400009D01*
X19152431Y43400002D01*
X19172626Y43220756D01*
X19172629Y43220743D01*
X19232205Y43050485D01*
X19285305Y42965976D01*
X19304305Y42898739D01*
X19285305Y42834034D01*
X19232205Y42749526D01*
X19172629Y42579268D01*
X19172626Y42579255D01*
X19152431Y42400009D01*
X19152431Y42400002D01*
X19172626Y42220756D01*
X19172629Y42220743D01*
X19232205Y42050485D01*
X19285305Y41965976D01*
X19304305Y41898739D01*
X19285305Y41834034D01*
X19232205Y41749526D01*
X19172629Y41579268D01*
X19172626Y41579255D01*
X19152431Y41400009D01*
X19152431Y41400002D01*
X19172626Y41220756D01*
X19172629Y41220743D01*
X19232205Y41050485D01*
X19285305Y40965976D01*
X19304305Y40898739D01*
X19285305Y40834034D01*
X19232205Y40749526D01*
X19172629Y40579268D01*
X19172626Y40579255D01*
X19152431Y40400009D01*
X19152431Y40400002D01*
X19172626Y40220756D01*
X19172629Y40220743D01*
X19232205Y40050485D01*
X19285305Y39965976D01*
X19304305Y39898739D01*
X19285305Y39834034D01*
X19232205Y39749526D01*
X19172629Y39579268D01*
X19172626Y39579255D01*
X19152431Y39400009D01*
X19152431Y39400002D01*
X19172626Y39220756D01*
X19172627Y39220751D01*
X19232207Y39050481D01*
X19285307Y38965975D01*
X19304308Y38898738D01*
X19285308Y38834031D01*
X19232206Y38749520D01*
X19172630Y38579262D01*
X19172627Y38579249D01*
X19152432Y38400003D01*
X19152432Y38399996D01*
X19172627Y38220750D01*
X19172628Y38220745D01*
X19232209Y38050474D01*
X19285305Y37965971D01*
X19304305Y37898735D01*
X19285305Y37834029D01*
X19232209Y37749527D01*
X19172628Y37579256D01*
X19172627Y37579251D01*
X19152432Y37400005D01*
X19152432Y37399998D01*
X19172627Y37220752D01*
X19172630Y37220739D01*
X19232206Y37050481D01*
X19285306Y36965972D01*
X19304306Y36898735D01*
X19285306Y36834030D01*
X19232206Y36749522D01*
X19172630Y36579264D01*
X19172627Y36579251D01*
X19152432Y36400005D01*
X19152432Y36399998D01*
X19172627Y36220752D01*
X19172628Y36220747D01*
X19232209Y36050476D01*
X19285305Y35965973D01*
X19304305Y35898737D01*
X19285305Y35834031D01*
X19232209Y35749529D01*
X19172628Y35579258D01*
X19172627Y35579253D01*
X19152432Y35400007D01*
X19152432Y35400000D01*
X19172627Y35220754D01*
X19172628Y35220749D01*
X19232208Y35050480D01*
X19285306Y34965975D01*
X19304306Y34898738D01*
X19285306Y34834032D01*
X19232210Y34749530D01*
X19232206Y34749521D01*
X19172630Y34579265D01*
X19172627Y34579252D01*
X19152432Y34400006D01*
X19152432Y34399999D01*
X19172627Y34220753D01*
X19172630Y34220740D01*
X19232206Y34050482D01*
X19285306Y33965973D01*
X19304306Y33898736D01*
X19285306Y33834031D01*
X19232206Y33749523D01*
X19172630Y33579265D01*
X19172627Y33579252D01*
X19152432Y33400006D01*
X19152432Y33399999D01*
X19172627Y33220753D01*
X19172628Y33220748D01*
X19232209Y33050477D01*
X19285305Y32965974D01*
X19304305Y32898738D01*
X19285305Y32834032D01*
X19232209Y32749530D01*
X19172628Y32579259D01*
X19172627Y32579254D01*
X19152432Y32400008D01*
X19152432Y32400001D01*
X19172627Y32220755D01*
X19172628Y32220750D01*
X19232208Y32050481D01*
X19285306Y31965976D01*
X19304306Y31898739D01*
X19285306Y31834033D01*
X19232210Y31749531D01*
X19232206Y31749522D01*
X19172630Y31579266D01*
X19172627Y31579253D01*
X19152432Y31400007D01*
X19152432Y31400000D01*
X19172627Y31220754D01*
X19172630Y31220741D01*
X19232206Y31050485D01*
X19232208Y31050481D01*
X19285305Y30965977D01*
X19304305Y30898740D01*
X19285305Y30834034D01*
X19232205Y30749526D01*
X19172629Y30579268D01*
X19172626Y30579255D01*
X19152431Y30400009D01*
X19152431Y30400002D01*
X19172626Y30220756D01*
X19172627Y30220751D01*
X19232207Y30050482D01*
X19276957Y29979264D01*
X19328180Y29897743D01*
X19455734Y29770189D01*
X19529248Y29723997D01*
X19608474Y29674216D01*
X19674950Y29650955D01*
X19731726Y29610233D01*
X19757474Y29545281D01*
X19757996Y29533913D01*
X19757996Y25266099D01*
X19738311Y25199060D01*
X19685507Y25153305D01*
X19674952Y25149058D01*
X19608473Y25125796D01*
X19608472Y25125795D01*
X19455734Y25029823D01*
X19328181Y24902270D01*
X19232208Y24749531D01*
X19172628Y24579262D01*
X19172627Y24579257D01*
X19152432Y24400011D01*
X19152432Y24400004D01*
X19172627Y24220758D01*
X19172628Y24220753D01*
X19232208Y24050484D01*
X19328181Y23897745D01*
X19455735Y23770191D01*
X19608475Y23674218D01*
X19674950Y23650958D01*
X19731726Y23610237D01*
X19757474Y23545284D01*
X19757996Y23533916D01*
X19757996Y18866097D01*
X19738311Y18799058D01*
X19685507Y18753303D01*
X19674951Y18749056D01*
X19608474Y18725795D01*
X19608470Y18725793D01*
X19455732Y18629821D01*
X19328179Y18502268D01*
X19232206Y18349529D01*
X19172626Y18179260D01*
X19172625Y18179255D01*
X19152430Y18000009D01*
X8009500Y18000009D01*
X8009500Y26644000D01*
X2089091Y26644000D01*
X2022052Y26663685D01*
X1977368Y26714205D01*
X1975289Y26718522D01*
X1879315Y26871263D01*
X1751762Y26998816D01*
X1599023Y27094789D01*
X1428754Y27154369D01*
X1428749Y27154370D01*
X1249504Y27174565D01*
X1249496Y27174565D01*
X1070250Y27154370D01*
X1070237Y27154367D01*
X899979Y27094791D01*
X815471Y27041691D01*
X748234Y27022691D01*
X683529Y27041691D01*
X599020Y27094791D01*
X428762Y27154367D01*
X428749Y27154370D01*
X249504Y27174565D01*
X249496Y27174565D01*
X70250Y27154370D01*
X70245Y27154369D01*
X-100024Y27094789D01*
X-252763Y26998816D01*
X-380316Y26871263D01*
X-476290Y26718522D01*
X-478368Y26714205D01*
X-525187Y26662342D01*
X-590091Y26644000D01*
X-1390500Y26644000D01*
X-2885500Y26644000D01*
X-2885500Y44424000D01*
X-1390500Y44424000D01*
X-1390500Y29524000D01*
X3243408Y29524000D01*
X3310447Y29504315D01*
X3356202Y29451511D01*
X3360450Y29440954D01*
X3383710Y29374479D01*
X3395262Y29356094D01*
X3479684Y29221738D01*
X3607238Y29094184D01*
X3697580Y29037418D01*
X3757135Y28999997D01*
X3759978Y28998211D01*
X3930245Y28938632D01*
X3930250Y28938631D01*
X4109496Y28918435D01*
X4109500Y28918435D01*
X4109504Y28918435D01*
X4288749Y28938631D01*
X4288752Y28938632D01*
X4288755Y28938632D01*
X4459022Y28998211D01*
X4611762Y29094184D01*
X4621819Y29104241D01*
X4683142Y29137726D01*
X4752834Y29132742D01*
X4797181Y29104241D01*
X4807238Y29094184D01*
X4897580Y29037418D01*
X4957135Y28999997D01*
X4959978Y28998211D01*
X5130245Y28938632D01*
X5130250Y28938631D01*
X5309496Y28918435D01*
X5309500Y28918435D01*
X5309504Y28918435D01*
X5488749Y28938631D01*
X5488752Y28938632D01*
X5488755Y28938632D01*
X5659022Y28998211D01*
X5811762Y29094184D01*
X5821819Y29104241D01*
X5883142Y29137726D01*
X5952834Y29132742D01*
X5997181Y29104241D01*
X6007238Y29094184D01*
X6097580Y29037418D01*
X6157135Y28999997D01*
X6159978Y28998211D01*
X6330245Y28938632D01*
X6330250Y28938631D01*
X6509496Y28918435D01*
X6509500Y28918435D01*
X6509504Y28918435D01*
X6688749Y28938631D01*
X6688752Y28938632D01*
X6688755Y28938632D01*
X6859022Y28998211D01*
X7011762Y29094184D01*
X7021819Y29104241D01*
X7083142Y29137726D01*
X7152834Y29132742D01*
X7197181Y29104241D01*
X7207238Y29094184D01*
X7297580Y29037418D01*
X7357135Y28999997D01*
X7359978Y28998211D01*
X7530245Y28938632D01*
X7530250Y28938631D01*
X7709496Y28918435D01*
X7709500Y28918435D01*
X7709504Y28918435D01*
X7888749Y28938631D01*
X7888752Y28938632D01*
X7888755Y28938632D01*
X8059022Y28998211D01*
X8211762Y29094184D01*
X8339316Y29221738D01*
X8435289Y29374478D01*
X8494868Y29544745D01*
X8494869Y29544751D01*
X8515065Y29723997D01*
X8515065Y29724004D01*
X8494869Y29903250D01*
X8494868Y29903255D01*
X8443351Y30050482D01*
X8435289Y30073522D01*
X8339316Y30226262D01*
X8211762Y30353816D01*
X8211760Y30353818D01*
X8067527Y30444446D01*
X8021237Y30496780D01*
X8009500Y30549439D01*
X8009500Y44424000D01*
X2089091Y44424000D01*
X2022052Y44443685D01*
X1977368Y44494205D01*
X1975289Y44498522D01*
X1902020Y44615129D01*
X1879316Y44651262D01*
X1751762Y44778816D01*
X1685031Y44820746D01*
X1599023Y44874789D01*
X1428754Y44934369D01*
X1428749Y44934370D01*
X1249504Y44954565D01*
X1249496Y44954565D01*
X1070250Y44934370D01*
X1070237Y44934367D01*
X899979Y44874791D01*
X815471Y44821691D01*
X748234Y44802691D01*
X683529Y44821691D01*
X599020Y44874791D01*
X428762Y44934367D01*
X428749Y44934370D01*
X249504Y44954565D01*
X249496Y44954565D01*
X70250Y44934370D01*
X70245Y44934369D01*
X-100024Y44874789D01*
X-252763Y44778816D01*
X-380316Y44651263D01*
X-476290Y44498522D01*
X-478368Y44494205D01*
X-525187Y44442342D01*
X-590091Y44424000D01*
X-1390500Y44424000D01*
X-2885500Y44424000D01*
X-2885500Y79014000D01*
X-2382000Y79014000D01*
X-2382000Y51689000D01*
X-1614077Y51689000D01*
X-1547038Y51669315D01*
X-1506691Y51627001D01*
X-1473859Y51570135D01*
X-1432188Y51523854D01*
X-1354236Y51437279D01*
X-1354233Y51437277D01*
X-1354230Y51437274D01*
X-1209593Y51332188D01*
X-1046267Y51259471D01*
X-871391Y51222300D01*
X-871390Y51222300D01*
X-692611Y51222300D01*
X-692609Y51222300D01*
X-517733Y51259471D01*
X-354407Y51332188D01*
X-354403Y51332192D01*
X-348776Y51335439D01*
X-348096Y51334261D01*
X-289089Y51355320D01*
X-221034Y51339500D01*
X-210217Y51332548D01*
X-209598Y51332191D01*
X-209596Y51332190D01*
X-209593Y51332188D01*
X-46267Y51259471D01*
X128609Y51222300D01*
X128610Y51222300D01*
X307389Y51222300D01*
X307391Y51222300D01*
X482267Y51259471D01*
X645593Y51332188D01*
X645597Y51332192D01*
X651224Y51335439D01*
X651904Y51334261D01*
X710911Y51355320D01*
X778966Y51339500D01*
X789783Y51332548D01*
X790402Y51332191D01*
X790404Y51332190D01*
X790407Y51332188D01*
X953733Y51259471D01*
X1128609Y51222300D01*
X1128610Y51222300D01*
X1307389Y51222300D01*
X1307391Y51222300D01*
X1482267Y51259471D01*
X1645593Y51332188D01*
X1790230Y51437274D01*
X1909859Y51570135D01*
X1942690Y51627001D01*
X1993256Y51675215D01*
X2050077Y51689000D01*
X2665923Y51689000D01*
X2732962Y51669315D01*
X2773309Y51627001D01*
X2806141Y51570135D01*
X2847812Y51523854D01*
X2925764Y51437279D01*
X2925767Y51437277D01*
X2925770Y51437274D01*
X3070407Y51332188D01*
X3233733Y51259471D01*
X3408609Y51222300D01*
X3408610Y51222300D01*
X3587389Y51222300D01*
X3587391Y51222300D01*
X3762267Y51259471D01*
X3925593Y51332188D01*
X3933112Y51337652D01*
X3998918Y51361133D01*
X4066972Y51345309D01*
X4078887Y51337652D01*
X4086407Y51332188D01*
X4249733Y51259471D01*
X4424609Y51222300D01*
X4424610Y51222300D01*
X4603389Y51222300D01*
X4603391Y51222300D01*
X4778267Y51259471D01*
X4941593Y51332188D01*
X5086230Y51437274D01*
X5205859Y51570135D01*
X5238690Y51627001D01*
X5289256Y51675215D01*
X5346077Y51689000D01*
X11317999Y51689000D01*
X11318000Y51689000D01*
X11322941Y57090004D01*
X18206435Y57090004D01*
X18206435Y57089997D01*
X18226630Y56910751D01*
X18226631Y56910746D01*
X18286211Y56740477D01*
X18382184Y56587738D01*
X18509738Y56460184D01*
X18599148Y56404004D01*
X18654601Y56369160D01*
X18662478Y56364211D01*
X18811697Y56311997D01*
X18832745Y56304632D01*
X18832749Y56304631D01*
X18912730Y56295620D01*
X18964246Y56289816D01*
X19028659Y56262750D01*
X19068214Y56205156D01*
X19073582Y56152713D01*
X19054965Y55987475D01*
X19054965Y55987467D01*
X19075160Y55808221D01*
X19075161Y55808216D01*
X19134741Y55637947D01*
X19205626Y55525135D01*
X19230714Y55485208D01*
X19358268Y55357654D01*
X19407512Y55326712D01*
X19480847Y55280632D01*
X19511008Y55261681D01*
X19640191Y55216478D01*
X19681275Y55202102D01*
X19681280Y55202101D01*
X19860526Y55181905D01*
X19860530Y55181905D01*
X19860534Y55181905D01*
X20039779Y55202101D01*
X20039782Y55202102D01*
X20039785Y55202102D01*
X20210052Y55261681D01*
X20362792Y55357654D01*
X20490346Y55485208D01*
X20586319Y55637948D01*
X20645898Y55808215D01*
X20648148Y55828185D01*
X20666095Y55987467D01*
X20666095Y55987474D01*
X20645899Y56166720D01*
X20645898Y56166725D01*
X20639889Y56183898D01*
X20586319Y56336992D01*
X20586317Y56336995D01*
X20586317Y56336996D01*
X20584430Y56340915D01*
X20573075Y56409856D01*
X20600795Y56473992D01*
X20630173Y56499714D01*
X20700527Y56543919D01*
X20828081Y56671473D01*
X20924054Y56824213D01*
X20983633Y56994480D01*
X20988513Y57037789D01*
X21003830Y57173732D01*
X21003830Y57173739D01*
X20983634Y57352985D01*
X20983633Y57352990D01*
X20924053Y57523259D01*
X20828080Y57675998D01*
X20700527Y57803551D01*
X20547786Y57899525D01*
X20447110Y57934753D01*
X20377520Y57959103D01*
X20377518Y57959104D01*
X20377513Y57959105D01*
X20374153Y57959872D01*
X20372203Y57960963D01*
X20370948Y57961402D01*
X20371024Y57961622D01*
X20313177Y57993985D01*
X20280323Y58055649D01*
X20284713Y58121717D01*
X20305367Y58180741D01*
X20305369Y58180751D01*
X20325565Y58359997D01*
X20325565Y58360004D01*
X20305369Y58539250D01*
X20305368Y58539255D01*
X20245788Y58709524D01*
X20149815Y58862263D01*
X20022262Y58989816D01*
X19869523Y59085789D01*
X19699254Y59145369D01*
X19699249Y59145370D01*
X19520004Y59165565D01*
X19519996Y59165565D01*
X19340750Y59145370D01*
X19340745Y59145369D01*
X19170476Y59085789D01*
X19017737Y58989816D01*
X18890184Y58862263D01*
X18794211Y58709524D01*
X18734631Y58539255D01*
X18734630Y58539250D01*
X18714435Y58360004D01*
X18714435Y58359997D01*
X18734630Y58180751D01*
X18734631Y58180746D01*
X18794213Y58010473D01*
X18795247Y58008325D01*
X18795498Y58006800D01*
X18796511Y58003905D01*
X18796003Y58003728D01*
X18806597Y57939384D01*
X18778873Y57875250D01*
X18724480Y57837486D01*
X18662480Y57815792D01*
X18509737Y57719816D01*
X18382184Y57592263D01*
X18286211Y57439524D01*
X18226631Y57269255D01*
X18226630Y57269250D01*
X18206435Y57090004D01*
X11322941Y57090004D01*
X11330513Y65366004D01*
X47073435Y65366004D01*
X47073435Y65365997D01*
X47093630Y65186751D01*
X47093631Y65186746D01*
X47153211Y65016477D01*
X47249184Y64863738D01*
X47376738Y64736184D01*
X47529478Y64640211D01*
X47699745Y64580632D01*
X47699750Y64580631D01*
X47878996Y64560435D01*
X47879000Y64560435D01*
X47879004Y64560435D01*
X48058249Y64580631D01*
X48058252Y64580632D01*
X48058255Y64580632D01*
X48228522Y64640211D01*
X48381262Y64736184D01*
X48508816Y64863738D01*
X48604789Y65016478D01*
X48664368Y65186745D01*
X48683776Y65358997D01*
X48683777Y65359004D01*
X56972435Y65359004D01*
X56972435Y65358997D01*
X56992630Y65179751D01*
X56992631Y65179746D01*
X57052211Y65009477D01*
X57143786Y64863738D01*
X57148184Y64856738D01*
X57275738Y64729184D01*
X57366080Y64672418D01*
X57417337Y64640211D01*
X57428478Y64633211D01*
X57578740Y64580632D01*
X57598745Y64573632D01*
X57598750Y64573631D01*
X57777996Y64553435D01*
X57778000Y64553435D01*
X57778004Y64553435D01*
X57957249Y64573631D01*
X57957252Y64573632D01*
X57957255Y64573632D01*
X58127522Y64633211D01*
X58280262Y64729184D01*
X58407816Y64856738D01*
X58503789Y65009478D01*
X58563368Y65179745D01*
X58564157Y65186746D01*
X58583565Y65358997D01*
X58583565Y65359004D01*
X67132435Y65359004D01*
X67132435Y65358997D01*
X67152630Y65179751D01*
X67152631Y65179746D01*
X67212211Y65009477D01*
X67303786Y64863738D01*
X67308184Y64856738D01*
X67435738Y64729184D01*
X67526080Y64672418D01*
X67577337Y64640211D01*
X67588478Y64633211D01*
X67738740Y64580632D01*
X67758745Y64573632D01*
X67758750Y64573631D01*
X67937996Y64553435D01*
X67938000Y64553435D01*
X67938004Y64553435D01*
X68117249Y64573631D01*
X68117252Y64573632D01*
X68117255Y64573632D01*
X68287522Y64633211D01*
X68440262Y64729184D01*
X68567816Y64856738D01*
X68663789Y65009478D01*
X68723368Y65179745D01*
X68724157Y65186746D01*
X68743565Y65358997D01*
X68743565Y65359004D01*
X77038435Y65359004D01*
X77038435Y65358997D01*
X77058630Y65179751D01*
X77058631Y65179746D01*
X77118211Y65009477D01*
X77209786Y64863738D01*
X77214184Y64856738D01*
X77341738Y64729184D01*
X77432080Y64672418D01*
X77483337Y64640211D01*
X77494478Y64633211D01*
X77644740Y64580632D01*
X77664745Y64573632D01*
X77664750Y64573631D01*
X77843996Y64553435D01*
X77844000Y64553435D01*
X77844004Y64553435D01*
X78023249Y64573631D01*
X78023252Y64573632D01*
X78023255Y64573632D01*
X78193522Y64633211D01*
X78346262Y64729184D01*
X78473816Y64856738D01*
X78569789Y65009478D01*
X78629368Y65179745D01*
X78630157Y65186746D01*
X78649565Y65358997D01*
X78649565Y65359004D01*
X78629369Y65538250D01*
X78629368Y65538255D01*
X78569788Y65708524D01*
X78473815Y65861263D01*
X78346262Y65988816D01*
X78193523Y66084789D01*
X78023254Y66144369D01*
X78023249Y66144370D01*
X77844004Y66164565D01*
X77843996Y66164565D01*
X77664750Y66144370D01*
X77664745Y66144369D01*
X77494476Y66084789D01*
X77341737Y65988816D01*
X77214184Y65861263D01*
X77118211Y65708524D01*
X77058631Y65538255D01*
X77058630Y65538250D01*
X77038435Y65359004D01*
X68743565Y65359004D01*
X68723369Y65538250D01*
X68723368Y65538255D01*
X68663788Y65708524D01*
X68567815Y65861263D01*
X68440262Y65988816D01*
X68287523Y66084789D01*
X68117254Y66144369D01*
X68117249Y66144370D01*
X67938004Y66164565D01*
X67937996Y66164565D01*
X67758750Y66144370D01*
X67758745Y66144369D01*
X67588476Y66084789D01*
X67435737Y65988816D01*
X67308184Y65861263D01*
X67212211Y65708524D01*
X67152631Y65538255D01*
X67152630Y65538250D01*
X67132435Y65359004D01*
X58583565Y65359004D01*
X58563369Y65538250D01*
X58563368Y65538255D01*
X58503788Y65708524D01*
X58407815Y65861263D01*
X58280262Y65988816D01*
X58127523Y66084789D01*
X57957254Y66144369D01*
X57957249Y66144370D01*
X57778004Y66164565D01*
X57777996Y66164565D01*
X57598750Y66144370D01*
X57598745Y66144369D01*
X57428476Y66084789D01*
X57275737Y65988816D01*
X57148184Y65861263D01*
X57052211Y65708524D01*
X56992631Y65538255D01*
X56992630Y65538250D01*
X56972435Y65359004D01*
X48683777Y65359004D01*
X48684565Y65365997D01*
X48684565Y65366004D01*
X48664369Y65545250D01*
X48664368Y65545255D01*
X48607238Y65708522D01*
X48604789Y65715522D01*
X48508816Y65868262D01*
X48381262Y65995816D01*
X48228523Y66091789D01*
X48058254Y66151369D01*
X48058249Y66151370D01*
X47879004Y66171565D01*
X47878996Y66171565D01*
X47699750Y66151370D01*
X47699745Y66151369D01*
X47529476Y66091789D01*
X47376737Y65995816D01*
X47249184Y65868263D01*
X47153211Y65715524D01*
X47093631Y65545255D01*
X47093630Y65545250D01*
X47073435Y65366004D01*
X11330513Y65366004D01*
X11335011Y70282004D01*
X31923435Y70282004D01*
X31923435Y70281997D01*
X31943630Y70102751D01*
X31943631Y70102746D01*
X32003211Y69932477D01*
X32069370Y69827186D01*
X32099184Y69779738D01*
X32226738Y69652184D01*
X32379478Y69556211D01*
X32549745Y69496632D01*
X32549750Y69496631D01*
X32728996Y69476435D01*
X32729000Y69476435D01*
X32729004Y69476435D01*
X32908249Y69496631D01*
X32908252Y69496632D01*
X32908255Y69496632D01*
X33078522Y69556211D01*
X33231262Y69652184D01*
X33358816Y69779738D01*
X33454789Y69932478D01*
X33514368Y70102745D01*
X33514369Y70102751D01*
X33534565Y70281997D01*
X33534565Y70282004D01*
X33514847Y70457005D01*
X36063437Y70457005D01*
X36063437Y70456998D01*
X36083632Y70277752D01*
X36083633Y70277747D01*
X36143213Y70107478D01*
X36239186Y69954739D01*
X36366740Y69827185D01*
X36519480Y69731212D01*
X36689747Y69671633D01*
X36689752Y69671632D01*
X36868998Y69651436D01*
X36869002Y69651436D01*
X36869006Y69651436D01*
X37048251Y69671632D01*
X37048254Y69671633D01*
X37048257Y69671633D01*
X37218524Y69731212D01*
X37371264Y69827185D01*
X37498818Y69954739D01*
X37594791Y70107479D01*
X37654370Y70277746D01*
X37654849Y70281997D01*
X37674567Y70456998D01*
X37674567Y70457005D01*
X40558435Y70457005D01*
X40558435Y70456998D01*
X40578630Y70277752D01*
X40578631Y70277747D01*
X40638211Y70107478D01*
X40734184Y69954739D01*
X40861738Y69827185D01*
X41014478Y69731212D01*
X41184745Y69671633D01*
X41184750Y69671632D01*
X41363996Y69651436D01*
X41364000Y69651436D01*
X41364004Y69651436D01*
X41543249Y69671632D01*
X41543252Y69671633D01*
X41543255Y69671633D01*
X41713522Y69731212D01*
X41866262Y69827185D01*
X41993816Y69954739D01*
X42089789Y70107479D01*
X42149368Y70277746D01*
X42149847Y70281997D01*
X42169565Y70456998D01*
X42169565Y70457005D01*
X42149369Y70636251D01*
X42149368Y70636256D01*
X42089788Y70806525D01*
X41993815Y70959264D01*
X41866262Y71086817D01*
X41713523Y71182790D01*
X41543254Y71242370D01*
X41543249Y71242371D01*
X41364004Y71262566D01*
X41363996Y71262566D01*
X41184750Y71242371D01*
X41184745Y71242370D01*
X41014476Y71182790D01*
X40861737Y71086817D01*
X40734184Y70959264D01*
X40638211Y70806525D01*
X40578631Y70636256D01*
X40578630Y70636251D01*
X40558435Y70457005D01*
X37674567Y70457005D01*
X37654371Y70636251D01*
X37654370Y70636256D01*
X37594790Y70806525D01*
X37498817Y70959264D01*
X37371264Y71086817D01*
X37218525Y71182790D01*
X37048256Y71242370D01*
X37048251Y71242371D01*
X36869006Y71262566D01*
X36868998Y71262566D01*
X36689752Y71242371D01*
X36689747Y71242370D01*
X36519478Y71182790D01*
X36366739Y71086817D01*
X36239186Y70959264D01*
X36143213Y70806525D01*
X36083633Y70636256D01*
X36083632Y70636251D01*
X36063437Y70457005D01*
X33514847Y70457005D01*
X33514369Y70461250D01*
X33514368Y70461255D01*
X33454788Y70631524D01*
X33358815Y70784263D01*
X33231262Y70911816D01*
X33078523Y71007789D01*
X32908254Y71067369D01*
X32908249Y71067370D01*
X32729004Y71087565D01*
X32728996Y71087565D01*
X32549750Y71067370D01*
X32549745Y71067369D01*
X32379476Y71007789D01*
X32226737Y70911816D01*
X32099184Y70784263D01*
X32003211Y70631524D01*
X31943631Y70461255D01*
X31943630Y70461250D01*
X31923435Y70282004D01*
X11335011Y70282004D01*
X11335955Y71314004D01*
X14650435Y71314004D01*
X14650435Y71313997D01*
X14670630Y71134751D01*
X14670631Y71134746D01*
X14730211Y70964477D01*
X14826184Y70811738D01*
X14953738Y70684184D01*
X15106478Y70588211D01*
X15276745Y70528632D01*
X15276750Y70528631D01*
X15455996Y70508435D01*
X15456000Y70508435D01*
X15456004Y70508435D01*
X15635249Y70528631D01*
X15635252Y70528632D01*
X15635255Y70528632D01*
X15805522Y70588211D01*
X15958262Y70684184D01*
X16085816Y70811738D01*
X16181789Y70964478D01*
X16181793Y70964491D01*
X16182275Y70965490D01*
X16182769Y70966038D01*
X16185494Y70970374D01*
X16186252Y70969898D01*
X16229090Y71017357D01*
X16296514Y71035681D01*
X16307883Y71034927D01*
X16367032Y71028262D01*
X16471997Y71016435D01*
X16472000Y71016435D01*
X16472004Y71016435D01*
X16651249Y71036631D01*
X16651252Y71036632D01*
X16651255Y71036632D01*
X16821522Y71096211D01*
X16974262Y71192184D01*
X17101816Y71319738D01*
X17197789Y71472478D01*
X17257368Y71642745D01*
X17259709Y71663522D01*
X17277565Y71821997D01*
X17277565Y71822004D01*
X17257369Y72001250D01*
X17257368Y72001255D01*
X17222439Y72101075D01*
X17197789Y72171522D01*
X17101816Y72324262D01*
X17096074Y72330004D01*
X44114435Y72330004D01*
X44114435Y72329997D01*
X44134630Y72150751D01*
X44134631Y72150746D01*
X44194211Y71980477D01*
X44217247Y71943816D01*
X44290184Y71827738D01*
X44417738Y71700184D01*
X44570478Y71604211D01*
X44740745Y71544632D01*
X44740750Y71544631D01*
X44919996Y71524435D01*
X44920000Y71524435D01*
X44920004Y71524435D01*
X45099249Y71544631D01*
X45099252Y71544632D01*
X45099255Y71544632D01*
X45269522Y71604211D01*
X45422262Y71700184D01*
X45549816Y71827738D01*
X45645789Y71980478D01*
X45705368Y72150745D01*
X45707045Y72165626D01*
X45725565Y72329997D01*
X45725565Y72330004D01*
X45705369Y72509250D01*
X45705368Y72509255D01*
X45671036Y72607370D01*
X45645789Y72679522D01*
X45549816Y72832262D01*
X45422262Y72959816D01*
X45389379Y72980478D01*
X45269523Y73055789D01*
X45099254Y73115369D01*
X45099249Y73115370D01*
X44920004Y73135565D01*
X44919996Y73135565D01*
X44740750Y73115370D01*
X44740745Y73115369D01*
X44570476Y73055789D01*
X44417737Y72959816D01*
X44290184Y72832263D01*
X44194211Y72679524D01*
X44134631Y72509255D01*
X44134630Y72509250D01*
X44114435Y72330004D01*
X17096074Y72330004D01*
X16974262Y72451816D01*
X16821523Y72547789D01*
X16651254Y72607369D01*
X16651249Y72607370D01*
X16472004Y72627565D01*
X16471996Y72627565D01*
X16292750Y72607370D01*
X16292745Y72607369D01*
X16122476Y72547789D01*
X15969737Y72451816D01*
X15842184Y72324263D01*
X15746209Y72171521D01*
X15745715Y72170493D01*
X15745218Y72169944D01*
X15742506Y72165626D01*
X15741749Y72166102D01*
X15698892Y72118633D01*
X15631465Y72100321D01*
X15620112Y72101075D01*
X15456004Y72119565D01*
X15455996Y72119565D01*
X15276750Y72099370D01*
X15276745Y72099369D01*
X15106476Y72039789D01*
X14953737Y71943816D01*
X14826184Y71816263D01*
X14730211Y71663524D01*
X14670631Y71493255D01*
X14670630Y71493250D01*
X14650435Y71314004D01*
X11335955Y71314004D01*
X11337800Y73330004D01*
X32684435Y73330004D01*
X32684435Y73329997D01*
X32704630Y73150751D01*
X32704631Y73150746D01*
X32764211Y72980477D01*
X32857341Y72832263D01*
X32860184Y72827738D01*
X32987738Y72700184D01*
X33078080Y72643418D01*
X33135453Y72607368D01*
X33140478Y72604211D01*
X33301723Y72547789D01*
X33310745Y72544632D01*
X33310750Y72544631D01*
X33489996Y72524435D01*
X33490000Y72524435D01*
X33490004Y72524435D01*
X33669249Y72544631D01*
X33669252Y72544632D01*
X33669255Y72544632D01*
X33839522Y72604211D01*
X33992262Y72700184D01*
X34119816Y72827738D01*
X34215789Y72980478D01*
X34275368Y73150745D01*
X34275369Y73150751D01*
X34295565Y73329997D01*
X34295565Y73330004D01*
X34275369Y73509250D01*
X34275368Y73509255D01*
X34249215Y73583997D01*
X34249213Y73584004D01*
X42336435Y73584004D01*
X42336435Y73583997D01*
X42356630Y73404751D01*
X42356631Y73404746D01*
X42416211Y73234477D01*
X42491052Y73115369D01*
X42512184Y73081738D01*
X42639738Y72954184D01*
X42792478Y72858211D01*
X42866636Y72832262D01*
X42962745Y72798632D01*
X42962750Y72798631D01*
X43141996Y72778435D01*
X43142000Y72778435D01*
X43142004Y72778435D01*
X43321249Y72798631D01*
X43321252Y72798632D01*
X43321255Y72798632D01*
X43491522Y72858211D01*
X43644262Y72954184D01*
X43771816Y73081738D01*
X43867789Y73234478D01*
X43927368Y73404745D01*
X43939143Y73509250D01*
X43947565Y73583997D01*
X43947565Y73584004D01*
X43927369Y73763250D01*
X43927368Y73763255D01*
X43867788Y73933524D01*
X43771815Y74086263D01*
X43644262Y74213816D01*
X43491523Y74309789D01*
X43321254Y74369369D01*
X43321249Y74369370D01*
X43142004Y74389565D01*
X43141996Y74389565D01*
X42962750Y74369370D01*
X42962745Y74369369D01*
X42792476Y74309789D01*
X42639737Y74213816D01*
X42512184Y74086263D01*
X42416211Y73933524D01*
X42356631Y73763255D01*
X42356630Y73763250D01*
X42336435Y73584004D01*
X34249213Y73584004D01*
X34215789Y73679522D01*
X34119816Y73832262D01*
X33992262Y73959816D01*
X33839523Y74055789D01*
X33669254Y74115369D01*
X33669249Y74115370D01*
X33490004Y74135565D01*
X33489996Y74135565D01*
X33310750Y74115370D01*
X33310745Y74115369D01*
X33140476Y74055789D01*
X32987737Y73959816D01*
X32860184Y73832263D01*
X32764211Y73679524D01*
X32704631Y73509255D01*
X32704630Y73509250D01*
X32684435Y73330004D01*
X11337800Y73330004D01*
X11343000Y79014000D01*
X11342999Y79014000D01*
X10719591Y79014000D01*
X10652552Y79033685D01*
X10612204Y79075999D01*
X10559859Y79166665D01*
X10545815Y79182262D01*
X10440235Y79299522D01*
X10440232Y79299524D01*
X10440231Y79299525D01*
X10440230Y79299526D01*
X10295593Y79404612D01*
X10132267Y79477329D01*
X10132265Y79477330D01*
X9961987Y79513523D01*
X9957391Y79514500D01*
X9778609Y79514500D01*
X9774013Y79513523D01*
X9603733Y79477330D01*
X9603728Y79477328D01*
X9440408Y79404612D01*
X9434775Y79401360D01*
X9434097Y79402535D01*
X9375064Y79381479D01*
X9307012Y79397313D01*
X9296207Y79404258D01*
X9295597Y79404610D01*
X9295593Y79404612D01*
X9132267Y79477329D01*
X9132265Y79477330D01*
X8961987Y79513523D01*
X8957391Y79514500D01*
X8778609Y79514500D01*
X8774013Y79513523D01*
X8603733Y79477330D01*
X8603728Y79477328D01*
X8440408Y79404612D01*
X8434775Y79401360D01*
X8434097Y79402535D01*
X8375064Y79381479D01*
X8307012Y79397313D01*
X8296207Y79404258D01*
X8295600Y79404608D01*
X8295596Y79404610D01*
X8295593Y79404612D01*
X8207924Y79443645D01*
X8154689Y79488894D01*
X8134368Y79555743D01*
X8153413Y79622967D01*
X8170678Y79644601D01*
X8211816Y79685738D01*
X8307789Y79838478D01*
X8367368Y80008745D01*
X8368336Y80017333D01*
X8372082Y80050580D01*
X8399148Y80114995D01*
X8456742Y80154550D01*
X8481420Y80159918D01*
X8523249Y80164631D01*
X8523252Y80164632D01*
X8523255Y80164632D01*
X8693522Y80224211D01*
X8846262Y80320184D01*
X8973816Y80447738D01*
X9069789Y80600478D01*
X9129368Y80770745D01*
X9134672Y80817816D01*
X9149565Y80949997D01*
X9149565Y80950004D01*
X9129369Y81129250D01*
X9129368Y81129255D01*
X9103214Y81203998D01*
X9069789Y81299522D01*
X8973816Y81452262D01*
X8846262Y81579816D01*
X8693523Y81675789D01*
X8523254Y81735369D01*
X8523249Y81735370D01*
X8344004Y81755565D01*
X8343996Y81755565D01*
X8164750Y81735370D01*
X8164745Y81735369D01*
X7994476Y81675789D01*
X7841737Y81579816D01*
X7714184Y81452263D01*
X7618210Y81299522D01*
X7558630Y81129250D01*
X7553917Y81087418D01*
X7526850Y81023004D01*
X7469254Y80983450D01*
X7444582Y80978083D01*
X7402750Y80973370D01*
X7232477Y80913790D01*
X7232010Y80913564D01*
X7231677Y80913510D01*
X7225904Y80911489D01*
X7225550Y80912501D01*
X7163068Y80902215D01*
X7098935Y80929941D01*
X7059972Y80987938D01*
X7054993Y81039171D01*
X7073565Y81203998D01*
X7073565Y81204004D01*
X7053369Y81383250D01*
X7053368Y81383255D01*
X6993788Y81553524D01*
X6897815Y81706263D01*
X6770262Y81833816D01*
X6617523Y81929789D01*
X6447254Y81989369D01*
X6447249Y81989370D01*
X6268004Y82009565D01*
X6267996Y82009565D01*
X6088750Y81989370D01*
X6088745Y81989369D01*
X5918476Y81929789D01*
X5765737Y81833816D01*
X5638184Y81706263D01*
X5542211Y81553524D01*
X5482631Y81383255D01*
X5482630Y81383250D01*
X5462435Y81204004D01*
X5462435Y81203997D01*
X5482630Y81024751D01*
X5482631Y81024746D01*
X5542211Y80854477D01*
X5594820Y80770751D01*
X5638184Y80701738D01*
X5765738Y80574184D01*
X5824085Y80537522D01*
X5914817Y80480511D01*
X5918478Y80478211D01*
X6005565Y80447738D01*
X6088745Y80418632D01*
X6088750Y80418631D01*
X6267996Y80398435D01*
X6268000Y80398435D01*
X6268004Y80398435D01*
X6447249Y80418631D01*
X6447252Y80418632D01*
X6447255Y80418632D01*
X6617522Y80478211D01*
X6617531Y80478217D01*
X6617969Y80478427D01*
X6618290Y80478481D01*
X6624095Y80480511D01*
X6624450Y80479496D01*
X6686909Y80489788D01*
X6751047Y80462074D01*
X6790021Y80404084D01*
X6795006Y80352831D01*
X6776435Y80188004D01*
X6776435Y80187997D01*
X6796630Y80008751D01*
X6796631Y80008746D01*
X6841406Y79880789D01*
X6856211Y79838478D01*
X6919809Y79737262D01*
X6940413Y79704472D01*
X6959413Y79637236D01*
X6939045Y79570400D01*
X6885778Y79525186D01*
X6835419Y79514500D01*
X6778609Y79514500D01*
X6774013Y79513523D01*
X6603733Y79477330D01*
X6603728Y79477328D01*
X6440408Y79404613D01*
X6295768Y79299525D01*
X6176141Y79166666D01*
X6169406Y79155000D01*
X6123795Y79076000D01*
X6073230Y79027785D01*
X6016409Y79014000D01*
X-2382000Y79014000D01*
X-2885500Y79014000D01*
X-2885500Y80143343D01*
X1397774Y80143343D01*
X1397774Y80143336D01*
X1417969Y79964090D01*
X1417970Y79964085D01*
X1477550Y79793816D01*
X1563353Y79657263D01*
X1573523Y79641077D01*
X1701077Y79513523D01*
X1791419Y79456757D01*
X1831803Y79431382D01*
X1853817Y79417550D01*
X1989627Y79370028D01*
X2024084Y79357971D01*
X2024089Y79357970D01*
X2203335Y79337774D01*
X2203339Y79337774D01*
X2203343Y79337774D01*
X2382588Y79357970D01*
X2382591Y79357971D01*
X2382594Y79357971D01*
X2552861Y79417550D01*
X2705601Y79513523D01*
X2833155Y79641077D01*
X2929128Y79793817D01*
X2988707Y79964084D01*
X2988708Y79964090D01*
X3008904Y80143336D01*
X3008904Y80143343D01*
X2988708Y80322589D01*
X2988707Y80322594D01*
X2939901Y80462074D01*
X2929128Y80492861D01*
X2833155Y80645601D01*
X2705601Y80773155D01*
X2552862Y80869128D01*
X2382593Y80928708D01*
X2382588Y80928709D01*
X2203343Y80948904D01*
X2203335Y80948904D01*
X2024089Y80928709D01*
X2024084Y80928708D01*
X1853815Y80869128D01*
X1701076Y80773155D01*
X1573523Y80645602D01*
X1477550Y80492863D01*
X1417970Y80322594D01*
X1417969Y80322589D01*
X1397774Y80143343D01*
X-2885500Y80143343D01*
X-2885500Y86532690D01*
X-2394500Y86532690D01*
X-2394500Y86271311D01*
X-2353613Y86013164D01*
X-2272848Y85764592D01*
X-2272846Y85764589D01*
X-2154187Y85531708D01*
X-2000559Y85320257D01*
X-1815743Y85135441D01*
X-1604292Y84981813D01*
X-1371411Y84863154D01*
X-1371409Y84863153D01*
X-1279668Y84833345D01*
X-1122835Y84782387D01*
X-1003274Y84763451D01*
X-864689Y84741500D01*
X-864684Y84741500D01*
X-603311Y84741500D01*
X-478165Y84761323D01*
X-345165Y84782387D01*
X-96589Y84863154D01*
X136292Y84981813D01*
X347743Y85135441D01*
X532559Y85320257D01*
X686187Y85531708D01*
X804846Y85764589D01*
X885613Y86013165D01*
X906677Y86146165D01*
X926500Y86271311D01*
X926500Y86532690D01*
X889897Y86763786D01*
X885613Y86790835D01*
X804846Y87039411D01*
X686187Y87272292D01*
X532559Y87483743D01*
X464286Y87552016D01*
X4215500Y87552016D01*
X4215500Y85251985D01*
X4226000Y85149205D01*
X4226001Y85149203D01*
X4253593Y85065935D01*
X4281186Y84982665D01*
X4281187Y84982663D01*
X4373286Y84833349D01*
X4373289Y84833345D01*
X4497344Y84709290D01*
X4497348Y84709287D01*
X4646662Y84617188D01*
X4646664Y84617187D01*
X4646666Y84617186D01*
X4813203Y84562001D01*
X4915992Y84551500D01*
X4915997Y84551500D01*
X8216003Y84551500D01*
X8216008Y84551500D01*
X8318797Y84562001D01*
X8485334Y84617186D01*
X8634655Y84709289D01*
X8758711Y84833345D01*
X8850814Y84982666D01*
X8905999Y85149203D01*
X8916500Y85251992D01*
X8916500Y86523289D01*
X9715500Y86523289D01*
X9715500Y86280712D01*
X9747161Y86040215D01*
X9809947Y85805896D01*
X9902773Y85581795D01*
X9902776Y85581788D01*
X10024064Y85371711D01*
X10024066Y85371708D01*
X10024067Y85371707D01*
X10171733Y85179264D01*
X10171739Y85179257D01*
X10343256Y85007740D01*
X10343263Y85007734D01*
X10377043Y84981814D01*
X10535711Y84860064D01*
X10745788Y84738776D01*
X10969900Y84645946D01*
X11204211Y84583162D01*
X11364940Y84562002D01*
X11444711Y84551500D01*
X11444712Y84551500D01*
X12687289Y84551500D01*
X12767052Y84562001D01*
X12927789Y84583162D01*
X13162100Y84645946D01*
X13386212Y84738776D01*
X13596289Y84860064D01*
X13788738Y85007735D01*
X13960265Y85179262D01*
X14107936Y85371711D01*
X14229224Y85581788D01*
X14322054Y85805900D01*
X14384838Y86040211D01*
X14416500Y86280712D01*
X14416500Y86523288D01*
X14384838Y86763789D01*
X14322054Y86998100D01*
X14229224Y87222212D01*
X14107936Y87432289D01*
X14016073Y87552008D01*
X13960266Y87624737D01*
X13960260Y87624744D01*
X13788743Y87796261D01*
X13788736Y87796267D01*
X13596293Y87943933D01*
X13596292Y87943934D01*
X13596289Y87943936D01*
X13386212Y88065224D01*
X13386205Y88065227D01*
X13162104Y88158053D01*
X12927785Y88220839D01*
X12687289Y88252500D01*
X12687288Y88252500D01*
X11444712Y88252500D01*
X11444711Y88252500D01*
X11204214Y88220839D01*
X10969895Y88158053D01*
X10745794Y88065227D01*
X10745785Y88065223D01*
X10535706Y87943933D01*
X10343263Y87796267D01*
X10343256Y87796261D01*
X10171739Y87624744D01*
X10171733Y87624737D01*
X10024067Y87432294D01*
X9902777Y87222215D01*
X9902773Y87222206D01*
X9809947Y86998105D01*
X9747161Y86763786D01*
X9715500Y86523289D01*
X8916500Y86523289D01*
X8916500Y87552008D01*
X8905999Y87654797D01*
X8850814Y87821334D01*
X8777096Y87940848D01*
X8758713Y87970652D01*
X8758710Y87970656D01*
X8634655Y88094711D01*
X8634651Y88094714D01*
X8485337Y88186813D01*
X8485335Y88186814D01*
X8402065Y88214407D01*
X8318797Y88241999D01*
X8318795Y88242000D01*
X8216015Y88252500D01*
X8216008Y88252500D01*
X4915992Y88252500D01*
X4915984Y88252500D01*
X4813204Y88242000D01*
X4813203Y88241999D01*
X4646664Y88186814D01*
X4646662Y88186813D01*
X4497348Y88094714D01*
X4497344Y88094711D01*
X4373289Y87970656D01*
X4373286Y87970652D01*
X4281187Y87821338D01*
X4281186Y87821336D01*
X4226001Y87654797D01*
X4226000Y87654796D01*
X4215500Y87552016D01*
X464286Y87552016D01*
X347743Y87668559D01*
X136292Y87822187D01*
X-96592Y87940848D01*
X-345164Y88021613D01*
X-603311Y88062500D01*
X-603316Y88062500D01*
X-864684Y88062500D01*
X-864689Y88062500D01*
X-1122837Y88021613D01*
X-1371409Y87940848D01*
X-1604293Y87822187D01*
X-1815746Y87668557D01*
X-2000557Y87483746D01*
X-2154187Y87272293D01*
X-2272848Y87039409D01*
X-2353613Y86790837D01*
X-2394500Y86532690D01*
X-2885500Y86532690D01*
X-2885500Y90723289D01*
X4215500Y90723289D01*
X4215500Y90480712D01*
X4247161Y90240215D01*
X4309947Y90005896D01*
X4402773Y89781795D01*
X4402776Y89781788D01*
X4524064Y89571711D01*
X4524066Y89571708D01*
X4524067Y89571707D01*
X4671733Y89379264D01*
X4671739Y89379257D01*
X4843256Y89207740D01*
X4843262Y89207735D01*
X5035711Y89060064D01*
X5245788Y88938776D01*
X5469900Y88845946D01*
X5704211Y88783162D01*
X5884586Y88759416D01*
X5944711Y88751500D01*
X5944712Y88751500D01*
X7187289Y88751500D01*
X7235388Y88757833D01*
X7427789Y88783162D01*
X7662100Y88845946D01*
X7886212Y88938776D01*
X8096289Y89060064D01*
X8288738Y89207735D01*
X8460265Y89379262D01*
X8607936Y89571711D01*
X8729224Y89781788D01*
X8822054Y90005900D01*
X8884838Y90240211D01*
X8916500Y90480712D01*
X8916500Y90723288D01*
X8916500Y90723289D01*
X9715500Y90723289D01*
X9715500Y90480712D01*
X9747161Y90240215D01*
X9809947Y90005896D01*
X9902773Y89781795D01*
X9902776Y89781788D01*
X10024064Y89571711D01*
X10024066Y89571708D01*
X10024067Y89571707D01*
X10171733Y89379264D01*
X10171739Y89379257D01*
X10343256Y89207740D01*
X10343262Y89207735D01*
X10535711Y89060064D01*
X10745788Y88938776D01*
X10969900Y88845946D01*
X11204211Y88783162D01*
X11384586Y88759416D01*
X11444711Y88751500D01*
X11444712Y88751500D01*
X12687289Y88751500D01*
X12735388Y88757833D01*
X12927789Y88783162D01*
X13162100Y88845946D01*
X13386212Y88938776D01*
X13596289Y89060064D01*
X13788738Y89207735D01*
X13960265Y89379262D01*
X14107936Y89571711D01*
X14229224Y89781788D01*
X14322054Y90005900D01*
X14384838Y90240211D01*
X14416500Y90480712D01*
X14416500Y90723288D01*
X14384838Y90963789D01*
X14322054Y91198100D01*
X14229224Y91422212D01*
X14107936Y91632289D01*
X13960265Y91824738D01*
X13960260Y91824744D01*
X13788743Y91996261D01*
X13788736Y91996267D01*
X13596293Y92143933D01*
X13596292Y92143934D01*
X13596289Y92143936D01*
X13388791Y92263735D01*
X13386214Y92265223D01*
X13386205Y92265227D01*
X13162104Y92358053D01*
X12927785Y92420839D01*
X12687289Y92452500D01*
X12687288Y92452500D01*
X11444712Y92452500D01*
X11444711Y92452500D01*
X11204214Y92420839D01*
X10969895Y92358053D01*
X10745794Y92265227D01*
X10745785Y92265223D01*
X10535706Y92143933D01*
X10343263Y91996267D01*
X10343256Y91996261D01*
X10171739Y91824744D01*
X10171733Y91824737D01*
X10024067Y91632294D01*
X9902777Y91422215D01*
X9902773Y91422206D01*
X9809947Y91198105D01*
X9747161Y90963786D01*
X9715500Y90723289D01*
X8916500Y90723289D01*
X8884838Y90963789D01*
X8822054Y91198100D01*
X8729224Y91422212D01*
X8607936Y91632289D01*
X8460265Y91824738D01*
X8460260Y91824744D01*
X8288743Y91996261D01*
X8288736Y91996267D01*
X8096293Y92143933D01*
X8096292Y92143934D01*
X8096289Y92143936D01*
X7888791Y92263735D01*
X7886214Y92265223D01*
X7886205Y92265227D01*
X7662104Y92358053D01*
X7427785Y92420839D01*
X7187289Y92452500D01*
X7187288Y92452500D01*
X5944712Y92452500D01*
X5944711Y92452500D01*
X5704214Y92420839D01*
X5469895Y92358053D01*
X5245794Y92265227D01*
X5245785Y92265223D01*
X5035706Y92143933D01*
X4843263Y91996267D01*
X4843256Y91996261D01*
X4671739Y91824744D01*
X4671733Y91824737D01*
X4524067Y91632294D01*
X4402777Y91422215D01*
X4402773Y91422206D01*
X4309947Y91198105D01*
X4247161Y90963786D01*
X4215500Y90723289D01*
X-2885500Y90723289D01*
X-2885500Y94932690D01*
X-2394500Y94932690D01*
X-2394500Y94671311D01*
X-2353613Y94413164D01*
X-2272848Y94164592D01*
X-2212716Y94046577D01*
X-2154187Y93931708D01*
X-2000559Y93720257D01*
X-1815743Y93535441D01*
X-1604292Y93381813D01*
X-1436289Y93296211D01*
X-1371409Y93263153D01*
X-1247123Y93222771D01*
X-1122835Y93182387D01*
X-1003274Y93163451D01*
X-864689Y93141500D01*
X-864684Y93141500D01*
X-603311Y93141500D01*
X-478165Y93161323D01*
X-345165Y93182387D01*
X-96589Y93263154D01*
X136292Y93381813D01*
X347743Y93535441D01*
X532559Y93720257D01*
X686187Y93931708D01*
X804846Y94164589D01*
X885613Y94413165D01*
X906677Y94546165D01*
X926500Y94671311D01*
X926500Y94923289D01*
X4215500Y94923289D01*
X4215500Y94680712D01*
X4247161Y94440215D01*
X4309947Y94205896D01*
X4390245Y94012041D01*
X4402776Y93981788D01*
X4524064Y93771711D01*
X4524066Y93771708D01*
X4524067Y93771707D01*
X4671733Y93579264D01*
X4671739Y93579257D01*
X4843256Y93407740D01*
X4843262Y93407735D01*
X5035711Y93260064D01*
X5245788Y93138776D01*
X5469900Y93045946D01*
X5704211Y92983162D01*
X5884586Y92959416D01*
X5944711Y92951500D01*
X5944712Y92951500D01*
X7187289Y92951500D01*
X7235388Y92957833D01*
X7427789Y92983162D01*
X7662100Y93045946D01*
X7886212Y93138776D01*
X8096289Y93260064D01*
X8288738Y93407735D01*
X8460265Y93579262D01*
X8607936Y93771711D01*
X8729224Y93981788D01*
X8822054Y94205900D01*
X8884838Y94440211D01*
X8916500Y94680712D01*
X8916500Y94923288D01*
X8916500Y94923289D01*
X9715500Y94923289D01*
X9715500Y94680712D01*
X9747161Y94440215D01*
X9809947Y94205896D01*
X9890245Y94012041D01*
X9902776Y93981788D01*
X10024064Y93771711D01*
X10024066Y93771708D01*
X10024067Y93771707D01*
X10171733Y93579264D01*
X10171739Y93579257D01*
X10343256Y93407740D01*
X10343262Y93407735D01*
X10535711Y93260064D01*
X10745788Y93138776D01*
X10969900Y93045946D01*
X11204211Y92983162D01*
X11384586Y92959416D01*
X11444711Y92951500D01*
X11444712Y92951500D01*
X12687289Y92951500D01*
X12735388Y92957833D01*
X12927789Y92983162D01*
X13162100Y93045946D01*
X13386212Y93138776D01*
X13596289Y93260064D01*
X13788738Y93407735D01*
X13960265Y93579262D01*
X14107936Y93771711D01*
X14229224Y93981788D01*
X14322054Y94205900D01*
X14384838Y94440211D01*
X14416500Y94680712D01*
X14416500Y94923288D01*
X14394815Y95088003D01*
X19338725Y95088003D01*
X19338725Y95087998D01*
X19344693Y95019786D01*
X19352312Y94932690D01*
X19357795Y94870025D01*
X19357795Y94870021D01*
X19414424Y94658678D01*
X19414426Y94658674D01*
X19414427Y94658670D01*
X19482382Y94512941D01*
X19494000Y94460536D01*
X19494000Y78937996D01*
X22127913Y78937996D01*
X22194952Y78918311D01*
X22240707Y78865507D01*
X22244955Y78854950D01*
X22268213Y78788481D01*
X22335215Y78681849D01*
X22364186Y78635742D01*
X22491740Y78508188D01*
X22529734Y78484315D01*
X22602749Y78438436D01*
X22644480Y78412215D01*
X22814747Y78352636D01*
X22814752Y78352635D01*
X22993998Y78332439D01*
X22994002Y78332439D01*
X22994006Y78332439D01*
X23173251Y78352635D01*
X23173254Y78352636D01*
X23173257Y78352636D01*
X23343524Y78412215D01*
X23428030Y78465315D01*
X23495265Y78484315D01*
X23559973Y78465315D01*
X23617432Y78429211D01*
X23644481Y78412215D01*
X23814748Y78352636D01*
X23814753Y78352635D01*
X23993999Y78332439D01*
X23994003Y78332439D01*
X23994007Y78332439D01*
X24173252Y78352635D01*
X24173255Y78352636D01*
X24173258Y78352636D01*
X24343525Y78412215D01*
X24496265Y78508188D01*
X24623819Y78635742D01*
X24719792Y78788482D01*
X24743050Y78854951D01*
X24783772Y78911726D01*
X24848725Y78937474D01*
X24860092Y78937996D01*
X25258010Y78937996D01*
X25325049Y78918311D01*
X25359584Y78885120D01*
X25382441Y78852477D01*
X25432402Y78781126D01*
X25587123Y78626405D01*
X25766361Y78500901D01*
X25964670Y78408428D01*
X25964676Y78408427D01*
X25964677Y78408426D01*
X25981091Y78404028D01*
X26176023Y78351796D01*
X26358926Y78335795D01*
X26393998Y78332726D01*
X26394000Y78332726D01*
X26394002Y78332726D01*
X26422254Y78335198D01*
X26611977Y78351796D01*
X26823330Y78408428D01*
X27021639Y78500901D01*
X27200877Y78626405D01*
X27355598Y78781126D01*
X27410626Y78859715D01*
X27428416Y78885120D01*
X27482993Y78928745D01*
X27529990Y78937996D01*
X29558010Y78937996D01*
X29625049Y78918311D01*
X29659584Y78885120D01*
X29682441Y78852477D01*
X29732402Y78781126D01*
X29887123Y78626405D01*
X30066361Y78500901D01*
X30264670Y78408428D01*
X30264676Y78408427D01*
X30264677Y78408426D01*
X30281091Y78404028D01*
X30476023Y78351796D01*
X30658926Y78335795D01*
X30693998Y78332726D01*
X30694000Y78332726D01*
X30694002Y78332726D01*
X30722254Y78335198D01*
X30911977Y78351796D01*
X31123330Y78408428D01*
X31321639Y78500901D01*
X31500877Y78626405D01*
X31556322Y78681851D01*
X31617642Y78715334D01*
X31687334Y78710350D01*
X31731682Y78681849D01*
X31787126Y78626405D01*
X31966364Y78500901D01*
X32164673Y78408428D01*
X32164679Y78408427D01*
X32164680Y78408426D01*
X32181094Y78404028D01*
X32376026Y78351796D01*
X32558929Y78335795D01*
X32594001Y78332726D01*
X32594003Y78332726D01*
X32594005Y78332726D01*
X32622257Y78335198D01*
X32811980Y78351796D01*
X33023333Y78408428D01*
X33221642Y78500901D01*
X33400880Y78626405D01*
X33555601Y78781126D01*
X33610629Y78859715D01*
X33628419Y78885120D01*
X33682996Y78928745D01*
X33729993Y78937996D01*
X37858010Y78937996D01*
X37925049Y78918311D01*
X37959584Y78885120D01*
X37982441Y78852477D01*
X38032402Y78781126D01*
X38187123Y78626405D01*
X38366361Y78500901D01*
X38564670Y78408428D01*
X38564676Y78408427D01*
X38564677Y78408426D01*
X38581091Y78404028D01*
X38776023Y78351796D01*
X38958926Y78335795D01*
X38993998Y78332726D01*
X38994000Y78332726D01*
X38994002Y78332726D01*
X39022254Y78335198D01*
X39211977Y78351796D01*
X39423330Y78408428D01*
X39621639Y78500901D01*
X39800877Y78626405D01*
X39854476Y78680004D01*
X49353435Y78680004D01*
X49353435Y78679997D01*
X49373630Y78500751D01*
X49373631Y78500746D01*
X49433211Y78330477D01*
X49529184Y78177738D01*
X49656738Y78050184D01*
X49809478Y77954211D01*
X49979745Y77894632D01*
X49979750Y77894631D01*
X50158996Y77874435D01*
X50159000Y77874435D01*
X50159004Y77874435D01*
X50338249Y77894631D01*
X50338252Y77894632D01*
X50338255Y77894632D01*
X50508522Y77954211D01*
X50661262Y78050184D01*
X50788816Y78177738D01*
X50884789Y78330478D01*
X50902841Y78382071D01*
X50943561Y78438846D01*
X50978928Y78458159D01*
X51030522Y78476211D01*
X51183262Y78572184D01*
X51291082Y78680004D01*
X59353435Y78680004D01*
X59353435Y78679997D01*
X59373630Y78500751D01*
X59373631Y78500746D01*
X59433211Y78330477D01*
X59529184Y78177738D01*
X59656738Y78050184D01*
X59809478Y77954211D01*
X59979745Y77894632D01*
X59979750Y77894631D01*
X60158996Y77874435D01*
X60159000Y77874435D01*
X60159004Y77874435D01*
X60338249Y77894631D01*
X60338252Y77894632D01*
X60338255Y77894632D01*
X60508522Y77954211D01*
X60661262Y78050184D01*
X60788816Y78177738D01*
X60884789Y78330478D01*
X60890658Y78347254D01*
X60931377Y78404028D01*
X60966744Y78423341D01*
X60983522Y78429211D01*
X61136262Y78525184D01*
X61263816Y78652738D01*
X61280948Y78680004D01*
X69353435Y78680004D01*
X69353435Y78679997D01*
X69373630Y78500751D01*
X69373631Y78500746D01*
X69433211Y78330477D01*
X69529184Y78177738D01*
X69656738Y78050184D01*
X69809478Y77954211D01*
X69979745Y77894632D01*
X69979750Y77894631D01*
X70158996Y77874435D01*
X70159000Y77874435D01*
X70159004Y77874435D01*
X70338249Y77894631D01*
X70338252Y77894632D01*
X70338255Y77894632D01*
X70508522Y77954211D01*
X70661262Y78050184D01*
X70788816Y78177738D01*
X70884789Y78330478D01*
X70911395Y78406517D01*
X70952116Y78463293D01*
X70987483Y78482605D01*
X71063522Y78509211D01*
X71216262Y78605184D01*
X71343816Y78732738D01*
X71439789Y78885478D01*
X71499368Y79055745D01*
X71499960Y79061000D01*
X71519565Y79234997D01*
X71519565Y79235004D01*
X71499369Y79414250D01*
X71499368Y79414255D01*
X71489658Y79442004D01*
X79353435Y79442004D01*
X79353435Y79441997D01*
X79373630Y79262751D01*
X79373633Y79262738D01*
X79429894Y79101955D01*
X79433456Y79032176D01*
X79429894Y79020045D01*
X79373633Y78859263D01*
X79373630Y78859250D01*
X79353435Y78680004D01*
X79353435Y78679997D01*
X79373630Y78500751D01*
X79373631Y78500746D01*
X79433211Y78330477D01*
X79529184Y78177738D01*
X79656738Y78050184D01*
X79809478Y77954211D01*
X79979745Y77894632D01*
X79979750Y77894631D01*
X80158996Y77874435D01*
X80159000Y77874435D01*
X80159004Y77874435D01*
X80338249Y77894631D01*
X80338252Y77894632D01*
X80338255Y77894632D01*
X80508522Y77954211D01*
X80661262Y78050184D01*
X80788816Y78177738D01*
X80884789Y78330478D01*
X80944368Y78500745D01*
X80952417Y78572184D01*
X80964565Y78679997D01*
X80964565Y78680004D01*
X80944369Y78859250D01*
X80944366Y78859263D01*
X80888106Y79020045D01*
X80884544Y79089824D01*
X80888106Y79101955D01*
X80944366Y79262738D01*
X80944369Y79262751D01*
X80964565Y79441997D01*
X80964565Y79442004D01*
X80944369Y79621250D01*
X80944368Y79621255D01*
X80921804Y79685738D01*
X80884789Y79791522D01*
X80875704Y79805980D01*
X80828699Y79880789D01*
X80788816Y79944262D01*
X80661262Y80071816D01*
X80508523Y80167789D01*
X80338254Y80227369D01*
X80338249Y80227370D01*
X80159004Y80247565D01*
X80158996Y80247565D01*
X79979750Y80227370D01*
X79979745Y80227369D01*
X79809476Y80167789D01*
X79656737Y80071816D01*
X79529184Y79944263D01*
X79433211Y79791524D01*
X79373631Y79621255D01*
X79373630Y79621250D01*
X79353435Y79442004D01*
X71489658Y79442004D01*
X71467782Y79504522D01*
X71439789Y79584522D01*
X71343816Y79737262D01*
X71216262Y79864816D01*
X71190841Y79880789D01*
X71063523Y79960789D01*
X70893254Y80020369D01*
X70893249Y80020370D01*
X70714004Y80040565D01*
X70713996Y80040565D01*
X70534750Y80020370D01*
X70534745Y80020369D01*
X70364476Y79960789D01*
X70211737Y79864816D01*
X70084184Y79737263D01*
X69988210Y79584522D01*
X69961604Y79508484D01*
X69920882Y79451708D01*
X69885516Y79432396D01*
X69809478Y79405790D01*
X69656737Y79309816D01*
X69529184Y79182263D01*
X69433211Y79029524D01*
X69373631Y78859255D01*
X69373630Y78859250D01*
X69353435Y78680004D01*
X61280948Y78680004D01*
X61359789Y78805478D01*
X61419368Y78975745D01*
X61419369Y78975751D01*
X61439565Y79154997D01*
X61439565Y79155004D01*
X61419369Y79334250D01*
X61419368Y79334255D01*
X61394749Y79404613D01*
X61359789Y79504522D01*
X61359242Y79505392D01*
X61286444Y79621250D01*
X61263816Y79657262D01*
X61136262Y79784816D01*
X60983523Y79880789D01*
X60813254Y79940369D01*
X60813249Y79940370D01*
X60634004Y79960565D01*
X60633996Y79960565D01*
X60454750Y79940370D01*
X60454745Y79940369D01*
X60284476Y79880789D01*
X60131737Y79784816D01*
X60004184Y79657263D01*
X59908212Y79504525D01*
X59908210Y79504520D01*
X59902339Y79487743D01*
X59861616Y79430968D01*
X59826257Y79411661D01*
X59809480Y79405790D01*
X59809475Y79405788D01*
X59656737Y79309816D01*
X59529184Y79182263D01*
X59433211Y79029524D01*
X59373631Y78859255D01*
X59373630Y78859250D01*
X59353435Y78680004D01*
X51291082Y78680004D01*
X51310816Y78699738D01*
X51406789Y78852478D01*
X51466368Y79022745D01*
X51470086Y79055745D01*
X51486565Y79201997D01*
X51486565Y79202004D01*
X51466369Y79381250D01*
X51466368Y79381255D01*
X51458195Y79404613D01*
X51406789Y79551522D01*
X51386052Y79584524D01*
X51310815Y79704263D01*
X51183262Y79831816D01*
X51030523Y79927789D01*
X50860254Y79987369D01*
X50860249Y79987370D01*
X50681004Y80007565D01*
X50680996Y80007565D01*
X50501750Y79987370D01*
X50501745Y79987369D01*
X50331476Y79927789D01*
X50178737Y79831816D01*
X50051184Y79704263D01*
X49955210Y79551522D01*
X49937158Y79499930D01*
X49896436Y79443154D01*
X49861070Y79423842D01*
X49809478Y79405790D01*
X49656737Y79309816D01*
X49529184Y79182263D01*
X49433211Y79029524D01*
X49373631Y78859255D01*
X49373630Y78859250D01*
X49353435Y78680004D01*
X39854476Y78680004D01*
X39955598Y78781126D01*
X40010626Y78859715D01*
X40028416Y78885120D01*
X40048324Y78901034D01*
X40047681Y78901677D01*
X40084000Y78937996D01*
X40084000Y78939089D01*
X40095618Y78991494D01*
X40106113Y79014000D01*
X40173575Y79158673D01*
X40230207Y79370026D01*
X40247737Y79570400D01*
X40249277Y79588001D01*
X40249277Y79588006D01*
X40243218Y79657263D01*
X40230207Y79805980D01*
X40173575Y80017333D01*
X40172160Y80020368D01*
X40095618Y80184514D01*
X40084000Y80236918D01*
X40084000Y88316004D01*
X42638435Y88316004D01*
X42638435Y88315997D01*
X42658630Y88136751D01*
X42658631Y88136746D01*
X42718211Y87966477D01*
X42808875Y87822187D01*
X42814184Y87813738D01*
X42941738Y87686184D01*
X43094478Y87590211D01*
X43203633Y87552016D01*
X43264745Y87530632D01*
X43264750Y87530631D01*
X43443996Y87510435D01*
X43444000Y87510435D01*
X43444004Y87510435D01*
X43623249Y87530631D01*
X43623252Y87530632D01*
X43623255Y87530632D01*
X43793522Y87590211D01*
X43848472Y87624738D01*
X43878027Y87643309D01*
X43945264Y87662310D01*
X44009973Y87643309D01*
X44094475Y87590212D01*
X44264745Y87530632D01*
X44264750Y87530631D01*
X44443996Y87510435D01*
X44444000Y87510435D01*
X44444004Y87510435D01*
X44623249Y87530631D01*
X44623252Y87530632D01*
X44623255Y87530632D01*
X44793522Y87590211D01*
X44848472Y87624738D01*
X44878027Y87643309D01*
X44945264Y87662310D01*
X45009973Y87643309D01*
X45094475Y87590212D01*
X45264745Y87530632D01*
X45264750Y87530631D01*
X45443996Y87510435D01*
X45444000Y87510435D01*
X45444004Y87510435D01*
X45623249Y87530631D01*
X45623252Y87530632D01*
X45623255Y87530632D01*
X45793522Y87590211D01*
X45848472Y87624738D01*
X45878027Y87643309D01*
X45945264Y87662310D01*
X46009973Y87643309D01*
X46094475Y87590212D01*
X46264745Y87530632D01*
X46264750Y87530631D01*
X46443996Y87510435D01*
X46444000Y87510435D01*
X46444004Y87510435D01*
X46623249Y87530631D01*
X46623252Y87530632D01*
X46623255Y87530632D01*
X46793522Y87590211D01*
X46946262Y87686184D01*
X47073816Y87813738D01*
X47169789Y87966478D01*
X47229368Y88136745D01*
X47231769Y88158054D01*
X47249565Y88315997D01*
X47249565Y88316004D01*
X47229369Y88495250D01*
X47229368Y88495255D01*
X47169788Y88665524D01*
X47073815Y88818263D01*
X46946262Y88945816D01*
X46793523Y89041789D01*
X46623254Y89101369D01*
X46623249Y89101370D01*
X46444004Y89121565D01*
X46443996Y89121565D01*
X46264750Y89101370D01*
X46264737Y89101367D01*
X46094479Y89041791D01*
X46009971Y88988691D01*
X45942734Y88969691D01*
X45878029Y88988691D01*
X45793520Y89041791D01*
X45623262Y89101367D01*
X45623249Y89101370D01*
X45444004Y89121565D01*
X45443996Y89121565D01*
X45264750Y89101370D01*
X45264737Y89101367D01*
X45094479Y89041791D01*
X45009971Y88988691D01*
X44942734Y88969691D01*
X44878029Y88988691D01*
X44793520Y89041791D01*
X44623262Y89101367D01*
X44623249Y89101370D01*
X44444004Y89121565D01*
X44443996Y89121565D01*
X44264750Y89101370D01*
X44264737Y89101367D01*
X44094479Y89041791D01*
X44009971Y88988691D01*
X43942734Y88969691D01*
X43878029Y88988691D01*
X43793520Y89041791D01*
X43623262Y89101367D01*
X43623249Y89101370D01*
X43444004Y89121565D01*
X43443996Y89121565D01*
X43264750Y89101370D01*
X43264745Y89101369D01*
X43094476Y89041789D01*
X42941737Y88945816D01*
X42814184Y88818263D01*
X42718211Y88665524D01*
X42658631Y88495255D01*
X42658630Y88495250D01*
X42638435Y88316004D01*
X40084000Y88316004D01*
X40084000Y93945002D01*
X40103685Y94012041D01*
X40136877Y94046577D01*
X40250879Y94126402D01*
X40405600Y94281123D01*
X40531104Y94460361D01*
X40623577Y94658670D01*
X40655897Y94779289D01*
X74039500Y94779289D01*
X74039500Y93536712D01*
X74071161Y93296215D01*
X74133947Y93061896D01*
X74140554Y93045946D01*
X74226776Y92837788D01*
X74348064Y92627711D01*
X74348066Y92627708D01*
X74348067Y92627707D01*
X74495733Y92435264D01*
X74495739Y92435257D01*
X74667256Y92263740D01*
X74667262Y92263735D01*
X74859711Y92116064D01*
X75069788Y91994776D01*
X75293900Y91901946D01*
X75528211Y91839162D01*
X75708586Y91815416D01*
X75768711Y91807500D01*
X75768712Y91807500D01*
X76011289Y91807500D01*
X76059388Y91813833D01*
X76251789Y91839162D01*
X76486100Y91901946D01*
X76710212Y91994776D01*
X76920289Y92116064D01*
X77112738Y92263735D01*
X77284265Y92435262D01*
X77431936Y92627711D01*
X77553224Y92837788D01*
X77646054Y93061900D01*
X77708838Y93296211D01*
X77740500Y93536712D01*
X77740500Y94779288D01*
X77740500Y94779289D01*
X78239500Y94779289D01*
X78239500Y93536712D01*
X78271161Y93296215D01*
X78333947Y93061896D01*
X78340554Y93045946D01*
X78426776Y92837788D01*
X78548064Y92627711D01*
X78548066Y92627708D01*
X78548067Y92627707D01*
X78695733Y92435264D01*
X78695739Y92435257D01*
X78867256Y92263740D01*
X78867262Y92263735D01*
X79059711Y92116064D01*
X79269788Y91994776D01*
X79493900Y91901946D01*
X79728211Y91839162D01*
X79908586Y91815416D01*
X79968711Y91807500D01*
X79968712Y91807500D01*
X80211289Y91807500D01*
X80259388Y91813833D01*
X80451789Y91839162D01*
X80686100Y91901946D01*
X80910212Y91994776D01*
X81120289Y92116064D01*
X81312738Y92263735D01*
X81484265Y92435262D01*
X81631936Y92627711D01*
X81753224Y92837788D01*
X81846054Y93061900D01*
X81908838Y93296211D01*
X81940500Y93536712D01*
X81940500Y94779288D01*
X81940500Y94779289D01*
X82439500Y94779289D01*
X82439500Y93536712D01*
X82471161Y93296215D01*
X82533947Y93061896D01*
X82540554Y93045946D01*
X82626776Y92837788D01*
X82748064Y92627711D01*
X82748066Y92627708D01*
X82748067Y92627707D01*
X82895733Y92435264D01*
X82895739Y92435257D01*
X83067256Y92263740D01*
X83067262Y92263735D01*
X83259711Y92116064D01*
X83469788Y91994776D01*
X83693900Y91901946D01*
X83928211Y91839162D01*
X84108586Y91815416D01*
X84168711Y91807500D01*
X84168712Y91807500D01*
X84411289Y91807500D01*
X84459388Y91813833D01*
X84651789Y91839162D01*
X84886100Y91901946D01*
X85110212Y91994776D01*
X85320289Y92116064D01*
X85512738Y92263735D01*
X85684265Y92435262D01*
X85831936Y92627711D01*
X85953224Y92837788D01*
X86046054Y93061900D01*
X86108838Y93296211D01*
X86140500Y93536712D01*
X86140500Y94779288D01*
X86140500Y94779289D01*
X86639500Y94779289D01*
X86639500Y93536712D01*
X86671161Y93296215D01*
X86733947Y93061896D01*
X86740554Y93045946D01*
X86826776Y92837788D01*
X86948064Y92627711D01*
X86948066Y92627708D01*
X86948067Y92627707D01*
X87095733Y92435264D01*
X87095739Y92435257D01*
X87267256Y92263740D01*
X87267262Y92263735D01*
X87459711Y92116064D01*
X87669788Y91994776D01*
X87893900Y91901946D01*
X88128211Y91839162D01*
X88308586Y91815416D01*
X88368711Y91807500D01*
X88368712Y91807500D01*
X88611289Y91807500D01*
X88659388Y91813833D01*
X88851789Y91839162D01*
X89086100Y91901946D01*
X89310212Y91994776D01*
X89520289Y92116064D01*
X89712738Y92263735D01*
X89884265Y92435262D01*
X90031936Y92627711D01*
X90153224Y92837788D01*
X90246054Y93061900D01*
X90308838Y93296211D01*
X90340500Y93536712D01*
X90340500Y94779288D01*
X90308838Y95019789D01*
X90246054Y95254100D01*
X90153224Y95478212D01*
X90031936Y95688289D01*
X89884265Y95880738D01*
X89884260Y95880744D01*
X89712743Y96052261D01*
X89712736Y96052267D01*
X89520293Y96199933D01*
X89520292Y96199934D01*
X89520289Y96199936D01*
X89310212Y96321224D01*
X89310205Y96321227D01*
X89086104Y96414053D01*
X88895136Y96465223D01*
X88851789Y96476838D01*
X88851788Y96476839D01*
X88851785Y96476839D01*
X88611289Y96508500D01*
X88611288Y96508500D01*
X88368712Y96508500D01*
X88368711Y96508500D01*
X88128214Y96476839D01*
X87893895Y96414053D01*
X87669794Y96321227D01*
X87669785Y96321223D01*
X87459706Y96199933D01*
X87267263Y96052267D01*
X87267256Y96052261D01*
X87095739Y95880744D01*
X87095733Y95880737D01*
X86948067Y95688294D01*
X86826777Y95478215D01*
X86826773Y95478206D01*
X86733947Y95254105D01*
X86671161Y95019786D01*
X86639500Y94779289D01*
X86140500Y94779289D01*
X86108838Y95019789D01*
X86046054Y95254100D01*
X85953224Y95478212D01*
X85831936Y95688289D01*
X85684265Y95880738D01*
X85684260Y95880744D01*
X85512743Y96052261D01*
X85512736Y96052267D01*
X85320293Y96199933D01*
X85320292Y96199934D01*
X85320289Y96199936D01*
X85110212Y96321224D01*
X85110205Y96321227D01*
X84886104Y96414053D01*
X84695136Y96465223D01*
X84651789Y96476838D01*
X84651788Y96476839D01*
X84651785Y96476839D01*
X84411289Y96508500D01*
X84411288Y96508500D01*
X84168712Y96508500D01*
X84168711Y96508500D01*
X83928214Y96476839D01*
X83693895Y96414053D01*
X83469794Y96321227D01*
X83469785Y96321223D01*
X83259706Y96199933D01*
X83067263Y96052267D01*
X83067256Y96052261D01*
X82895739Y95880744D01*
X82895733Y95880737D01*
X82748067Y95688294D01*
X82626777Y95478215D01*
X82626773Y95478206D01*
X82533947Y95254105D01*
X82471161Y95019786D01*
X82439500Y94779289D01*
X81940500Y94779289D01*
X81908838Y95019789D01*
X81846054Y95254100D01*
X81753224Y95478212D01*
X81631936Y95688289D01*
X81484265Y95880738D01*
X81484260Y95880744D01*
X81312743Y96052261D01*
X81312736Y96052267D01*
X81120293Y96199933D01*
X81120292Y96199934D01*
X81120289Y96199936D01*
X80910212Y96321224D01*
X80910205Y96321227D01*
X80686104Y96414053D01*
X80495136Y96465223D01*
X80451789Y96476838D01*
X80451788Y96476839D01*
X80451785Y96476839D01*
X80211289Y96508500D01*
X80211288Y96508500D01*
X79968712Y96508500D01*
X79968711Y96508500D01*
X79728214Y96476839D01*
X79493895Y96414053D01*
X79269794Y96321227D01*
X79269785Y96321223D01*
X79059706Y96199933D01*
X78867263Y96052267D01*
X78867256Y96052261D01*
X78695739Y95880744D01*
X78695733Y95880737D01*
X78548067Y95688294D01*
X78426777Y95478215D01*
X78426773Y95478206D01*
X78333947Y95254105D01*
X78271161Y95019786D01*
X78239500Y94779289D01*
X77740500Y94779289D01*
X77708838Y95019789D01*
X77646054Y95254100D01*
X77553224Y95478212D01*
X77431936Y95688289D01*
X77284265Y95880738D01*
X77284260Y95880744D01*
X77112743Y96052261D01*
X77112736Y96052267D01*
X76920293Y96199933D01*
X76920292Y96199934D01*
X76920289Y96199936D01*
X76710212Y96321224D01*
X76710205Y96321227D01*
X76486104Y96414053D01*
X76295136Y96465223D01*
X76251789Y96476838D01*
X76251788Y96476839D01*
X76251785Y96476839D01*
X76011289Y96508500D01*
X76011288Y96508500D01*
X75768712Y96508500D01*
X75768711Y96508500D01*
X75528214Y96476839D01*
X75293895Y96414053D01*
X75069794Y96321227D01*
X75069785Y96321223D01*
X74859706Y96199933D01*
X74667263Y96052267D01*
X74667256Y96052261D01*
X74495739Y95880744D01*
X74495733Y95880737D01*
X74348067Y95688294D01*
X74226777Y95478215D01*
X74226773Y95478206D01*
X74133947Y95254105D01*
X74071161Y95019786D01*
X74039500Y94779289D01*
X40655897Y94779289D01*
X40680209Y94870023D01*
X40699279Y95088000D01*
X40680209Y95305977D01*
X40623577Y95517330D01*
X40531104Y95715638D01*
X40531102Y95715641D01*
X40531101Y95715643D01*
X40405601Y95894876D01*
X40369001Y95931476D01*
X40250879Y96049598D01*
X40071641Y96175102D01*
X40071642Y96175102D01*
X40071640Y96175103D01*
X39970667Y96222187D01*
X39873332Y96267575D01*
X39873328Y96267576D01*
X39873324Y96267578D01*
X39661979Y96324207D01*
X39444004Y96343277D01*
X39444000Y96343277D01*
X39298684Y96330564D01*
X39226025Y96324207D01*
X39226022Y96324207D01*
X39014679Y96267578D01*
X39014670Y96267574D01*
X38816363Y96175102D01*
X38816359Y96175100D01*
X38637125Y96049599D01*
X38606680Y96019155D01*
X38545356Y95985672D01*
X38475664Y95990658D01*
X38431320Y96019158D01*
X38400884Y96049594D01*
X38400880Y96049598D01*
X38221642Y96175102D01*
X38221643Y96175102D01*
X38221641Y96175103D01*
X38120668Y96222187D01*
X38023333Y96267575D01*
X38023329Y96267576D01*
X38023325Y96267578D01*
X37811980Y96324207D01*
X37594005Y96343277D01*
X37594001Y96343277D01*
X37448685Y96330564D01*
X37376026Y96324207D01*
X37376023Y96324207D01*
X37164680Y96267578D01*
X37164671Y96267574D01*
X36966364Y96175102D01*
X36966360Y96175100D01*
X36787124Y96049598D01*
X36632406Y95894880D01*
X36559583Y95790876D01*
X36505006Y95747251D01*
X36458008Y95737999D01*
X33779995Y95737999D01*
X33712956Y95757684D01*
X33678420Y95790876D01*
X33605599Y95894876D01*
X33568999Y95931476D01*
X33450877Y96049598D01*
X33271639Y96175102D01*
X33271640Y96175102D01*
X33271638Y96175103D01*
X33170665Y96222187D01*
X33073330Y96267575D01*
X33073326Y96267576D01*
X33073322Y96267578D01*
X32861977Y96324207D01*
X32644002Y96343277D01*
X32643998Y96343277D01*
X32498682Y96330564D01*
X32426023Y96324207D01*
X32426020Y96324207D01*
X32214677Y96267578D01*
X32214668Y96267574D01*
X32016361Y96175102D01*
X32016357Y96175100D01*
X31837121Y96049598D01*
X31682403Y95894880D01*
X31609580Y95790876D01*
X31555003Y95747251D01*
X31508005Y95737999D01*
X21729997Y95737999D01*
X21662958Y95757684D01*
X21628422Y95790876D01*
X21555601Y95894876D01*
X21519001Y95931476D01*
X21400879Y96049598D01*
X21221641Y96175102D01*
X21221642Y96175102D01*
X21221640Y96175103D01*
X21120667Y96222187D01*
X21023332Y96267575D01*
X21023328Y96267576D01*
X21023324Y96267578D01*
X20811979Y96324207D01*
X20594004Y96343277D01*
X20594000Y96343277D01*
X20448684Y96330564D01*
X20376025Y96324207D01*
X20376022Y96324207D01*
X20164679Y96267578D01*
X20164670Y96267574D01*
X19966363Y96175102D01*
X19966359Y96175100D01*
X19787123Y96049598D01*
X19632405Y95894880D01*
X19559582Y95790876D01*
X19505005Y95747251D01*
X19502822Y95746822D01*
X19494000Y95737999D01*
X19494000Y95715465D01*
X19482382Y95663060D01*
X19414428Y95517332D01*
X19414424Y95517323D01*
X19357795Y95305980D01*
X19357795Y95305976D01*
X19338725Y95088003D01*
X14394815Y95088003D01*
X14384838Y95163789D01*
X14322054Y95398100D01*
X14229224Y95622212D01*
X14107936Y95832289D01*
X13990241Y95985672D01*
X13960266Y96024737D01*
X13960260Y96024744D01*
X13788743Y96196261D01*
X13788736Y96196267D01*
X13596293Y96343933D01*
X13596292Y96343934D01*
X13596289Y96343936D01*
X13386212Y96465224D01*
X13386205Y96465227D01*
X13162104Y96558053D01*
X12927785Y96620839D01*
X12687289Y96652500D01*
X12687288Y96652500D01*
X11444712Y96652500D01*
X11444711Y96652500D01*
X11204214Y96620839D01*
X10969895Y96558053D01*
X10745794Y96465227D01*
X10745785Y96465223D01*
X10535706Y96343933D01*
X10343263Y96196267D01*
X10343256Y96196261D01*
X10171739Y96024744D01*
X10171733Y96024737D01*
X10024067Y95832294D01*
X9902777Y95622215D01*
X9902773Y95622206D01*
X9809947Y95398105D01*
X9747161Y95163786D01*
X9715500Y94923289D01*
X8916500Y94923289D01*
X8884838Y95163789D01*
X8822054Y95398100D01*
X8729224Y95622212D01*
X8607936Y95832289D01*
X8490241Y95985672D01*
X8460266Y96024737D01*
X8460260Y96024744D01*
X8288743Y96196261D01*
X8288736Y96196267D01*
X8096293Y96343933D01*
X8096292Y96343934D01*
X8096289Y96343936D01*
X7886212Y96465224D01*
X7886205Y96465227D01*
X7662104Y96558053D01*
X7427785Y96620839D01*
X7187289Y96652500D01*
X7187288Y96652500D01*
X5944712Y96652500D01*
X5944711Y96652500D01*
X5704214Y96620839D01*
X5469895Y96558053D01*
X5245794Y96465227D01*
X5245785Y96465223D01*
X5035706Y96343933D01*
X4843263Y96196267D01*
X4843256Y96196261D01*
X4671739Y96024744D01*
X4671733Y96024737D01*
X4524067Y95832294D01*
X4402777Y95622215D01*
X4402773Y95622206D01*
X4309947Y95398105D01*
X4247161Y95163786D01*
X4215500Y94923289D01*
X926500Y94923289D01*
X926500Y94932690D01*
X889897Y95163786D01*
X885613Y95190835D01*
X804846Y95439411D01*
X686187Y95672292D01*
X532559Y95883743D01*
X347743Y96068559D01*
X136292Y96222187D01*
X-96592Y96340848D01*
X-345164Y96421613D01*
X-603311Y96462500D01*
X-603316Y96462500D01*
X-864684Y96462500D01*
X-864689Y96462500D01*
X-1122837Y96421613D01*
X-1371409Y96340848D01*
X-1604293Y96222187D01*
X-1815746Y96068557D01*
X-2000557Y95883746D01*
X-2154187Y95672293D01*
X-2272848Y95439409D01*
X-2353613Y95190837D01*
X-2394500Y94932690D01*
X-2885500Y94932690D01*
X-2885500Y98222004D01*
X46654435Y98222004D01*
X46654435Y98221997D01*
X46674630Y98042751D01*
X46674631Y98042746D01*
X46734211Y97872477D01*
X46802536Y97763740D01*
X46830184Y97719738D01*
X46957738Y97592184D01*
X47110478Y97496211D01*
X47151698Y97481788D01*
X47208474Y97441067D01*
X47227786Y97405701D01*
X47231707Y97394496D01*
X47242211Y97364477D01*
X47338184Y97211738D01*
X47465738Y97084184D01*
X47618478Y96988211D01*
X47788745Y96928632D01*
X47788750Y96928631D01*
X47967996Y96908435D01*
X47968000Y96908435D01*
X47968004Y96908435D01*
X48147249Y96928631D01*
X48147252Y96928632D01*
X48147255Y96928632D01*
X48317522Y96988211D01*
X48470262Y97084184D01*
X48597816Y97211738D01*
X48693789Y97364478D01*
X48753368Y97534745D01*
X48759520Y97589345D01*
X48773565Y97713997D01*
X48773565Y97714004D01*
X48753369Y97893250D01*
X48753368Y97893255D01*
X48749187Y97905204D01*
X48693789Y98063522D01*
X48597816Y98216262D01*
X48470262Y98343816D01*
X48317523Y98439789D01*
X48276300Y98454213D01*
X48219524Y98494935D01*
X48200212Y98530302D01*
X48189157Y98561896D01*
X48185789Y98571522D01*
X48089816Y98724262D01*
X47962262Y98851816D01*
X47809523Y98947789D01*
X47639254Y99007369D01*
X47639249Y99007370D01*
X47460004Y99027565D01*
X47459996Y99027565D01*
X47280750Y99007370D01*
X47280745Y99007369D01*
X47110476Y98947789D01*
X46957737Y98851816D01*
X46830184Y98724263D01*
X46734211Y98571524D01*
X46674631Y98401255D01*
X46674630Y98401250D01*
X46654435Y98222004D01*
X-2885500Y98222004D01*
X-2885500Y102750222D01*
X3569500Y102750222D01*
X3569500Y102329778D01*
X3582644Y102246791D01*
X3603985Y102112048D01*
X3672103Y101902397D01*
X3672104Y101902394D01*
X3713464Y101821223D01*
X3772050Y101706242D01*
X3772187Y101705975D01*
X3901752Y101527642D01*
X3901756Y101527637D01*
X4057636Y101371757D01*
X4057641Y101371753D01*
X4147853Y101306211D01*
X4235978Y101242185D01*
X4341744Y101188294D01*
X4432393Y101142105D01*
X4432396Y101142104D01*
X4537221Y101108045D01*
X4642049Y101073985D01*
X4859778Y101039500D01*
X4859779Y101039500D01*
X5080221Y101039500D01*
X5080222Y101039500D01*
X5297951Y101073985D01*
X5507606Y101142105D01*
X5704022Y101242185D01*
X5882365Y101371758D01*
X6038242Y101527635D01*
X6167815Y101705978D01*
X6267895Y101902394D01*
X6336015Y102112049D01*
X6347527Y102184734D01*
X6377456Y102247867D01*
X6436767Y102284799D01*
X6506630Y102283801D01*
X6564863Y102245191D01*
X6592473Y102184733D01*
X6603985Y102112048D01*
X6672103Y101902397D01*
X6672104Y101902394D01*
X6713464Y101821223D01*
X6772050Y101706242D01*
X6772187Y101705975D01*
X6901752Y101527642D01*
X6901756Y101527637D01*
X7057636Y101371757D01*
X7057641Y101371753D01*
X7147853Y101306211D01*
X7235978Y101242185D01*
X7341744Y101188294D01*
X7432393Y101142105D01*
X7432396Y101142104D01*
X7537221Y101108045D01*
X7642049Y101073985D01*
X7859778Y101039500D01*
X7859779Y101039500D01*
X8080221Y101039500D01*
X8080222Y101039500D01*
X8297951Y101073985D01*
X8507606Y101142105D01*
X8704022Y101242185D01*
X8882365Y101371758D01*
X9038242Y101527635D01*
X9167815Y101705978D01*
X9267895Y101902394D01*
X9336015Y102112049D01*
X9347780Y102186332D01*
X9377709Y102249466D01*
X9437020Y102286398D01*
X9506883Y102285400D01*
X9565116Y102246791D01*
X9592726Y102186332D01*
X9604473Y102112165D01*
X9672567Y101902590D01*
X9772611Y101706242D01*
X9772615Y101706236D01*
X9776850Y101700406D01*
X9776852Y101700406D01*
X10446212Y102369766D01*
X10457482Y102327708D01*
X10529890Y102202292D01*
X10632292Y102099890D01*
X10757708Y102027482D01*
X10799763Y102016214D01*
X10114565Y101331015D01*
X10114566Y101331014D01*
X10236236Y101242616D01*
X10432589Y101142568D01*
X10642164Y101074474D01*
X10859819Y101040000D01*
X11080181Y101040000D01*
X11297835Y101074474D01*
X11507410Y101142568D01*
X11703760Y101242614D01*
X11825433Y101331016D01*
X11825434Y101331016D01*
X11140236Y102016214D01*
X11182292Y102027482D01*
X11307708Y102099890D01*
X11410110Y102202292D01*
X11482518Y102327708D01*
X11493787Y102369766D01*
X12163146Y101700406D01*
X12167386Y101706241D01*
X12267432Y101902590D01*
X12335525Y102112160D01*
X12347272Y102186331D01*
X12377201Y102249466D01*
X12436512Y102286397D01*
X12506375Y102285401D01*
X12564608Y102246791D01*
X12592219Y102186333D01*
X12603985Y102112048D01*
X12672103Y101902397D01*
X12672104Y101902394D01*
X12713464Y101821223D01*
X12772050Y101706242D01*
X12772187Y101705975D01*
X12901752Y101527642D01*
X12901756Y101527637D01*
X13057636Y101371757D01*
X13057641Y101371753D01*
X13147853Y101306211D01*
X13235978Y101242185D01*
X13341744Y101188294D01*
X13432393Y101142105D01*
X13432396Y101142104D01*
X13537221Y101108045D01*
X13642049Y101073985D01*
X13859778Y101039500D01*
X13859779Y101039500D01*
X14080221Y101039500D01*
X14080222Y101039500D01*
X14297951Y101073985D01*
X14507606Y101142105D01*
X14704022Y101242185D01*
X14882365Y101371758D01*
X15038242Y101527635D01*
X15167815Y101705978D01*
X15267895Y101902394D01*
X15336015Y102112049D01*
X15347527Y102184734D01*
X15377456Y102247867D01*
X15436767Y102284799D01*
X15506630Y102283801D01*
X15564863Y102245191D01*
X15592473Y102184733D01*
X15603985Y102112048D01*
X15672103Y101902397D01*
X15672104Y101902394D01*
X15713464Y101821223D01*
X15772050Y101706242D01*
X15772187Y101705975D01*
X15901752Y101527642D01*
X15901756Y101527637D01*
X16057636Y101371757D01*
X16057641Y101371753D01*
X16147853Y101306211D01*
X16235978Y101242185D01*
X16341744Y101188294D01*
X16432393Y101142105D01*
X16432396Y101142104D01*
X16537221Y101108045D01*
X16642049Y101073985D01*
X16859778Y101039500D01*
X16859779Y101039500D01*
X17080221Y101039500D01*
X17080222Y101039500D01*
X17297951Y101073985D01*
X17507606Y101142105D01*
X17704022Y101242185D01*
X17882365Y101371758D01*
X18038242Y101527635D01*
X18167815Y101705978D01*
X18267895Y101902394D01*
X18336015Y102112049D01*
X18347527Y102184734D01*
X18377456Y102247867D01*
X18436767Y102284799D01*
X18506630Y102283801D01*
X18564863Y102245191D01*
X18592473Y102184733D01*
X18603985Y102112048D01*
X18672103Y101902397D01*
X18672104Y101902394D01*
X18713464Y101821223D01*
X18772050Y101706242D01*
X18772187Y101705975D01*
X18901752Y101527642D01*
X18901756Y101527637D01*
X19057636Y101371757D01*
X19057641Y101371753D01*
X19147853Y101306211D01*
X19235978Y101242185D01*
X19341744Y101188294D01*
X19432393Y101142105D01*
X19432396Y101142104D01*
X19537221Y101108045D01*
X19642049Y101073985D01*
X19859778Y101039500D01*
X19859779Y101039500D01*
X20080221Y101039500D01*
X20080222Y101039500D01*
X20297951Y101073985D01*
X20507606Y101142105D01*
X20704022Y101242185D01*
X20882365Y101371758D01*
X21038242Y101527635D01*
X21167815Y101705978D01*
X21267895Y101902394D01*
X21336015Y102112049D01*
X21347527Y102184734D01*
X21377456Y102247867D01*
X21436767Y102284799D01*
X21506630Y102283801D01*
X21564863Y102245191D01*
X21592473Y102184733D01*
X21603985Y102112048D01*
X21672103Y101902397D01*
X21672104Y101902394D01*
X21713464Y101821223D01*
X21772050Y101706242D01*
X21772187Y101705975D01*
X21901752Y101527642D01*
X21901756Y101527637D01*
X22057636Y101371757D01*
X22057641Y101371753D01*
X22147853Y101306211D01*
X22235978Y101242185D01*
X22341744Y101188294D01*
X22432393Y101142105D01*
X22432396Y101142104D01*
X22537221Y101108045D01*
X22642049Y101073985D01*
X22859778Y101039500D01*
X22859779Y101039500D01*
X23080221Y101039500D01*
X23080222Y101039500D01*
X23297951Y101073985D01*
X23507606Y101142105D01*
X23704022Y101242185D01*
X23882365Y101371758D01*
X24038242Y101527635D01*
X24167815Y101705978D01*
X24267895Y101902394D01*
X24336015Y102112049D01*
X24347527Y102184734D01*
X24377456Y102247867D01*
X24436767Y102284799D01*
X24506630Y102283801D01*
X24564863Y102245191D01*
X24592473Y102184733D01*
X24603985Y102112048D01*
X24672103Y101902397D01*
X24672104Y101902394D01*
X24713464Y101821223D01*
X24772050Y101706242D01*
X24772187Y101705975D01*
X24901752Y101527642D01*
X24901756Y101527637D01*
X25057636Y101371757D01*
X25057641Y101371753D01*
X25147853Y101306211D01*
X25235978Y101242185D01*
X25341744Y101188294D01*
X25432393Y101142105D01*
X25432396Y101142104D01*
X25537221Y101108045D01*
X25642049Y101073985D01*
X25859778Y101039500D01*
X25859779Y101039500D01*
X26080221Y101039500D01*
X26080222Y101039500D01*
X26297951Y101073985D01*
X26507606Y101142105D01*
X26704022Y101242185D01*
X26882365Y101371758D01*
X27038242Y101527635D01*
X27167815Y101705978D01*
X27267895Y101902394D01*
X27336015Y102112049D01*
X27370500Y102329778D01*
X27370500Y102750222D01*
X27363566Y102794004D01*
X27858435Y102794004D01*
X27858435Y102793997D01*
X27878630Y102614751D01*
X27878633Y102614738D01*
X27934894Y102453955D01*
X27938456Y102384176D01*
X27934894Y102372045D01*
X27878633Y102211263D01*
X27878630Y102211250D01*
X27858435Y102032004D01*
X27858435Y102031997D01*
X27878630Y101852751D01*
X27878631Y101852746D01*
X27938211Y101682477D01*
X28004275Y101577338D01*
X28034184Y101529738D01*
X28161738Y101402184D01*
X28314478Y101306211D01*
X28484745Y101246632D01*
X28484750Y101246631D01*
X28663996Y101226435D01*
X28664000Y101226435D01*
X28664004Y101226435D01*
X28843249Y101246631D01*
X28843252Y101246632D01*
X28843255Y101246632D01*
X29013522Y101306211D01*
X29166262Y101402184D01*
X29293816Y101529738D01*
X29389789Y101682478D01*
X29449368Y101852745D01*
X29454962Y101902394D01*
X29469565Y102031997D01*
X29469565Y102032004D01*
X29449369Y102211250D01*
X29449366Y102211263D01*
X29393106Y102372045D01*
X29389544Y102441824D01*
X29393106Y102453955D01*
X29449366Y102614738D01*
X29449369Y102614751D01*
X29464633Y102750222D01*
X32569500Y102750222D01*
X32569500Y102329778D01*
X32582644Y102246791D01*
X32603985Y102112048D01*
X32672103Y101902397D01*
X32672104Y101902394D01*
X32713464Y101821223D01*
X32772050Y101706242D01*
X32772187Y101705975D01*
X32901752Y101527642D01*
X32901756Y101527637D01*
X33057636Y101371757D01*
X33057641Y101371753D01*
X33147853Y101306211D01*
X33235978Y101242185D01*
X33341744Y101188294D01*
X33432393Y101142105D01*
X33432396Y101142104D01*
X33537221Y101108045D01*
X33642049Y101073985D01*
X33859778Y101039500D01*
X33859779Y101039500D01*
X34080221Y101039500D01*
X34080222Y101039500D01*
X34297951Y101073985D01*
X34507606Y101142105D01*
X34704022Y101242185D01*
X34882365Y101371758D01*
X35038242Y101527635D01*
X35167815Y101705978D01*
X35267895Y101902394D01*
X35336015Y102112049D01*
X35347527Y102184734D01*
X35377456Y102247867D01*
X35436767Y102284799D01*
X35506630Y102283801D01*
X35564863Y102245191D01*
X35592473Y102184733D01*
X35603985Y102112048D01*
X35672103Y101902397D01*
X35672104Y101902394D01*
X35713464Y101821223D01*
X35772050Y101706242D01*
X35772187Y101705975D01*
X35901752Y101527642D01*
X35901756Y101527637D01*
X36057636Y101371757D01*
X36057641Y101371753D01*
X36147853Y101306211D01*
X36235978Y101242185D01*
X36341744Y101188294D01*
X36432393Y101142105D01*
X36432396Y101142104D01*
X36537221Y101108045D01*
X36642049Y101073985D01*
X36859778Y101039500D01*
X36859779Y101039500D01*
X37080221Y101039500D01*
X37080222Y101039500D01*
X37297951Y101073985D01*
X37507606Y101142105D01*
X37704022Y101242185D01*
X37882365Y101371758D01*
X38038242Y101527635D01*
X38167815Y101705978D01*
X38267895Y101902394D01*
X38336015Y102112049D01*
X38347527Y102184734D01*
X38377456Y102247867D01*
X38436767Y102284799D01*
X38506630Y102283801D01*
X38564863Y102245191D01*
X38592473Y102184733D01*
X38603985Y102112048D01*
X38672103Y101902397D01*
X38672104Y101902394D01*
X38713464Y101821223D01*
X38772050Y101706242D01*
X38772187Y101705975D01*
X38901752Y101527642D01*
X38901756Y101527637D01*
X39057636Y101371757D01*
X39057641Y101371753D01*
X39147853Y101306211D01*
X39235978Y101242185D01*
X39341744Y101188294D01*
X39432393Y101142105D01*
X39432396Y101142104D01*
X39537221Y101108045D01*
X39642049Y101073985D01*
X39859778Y101039500D01*
X39859779Y101039500D01*
X40080221Y101039500D01*
X40080222Y101039500D01*
X40297951Y101073985D01*
X40507606Y101142105D01*
X40704022Y101242185D01*
X40882365Y101371758D01*
X41038242Y101527635D01*
X41167815Y101705978D01*
X41267895Y101902394D01*
X41336015Y102112049D01*
X41347527Y102184734D01*
X41377456Y102247867D01*
X41436767Y102284799D01*
X41506630Y102283801D01*
X41564863Y102245191D01*
X41592473Y102184733D01*
X41603985Y102112048D01*
X41672103Y101902397D01*
X41672104Y101902394D01*
X41713464Y101821223D01*
X41772050Y101706242D01*
X41772187Y101705975D01*
X41901752Y101527642D01*
X41901756Y101527637D01*
X42057636Y101371757D01*
X42057641Y101371753D01*
X42147853Y101306211D01*
X42235978Y101242185D01*
X42341744Y101188294D01*
X42432393Y101142105D01*
X42432396Y101142104D01*
X42537221Y101108045D01*
X42642049Y101073985D01*
X42859778Y101039500D01*
X42859779Y101039500D01*
X43080221Y101039500D01*
X43080222Y101039500D01*
X43297951Y101073985D01*
X43507606Y101142105D01*
X43704022Y101242185D01*
X43882365Y101371758D01*
X44038242Y101527635D01*
X44167815Y101705978D01*
X44267895Y101902394D01*
X44336015Y102112049D01*
X44347527Y102184734D01*
X44377456Y102247867D01*
X44436767Y102284799D01*
X44506630Y102283801D01*
X44564863Y102245191D01*
X44592473Y102184733D01*
X44603985Y102112048D01*
X44672103Y101902397D01*
X44672104Y101902394D01*
X44713464Y101821223D01*
X44772050Y101706242D01*
X44772187Y101705975D01*
X44901752Y101527642D01*
X44901756Y101527637D01*
X45057636Y101371757D01*
X45057641Y101371753D01*
X45147853Y101306211D01*
X45235978Y101242185D01*
X45341744Y101188294D01*
X45432393Y101142105D01*
X45432396Y101142104D01*
X45537221Y101108045D01*
X45642049Y101073985D01*
X45859778Y101039500D01*
X45859779Y101039500D01*
X46080221Y101039500D01*
X46080222Y101039500D01*
X46297951Y101073985D01*
X46507606Y101142105D01*
X46704022Y101242185D01*
X46882365Y101371758D01*
X47038242Y101527635D01*
X47167815Y101705978D01*
X47267895Y101902394D01*
X47336015Y102112049D01*
X47347527Y102184734D01*
X47377456Y102247867D01*
X47436767Y102284799D01*
X47506630Y102283801D01*
X47564863Y102245191D01*
X47592473Y102184733D01*
X47603985Y102112048D01*
X47672103Y101902397D01*
X47672104Y101902394D01*
X47713464Y101821223D01*
X47772050Y101706242D01*
X47772187Y101705975D01*
X47901752Y101527642D01*
X47901756Y101527637D01*
X48057636Y101371757D01*
X48057641Y101371753D01*
X48147853Y101306211D01*
X48235978Y101242185D01*
X48341744Y101188294D01*
X48432393Y101142105D01*
X48432396Y101142104D01*
X48537221Y101108045D01*
X48642049Y101073985D01*
X48859778Y101039500D01*
X48859779Y101039500D01*
X49080221Y101039500D01*
X49080222Y101039500D01*
X49297951Y101073985D01*
X49507606Y101142105D01*
X49704022Y101242185D01*
X49882365Y101371758D01*
X50038242Y101527635D01*
X50167815Y101705978D01*
X50267895Y101902394D01*
X50336015Y102112049D01*
X50347527Y102184734D01*
X50377456Y102247867D01*
X50436767Y102284799D01*
X50506630Y102283801D01*
X50564863Y102245191D01*
X50592473Y102184733D01*
X50603985Y102112048D01*
X50672103Y101902397D01*
X50672104Y101902394D01*
X50713464Y101821223D01*
X50772050Y101706242D01*
X50772187Y101705975D01*
X50901752Y101527642D01*
X50901756Y101527637D01*
X51057636Y101371757D01*
X51057641Y101371753D01*
X51147853Y101306211D01*
X51235978Y101242185D01*
X51341744Y101188294D01*
X51432393Y101142105D01*
X51432396Y101142104D01*
X51537221Y101108045D01*
X51642049Y101073985D01*
X51859778Y101039500D01*
X51859779Y101039500D01*
X52080221Y101039500D01*
X52080222Y101039500D01*
X52297951Y101073985D01*
X52507606Y101142105D01*
X52704022Y101242185D01*
X52882365Y101371758D01*
X53038242Y101527635D01*
X53167815Y101705978D01*
X53267895Y101902394D01*
X53336015Y102112049D01*
X53347527Y102184734D01*
X53377456Y102247867D01*
X53436767Y102284799D01*
X53506630Y102283801D01*
X53564863Y102245191D01*
X53592473Y102184733D01*
X53603985Y102112048D01*
X53672103Y101902397D01*
X53672104Y101902394D01*
X53713464Y101821223D01*
X53772050Y101706242D01*
X53772187Y101705975D01*
X53901752Y101527642D01*
X53901756Y101527637D01*
X54057636Y101371757D01*
X54057641Y101371753D01*
X54147853Y101306211D01*
X54235978Y101242185D01*
X54341744Y101188294D01*
X54432393Y101142105D01*
X54432396Y101142104D01*
X54537221Y101108045D01*
X54642049Y101073985D01*
X54859778Y101039500D01*
X54859779Y101039500D01*
X55080221Y101039500D01*
X55080222Y101039500D01*
X55297951Y101073985D01*
X55507606Y101142105D01*
X55704022Y101242185D01*
X55882365Y101371758D01*
X56038242Y101527635D01*
X56167815Y101705978D01*
X56267895Y101902394D01*
X56336015Y102112049D01*
X56347527Y102184734D01*
X56377456Y102247867D01*
X56436767Y102284799D01*
X56506630Y102283801D01*
X56564863Y102245191D01*
X56592473Y102184733D01*
X56603985Y102112048D01*
X56672103Y101902397D01*
X56672104Y101902394D01*
X56713464Y101821223D01*
X56772050Y101706242D01*
X56772187Y101705975D01*
X56901752Y101527642D01*
X56901756Y101527637D01*
X57057636Y101371757D01*
X57057641Y101371753D01*
X57147853Y101306211D01*
X57235978Y101242185D01*
X57341744Y101188294D01*
X57432393Y101142105D01*
X57432396Y101142104D01*
X57537221Y101108045D01*
X57642049Y101073985D01*
X57859778Y101039500D01*
X57859779Y101039500D01*
X58080221Y101039500D01*
X58080222Y101039500D01*
X58297951Y101073985D01*
X58507606Y101142105D01*
X58704022Y101242185D01*
X58882365Y101371758D01*
X59038242Y101527635D01*
X59167815Y101705978D01*
X59267895Y101902394D01*
X59336015Y102112049D01*
X59347527Y102184734D01*
X59377456Y102247867D01*
X59436767Y102284799D01*
X59506630Y102283801D01*
X59564863Y102245191D01*
X59592473Y102184733D01*
X59603985Y102112048D01*
X59672103Y101902397D01*
X59672104Y101902394D01*
X59713464Y101821223D01*
X59772050Y101706242D01*
X59772187Y101705975D01*
X59901752Y101527642D01*
X59901756Y101527637D01*
X60057636Y101371757D01*
X60057641Y101371753D01*
X60147853Y101306211D01*
X60235978Y101242185D01*
X60341744Y101188294D01*
X60432393Y101142105D01*
X60432396Y101142104D01*
X60537221Y101108045D01*
X60642049Y101073985D01*
X60859778Y101039500D01*
X60859779Y101039500D01*
X61080221Y101039500D01*
X61080222Y101039500D01*
X61297951Y101073985D01*
X61507606Y101142105D01*
X61704022Y101242185D01*
X61882365Y101371758D01*
X62038242Y101527635D01*
X62167815Y101705978D01*
X62267895Y101902394D01*
X62336015Y102112049D01*
X62347527Y102184734D01*
X62377456Y102247867D01*
X62436767Y102284799D01*
X62506630Y102283801D01*
X62564863Y102245191D01*
X62592473Y102184733D01*
X62603985Y102112048D01*
X62672103Y101902397D01*
X62672104Y101902394D01*
X62713464Y101821223D01*
X62772050Y101706242D01*
X62772187Y101705975D01*
X62901752Y101527642D01*
X62901756Y101527637D01*
X63057636Y101371757D01*
X63057641Y101371753D01*
X63147853Y101306211D01*
X63235978Y101242185D01*
X63341744Y101188294D01*
X63432393Y101142105D01*
X63432396Y101142104D01*
X63537221Y101108045D01*
X63642049Y101073985D01*
X63859778Y101039500D01*
X63859779Y101039500D01*
X64080221Y101039500D01*
X64080222Y101039500D01*
X64297951Y101073985D01*
X64507606Y101142105D01*
X64704022Y101242185D01*
X64882365Y101371758D01*
X65038242Y101527635D01*
X65167815Y101705978D01*
X65267895Y101902394D01*
X65336015Y102112049D01*
X65347527Y102184734D01*
X65377456Y102247867D01*
X65436767Y102284799D01*
X65506630Y102283801D01*
X65564863Y102245191D01*
X65592473Y102184733D01*
X65603985Y102112048D01*
X65672103Y101902397D01*
X65672104Y101902394D01*
X65713464Y101821223D01*
X65772050Y101706242D01*
X65772187Y101705975D01*
X65901752Y101527642D01*
X65901756Y101527637D01*
X66057636Y101371757D01*
X66057641Y101371753D01*
X66147853Y101306211D01*
X66235978Y101242185D01*
X66341744Y101188294D01*
X66432393Y101142105D01*
X66432396Y101142104D01*
X66537221Y101108045D01*
X66642049Y101073985D01*
X66859778Y101039500D01*
X66859779Y101039500D01*
X67080221Y101039500D01*
X67080222Y101039500D01*
X67297951Y101073985D01*
X67507606Y101142105D01*
X67704022Y101242185D01*
X67882365Y101371758D01*
X68038242Y101527635D01*
X68167815Y101705978D01*
X68267895Y101902394D01*
X68336015Y102112049D01*
X68347527Y102184734D01*
X68377456Y102247867D01*
X68436767Y102284799D01*
X68506630Y102283801D01*
X68564863Y102245191D01*
X68592473Y102184733D01*
X68603985Y102112048D01*
X68672103Y101902397D01*
X68672104Y101902394D01*
X68713464Y101821223D01*
X68772050Y101706242D01*
X68772187Y101705975D01*
X68901752Y101527642D01*
X68901756Y101527637D01*
X69057636Y101371757D01*
X69057641Y101371753D01*
X69147853Y101306211D01*
X69235978Y101242185D01*
X69341744Y101188294D01*
X69432393Y101142105D01*
X69432396Y101142104D01*
X69537221Y101108045D01*
X69642049Y101073985D01*
X69859778Y101039500D01*
X69859779Y101039500D01*
X70080221Y101039500D01*
X70080222Y101039500D01*
X70297951Y101073985D01*
X70507606Y101142105D01*
X70704022Y101242185D01*
X70794631Y101308016D01*
X74039500Y101308016D01*
X74039500Y98007985D01*
X74050000Y97905205D01*
X74050001Y97905203D01*
X74077593Y97821935D01*
X74105186Y97738665D01*
X74105187Y97738663D01*
X74197286Y97589349D01*
X74197289Y97589345D01*
X74321344Y97465290D01*
X74321348Y97465287D01*
X74470662Y97373188D01*
X74470664Y97373187D01*
X74470666Y97373186D01*
X74637203Y97318001D01*
X74739992Y97307500D01*
X74739997Y97307500D01*
X77040003Y97307500D01*
X77040008Y97307500D01*
X77142797Y97318001D01*
X77309334Y97373186D01*
X77458655Y97465289D01*
X77582711Y97589345D01*
X77674814Y97738666D01*
X77729999Y97905203D01*
X77740500Y98007992D01*
X77740500Y100279289D01*
X78239500Y100279289D01*
X78239500Y99036712D01*
X78271161Y98796215D01*
X78333947Y98561896D01*
X78378551Y98454213D01*
X78426776Y98337788D01*
X78548064Y98127711D01*
X78548066Y98127708D01*
X78548067Y98127707D01*
X78695733Y97935264D01*
X78695739Y97935257D01*
X78867256Y97763740D01*
X78867263Y97763734D01*
X78924600Y97719738D01*
X79059711Y97616064D01*
X79269788Y97494776D01*
X79493900Y97401946D01*
X79728211Y97339162D01*
X79888940Y97318002D01*
X79968711Y97307500D01*
X79968712Y97307500D01*
X80211289Y97307500D01*
X80291052Y97318001D01*
X80451789Y97339162D01*
X80686100Y97401946D01*
X80910212Y97494776D01*
X81120289Y97616064D01*
X81312738Y97763735D01*
X81484265Y97935262D01*
X81631936Y98127711D01*
X81753224Y98337788D01*
X81846054Y98561900D01*
X81908838Y98796211D01*
X81940500Y99036712D01*
X81940500Y100279288D01*
X81940500Y100279289D01*
X82439500Y100279289D01*
X82439500Y99036712D01*
X82471161Y98796215D01*
X82533947Y98561896D01*
X82578551Y98454213D01*
X82626776Y98337788D01*
X82748064Y98127711D01*
X82748066Y98127708D01*
X82748067Y98127707D01*
X82895733Y97935264D01*
X82895739Y97935257D01*
X83067256Y97763740D01*
X83067263Y97763734D01*
X83124600Y97719738D01*
X83259711Y97616064D01*
X83469788Y97494776D01*
X83693900Y97401946D01*
X83928211Y97339162D01*
X84088940Y97318002D01*
X84168711Y97307500D01*
X84168712Y97307500D01*
X84411289Y97307500D01*
X84491052Y97318001D01*
X84651789Y97339162D01*
X84886100Y97401946D01*
X85110212Y97494776D01*
X85320289Y97616064D01*
X85512738Y97763735D01*
X85684265Y97935262D01*
X85831936Y98127711D01*
X85953224Y98337788D01*
X86046054Y98561900D01*
X86108838Y98796211D01*
X86140500Y99036712D01*
X86140500Y100279288D01*
X86140500Y100279289D01*
X86639500Y100279289D01*
X86639500Y99036712D01*
X86671161Y98796215D01*
X86733947Y98561896D01*
X86778551Y98454213D01*
X86826776Y98337788D01*
X86948064Y98127711D01*
X86948066Y98127708D01*
X86948067Y98127707D01*
X87095733Y97935264D01*
X87095739Y97935257D01*
X87267256Y97763740D01*
X87267263Y97763734D01*
X87324600Y97719738D01*
X87459711Y97616064D01*
X87669788Y97494776D01*
X87893900Y97401946D01*
X88128211Y97339162D01*
X88288940Y97318002D01*
X88368711Y97307500D01*
X88368712Y97307500D01*
X88611289Y97307500D01*
X88691052Y97318001D01*
X88851789Y97339162D01*
X89086100Y97401946D01*
X89310212Y97494776D01*
X89520289Y97616064D01*
X89712738Y97763735D01*
X89884265Y97935262D01*
X90031936Y98127711D01*
X90153224Y98337788D01*
X90246054Y98561900D01*
X90308838Y98796211D01*
X90340500Y99036712D01*
X90340500Y100279288D01*
X90308838Y100519789D01*
X90246054Y100754100D01*
X90153224Y100978212D01*
X90031936Y101188289D01*
X89971018Y101267679D01*
X89884266Y101380737D01*
X89884260Y101380744D01*
X89712743Y101552261D01*
X89712736Y101552267D01*
X89520293Y101699933D01*
X89520292Y101699934D01*
X89520289Y101699936D01*
X89310212Y101821224D01*
X89310205Y101821227D01*
X89086104Y101914053D01*
X88851785Y101976839D01*
X88611289Y102008500D01*
X88611288Y102008500D01*
X88368712Y102008500D01*
X88368711Y102008500D01*
X88128214Y101976839D01*
X87893895Y101914053D01*
X87669794Y101821227D01*
X87669785Y101821223D01*
X87459706Y101699933D01*
X87267263Y101552267D01*
X87267256Y101552261D01*
X87095739Y101380744D01*
X87095733Y101380737D01*
X86948067Y101188294D01*
X86826777Y100978215D01*
X86826773Y100978206D01*
X86733947Y100754105D01*
X86671161Y100519786D01*
X86639500Y100279289D01*
X86140500Y100279289D01*
X86108838Y100519789D01*
X86046054Y100754100D01*
X85953224Y100978212D01*
X85831936Y101188289D01*
X85771018Y101267679D01*
X85684266Y101380737D01*
X85684260Y101380744D01*
X85512743Y101552261D01*
X85512736Y101552267D01*
X85320293Y101699933D01*
X85320292Y101699934D01*
X85320289Y101699936D01*
X85110212Y101821224D01*
X85110205Y101821227D01*
X84886104Y101914053D01*
X84651785Y101976839D01*
X84411289Y102008500D01*
X84411288Y102008500D01*
X84168712Y102008500D01*
X84168711Y102008500D01*
X83928214Y101976839D01*
X83693895Y101914053D01*
X83469794Y101821227D01*
X83469785Y101821223D01*
X83259706Y101699933D01*
X83067263Y101552267D01*
X83067256Y101552261D01*
X82895739Y101380744D01*
X82895733Y101380737D01*
X82748067Y101188294D01*
X82626777Y100978215D01*
X82626773Y100978206D01*
X82533947Y100754105D01*
X82471161Y100519786D01*
X82439500Y100279289D01*
X81940500Y100279289D01*
X81908838Y100519789D01*
X81846054Y100754100D01*
X81753224Y100978212D01*
X81631936Y101188289D01*
X81571018Y101267679D01*
X81484266Y101380737D01*
X81484260Y101380744D01*
X81312743Y101552261D01*
X81312736Y101552267D01*
X81120293Y101699933D01*
X81120292Y101699934D01*
X81120289Y101699936D01*
X80910212Y101821224D01*
X80910205Y101821227D01*
X80686104Y101914053D01*
X80451785Y101976839D01*
X80211289Y102008500D01*
X80211288Y102008500D01*
X79968712Y102008500D01*
X79968711Y102008500D01*
X79728214Y101976839D01*
X79493895Y101914053D01*
X79269794Y101821227D01*
X79269785Y101821223D01*
X79059706Y101699933D01*
X78867263Y101552267D01*
X78867256Y101552261D01*
X78695739Y101380744D01*
X78695733Y101380737D01*
X78548067Y101188294D01*
X78426777Y100978215D01*
X78426773Y100978206D01*
X78333947Y100754105D01*
X78271161Y100519786D01*
X78239500Y100279289D01*
X77740500Y100279289D01*
X77740500Y101308008D01*
X77729999Y101410797D01*
X77674814Y101577334D01*
X77599193Y101699933D01*
X77582713Y101726652D01*
X77582710Y101726656D01*
X77458655Y101850711D01*
X77458651Y101850714D01*
X77309337Y101942813D01*
X77309335Y101942814D01*
X77226065Y101970407D01*
X77142797Y101997999D01*
X77142795Y101998000D01*
X77040015Y102008500D01*
X77040008Y102008500D01*
X74739992Y102008500D01*
X74739984Y102008500D01*
X74637204Y101998000D01*
X74637203Y101997999D01*
X74470664Y101942814D01*
X74470662Y101942813D01*
X74321348Y101850714D01*
X74321344Y101850711D01*
X74197289Y101726656D01*
X74197286Y101726652D01*
X74105187Y101577338D01*
X74105186Y101577336D01*
X74050001Y101410797D01*
X74050000Y101410796D01*
X74039500Y101308016D01*
X70794631Y101308016D01*
X70882365Y101371758D01*
X71038242Y101527635D01*
X71167815Y101705978D01*
X71267895Y101902394D01*
X71336015Y102112049D01*
X71370500Y102329778D01*
X71370500Y102750222D01*
X71336015Y102967951D01*
X71301955Y103072779D01*
X71267896Y103177604D01*
X71267895Y103177607D01*
X71207436Y103296262D01*
X71167815Y103374022D01*
X71061910Y103519789D01*
X71038247Y103552359D01*
X71038243Y103552364D01*
X70882363Y103708244D01*
X70882358Y103708248D01*
X70704025Y103837813D01*
X70704024Y103837814D01*
X70704022Y103837815D01*
X70641096Y103869878D01*
X70507606Y103937896D01*
X70507603Y103937897D01*
X70297952Y104006015D01*
X70189086Y104023258D01*
X70080222Y104040500D01*
X69859778Y104040500D01*
X69787201Y104029005D01*
X69642047Y104006015D01*
X69432396Y103937897D01*
X69432393Y103937896D01*
X69235974Y103837813D01*
X69057641Y103708248D01*
X69057636Y103708244D01*
X68901756Y103552364D01*
X68901752Y103552359D01*
X68772187Y103374026D01*
X68672104Y103177607D01*
X68672103Y103177604D01*
X68603985Y102967953D01*
X68592473Y102895268D01*
X68562544Y102832133D01*
X68503232Y102795202D01*
X68433370Y102796200D01*
X68375137Y102834810D01*
X68347527Y102895268D01*
X68336032Y102967841D01*
X68336015Y102967951D01*
X68301955Y103072779D01*
X68267896Y103177604D01*
X68267895Y103177607D01*
X68207436Y103296262D01*
X68167815Y103374022D01*
X68061910Y103519789D01*
X68038247Y103552359D01*
X68038243Y103552364D01*
X67882363Y103708244D01*
X67882358Y103708248D01*
X67704025Y103837813D01*
X67704024Y103837814D01*
X67704022Y103837815D01*
X67641096Y103869878D01*
X67507606Y103937896D01*
X67507603Y103937897D01*
X67297952Y104006015D01*
X67189086Y104023258D01*
X67080222Y104040500D01*
X66859778Y104040500D01*
X66787201Y104029005D01*
X66642047Y104006015D01*
X66432396Y103937897D01*
X66432393Y103937896D01*
X66235974Y103837813D01*
X66057641Y103708248D01*
X66057636Y103708244D01*
X65901756Y103552364D01*
X65901752Y103552359D01*
X65772187Y103374026D01*
X65672104Y103177607D01*
X65672103Y103177604D01*
X65603985Y102967953D01*
X65592473Y102895268D01*
X65562544Y102832133D01*
X65503232Y102795202D01*
X65433370Y102796200D01*
X65375137Y102834810D01*
X65347527Y102895268D01*
X65336032Y102967841D01*
X65336015Y102967951D01*
X65301955Y103072779D01*
X65267896Y103177604D01*
X65267895Y103177607D01*
X65207436Y103296262D01*
X65167815Y103374022D01*
X65061910Y103519789D01*
X65038247Y103552359D01*
X65038243Y103552364D01*
X64882363Y103708244D01*
X64882358Y103708248D01*
X64704025Y103837813D01*
X64704024Y103837814D01*
X64704022Y103837815D01*
X64641096Y103869878D01*
X64507606Y103937896D01*
X64507603Y103937897D01*
X64297952Y104006015D01*
X64189086Y104023258D01*
X64080222Y104040500D01*
X63859778Y104040500D01*
X63787201Y104029005D01*
X63642047Y104006015D01*
X63432396Y103937897D01*
X63432393Y103937896D01*
X63235974Y103837813D01*
X63057641Y103708248D01*
X63057636Y103708244D01*
X62901756Y103552364D01*
X62901752Y103552359D01*
X62772187Y103374026D01*
X62672104Y103177607D01*
X62672103Y103177604D01*
X62603985Y102967953D01*
X62592473Y102895268D01*
X62562544Y102832133D01*
X62503232Y102795202D01*
X62433370Y102796200D01*
X62375137Y102834810D01*
X62347527Y102895268D01*
X62336032Y102967841D01*
X62336015Y102967951D01*
X62301955Y103072779D01*
X62267896Y103177604D01*
X62267895Y103177607D01*
X62207436Y103296262D01*
X62167815Y103374022D01*
X62061910Y103519789D01*
X62038247Y103552359D01*
X62038243Y103552364D01*
X61882363Y103708244D01*
X61882358Y103708248D01*
X61704025Y103837813D01*
X61704024Y103837814D01*
X61704022Y103837815D01*
X61641096Y103869878D01*
X61507606Y103937896D01*
X61507603Y103937897D01*
X61297952Y104006015D01*
X61189086Y104023258D01*
X61080222Y104040500D01*
X60859778Y104040500D01*
X60787201Y104029005D01*
X60642047Y104006015D01*
X60432396Y103937897D01*
X60432393Y103937896D01*
X60235974Y103837813D01*
X60057641Y103708248D01*
X60057636Y103708244D01*
X59901756Y103552364D01*
X59901752Y103552359D01*
X59772187Y103374026D01*
X59672104Y103177607D01*
X59672103Y103177604D01*
X59603985Y102967953D01*
X59592473Y102895268D01*
X59562544Y102832133D01*
X59503232Y102795202D01*
X59433370Y102796200D01*
X59375137Y102834810D01*
X59347527Y102895268D01*
X59336032Y102967841D01*
X59336015Y102967951D01*
X59301955Y103072779D01*
X59267896Y103177604D01*
X59267895Y103177607D01*
X59207436Y103296262D01*
X59167815Y103374022D01*
X59061910Y103519789D01*
X59038247Y103552359D01*
X59038243Y103552364D01*
X58882363Y103708244D01*
X58882358Y103708248D01*
X58704025Y103837813D01*
X58704024Y103837814D01*
X58704022Y103837815D01*
X58641096Y103869878D01*
X58507606Y103937896D01*
X58507603Y103937897D01*
X58297952Y104006015D01*
X58189086Y104023258D01*
X58080222Y104040500D01*
X57859778Y104040500D01*
X57787201Y104029005D01*
X57642047Y104006015D01*
X57432396Y103937897D01*
X57432393Y103937896D01*
X57235974Y103837813D01*
X57057641Y103708248D01*
X57057636Y103708244D01*
X56901756Y103552364D01*
X56901752Y103552359D01*
X56772187Y103374026D01*
X56672104Y103177607D01*
X56672103Y103177604D01*
X56603985Y102967953D01*
X56592473Y102895268D01*
X56562544Y102832133D01*
X56503232Y102795202D01*
X56433370Y102796200D01*
X56375137Y102834810D01*
X56347527Y102895268D01*
X56336032Y102967841D01*
X56336015Y102967951D01*
X56301955Y103072779D01*
X56267896Y103177604D01*
X56267895Y103177607D01*
X56207436Y103296262D01*
X56167815Y103374022D01*
X56061910Y103519789D01*
X56038247Y103552359D01*
X56038243Y103552364D01*
X55882363Y103708244D01*
X55882358Y103708248D01*
X55704025Y103837813D01*
X55704024Y103837814D01*
X55704022Y103837815D01*
X55641096Y103869878D01*
X55507606Y103937896D01*
X55507603Y103937897D01*
X55297952Y104006015D01*
X55189086Y104023258D01*
X55080222Y104040500D01*
X54859778Y104040500D01*
X54787201Y104029005D01*
X54642047Y104006015D01*
X54432396Y103937897D01*
X54432393Y103937896D01*
X54235974Y103837813D01*
X54057641Y103708248D01*
X54057636Y103708244D01*
X53901756Y103552364D01*
X53901752Y103552359D01*
X53772187Y103374026D01*
X53672104Y103177607D01*
X53672103Y103177604D01*
X53603985Y102967953D01*
X53592473Y102895268D01*
X53562544Y102832133D01*
X53503232Y102795202D01*
X53433370Y102796200D01*
X53375137Y102834810D01*
X53347527Y102895268D01*
X53336032Y102967841D01*
X53336015Y102967951D01*
X53301955Y103072779D01*
X53267896Y103177604D01*
X53267895Y103177607D01*
X53207436Y103296262D01*
X53167815Y103374022D01*
X53061910Y103519789D01*
X53038247Y103552359D01*
X53038243Y103552364D01*
X52882363Y103708244D01*
X52882358Y103708248D01*
X52704025Y103837813D01*
X52704024Y103837814D01*
X52704022Y103837815D01*
X52641096Y103869878D01*
X52507606Y103937896D01*
X52507603Y103937897D01*
X52297952Y104006015D01*
X52189086Y104023258D01*
X52080222Y104040500D01*
X51859778Y104040500D01*
X51787201Y104029005D01*
X51642047Y104006015D01*
X51432396Y103937897D01*
X51432393Y103937896D01*
X51235974Y103837813D01*
X51057641Y103708248D01*
X51057636Y103708244D01*
X50901756Y103552364D01*
X50901752Y103552359D01*
X50772187Y103374026D01*
X50672104Y103177607D01*
X50672103Y103177604D01*
X50603985Y102967953D01*
X50592473Y102895268D01*
X50562544Y102832133D01*
X50503232Y102795202D01*
X50433370Y102796200D01*
X50375137Y102834810D01*
X50347527Y102895268D01*
X50336032Y102967841D01*
X50336015Y102967951D01*
X50301955Y103072779D01*
X50267896Y103177604D01*
X50267895Y103177607D01*
X50207436Y103296262D01*
X50167815Y103374022D01*
X50061910Y103519789D01*
X50038247Y103552359D01*
X50038243Y103552364D01*
X49882363Y103708244D01*
X49882358Y103708248D01*
X49704025Y103837813D01*
X49704024Y103837814D01*
X49704022Y103837815D01*
X49641096Y103869878D01*
X49507606Y103937896D01*
X49507603Y103937897D01*
X49297952Y104006015D01*
X49189086Y104023258D01*
X49080222Y104040500D01*
X48859778Y104040500D01*
X48787201Y104029005D01*
X48642047Y104006015D01*
X48432396Y103937897D01*
X48432393Y103937896D01*
X48235974Y103837813D01*
X48057641Y103708248D01*
X48057636Y103708244D01*
X47901756Y103552364D01*
X47901752Y103552359D01*
X47772187Y103374026D01*
X47672104Y103177607D01*
X47672103Y103177604D01*
X47603985Y102967953D01*
X47592473Y102895268D01*
X47562544Y102832133D01*
X47503232Y102795202D01*
X47433370Y102796200D01*
X47375137Y102834810D01*
X47347527Y102895268D01*
X47336032Y102967841D01*
X47336015Y102967951D01*
X47301955Y103072779D01*
X47267896Y103177604D01*
X47267895Y103177607D01*
X47207436Y103296262D01*
X47167815Y103374022D01*
X47061910Y103519789D01*
X47038247Y103552359D01*
X47038243Y103552364D01*
X46882363Y103708244D01*
X46882358Y103708248D01*
X46704025Y103837813D01*
X46704024Y103837814D01*
X46704022Y103837815D01*
X46641096Y103869878D01*
X46507606Y103937896D01*
X46507603Y103937897D01*
X46297952Y104006015D01*
X46189086Y104023258D01*
X46080222Y104040500D01*
X45859778Y104040500D01*
X45787201Y104029005D01*
X45642047Y104006015D01*
X45432396Y103937897D01*
X45432393Y103937896D01*
X45235974Y103837813D01*
X45057641Y103708248D01*
X45057636Y103708244D01*
X44901756Y103552364D01*
X44901752Y103552359D01*
X44772187Y103374026D01*
X44672104Y103177607D01*
X44672103Y103177604D01*
X44603985Y102967953D01*
X44592473Y102895268D01*
X44562544Y102832133D01*
X44503232Y102795202D01*
X44433370Y102796200D01*
X44375137Y102834810D01*
X44347527Y102895268D01*
X44336032Y102967841D01*
X44336015Y102967951D01*
X44301955Y103072779D01*
X44267896Y103177604D01*
X44267895Y103177607D01*
X44207436Y103296262D01*
X44167815Y103374022D01*
X44061910Y103519789D01*
X44038247Y103552359D01*
X44038243Y103552364D01*
X43882363Y103708244D01*
X43882358Y103708248D01*
X43704025Y103837813D01*
X43704024Y103837814D01*
X43704022Y103837815D01*
X43641096Y103869878D01*
X43507606Y103937896D01*
X43507603Y103937897D01*
X43297952Y104006015D01*
X43189086Y104023258D01*
X43080222Y104040500D01*
X42859778Y104040500D01*
X42787201Y104029005D01*
X42642047Y104006015D01*
X42432396Y103937897D01*
X42432393Y103937896D01*
X42235974Y103837813D01*
X42057641Y103708248D01*
X42057636Y103708244D01*
X41901756Y103552364D01*
X41901752Y103552359D01*
X41772187Y103374026D01*
X41672104Y103177607D01*
X41672103Y103177604D01*
X41603985Y102967953D01*
X41592473Y102895268D01*
X41562544Y102832133D01*
X41503232Y102795202D01*
X41433370Y102796200D01*
X41375137Y102834810D01*
X41347527Y102895268D01*
X41336032Y102967841D01*
X41336015Y102967951D01*
X41301955Y103072779D01*
X41267896Y103177604D01*
X41267895Y103177607D01*
X41207436Y103296262D01*
X41167815Y103374022D01*
X41061910Y103519789D01*
X41038247Y103552359D01*
X41038243Y103552364D01*
X40882363Y103708244D01*
X40882358Y103708248D01*
X40704025Y103837813D01*
X40704024Y103837814D01*
X40704022Y103837815D01*
X40641096Y103869878D01*
X40507606Y103937896D01*
X40507603Y103937897D01*
X40297952Y104006015D01*
X40189086Y104023258D01*
X40080222Y104040500D01*
X39859778Y104040500D01*
X39787201Y104029005D01*
X39642047Y104006015D01*
X39432396Y103937897D01*
X39432393Y103937896D01*
X39235974Y103837813D01*
X39057641Y103708248D01*
X39057636Y103708244D01*
X38901756Y103552364D01*
X38901752Y103552359D01*
X38772187Y103374026D01*
X38672104Y103177607D01*
X38672103Y103177604D01*
X38603985Y102967953D01*
X38592473Y102895268D01*
X38562544Y102832133D01*
X38503232Y102795202D01*
X38433370Y102796200D01*
X38375137Y102834810D01*
X38347527Y102895268D01*
X38336032Y102967841D01*
X38336015Y102967951D01*
X38301955Y103072779D01*
X38267896Y103177604D01*
X38267895Y103177607D01*
X38207436Y103296262D01*
X38167815Y103374022D01*
X38061910Y103519789D01*
X38038247Y103552359D01*
X38038243Y103552364D01*
X37882363Y103708244D01*
X37882358Y103708248D01*
X37704025Y103837813D01*
X37704024Y103837814D01*
X37704022Y103837815D01*
X37641096Y103869878D01*
X37507606Y103937896D01*
X37507603Y103937897D01*
X37297952Y104006015D01*
X37189086Y104023258D01*
X37080222Y104040500D01*
X36859778Y104040500D01*
X36787201Y104029005D01*
X36642047Y104006015D01*
X36432396Y103937897D01*
X36432393Y103937896D01*
X36235974Y103837813D01*
X36057641Y103708248D01*
X36057636Y103708244D01*
X35901756Y103552364D01*
X35901752Y103552359D01*
X35772187Y103374026D01*
X35672104Y103177607D01*
X35672103Y103177604D01*
X35603985Y102967953D01*
X35592473Y102895268D01*
X35562544Y102832133D01*
X35503232Y102795202D01*
X35433370Y102796200D01*
X35375137Y102834810D01*
X35347527Y102895268D01*
X35336032Y102967841D01*
X35336015Y102967951D01*
X35301955Y103072779D01*
X35267896Y103177604D01*
X35267895Y103177607D01*
X35207436Y103296262D01*
X35167815Y103374022D01*
X35061910Y103519789D01*
X35038247Y103552359D01*
X35038243Y103552364D01*
X34882363Y103708244D01*
X34882358Y103708248D01*
X34704025Y103837813D01*
X34704024Y103837814D01*
X34704022Y103837815D01*
X34641096Y103869878D01*
X34507606Y103937896D01*
X34507603Y103937897D01*
X34297952Y104006015D01*
X34189086Y104023258D01*
X34080222Y104040500D01*
X33859778Y104040500D01*
X33787201Y104029005D01*
X33642047Y104006015D01*
X33432396Y103937897D01*
X33432393Y103937896D01*
X33235974Y103837813D01*
X33057641Y103708248D01*
X33057636Y103708244D01*
X32901756Y103552364D01*
X32901752Y103552359D01*
X32772187Y103374026D01*
X32672104Y103177607D01*
X32672103Y103177604D01*
X32603985Y102967953D01*
X32592201Y102893552D01*
X32569500Y102750222D01*
X29464633Y102750222D01*
X29469565Y102793997D01*
X29469565Y102794004D01*
X29449369Y102973250D01*
X29449368Y102973255D01*
X29389788Y103143524D01*
X29293815Y103296263D01*
X29166262Y103423816D01*
X29013523Y103519789D01*
X28843254Y103579369D01*
X28843249Y103579370D01*
X28664004Y103599565D01*
X28663996Y103599565D01*
X28484750Y103579370D01*
X28484745Y103579369D01*
X28314476Y103519789D01*
X28161737Y103423816D01*
X28034184Y103296263D01*
X27938211Y103143524D01*
X27878631Y102973255D01*
X27878630Y102973250D01*
X27858435Y102794004D01*
X27363566Y102794004D01*
X27336015Y102967951D01*
X27301955Y103072779D01*
X27267896Y103177604D01*
X27267895Y103177607D01*
X27207436Y103296262D01*
X27167815Y103374022D01*
X27061910Y103519789D01*
X27038247Y103552359D01*
X27038243Y103552364D01*
X26882363Y103708244D01*
X26882358Y103708248D01*
X26704025Y103837813D01*
X26704024Y103837814D01*
X26704022Y103837815D01*
X26641096Y103869878D01*
X26507606Y103937896D01*
X26507603Y103937897D01*
X26297952Y104006015D01*
X26189086Y104023258D01*
X26080222Y104040500D01*
X25859778Y104040500D01*
X25787201Y104029005D01*
X25642047Y104006015D01*
X25432396Y103937897D01*
X25432393Y103937896D01*
X25235974Y103837813D01*
X25057641Y103708248D01*
X25057636Y103708244D01*
X24901756Y103552364D01*
X24901752Y103552359D01*
X24772187Y103374026D01*
X24672104Y103177607D01*
X24672103Y103177604D01*
X24603985Y102967953D01*
X24592473Y102895268D01*
X24562544Y102832133D01*
X24503232Y102795202D01*
X24433370Y102796200D01*
X24375137Y102834810D01*
X24347527Y102895268D01*
X24336032Y102967841D01*
X24336015Y102967951D01*
X24301955Y103072779D01*
X24267896Y103177604D01*
X24267895Y103177607D01*
X24207436Y103296262D01*
X24167815Y103374022D01*
X24061910Y103519789D01*
X24038247Y103552359D01*
X24038243Y103552364D01*
X23882363Y103708244D01*
X23882358Y103708248D01*
X23704025Y103837813D01*
X23704024Y103837814D01*
X23704022Y103837815D01*
X23641096Y103869878D01*
X23507606Y103937896D01*
X23507603Y103937897D01*
X23297952Y104006015D01*
X23189086Y104023258D01*
X23080222Y104040500D01*
X22859778Y104040500D01*
X22787201Y104029005D01*
X22642047Y104006015D01*
X22432396Y103937897D01*
X22432393Y103937896D01*
X22235974Y103837813D01*
X22057641Y103708248D01*
X22057636Y103708244D01*
X21901756Y103552364D01*
X21901752Y103552359D01*
X21772187Y103374026D01*
X21672104Y103177607D01*
X21672103Y103177604D01*
X21603985Y102967953D01*
X21592473Y102895268D01*
X21562544Y102832133D01*
X21503232Y102795202D01*
X21433370Y102796200D01*
X21375137Y102834810D01*
X21347527Y102895268D01*
X21336032Y102967841D01*
X21336015Y102967951D01*
X21301955Y103072779D01*
X21267896Y103177604D01*
X21267895Y103177607D01*
X21207436Y103296262D01*
X21167815Y103374022D01*
X21061910Y103519789D01*
X21038247Y103552359D01*
X21038243Y103552364D01*
X20882363Y103708244D01*
X20882358Y103708248D01*
X20704025Y103837813D01*
X20704024Y103837814D01*
X20704022Y103837815D01*
X20641096Y103869878D01*
X20507606Y103937896D01*
X20507603Y103937897D01*
X20297952Y104006015D01*
X20189086Y104023258D01*
X20080222Y104040500D01*
X19859778Y104040500D01*
X19787201Y104029005D01*
X19642047Y104006015D01*
X19432396Y103937897D01*
X19432393Y103937896D01*
X19235974Y103837813D01*
X19057641Y103708248D01*
X19057636Y103708244D01*
X18901756Y103552364D01*
X18901752Y103552359D01*
X18772187Y103374026D01*
X18672104Y103177607D01*
X18672103Y103177604D01*
X18603985Y102967953D01*
X18592473Y102895268D01*
X18562544Y102832133D01*
X18503232Y102795202D01*
X18433370Y102796200D01*
X18375137Y102834810D01*
X18347527Y102895268D01*
X18336032Y102967841D01*
X18336015Y102967951D01*
X18301955Y103072779D01*
X18267896Y103177604D01*
X18267895Y103177607D01*
X18207436Y103296262D01*
X18167815Y103374022D01*
X18061910Y103519789D01*
X18038247Y103552359D01*
X18038243Y103552364D01*
X17882363Y103708244D01*
X17882358Y103708248D01*
X17704025Y103837813D01*
X17704024Y103837814D01*
X17704022Y103837815D01*
X17641096Y103869878D01*
X17507606Y103937896D01*
X17507603Y103937897D01*
X17297952Y104006015D01*
X17189086Y104023258D01*
X17080222Y104040500D01*
X16859778Y104040500D01*
X16787201Y104029005D01*
X16642047Y104006015D01*
X16432396Y103937897D01*
X16432393Y103937896D01*
X16235974Y103837813D01*
X16057641Y103708248D01*
X16057636Y103708244D01*
X15901756Y103552364D01*
X15901752Y103552359D01*
X15772187Y103374026D01*
X15672104Y103177607D01*
X15672103Y103177604D01*
X15603985Y102967953D01*
X15592473Y102895268D01*
X15562544Y102832133D01*
X15503232Y102795202D01*
X15433370Y102796200D01*
X15375137Y102834810D01*
X15347527Y102895268D01*
X15336032Y102967841D01*
X15336015Y102967951D01*
X15301955Y103072779D01*
X15267896Y103177604D01*
X15267895Y103177607D01*
X15207436Y103296262D01*
X15167815Y103374022D01*
X15061910Y103519789D01*
X15038247Y103552359D01*
X15038243Y103552364D01*
X14882363Y103708244D01*
X14882358Y103708248D01*
X14704025Y103837813D01*
X14704024Y103837814D01*
X14704022Y103837815D01*
X14641096Y103869878D01*
X14507606Y103937896D01*
X14507603Y103937897D01*
X14297952Y104006015D01*
X14189086Y104023258D01*
X14080222Y104040500D01*
X13859778Y104040500D01*
X13787201Y104029005D01*
X13642047Y104006015D01*
X13432396Y103937897D01*
X13432393Y103937896D01*
X13235974Y103837813D01*
X13057641Y103708248D01*
X13057636Y103708244D01*
X12901756Y103552364D01*
X12901752Y103552359D01*
X12772187Y103374026D01*
X12672104Y103177607D01*
X12672103Y103177604D01*
X12603985Y102967953D01*
X12592219Y102893668D01*
X12562289Y102830534D01*
X12502977Y102793603D01*
X12433115Y102794601D01*
X12374882Y102833212D01*
X12347272Y102893670D01*
X12335525Y102967841D01*
X12267432Y103177411D01*
X12167387Y103373759D01*
X12167386Y103373761D01*
X12163146Y103379596D01*
X11493786Y102710237D01*
X11482518Y102752292D01*
X11410110Y102877708D01*
X11307708Y102980110D01*
X11182292Y103052518D01*
X11140234Y103063788D01*
X11825433Y103748986D01*
X11703760Y103837387D01*
X11507410Y103937433D01*
X11297835Y104005527D01*
X11080181Y104040000D01*
X10859819Y104040000D01*
X10642164Y104005527D01*
X10432589Y103937433D01*
X10236243Y103837389D01*
X10114565Y103748986D01*
X10799763Y103063788D01*
X10757708Y103052518D01*
X10632292Y102980110D01*
X10529890Y102877708D01*
X10457482Y102752292D01*
X10446212Y102710236D01*
X9776852Y103379595D01*
X9776850Y103379595D01*
X9772615Y103373765D01*
X9772611Y103373759D01*
X9672567Y103177411D01*
X9604473Y102967836D01*
X9592726Y102893669D01*
X9562797Y102830534D01*
X9503485Y102793603D01*
X9433622Y102794601D01*
X9375390Y102833211D01*
X9347780Y102893670D01*
X9336015Y102967952D01*
X9267896Y103177604D01*
X9267895Y103177607D01*
X9207436Y103296262D01*
X9167815Y103374022D01*
X9061910Y103519789D01*
X9038247Y103552359D01*
X9038243Y103552364D01*
X8882363Y103708244D01*
X8882358Y103708248D01*
X8704025Y103837813D01*
X8704024Y103837814D01*
X8704022Y103837815D01*
X8641096Y103869878D01*
X8507606Y103937896D01*
X8507603Y103937897D01*
X8297952Y104006015D01*
X8189086Y104023258D01*
X8080222Y104040500D01*
X7859778Y104040500D01*
X7787201Y104029005D01*
X7642047Y104006015D01*
X7432396Y103937897D01*
X7432393Y103937896D01*
X7235974Y103837813D01*
X7057641Y103708248D01*
X7057636Y103708244D01*
X6901756Y103552364D01*
X6901752Y103552359D01*
X6772187Y103374026D01*
X6672104Y103177607D01*
X6672103Y103177604D01*
X6603985Y102967953D01*
X6592473Y102895268D01*
X6562544Y102832133D01*
X6503232Y102795202D01*
X6433370Y102796200D01*
X6375137Y102834810D01*
X6347527Y102895268D01*
X6336032Y102967841D01*
X6336015Y102967951D01*
X6301955Y103072779D01*
X6267896Y103177604D01*
X6267895Y103177607D01*
X6207436Y103296262D01*
X6167815Y103374022D01*
X6061910Y103519789D01*
X6038247Y103552359D01*
X6038243Y103552364D01*
X5882363Y103708244D01*
X5882358Y103708248D01*
X5704025Y103837813D01*
X5704024Y103837814D01*
X5704022Y103837815D01*
X5641096Y103869878D01*
X5507606Y103937896D01*
X5507603Y103937897D01*
X5297952Y104006015D01*
X5189086Y104023258D01*
X5080222Y104040500D01*
X4859778Y104040500D01*
X4787201Y104029005D01*
X4642047Y104006015D01*
X4432396Y103937897D01*
X4432393Y103937896D01*
X4235974Y103837813D01*
X4057641Y103708248D01*
X4057636Y103708244D01*
X3901756Y103552364D01*
X3901752Y103552359D01*
X3772187Y103374026D01*
X3672104Y103177607D01*
X3672103Y103177604D01*
X3603985Y102967953D01*
X3592201Y102893552D01*
X3569500Y102750222D01*
X-2885500Y102750222D01*
X-2885500Y108565500D01*
X-2865815Y108632539D01*
X-2813011Y108678294D01*
X-2761500Y108689500D01*
X4423849Y108689500D01*
X4490888Y108669815D01*
G37*
G04 #@! TD.AperFunction*
G04 #@! TD*
M02*
