M48
; DRILL file {KiCad 8.0.9-8.0.9-0~ubuntu24.04.1} date 2025-06-27T12:24:33+0000
; FORMAT={2:4/ absolute / inch / suppress leading zeros}
; #@! TF.CreationDate,2025-06-27T12:24:33+00:00
; #@! TF.GenerationSoftware,Kicad,Pcbnew,8.0.9-8.0.9-0~ubuntu24.04.1
; #@! TF.FileFunction,MixedPlating,1,4
FMAT,2
INCH,TZ
; #@! TA.AperFunction,Plated,PTH,ViaDrill
T1C0.0118
; #@! TA.AperFunction,Plated,PTH,ComponentDrill
T2C0.0118
; #@! TA.AperFunction,Plated,PTH,ComponentDrill
T3C0.0394
; #@! TA.AperFunction,Plated,PTH,ComponentDrill
T4C0.0433
; #@! TA.AperFunction,Plated,PTH,ComponentDrill
T5C0.0709
; #@! TA.AperFunction,NonPlated,NPTH,ComponentDrill
T6C0.1181
%
G90
G05
T1
X867Y31552
X2468Y31970
X2985Y31570
X3285Y31870
X6085Y28076
X6485Y28276
X7485Y22476
X7685Y22976
X7819Y22042
X7952Y22509
X11285Y40470
X11285Y40170
X12885Y27670
X13185Y28870
X13485Y21676
X13579Y22064
X14435Y21876
X14515Y27739
X14685Y22170
X16285Y27739
X16532Y22073
X16985Y28970
X17104Y34770
X17435Y22228
X17498Y34770
X17685Y28476
X17891Y34770
X18285Y34770
X18685Y38670
X18850Y25735
X18885Y38470
X19748Y30976
X19953Y31182
X22747Y25732
X23685Y30976
X23872Y31163
X24885Y21576
X24985Y22206
X25319Y21810
X25352Y21443
X26747Y25732
X27622Y30976
X27840Y31195
X30647Y25732
X31559Y31276
X31559Y30976
T2
X-308Y20501
X86Y20501
X98Y17381
X98Y10381
X480Y20501
X492Y17381
X492Y10381
X1377Y20501
X1618Y11702
X1618Y4702
X1777Y20501
X2090Y11702
X2090Y4702
X2563Y11702
X2563Y4702
X2704Y30970
X3035Y11702
X3035Y4702
X3098Y30970
X3491Y30970
X3885Y30970
X7857Y7087
X7857Y6693
X7857Y17480
X7857Y17087
X7857Y16693
X7857Y16299
X7857Y15906
X7857Y15512
X7857Y11969
X7857Y21260
X7857Y15118
X7857Y14724
X7857Y14331
X7857Y13937
X7857Y13543
X7857Y13150
X7857Y12756
X7857Y12362
X7857Y9606
X8015Y5709
X8960Y5709
X9053Y31157
X9432Y5709
X9446Y31157
X9905Y5709
X10220Y21260
X10377Y5709
X10535Y21260
X10850Y21260
X10850Y5709
X11322Y5709
X11794Y5709
X12267Y5709
X12739Y5709
X13212Y5709
X13684Y5709
X13920Y21260
X14157Y5709
X14235Y21260
X14550Y21260
X14629Y5709
X14865Y21260
X15102Y5709
X15180Y21260
X15574Y5709
X16046Y5709
X16519Y5709
X16991Y5709
X17346Y21260
X17464Y5709
X17661Y21260
X17936Y5709
X17976Y21260
X18291Y21260
X18409Y5709
X18606Y21260
X18881Y5709
X18920Y21260
X19235Y21260
X19354Y5709
X19550Y21260
X19826Y5709
X19865Y21260
X20180Y21260
X20298Y5709
X20495Y21260
X20771Y5709
X20810Y21260
X21125Y21260
X21243Y5709
X21440Y21260
X21716Y5709
X21755Y21260
X22070Y21260
X22149Y5709
X22385Y21260
X22621Y5709
X22700Y21260
X23015Y21260
X23094Y5709
X23330Y21260
X23566Y5709
X23645Y21260
X23960Y21260
X24039Y5709
X24275Y18661
X24275Y18346
X24275Y16772
X24275Y16457
X24275Y16142
X24275Y14882
X24275Y14567
X24275Y11102
X24275Y6890
X24275Y21260
X24275Y20236
X24275Y19921
X24275Y19606
X24275Y19291
X24275Y18976
X24275Y18031
X24275Y17717
X24275Y17402
X24275Y17087
X24275Y15827
X24275Y15512
X24275Y15197
X24275Y14252
X24275Y13937
X24275Y13622
X24275Y13307
X24275Y12992
X24275Y12677
X24275Y12362
X24275Y12047
X24275Y11732
X24275Y11417
X24275Y10787
X24275Y10472
X24275Y10157
X24275Y9843
X24275Y9528
X24275Y6575
X30872Y4634
X30872Y4280
X34298Y4634
X34298Y4260
X34298Y3886
T3
X7931Y31334
X8108Y37436
X10391Y31334
X12084Y31334
X12832Y31334
X12852Y37436
X14801Y37436
X15352Y31334
X15529Y37436
T4
X1957Y42142
X1957Y40370
X3138Y42142
X3138Y40370
X4319Y42142
X4319Y40370
X5500Y42142
X5500Y40370
X6681Y42142
X6681Y40370
X7862Y42142
X7862Y40370
X9043Y42142
X9043Y40370
X10224Y42142
X10224Y40370
X13374Y42142
X13374Y40370
X14555Y42142
X14555Y40370
X15736Y42142
X15736Y40370
X16917Y42142
X16917Y40370
X18098Y42142
X18098Y40370
X19280Y42142
X19280Y40370
X20461Y42142
X20461Y40370
X21642Y42142
X21642Y40370
X22823Y42142
X22823Y40370
X24004Y42142
X24004Y40370
X25185Y42142
X25185Y40370
X26366Y42142
X26366Y40370
X27547Y42142
X27547Y40370
T5
X2585Y37324
X2585Y35670
X2585Y34017
X4750Y37324
X4750Y35670
X4750Y34017
X29878Y39235
X29878Y37070
X31531Y39235
X31531Y37070
X33185Y39235
X33185Y37070
X34839Y39235
X34839Y37070
T6
X-289Y37324
X-289Y34017
X29878Y42109
X34839Y42109
M30
