M48
; DRILL file {KiCad 8.0.9-8.0.9-0~ubuntu24.04.1} date 2026-08-07T09:24:38+0000
; FORMAT={2:4/ absolute / inch / suppress leading zeros}
; #@! TF.CreationDate,2026-08-07T09:24:38+00:00
; #@! TF.GenerationSoftware,Kicad,Pcbnew,8.0.9-8.0.9-0~ubuntu24.04.1
; #@! TF.FileFunction,MixedPlating,1,4
FMAT,2
INCH,TZ
; #@! TA.AperFunction,Plated,PTH,ViaDrill
T1C0.0098
; #@! TA.AperFunction,Plated,PTH,ComponentDrill
T2C0.0118
; #@! TA.AperFunction,Plated,PTH,ComponentDrill
T3C0.0118
; #@! TA.AperFunction,Plated,PTH,ComponentDrill
T4C0.0197
; #@! TA.AperFunction,Plated,PTH,ComponentDrill
T5C0.0394
; #@! TA.AperFunction,Plated,PTH,ComponentDrill
T6C0.0433
; #@! TA.AperFunction,Plated,PTH,ComponentDrill
T7C0.0551
; #@! TA.AperFunction,Plated,PTH,ComponentDrill
T8C0.1260
; #@! TA.AperFunction,Plated,PTH,ComponentDrill
T9C0.1378
; #@! TA.AperFunction,NonPlated,NPTH,ComponentDrill
T10C0.0354
; #@! TA.AperFunction,NonPlated,NPTH,ComponentDrill
T11C0.0591
%
G90
G05
T1
X6821Y25557
X7136Y25744
X7350Y26496
X7631Y26367
X7661Y26132
X7894Y26093
X17819Y28858
X17982Y29596
X24646Y17461
T2
X22028Y5344
X22372Y5138
X22461Y7037
X22490Y5640
T3
X-8957Y22648
X-8957Y22293
X-5531Y22648
X-5531Y22274
X-5531Y21900
X5138Y32520
X5138Y32205
X5138Y31890
X5138Y31575
X7943Y21368
X7943Y20423
X7943Y19006
X7943Y18061
X7943Y13809
X7943Y12392
X7943Y10541
X7943Y9124
X7943Y25148
X7943Y24203
X7943Y23730
X7943Y23258
X7943Y22785
X7943Y22313
X7943Y21841
X7943Y20896
X7943Y19951
X7943Y19478
X7943Y18533
X7943Y17589
X7943Y17116
X7943Y16644
X7943Y16171
X7943Y15699
X7943Y15226
X7943Y14754
X7943Y14281
X7943Y13337
X7943Y12864
X7943Y11919
X7943Y11447
X7943Y11014
X7943Y10069
X7943Y9596
X8809Y8888
X8927Y25305
X9124Y8888
X9321Y25305
X10413Y7283
X10807Y7283
X11762Y8888
X11841Y25305
X12077Y8888
X12392Y8888
X12707Y8888
X13022Y8888
X13337Y8888
X13652Y8888
X13967Y8888
X14203Y25305
X14281Y8888
X14587Y29783
X14587Y29469
X14587Y29154
X14587Y28839
X14587Y28524
X14596Y8888
X14596Y25305
X14911Y8888
X14990Y25305
X15226Y8888
X15384Y25305
X15541Y8888
X15778Y25305
X15856Y8888
X16171Y8888
X16171Y25305
X16486Y8888
X16565Y25305
X16801Y8888
X16959Y25305
X17116Y8888
X17352Y25305
X17431Y8888
X17746Y8888
X17746Y25305
X18061Y8888
X18140Y25305
X18376Y8888
X18533Y25305
X18691Y8888
X18927Y25305
X19006Y8888
X19321Y8888
X19321Y25305
X19636Y8888
X19715Y25305
X19951Y8888
X20266Y8888
X20291Y32712
X20581Y8888
X20685Y32712
X20896Y8888
X21211Y8888
X21526Y8888
X21811Y27032
X21841Y8888
X22156Y8888
X22283Y27032
X22470Y8888
X22756Y27032
X23228Y27032
X23494Y25305
X23494Y22943
X23494Y22628
X23494Y22313
X23494Y19242
X23494Y18927
X23494Y18612
X23494Y18297
X23494Y17982
X23494Y15817
X23494Y15502
X23494Y14872
X23494Y14557
X23494Y14242
X23494Y13927
X23494Y12982
X23494Y12667
X23494Y12352
X23494Y12037
X23494Y11722
X23494Y11407
X23494Y10778
X23494Y10463
X23494Y10148
X23494Y9833
X23494Y8888
X23494Y15187
X23494Y13612
X23494Y13297
X23494Y11093
X23494Y9518
X23494Y9203
X24425Y32712
X24819Y32712
X25945Y27032
X26417Y27032
X26890Y27032
X27362Y27032
T4
X472Y37953
X472Y1417
X749Y38621
X749Y37285
X749Y2085
X749Y749
X1417Y38898
X1417Y37008
X1417Y2362
X1417Y472
X2085Y38621
X2085Y37285
X2085Y2085
X2085Y749
X2362Y37953
X2362Y1417
X37008Y37953
X37008Y1417
X37285Y38621
X37285Y37285
X37285Y2085
X37285Y749
X37953Y38898
X37953Y37008
X37953Y2362
X37953Y472
X38621Y38621
X38621Y37285
X38621Y2085
X38621Y749
X38898Y37953
X38898Y1417
T5
X-6378Y16276
X-6378Y15276
X1480Y24236
X1480Y23236
X1480Y22236
X1480Y21236
X1480Y20236
X1480Y19236
X1480Y18236
X1480Y17236
X1480Y16236
X1480Y15236
X1480Y14236
X1480Y13236
X1480Y12236
X1480Y11236
X1480Y10236
X1480Y9236
X1480Y8236
X1480Y7236
X1480Y6236
X1480Y5236
X2480Y24236
X2480Y23236
X2480Y22236
X2480Y21236
X2480Y20236
X2480Y19236
X2480Y18236
X2480Y17236
X2480Y16236
X2480Y15236
X2480Y14236
X2480Y13236
X2480Y12236
X2480Y11236
X2480Y10236
X2480Y9236
X2480Y8236
X2480Y7236
X2480Y6236
X2480Y5236
X4331Y1004
X4508Y7106
X5059Y1004
X5295Y31102
X7008Y1004
X7028Y7106
X7776Y7106
X9469Y7106
X11752Y1004
X11929Y7106
X38799Y13126
X38799Y12126
T6
X4705Y35768
X4705Y33996
X5886Y35768
X5886Y33996
X7067Y35768
X7067Y33996
X8248Y35768
X8248Y33996
X9429Y35768
X9429Y33996
X10610Y35768
X10610Y33996
X11791Y35768
X11791Y33996
X12972Y35768
X12972Y33996
X15315Y35768
X15335Y33996
X16693Y35768
X16693Y33996
X17913Y35768
X17913Y33996
X19094Y35768
X19094Y33996
X20276Y35768
X20276Y33996
X21457Y35768
X21457Y33996
X22638Y35768
X22638Y33996
X23819Y35768
X23819Y33996
X25000Y35768
X25000Y33996
X26181Y35768
X26181Y33996
X27402Y35768
X27402Y33996
X28780Y35768
X28780Y33996
X30157Y35768
X30157Y33996
T7
X1555Y31870
X1555Y30217
X1555Y28563
X3720Y31870
X3720Y30217
X3720Y28563
X35748Y33484
X35748Y31831
X35748Y30177
X35748Y28524
X35748Y26870
X35748Y25217
X37913Y33484
X37913Y31831
X37913Y30177
X37913Y28524
X37913Y26870
X37913Y25217
T8
X1417Y37953
X1417Y1417
X37953Y37953
X37953Y1417
T9
X4547Y38012
X14094Y38012
X30413Y38012
T10
X24154Y1900
X25886Y1900
T11
X-29173Y8189
X-26220Y8189
M30
