G04 #@! TF.GenerationSoftware,KiCad,Pcbnew,8.0.9-8.0.9-0~ubuntu24.04.1*
G04 #@! TF.CreationDate,2026-08-07T09:24:37+00:00*
G04 #@! TF.ProjectId,EP91Starlet,45503931-5374-4617-926c-65742e6b6963,rev?*
G04 #@! TF.SameCoordinates,Original*
G04 #@! TF.FileFunction,Soldermask,Bot*
G04 #@! TF.FilePolarity,Negative*
%FSLAX46Y46*%
G04 Gerber Fmt 4.6, Leading zero omitted, Abs format (unit mm)*
G04 Created by KiCad (PCBNEW 8.0.9-8.0.9-0~ubuntu24.04.1) date 2026-08-07 09:24:37*
%MOMM*%
%LPD*%
G01*
G04 APERTURE LIST*
%ADD10C,0.600000*%
%ADD11C,0.800000*%
%ADD12C,6.400000*%
%ADD13O,3.300000X2.700000*%
%ADD14R,1.700000X1.700000*%
%ADD15O,1.700000X1.700000*%
%ADD16C,1.500000*%
%ADD17C,0.900000*%
%ADD18C,1.700000*%
%ADD19C,0.599999*%
%ADD20R,1.650000X1.650000*%
%ADD21C,1.650000*%
%ADD22C,5.250000*%
%ADD23R,0.650000X1.525000*%
G04 APERTURE END LIST*
D10*
G04 #@! TO.C,M3*
X56600000Y68662500D03*
X55400000Y68662500D03*
X57800000Y68662500D03*
X59000000Y68662500D03*
X52540000Y83087500D03*
X51540000Y83087500D03*
G04 #@! TD*
D11*
G04 #@! TO.C,REF\u002A\u002A1*
X1200000Y96400000D03*
X1902944Y98097056D03*
X1902944Y94702944D03*
X3600000Y98800000D03*
D12*
X3600000Y96400000D03*
D11*
X3600000Y94000000D03*
X5297056Y98097056D03*
X5297056Y94702944D03*
X6000000Y96400000D03*
G04 #@! TD*
G04 #@! TO.C,REF\u002A\u002A2*
X94000000Y3600000D03*
X94702944Y5297056D03*
X94702944Y1902944D03*
X96400000Y6000000D03*
D12*
X96400000Y3600000D03*
D11*
X96400000Y1200000D03*
X98097056Y5297056D03*
X98097056Y1902944D03*
X98800000Y3600000D03*
G04 #@! TD*
G04 #@! TO.C,J6*
G36*
G01*
X8050001Y82300000D02*
X10849999Y82300000D01*
G75*
G02*
X11100000Y82049999I0J-250001D01*
G01*
X11100000Y79850001D01*
G75*
G02*
X10849999Y79600000I-250001J0D01*
G01*
X8050001Y79600000D01*
G75*
G02*
X7800000Y79850001I0J250001D01*
G01*
X7800000Y82049999D01*
G75*
G02*
X8050001Y82300000I250001J0D01*
G01*
G37*
D13*
X9450000Y76750000D03*
X9450000Y72550000D03*
X3950000Y80950000D03*
X3950000Y76750000D03*
X3950000Y72550000D03*
G04 #@! TD*
G04 #@! TO.C,J9*
G36*
G01*
X92199999Y62700000D02*
X89400001Y62700000D01*
G75*
G02*
X89150000Y62950001I0J250001D01*
G01*
X89150000Y65149999D01*
G75*
G02*
X89400001Y65400000I250001J0D01*
G01*
X92199999Y65400000D01*
G75*
G02*
X92450000Y65149999I0J-250001D01*
G01*
X92450000Y62950001D01*
G75*
G02*
X92199999Y62700000I-250001J0D01*
G01*
G37*
X90800000Y68250000D03*
X90800000Y72450000D03*
X90800000Y76650000D03*
X90800000Y80850000D03*
X90800000Y85050000D03*
X96300000Y64050000D03*
X96300000Y68250000D03*
X96300000Y72450000D03*
X96300000Y76650000D03*
X96300000Y80850000D03*
X96300000Y85050000D03*
G04 #@! TD*
D14*
G04 #@! TO.C,J3*
X98550000Y33340000D03*
D15*
X98550000Y30800000D03*
G04 #@! TD*
D16*
G04 #@! TO.C,M4*
X11450000Y18049997D03*
X17849997Y18049997D03*
X19750000Y18049997D03*
X24050000Y18049997D03*
D10*
X26449997Y18499996D03*
X27449998Y18499996D03*
D16*
X30300000Y18049997D03*
X10999998Y2550000D03*
X12849997Y2550000D03*
X17800000Y2550000D03*
X29849998Y2550000D03*
G04 #@! TD*
G04 #@! TO.C,BT1*
X-74099925Y20800000D03*
X-66600067Y20800000D03*
G04 #@! TD*
D17*
G04 #@! TO.C,J4*
X61350000Y4825000D03*
X65750000Y4825000D03*
G04 #@! TD*
D10*
G04 #@! TO.C,M6*
X-14050000Y57525000D03*
X-14050000Y56575000D03*
X-14050000Y55625002D03*
X-22750000Y56625000D03*
X-22750000Y57525000D03*
G04 #@! TD*
D14*
G04 #@! TO.C,J5*
X-16200000Y41340000D03*
D15*
X-16200000Y38800000D03*
G04 #@! TD*
D11*
G04 #@! TO.C,REF\u002A\u002A*
X94000000Y96400000D03*
X94702944Y98097056D03*
X94702944Y94702944D03*
X96400000Y98800000D03*
D12*
X96400000Y96400000D03*
D11*
X96400000Y94000000D03*
X98097056Y98097056D03*
X98097056Y94702944D03*
X98800000Y96400000D03*
G04 #@! TD*
G04 #@! TO.C,J7*
G36*
G01*
X7150000Y13900000D02*
X7150000Y12700000D01*
G75*
G02*
X6900000Y12450000I-250000J0D01*
G01*
X5700000Y12450000D01*
G75*
G02*
X5450000Y12700000I0J250000D01*
G01*
X5450000Y13900000D01*
G75*
G02*
X5700000Y14150000I250000J0D01*
G01*
X6900000Y14150000D01*
G75*
G02*
X7150000Y13900000I0J-250000D01*
G01*
G37*
D18*
X3760000Y13300000D03*
X6300000Y15840000D03*
X3760000Y15840000D03*
X6300000Y18380000D03*
X3760000Y18380000D03*
X6300000Y20920000D03*
X3760000Y20920000D03*
X6300000Y23460000D03*
X3760000Y23460000D03*
X6300000Y26000000D03*
X3760000Y26000000D03*
X6300000Y28540000D03*
X3760000Y28540000D03*
X6300000Y31080000D03*
X3760000Y31080000D03*
X6300000Y33620000D03*
X3760000Y33620000D03*
X6300000Y36160000D03*
X3760000Y36160000D03*
X6300000Y38700000D03*
X3760000Y38700000D03*
X6300000Y41240000D03*
X3760000Y41240000D03*
X6300000Y43780000D03*
X3760000Y43780000D03*
X6300000Y46320000D03*
X3760000Y46320000D03*
X6300000Y48860000D03*
X3760000Y48860000D03*
X6300000Y51400000D03*
X3760000Y51400000D03*
X6300000Y53940000D03*
X3760000Y53940000D03*
X6300000Y56480000D03*
X3760000Y56480000D03*
X6300000Y59020000D03*
X3760000Y59020000D03*
X6300000Y61560000D03*
X3760000Y61560000D03*
G04 #@! TD*
D19*
G04 #@! TO.C,M7*
X56824999Y13049999D03*
X55949997Y13574999D03*
X57125001Y14324997D03*
X57049998Y17874998D03*
G04 #@! TD*
D20*
G04 #@! TO.C,J1*
X11950000Y86350000D03*
D21*
X14950000Y86350000D03*
X17950000Y86350000D03*
X20950000Y86350000D03*
X23950000Y86350000D03*
X26950000Y86350000D03*
X29950000Y86350000D03*
X32950000Y86350000D03*
X11950000Y90850000D03*
X14950000Y90850000D03*
X17950000Y90850000D03*
X20950000Y90850000D03*
X23950000Y90850000D03*
X26950000Y90850000D03*
X29950000Y90850000D03*
X32950000Y90850000D03*
X38950000Y86350000D03*
X42400000Y86350000D03*
X45500000Y86350000D03*
X48500000Y86350000D03*
X51500000Y86350000D03*
X54500000Y86350000D03*
X57500000Y86350000D03*
X60500000Y86350000D03*
X63500000Y86350000D03*
X66500000Y86350000D03*
X69600000Y86350000D03*
X73100000Y86350000D03*
X76600000Y86350000D03*
X38900000Y90850000D03*
X42400000Y90850000D03*
X45500000Y90850000D03*
X48500000Y90850000D03*
X51500000Y90850000D03*
X54500000Y90850000D03*
X57500000Y90850000D03*
X60500000Y90850000D03*
X63500000Y90850000D03*
X66500000Y90850000D03*
X69600000Y90850000D03*
X73100000Y90850000D03*
X76600000Y90850000D03*
D22*
X11550000Y96550000D03*
X35800000Y96550000D03*
X77250000Y96550000D03*
G04 #@! TD*
D10*
G04 #@! TO.C,M2*
X67100000Y68662500D03*
X65900000Y68662500D03*
X68300000Y68662500D03*
X69500000Y68662500D03*
X63040000Y83087500D03*
X62040000Y83087500D03*
G04 #@! TD*
D11*
G04 #@! TO.C,REF\u002A\u002A3*
X1200000Y3600000D03*
X1902944Y5297056D03*
X1902944Y1902944D03*
X3600000Y6000000D03*
D12*
X3600000Y3600000D03*
D11*
X3600000Y1200000D03*
X5297056Y5297056D03*
X5297056Y1902944D03*
X6000000Y3600000D03*
G04 #@! TD*
G04 #@! TO.C,D4*
G36*
G01*
X51800000Y99175000D02*
X51800000Y98425000D01*
G75*
G02*
X51575000Y98200000I-225000J0D01*
G01*
X51125000Y98200000D01*
G75*
G02*
X50900000Y98425000I0J225000D01*
G01*
X50900000Y99175000D01*
G75*
G02*
X51125000Y99400000I225000J0D01*
G01*
X51575000Y99400000D01*
G75*
G02*
X51800000Y99175000I0J-225000D01*
G01*
G37*
G36*
G01*
X48500000Y99175000D02*
X48500000Y98425000D01*
G75*
G02*
X48275000Y98200000I-225000J0D01*
G01*
X47825000Y98200000D01*
G75*
G02*
X47600000Y98425000I0J225000D01*
G01*
X47600000Y99175000D01*
G75*
G02*
X47825000Y99400000I225000J0D01*
G01*
X48275000Y99400000D01*
G75*
G02*
X48500000Y99175000I0J-225000D01*
G01*
G37*
G04 #@! TD*
G04 #@! TO.C,D1*
G36*
G01*
X19650000Y98925000D02*
X19650000Y98175000D01*
G75*
G02*
X19425000Y97950000I-225000J0D01*
G01*
X18975000Y97950000D01*
G75*
G02*
X18750000Y98175000I0J225000D01*
G01*
X18750000Y98925000D01*
G75*
G02*
X18975000Y99150000I225000J0D01*
G01*
X19425000Y99150000D01*
G75*
G02*
X19650000Y98925000I0J-225000D01*
G01*
G37*
G36*
G01*
X16350000Y98925000D02*
X16350000Y98175000D01*
G75*
G02*
X16125000Y97950000I-225000J0D01*
G01*
X15675000Y97950000D01*
G75*
G02*
X15450000Y98175000I0J225000D01*
G01*
X15450000Y98925000D01*
G75*
G02*
X15675000Y99150000I225000J0D01*
G01*
X16125000Y99150000D01*
G75*
G02*
X16350000Y98925000I0J-225000D01*
G01*
G37*
G04 #@! TD*
G04 #@! TO.C,R7*
G36*
G01*
X43330000Y105225000D02*
X43330000Y104855000D01*
G75*
G02*
X43195000Y104720000I-135000J0D01*
G01*
X42925000Y104720000D01*
G75*
G02*
X42790000Y104855000I0J135000D01*
G01*
X42790000Y105225000D01*
G75*
G02*
X42925000Y105360000I135000J0D01*
G01*
X43195000Y105360000D01*
G75*
G02*
X43330000Y105225000I0J-135000D01*
G01*
G37*
G36*
G01*
X42310000Y105225000D02*
X42310000Y104855000D01*
G75*
G02*
X42175000Y104720000I-135000J0D01*
G01*
X41905000Y104720000D01*
G75*
G02*
X41770000Y104855000I0J135000D01*
G01*
X41770000Y105225000D01*
G75*
G02*
X41905000Y105360000I135000J0D01*
G01*
X42175000Y105360000D01*
G75*
G02*
X42310000Y105225000I0J-135000D01*
G01*
G37*
G04 #@! TD*
G04 #@! TO.C,R8*
G36*
G01*
X43330000Y103235000D02*
X43330000Y102865000D01*
G75*
G02*
X43195000Y102730000I-135000J0D01*
G01*
X42925000Y102730000D01*
G75*
G02*
X42790000Y102865000I0J135000D01*
G01*
X42790000Y103235000D01*
G75*
G02*
X42925000Y103370000I135000J0D01*
G01*
X43195000Y103370000D01*
G75*
G02*
X43330000Y103235000I0J-135000D01*
G01*
G37*
G36*
G01*
X42310000Y103235000D02*
X42310000Y102865000D01*
G75*
G02*
X42175000Y102730000I-135000J0D01*
G01*
X41905000Y102730000D01*
G75*
G02*
X41770000Y102865000I0J135000D01*
G01*
X41770000Y103235000D01*
G75*
G02*
X41905000Y103370000I135000J0D01*
G01*
X42175000Y103370000D01*
G75*
G02*
X42310000Y103235000I0J-135000D01*
G01*
G37*
G04 #@! TD*
D23*
G04 #@! TO.C,IC3*
X44705000Y93088000D03*
X43435000Y93088000D03*
X42165000Y93088000D03*
X40895000Y93088000D03*
X40895000Y98512000D03*
X42165000Y98512000D03*
X43435000Y98512000D03*
X44705000Y98512000D03*
G04 #@! TD*
G04 #@! TO.C,R6*
G36*
G01*
X26680000Y105235000D02*
X26680000Y104865000D01*
G75*
G02*
X26545000Y104730000I-135000J0D01*
G01*
X26275000Y104730000D01*
G75*
G02*
X26140000Y104865000I0J135000D01*
G01*
X26140000Y105235000D01*
G75*
G02*
X26275000Y105370000I135000J0D01*
G01*
X26545000Y105370000D01*
G75*
G02*
X26680000Y105235000I0J-135000D01*
G01*
G37*
G36*
G01*
X25660000Y105235000D02*
X25660000Y104865000D01*
G75*
G02*
X25525000Y104730000I-135000J0D01*
G01*
X25255000Y104730000D01*
G75*
G02*
X25120000Y104865000I0J135000D01*
G01*
X25120000Y105235000D01*
G75*
G02*
X25255000Y105370000I135000J0D01*
G01*
X25525000Y105370000D01*
G75*
G02*
X25660000Y105235000I0J-135000D01*
G01*
G37*
G04 #@! TD*
G04 #@! TO.C,R5*
G36*
G01*
X26590000Y102985000D02*
X26590000Y102615000D01*
G75*
G02*
X26455000Y102480000I-135000J0D01*
G01*
X26185000Y102480000D01*
G75*
G02*
X26050000Y102615000I0J135000D01*
G01*
X26050000Y102985000D01*
G75*
G02*
X26185000Y103120000I135000J0D01*
G01*
X26455000Y103120000D01*
G75*
G02*
X26590000Y102985000I0J-135000D01*
G01*
G37*
G36*
G01*
X25570000Y102985000D02*
X25570000Y102615000D01*
G75*
G02*
X25435000Y102480000I-135000J0D01*
G01*
X25165000Y102480000D01*
G75*
G02*
X25030000Y102615000I0J135000D01*
G01*
X25030000Y102985000D01*
G75*
G02*
X25165000Y103120000I135000J0D01*
G01*
X25435000Y103120000D01*
G75*
G02*
X25570000Y102985000I0J-135000D01*
G01*
G37*
G04 #@! TD*
G04 #@! TO.C,D3*
G36*
G01*
X51650000Y95675000D02*
X51650000Y94925000D01*
G75*
G02*
X51425000Y94700000I-225000J0D01*
G01*
X50975000Y94700000D01*
G75*
G02*
X50750000Y94925000I0J225000D01*
G01*
X50750000Y95675000D01*
G75*
G02*
X50975000Y95900000I225000J0D01*
G01*
X51425000Y95900000D01*
G75*
G02*
X51650000Y95675000I0J-225000D01*
G01*
G37*
G36*
G01*
X48350000Y95675000D02*
X48350000Y94925000D01*
G75*
G02*
X48125000Y94700000I-225000J0D01*
G01*
X47675000Y94700000D01*
G75*
G02*
X47450000Y94925000I0J225000D01*
G01*
X47450000Y95675000D01*
G75*
G02*
X47675000Y95900000I225000J0D01*
G01*
X48125000Y95900000D01*
G75*
G02*
X48350000Y95675000I0J-225000D01*
G01*
G37*
G04 #@! TD*
G04 #@! TO.C,D2*
G36*
G01*
X19650000Y95575000D02*
X19650000Y94825000D01*
G75*
G02*
X19425000Y94600000I-225000J0D01*
G01*
X18975000Y94600000D01*
G75*
G02*
X18750000Y94825000I0J225000D01*
G01*
X18750000Y95575000D01*
G75*
G02*
X18975000Y95800000I225000J0D01*
G01*
X19425000Y95800000D01*
G75*
G02*
X19650000Y95575000I0J-225000D01*
G01*
G37*
G36*
G01*
X16350000Y95575000D02*
X16350000Y94825000D01*
G75*
G02*
X16125000Y94600000I-225000J0D01*
G01*
X15675000Y94600000D01*
G75*
G02*
X15450000Y94825000I0J225000D01*
G01*
X15450000Y95575000D01*
G75*
G02*
X15675000Y95800000I225000J0D01*
G01*
X16125000Y95800000D01*
G75*
G02*
X16350000Y95575000I0J-225000D01*
G01*
G37*
G04 #@! TD*
G04 #@! TO.C,IC4*
X25705000Y93838000D03*
X24435000Y93838000D03*
X23165000Y93838000D03*
X21895000Y93838000D03*
X21895000Y99262000D03*
X23165000Y99262000D03*
X24435000Y99262000D03*
X25705000Y99262000D03*
G04 #@! TD*
M02*
