M48
; DRILL file {KiCad 8.0.9-8.0.9-0~ubuntu24.04.1} date 2025-06-27T08:15:53+0000
; FORMAT={2:4/ absolute / inch / suppress leading zeros}
; #@! TF.CreationDate,2025-06-27T08:15:53+00:00
; #@! TF.GenerationSoftware,Kicad,Pcbnew,8.0.9-8.0.9-0~ubuntu24.04.1
; #@! TF.FileFunction,MixedPlating,1,4
FMAT,2
INCH,TZ
; #@! TA.AperFunction,Plated,PTH,ViaDrill
T1C0.0118
; #@! TA.AperFunction,Plated,PTH,ComponentDrill
T2C0.0118
; #@! TA.AperFunction,Plated,PTH,ComponentDrill
T3C0.0394
; #@! TA.AperFunction,Plated,PTH,ComponentDrill
T4C0.0433
; #@! TA.AperFunction,Plated,PTH,ComponentDrill
T5C0.0709
; #@! TA.AperFunction,NonPlated,NPTH,ComponentDrill
T6C0.1181
%
G90
G05
T1
X46785Y43870
X46785Y39870
X46785Y35970
X46788Y47767
T2
X9585Y10464
X9585Y10070
X9585Y20857
X9585Y20464
X9585Y20070
X9585Y19676
X9585Y19283
X9585Y18889
X9585Y15346
X9585Y24637
X9585Y18495
X9585Y18102
X9585Y17708
X9585Y17314
X9585Y16920
X9585Y16527
X9585Y16133
X9585Y15739
X9585Y12983
X9743Y9086
X10687Y9086
X11160Y9086
X11632Y9086
X11947Y24637
X12105Y9086
X12262Y24637
X12577Y24637
X12577Y9086
X13050Y9086
X13522Y9086
X13994Y9086
X14467Y9086
X14939Y9086
X15412Y9086
X15648Y24637
X15884Y9086
X15963Y24637
X16278Y24637
X16357Y9086
X16593Y24637
X16829Y9086
X16846Y30393
X16908Y24637
X17240Y30393
X17302Y9086
X17774Y9086
X18246Y9086
X18719Y9086
X19073Y24637
X19191Y9086
X19388Y24637
X19664Y9086
X19703Y24637
X20018Y24637
X20136Y9086
X20333Y24637
X20609Y9086
X20648Y24637
X20963Y24637
X21081Y9086
X21278Y24637
X21554Y9086
X21593Y24637
X21908Y24637
X22026Y9086
X22223Y24637
X22498Y9086
X22538Y24637
X22853Y24637
X22971Y9086
X23168Y24637
X23443Y9086
X23483Y24637
X23798Y24637
X23876Y9086
X24113Y24637
X24349Y9086
X24428Y24637
X24743Y24637
X24821Y9086
X25057Y24637
X25294Y9086
X25372Y24637
X25687Y24637
X25766Y9086
X26002Y22039
X26002Y21724
X26002Y20149
X26002Y19834
X26002Y19519
X26002Y18259
X26002Y17944
X26002Y14480
X26002Y10267
X26002Y24637
X26002Y23613
X26002Y23298
X26002Y22983
X26002Y22669
X26002Y22354
X26002Y21409
X26002Y21094
X26002Y20779
X26002Y20464
X26002Y19204
X26002Y18889
X26002Y18574
X26002Y17629
X26002Y17314
X26002Y16999
X26002Y16684
X26002Y16369
X26002Y16054
X26002Y15739
X26002Y15424
X26002Y15109
X26002Y14794
X26002Y14165
X26002Y13850
X26002Y13535
X26002Y13220
X26002Y12905
X26002Y9952
X26052Y32130
X26052Y31737
X26052Y31343
X26052Y30445
X26052Y30045
X26198Y2674
X26198Y2319
X26227Y4560
X26227Y4166
X28713Y10909
X28713Y10515
X29623Y2674
X29623Y2300
X29623Y1926
X31906Y7103
X31906Y6631
X31906Y6158
X31906Y5686
X34392Y13452
X34392Y12980
X34392Y12507
X34392Y12035
X36521Y29119
X36521Y28725
X36521Y28331
X36521Y27937
T3
X15724Y30570
X15902Y36672
X18185Y30570
X19878Y30570
X20626Y30570
X20646Y36672
X22594Y36672
X23146Y30570
X23323Y36672
T4
X1957Y42142
X1957Y40370
X3138Y42142
X3138Y40370
X4319Y42142
X4319Y40370
X5500Y42142
X5500Y40370
X6681Y42142
X6681Y40370
X7862Y42142
X7862Y40370
X9043Y42142
X9043Y40370
X10224Y42142
X10224Y40370
X13374Y42142
X13374Y40370
X14555Y42142
X14555Y40370
X15736Y42142
X15736Y40370
X16917Y42142
X16917Y40370
X18098Y42142
X18098Y40370
X19280Y42142
X19280Y40370
X20461Y42142
X20461Y40370
X21642Y42142
X21642Y40370
X22823Y42142
X22823Y40370
X24004Y42142
X24004Y40370
X25185Y42142
X25185Y40370
X26366Y42142
X26366Y40370
X27547Y42142
X27547Y40370
T5
X31785Y39035
X31785Y36870
X33439Y39035
X33439Y36870
X35092Y39035
X35092Y36870
X36746Y39035
X36746Y36870
X53078Y19435
X53078Y17270
X54731Y19435
X54731Y17270
X56385Y19435
X56385Y17270
T6
X31785Y41909
X36746Y41909
X53078Y22309
X56385Y22309
M30
