G04 #@! TF.GenerationSoftware,KiCad,Pcbnew,8.0.9-8.0.9-0~ubuntu24.04.1*
G04 #@! TF.CreationDate,2025-06-27T12:37:52+00:00*
G04 #@! TF.ProjectId,EP91Starlet,45503931-5374-4617-926c-65742e6b6963,rev?*
G04 #@! TF.SameCoordinates,Original*
G04 #@! TF.FileFunction,Paste,Bot*
G04 #@! TF.FilePolarity,Positive*
%FSLAX46Y46*%
G04 Gerber Fmt 4.6, Leading zero omitted, Abs format (unit mm)*
G04 Created by KiCad (PCBNEW 8.0.9-8.0.9-0~ubuntu24.04.1) date 2025-06-27 12:37:52*
%MOMM*%
%LPD*%
G01*
G04 APERTURE LIST*
G04 APERTURE END LIST*
G04 #@! TO.C,F2*
G36*
G01*
X61357500Y63583250D02*
X61357500Y63070750D01*
G75*
G02*
X61138750Y62852000I-218750J0D01*
G01*
X60701250Y62852000D01*
G75*
G02*
X60482500Y63070750I0J218750D01*
G01*
X60482500Y63583250D01*
G75*
G02*
X60701250Y63802000I218750J0D01*
G01*
X61138750Y63802000D01*
G75*
G02*
X61357500Y63583250I0J-218750D01*
G01*
G37*
G36*
G01*
X59782500Y63583250D02*
X59782500Y63070750D01*
G75*
G02*
X59563750Y62852000I-218750J0D01*
G01*
X59126250Y62852000D01*
G75*
G02*
X58907500Y63070750I0J218750D01*
G01*
X58907500Y63583250D01*
G75*
G02*
X59126250Y63802000I218750J0D01*
G01*
X59563750Y63802000D01*
G75*
G02*
X59782500Y63583250I0J-218750D01*
G01*
G37*
G04 #@! TD*
G04 #@! TO.C,R13*
G36*
G01*
X68970000Y64461000D02*
X68970000Y65241000D01*
G75*
G02*
X69040000Y65311000I70000J0D01*
G01*
X69600000Y65311000D01*
G75*
G02*
X69670000Y65241000I0J-70000D01*
G01*
X69670000Y64461000D01*
G75*
G02*
X69600000Y64391000I-70000J0D01*
G01*
X69040000Y64391000D01*
G75*
G02*
X68970000Y64461000I0J70000D01*
G01*
G37*
G36*
G01*
X70570000Y64461000D02*
X70570000Y65241000D01*
G75*
G02*
X70640000Y65311000I70000J0D01*
G01*
X71200000Y65311000D01*
G75*
G02*
X71270000Y65241000I0J-70000D01*
G01*
X71270000Y64461000D01*
G75*
G02*
X71200000Y64391000I-70000J0D01*
G01*
X70640000Y64391000D01*
G75*
G02*
X70570000Y64461000I0J70000D01*
G01*
G37*
G04 #@! TD*
G04 #@! TO.C,R14*
G36*
G01*
X78970000Y64461000D02*
X78970000Y65241000D01*
G75*
G02*
X79040000Y65311000I70000J0D01*
G01*
X79600000Y65311000D01*
G75*
G02*
X79670000Y65241000I0J-70000D01*
G01*
X79670000Y64461000D01*
G75*
G02*
X79600000Y64391000I-70000J0D01*
G01*
X79040000Y64391000D01*
G75*
G02*
X78970000Y64461000I0J70000D01*
G01*
G37*
G36*
G01*
X80570000Y64461000D02*
X80570000Y65241000D01*
G75*
G02*
X80640000Y65311000I70000J0D01*
G01*
X81200000Y65311000D01*
G75*
G02*
X81270000Y65241000I0J-70000D01*
G01*
X81270000Y64461000D01*
G75*
G02*
X81200000Y64391000I-70000J0D01*
G01*
X80640000Y64391000D01*
G75*
G02*
X80570000Y64461000I0J70000D01*
G01*
G37*
G04 #@! TD*
G04 #@! TO.C,R9*
G36*
G01*
X48970000Y64461000D02*
X48970000Y65241000D01*
G75*
G02*
X49040000Y65311000I70000J0D01*
G01*
X49600000Y65311000D01*
G75*
G02*
X49670000Y65241000I0J-70000D01*
G01*
X49670000Y64461000D01*
G75*
G02*
X49600000Y64391000I-70000J0D01*
G01*
X49040000Y64391000D01*
G75*
G02*
X48970000Y64461000I0J70000D01*
G01*
G37*
G36*
G01*
X50570000Y64461000D02*
X50570000Y65241000D01*
G75*
G02*
X50640000Y65311000I70000J0D01*
G01*
X51200000Y65311000D01*
G75*
G02*
X51270000Y65241000I0J-70000D01*
G01*
X51270000Y64461000D01*
G75*
G02*
X51200000Y64391000I-70000J0D01*
G01*
X50640000Y64391000D01*
G75*
G02*
X50570000Y64461000I0J70000D01*
G01*
G37*
G04 #@! TD*
G04 #@! TO.C,F3*
G36*
G01*
X71357500Y63583250D02*
X71357500Y63070750D01*
G75*
G02*
X71138750Y62852000I-218750J0D01*
G01*
X70701250Y62852000D01*
G75*
G02*
X70482500Y63070750I0J218750D01*
G01*
X70482500Y63583250D01*
G75*
G02*
X70701250Y63802000I218750J0D01*
G01*
X71138750Y63802000D01*
G75*
G02*
X71357500Y63583250I0J-218750D01*
G01*
G37*
G36*
G01*
X69782500Y63583250D02*
X69782500Y63070750D01*
G75*
G02*
X69563750Y62852000I-218750J0D01*
G01*
X69126250Y62852000D01*
G75*
G02*
X68907500Y63070750I0J218750D01*
G01*
X68907500Y63583250D01*
G75*
G02*
X69126250Y63802000I218750J0D01*
G01*
X69563750Y63802000D01*
G75*
G02*
X69782500Y63583250I0J-218750D01*
G01*
G37*
G04 #@! TD*
G04 #@! TO.C,R5*
G36*
G01*
X75536000Y28838000D02*
X74756000Y28838000D01*
G75*
G02*
X74686000Y28908000I0J70000D01*
G01*
X74686000Y29468000D01*
G75*
G02*
X74756000Y29538000I70000J0D01*
G01*
X75536000Y29538000D01*
G75*
G02*
X75606000Y29468000I0J-70000D01*
G01*
X75606000Y28908000D01*
G75*
G02*
X75536000Y28838000I-70000J0D01*
G01*
G37*
G36*
G01*
X75536000Y30438000D02*
X74756000Y30438000D01*
G75*
G02*
X74686000Y30508000I0J70000D01*
G01*
X74686000Y31068000D01*
G75*
G02*
X74756000Y31138000I70000J0D01*
G01*
X75536000Y31138000D01*
G75*
G02*
X75606000Y31068000I0J-70000D01*
G01*
X75606000Y30508000D01*
G75*
G02*
X75536000Y30438000I-70000J0D01*
G01*
G37*
G04 #@! TD*
G04 #@! TO.C,R6*
G36*
G01*
X78076000Y28838000D02*
X77296000Y28838000D01*
G75*
G02*
X77226000Y28908000I0J70000D01*
G01*
X77226000Y29468000D01*
G75*
G02*
X77296000Y29538000I70000J0D01*
G01*
X78076000Y29538000D01*
G75*
G02*
X78146000Y29468000I0J-70000D01*
G01*
X78146000Y28908000D01*
G75*
G02*
X78076000Y28838000I-70000J0D01*
G01*
G37*
G36*
G01*
X78076000Y30438000D02*
X77296000Y30438000D01*
G75*
G02*
X77226000Y30508000I0J70000D01*
G01*
X77226000Y31068000D01*
G75*
G02*
X77296000Y31138000I70000J0D01*
G01*
X78076000Y31138000D01*
G75*
G02*
X78146000Y31068000I0J-70000D01*
G01*
X78146000Y30508000D01*
G75*
G02*
X78076000Y30438000I-70000J0D01*
G01*
G37*
G04 #@! TD*
G04 #@! TO.C,F1*
G36*
G01*
X51357500Y63583250D02*
X51357500Y63070750D01*
G75*
G02*
X51138750Y62852000I-218750J0D01*
G01*
X50701250Y62852000D01*
G75*
G02*
X50482500Y63070750I0J218750D01*
G01*
X50482500Y63583250D01*
G75*
G02*
X50701250Y63802000I218750J0D01*
G01*
X51138750Y63802000D01*
G75*
G02*
X51357500Y63583250I0J-218750D01*
G01*
G37*
G36*
G01*
X49782500Y63583250D02*
X49782500Y63070750D01*
G75*
G02*
X49563750Y62852000I-218750J0D01*
G01*
X49126250Y62852000D01*
G75*
G02*
X48907500Y63070750I0J218750D01*
G01*
X48907500Y63583250D01*
G75*
G02*
X49126250Y63802000I218750J0D01*
G01*
X49563750Y63802000D01*
G75*
G02*
X49782500Y63583250I0J-218750D01*
G01*
G37*
G04 #@! TD*
G04 #@! TO.C,R15*
G36*
G01*
X71584000Y65792500D02*
X68734000Y65792500D01*
G75*
G02*
X68484000Y66042500I0J250000D01*
G01*
X68484000Y66767500D01*
G75*
G02*
X68734000Y67017500I250000J0D01*
G01*
X71584000Y67017500D01*
G75*
G02*
X71834000Y66767500I0J-250000D01*
G01*
X71834000Y66042500D01*
G75*
G02*
X71584000Y65792500I-250000J0D01*
G01*
G37*
G36*
G01*
X71584000Y71717500D02*
X68734000Y71717500D01*
G75*
G02*
X68484000Y71967500I0J250000D01*
G01*
X68484000Y72692500D01*
G75*
G02*
X68734000Y72942500I250000J0D01*
G01*
X71584000Y72942500D01*
G75*
G02*
X71834000Y72692500I0J-250000D01*
G01*
X71834000Y71967500D01*
G75*
G02*
X71584000Y71717500I-250000J0D01*
G01*
G37*
G04 #@! TD*
G04 #@! TO.C,R8*
G36*
G01*
X86076000Y28838000D02*
X85296000Y28838000D01*
G75*
G02*
X85226000Y28908000I0J70000D01*
G01*
X85226000Y29468000D01*
G75*
G02*
X85296000Y29538000I70000J0D01*
G01*
X86076000Y29538000D01*
G75*
G02*
X86146000Y29468000I0J-70000D01*
G01*
X86146000Y28908000D01*
G75*
G02*
X86076000Y28838000I-70000J0D01*
G01*
G37*
G36*
G01*
X86076000Y30438000D02*
X85296000Y30438000D01*
G75*
G02*
X85226000Y30508000I0J70000D01*
G01*
X85226000Y31068000D01*
G75*
G02*
X85296000Y31138000I70000J0D01*
G01*
X86076000Y31138000D01*
G75*
G02*
X86146000Y31068000I0J-70000D01*
G01*
X86146000Y30508000D01*
G75*
G02*
X86076000Y30438000I-70000J0D01*
G01*
G37*
G04 #@! TD*
G04 #@! TO.C,R12*
G36*
G01*
X61584000Y65792500D02*
X58734000Y65792500D01*
G75*
G02*
X58484000Y66042500I0J250000D01*
G01*
X58484000Y66767500D01*
G75*
G02*
X58734000Y67017500I250000J0D01*
G01*
X61584000Y67017500D01*
G75*
G02*
X61834000Y66767500I0J-250000D01*
G01*
X61834000Y66042500D01*
G75*
G02*
X61584000Y65792500I-250000J0D01*
G01*
G37*
G36*
G01*
X61584000Y71717500D02*
X58734000Y71717500D01*
G75*
G02*
X58484000Y71967500I0J250000D01*
G01*
X58484000Y72692500D01*
G75*
G02*
X58734000Y72942500I250000J0D01*
G01*
X61584000Y72942500D01*
G75*
G02*
X61834000Y72692500I0J-250000D01*
G01*
X61834000Y71967500D01*
G75*
G02*
X61584000Y71717500I-250000J0D01*
G01*
G37*
G04 #@! TD*
G04 #@! TO.C,R16*
G36*
G01*
X81584000Y65792500D02*
X78734000Y65792500D01*
G75*
G02*
X78484000Y66042500I0J250000D01*
G01*
X78484000Y66767500D01*
G75*
G02*
X78734000Y67017500I250000J0D01*
G01*
X81584000Y67017500D01*
G75*
G02*
X81834000Y66767500I0J-250000D01*
G01*
X81834000Y66042500D01*
G75*
G02*
X81584000Y65792500I-250000J0D01*
G01*
G37*
G36*
G01*
X81584000Y71717500D02*
X78734000Y71717500D01*
G75*
G02*
X78484000Y71967500I0J250000D01*
G01*
X78484000Y72692500D01*
G75*
G02*
X78734000Y72942500I250000J0D01*
G01*
X81584000Y72942500D01*
G75*
G02*
X81834000Y72692500I0J-250000D01*
G01*
X81834000Y71967500D01*
G75*
G02*
X81584000Y71717500I-250000J0D01*
G01*
G37*
G04 #@! TD*
G04 #@! TO.C,R10*
G36*
G01*
X58970000Y64461000D02*
X58970000Y65241000D01*
G75*
G02*
X59040000Y65311000I70000J0D01*
G01*
X59600000Y65311000D01*
G75*
G02*
X59670000Y65241000I0J-70000D01*
G01*
X59670000Y64461000D01*
G75*
G02*
X59600000Y64391000I-70000J0D01*
G01*
X59040000Y64391000D01*
G75*
G02*
X58970000Y64461000I0J70000D01*
G01*
G37*
G36*
G01*
X60570000Y64461000D02*
X60570000Y65241000D01*
G75*
G02*
X60640000Y65311000I70000J0D01*
G01*
X61200000Y65311000D01*
G75*
G02*
X61270000Y65241000I0J-70000D01*
G01*
X61270000Y64461000D01*
G75*
G02*
X61200000Y64391000I-70000J0D01*
G01*
X60640000Y64391000D01*
G75*
G02*
X60570000Y64461000I0J70000D01*
G01*
G37*
G04 #@! TD*
G04 #@! TO.C,D2*
G36*
G01*
X74636000Y43682000D02*
X75656000Y43682000D01*
G75*
G02*
X75746000Y43592000I0J-90000D01*
G01*
X75746000Y42872000D01*
G75*
G02*
X75656000Y42782000I-90000J0D01*
G01*
X74636000Y42782000D01*
G75*
G02*
X74546000Y42872000I0J90000D01*
G01*
X74546000Y43592000D01*
G75*
G02*
X74636000Y43682000I90000J0D01*
G01*
G37*
G36*
G01*
X74636000Y40382000D02*
X75656000Y40382000D01*
G75*
G02*
X75746000Y40292000I0J-90000D01*
G01*
X75746000Y39572000D01*
G75*
G02*
X75656000Y39482000I-90000J0D01*
G01*
X74636000Y39482000D01*
G75*
G02*
X74546000Y39572000I0J90000D01*
G01*
X74546000Y40292000D01*
G75*
G02*
X74636000Y40382000I90000J0D01*
G01*
G37*
G04 #@! TD*
G04 #@! TO.C,F4*
G36*
G01*
X81357500Y63583250D02*
X81357500Y63070750D01*
G75*
G02*
X81138750Y62852000I-218750J0D01*
G01*
X80701250Y62852000D01*
G75*
G02*
X80482500Y63070750I0J218750D01*
G01*
X80482500Y63583250D01*
G75*
G02*
X80701250Y63802000I218750J0D01*
G01*
X81138750Y63802000D01*
G75*
G02*
X81357500Y63583250I0J-218750D01*
G01*
G37*
G36*
G01*
X79782500Y63583250D02*
X79782500Y63070750D01*
G75*
G02*
X79563750Y62852000I-218750J0D01*
G01*
X79126250Y62852000D01*
G75*
G02*
X78907500Y63070750I0J218750D01*
G01*
X78907500Y63583250D01*
G75*
G02*
X79126250Y63802000I218750J0D01*
G01*
X79563750Y63802000D01*
G75*
G02*
X79782500Y63583250I0J-218750D01*
G01*
G37*
G04 #@! TD*
G04 #@! TO.C,D3*
G36*
G01*
X85176000Y43682000D02*
X86196000Y43682000D01*
G75*
G02*
X86286000Y43592000I0J-90000D01*
G01*
X86286000Y42872000D01*
G75*
G02*
X86196000Y42782000I-90000J0D01*
G01*
X85176000Y42782000D01*
G75*
G02*
X85086000Y42872000I0J90000D01*
G01*
X85086000Y43592000D01*
G75*
G02*
X85176000Y43682000I90000J0D01*
G01*
G37*
G36*
G01*
X85176000Y40382000D02*
X86196000Y40382000D01*
G75*
G02*
X86286000Y40292000I0J-90000D01*
G01*
X86286000Y39572000D01*
G75*
G02*
X86196000Y39482000I-90000J0D01*
G01*
X85176000Y39482000D01*
G75*
G02*
X85086000Y39572000I0J90000D01*
G01*
X85086000Y40292000D01*
G75*
G02*
X85176000Y40382000I90000J0D01*
G01*
G37*
G04 #@! TD*
G04 #@! TO.C,D1*
G36*
G01*
X77176000Y43682000D02*
X78196000Y43682000D01*
G75*
G02*
X78286000Y43592000I0J-90000D01*
G01*
X78286000Y42872000D01*
G75*
G02*
X78196000Y42782000I-90000J0D01*
G01*
X77176000Y42782000D01*
G75*
G02*
X77086000Y42872000I0J90000D01*
G01*
X77086000Y43592000D01*
G75*
G02*
X77176000Y43682000I90000J0D01*
G01*
G37*
G36*
G01*
X77176000Y40382000D02*
X78196000Y40382000D01*
G75*
G02*
X78286000Y40292000I0J-90000D01*
G01*
X78286000Y39572000D01*
G75*
G02*
X78196000Y39482000I-90000J0D01*
G01*
X77176000Y39482000D01*
G75*
G02*
X77086000Y39572000I0J90000D01*
G01*
X77086000Y40292000D01*
G75*
G02*
X77176000Y40382000I90000J0D01*
G01*
G37*
G04 #@! TD*
G04 #@! TO.C,U5*
G36*
G01*
X85836000Y31845000D02*
X85536000Y31845000D01*
G75*
G02*
X85386000Y31995000I0J150000D01*
G01*
X85386000Y33645000D01*
G75*
G02*
X85536000Y33795000I150000J0D01*
G01*
X85836000Y33795000D01*
G75*
G02*
X85986000Y33645000I0J-150000D01*
G01*
X85986000Y31995000D01*
G75*
G02*
X85836000Y31845000I-150000J0D01*
G01*
G37*
G36*
G01*
X84566000Y31845000D02*
X84266000Y31845000D01*
G75*
G02*
X84116000Y31995000I0J150000D01*
G01*
X84116000Y33645000D01*
G75*
G02*
X84266000Y33795000I150000J0D01*
G01*
X84566000Y33795000D01*
G75*
G02*
X84716000Y33645000I0J-150000D01*
G01*
X84716000Y31995000D01*
G75*
G02*
X84566000Y31845000I-150000J0D01*
G01*
G37*
G36*
G01*
X83296000Y31845000D02*
X82996000Y31845000D01*
G75*
G02*
X82846000Y31995000I0J150000D01*
G01*
X82846000Y33645000D01*
G75*
G02*
X82996000Y33795000I150000J0D01*
G01*
X83296000Y33795000D01*
G75*
G02*
X83446000Y33645000I0J-150000D01*
G01*
X83446000Y31995000D01*
G75*
G02*
X83296000Y31845000I-150000J0D01*
G01*
G37*
G36*
G01*
X82026000Y31845000D02*
X81726000Y31845000D01*
G75*
G02*
X81576000Y31995000I0J150000D01*
G01*
X81576000Y33645000D01*
G75*
G02*
X81726000Y33795000I150000J0D01*
G01*
X82026000Y33795000D01*
G75*
G02*
X82176000Y33645000I0J-150000D01*
G01*
X82176000Y31995000D01*
G75*
G02*
X82026000Y31845000I-150000J0D01*
G01*
G37*
G36*
G01*
X82026000Y36795000D02*
X81726000Y36795000D01*
G75*
G02*
X81576000Y36945000I0J150000D01*
G01*
X81576000Y38595000D01*
G75*
G02*
X81726000Y38745000I150000J0D01*
G01*
X82026000Y38745000D01*
G75*
G02*
X82176000Y38595000I0J-150000D01*
G01*
X82176000Y36945000D01*
G75*
G02*
X82026000Y36795000I-150000J0D01*
G01*
G37*
G36*
G01*
X83296000Y36795000D02*
X82996000Y36795000D01*
G75*
G02*
X82846000Y36945000I0J150000D01*
G01*
X82846000Y38595000D01*
G75*
G02*
X82996000Y38745000I150000J0D01*
G01*
X83296000Y38745000D01*
G75*
G02*
X83446000Y38595000I0J-150000D01*
G01*
X83446000Y36945000D01*
G75*
G02*
X83296000Y36795000I-150000J0D01*
G01*
G37*
G36*
G01*
X84566000Y36795000D02*
X84266000Y36795000D01*
G75*
G02*
X84116000Y36945000I0J150000D01*
G01*
X84116000Y38595000D01*
G75*
G02*
X84266000Y38745000I150000J0D01*
G01*
X84566000Y38745000D01*
G75*
G02*
X84716000Y38595000I0J-150000D01*
G01*
X84716000Y36945000D01*
G75*
G02*
X84566000Y36795000I-150000J0D01*
G01*
G37*
G36*
G01*
X85836000Y36795000D02*
X85536000Y36795000D01*
G75*
G02*
X85386000Y36945000I0J150000D01*
G01*
X85386000Y38595000D01*
G75*
G02*
X85536000Y38745000I150000J0D01*
G01*
X85836000Y38745000D01*
G75*
G02*
X85986000Y38595000I0J-150000D01*
G01*
X85986000Y36945000D01*
G75*
G02*
X85836000Y36795000I-150000J0D01*
G01*
G37*
G04 #@! TD*
G04 #@! TO.C,R7*
G36*
G01*
X83536000Y28838000D02*
X82756000Y28838000D01*
G75*
G02*
X82686000Y28908000I0J70000D01*
G01*
X82686000Y29468000D01*
G75*
G02*
X82756000Y29538000I70000J0D01*
G01*
X83536000Y29538000D01*
G75*
G02*
X83606000Y29468000I0J-70000D01*
G01*
X83606000Y28908000D01*
G75*
G02*
X83536000Y28838000I-70000J0D01*
G01*
G37*
G36*
G01*
X83536000Y30438000D02*
X82756000Y30438000D01*
G75*
G02*
X82686000Y30508000I0J70000D01*
G01*
X82686000Y31068000D01*
G75*
G02*
X82756000Y31138000I70000J0D01*
G01*
X83536000Y31138000D01*
G75*
G02*
X83606000Y31068000I0J-70000D01*
G01*
X83606000Y30508000D01*
G75*
G02*
X83536000Y30438000I-70000J0D01*
G01*
G37*
G04 #@! TD*
G04 #@! TO.C,R11*
G36*
G01*
X51584000Y65792500D02*
X48734000Y65792500D01*
G75*
G02*
X48484000Y66042500I0J250000D01*
G01*
X48484000Y66767500D01*
G75*
G02*
X48734000Y67017500I250000J0D01*
G01*
X51584000Y67017500D01*
G75*
G02*
X51834000Y66767500I0J-250000D01*
G01*
X51834000Y66042500D01*
G75*
G02*
X51584000Y65792500I-250000J0D01*
G01*
G37*
G36*
G01*
X51584000Y71717500D02*
X48734000Y71717500D01*
G75*
G02*
X48484000Y71967500I0J250000D01*
G01*
X48484000Y72692500D01*
G75*
G02*
X48734000Y72942500I250000J0D01*
G01*
X51584000Y72942500D01*
G75*
G02*
X51834000Y72692500I0J-250000D01*
G01*
X51834000Y71967500D01*
G75*
G02*
X51584000Y71717500I-250000J0D01*
G01*
G37*
G04 #@! TD*
G04 #@! TO.C,U4*
G36*
G01*
X77836000Y31845000D02*
X77536000Y31845000D01*
G75*
G02*
X77386000Y31995000I0J150000D01*
G01*
X77386000Y33645000D01*
G75*
G02*
X77536000Y33795000I150000J0D01*
G01*
X77836000Y33795000D01*
G75*
G02*
X77986000Y33645000I0J-150000D01*
G01*
X77986000Y31995000D01*
G75*
G02*
X77836000Y31845000I-150000J0D01*
G01*
G37*
G36*
G01*
X76566000Y31845000D02*
X76266000Y31845000D01*
G75*
G02*
X76116000Y31995000I0J150000D01*
G01*
X76116000Y33645000D01*
G75*
G02*
X76266000Y33795000I150000J0D01*
G01*
X76566000Y33795000D01*
G75*
G02*
X76716000Y33645000I0J-150000D01*
G01*
X76716000Y31995000D01*
G75*
G02*
X76566000Y31845000I-150000J0D01*
G01*
G37*
G36*
G01*
X75296000Y31845000D02*
X74996000Y31845000D01*
G75*
G02*
X74846000Y31995000I0J150000D01*
G01*
X74846000Y33645000D01*
G75*
G02*
X74996000Y33795000I150000J0D01*
G01*
X75296000Y33795000D01*
G75*
G02*
X75446000Y33645000I0J-150000D01*
G01*
X75446000Y31995000D01*
G75*
G02*
X75296000Y31845000I-150000J0D01*
G01*
G37*
G36*
G01*
X74026000Y31845000D02*
X73726000Y31845000D01*
G75*
G02*
X73576000Y31995000I0J150000D01*
G01*
X73576000Y33645000D01*
G75*
G02*
X73726000Y33795000I150000J0D01*
G01*
X74026000Y33795000D01*
G75*
G02*
X74176000Y33645000I0J-150000D01*
G01*
X74176000Y31995000D01*
G75*
G02*
X74026000Y31845000I-150000J0D01*
G01*
G37*
G36*
G01*
X74026000Y36795000D02*
X73726000Y36795000D01*
G75*
G02*
X73576000Y36945000I0J150000D01*
G01*
X73576000Y38595000D01*
G75*
G02*
X73726000Y38745000I150000J0D01*
G01*
X74026000Y38745000D01*
G75*
G02*
X74176000Y38595000I0J-150000D01*
G01*
X74176000Y36945000D01*
G75*
G02*
X74026000Y36795000I-150000J0D01*
G01*
G37*
G36*
G01*
X75296000Y36795000D02*
X74996000Y36795000D01*
G75*
G02*
X74846000Y36945000I0J150000D01*
G01*
X74846000Y38595000D01*
G75*
G02*
X74996000Y38745000I150000J0D01*
G01*
X75296000Y38745000D01*
G75*
G02*
X75446000Y38595000I0J-150000D01*
G01*
X75446000Y36945000D01*
G75*
G02*
X75296000Y36795000I-150000J0D01*
G01*
G37*
G36*
G01*
X76566000Y36795000D02*
X76266000Y36795000D01*
G75*
G02*
X76116000Y36945000I0J150000D01*
G01*
X76116000Y38595000D01*
G75*
G02*
X76266000Y38745000I150000J0D01*
G01*
X76566000Y38745000D01*
G75*
G02*
X76716000Y38595000I0J-150000D01*
G01*
X76716000Y36945000D01*
G75*
G02*
X76566000Y36795000I-150000J0D01*
G01*
G37*
G36*
G01*
X77836000Y36795000D02*
X77536000Y36795000D01*
G75*
G02*
X77386000Y36945000I0J150000D01*
G01*
X77386000Y38595000D01*
G75*
G02*
X77536000Y38745000I150000J0D01*
G01*
X77836000Y38745000D01*
G75*
G02*
X77986000Y38595000I0J-150000D01*
G01*
X77986000Y36945000D01*
G75*
G02*
X77836000Y36795000I-150000J0D01*
G01*
G37*
G04 #@! TD*
G04 #@! TO.C,D4*
G36*
G01*
X82636000Y43682000D02*
X83656000Y43682000D01*
G75*
G02*
X83746000Y43592000I0J-90000D01*
G01*
X83746000Y42872000D01*
G75*
G02*
X83656000Y42782000I-90000J0D01*
G01*
X82636000Y42782000D01*
G75*
G02*
X82546000Y42872000I0J90000D01*
G01*
X82546000Y43592000D01*
G75*
G02*
X82636000Y43682000I90000J0D01*
G01*
G37*
G36*
G01*
X82636000Y40382000D02*
X83656000Y40382000D01*
G75*
G02*
X83746000Y40292000I0J-90000D01*
G01*
X83746000Y39572000D01*
G75*
G02*
X83656000Y39482000I-90000J0D01*
G01*
X82636000Y39482000D01*
G75*
G02*
X82546000Y39572000I0J90000D01*
G01*
X82546000Y40292000D01*
G75*
G02*
X82636000Y40382000I90000J0D01*
G01*
G37*
G04 #@! TD*
M02*
