G04 #@! TF.GenerationSoftware,KiCad,Pcbnew,8.0.9-8.0.9-0~ubuntu24.04.1*
G04 #@! TF.CreationDate,2025-06-29T23:13:03+00:00*
G04 #@! TF.ProjectId,EP91Starlet,45503931-5374-4617-926c-65742e6b6963,rev?*
G04 #@! TF.SameCoordinates,Original*
G04 #@! TF.FileFunction,Legend,Top*
G04 #@! TF.FilePolarity,Positive*
%FSLAX46Y46*%
G04 Gerber Fmt 4.6, Leading zero omitted, Abs format (unit mm)*
G04 Created by KiCad (PCBNEW 8.0.9-8.0.9-0~ubuntu24.04.1) date 2025-06-29 23:13:03*
%MOMM*%
%LPD*%
G01*
G04 APERTURE LIST*
%ADD10C,0.150000*%
%ADD11C,0.170000*%
%ADD12C,0.200000*%
%ADD13C,0.120000*%
%ADD14C,0.203200*%
%ADD15C,0.100000*%
G04 APERTURE END LIST*
D10*
X84942666Y106413181D02*
X84942666Y105698896D01*
X84942666Y105698896D02*
X84895047Y105556039D01*
X84895047Y105556039D02*
X84799809Y105460800D01*
X84799809Y105460800D02*
X84656952Y105413181D01*
X84656952Y105413181D02*
X84561714Y105413181D01*
X85942666Y105413181D02*
X85371238Y105413181D01*
X85656952Y105413181D02*
X85656952Y106413181D01*
X85656952Y106413181D02*
X85561714Y106270324D01*
X85561714Y106270324D02*
X85466476Y106175086D01*
X85466476Y106175086D02*
X85371238Y106127467D01*
D11*
X37591985Y50750093D02*
X37201509Y50476760D01*
X37591985Y50281522D02*
X36771985Y50281522D01*
X36771985Y50281522D02*
X36771985Y50593903D01*
X36771985Y50593903D02*
X36811033Y50671998D01*
X36811033Y50671998D02*
X36850080Y50711045D01*
X36850080Y50711045D02*
X36928176Y50750093D01*
X36928176Y50750093D02*
X37045318Y50750093D01*
X37045318Y50750093D02*
X37123414Y50711045D01*
X37123414Y50711045D02*
X37162461Y50671998D01*
X37162461Y50671998D02*
X37201509Y50593903D01*
X37201509Y50593903D02*
X37201509Y50281522D01*
X37591985Y51531045D02*
X37591985Y51062474D01*
X37591985Y51296760D02*
X36771985Y51296760D01*
X36771985Y51296760D02*
X36889128Y51218664D01*
X36889128Y51218664D02*
X36967223Y51140569D01*
X36967223Y51140569D02*
X37006271Y51062474D01*
D10*
X59295057Y63344762D02*
X59247438Y63249524D01*
X59247438Y63249524D02*
X59152200Y63154286D01*
X59152200Y63154286D02*
X59009342Y63011429D01*
X59009342Y63011429D02*
X58961723Y62916191D01*
X58961723Y62916191D02*
X58961723Y62820953D01*
X59199819Y62868572D02*
X59152200Y62773334D01*
X59152200Y62773334D02*
X59056961Y62678096D01*
X59056961Y62678096D02*
X58866485Y62630477D01*
X58866485Y62630477D02*
X58533152Y62630477D01*
X58533152Y62630477D02*
X58342676Y62678096D01*
X58342676Y62678096D02*
X58247438Y62773334D01*
X58247438Y62773334D02*
X58199819Y62868572D01*
X58199819Y62868572D02*
X58199819Y63059048D01*
X58199819Y63059048D02*
X58247438Y63154286D01*
X58247438Y63154286D02*
X58342676Y63249524D01*
X58342676Y63249524D02*
X58533152Y63297143D01*
X58533152Y63297143D02*
X58866485Y63297143D01*
X58866485Y63297143D02*
X59056961Y63249524D01*
X59056961Y63249524D02*
X59152200Y63154286D01*
X59152200Y63154286D02*
X59199819Y63059048D01*
X59199819Y63059048D02*
X59199819Y62868572D01*
X58295057Y63678096D02*
X58247438Y63725715D01*
X58247438Y63725715D02*
X58199819Y63820953D01*
X58199819Y63820953D02*
X58199819Y64059048D01*
X58199819Y64059048D02*
X58247438Y64154286D01*
X58247438Y64154286D02*
X58295057Y64201905D01*
X58295057Y64201905D02*
X58390295Y64249524D01*
X58390295Y64249524D02*
X58485533Y64249524D01*
X58485533Y64249524D02*
X58628390Y64201905D01*
X58628390Y64201905D02*
X59199819Y63630477D01*
X59199819Y63630477D02*
X59199819Y64249524D01*
X49295057Y63344762D02*
X49247438Y63249524D01*
X49247438Y63249524D02*
X49152200Y63154286D01*
X49152200Y63154286D02*
X49009342Y63011429D01*
X49009342Y63011429D02*
X48961723Y62916191D01*
X48961723Y62916191D02*
X48961723Y62820953D01*
X49199819Y62868572D02*
X49152200Y62773334D01*
X49152200Y62773334D02*
X49056961Y62678096D01*
X49056961Y62678096D02*
X48866485Y62630477D01*
X48866485Y62630477D02*
X48533152Y62630477D01*
X48533152Y62630477D02*
X48342676Y62678096D01*
X48342676Y62678096D02*
X48247438Y62773334D01*
X48247438Y62773334D02*
X48199819Y62868572D01*
X48199819Y62868572D02*
X48199819Y63059048D01*
X48199819Y63059048D02*
X48247438Y63154286D01*
X48247438Y63154286D02*
X48342676Y63249524D01*
X48342676Y63249524D02*
X48533152Y63297143D01*
X48533152Y63297143D02*
X48866485Y63297143D01*
X48866485Y63297143D02*
X49056961Y63249524D01*
X49056961Y63249524D02*
X49152200Y63154286D01*
X49152200Y63154286D02*
X49199819Y63059048D01*
X49199819Y63059048D02*
X49199819Y62868572D01*
X49199819Y64249524D02*
X49199819Y63678096D01*
X49199819Y63963810D02*
X48199819Y63963810D01*
X48199819Y63963810D02*
X48342676Y63868572D01*
X48342676Y63868572D02*
X48437914Y63773334D01*
X48437914Y63773334D02*
X48485533Y63678096D01*
D11*
X45591985Y50750093D02*
X45201509Y50476760D01*
X45591985Y50281522D02*
X44771985Y50281522D01*
X44771985Y50281522D02*
X44771985Y50593903D01*
X44771985Y50593903D02*
X44811033Y50671998D01*
X44811033Y50671998D02*
X44850080Y50711045D01*
X44850080Y50711045D02*
X44928176Y50750093D01*
X44928176Y50750093D02*
X45045318Y50750093D01*
X45045318Y50750093D02*
X45123414Y50711045D01*
X45123414Y50711045D02*
X45162461Y50671998D01*
X45162461Y50671998D02*
X45201509Y50593903D01*
X45201509Y50593903D02*
X45201509Y50281522D01*
X44850080Y51062474D02*
X44811033Y51101522D01*
X44811033Y51101522D02*
X44771985Y51179617D01*
X44771985Y51179617D02*
X44771985Y51374855D01*
X44771985Y51374855D02*
X44811033Y51452950D01*
X44811033Y51452950D02*
X44850080Y51491998D01*
X44850080Y51491998D02*
X44928176Y51531045D01*
X44928176Y51531045D02*
X45006271Y51531045D01*
X45006271Y51531045D02*
X45123414Y51491998D01*
X45123414Y51491998D02*
X45591985Y51023426D01*
X45591985Y51023426D02*
X45591985Y51531045D01*
D10*
X5110819Y95138096D02*
X5920342Y95138096D01*
X5920342Y95138096D02*
X6015580Y95185715D01*
X6015580Y95185715D02*
X6063200Y95233334D01*
X6063200Y95233334D02*
X6110819Y95328572D01*
X6110819Y95328572D02*
X6110819Y95519048D01*
X6110819Y95519048D02*
X6063200Y95614286D01*
X6063200Y95614286D02*
X6015580Y95661905D01*
X6015580Y95661905D02*
X5920342Y95709524D01*
X5920342Y95709524D02*
X5110819Y95709524D01*
X6110819Y96709524D02*
X6110819Y96138096D01*
X6110819Y96423810D02*
X5110819Y96423810D01*
X5110819Y96423810D02*
X5253676Y96328572D01*
X5253676Y96328572D02*
X5348914Y96233334D01*
X5348914Y96233334D02*
X5396533Y96138096D01*
X-5993181Y81378667D02*
X-5278896Y81378667D01*
X-5278896Y81378667D02*
X-5136039Y81331048D01*
X-5136039Y81331048D02*
X-5040800Y81235810D01*
X-5040800Y81235810D02*
X-4993181Y81092953D01*
X-4993181Y81092953D02*
X-4993181Y80997715D01*
X-5897943Y81807239D02*
X-5945562Y81854858D01*
X-5945562Y81854858D02*
X-5993181Y81950096D01*
X-5993181Y81950096D02*
X-5993181Y82188191D01*
X-5993181Y82188191D02*
X-5945562Y82283429D01*
X-5945562Y82283429D02*
X-5897943Y82331048D01*
X-5897943Y82331048D02*
X-5802705Y82378667D01*
X-5802705Y82378667D02*
X-5707467Y82378667D01*
X-5707467Y82378667D02*
X-5564610Y82331048D01*
X-5564610Y82331048D02*
X-4993181Y81759620D01*
X-4993181Y81759620D02*
X-4993181Y82378667D01*
X41774819Y55755096D02*
X42584342Y55755096D01*
X42584342Y55755096D02*
X42679580Y55802715D01*
X42679580Y55802715D02*
X42727200Y55850334D01*
X42727200Y55850334D02*
X42774819Y55945572D01*
X42774819Y55945572D02*
X42774819Y56136048D01*
X42774819Y56136048D02*
X42727200Y56231286D01*
X42727200Y56231286D02*
X42679580Y56278905D01*
X42679580Y56278905D02*
X42584342Y56326524D01*
X42584342Y56326524D02*
X41774819Y56326524D01*
X41774819Y56707477D02*
X41774819Y57326524D01*
X41774819Y57326524D02*
X42155771Y56993191D01*
X42155771Y56993191D02*
X42155771Y57136048D01*
X42155771Y57136048D02*
X42203390Y57231286D01*
X42203390Y57231286D02*
X42251009Y57278905D01*
X42251009Y57278905D02*
X42346247Y57326524D01*
X42346247Y57326524D02*
X42584342Y57326524D01*
X42584342Y57326524D02*
X42679580Y57278905D01*
X42679580Y57278905D02*
X42727200Y57231286D01*
X42727200Y57231286D02*
X42774819Y57136048D01*
X42774819Y57136048D02*
X42774819Y56850334D01*
X42774819Y56850334D02*
X42727200Y56755096D01*
X42727200Y56755096D02*
X42679580Y56707477D01*
X81343741Y4399429D02*
X81343741Y4999429D01*
X81343741Y4999429D02*
X81543741Y4570858D01*
X81543741Y4570858D02*
X81743741Y4999429D01*
X81743741Y4999429D02*
X81743741Y4399429D01*
X81972312Y4999429D02*
X82343740Y4999429D01*
X82343740Y4999429D02*
X82143740Y4770858D01*
X82143740Y4770858D02*
X82229455Y4770858D01*
X82229455Y4770858D02*
X82286598Y4742286D01*
X82286598Y4742286D02*
X82315169Y4713715D01*
X82315169Y4713715D02*
X82343740Y4656572D01*
X82343740Y4656572D02*
X82343740Y4513715D01*
X82343740Y4513715D02*
X82315169Y4456572D01*
X82315169Y4456572D02*
X82286598Y4428000D01*
X82286598Y4428000D02*
X82229455Y4399429D01*
X82229455Y4399429D02*
X82058026Y4399429D01*
X82058026Y4399429D02*
X82000883Y4428000D01*
X82000883Y4428000D02*
X81972312Y4456572D01*
X69295057Y63344762D02*
X69247438Y63249524D01*
X69247438Y63249524D02*
X69152200Y63154286D01*
X69152200Y63154286D02*
X69009342Y63011429D01*
X69009342Y63011429D02*
X68961723Y62916191D01*
X68961723Y62916191D02*
X68961723Y62820953D01*
X69199819Y62868572D02*
X69152200Y62773334D01*
X69152200Y62773334D02*
X69056961Y62678096D01*
X69056961Y62678096D02*
X68866485Y62630477D01*
X68866485Y62630477D02*
X68533152Y62630477D01*
X68533152Y62630477D02*
X68342676Y62678096D01*
X68342676Y62678096D02*
X68247438Y62773334D01*
X68247438Y62773334D02*
X68199819Y62868572D01*
X68199819Y62868572D02*
X68199819Y63059048D01*
X68199819Y63059048D02*
X68247438Y63154286D01*
X68247438Y63154286D02*
X68342676Y63249524D01*
X68342676Y63249524D02*
X68533152Y63297143D01*
X68533152Y63297143D02*
X68866485Y63297143D01*
X68866485Y63297143D02*
X69056961Y63249524D01*
X69056961Y63249524D02*
X69152200Y63154286D01*
X69152200Y63154286D02*
X69199819Y63059048D01*
X69199819Y63059048D02*
X69199819Y62868572D01*
X68199819Y63630477D02*
X68199819Y64249524D01*
X68199819Y64249524D02*
X68580771Y63916191D01*
X68580771Y63916191D02*
X68580771Y64059048D01*
X68580771Y64059048D02*
X68628390Y64154286D01*
X68628390Y64154286D02*
X68676009Y64201905D01*
X68676009Y64201905D02*
X68771247Y64249524D01*
X68771247Y64249524D02*
X69009342Y64249524D01*
X69009342Y64249524D02*
X69104580Y64201905D01*
X69104580Y64201905D02*
X69152200Y64154286D01*
X69152200Y64154286D02*
X69199819Y64059048D01*
X69199819Y64059048D02*
X69199819Y63773334D01*
X69199819Y63773334D02*
X69152200Y63678096D01*
X69152200Y63678096D02*
X69104580Y63630477D01*
X33774819Y55755096D02*
X34584342Y55755096D01*
X34584342Y55755096D02*
X34679580Y55802715D01*
X34679580Y55802715D02*
X34727200Y55850334D01*
X34727200Y55850334D02*
X34774819Y55945572D01*
X34774819Y55945572D02*
X34774819Y56136048D01*
X34774819Y56136048D02*
X34727200Y56231286D01*
X34727200Y56231286D02*
X34679580Y56278905D01*
X34679580Y56278905D02*
X34584342Y56326524D01*
X34584342Y56326524D02*
X33774819Y56326524D01*
X33870057Y56755096D02*
X33822438Y56802715D01*
X33822438Y56802715D02*
X33774819Y56897953D01*
X33774819Y56897953D02*
X33774819Y57136048D01*
X33774819Y57136048D02*
X33822438Y57231286D01*
X33822438Y57231286D02*
X33870057Y57278905D01*
X33870057Y57278905D02*
X33965295Y57326524D01*
X33965295Y57326524D02*
X34060533Y57326524D01*
X34060533Y57326524D02*
X34203390Y57278905D01*
X34203390Y57278905D02*
X34774819Y56707477D01*
X34774819Y56707477D02*
X34774819Y57326524D01*
D11*
X35051985Y50750093D02*
X34661509Y50476760D01*
X35051985Y50281522D02*
X34231985Y50281522D01*
X34231985Y50281522D02*
X34231985Y50593903D01*
X34231985Y50593903D02*
X34271033Y50671998D01*
X34271033Y50671998D02*
X34310080Y50711045D01*
X34310080Y50711045D02*
X34388176Y50750093D01*
X34388176Y50750093D02*
X34505318Y50750093D01*
X34505318Y50750093D02*
X34583414Y50711045D01*
X34583414Y50711045D02*
X34622461Y50671998D01*
X34622461Y50671998D02*
X34661509Y50593903D01*
X34661509Y50593903D02*
X34661509Y50281522D01*
X34231985Y51023426D02*
X34231985Y51531045D01*
X34231985Y51531045D02*
X34544366Y51257712D01*
X34544366Y51257712D02*
X34544366Y51374855D01*
X34544366Y51374855D02*
X34583414Y51452950D01*
X34583414Y51452950D02*
X34622461Y51491998D01*
X34622461Y51491998D02*
X34700557Y51531045D01*
X34700557Y51531045D02*
X34895795Y51531045D01*
X34895795Y51531045D02*
X34973890Y51491998D01*
X34973890Y51491998D02*
X35012938Y51452950D01*
X35012938Y51452950D02*
X35051985Y51374855D01*
X35051985Y51374855D02*
X35051985Y51140569D01*
X35051985Y51140569D02*
X35012938Y51062474D01*
X35012938Y51062474D02*
X34973890Y51023426D01*
X43051985Y50750093D02*
X42661509Y50476760D01*
X43051985Y50281522D02*
X42231985Y50281522D01*
X42231985Y50281522D02*
X42231985Y50593903D01*
X42231985Y50593903D02*
X42271033Y50671998D01*
X42271033Y50671998D02*
X42310080Y50711045D01*
X42310080Y50711045D02*
X42388176Y50750093D01*
X42388176Y50750093D02*
X42505318Y50750093D01*
X42505318Y50750093D02*
X42583414Y50711045D01*
X42583414Y50711045D02*
X42622461Y50671998D01*
X42622461Y50671998D02*
X42661509Y50593903D01*
X42661509Y50593903D02*
X42661509Y50281522D01*
X42505318Y51452950D02*
X43051985Y51452950D01*
X42192938Y51257712D02*
X42778652Y51062474D01*
X42778652Y51062474D02*
X42778652Y51570093D01*
D10*
X79295057Y63344762D02*
X79247438Y63249524D01*
X79247438Y63249524D02*
X79152200Y63154286D01*
X79152200Y63154286D02*
X79009342Y63011429D01*
X79009342Y63011429D02*
X78961723Y62916191D01*
X78961723Y62916191D02*
X78961723Y62820953D01*
X79199819Y62868572D02*
X79152200Y62773334D01*
X79152200Y62773334D02*
X79056961Y62678096D01*
X79056961Y62678096D02*
X78866485Y62630477D01*
X78866485Y62630477D02*
X78533152Y62630477D01*
X78533152Y62630477D02*
X78342676Y62678096D01*
X78342676Y62678096D02*
X78247438Y62773334D01*
X78247438Y62773334D02*
X78199819Y62868572D01*
X78199819Y62868572D02*
X78199819Y63059048D01*
X78199819Y63059048D02*
X78247438Y63154286D01*
X78247438Y63154286D02*
X78342676Y63249524D01*
X78342676Y63249524D02*
X78533152Y63297143D01*
X78533152Y63297143D02*
X78866485Y63297143D01*
X78866485Y63297143D02*
X79056961Y63249524D01*
X79056961Y63249524D02*
X79152200Y63154286D01*
X79152200Y63154286D02*
X79199819Y63059048D01*
X79199819Y63059048D02*
X79199819Y62868572D01*
X78533152Y64154286D02*
X79199819Y64154286D01*
X78152200Y63916191D02*
X78866485Y63678096D01*
X78866485Y63678096D02*
X78866485Y64297143D01*
G04 #@! TO.C,M4*
D12*
X604000Y70224000D02*
X14504000Y70224000D01*
X14504000Y42724000D01*
X604000Y42724000D01*
X604000Y70224000D01*
G04 #@! TO.C,M2*
X22843996Y45309999D02*
X63643999Y45309999D01*
X22843996Y5410000D02*
X22843996Y45309999D01*
X22843996Y5410000D02*
X64943996Y5410000D01*
X63643999Y45309999D02*
X64943999Y45309999D01*
X64943996Y5410000D02*
X64943999Y45309999D01*
D13*
G04 #@! TO.C,J1*
X76166000Y104778000D02*
X85276000Y104778000D01*
X76166000Y91758000D02*
X76166000Y104778000D01*
X76376000Y91068000D02*
X76976000Y90768000D01*
X76376000Y90468000D02*
X76376000Y91068000D01*
X76976000Y91758000D02*
X76166000Y91758000D01*
X76976000Y90768000D02*
X76376000Y90468000D01*
X78676000Y88658000D02*
X78676000Y87378000D01*
X79276000Y88658000D02*
X79276000Y87378000D01*
X80586000Y91768000D02*
X81566000Y91768000D01*
X82876000Y88658000D02*
X82876000Y87378000D01*
X83476000Y88658000D02*
X83476000Y87378000D01*
X84786000Y91768000D02*
X85766000Y91768000D01*
X87076000Y88658000D02*
X87076000Y87378000D01*
X87676000Y88658000D02*
X87676000Y87378000D01*
X88986000Y91768000D02*
X89966000Y91768000D01*
X91276000Y88658000D02*
X91276000Y87378000D01*
X91876000Y88658000D02*
X91876000Y87378000D01*
X93576000Y91758000D02*
X94386000Y91758000D01*
X94386000Y104778000D02*
X85276000Y104778000D01*
X94386000Y91758000D02*
X94386000Y104778000D01*
D12*
G04 #@! TO.C,M1*
X1595500Y35534000D02*
X1595500Y20534000D01*
X1595500Y35534000D02*
X2895500Y35534000D01*
X1595500Y20534000D02*
X6695500Y20534000D01*
X11195500Y35534000D02*
X4795500Y35534000D01*
X11195500Y21134000D02*
X11195500Y35534000D01*
D14*
G04 #@! TO.C,R1*
X37980005Y51010000D02*
X37980015Y51410000D01*
X38725840Y51008944D02*
X38725851Y51408943D01*
D13*
G04 #@! TO.C,Q2*
X59795000Y66550000D02*
X59795000Y60130000D01*
X59795000Y60130000D02*
X60065000Y60130000D01*
X66695000Y66550000D02*
X66695000Y60130000D01*
X66695000Y60130000D02*
X66425000Y60130000D01*
X60105000Y58400000D02*
X59635000Y58060000D01*
X59635000Y58740000D01*
X60105000Y58400000D01*
G36*
X60105000Y58400000D02*
G01*
X59635000Y58060000D01*
X59635000Y58740000D01*
X60105000Y58400000D01*
G37*
G04 #@! TO.C,Q1*
X49795000Y66550000D02*
X49795000Y60130000D01*
X49795000Y60130000D02*
X50065000Y60130000D01*
X56695000Y66550000D02*
X56695000Y60130000D01*
X56695000Y60130000D02*
X56425000Y60130000D01*
X50105000Y58400000D02*
X49635000Y58060000D01*
X49635000Y58740000D01*
X50105000Y58400000D01*
G36*
X50105000Y58400000D02*
G01*
X49635000Y58060000D01*
X49635000Y58740000D01*
X50105000Y58400000D01*
G37*
D12*
G04 #@! TO.C,M6*
X22580000Y86847999D02*
X22580000Y71447999D01*
X22580000Y86847999D02*
X22880000Y86847999D01*
X24030000Y70048002D02*
X25580000Y70047997D01*
X24480000Y86847999D02*
X34880002Y86847999D01*
X27580002Y70048002D02*
X28680005Y70048002D01*
X30280000Y70048002D02*
X32980000Y70048002D01*
X36480002Y70048002D02*
X41280002Y70048002D01*
X36580000Y86847999D02*
X39780003Y86847999D01*
X42880002Y70048000D02*
X43180000Y70048000D01*
X43179998Y85347999D02*
X43180000Y70048000D01*
D14*
G04 #@! TO.C,R2*
X45980005Y51010000D02*
X45980015Y51410000D01*
X46725840Y51008944D02*
X46725851Y51408943D01*
D12*
G04 #@! TO.C,M5*
X1595500Y17754000D02*
X1595500Y2754000D01*
X1595500Y17754000D02*
X2895500Y17754000D01*
X1595500Y2754000D02*
X6695500Y2754000D01*
X11195500Y17754000D02*
X4795500Y17754000D01*
X11195500Y3354000D02*
X11195500Y17754000D01*
D13*
G04 #@! TO.C,U1*
X6656000Y99650000D02*
X6656000Y94650001D01*
X6656000Y94650001D02*
X6656000Y92150001D01*
X6656000Y92150001D02*
X74456000Y92150000D01*
D15*
X74456000Y99649999D02*
X6656000Y99650000D01*
D13*
X74456000Y92150000D02*
X74456000Y99649999D01*
G04 #@! TO.C,J2*
X-4358000Y88722000D02*
X-4358000Y81712000D01*
X-4358000Y74702000D02*
X-4358000Y81712000D01*
X8652000Y83322000D02*
X8652000Y84302000D01*
X8652000Y79122000D02*
X8652000Y80102000D01*
X8662000Y88722000D02*
X-4358000Y88722000D01*
X8662000Y87912000D02*
X8662000Y88722000D01*
X8662000Y75512000D02*
X8662000Y74702000D01*
X8662000Y74702000D02*
X-4358000Y74702000D01*
X9352000Y74912000D02*
X9652000Y75512000D01*
X9652000Y75512000D02*
X9952000Y74912000D01*
X9952000Y74912000D02*
X9352000Y74912000D01*
X11762000Y86212000D02*
X13042000Y86212000D01*
X11762000Y85612000D02*
X13042000Y85612000D01*
X11762000Y82012000D02*
X13042000Y82012000D01*
X11762000Y81412000D02*
X13042000Y81412000D01*
X11762000Y77812000D02*
X13042000Y77812000D01*
X11762000Y77212000D02*
X13042000Y77212000D01*
G04 #@! TO.C,U3*
X43160000Y56517000D02*
X43160000Y58467000D01*
X43160000Y56517000D02*
X43160000Y54567000D01*
X48280000Y56517000D02*
X48280000Y58467000D01*
X48280000Y56517000D02*
X48280000Y54567000D01*
X43255000Y53817000D02*
X42925000Y53577000D01*
X42925000Y54057000D01*
X43255000Y53817000D01*
G36*
X43255000Y53817000D02*
G01*
X42925000Y53577000D01*
X42925000Y54057000D01*
X43255000Y53817000D01*
G37*
D12*
G04 #@! TO.C,M3*
X81302000Y3480003D02*
X90402000Y3480003D01*
X81302000Y380000D02*
X81302000Y1380002D01*
X81302000Y380000D02*
X90402000Y380000D01*
D13*
G04 #@! TO.C,Q3*
X69795000Y66550000D02*
X69795000Y60130000D01*
X69795000Y60130000D02*
X70065000Y60130000D01*
X76695000Y66550000D02*
X76695000Y60130000D01*
X76695000Y60130000D02*
X76425000Y60130000D01*
X70105000Y58400000D02*
X69635000Y58060000D01*
X69635000Y58740000D01*
X70105000Y58400000D01*
G36*
X70105000Y58400000D02*
G01*
X69635000Y58060000D01*
X69635000Y58740000D01*
X70105000Y58400000D01*
G37*
G04 #@! TO.C,U2*
X35160000Y56517000D02*
X35160000Y58467000D01*
X35160000Y56517000D02*
X35160000Y54567000D01*
X40280000Y56517000D02*
X40280000Y58467000D01*
X40280000Y56517000D02*
X40280000Y54567000D01*
X35255000Y53817000D02*
X34925000Y53577000D01*
X34925000Y54057000D01*
X35255000Y53817000D01*
G36*
X35255000Y53817000D02*
G01*
X34925000Y53577000D01*
X34925000Y54057000D01*
X35255000Y53817000D01*
G37*
D14*
G04 #@! TO.C,R3*
X35440005Y51010000D02*
X35440015Y51410000D01*
X36185840Y51008944D02*
X36185851Y51408943D01*
G04 #@! TO.C,R4*
X43440005Y51010000D02*
X43440015Y51410000D01*
X44185840Y51008944D02*
X44185851Y51408943D01*
D13*
G04 #@! TO.C,Q4*
X79795000Y66550000D02*
X79795000Y60130000D01*
X79795000Y60130000D02*
X80065000Y60130000D01*
X86695000Y66550000D02*
X86695000Y60130000D01*
X86695000Y60130000D02*
X86425000Y60130000D01*
X80105000Y58400000D02*
X79635000Y58060000D01*
X79635000Y58740000D01*
X80105000Y58400000D01*
G36*
X80105000Y58400000D02*
G01*
X79635000Y58060000D01*
X79635000Y58740000D01*
X80105000Y58400000D01*
G37*
G04 #@! TD*
M02*
