G04 #@! TF.GenerationSoftware,KiCad,Pcbnew,8.0.9-8.0.9-0~ubuntu24.04.1*
G04 #@! TF.CreationDate,2025-06-27T08:15:53+00:00*
G04 #@! TF.ProjectId,EP91Starlet,45503931-5374-4617-926c-65742e6b6963,rev?*
G04 #@! TF.SameCoordinates,Original*
G04 #@! TF.FileFunction,Paste,Bot*
G04 #@! TF.FilePolarity,Positive*
%FSLAX46Y46*%
G04 Gerber Fmt 4.6, Leading zero omitted, Abs format (unit mm)*
G04 Created by KiCad (PCBNEW 8.0.9-8.0.9-0~ubuntu24.04.1) date 2025-06-27 08:15:53*
%MOMM*%
%LPD*%
G01*
G04 APERTURE LIST*
G04 APERTURE END LIST*
G04 #@! TO.C,F2*
G36*
G01*
X117058250Y107850500D02*
X116545750Y107850500D01*
G75*
G02*
X116327000Y108069250I0J218750D01*
G01*
X116327000Y108506750D01*
G75*
G02*
X116545750Y108725500I218750J0D01*
G01*
X117058250Y108725500D01*
G75*
G02*
X117277000Y108506750I0J-218750D01*
G01*
X117277000Y108069250D01*
G75*
G02*
X117058250Y107850500I-218750J0D01*
G01*
G37*
G36*
G01*
X117058250Y109425500D02*
X116545750Y109425500D01*
G75*
G02*
X116327000Y109644250I0J218750D01*
G01*
X116327000Y110081750D01*
G75*
G02*
X116545750Y110300500I218750J0D01*
G01*
X117058250Y110300500D01*
G75*
G02*
X117277000Y110081750I0J-218750D01*
G01*
X117277000Y109644250D01*
G75*
G02*
X117058250Y109425500I-218750J0D01*
G01*
G37*
G04 #@! TD*
G04 #@! TO.C,R13*
G36*
G01*
X117936000Y100238000D02*
X118716000Y100238000D01*
G75*
G02*
X118786000Y100168000I0J-70000D01*
G01*
X118786000Y99608000D01*
G75*
G02*
X118716000Y99538000I-70000J0D01*
G01*
X117936000Y99538000D01*
G75*
G02*
X117866000Y99608000I0J70000D01*
G01*
X117866000Y100168000D01*
G75*
G02*
X117936000Y100238000I70000J0D01*
G01*
G37*
G36*
G01*
X117936000Y98638000D02*
X118716000Y98638000D01*
G75*
G02*
X118786000Y98568000I0J-70000D01*
G01*
X118786000Y98008000D01*
G75*
G02*
X118716000Y97938000I-70000J0D01*
G01*
X117936000Y97938000D01*
G75*
G02*
X117866000Y98008000I0J70000D01*
G01*
X117866000Y98568000D01*
G75*
G02*
X117936000Y98638000I70000J0D01*
G01*
G37*
G04 #@! TD*
G04 #@! TO.C,R14*
G36*
G01*
X117936000Y90238000D02*
X118716000Y90238000D01*
G75*
G02*
X118786000Y90168000I0J-70000D01*
G01*
X118786000Y89608000D01*
G75*
G02*
X118716000Y89538000I-70000J0D01*
G01*
X117936000Y89538000D01*
G75*
G02*
X117866000Y89608000I0J70000D01*
G01*
X117866000Y90168000D01*
G75*
G02*
X117936000Y90238000I70000J0D01*
G01*
G37*
G36*
G01*
X117936000Y88638000D02*
X118716000Y88638000D01*
G75*
G02*
X118786000Y88568000I0J-70000D01*
G01*
X118786000Y88008000D01*
G75*
G02*
X118716000Y87938000I-70000J0D01*
G01*
X117936000Y87938000D01*
G75*
G02*
X117866000Y88008000I0J70000D01*
G01*
X117866000Y88568000D01*
G75*
G02*
X117936000Y88638000I70000J0D01*
G01*
G37*
G04 #@! TD*
G04 #@! TO.C,R9*
G36*
G01*
X117936000Y120238000D02*
X118716000Y120238000D01*
G75*
G02*
X118786000Y120168000I0J-70000D01*
G01*
X118786000Y119608000D01*
G75*
G02*
X118716000Y119538000I-70000J0D01*
G01*
X117936000Y119538000D01*
G75*
G02*
X117866000Y119608000I0J70000D01*
G01*
X117866000Y120168000D01*
G75*
G02*
X117936000Y120238000I70000J0D01*
G01*
G37*
G36*
G01*
X117936000Y118638000D02*
X118716000Y118638000D01*
G75*
G02*
X118786000Y118568000I0J-70000D01*
G01*
X118786000Y118008000D01*
G75*
G02*
X118716000Y117938000I-70000J0D01*
G01*
X117936000Y117938000D01*
G75*
G02*
X117866000Y118008000I0J70000D01*
G01*
X117866000Y118568000D01*
G75*
G02*
X117936000Y118638000I70000J0D01*
G01*
G37*
G04 #@! TD*
G04 #@! TO.C,F3*
G36*
G01*
X117058250Y97850500D02*
X116545750Y97850500D01*
G75*
G02*
X116327000Y98069250I0J218750D01*
G01*
X116327000Y98506750D01*
G75*
G02*
X116545750Y98725500I218750J0D01*
G01*
X117058250Y98725500D01*
G75*
G02*
X117277000Y98506750I0J-218750D01*
G01*
X117277000Y98069250D01*
G75*
G02*
X117058250Y97850500I-218750J0D01*
G01*
G37*
G36*
G01*
X117058250Y99425500D02*
X116545750Y99425500D01*
G75*
G02*
X116327000Y99644250I0J218750D01*
G01*
X116327000Y100081750D01*
G75*
G02*
X116545750Y100300500I218750J0D01*
G01*
X117058250Y100300500D01*
G75*
G02*
X117277000Y100081750I0J-218750D01*
G01*
X117277000Y99644250D01*
G75*
G02*
X117058250Y99425500I-218750J0D01*
G01*
G37*
G04 #@! TD*
G04 #@! TO.C,F1*
G36*
G01*
X117058250Y117850500D02*
X116545750Y117850500D01*
G75*
G02*
X116327000Y118069250I0J218750D01*
G01*
X116327000Y118506750D01*
G75*
G02*
X116545750Y118725500I218750J0D01*
G01*
X117058250Y118725500D01*
G75*
G02*
X117277000Y118506750I0J-218750D01*
G01*
X117277000Y118069250D01*
G75*
G02*
X117058250Y117850500I-218750J0D01*
G01*
G37*
G36*
G01*
X117058250Y119425500D02*
X116545750Y119425500D01*
G75*
G02*
X116327000Y119644250I0J218750D01*
G01*
X116327000Y120081750D01*
G75*
G02*
X116545750Y120300500I218750J0D01*
G01*
X117058250Y120300500D01*
G75*
G02*
X117277000Y120081750I0J-218750D01*
G01*
X117277000Y119644250D01*
G75*
G02*
X117058250Y119425500I-218750J0D01*
G01*
G37*
G04 #@! TD*
G04 #@! TO.C,R15*
G36*
G01*
X119267500Y97624000D02*
X119267500Y100474000D01*
G75*
G02*
X119517500Y100724000I250000J0D01*
G01*
X120242500Y100724000D01*
G75*
G02*
X120492500Y100474000I0J-250000D01*
G01*
X120492500Y97624000D01*
G75*
G02*
X120242500Y97374000I-250000J0D01*
G01*
X119517500Y97374000D01*
G75*
G02*
X119267500Y97624000I0J250000D01*
G01*
G37*
G36*
G01*
X125192500Y97624000D02*
X125192500Y100474000D01*
G75*
G02*
X125442500Y100724000I250000J0D01*
G01*
X126167500Y100724000D01*
G75*
G02*
X126417500Y100474000I0J-250000D01*
G01*
X126417500Y97624000D01*
G75*
G02*
X126167500Y97374000I-250000J0D01*
G01*
X125442500Y97374000D01*
G75*
G02*
X125192500Y97624000I0J250000D01*
G01*
G37*
G04 #@! TD*
G04 #@! TO.C,R12*
G36*
G01*
X119267500Y107624000D02*
X119267500Y110474000D01*
G75*
G02*
X119517500Y110724000I250000J0D01*
G01*
X120242500Y110724000D01*
G75*
G02*
X120492500Y110474000I0J-250000D01*
G01*
X120492500Y107624000D01*
G75*
G02*
X120242500Y107374000I-250000J0D01*
G01*
X119517500Y107374000D01*
G75*
G02*
X119267500Y107624000I0J250000D01*
G01*
G37*
G36*
G01*
X125192500Y107624000D02*
X125192500Y110474000D01*
G75*
G02*
X125442500Y110724000I250000J0D01*
G01*
X126167500Y110724000D01*
G75*
G02*
X126417500Y110474000I0J-250000D01*
G01*
X126417500Y107624000D01*
G75*
G02*
X126167500Y107374000I-250000J0D01*
G01*
X125442500Y107374000D01*
G75*
G02*
X125192500Y107624000I0J250000D01*
G01*
G37*
G04 #@! TD*
G04 #@! TO.C,R16*
G36*
G01*
X119267500Y87624000D02*
X119267500Y90474000D01*
G75*
G02*
X119517500Y90724000I250000J0D01*
G01*
X120242500Y90724000D01*
G75*
G02*
X120492500Y90474000I0J-250000D01*
G01*
X120492500Y87624000D01*
G75*
G02*
X120242500Y87374000I-250000J0D01*
G01*
X119517500Y87374000D01*
G75*
G02*
X119267500Y87624000I0J250000D01*
G01*
G37*
G36*
G01*
X125192500Y87624000D02*
X125192500Y90474000D01*
G75*
G02*
X125442500Y90724000I250000J0D01*
G01*
X126167500Y90724000D01*
G75*
G02*
X126417500Y90474000I0J-250000D01*
G01*
X126417500Y87624000D01*
G75*
G02*
X126167500Y87374000I-250000J0D01*
G01*
X125442500Y87374000D01*
G75*
G02*
X125192500Y87624000I0J250000D01*
G01*
G37*
G04 #@! TD*
G04 #@! TO.C,R10*
G36*
G01*
X117936000Y110238000D02*
X118716000Y110238000D01*
G75*
G02*
X118786000Y110168000I0J-70000D01*
G01*
X118786000Y109608000D01*
G75*
G02*
X118716000Y109538000I-70000J0D01*
G01*
X117936000Y109538000D01*
G75*
G02*
X117866000Y109608000I0J70000D01*
G01*
X117866000Y110168000D01*
G75*
G02*
X117936000Y110238000I70000J0D01*
G01*
G37*
G36*
G01*
X117936000Y108638000D02*
X118716000Y108638000D01*
G75*
G02*
X118786000Y108568000I0J-70000D01*
G01*
X118786000Y108008000D01*
G75*
G02*
X118716000Y107938000I-70000J0D01*
G01*
X117936000Y107938000D01*
G75*
G02*
X117866000Y108008000I0J70000D01*
G01*
X117866000Y108568000D01*
G75*
G02*
X117936000Y108638000I70000J0D01*
G01*
G37*
G04 #@! TD*
G04 #@! TO.C,F4*
G36*
G01*
X117058250Y87850500D02*
X116545750Y87850500D01*
G75*
G02*
X116327000Y88069250I0J218750D01*
G01*
X116327000Y88506750D01*
G75*
G02*
X116545750Y88725500I218750J0D01*
G01*
X117058250Y88725500D01*
G75*
G02*
X117277000Y88506750I0J-218750D01*
G01*
X117277000Y88069250D01*
G75*
G02*
X117058250Y87850500I-218750J0D01*
G01*
G37*
G36*
G01*
X117058250Y89425500D02*
X116545750Y89425500D01*
G75*
G02*
X116327000Y89644250I0J218750D01*
G01*
X116327000Y90081750D01*
G75*
G02*
X116545750Y90300500I218750J0D01*
G01*
X117058250Y90300500D01*
G75*
G02*
X117277000Y90081750I0J-218750D01*
G01*
X117277000Y89644250D01*
G75*
G02*
X117058250Y89425500I-218750J0D01*
G01*
G37*
G04 #@! TD*
G04 #@! TO.C,R11*
G36*
G01*
X119267500Y117624000D02*
X119267500Y120474000D01*
G75*
G02*
X119517500Y120724000I250000J0D01*
G01*
X120242500Y120724000D01*
G75*
G02*
X120492500Y120474000I0J-250000D01*
G01*
X120492500Y117624000D01*
G75*
G02*
X120242500Y117374000I-250000J0D01*
G01*
X119517500Y117374000D01*
G75*
G02*
X119267500Y117624000I0J250000D01*
G01*
G37*
G36*
G01*
X125192500Y117624000D02*
X125192500Y120474000D01*
G75*
G02*
X125442500Y120724000I250000J0D01*
G01*
X126167500Y120724000D01*
G75*
G02*
X126417500Y120474000I0J-250000D01*
G01*
X126417500Y117624000D01*
G75*
G02*
X126167500Y117374000I-250000J0D01*
G01*
X125442500Y117374000D01*
G75*
G02*
X125192500Y117624000I0J250000D01*
G01*
G37*
G04 #@! TD*
M02*
