G04 #@! TF.GenerationSoftware,KiCad,Pcbnew,8.0.9-8.0.9-0~ubuntu24.04.1*
G04 #@! TF.CreationDate,2025-06-27T12:37:52+00:00*
G04 #@! TF.ProjectId,EP91Starlet,45503931-5374-4617-926c-65742e6b6963,rev?*
G04 #@! TF.SameCoordinates,Original*
G04 #@! TF.FileFunction,Legend,Top*
G04 #@! TF.FilePolarity,Positive*
%FSLAX46Y46*%
G04 Gerber Fmt 4.6, Leading zero omitted, Abs format (unit mm)*
G04 Created by KiCad (PCBNEW 8.0.9-8.0.9-0~ubuntu24.04.1) date 2025-06-27 12:37:52*
%MOMM*%
%LPD*%
G01*
G04 APERTURE LIST*
%ADD10C,0.150000*%
%ADD11C,0.170000*%
%ADD12C,0.200000*%
%ADD13C,0.120000*%
%ADD14C,0.203200*%
%ADD15C,0.100000*%
G04 APERTURE END LIST*
D10*
X81856666Y115303181D02*
X81856666Y114588896D01*
X81856666Y114588896D02*
X81809047Y114446039D01*
X81809047Y114446039D02*
X81713809Y114350800D01*
X81713809Y114350800D02*
X81570952Y114303181D01*
X81570952Y114303181D02*
X81475714Y114303181D01*
X82856666Y114303181D02*
X82285238Y114303181D01*
X82570952Y114303181D02*
X82570952Y115303181D01*
X82570952Y115303181D02*
X82475714Y115160324D01*
X82475714Y115160324D02*
X82380476Y115065086D01*
X82380476Y115065086D02*
X82285238Y115017467D01*
D11*
X34505985Y59640093D02*
X34115509Y59366760D01*
X34505985Y59171522D02*
X33685985Y59171522D01*
X33685985Y59171522D02*
X33685985Y59483903D01*
X33685985Y59483903D02*
X33725033Y59561998D01*
X33725033Y59561998D02*
X33764080Y59601045D01*
X33764080Y59601045D02*
X33842176Y59640093D01*
X33842176Y59640093D02*
X33959318Y59640093D01*
X33959318Y59640093D02*
X34037414Y59601045D01*
X34037414Y59601045D02*
X34076461Y59561998D01*
X34076461Y59561998D02*
X34115509Y59483903D01*
X34115509Y59483903D02*
X34115509Y59171522D01*
X34505985Y60421045D02*
X34505985Y59952474D01*
X34505985Y60186760D02*
X33685985Y60186760D01*
X33685985Y60186760D02*
X33803128Y60108664D01*
X33803128Y60108664D02*
X33881223Y60030569D01*
X33881223Y60030569D02*
X33920271Y59952474D01*
D10*
X56209057Y72234762D02*
X56161438Y72139524D01*
X56161438Y72139524D02*
X56066200Y72044286D01*
X56066200Y72044286D02*
X55923342Y71901429D01*
X55923342Y71901429D02*
X55875723Y71806191D01*
X55875723Y71806191D02*
X55875723Y71710953D01*
X56113819Y71758572D02*
X56066200Y71663334D01*
X56066200Y71663334D02*
X55970961Y71568096D01*
X55970961Y71568096D02*
X55780485Y71520477D01*
X55780485Y71520477D02*
X55447152Y71520477D01*
X55447152Y71520477D02*
X55256676Y71568096D01*
X55256676Y71568096D02*
X55161438Y71663334D01*
X55161438Y71663334D02*
X55113819Y71758572D01*
X55113819Y71758572D02*
X55113819Y71949048D01*
X55113819Y71949048D02*
X55161438Y72044286D01*
X55161438Y72044286D02*
X55256676Y72139524D01*
X55256676Y72139524D02*
X55447152Y72187143D01*
X55447152Y72187143D02*
X55780485Y72187143D01*
X55780485Y72187143D02*
X55970961Y72139524D01*
X55970961Y72139524D02*
X56066200Y72044286D01*
X56066200Y72044286D02*
X56113819Y71949048D01*
X56113819Y71949048D02*
X56113819Y71758572D01*
X55209057Y72568096D02*
X55161438Y72615715D01*
X55161438Y72615715D02*
X55113819Y72710953D01*
X55113819Y72710953D02*
X55113819Y72949048D01*
X55113819Y72949048D02*
X55161438Y73044286D01*
X55161438Y73044286D02*
X55209057Y73091905D01*
X55209057Y73091905D02*
X55304295Y73139524D01*
X55304295Y73139524D02*
X55399533Y73139524D01*
X55399533Y73139524D02*
X55542390Y73091905D01*
X55542390Y73091905D02*
X56113819Y72520477D01*
X56113819Y72520477D02*
X56113819Y73139524D01*
X46209057Y72234762D02*
X46161438Y72139524D01*
X46161438Y72139524D02*
X46066200Y72044286D01*
X46066200Y72044286D02*
X45923342Y71901429D01*
X45923342Y71901429D02*
X45875723Y71806191D01*
X45875723Y71806191D02*
X45875723Y71710953D01*
X46113819Y71758572D02*
X46066200Y71663334D01*
X46066200Y71663334D02*
X45970961Y71568096D01*
X45970961Y71568096D02*
X45780485Y71520477D01*
X45780485Y71520477D02*
X45447152Y71520477D01*
X45447152Y71520477D02*
X45256676Y71568096D01*
X45256676Y71568096D02*
X45161438Y71663334D01*
X45161438Y71663334D02*
X45113819Y71758572D01*
X45113819Y71758572D02*
X45113819Y71949048D01*
X45113819Y71949048D02*
X45161438Y72044286D01*
X45161438Y72044286D02*
X45256676Y72139524D01*
X45256676Y72139524D02*
X45447152Y72187143D01*
X45447152Y72187143D02*
X45780485Y72187143D01*
X45780485Y72187143D02*
X45970961Y72139524D01*
X45970961Y72139524D02*
X46066200Y72044286D01*
X46066200Y72044286D02*
X46113819Y71949048D01*
X46113819Y71949048D02*
X46113819Y71758572D01*
X46113819Y73139524D02*
X46113819Y72568096D01*
X46113819Y72853810D02*
X45113819Y72853810D01*
X45113819Y72853810D02*
X45256676Y72758572D01*
X45256676Y72758572D02*
X45351914Y72663334D01*
X45351914Y72663334D02*
X45399533Y72568096D01*
D11*
X42505985Y59640093D02*
X42115509Y59366760D01*
X42505985Y59171522D02*
X41685985Y59171522D01*
X41685985Y59171522D02*
X41685985Y59483903D01*
X41685985Y59483903D02*
X41725033Y59561998D01*
X41725033Y59561998D02*
X41764080Y59601045D01*
X41764080Y59601045D02*
X41842176Y59640093D01*
X41842176Y59640093D02*
X41959318Y59640093D01*
X41959318Y59640093D02*
X42037414Y59601045D01*
X42037414Y59601045D02*
X42076461Y59561998D01*
X42076461Y59561998D02*
X42115509Y59483903D01*
X42115509Y59483903D02*
X42115509Y59171522D01*
X41764080Y59952474D02*
X41725033Y59991522D01*
X41725033Y59991522D02*
X41685985Y60069617D01*
X41685985Y60069617D02*
X41685985Y60264855D01*
X41685985Y60264855D02*
X41725033Y60342950D01*
X41725033Y60342950D02*
X41764080Y60381998D01*
X41764080Y60381998D02*
X41842176Y60421045D01*
X41842176Y60421045D02*
X41920271Y60421045D01*
X41920271Y60421045D02*
X42037414Y60381998D01*
X42037414Y60381998D02*
X42505985Y59913426D01*
X42505985Y59913426D02*
X42505985Y60421045D01*
D10*
X2024819Y104028096D02*
X2834342Y104028096D01*
X2834342Y104028096D02*
X2929580Y104075715D01*
X2929580Y104075715D02*
X2977200Y104123334D01*
X2977200Y104123334D02*
X3024819Y104218572D01*
X3024819Y104218572D02*
X3024819Y104409048D01*
X3024819Y104409048D02*
X2977200Y104504286D01*
X2977200Y104504286D02*
X2929580Y104551905D01*
X2929580Y104551905D02*
X2834342Y104599524D01*
X2834342Y104599524D02*
X2024819Y104599524D01*
X3024819Y105599524D02*
X3024819Y105028096D01*
X3024819Y105313810D02*
X2024819Y105313810D01*
X2024819Y105313810D02*
X2167676Y105218572D01*
X2167676Y105218572D02*
X2262914Y105123334D01*
X2262914Y105123334D02*
X2310533Y105028096D01*
X-9079181Y90268667D02*
X-8364896Y90268667D01*
X-8364896Y90268667D02*
X-8222039Y90221048D01*
X-8222039Y90221048D02*
X-8126800Y90125810D01*
X-8126800Y90125810D02*
X-8079181Y89982953D01*
X-8079181Y89982953D02*
X-8079181Y89887715D01*
X-8983943Y90697239D02*
X-9031562Y90744858D01*
X-9031562Y90744858D02*
X-9079181Y90840096D01*
X-9079181Y90840096D02*
X-9079181Y91078191D01*
X-9079181Y91078191D02*
X-9031562Y91173429D01*
X-9031562Y91173429D02*
X-8983943Y91221048D01*
X-8983943Y91221048D02*
X-8888705Y91268667D01*
X-8888705Y91268667D02*
X-8793467Y91268667D01*
X-8793467Y91268667D02*
X-8650610Y91221048D01*
X-8650610Y91221048D02*
X-8079181Y90649620D01*
X-8079181Y90649620D02*
X-8079181Y91268667D01*
X38688819Y64645096D02*
X39498342Y64645096D01*
X39498342Y64645096D02*
X39593580Y64692715D01*
X39593580Y64692715D02*
X39641200Y64740334D01*
X39641200Y64740334D02*
X39688819Y64835572D01*
X39688819Y64835572D02*
X39688819Y65026048D01*
X39688819Y65026048D02*
X39641200Y65121286D01*
X39641200Y65121286D02*
X39593580Y65168905D01*
X39593580Y65168905D02*
X39498342Y65216524D01*
X39498342Y65216524D02*
X38688819Y65216524D01*
X38688819Y65597477D02*
X38688819Y66216524D01*
X38688819Y66216524D02*
X39069771Y65883191D01*
X39069771Y65883191D02*
X39069771Y66026048D01*
X39069771Y66026048D02*
X39117390Y66121286D01*
X39117390Y66121286D02*
X39165009Y66168905D01*
X39165009Y66168905D02*
X39260247Y66216524D01*
X39260247Y66216524D02*
X39498342Y66216524D01*
X39498342Y66216524D02*
X39593580Y66168905D01*
X39593580Y66168905D02*
X39641200Y66121286D01*
X39641200Y66121286D02*
X39688819Y66026048D01*
X39688819Y66026048D02*
X39688819Y65740334D01*
X39688819Y65740334D02*
X39641200Y65645096D01*
X39641200Y65645096D02*
X39593580Y65597477D01*
X78257741Y13289429D02*
X78257741Y13889429D01*
X78257741Y13889429D02*
X78457741Y13460858D01*
X78457741Y13460858D02*
X78657741Y13889429D01*
X78657741Y13889429D02*
X78657741Y13289429D01*
X78886312Y13889429D02*
X79257740Y13889429D01*
X79257740Y13889429D02*
X79057740Y13660858D01*
X79057740Y13660858D02*
X79143455Y13660858D01*
X79143455Y13660858D02*
X79200598Y13632286D01*
X79200598Y13632286D02*
X79229169Y13603715D01*
X79229169Y13603715D02*
X79257740Y13546572D01*
X79257740Y13546572D02*
X79257740Y13403715D01*
X79257740Y13403715D02*
X79229169Y13346572D01*
X79229169Y13346572D02*
X79200598Y13318000D01*
X79200598Y13318000D02*
X79143455Y13289429D01*
X79143455Y13289429D02*
X78972026Y13289429D01*
X78972026Y13289429D02*
X78914883Y13318000D01*
X78914883Y13318000D02*
X78886312Y13346572D01*
X66209057Y72234762D02*
X66161438Y72139524D01*
X66161438Y72139524D02*
X66066200Y72044286D01*
X66066200Y72044286D02*
X65923342Y71901429D01*
X65923342Y71901429D02*
X65875723Y71806191D01*
X65875723Y71806191D02*
X65875723Y71710953D01*
X66113819Y71758572D02*
X66066200Y71663334D01*
X66066200Y71663334D02*
X65970961Y71568096D01*
X65970961Y71568096D02*
X65780485Y71520477D01*
X65780485Y71520477D02*
X65447152Y71520477D01*
X65447152Y71520477D02*
X65256676Y71568096D01*
X65256676Y71568096D02*
X65161438Y71663334D01*
X65161438Y71663334D02*
X65113819Y71758572D01*
X65113819Y71758572D02*
X65113819Y71949048D01*
X65113819Y71949048D02*
X65161438Y72044286D01*
X65161438Y72044286D02*
X65256676Y72139524D01*
X65256676Y72139524D02*
X65447152Y72187143D01*
X65447152Y72187143D02*
X65780485Y72187143D01*
X65780485Y72187143D02*
X65970961Y72139524D01*
X65970961Y72139524D02*
X66066200Y72044286D01*
X66066200Y72044286D02*
X66113819Y71949048D01*
X66113819Y71949048D02*
X66113819Y71758572D01*
X65113819Y72520477D02*
X65113819Y73139524D01*
X65113819Y73139524D02*
X65494771Y72806191D01*
X65494771Y72806191D02*
X65494771Y72949048D01*
X65494771Y72949048D02*
X65542390Y73044286D01*
X65542390Y73044286D02*
X65590009Y73091905D01*
X65590009Y73091905D02*
X65685247Y73139524D01*
X65685247Y73139524D02*
X65923342Y73139524D01*
X65923342Y73139524D02*
X66018580Y73091905D01*
X66018580Y73091905D02*
X66066200Y73044286D01*
X66066200Y73044286D02*
X66113819Y72949048D01*
X66113819Y72949048D02*
X66113819Y72663334D01*
X66113819Y72663334D02*
X66066200Y72568096D01*
X66066200Y72568096D02*
X66018580Y72520477D01*
X30688819Y64645096D02*
X31498342Y64645096D01*
X31498342Y64645096D02*
X31593580Y64692715D01*
X31593580Y64692715D02*
X31641200Y64740334D01*
X31641200Y64740334D02*
X31688819Y64835572D01*
X31688819Y64835572D02*
X31688819Y65026048D01*
X31688819Y65026048D02*
X31641200Y65121286D01*
X31641200Y65121286D02*
X31593580Y65168905D01*
X31593580Y65168905D02*
X31498342Y65216524D01*
X31498342Y65216524D02*
X30688819Y65216524D01*
X30784057Y65645096D02*
X30736438Y65692715D01*
X30736438Y65692715D02*
X30688819Y65787953D01*
X30688819Y65787953D02*
X30688819Y66026048D01*
X30688819Y66026048D02*
X30736438Y66121286D01*
X30736438Y66121286D02*
X30784057Y66168905D01*
X30784057Y66168905D02*
X30879295Y66216524D01*
X30879295Y66216524D02*
X30974533Y66216524D01*
X30974533Y66216524D02*
X31117390Y66168905D01*
X31117390Y66168905D02*
X31688819Y65597477D01*
X31688819Y65597477D02*
X31688819Y66216524D01*
D11*
X31965985Y59640093D02*
X31575509Y59366760D01*
X31965985Y59171522D02*
X31145985Y59171522D01*
X31145985Y59171522D02*
X31145985Y59483903D01*
X31145985Y59483903D02*
X31185033Y59561998D01*
X31185033Y59561998D02*
X31224080Y59601045D01*
X31224080Y59601045D02*
X31302176Y59640093D01*
X31302176Y59640093D02*
X31419318Y59640093D01*
X31419318Y59640093D02*
X31497414Y59601045D01*
X31497414Y59601045D02*
X31536461Y59561998D01*
X31536461Y59561998D02*
X31575509Y59483903D01*
X31575509Y59483903D02*
X31575509Y59171522D01*
X31145985Y59913426D02*
X31145985Y60421045D01*
X31145985Y60421045D02*
X31458366Y60147712D01*
X31458366Y60147712D02*
X31458366Y60264855D01*
X31458366Y60264855D02*
X31497414Y60342950D01*
X31497414Y60342950D02*
X31536461Y60381998D01*
X31536461Y60381998D02*
X31614557Y60421045D01*
X31614557Y60421045D02*
X31809795Y60421045D01*
X31809795Y60421045D02*
X31887890Y60381998D01*
X31887890Y60381998D02*
X31926938Y60342950D01*
X31926938Y60342950D02*
X31965985Y60264855D01*
X31965985Y60264855D02*
X31965985Y60030569D01*
X31965985Y60030569D02*
X31926938Y59952474D01*
X31926938Y59952474D02*
X31887890Y59913426D01*
X39965985Y59640093D02*
X39575509Y59366760D01*
X39965985Y59171522D02*
X39145985Y59171522D01*
X39145985Y59171522D02*
X39145985Y59483903D01*
X39145985Y59483903D02*
X39185033Y59561998D01*
X39185033Y59561998D02*
X39224080Y59601045D01*
X39224080Y59601045D02*
X39302176Y59640093D01*
X39302176Y59640093D02*
X39419318Y59640093D01*
X39419318Y59640093D02*
X39497414Y59601045D01*
X39497414Y59601045D02*
X39536461Y59561998D01*
X39536461Y59561998D02*
X39575509Y59483903D01*
X39575509Y59483903D02*
X39575509Y59171522D01*
X39419318Y60342950D02*
X39965985Y60342950D01*
X39106938Y60147712D02*
X39692652Y59952474D01*
X39692652Y59952474D02*
X39692652Y60460093D01*
D10*
X76209057Y72234762D02*
X76161438Y72139524D01*
X76161438Y72139524D02*
X76066200Y72044286D01*
X76066200Y72044286D02*
X75923342Y71901429D01*
X75923342Y71901429D02*
X75875723Y71806191D01*
X75875723Y71806191D02*
X75875723Y71710953D01*
X76113819Y71758572D02*
X76066200Y71663334D01*
X76066200Y71663334D02*
X75970961Y71568096D01*
X75970961Y71568096D02*
X75780485Y71520477D01*
X75780485Y71520477D02*
X75447152Y71520477D01*
X75447152Y71520477D02*
X75256676Y71568096D01*
X75256676Y71568096D02*
X75161438Y71663334D01*
X75161438Y71663334D02*
X75113819Y71758572D01*
X75113819Y71758572D02*
X75113819Y71949048D01*
X75113819Y71949048D02*
X75161438Y72044286D01*
X75161438Y72044286D02*
X75256676Y72139524D01*
X75256676Y72139524D02*
X75447152Y72187143D01*
X75447152Y72187143D02*
X75780485Y72187143D01*
X75780485Y72187143D02*
X75970961Y72139524D01*
X75970961Y72139524D02*
X76066200Y72044286D01*
X76066200Y72044286D02*
X76113819Y71949048D01*
X76113819Y71949048D02*
X76113819Y71758572D01*
X75447152Y73044286D02*
X76113819Y73044286D01*
X75066200Y72806191D02*
X75780485Y72568096D01*
X75780485Y72568096D02*
X75780485Y73187143D01*
G04 #@! TO.C,M4*
D12*
X-2482000Y79114000D02*
X11418000Y79114000D01*
X11418000Y51614000D01*
X-2482000Y51614000D01*
X-2482000Y79114000D01*
G04 #@! TO.C,M2*
X19757996Y54199999D02*
X60557999Y54199999D01*
X19757996Y14300000D02*
X19757996Y54199999D01*
X19757996Y14300000D02*
X61857996Y14300000D01*
X60557999Y54199999D02*
X61857999Y54199999D01*
X61857996Y14300000D02*
X61857999Y54199999D01*
D13*
G04 #@! TO.C,J1*
X73080000Y113668000D02*
X82190000Y113668000D01*
X73080000Y100648000D02*
X73080000Y113668000D01*
X73290000Y99958000D02*
X73890000Y99658000D01*
X73290000Y99358000D02*
X73290000Y99958000D01*
X73890000Y100648000D02*
X73080000Y100648000D01*
X73890000Y99658000D02*
X73290000Y99358000D01*
X75590000Y97548000D02*
X75590000Y96268000D01*
X76190000Y97548000D02*
X76190000Y96268000D01*
X77500000Y100658000D02*
X78480000Y100658000D01*
X79790000Y97548000D02*
X79790000Y96268000D01*
X80390000Y97548000D02*
X80390000Y96268000D01*
X81700000Y100658000D02*
X82680000Y100658000D01*
X83990000Y97548000D02*
X83990000Y96268000D01*
X84590000Y97548000D02*
X84590000Y96268000D01*
X85900000Y100658000D02*
X86880000Y100658000D01*
X88190000Y97548000D02*
X88190000Y96268000D01*
X88790000Y97548000D02*
X88790000Y96268000D01*
X90490000Y100648000D02*
X91300000Y100648000D01*
X91300000Y113668000D02*
X82190000Y113668000D01*
X91300000Y100648000D02*
X91300000Y113668000D01*
D12*
G04 #@! TO.C,M1*
X-1490500Y44424000D02*
X-1490500Y29424000D01*
X-1490500Y44424000D02*
X-190500Y44424000D01*
X-1490500Y29424000D02*
X3609500Y29424000D01*
X8109500Y44424000D02*
X1709500Y44424000D01*
X8109500Y30024000D02*
X8109500Y44424000D01*
D14*
G04 #@! TO.C,R1*
X34894005Y59900000D02*
X34894015Y60300000D01*
X35639840Y59898944D02*
X35639851Y60298943D01*
D13*
G04 #@! TO.C,Q2*
X56709000Y75440000D02*
X56709000Y69020000D01*
X56709000Y69020000D02*
X56979000Y69020000D01*
X63609000Y75440000D02*
X63609000Y69020000D01*
X63609000Y69020000D02*
X63339000Y69020000D01*
X57019000Y67290000D02*
X56549000Y66950000D01*
X56549000Y67630000D01*
X57019000Y67290000D01*
G36*
X57019000Y67290000D02*
G01*
X56549000Y66950000D01*
X56549000Y67630000D01*
X57019000Y67290000D01*
G37*
G04 #@! TO.C,Q1*
X46709000Y75440000D02*
X46709000Y69020000D01*
X46709000Y69020000D02*
X46979000Y69020000D01*
X53609000Y75440000D02*
X53609000Y69020000D01*
X53609000Y69020000D02*
X53339000Y69020000D01*
X47019000Y67290000D02*
X46549000Y66950000D01*
X46549000Y67630000D01*
X47019000Y67290000D01*
G36*
X47019000Y67290000D02*
G01*
X46549000Y66950000D01*
X46549000Y67630000D01*
X47019000Y67290000D01*
G37*
D12*
G04 #@! TO.C,M6*
X19494000Y95737999D02*
X19494000Y80337999D01*
X19494000Y95737999D02*
X19794000Y95737999D01*
X20944000Y78938002D02*
X22494000Y78937997D01*
X21394000Y95737999D02*
X31794002Y95737999D01*
X24494002Y78938002D02*
X25594005Y78938002D01*
X27194000Y78938002D02*
X29894000Y78938002D01*
X33394002Y78938002D02*
X38194002Y78938002D01*
X33494000Y95737999D02*
X36694003Y95737999D01*
X39794002Y78938000D02*
X40094000Y78938000D01*
X40093998Y94237999D02*
X40094000Y78938000D01*
D14*
G04 #@! TO.C,R2*
X42894005Y59900000D02*
X42894015Y60300000D01*
X43639840Y59898944D02*
X43639851Y60298943D01*
D12*
G04 #@! TO.C,M5*
X-1490500Y26644000D02*
X-1490500Y11644000D01*
X-1490500Y26644000D02*
X-190500Y26644000D01*
X-1490500Y11644000D02*
X3609500Y11644000D01*
X8109500Y26644000D02*
X1709500Y26644000D01*
X8109500Y12244000D02*
X8109500Y26644000D01*
D13*
G04 #@! TO.C,U1*
X3570000Y108540000D02*
X3570000Y103540001D01*
X3570000Y103540001D02*
X3570000Y101040001D01*
X3570000Y101040001D02*
X71370000Y101040000D01*
D15*
X71370000Y108539999D02*
X3570000Y108540000D01*
D13*
X71370000Y101040000D02*
X71370000Y108539999D01*
G04 #@! TO.C,J2*
X-7444000Y97612000D02*
X-7444000Y90602000D01*
X-7444000Y83592000D02*
X-7444000Y90602000D01*
X5566000Y92212000D02*
X5566000Y93192000D01*
X5566000Y88012000D02*
X5566000Y88992000D01*
X5576000Y97612000D02*
X-7444000Y97612000D01*
X5576000Y96802000D02*
X5576000Y97612000D01*
X5576000Y84402000D02*
X5576000Y83592000D01*
X5576000Y83592000D02*
X-7444000Y83592000D01*
X6266000Y83802000D02*
X6566000Y84402000D01*
X6566000Y84402000D02*
X6866000Y83802000D01*
X6866000Y83802000D02*
X6266000Y83802000D01*
X8676000Y95102000D02*
X9956000Y95102000D01*
X8676000Y94502000D02*
X9956000Y94502000D01*
X8676000Y90902000D02*
X9956000Y90902000D01*
X8676000Y90302000D02*
X9956000Y90302000D01*
X8676000Y86702000D02*
X9956000Y86702000D01*
X8676000Y86102000D02*
X9956000Y86102000D01*
G04 #@! TO.C,U3*
X40074000Y65407000D02*
X40074000Y67357000D01*
X40074000Y65407000D02*
X40074000Y63457000D01*
X45194000Y65407000D02*
X45194000Y67357000D01*
X45194000Y65407000D02*
X45194000Y63457000D01*
X40169000Y62707000D02*
X39839000Y62467000D01*
X39839000Y62947000D01*
X40169000Y62707000D01*
G36*
X40169000Y62707000D02*
G01*
X39839000Y62467000D01*
X39839000Y62947000D01*
X40169000Y62707000D01*
G37*
D12*
G04 #@! TO.C,M3*
X78216000Y12370003D02*
X87316000Y12370003D01*
X78216000Y9270000D02*
X78216000Y10270002D01*
X78216000Y9270000D02*
X87316000Y9270000D01*
D13*
G04 #@! TO.C,Q3*
X66709000Y75440000D02*
X66709000Y69020000D01*
X66709000Y69020000D02*
X66979000Y69020000D01*
X73609000Y75440000D02*
X73609000Y69020000D01*
X73609000Y69020000D02*
X73339000Y69020000D01*
X67019000Y67290000D02*
X66549000Y66950000D01*
X66549000Y67630000D01*
X67019000Y67290000D01*
G36*
X67019000Y67290000D02*
G01*
X66549000Y66950000D01*
X66549000Y67630000D01*
X67019000Y67290000D01*
G37*
G04 #@! TO.C,U2*
X32074000Y65407000D02*
X32074000Y67357000D01*
X32074000Y65407000D02*
X32074000Y63457000D01*
X37194000Y65407000D02*
X37194000Y67357000D01*
X37194000Y65407000D02*
X37194000Y63457000D01*
X32169000Y62707000D02*
X31839000Y62467000D01*
X31839000Y62947000D01*
X32169000Y62707000D01*
G36*
X32169000Y62707000D02*
G01*
X31839000Y62467000D01*
X31839000Y62947000D01*
X32169000Y62707000D01*
G37*
D14*
G04 #@! TO.C,R3*
X32354005Y59900000D02*
X32354015Y60300000D01*
X33099840Y59898944D02*
X33099851Y60298943D01*
G04 #@! TO.C,R4*
X40354005Y59900000D02*
X40354015Y60300000D01*
X41099840Y59898944D02*
X41099851Y60298943D01*
D13*
G04 #@! TO.C,Q4*
X76709000Y75440000D02*
X76709000Y69020000D01*
X76709000Y69020000D02*
X76979000Y69020000D01*
X83609000Y75440000D02*
X83609000Y69020000D01*
X83609000Y69020000D02*
X83339000Y69020000D01*
X77019000Y67290000D02*
X76549000Y66950000D01*
X76549000Y67630000D01*
X77019000Y67290000D01*
G36*
X77019000Y67290000D02*
G01*
X76549000Y66950000D01*
X76549000Y67630000D01*
X77019000Y67290000D01*
G37*
G04 #@! TD*
M02*
