M48
; DRILL file {KiCad 8.0.9-8.0.9-0~ubuntu24.04.1} date 2025-06-27T01:28:59+0000
; FORMAT={2:4/ absolute / inch / suppress leading zeros}
; #@! TF.CreationDate,2025-06-27T01:28:59+00:00
; #@! TF.GenerationSoftware,Kicad,Pcbnew,8.0.9-8.0.9-0~ubuntu24.04.1
; #@! TF.FileFunction,MixedPlating,1,4
FMAT,2
INCH,TZ
; #@! TA.AperFunction,Plated,PTH,ViaDrill
T1C0.0118
; #@! TA.AperFunction,Plated,PTH,ComponentDrill
T2C0.0118
; #@! TA.AperFunction,Plated,PTH,ViaDrill
T3C0.0157
; #@! TA.AperFunction,Plated,PTH,ComponentDrill
T4C0.0394
; #@! TA.AperFunction,Plated,PTH,ComponentDrill
T5C0.0433
; #@! TA.AperFunction,Plated,PTH,ComponentDrill
T6C0.0709
; #@! TA.AperFunction,NonPlated,NPTH,ComponentDrill
T7C0.1181
%
G90
G05
T1
X6878Y21470
X6878Y20470
X6878Y18270
X6878Y17270
X17185Y33170
X18285Y32570
X20285Y26970
X21285Y26970
X24585Y26670
X28585Y26670
X32485Y26670
X36385Y26670
T2
X2943Y1890
X3336Y1890
X3730Y1890
X4628Y1890
X4843Y25135
X5028Y1890
X5237Y25135
X5954Y12359
X6348Y12359
X6742Y12359
X7135Y12359
X10187Y20604
X10187Y17651
X10187Y17336
X10187Y17021
X10187Y16706
X10187Y16391
X10187Y15761
X10187Y15446
X10187Y15131
X10187Y14817
X10187Y14502
X10187Y14187
X10187Y13872
X10187Y13557
X10187Y13242
X10187Y12927
X10187Y11982
X10187Y11667
X10187Y11352
X10187Y10092
X10187Y9777
X10187Y9462
X10187Y9147
X10187Y8202
X10187Y7887
X10187Y7572
X10187Y7257
X10187Y6943
X10187Y5919
X10187Y20289
X10187Y16076
X10187Y12612
X10187Y12297
X10187Y11037
X10187Y10722
X10187Y10407
X10187Y8832
X10187Y8517
X10424Y21470
X10502Y5919
X10817Y5919
X10896Y21470
X11132Y5919
X11369Y21470
X11447Y5919
X11762Y5919
X11841Y21470
X12077Y5919
X12313Y21470
X12392Y5919
X12601Y26957
X12707Y5919
X12746Y21470
X12975Y26957
X12994Y30383
X13022Y5919
X13219Y21470
X13337Y5919
X13349Y30383
X13349Y26957
X13652Y5919
X13691Y21470
X13967Y5919
X14164Y21470
X14282Y5919
X14597Y5919
X14636Y21470
X14912Y5919
X15109Y21470
X15227Y5919
X15542Y5919
X15581Y21470
X15857Y5919
X16054Y21470
X16172Y5919
X16487Y5919
X16526Y21470
X16802Y5919
X16998Y21470
X17117Y5919
X17471Y21470
X17943Y21470
X18416Y21470
X18888Y21470
X19282Y5919
X19361Y21470
X19597Y5919
X19833Y21470
X19912Y5919
X20227Y5919
X20306Y21470
X20542Y5919
X20778Y21470
X21250Y21470
X21723Y21470
X22195Y21470
X22668Y21470
X23140Y21470
X23613Y21470
X23613Y5919
X23928Y5919
X24085Y21470
X24243Y5919
X24557Y21470
X25030Y21470
X25502Y21470
X26447Y21470
X26605Y17572
X26605Y14817
X26605Y14423
X26605Y14029
X26605Y13635
X26605Y13242
X26605Y12848
X26605Y12454
X26605Y12061
X26605Y5919
X26605Y15210
X26605Y11667
X26605Y11273
X26605Y10880
X26605Y10486
X26605Y10092
X26605Y9698
X26605Y20486
X26605Y20092
X28506Y21450
X28506Y20978
X28506Y20506
X28506Y20033
X28664Y16455
X28664Y15982
X28664Y15510
X28664Y15037
X34185Y22970
X34185Y22576
X34343Y17974
X34343Y17581
T3
X16885Y30570
X17885Y30570
X20185Y30570
X21189Y30570
T4
X3721Y25312
X3898Y31414
X6182Y25312
X7875Y25312
X8623Y25312
X8643Y31414
X10591Y31414
X11143Y25312
X11320Y31414
T5
X1294Y38042
X1294Y36270
X2476Y38042
X2476Y36270
X3657Y38042
X3657Y36270
X4838Y38042
X4838Y36270
X6019Y38042
X6019Y36270
X7200Y38042
X7200Y36270
X8381Y38042
X8381Y36270
X9562Y38042
X9562Y36270
X12712Y38042
X12712Y36270
X13893Y38042
X13893Y36270
X15074Y38042
X15074Y36270
X16255Y38042
X16255Y36270
X17436Y38042
X17436Y36270
X18617Y38042
X18617Y36270
X19798Y38042
X19798Y36270
X20980Y38042
X20980Y36270
X22161Y38042
X22161Y36270
X23342Y38042
X23342Y36270
X24523Y38042
X24523Y36270
X25704Y38042
X25704Y36270
X26885Y38042
X26885Y36270
T6
X29978Y35370
X29978Y33205
X31631Y35370
X31631Y33205
X33285Y35370
X33285Y33205
X34939Y35370
X34939Y33205
T7
X29978Y38244
X34939Y38244
M30
