G04 #@! TF.GenerationSoftware,KiCad,Pcbnew,8.0.9-8.0.9-0~ubuntu24.04.1*
G04 #@! TF.CreationDate,2025-06-27T01:28:59+00:00*
G04 #@! TF.ProjectId,EP91Starlet,45503931-5374-4617-926c-65742e6b6963,rev?*
G04 #@! TF.SameCoordinates,Original*
G04 #@! TF.FileFunction,Legend,Top*
G04 #@! TF.FilePolarity,Positive*
%FSLAX46Y46*%
G04 Gerber Fmt 4.6, Leading zero omitted, Abs format (unit mm)*
G04 Created by KiCad (PCBNEW 8.0.9-8.0.9-0~ubuntu24.04.1) date 2025-06-27 01:28:59*
%MOMM*%
%LPD*%
G01*
G04 APERTURE LIST*
%ADD10C,0.150000*%
%ADD11C,0.170000*%
%ADD12C,0.120000*%
%ADD13C,0.100000*%
%ADD14C,0.200000*%
%ADD15C,0.203200*%
G04 APERTURE END LIST*
D10*
X342819Y93614096D02*
X1152342Y93614096D01*
X1152342Y93614096D02*
X1247580Y93661715D01*
X1247580Y93661715D02*
X1295200Y93709334D01*
X1295200Y93709334D02*
X1342819Y93804572D01*
X1342819Y93804572D02*
X1342819Y93995048D01*
X1342819Y93995048D02*
X1295200Y94090286D01*
X1295200Y94090286D02*
X1247580Y94137905D01*
X1247580Y94137905D02*
X1152342Y94185524D01*
X1152342Y94185524D02*
X342819Y94185524D01*
X1342819Y95185524D02*
X1342819Y94614096D01*
X1342819Y94899810D02*
X342819Y94899810D01*
X342819Y94899810D02*
X485676Y94804572D01*
X485676Y94804572D02*
X580914Y94709334D01*
X580914Y94709334D02*
X628533Y94614096D01*
D11*
X14214762Y48067492D02*
X14214762Y48887492D01*
X14214762Y48887492D02*
X14410000Y48887492D01*
X14410000Y48887492D02*
X14527143Y48848444D01*
X14527143Y48848444D02*
X14605238Y48770349D01*
X14605238Y48770349D02*
X14644285Y48692254D01*
X14644285Y48692254D02*
X14683333Y48536063D01*
X14683333Y48536063D02*
X14683333Y48418920D01*
X14683333Y48418920D02*
X14644285Y48262730D01*
X14644285Y48262730D02*
X14605238Y48184635D01*
X14605238Y48184635D02*
X14527143Y48106539D01*
X14527143Y48106539D02*
X14410000Y48067492D01*
X14410000Y48067492D02*
X14214762Y48067492D01*
X15464285Y48067492D02*
X14995714Y48067492D01*
X15230000Y48067492D02*
X15230000Y48887492D01*
X15230000Y48887492D02*
X15151904Y48770349D01*
X15151904Y48770349D02*
X15073809Y48692254D01*
X15073809Y48692254D02*
X14995714Y48653206D01*
D10*
X7517095Y56574181D02*
X7517095Y55764658D01*
X7517095Y55764658D02*
X7564714Y55669420D01*
X7564714Y55669420D02*
X7612333Y55621800D01*
X7612333Y55621800D02*
X7707571Y55574181D01*
X7707571Y55574181D02*
X7898047Y55574181D01*
X7898047Y55574181D02*
X7993285Y55621800D01*
X7993285Y55621800D02*
X8040904Y55669420D01*
X8040904Y55669420D02*
X8088523Y55764658D01*
X8088523Y55764658D02*
X8088523Y56574181D01*
X9040904Y56574181D02*
X8564714Y56574181D01*
X8564714Y56574181D02*
X8517095Y56097991D01*
X8517095Y56097991D02*
X8564714Y56145610D01*
X8564714Y56145610D02*
X8659952Y56193229D01*
X8659952Y56193229D02*
X8898047Y56193229D01*
X8898047Y56193229D02*
X8993285Y56145610D01*
X8993285Y56145610D02*
X9040904Y56097991D01*
X9040904Y56097991D02*
X9088523Y56002753D01*
X9088523Y56002753D02*
X9088523Y55764658D01*
X9088523Y55764658D02*
X9040904Y55669420D01*
X9040904Y55669420D02*
X8993285Y55621800D01*
X8993285Y55621800D02*
X8898047Y55574181D01*
X8898047Y55574181D02*
X8659952Y55574181D01*
X8659952Y55574181D02*
X8564714Y55621800D01*
X8564714Y55621800D02*
X8517095Y55669420D01*
X35425428Y77330259D02*
X36025428Y77330259D01*
X36025428Y77330259D02*
X35596857Y77130259D01*
X35596857Y77130259D02*
X36025428Y76930259D01*
X36025428Y76930259D02*
X35425428Y76930259D01*
X36025428Y76701688D02*
X36025428Y76330260D01*
X36025428Y76330260D02*
X35796857Y76530260D01*
X35796857Y76530260D02*
X35796857Y76444545D01*
X35796857Y76444545D02*
X35768285Y76387402D01*
X35768285Y76387402D02*
X35739714Y76358831D01*
X35739714Y76358831D02*
X35682571Y76330260D01*
X35682571Y76330260D02*
X35539714Y76330260D01*
X35539714Y76330260D02*
X35482571Y76358831D01*
X35482571Y76358831D02*
X35454000Y76387402D01*
X35454000Y76387402D02*
X35425428Y76444545D01*
X35425428Y76444545D02*
X35425428Y76615974D01*
X35425428Y76615974D02*
X35454000Y76673117D01*
X35454000Y76673117D02*
X35482571Y76701688D01*
X80754057Y74768762D02*
X80706438Y74673524D01*
X80706438Y74673524D02*
X80611200Y74578286D01*
X80611200Y74578286D02*
X80468342Y74435429D01*
X80468342Y74435429D02*
X80420723Y74340191D01*
X80420723Y74340191D02*
X80420723Y74244953D01*
X80658819Y74292572D02*
X80611200Y74197334D01*
X80611200Y74197334D02*
X80515961Y74102096D01*
X80515961Y74102096D02*
X80325485Y74054477D01*
X80325485Y74054477D02*
X79992152Y74054477D01*
X79992152Y74054477D02*
X79801676Y74102096D01*
X79801676Y74102096D02*
X79706438Y74197334D01*
X79706438Y74197334D02*
X79658819Y74292572D01*
X79658819Y74292572D02*
X79658819Y74483048D01*
X79658819Y74483048D02*
X79706438Y74578286D01*
X79706438Y74578286D02*
X79801676Y74673524D01*
X79801676Y74673524D02*
X79992152Y74721143D01*
X79992152Y74721143D02*
X80325485Y74721143D01*
X80325485Y74721143D02*
X80515961Y74673524D01*
X80515961Y74673524D02*
X80611200Y74578286D01*
X80611200Y74578286D02*
X80658819Y74483048D01*
X80658819Y74483048D02*
X80658819Y74292572D01*
X79754057Y75102096D02*
X79706438Y75149715D01*
X79706438Y75149715D02*
X79658819Y75244953D01*
X79658819Y75244953D02*
X79658819Y75483048D01*
X79658819Y75483048D02*
X79706438Y75578286D01*
X79706438Y75578286D02*
X79754057Y75625905D01*
X79754057Y75625905D02*
X79849295Y75673524D01*
X79849295Y75673524D02*
X79944533Y75673524D01*
X79944533Y75673524D02*
X80087390Y75625905D01*
X80087390Y75625905D02*
X80658819Y75054477D01*
X80658819Y75054477D02*
X80658819Y75673524D01*
D11*
X2004092Y52757015D02*
X1730759Y53147491D01*
X1535521Y52757015D02*
X1535521Y53577015D01*
X1535521Y53577015D02*
X1847902Y53577015D01*
X1847902Y53577015D02*
X1925997Y53537967D01*
X1925997Y53537967D02*
X1965044Y53498920D01*
X1965044Y53498920D02*
X2004092Y53420824D01*
X2004092Y53420824D02*
X2004092Y53303682D01*
X2004092Y53303682D02*
X1965044Y53225586D01*
X1965044Y53225586D02*
X1925997Y53186539D01*
X1925997Y53186539D02*
X1847902Y53147491D01*
X1847902Y53147491D02*
X1535521Y53147491D01*
X2745997Y53577015D02*
X2355521Y53577015D01*
X2355521Y53577015D02*
X2316473Y53186539D01*
X2316473Y53186539D02*
X2355521Y53225586D01*
X2355521Y53225586D02*
X2433616Y53264634D01*
X2433616Y53264634D02*
X2628854Y53264634D01*
X2628854Y53264634D02*
X2706949Y53225586D01*
X2706949Y53225586D02*
X2745997Y53186539D01*
X2745997Y53186539D02*
X2785044Y53108443D01*
X2785044Y53108443D02*
X2785044Y52913205D01*
X2785044Y52913205D02*
X2745997Y52835110D01*
X2745997Y52835110D02*
X2706949Y52796062D01*
X2706949Y52796062D02*
X2628854Y52757015D01*
X2628854Y52757015D02*
X2433616Y52757015D01*
X2433616Y52757015D02*
X2355521Y52796062D01*
X2355521Y52796062D02*
X2316473Y52835110D01*
X14214762Y41495492D02*
X14214762Y42315492D01*
X14214762Y42315492D02*
X14410000Y42315492D01*
X14410000Y42315492D02*
X14527143Y42276444D01*
X14527143Y42276444D02*
X14605238Y42198349D01*
X14605238Y42198349D02*
X14644285Y42120254D01*
X14644285Y42120254D02*
X14683333Y41964063D01*
X14683333Y41964063D02*
X14683333Y41846920D01*
X14683333Y41846920D02*
X14644285Y41690730D01*
X14644285Y41690730D02*
X14605238Y41612635D01*
X14605238Y41612635D02*
X14527143Y41534539D01*
X14527143Y41534539D02*
X14410000Y41495492D01*
X14410000Y41495492D02*
X14214762Y41495492D01*
X14995714Y42237397D02*
X15034762Y42276444D01*
X15034762Y42276444D02*
X15112857Y42315492D01*
X15112857Y42315492D02*
X15308095Y42315492D01*
X15308095Y42315492D02*
X15386190Y42276444D01*
X15386190Y42276444D02*
X15425238Y42237397D01*
X15425238Y42237397D02*
X15464285Y42159301D01*
X15464285Y42159301D02*
X15464285Y42081206D01*
X15464285Y42081206D02*
X15425238Y41964063D01*
X15425238Y41964063D02*
X14956666Y41495492D01*
X14956666Y41495492D02*
X15464285Y41495492D01*
X2004092Y47169015D02*
X1730759Y47559491D01*
X1535521Y47169015D02*
X1535521Y47989015D01*
X1535521Y47989015D02*
X1847902Y47989015D01*
X1847902Y47989015D02*
X1925997Y47949967D01*
X1925997Y47949967D02*
X1965044Y47910920D01*
X1965044Y47910920D02*
X2004092Y47832824D01*
X2004092Y47832824D02*
X2004092Y47715682D01*
X2004092Y47715682D02*
X1965044Y47637586D01*
X1965044Y47637586D02*
X1925997Y47598539D01*
X1925997Y47598539D02*
X1847902Y47559491D01*
X1847902Y47559491D02*
X1535521Y47559491D01*
X2472663Y47637586D02*
X2394568Y47676634D01*
X2394568Y47676634D02*
X2355521Y47715682D01*
X2355521Y47715682D02*
X2316473Y47793777D01*
X2316473Y47793777D02*
X2316473Y47832824D01*
X2316473Y47832824D02*
X2355521Y47910920D01*
X2355521Y47910920D02*
X2394568Y47949967D01*
X2394568Y47949967D02*
X2472663Y47989015D01*
X2472663Y47989015D02*
X2628854Y47989015D01*
X2628854Y47989015D02*
X2706949Y47949967D01*
X2706949Y47949967D02*
X2745997Y47910920D01*
X2745997Y47910920D02*
X2785044Y47832824D01*
X2785044Y47832824D02*
X2785044Y47793777D01*
X2785044Y47793777D02*
X2745997Y47715682D01*
X2745997Y47715682D02*
X2706949Y47676634D01*
X2706949Y47676634D02*
X2628854Y47637586D01*
X2628854Y47637586D02*
X2472663Y47637586D01*
X2472663Y47637586D02*
X2394568Y47598539D01*
X2394568Y47598539D02*
X2355521Y47559491D01*
X2355521Y47559491D02*
X2316473Y47481396D01*
X2316473Y47481396D02*
X2316473Y47325205D01*
X2316473Y47325205D02*
X2355521Y47247110D01*
X2355521Y47247110D02*
X2394568Y47208062D01*
X2394568Y47208062D02*
X2472663Y47169015D01*
X2472663Y47169015D02*
X2628854Y47169015D01*
X2628854Y47169015D02*
X2706949Y47208062D01*
X2706949Y47208062D02*
X2745997Y47247110D01*
X2745997Y47247110D02*
X2785044Y47325205D01*
X2785044Y47325205D02*
X2785044Y47481396D01*
X2785044Y47481396D02*
X2745997Y47559491D01*
X2745997Y47559491D02*
X2706949Y47598539D01*
X2706949Y47598539D02*
X2628854Y47637586D01*
D10*
X70754057Y74768762D02*
X70706438Y74673524D01*
X70706438Y74673524D02*
X70611200Y74578286D01*
X70611200Y74578286D02*
X70468342Y74435429D01*
X70468342Y74435429D02*
X70420723Y74340191D01*
X70420723Y74340191D02*
X70420723Y74244953D01*
X70658819Y74292572D02*
X70611200Y74197334D01*
X70611200Y74197334D02*
X70515961Y74102096D01*
X70515961Y74102096D02*
X70325485Y74054477D01*
X70325485Y74054477D02*
X69992152Y74054477D01*
X69992152Y74054477D02*
X69801676Y74102096D01*
X69801676Y74102096D02*
X69706438Y74197334D01*
X69706438Y74197334D02*
X69658819Y74292572D01*
X69658819Y74292572D02*
X69658819Y74483048D01*
X69658819Y74483048D02*
X69706438Y74578286D01*
X69706438Y74578286D02*
X69801676Y74673524D01*
X69801676Y74673524D02*
X69992152Y74721143D01*
X69992152Y74721143D02*
X70325485Y74721143D01*
X70325485Y74721143D02*
X70515961Y74673524D01*
X70515961Y74673524D02*
X70611200Y74578286D01*
X70611200Y74578286D02*
X70658819Y74483048D01*
X70658819Y74483048D02*
X70658819Y74292572D01*
X69658819Y75054477D02*
X69658819Y75673524D01*
X69658819Y75673524D02*
X70039771Y75340191D01*
X70039771Y75340191D02*
X70039771Y75483048D01*
X70039771Y75483048D02*
X70087390Y75578286D01*
X70087390Y75578286D02*
X70135009Y75625905D01*
X70135009Y75625905D02*
X70230247Y75673524D01*
X70230247Y75673524D02*
X70468342Y75673524D01*
X70468342Y75673524D02*
X70563580Y75625905D01*
X70563580Y75625905D02*
X70611200Y75578286D01*
X70611200Y75578286D02*
X70658819Y75483048D01*
X70658819Y75483048D02*
X70658819Y75197334D01*
X70658819Y75197334D02*
X70611200Y75102096D01*
X70611200Y75102096D02*
X70563580Y75054477D01*
D11*
X2004092Y44375015D02*
X1730759Y44765491D01*
X1535521Y44375015D02*
X1535521Y45195015D01*
X1535521Y45195015D02*
X1847902Y45195015D01*
X1847902Y45195015D02*
X1925997Y45155967D01*
X1925997Y45155967D02*
X1965044Y45116920D01*
X1965044Y45116920D02*
X2004092Y45038824D01*
X2004092Y45038824D02*
X2004092Y44921682D01*
X2004092Y44921682D02*
X1965044Y44843586D01*
X1965044Y44843586D02*
X1925997Y44804539D01*
X1925997Y44804539D02*
X1847902Y44765491D01*
X1847902Y44765491D02*
X1535521Y44765491D01*
X2706949Y45195015D02*
X2550759Y45195015D01*
X2550759Y45195015D02*
X2472663Y45155967D01*
X2472663Y45155967D02*
X2433616Y45116920D01*
X2433616Y45116920D02*
X2355521Y44999777D01*
X2355521Y44999777D02*
X2316473Y44843586D01*
X2316473Y44843586D02*
X2316473Y44531205D01*
X2316473Y44531205D02*
X2355521Y44453110D01*
X2355521Y44453110D02*
X2394568Y44414062D01*
X2394568Y44414062D02*
X2472663Y44375015D01*
X2472663Y44375015D02*
X2628854Y44375015D01*
X2628854Y44375015D02*
X2706949Y44414062D01*
X2706949Y44414062D02*
X2745997Y44453110D01*
X2745997Y44453110D02*
X2785044Y44531205D01*
X2785044Y44531205D02*
X2785044Y44726443D01*
X2785044Y44726443D02*
X2745997Y44804539D01*
X2745997Y44804539D02*
X2706949Y44843586D01*
X2706949Y44843586D02*
X2628854Y44882634D01*
X2628854Y44882634D02*
X2472663Y44882634D01*
X2472663Y44882634D02*
X2394568Y44843586D01*
X2394568Y44843586D02*
X2355521Y44804539D01*
X2355521Y44804539D02*
X2316473Y44726443D01*
X2004092Y55297015D02*
X1730759Y55687491D01*
X1535521Y55297015D02*
X1535521Y56117015D01*
X1535521Y56117015D02*
X1847902Y56117015D01*
X1847902Y56117015D02*
X1925997Y56077967D01*
X1925997Y56077967D02*
X1965044Y56038920D01*
X1965044Y56038920D02*
X2004092Y55960824D01*
X2004092Y55960824D02*
X2004092Y55843682D01*
X2004092Y55843682D02*
X1965044Y55765586D01*
X1965044Y55765586D02*
X1925997Y55726539D01*
X1925997Y55726539D02*
X1847902Y55687491D01*
X1847902Y55687491D02*
X1535521Y55687491D01*
X2277425Y56117015D02*
X2824092Y56117015D01*
X2824092Y56117015D02*
X2472663Y55297015D01*
D10*
X90754057Y74768762D02*
X90706438Y74673524D01*
X90706438Y74673524D02*
X90611200Y74578286D01*
X90611200Y74578286D02*
X90468342Y74435429D01*
X90468342Y74435429D02*
X90420723Y74340191D01*
X90420723Y74340191D02*
X90420723Y74244953D01*
X90658819Y74292572D02*
X90611200Y74197334D01*
X90611200Y74197334D02*
X90515961Y74102096D01*
X90515961Y74102096D02*
X90325485Y74054477D01*
X90325485Y74054477D02*
X89992152Y74054477D01*
X89992152Y74054477D02*
X89801676Y74102096D01*
X89801676Y74102096D02*
X89706438Y74197334D01*
X89706438Y74197334D02*
X89658819Y74292572D01*
X89658819Y74292572D02*
X89658819Y74483048D01*
X89658819Y74483048D02*
X89706438Y74578286D01*
X89706438Y74578286D02*
X89801676Y74673524D01*
X89801676Y74673524D02*
X89992152Y74721143D01*
X89992152Y74721143D02*
X90325485Y74721143D01*
X90325485Y74721143D02*
X90515961Y74673524D01*
X90515961Y74673524D02*
X90611200Y74578286D01*
X90611200Y74578286D02*
X90658819Y74483048D01*
X90658819Y74483048D02*
X90658819Y74292572D01*
X90658819Y75673524D02*
X90658819Y75102096D01*
X90658819Y75387810D02*
X89658819Y75387810D01*
X89658819Y75387810D02*
X89801676Y75292572D01*
X89801676Y75292572D02*
X89896914Y75197334D01*
X89896914Y75197334D02*
X89944533Y75102096D01*
X7393095Y48446181D02*
X7393095Y47636658D01*
X7393095Y47636658D02*
X7440714Y47541420D01*
X7440714Y47541420D02*
X7488333Y47493800D01*
X7488333Y47493800D02*
X7583571Y47446181D01*
X7583571Y47446181D02*
X7774047Y47446181D01*
X7774047Y47446181D02*
X7869285Y47493800D01*
X7869285Y47493800D02*
X7916904Y47541420D01*
X7916904Y47541420D02*
X7964523Y47636658D01*
X7964523Y47636658D02*
X7964523Y48446181D01*
X8869285Y48112848D02*
X8869285Y47446181D01*
X8631190Y48493800D02*
X8393095Y47779515D01*
X8393095Y47779515D02*
X9012142Y47779515D01*
X82110666Y105485181D02*
X82110666Y104770896D01*
X82110666Y104770896D02*
X82063047Y104628039D01*
X82063047Y104628039D02*
X81967809Y104532800D01*
X81967809Y104532800D02*
X81824952Y104485181D01*
X81824952Y104485181D02*
X81729714Y104485181D01*
X83110666Y104485181D02*
X82539238Y104485181D01*
X82824952Y104485181D02*
X82824952Y105485181D01*
X82824952Y105485181D02*
X82729714Y105342324D01*
X82729714Y105342324D02*
X82634476Y105247086D01*
X82634476Y105247086D02*
X82539238Y105199467D01*
D11*
X14342762Y55941492D02*
X14342762Y56761492D01*
X14342762Y56761492D02*
X14538000Y56761492D01*
X14538000Y56761492D02*
X14655143Y56722444D01*
X14655143Y56722444D02*
X14733238Y56644349D01*
X14733238Y56644349D02*
X14772285Y56566254D01*
X14772285Y56566254D02*
X14811333Y56410063D01*
X14811333Y56410063D02*
X14811333Y56292920D01*
X14811333Y56292920D02*
X14772285Y56136730D01*
X14772285Y56136730D02*
X14733238Y56058635D01*
X14733238Y56058635D02*
X14655143Y55980539D01*
X14655143Y55980539D02*
X14538000Y55941492D01*
X14538000Y55941492D02*
X14342762Y55941492D01*
X15084666Y56761492D02*
X15592285Y56761492D01*
X15592285Y56761492D02*
X15318952Y56449111D01*
X15318952Y56449111D02*
X15436095Y56449111D01*
X15436095Y56449111D02*
X15514190Y56410063D01*
X15514190Y56410063D02*
X15553238Y56371016D01*
X15553238Y56371016D02*
X15592285Y56292920D01*
X15592285Y56292920D02*
X15592285Y56097682D01*
X15592285Y56097682D02*
X15553238Y56019587D01*
X15553238Y56019587D02*
X15514190Y55980539D01*
X15514190Y55980539D02*
X15436095Y55941492D01*
X15436095Y55941492D02*
X15201809Y55941492D01*
X15201809Y55941492D02*
X15123714Y55980539D01*
X15123714Y55980539D02*
X15084666Y56019587D01*
X14214762Y49623492D02*
X14214762Y50443492D01*
X14214762Y50443492D02*
X14410000Y50443492D01*
X14410000Y50443492D02*
X14527143Y50404444D01*
X14527143Y50404444D02*
X14605238Y50326349D01*
X14605238Y50326349D02*
X14644285Y50248254D01*
X14644285Y50248254D02*
X14683333Y50092063D01*
X14683333Y50092063D02*
X14683333Y49974920D01*
X14683333Y49974920D02*
X14644285Y49818730D01*
X14644285Y49818730D02*
X14605238Y49740635D01*
X14605238Y49740635D02*
X14527143Y49662539D01*
X14527143Y49662539D02*
X14410000Y49623492D01*
X14410000Y49623492D02*
X14214762Y49623492D01*
X15386190Y50170159D02*
X15386190Y49623492D01*
X15190952Y50482539D02*
X14995714Y49896825D01*
X14995714Y49896825D02*
X15503333Y49896825D01*
D10*
X60754057Y74768762D02*
X60706438Y74673524D01*
X60706438Y74673524D02*
X60611200Y74578286D01*
X60611200Y74578286D02*
X60468342Y74435429D01*
X60468342Y74435429D02*
X60420723Y74340191D01*
X60420723Y74340191D02*
X60420723Y74244953D01*
X60658819Y74292572D02*
X60611200Y74197334D01*
X60611200Y74197334D02*
X60515961Y74102096D01*
X60515961Y74102096D02*
X60325485Y74054477D01*
X60325485Y74054477D02*
X59992152Y74054477D01*
X59992152Y74054477D02*
X59801676Y74102096D01*
X59801676Y74102096D02*
X59706438Y74197334D01*
X59706438Y74197334D02*
X59658819Y74292572D01*
X59658819Y74292572D02*
X59658819Y74483048D01*
X59658819Y74483048D02*
X59706438Y74578286D01*
X59706438Y74578286D02*
X59801676Y74673524D01*
X59801676Y74673524D02*
X59992152Y74721143D01*
X59992152Y74721143D02*
X60325485Y74721143D01*
X60325485Y74721143D02*
X60515961Y74673524D01*
X60515961Y74673524D02*
X60611200Y74578286D01*
X60611200Y74578286D02*
X60658819Y74483048D01*
X60658819Y74483048D02*
X60658819Y74292572D01*
X59992152Y75578286D02*
X60658819Y75578286D01*
X59611200Y75340191D02*
X60325485Y75102096D01*
X60325485Y75102096D02*
X60325485Y75721143D01*
D12*
G04 #@! TO.C,U1*
X1888000Y98126000D02*
X1888000Y93126001D01*
X1888000Y93126001D02*
X1888000Y90626001D01*
X1888000Y90626001D02*
X69688000Y90626000D01*
D13*
X69688000Y98125999D02*
X1888000Y98126000D01*
D12*
X69688000Y90626000D02*
X69688000Y98125999D01*
D11*
G04 #@! TO.C,D1*
X14470000Y46756000D02*
X14470000Y46056000D01*
X14470000Y46406000D02*
X14170000Y46406000D01*
X15170000Y46756000D02*
X15170000Y46056000D01*
X15170000Y46406000D02*
X14470000Y46756000D01*
X15170000Y46406000D02*
X14470000Y46056000D01*
X15370000Y46406000D02*
X15170000Y46406000D01*
D12*
X17070000Y47406000D02*
X13170000Y47406000D01*
X17070000Y45406000D02*
X13170000Y45406000D01*
X17070000Y45406000D02*
X17070000Y47406000D01*
G04 #@! TO.C,U5*
X8279000Y55189000D02*
X6329000Y55189000D01*
X8279000Y55189000D02*
X10229000Y55189000D01*
X8279000Y50069000D02*
X6329000Y50069000D01*
X8279000Y50069000D02*
X10229000Y50069000D01*
X5579000Y55094000D02*
X5339000Y55424000D01*
X5819000Y55424000D01*
X5579000Y55094000D01*
G36*
X5579000Y55094000D02*
G01*
X5339000Y55424000D01*
X5819000Y55424000D01*
X5579000Y55094000D01*
G37*
D14*
G04 #@! TO.C,M3*
X31406000Y77372000D02*
X31406000Y68272000D01*
X31406000Y77372000D02*
X32406002Y77372000D01*
X34506003Y77372000D02*
X34506003Y68272000D01*
D12*
G04 #@! TO.C,Q2*
X81254000Y77974000D02*
X81254000Y71554000D01*
X81254000Y71554000D02*
X81524000Y71554000D01*
X88154000Y77974000D02*
X88154000Y71554000D01*
X88154000Y71554000D02*
X87884000Y71554000D01*
X81564000Y69824000D02*
X81094000Y69484000D01*
X81094000Y70164000D01*
X81564000Y69824000D01*
G36*
X81564000Y69824000D02*
G01*
X81094000Y69484000D01*
X81094000Y70164000D01*
X81564000Y69824000D01*
G37*
D15*
G04 #@! TO.C,R5*
X2262944Y51623160D02*
X2662943Y51623149D01*
X2264000Y52368995D02*
X2664000Y52368985D01*
D11*
G04 #@! TO.C,D2*
X14470000Y44216000D02*
X14470000Y43516000D01*
X14470000Y43866000D02*
X14170000Y43866000D01*
X15170000Y44216000D02*
X15170000Y43516000D01*
X15170000Y43866000D02*
X14470000Y44216000D01*
X15170000Y43866000D02*
X14470000Y43516000D01*
X15370000Y43866000D02*
X15170000Y43866000D01*
D12*
X17070000Y44866000D02*
X13170000Y44866000D01*
X17070000Y42866000D02*
X13170000Y42866000D01*
X17070000Y42866000D02*
X17070000Y44866000D01*
D14*
G04 #@! TO.C,M2*
X25675999Y54734001D02*
X25675996Y14834002D01*
X26975996Y14834002D02*
X25675996Y14834002D01*
X67775999Y54734001D02*
X25675999Y54734001D01*
X67775999Y54734001D02*
X67775999Y14834002D01*
X67775999Y14834002D02*
X26975996Y14834002D01*
D15*
G04 #@! TO.C,R8*
X2262944Y46035160D02*
X2662943Y46035149D01*
X2264000Y46780995D02*
X2664000Y46780985D01*
D12*
G04 #@! TO.C,Q3*
X71254000Y77974000D02*
X71254000Y71554000D01*
X71254000Y71554000D02*
X71524000Y71554000D01*
X78154000Y77974000D02*
X78154000Y71554000D01*
X78154000Y71554000D02*
X77884000Y71554000D01*
X71564000Y69824000D02*
X71094000Y69484000D01*
X71094000Y70164000D01*
X71564000Y69824000D01*
G36*
X71564000Y69824000D02*
G01*
X71094000Y69484000D01*
X71094000Y70164000D01*
X71564000Y69824000D01*
G37*
D15*
G04 #@! TO.C,R6*
X2262944Y43241160D02*
X2662943Y43241149D01*
X2264000Y43986995D02*
X2664000Y43986985D01*
G04 #@! TO.C,R7*
X2262944Y54163160D02*
X2662943Y54163149D01*
X2264000Y54908995D02*
X2664000Y54908985D01*
D12*
G04 #@! TO.C,Q1*
X91254000Y77974000D02*
X91254000Y71554000D01*
X91254000Y71554000D02*
X91524000Y71554000D01*
X98154000Y77974000D02*
X98154000Y71554000D01*
X98154000Y71554000D02*
X97884000Y71554000D01*
X91564000Y69824000D02*
X91094000Y69484000D01*
X91094000Y70164000D01*
X91564000Y69824000D01*
G36*
X91564000Y69824000D02*
G01*
X91094000Y69484000D01*
X91094000Y70164000D01*
X91564000Y69824000D01*
G37*
D14*
G04 #@! TO.C,M6*
X8802000Y80442000D02*
X8802000Y65042000D01*
X8802000Y80442000D02*
X9102000Y80442000D01*
X10252000Y63642003D02*
X11802000Y63641998D01*
X10702000Y80442000D02*
X21102002Y80442000D01*
X13802002Y63642003D02*
X14902005Y63642003D01*
X16502000Y63642003D02*
X19202000Y63642003D01*
X22702002Y63642003D02*
X27502002Y63642003D01*
X22802000Y80442000D02*
X26002003Y80442000D01*
X29102002Y63642001D02*
X29402000Y63642001D01*
X29401998Y78942000D02*
X29402000Y63642001D01*
G04 #@! TO.C,M4*
X5774000Y31842000D02*
X19674000Y31842000D01*
X19674000Y4342000D01*
X5774000Y4342000D01*
X5774000Y31842000D01*
D12*
G04 #@! TO.C,U4*
X8155000Y47061000D02*
X6205000Y47061000D01*
X8155000Y47061000D02*
X10105000Y47061000D01*
X8155000Y41941000D02*
X6205000Y41941000D01*
X8155000Y41941000D02*
X10105000Y41941000D01*
X5455000Y46966000D02*
X5215000Y47296000D01*
X5695000Y47296000D01*
X5455000Y46966000D01*
G36*
X5455000Y46966000D02*
G01*
X5215000Y47296000D01*
X5695000Y47296000D01*
X5455000Y46966000D01*
G37*
G04 #@! TO.C,J1*
X73334000Y103850000D02*
X82444000Y103850000D01*
X73334000Y90830000D02*
X73334000Y103850000D01*
X73544000Y90140000D02*
X74144000Y89840000D01*
X73544000Y89540000D02*
X73544000Y90140000D01*
X74144000Y90830000D02*
X73334000Y90830000D01*
X74144000Y89840000D02*
X73544000Y89540000D01*
X75844000Y87730000D02*
X75844000Y86450000D01*
X76444000Y87730000D02*
X76444000Y86450000D01*
X77754000Y90840000D02*
X78734000Y90840000D01*
X80044000Y87730000D02*
X80044000Y86450000D01*
X80644000Y87730000D02*
X80644000Y86450000D01*
X81954000Y90840000D02*
X82934000Y90840000D01*
X84244000Y87730000D02*
X84244000Y86450000D01*
X84844000Y87730000D02*
X84844000Y86450000D01*
X86154000Y90840000D02*
X87134000Y90840000D01*
X88444000Y87730000D02*
X88444000Y86450000D01*
X89044000Y87730000D02*
X89044000Y86450000D01*
X90744000Y90830000D02*
X91554000Y90830000D01*
X91554000Y103850000D02*
X82444000Y103850000D01*
X91554000Y90830000D02*
X91554000Y103850000D01*
D11*
G04 #@! TO.C,D3*
X14470000Y54884000D02*
X14470000Y54184000D01*
X14470000Y54534000D02*
X14170000Y54534000D01*
X15170000Y54884000D02*
X15170000Y54184000D01*
X15170000Y54534000D02*
X14470000Y54884000D01*
X15170000Y54534000D02*
X14470000Y54184000D01*
X15370000Y54534000D02*
X15170000Y54534000D01*
D12*
X17070000Y55534000D02*
X13170000Y55534000D01*
X17070000Y53534000D02*
X13170000Y53534000D01*
X17070000Y53534000D02*
X17070000Y55534000D01*
D14*
G04 #@! TO.C,M5*
X72506000Y47394500D02*
X72506000Y42294500D01*
X73106000Y37794500D02*
X87506000Y37794500D01*
X87506000Y47394500D02*
X72506000Y47394500D01*
X87506000Y47394500D02*
X87506000Y46094500D01*
X87506000Y37794500D02*
X87506000Y44194500D01*
D11*
G04 #@! TO.C,D4*
X14470000Y52344000D02*
X14470000Y51644000D01*
X14470000Y51994000D02*
X14170000Y51994000D01*
X15170000Y52344000D02*
X15170000Y51644000D01*
X15170000Y51994000D02*
X14470000Y52344000D01*
X15170000Y51994000D02*
X14470000Y51644000D01*
X15370000Y51994000D02*
X15170000Y51994000D01*
D12*
X17070000Y52994000D02*
X13170000Y52994000D01*
X17070000Y50994000D02*
X13170000Y50994000D01*
X17070000Y50994000D02*
X17070000Y52994000D01*
D14*
G04 #@! TO.C,M1*
X72105000Y60084000D02*
X72105000Y54984000D01*
X72705000Y50484000D02*
X87105000Y50484000D01*
X87105000Y60084000D02*
X72105000Y60084000D01*
X87105000Y60084000D02*
X87105000Y58784000D01*
X87105000Y50484000D02*
X87105000Y56884000D01*
D12*
G04 #@! TO.C,Q4*
X61254000Y77974000D02*
X61254000Y71554000D01*
X61254000Y71554000D02*
X61524000Y71554000D01*
X68154000Y77974000D02*
X68154000Y71554000D01*
X68154000Y71554000D02*
X67884000Y71554000D01*
X61564000Y69824000D02*
X61094000Y69484000D01*
X61094000Y70164000D01*
X61564000Y69824000D01*
G36*
X61564000Y69824000D02*
G01*
X61094000Y69484000D01*
X61094000Y70164000D01*
X61564000Y69824000D01*
G37*
G04 #@! TD*
M02*
