M48
INCH,TZ
T01C0.013750
T02C0.031500
T03C0.039200
T04C0.043300
T05C0.070900
T06C0.118100
%
T01
X6878Y21470
X6878Y20470
X6878Y18270
X6878Y17270
X17185Y33170
X18285Y32570
X20285Y26970
X21285Y26970
X24585Y26670
X28585Y26670
X32485Y26670
X36385Y26670
X2943Y1890
X3336Y1890
X3730Y1890
X4628Y1890
X4843Y25135
X5028Y1890
X5237Y25135
X5954Y12359
X6348Y12359
X6742Y12359
X7135Y12359
X10187Y20604
X10187Y17651
X10187Y17336
X10187Y17021
X10187Y16706
X10187Y16391
X10187Y15761
X10187Y15446
X10187Y15131
X10187Y14817
X10187Y14502
X10187Y14187
X10187Y13872
X10187Y13557
X10187Y13242
X10187Y12927
X10187Y11982
X10187Y11667
X10187Y11352
X10187Y10092
X10187Y9777
X10187Y9462
X10187Y9147
X10187Y8202
X10187Y7887
X10187Y7572
X10187Y7257
X10187Y6943
X10187Y5919
X10187Y20289
X10187Y16076
X10187Y12612
X10187Y12297
X10187Y11037
X10187Y10722
X10187Y10407
X10187Y8832
X10187Y8517
X10424Y21470
X10502Y5919
X10817Y5919
X10896Y21470
X11132Y5919
X11369Y21470
X11447Y5919
X11762Y5919
X11841Y21470
X12077Y5919
X12313Y21470
X12392Y5919
X12601Y26957
X12707Y5919
X12746Y21470
X12975Y26957
X12994Y30383
X13022Y5919
X13219Y21470
X13337Y5919
X13349Y30383
X13349Y26957
X13652Y5919
X13691Y21470
X13967Y5919
X14164Y21470
X14282Y5919
X14597Y5919
X14636Y21470
X14912Y5919
X15109Y21470
X15227Y5919
X15542Y5919
X15581Y21470
X15857Y5919
X16054Y21470
X16172Y5919
X16487Y5919
X16526Y21470
X16802Y5919
X16998Y21470
X17117Y5919
X17471Y21470
X17943Y21470
X18416Y21470
X18888Y21470
X19282Y5919
X19361Y21470
X19597Y5919
X19833Y21470
X19912Y5919
X20227Y5919
X20306Y21470
X20542Y5919
X20778Y21470
X21250Y21470
X21723Y21470
X22195Y21470
X22668Y21470
X23140Y21470
X23613Y21470
X23613Y5919
X23928Y5919
X24085Y21470
X24243Y5919
X24557Y21470
X25030Y21470
X25502Y21470
X26447Y21470
X26605Y17572
X26605Y14817
X26605Y14423
X26605Y14029
X26605Y13635
X26605Y13242
X26605Y12848
X26605Y12454
X26605Y12061
X26605Y5919
X26605Y15210
X26605Y11667
X26605Y11273
X26605Y10880
X26605Y10486
X26605Y10092
X26605Y9698
X26605Y20486
X26605Y20092
X28506Y21450
X28506Y20978
X28506Y20506
X28506Y20033
X28664Y16455
X28664Y15982
X28664Y15510
X28664Y15037
X34185Y22970
X34185Y22576
X34343Y17974
X34343Y17581
X16885Y30570
X17885Y30570
X20185Y30570
X21189Y30570
X34057Y21470
X34057Y23438
X34018Y20131
X33191Y21548
X33034Y22611
X32916Y23438
X32679Y20131
X32286Y21037
X32246Y22021
X31695Y22651
X31656Y23438
X31262Y20131
X31026Y20840
X30947Y23438
X30861Y21531
X30435Y23084
X29924Y22218
X29687Y23163
X29530Y20131
X29215Y23438
X28897Y20956
X28624Y21824
X28624Y23163
X34185Y22576
X34185Y22970
X28506Y20033
X28506Y20505
X28506Y20977
X28506Y21450
X26447Y21470
X26524Y21071
X26605Y20486
X26605Y20092
X25847Y19832
X25133Y19816
X24849Y19793
X24243Y19974
X23928Y19974
X23362Y19786
X22936Y19786
X22353Y19974
X22038Y19974
X21469Y19804
X21184Y19795
X20496Y19996
X20112Y19996
X19601Y19770
X19159Y19786
X18573Y19974
X18258Y19974
X17678Y19877
X17294Y19816
X16684Y19974
X16369Y19974
X15739Y19816
X15424Y19816
X14794Y19974
X14479Y19974
X13849Y19816
X13534Y19816
X12904Y19974
X12668Y19738
X12392Y18871
X12077Y18990
X11880Y19265
X11526Y19265
X11438Y18340
X11940Y18320
X11877Y18042
X11979Y17198
X11605Y17060
X11501Y16785
X11398Y17297
X11677Y15971
X11685Y15474
X11999Y15446
X11959Y15053
X12077Y14265
X12672Y14189
X13062Y14147
X13396Y14136
X13140Y14423
X12888Y14583
X12725Y13719
X12709Y13332
X12954Y13172
X12568Y12927
X12658Y12219
X12589Y11942
X12707Y11076
X12904Y10722
X12677Y10161
X12656Y9777
X11855Y10073
X11532Y10294
X11149Y10318
X11570Y8858
X11619Y8208
X11400Y8025
X11962Y7610
X12686Y7417
X13062Y7730
X13306Y7582
X13455Y6903
X13731Y7021
X12509Y6814
X12231Y6940
X12087Y6421
X11772Y6320
X11149Y6876
X15058Y6886
X15356Y6836
X15302Y7475
X14963Y7685
X14366Y8360
X14558Y8596
X14794Y8832
X15621Y9068
X16240Y9172
X16211Y8832
X16521Y9260
X16723Y9462
X16566Y10407
X16132Y10431
X15306Y10171
X14991Y10171
X14847Y10587
X14203Y10486
X14164Y9777
X13936Y9606
X13613Y10249
X13613Y11194
X14558Y11509
X14873Y11509
X14794Y12076
X14873Y13045
X14479Y13045
X14201Y12568
X13487Y12459
X13623Y13216
X13609Y13593
X14676Y13675
X14597Y14394
X14282Y14383
X15170Y14468
X14951Y15249
X14636Y15328
X14006Y15210
X13760Y15355
X13466Y15603
X13829Y16076
X14223Y16076
X14873Y16391
X15188Y16388
X15503Y16391
X16132Y16255
X16399Y16066
X16290Y15525
X16077Y15289
X15927Y15694
X16920Y15525
X16841Y15249
X17707Y15210
X17786Y15564
X17786Y16391
X17471Y16388
X17156Y16352
X16880Y16785
X16880Y17100
X16871Y17385
X16644Y17927
X16054Y17927
X15680Y17690
X15680Y17060
X16113Y17198
X14656Y17336
X14661Y17046
X13829Y17198
X13396Y17060
X13396Y17690
X13770Y17927
X14361Y17927
X14932Y18675
X15439Y18773
X15724Y18773
X17328Y18773
X17614Y18773
X17887Y18689
X17963Y17690
X18337Y17927
X18888Y17927
X19223Y17336
X19228Y17046
X19419Y16376
X19754Y16388
X20069Y16391
X20247Y17060
X20680Y17198
X20581Y17927
X20247Y17690
X20009Y18657
X19504Y18812
X19218Y18773
X20751Y18417
X21108Y18773
X21393Y18773
X21408Y18123
X21458Y17422
X21477Y16745
X21464Y16450
X21477Y16091
X21487Y15604
X21447Y15171
X21827Y15043
X22112Y15023
X22274Y15525
X22136Y15958
X22634Y15847
X23054Y15747
X23079Y15462
X23573Y15446
X23910Y15563
X24309Y15280
X23987Y14934
X23495Y14848
X23428Y14365
X23462Y14029
X23416Y13645
X23416Y13360
X23416Y12808
X23455Y12060
X23258Y11549
X23337Y11273
X23313Y10811
X23349Y10231
X23377Y9462
X23770Y9364
X23780Y9024
X24636Y8793
X24617Y9383
X24563Y10131
X24951Y10210
X25345Y10214
X25995Y10218
X26605Y10092
X26605Y10486
X26605Y10879
X26605Y11273
X26605Y11667
X26605Y12060
X26605Y12454
X26605Y12848
X26605Y13242
X26605Y13635
X26605Y14029
X26605Y14423
X26605Y14816
X26605Y15210
X26369Y15446
X25829Y15279
X25837Y15761
X25562Y15899
X25200Y15859
X24932Y15960
X24272Y16165
X24259Y16450
X24272Y16745
X24243Y17100
X24724Y16957
X25226Y16950
X25069Y17375
X25186Y17701
X24798Y17729
X25129Y18123
X25168Y18675
X24887Y18773
X24125Y18704
X23652Y18704
X23283Y18773
X22998Y18773
X22589Y18714
X22235Y18753
X22648Y18123
X22589Y17690
X22274Y17375
X22412Y16982
X21782Y16982
X21908Y17815
X23652Y17690
X23888Y18123
X23112Y17093
X23071Y16810
X23140Y16234
X22609Y14777
X22538Y13532
X22579Y12927
X22601Y12513
X22569Y12001
X22579Y11431
X22579Y10722
X22579Y10092
X22638Y9428
X21735Y9319
X21711Y8705
X21507Y8504
X21064Y8576
X21014Y8990
X21014Y9275
X21014Y10096
X21028Y10485
X21551Y10486
X21551Y10771
X21265Y10790
X21054Y11037
X21132Y11391
X21019Y11844
X20113Y11837
X19830Y11728
X19951Y11470
X20200Y11153
X20188Y12257
X20040Y13039
X19951Y13438
X20138Y13783
X20424Y14698
X20953Y14714
X21096Y14458
X21132Y15456
X20778Y15749
X20698Y16059
X20030Y15525
X19545Y15511
X19558Y15226
X19397Y14245
X18989Y14202
X18928Y14481
X18652Y14186
X18003Y14162
X18012Y14447
X17569Y14088
X17338Y14304
X16851Y13771
X17744Y13478
X18227Y13474
X17963Y13114
X17629Y12612
X17156Y12139
X18062Y12100
X18534Y10919
X18849Y10958
X19128Y11456
X19597Y11893
X19125Y13084
X20975Y12887
X21211Y13478
X21526Y13419
X21936Y13355
X21812Y13970
X21723Y11371
X20198Y9904
X20188Y9462
X20266Y8832
X20258Y8547
X20126Y8073
X20198Y7796
X20069Y7297
X20522Y6712
X19754Y6157
X18958Y6044
X18633Y6089
X18345Y6047
X18026Y6050
X17712Y6056
X18101Y6942
X18721Y6913
X19007Y6913
X19292Y6903
X19147Y7908
X19085Y8202
X19430Y8714
X19282Y9462
X19440Y9974
X18534Y10053
X18179Y10141
X17904Y10407
X18101Y9265
X18554Y9541
X17392Y8832
X17865Y8360
X17865Y7422
X17471Y7218
X17131Y6819
X16182Y6901
X16999Y8163
X16684Y11616
X16172Y11498
X15950Y11679
X15730Y11498
X15552Y11721
X15699Y12887
X16211Y13084
X16329Y12375
X18414Y15298
X18652Y15643
X18790Y16076
X18495Y16076
X18396Y17198
X17963Y17060
X18180Y21273
X17943Y21470
X17707Y21273
X17471Y21470
X17235Y21273
X16999Y21470
X16762Y21273
X16526Y21470
X16290Y21273
X16054Y21470
X15817Y21273
X15581Y21470
X15345Y21273
X15109Y21470
X14873Y21273
X14636Y21470
X14400Y21273
X14164Y21470
X13928Y21273
X13691Y21470
X13455Y21273
X13219Y21470
X12983Y21273
X12747Y21470
X12314Y21470
X12077Y21273
X11841Y21470
X11605Y21273
X11369Y21470
X11132Y21273
X11436Y20566
X11909Y20566
X12943Y18714
X13549Y18773
X13834Y18773
X13219Y16391
X12904Y16388
X12589Y16391
X12303Y16446
X11201Y13429
X13495Y9068
X13454Y8786
X20935Y8199
X21259Y7868
X21184Y7592
X21508Y7727
X21900Y7277
X22168Y7393
X22458Y7554
X22758Y7567
X22707Y7848
X22471Y8478
X22096Y8743
X21967Y6893
X22638Y7049
X23390Y7356
X23759Y7201
X23778Y7496
X23628Y7900
X23957Y7887
X24451Y7688
X25314Y7890
X25723Y7981
X25660Y7415
X26506Y7336
X26526Y7730
X25936Y6450
X25896Y5997
X24814Y5997
X24174Y6794
X23434Y6697
X22414Y6155
X21408Y6273
X25453Y8833
X25621Y9068
X25796Y9646
X26192Y9659
X26605Y9698
X25479Y11091
X25207Y11431
X25039Y12192
X24233Y12218
X24233Y12927
X24233Y13635
X24233Y14344
X24668Y14728
X24983Y14497
X25483Y15033
X26477Y16125
X25867Y16745
X26192Y17415
X26605Y17572
X26369Y18123
X26566Y18714
X26014Y18911
X26251Y19393
X25615Y18578
X25739Y17789
X26014Y20879
X25971Y21439
X25739Y21273
X25503Y21470
X25266Y21273
X25030Y21470
X24794Y21273
X24558Y21470
X24321Y21273
X24085Y21470
X23849Y21273
X23613Y21470
X23377Y21273
X23140Y21470
X22904Y21273
X22668Y21470
X22432Y21273
X22195Y21470
X21959Y21273
X21723Y21470
X21487Y21273
X21251Y21470
X21014Y21273
X20778Y21470
X20542Y21273
X20306Y21470
X20069Y21273
X19833Y21470
X19597Y21273
X19361Y21470
X19125Y21273
X18888Y21470
X18652Y21273
X18416Y21470
X24754Y10899
X11054Y10742
X10867Y10526
X10188Y10407
X10188Y10092
X10188Y9777
X10188Y9462
X10188Y9147
X10188Y8832
X10188Y8517
X10188Y8202
X10188Y7887
X10188Y7572
X10188Y7257
X10188Y6942
X10266Y6627
X10589Y6942
X10461Y7772
X10426Y8990
X10426Y9934
X11043Y9592
X11016Y11507
X10188Y11352
X10188Y11037
X10188Y10722
X10188Y11667
X10188Y11982
X10188Y12297
X10188Y12612
X10188Y12927
X10188Y13242
X10188Y13557
X10188Y13871
X10188Y14186
X10188Y14501
X10188Y14816
X10188Y15131
X10188Y15446
X10188Y15761
X10188Y16076
X10188Y16391
X10188Y16706
X10188Y17021
X10188Y17336
X10188Y17651
X11016Y17776
X11014Y18478
X10699Y18635
X10554Y18389
X10581Y18950
X10463Y19265
X10384Y19541
X10384Y19934
X10188Y20289
X10188Y20604
X10532Y20574
X10994Y20573
X10896Y21470
X10660Y21273
X10424Y21470
X10227Y21155
X10699Y17100
X11039Y17045
X10471Y14151
X10798Y12562
X11093Y12562
X10817Y5919
X10503Y5919
X10188Y5919
X11132Y5919
X11447Y5919
X11762Y5919
X12077Y5919
X12392Y5919
X12707Y5919
X13022Y5919
X13337Y5919
X13652Y5919
X13967Y5919
X14282Y5919
X14597Y5919
X14912Y5919
X15227Y5919
X15542Y5919
X15857Y5919
X16172Y5919
X16487Y5919
X16802Y5919
X17117Y5919
X19282Y5919
X19597Y5919
X19912Y5919
X20227Y5919
X20542Y5919
X22678Y5945
X23613Y5919
X23928Y5919
X24243Y5919
X26605Y5919
X12454Y30377
X12707Y30225
X12994Y30383
X13349Y30383
X13015Y29381
X12910Y29107
X13123Y28864
X12610Y29414
X13350Y27935
X13349Y26958
X12975Y26958
X12601Y26958
X5403Y1827
X2473Y1902
X4143Y1946
X7509Y1946
X7319Y2179
X6039Y2235
X5728Y2235
X2705Y2389
X4296Y2617
X3598Y2709
X6226Y2772
X7159Y2909
X7431Y3201
X2391Y3304
X3028Y3350
X3405Y3392
X4712Y3467
X5949Y3471
X7470Y3747
X5384Y3828
X6673Y3953
X4724Y4013
X3677Y4022
X5434Y4131
X7509Y4229
X2386Y5026
X6702Y5194
X4897Y5484
X3958Y5714
X5458Y5715
X4665Y5716
X4422Y5922
X7608Y5942
X4763Y6000
X3386Y6307
X5521Y6515
X3437Y6604
X7578Y6729
X4084Y6745
X3431Y6914
X6864Y6932
X5482Y7005
X4482Y7064
X3807Y7217
X6781Y7221
X6048Y7522
X3082Y7540
X2781Y7548
X7588Y7920
X2950Y8127
X2365Y8152
X3249Y8161
X2584Y8418
X4226Y8556
X5073Y8602
X5586Y8672
X6486Y8672
X6787Y8672
X7088Y8672
X7389Y8672
X5994Y8676
X4458Y9052
X4675Y9308
X7630Y11383
X5881Y11600
X2628Y11640
X3041Y11788
X5974Y11887
X3622Y11926
X3897Y11926
X4173Y11926
X3061Y12103
X7637Y12123
X3622Y12231
X3897Y12231
X2647Y12428
X2942Y1890
X3336Y1890
X3730Y1890
X4628Y1890
X5028Y1890
X5954Y12359
X6348Y12359
X6742Y12359
X7135Y12359
X34215Y16475
X34215Y18443
X34176Y15136
X33349Y16553
X33192Y17616
X33074Y18443
X32837Y15136
X32444Y16042
X32404Y17026
X31853Y17656
X31814Y18443
X31420Y15136
X31184Y15845
X31105Y18443
X31019Y16536
X30593Y18089
X30082Y17223
X29845Y18168
X29688Y15136
X29373Y18443
X29055Y15961
X28782Y16829
X28782Y18168
X34343Y17581
X34343Y17975
X28664Y15038
X28664Y15510
X28664Y15982
X28664Y16455
X3609Y30616
X4245Y30888
X4630Y30674
X5059Y31315
X5395Y31355
X5985Y31158
X6241Y30882
X6772Y30764
X7068Y31158
X6576Y31355
X7757Y31355
X9332Y31355
X9312Y30882
X9604Y29771
X9579Y28724
X9291Y28402
X9216Y27349
X9332Y26237
X9332Y25449
X8328Y25922
X8322Y26567
X7076Y26507
X7166Y26040
X6686Y25872
X6969Y25449
X5801Y25871
X5629Y25175
X5237Y25134
X4843Y25134
X4937Y25816
X4448Y26126
X4131Y25739
X3701Y26136
X4080Y26525
X4804Y26600
X5237Y26552
X4252Y27868
X3623Y27868
X3609Y28787
X3609Y29642
X4251Y29419
X5276Y28835
X6723Y28442
X6772Y29189
X7282Y28756
X8280Y28167
X10237Y27221
X10304Y26289
X9922Y25843
X10513Y25449
X11300Y26276
X11468Y28275
X11062Y28317
X11052Y29104
X10649Y29369
X10726Y30806
X10091Y30397
X9858Y31237
T02
X20739Y15368
X19046Y15486
X17314Y15446
X15424Y15486
X14282Y15486
X13101Y15486
X12589Y15013
T03
X3721Y25312
X3898Y31414
X6182Y25312
X7875Y25312
X8623Y25312
X8643Y31414
X10591Y31414
X11143Y25312
X11320Y31414
X26290Y6234
X23148Y6994
X23148Y6194
X21148Y6594
X6624Y9213
X5442Y10001
X6624Y10788
X6702Y2087
X6302Y4087
X7102Y4087
X3898Y31414
X8643Y31414
X8623Y25311
X7875Y25311
X6182Y25311
X3721Y25311
X11143Y25311
X11320Y31414
X10591Y31414
T04
X1294Y38042
X1294Y36270
X2476Y38042
X2476Y36270
X3657Y38042
X3657Y36270
X4838Y38042
X4838Y36270
X6019Y38042
X6019Y36270
X7200Y38042
X7200Y36270
X8381Y38042
X8381Y36270
X9562Y38042
X9562Y36270
X12712Y38042
X12712Y36270
X13893Y38042
X13893Y36270
X15074Y38042
X15074Y36270
X16255Y38042
X16255Y36270
X17436Y38042
X17436Y36270
X18617Y38042
X18617Y36270
X19798Y38042
X19798Y36270
X20980Y38042
X20980Y36270
X22161Y38042
X22161Y36270
X23342Y38042
X23342Y36270
X24523Y38042
X24523Y36270
X25704Y38042
X25704Y36270
X26885Y38042
X26885Y36270
X2815Y9036
X2815Y10036
X2815Y11036
T05
X29978Y35370
X29978Y33205
X31631Y35370
X31631Y33205
X33285Y35370
X33285Y33205
X34939Y35370
X34939Y33205
T06
X29978Y38244
X34939Y38244
M30
