G04 #@! TF.GenerationSoftware,KiCad,Pcbnew,8.0.9-8.0.9-0~ubuntu24.04.1*
G04 #@! TF.CreationDate,2025-06-29T23:13:03+00:00*
G04 #@! TF.ProjectId,EP91Starlet,45503931-5374-4617-926c-65742e6b6963,rev?*
G04 #@! TF.SameCoordinates,Original*
G04 #@! TF.FileFunction,Soldermask,Top*
G04 #@! TF.FilePolarity,Negative*
%FSLAX46Y46*%
G04 Gerber Fmt 4.6, Leading zero omitted, Abs format (unit mm)*
G04 Created by KiCad (PCBNEW 8.0.9-8.0.9-0~ubuntu24.04.1) date 2025-06-29 23:13:03*
%MOMM*%
%LPD*%
G01*
G04 APERTURE LIST*
%ADD10C,3.000000*%
%ADD11O,2.700000X3.700000*%
%ADD12C,0.600000*%
%ADD13C,1.500000*%
%ADD14O,1.800000X2.000000*%
%ADD15O,3.700000X2.700000*%
G04 APERTURE END LIST*
D10*
G04 #@! TO.C,J1*
X78976000Y98068000D03*
X91576000Y98068000D03*
G36*
G01*
X77626000Y89168001D02*
X77626000Y92367999D01*
G75*
G02*
X77876001Y92618000I250001J0D01*
G01*
X80075999Y92618000D01*
G75*
G02*
X80326000Y92367999I0J-250001D01*
G01*
X80326000Y89168001D01*
G75*
G02*
X80075999Y88918000I-250001J0D01*
G01*
X77876001Y88918000D01*
G75*
G02*
X77626000Y89168001I0J250001D01*
G01*
G37*
D11*
X83176000Y90768000D03*
X87376000Y90768000D03*
X91576000Y90768000D03*
X78976000Y85268000D03*
X83176000Y85268000D03*
X87376000Y85268000D03*
X91576000Y85268000D03*
G04 #@! TD*
D12*
G04 #@! TO.C,M1*
X8395500Y20834000D03*
X7195500Y20834000D03*
X9595500Y20834000D03*
X10795500Y20834000D03*
X4335500Y35259000D03*
X3335500Y35259000D03*
G04 #@! TD*
G04 #@! TO.C,R1*
G36*
G01*
X38745000Y50060000D02*
X37965000Y50060000D01*
G75*
G02*
X37895000Y50130000I0J70000D01*
G01*
X37895000Y50690000D01*
G75*
G02*
X37965000Y50760000I70000J0D01*
G01*
X38745000Y50760000D01*
G75*
G02*
X38815000Y50690000I0J-70000D01*
G01*
X38815000Y50130000D01*
G75*
G02*
X38745000Y50060000I-70000J0D01*
G01*
G37*
G36*
G01*
X38745000Y51660000D02*
X37965000Y51660000D01*
G75*
G02*
X37895000Y51730000I0J70000D01*
G01*
X37895000Y52290000D01*
G75*
G02*
X37965000Y52360000I70000J0D01*
G01*
X38745000Y52360000D01*
G75*
G02*
X38815000Y52290000I0J-70000D01*
G01*
X38815000Y51730000D01*
G75*
G02*
X38745000Y51660000I-70000J0D01*
G01*
G37*
G04 #@! TD*
G04 #@! TO.C,Q2*
G36*
G01*
X61315000Y57300000D02*
X60615000Y57300000D01*
G75*
G02*
X60365000Y57550000I0J250000D01*
G01*
X60365000Y59250000D01*
G75*
G02*
X60615000Y59500000I250000J0D01*
G01*
X61315000Y59500000D01*
G75*
G02*
X61565000Y59250000I0J-250000D01*
G01*
X61565000Y57550000D01*
G75*
G02*
X61315000Y57300000I-250000J0D01*
G01*
G37*
G36*
G01*
X65895003Y61500000D02*
X60594997Y61500000D01*
G75*
G02*
X60345000Y61749997I0J249997D01*
G01*
X60345000Y67650003D01*
G75*
G02*
X60594997Y67900000I249997J0D01*
G01*
X65895003Y67900000D01*
G75*
G02*
X66145000Y67650003I0J-249997D01*
G01*
X66145000Y61749997D01*
G75*
G02*
X65895003Y61500000I-249997J0D01*
G01*
G37*
G36*
G01*
X65875000Y57300000D02*
X65175000Y57300000D01*
G75*
G02*
X64925000Y57550000I0J250000D01*
G01*
X64925000Y59250000D01*
G75*
G02*
X65175000Y59500000I250000J0D01*
G01*
X65875000Y59500000D01*
G75*
G02*
X66125000Y59250000I0J-250000D01*
G01*
X66125000Y57550000D01*
G75*
G02*
X65875000Y57300000I-250000J0D01*
G01*
G37*
G04 #@! TD*
G04 #@! TO.C,Q1*
G36*
G01*
X51315000Y57300000D02*
X50615000Y57300000D01*
G75*
G02*
X50365000Y57550000I0J250000D01*
G01*
X50365000Y59250000D01*
G75*
G02*
X50615000Y59500000I250000J0D01*
G01*
X51315000Y59500000D01*
G75*
G02*
X51565000Y59250000I0J-250000D01*
G01*
X51565000Y57550000D01*
G75*
G02*
X51315000Y57300000I-250000J0D01*
G01*
G37*
G36*
G01*
X55895003Y61500000D02*
X50594997Y61500000D01*
G75*
G02*
X50345000Y61749997I0J249997D01*
G01*
X50345000Y67650003D01*
G75*
G02*
X50594997Y67900000I249997J0D01*
G01*
X55895003Y67900000D01*
G75*
G02*
X56145000Y67650003I0J-249997D01*
G01*
X56145000Y61749997D01*
G75*
G02*
X55895003Y61500000I-249997J0D01*
G01*
G37*
G36*
G01*
X55875000Y57300000D02*
X55175000Y57300000D01*
G75*
G02*
X54925000Y57550000I0J250000D01*
G01*
X54925000Y59250000D01*
G75*
G02*
X55175000Y59500000I250000J0D01*
G01*
X55875000Y59500000D01*
G75*
G02*
X56125000Y59250000I0J-250000D01*
G01*
X56125000Y57550000D01*
G75*
G02*
X55875000Y57300000I-250000J0D01*
G01*
G37*
G04 #@! TD*
D13*
G04 #@! TO.C,M6*
X42080000Y70698003D03*
X35680003Y70698003D03*
X33780000Y70698003D03*
X29480000Y70698003D03*
D12*
X27080003Y70248004D03*
X26080002Y70248004D03*
D13*
X23230000Y70698003D03*
X42530002Y86198000D03*
X40680003Y86198000D03*
X35730000Y86198000D03*
X23680002Y86198000D03*
G04 #@! TD*
G04 #@! TO.C,R2*
G36*
G01*
X46745000Y50060000D02*
X45965000Y50060000D01*
G75*
G02*
X45895000Y50130000I0J70000D01*
G01*
X45895000Y50690000D01*
G75*
G02*
X45965000Y50760000I70000J0D01*
G01*
X46745000Y50760000D01*
G75*
G02*
X46815000Y50690000I0J-70000D01*
G01*
X46815000Y50130000D01*
G75*
G02*
X46745000Y50060000I-70000J0D01*
G01*
G37*
G36*
G01*
X46745000Y51660000D02*
X45965000Y51660000D01*
G75*
G02*
X45895000Y51730000I0J70000D01*
G01*
X45895000Y52290000D01*
G75*
G02*
X45965000Y52360000I70000J0D01*
G01*
X46745000Y52360000D01*
G75*
G02*
X46815000Y52290000I0J-70000D01*
G01*
X46815000Y51730000D01*
G75*
G02*
X46745000Y51660000I-70000J0D01*
G01*
G37*
G04 #@! TD*
D12*
G04 #@! TO.C,M5*
X8395500Y3054000D03*
X7195500Y3054000D03*
X9595500Y3054000D03*
X10795500Y3054000D03*
X4335500Y17479000D03*
X3335500Y17479000D03*
G04 #@! TD*
D14*
G04 #@! TO.C,U1*
X8056000Y93650000D03*
X11056000Y93650000D03*
X14056000Y93650000D03*
X17056000Y93650000D03*
X20056000Y93650000D03*
X23056000Y93650000D03*
X26056000Y93650000D03*
X29056000Y93650000D03*
X37056000Y93650000D03*
X40056000Y93650000D03*
X43056000Y93650000D03*
X46056000Y93650000D03*
X49056000Y93650000D03*
X52056000Y93650000D03*
X55056000Y93650000D03*
X58056000Y93650000D03*
X61056000Y93650000D03*
X64056000Y93650000D03*
X67056000Y93650000D03*
X70056000Y93650000D03*
X73056000Y93650000D03*
X73056000Y98150000D03*
X70056000Y98150000D03*
X67056000Y98150000D03*
X64056000Y98150000D03*
X61056000Y98150000D03*
X58056000Y98150000D03*
X55056000Y98150000D03*
X52056000Y98150000D03*
X49056000Y98150000D03*
X46056000Y98150000D03*
X43056000Y98150000D03*
X40056000Y98150000D03*
X37056000Y98150000D03*
X29056000Y98150000D03*
X26056000Y98150000D03*
X23056000Y98150000D03*
X20056000Y98150000D03*
X17056000Y98150000D03*
X14056000Y98150000D03*
X11056000Y98150000D03*
X8056000Y98150000D03*
G04 #@! TD*
D10*
G04 #@! TO.C,J2*
X2352000Y77512000D03*
X2352000Y85912000D03*
G36*
G01*
X11251999Y76162000D02*
X8052001Y76162000D01*
G75*
G02*
X7802000Y76412001I0J250001D01*
G01*
X7802000Y78611999D01*
G75*
G02*
X8052001Y78862000I250001J0D01*
G01*
X11251999Y78862000D01*
G75*
G02*
X11502000Y78611999I0J-250001D01*
G01*
X11502000Y76412001D01*
G75*
G02*
X11251999Y76162000I-250001J0D01*
G01*
G37*
D15*
X9652000Y81712000D03*
X9652000Y85912000D03*
X15152000Y77512000D03*
X15152000Y81712000D03*
X15152000Y85912000D03*
G04 #@! TD*
G04 #@! TO.C,U3*
G36*
G01*
X43965000Y53067000D02*
X43665000Y53067000D01*
G75*
G02*
X43515000Y53217000I0J150000D01*
G01*
X43515000Y54867000D01*
G75*
G02*
X43665000Y55017000I150000J0D01*
G01*
X43965000Y55017000D01*
G75*
G02*
X44115000Y54867000I0J-150000D01*
G01*
X44115000Y53217000D01*
G75*
G02*
X43965000Y53067000I-150000J0D01*
G01*
G37*
G36*
G01*
X45235000Y53067000D02*
X44935000Y53067000D01*
G75*
G02*
X44785000Y53217000I0J150000D01*
G01*
X44785000Y54867000D01*
G75*
G02*
X44935000Y55017000I150000J0D01*
G01*
X45235000Y55017000D01*
G75*
G02*
X45385000Y54867000I0J-150000D01*
G01*
X45385000Y53217000D01*
G75*
G02*
X45235000Y53067000I-150000J0D01*
G01*
G37*
G36*
G01*
X46505000Y53067000D02*
X46205000Y53067000D01*
G75*
G02*
X46055000Y53217000I0J150000D01*
G01*
X46055000Y54867000D01*
G75*
G02*
X46205000Y55017000I150000J0D01*
G01*
X46505000Y55017000D01*
G75*
G02*
X46655000Y54867000I0J-150000D01*
G01*
X46655000Y53217000D01*
G75*
G02*
X46505000Y53067000I-150000J0D01*
G01*
G37*
G36*
G01*
X47775000Y53067000D02*
X47475000Y53067000D01*
G75*
G02*
X47325000Y53217000I0J150000D01*
G01*
X47325000Y54867000D01*
G75*
G02*
X47475000Y55017000I150000J0D01*
G01*
X47775000Y55017000D01*
G75*
G02*
X47925000Y54867000I0J-150000D01*
G01*
X47925000Y53217000D01*
G75*
G02*
X47775000Y53067000I-150000J0D01*
G01*
G37*
G36*
G01*
X47775000Y58017000D02*
X47475000Y58017000D01*
G75*
G02*
X47325000Y58167000I0J150000D01*
G01*
X47325000Y59817000D01*
G75*
G02*
X47475000Y59967000I150000J0D01*
G01*
X47775000Y59967000D01*
G75*
G02*
X47925000Y59817000I0J-150000D01*
G01*
X47925000Y58167000D01*
G75*
G02*
X47775000Y58017000I-150000J0D01*
G01*
G37*
G36*
G01*
X46505000Y58017000D02*
X46205000Y58017000D01*
G75*
G02*
X46055000Y58167000I0J150000D01*
G01*
X46055000Y59817000D01*
G75*
G02*
X46205000Y59967000I150000J0D01*
G01*
X46505000Y59967000D01*
G75*
G02*
X46655000Y59817000I0J-150000D01*
G01*
X46655000Y58167000D01*
G75*
G02*
X46505000Y58017000I-150000J0D01*
G01*
G37*
G36*
G01*
X45235000Y58017000D02*
X44935000Y58017000D01*
G75*
G02*
X44785000Y58167000I0J150000D01*
G01*
X44785000Y59817000D01*
G75*
G02*
X44935000Y59967000I150000J0D01*
G01*
X45235000Y59967000D01*
G75*
G02*
X45385000Y59817000I0J-150000D01*
G01*
X45385000Y58167000D01*
G75*
G02*
X45235000Y58017000I-150000J0D01*
G01*
G37*
G36*
G01*
X43965000Y58017000D02*
X43665000Y58017000D01*
G75*
G02*
X43515000Y58167000I0J150000D01*
G01*
X43515000Y59817000D01*
G75*
G02*
X43665000Y59967000I150000J0D01*
G01*
X43965000Y59967000D01*
G75*
G02*
X44115000Y59817000I0J-150000D01*
G01*
X44115000Y58167000D01*
G75*
G02*
X43965000Y58017000I-150000J0D01*
G01*
G37*
G04 #@! TD*
D12*
G04 #@! TO.C,M3*
X90202000Y2880000D03*
X90202000Y1930000D03*
X90202000Y980002D03*
X81502000Y1980000D03*
X81502000Y2880000D03*
G04 #@! TD*
G04 #@! TO.C,Q3*
G36*
G01*
X71315000Y57300000D02*
X70615000Y57300000D01*
G75*
G02*
X70365000Y57550000I0J250000D01*
G01*
X70365000Y59250000D01*
G75*
G02*
X70615000Y59500000I250000J0D01*
G01*
X71315000Y59500000D01*
G75*
G02*
X71565000Y59250000I0J-250000D01*
G01*
X71565000Y57550000D01*
G75*
G02*
X71315000Y57300000I-250000J0D01*
G01*
G37*
G36*
G01*
X75895003Y61500000D02*
X70594997Y61500000D01*
G75*
G02*
X70345000Y61749997I0J249997D01*
G01*
X70345000Y67650003D01*
G75*
G02*
X70594997Y67900000I249997J0D01*
G01*
X75895003Y67900000D01*
G75*
G02*
X76145000Y67650003I0J-249997D01*
G01*
X76145000Y61749997D01*
G75*
G02*
X75895003Y61500000I-249997J0D01*
G01*
G37*
G36*
G01*
X75875000Y57300000D02*
X75175000Y57300000D01*
G75*
G02*
X74925000Y57550000I0J250000D01*
G01*
X74925000Y59250000D01*
G75*
G02*
X75175000Y59500000I250000J0D01*
G01*
X75875000Y59500000D01*
G75*
G02*
X76125000Y59250000I0J-250000D01*
G01*
X76125000Y57550000D01*
G75*
G02*
X75875000Y57300000I-250000J0D01*
G01*
G37*
G04 #@! TD*
G04 #@! TO.C,U2*
G36*
G01*
X35965000Y53067000D02*
X35665000Y53067000D01*
G75*
G02*
X35515000Y53217000I0J150000D01*
G01*
X35515000Y54867000D01*
G75*
G02*
X35665000Y55017000I150000J0D01*
G01*
X35965000Y55017000D01*
G75*
G02*
X36115000Y54867000I0J-150000D01*
G01*
X36115000Y53217000D01*
G75*
G02*
X35965000Y53067000I-150000J0D01*
G01*
G37*
G36*
G01*
X37235000Y53067000D02*
X36935000Y53067000D01*
G75*
G02*
X36785000Y53217000I0J150000D01*
G01*
X36785000Y54867000D01*
G75*
G02*
X36935000Y55017000I150000J0D01*
G01*
X37235000Y55017000D01*
G75*
G02*
X37385000Y54867000I0J-150000D01*
G01*
X37385000Y53217000D01*
G75*
G02*
X37235000Y53067000I-150000J0D01*
G01*
G37*
G36*
G01*
X38505000Y53067000D02*
X38205000Y53067000D01*
G75*
G02*
X38055000Y53217000I0J150000D01*
G01*
X38055000Y54867000D01*
G75*
G02*
X38205000Y55017000I150000J0D01*
G01*
X38505000Y55017000D01*
G75*
G02*
X38655000Y54867000I0J-150000D01*
G01*
X38655000Y53217000D01*
G75*
G02*
X38505000Y53067000I-150000J0D01*
G01*
G37*
G36*
G01*
X39775000Y53067000D02*
X39475000Y53067000D01*
G75*
G02*
X39325000Y53217000I0J150000D01*
G01*
X39325000Y54867000D01*
G75*
G02*
X39475000Y55017000I150000J0D01*
G01*
X39775000Y55017000D01*
G75*
G02*
X39925000Y54867000I0J-150000D01*
G01*
X39925000Y53217000D01*
G75*
G02*
X39775000Y53067000I-150000J0D01*
G01*
G37*
G36*
G01*
X39775000Y58017000D02*
X39475000Y58017000D01*
G75*
G02*
X39325000Y58167000I0J150000D01*
G01*
X39325000Y59817000D01*
G75*
G02*
X39475000Y59967000I150000J0D01*
G01*
X39775000Y59967000D01*
G75*
G02*
X39925000Y59817000I0J-150000D01*
G01*
X39925000Y58167000D01*
G75*
G02*
X39775000Y58017000I-150000J0D01*
G01*
G37*
G36*
G01*
X38505000Y58017000D02*
X38205000Y58017000D01*
G75*
G02*
X38055000Y58167000I0J150000D01*
G01*
X38055000Y59817000D01*
G75*
G02*
X38205000Y59967000I150000J0D01*
G01*
X38505000Y59967000D01*
G75*
G02*
X38655000Y59817000I0J-150000D01*
G01*
X38655000Y58167000D01*
G75*
G02*
X38505000Y58017000I-150000J0D01*
G01*
G37*
G36*
G01*
X37235000Y58017000D02*
X36935000Y58017000D01*
G75*
G02*
X36785000Y58167000I0J150000D01*
G01*
X36785000Y59817000D01*
G75*
G02*
X36935000Y59967000I150000J0D01*
G01*
X37235000Y59967000D01*
G75*
G02*
X37385000Y59817000I0J-150000D01*
G01*
X37385000Y58167000D01*
G75*
G02*
X37235000Y58017000I-150000J0D01*
G01*
G37*
G36*
G01*
X35965000Y58017000D02*
X35665000Y58017000D01*
G75*
G02*
X35515000Y58167000I0J150000D01*
G01*
X35515000Y59817000D01*
G75*
G02*
X35665000Y59967000I150000J0D01*
G01*
X35965000Y59967000D01*
G75*
G02*
X36115000Y59817000I0J-150000D01*
G01*
X36115000Y58167000D01*
G75*
G02*
X35965000Y58017000I-150000J0D01*
G01*
G37*
G04 #@! TD*
G04 #@! TO.C,R3*
G36*
G01*
X36205000Y50060000D02*
X35425000Y50060000D01*
G75*
G02*
X35355000Y50130000I0J70000D01*
G01*
X35355000Y50690000D01*
G75*
G02*
X35425000Y50760000I70000J0D01*
G01*
X36205000Y50760000D01*
G75*
G02*
X36275000Y50690000I0J-70000D01*
G01*
X36275000Y50130000D01*
G75*
G02*
X36205000Y50060000I-70000J0D01*
G01*
G37*
G36*
G01*
X36205000Y51660000D02*
X35425000Y51660000D01*
G75*
G02*
X35355000Y51730000I0J70000D01*
G01*
X35355000Y52290000D01*
G75*
G02*
X35425000Y52360000I70000J0D01*
G01*
X36205000Y52360000D01*
G75*
G02*
X36275000Y52290000I0J-70000D01*
G01*
X36275000Y51730000D01*
G75*
G02*
X36205000Y51660000I-70000J0D01*
G01*
G37*
G04 #@! TD*
G04 #@! TO.C,R4*
G36*
G01*
X44205000Y50060000D02*
X43425000Y50060000D01*
G75*
G02*
X43355000Y50130000I0J70000D01*
G01*
X43355000Y50690000D01*
G75*
G02*
X43425000Y50760000I70000J0D01*
G01*
X44205000Y50760000D01*
G75*
G02*
X44275000Y50690000I0J-70000D01*
G01*
X44275000Y50130000D01*
G75*
G02*
X44205000Y50060000I-70000J0D01*
G01*
G37*
G36*
G01*
X44205000Y51660000D02*
X43425000Y51660000D01*
G75*
G02*
X43355000Y51730000I0J70000D01*
G01*
X43355000Y52290000D01*
G75*
G02*
X43425000Y52360000I70000J0D01*
G01*
X44205000Y52360000D01*
G75*
G02*
X44275000Y52290000I0J-70000D01*
G01*
X44275000Y51730000D01*
G75*
G02*
X44205000Y51660000I-70000J0D01*
G01*
G37*
G04 #@! TD*
G04 #@! TO.C,Q4*
G36*
G01*
X81315000Y57300000D02*
X80615000Y57300000D01*
G75*
G02*
X80365000Y57550000I0J250000D01*
G01*
X80365000Y59250000D01*
G75*
G02*
X80615000Y59500000I250000J0D01*
G01*
X81315000Y59500000D01*
G75*
G02*
X81565000Y59250000I0J-250000D01*
G01*
X81565000Y57550000D01*
G75*
G02*
X81315000Y57300000I-250000J0D01*
G01*
G37*
G36*
G01*
X85895003Y61500000D02*
X80594997Y61500000D01*
G75*
G02*
X80345000Y61749997I0J249997D01*
G01*
X80345000Y67650003D01*
G75*
G02*
X80594997Y67900000I249997J0D01*
G01*
X85895003Y67900000D01*
G75*
G02*
X86145000Y67650003I0J-249997D01*
G01*
X86145000Y61749997D01*
G75*
G02*
X85895003Y61500000I-249997J0D01*
G01*
G37*
G36*
G01*
X85875000Y57300000D02*
X85175000Y57300000D01*
G75*
G02*
X84925000Y57550000I0J250000D01*
G01*
X84925000Y59250000D01*
G75*
G02*
X85175000Y59500000I250000J0D01*
G01*
X85875000Y59500000D01*
G75*
G02*
X86125000Y59250000I0J-250000D01*
G01*
X86125000Y57550000D01*
G75*
G02*
X85875000Y57300000I-250000J0D01*
G01*
G37*
G04 #@! TD*
M02*
