G04 #@! TF.GenerationSoftware,KiCad,Pcbnew,8.0.9-8.0.9-0~ubuntu24.04.1*
G04 #@! TF.CreationDate,2025-06-27T12:52:10+00:00*
G04 #@! TF.ProjectId,EP91Starlet,45503931-5374-4617-926c-65742e6b6963,rev?*
G04 #@! TF.SameCoordinates,Original*
G04 #@! TF.FileFunction,Legend,Bot*
G04 #@! TF.FilePolarity,Positive*
%FSLAX46Y46*%
G04 Gerber Fmt 4.6, Leading zero omitted, Abs format (unit mm)*
G04 Created by KiCad (PCBNEW 8.0.9-8.0.9-0~ubuntu24.04.1) date 2025-06-27 12:52:10*
%MOMM*%
%LPD*%
G01*
G04 APERTURE LIST*
%ADD10C,0.150000*%
%ADD11C,0.170000*%
%ADD12C,0.200000*%
%ADD13C,0.120000*%
%ADD14C,0.203200*%
G04 APERTURE END LIST*
D10*
X65943509Y54795834D02*
X65943509Y55129167D01*
X66467319Y55129167D02*
X65467319Y55129167D01*
X65467319Y55129167D02*
X65467319Y54652977D01*
X65562557Y54319643D02*
X65514938Y54272024D01*
X65514938Y54272024D02*
X65467319Y54176786D01*
X65467319Y54176786D02*
X65467319Y53938691D01*
X65467319Y53938691D02*
X65514938Y53843453D01*
X65514938Y53843453D02*
X65562557Y53795834D01*
X65562557Y53795834D02*
X65657795Y53748215D01*
X65657795Y53748215D02*
X65753033Y53748215D01*
X65753033Y53748215D02*
X65895890Y53795834D01*
X65895890Y53795834D02*
X66467319Y54367262D01*
X66467319Y54367262D02*
X66467319Y53748215D01*
D11*
X70264808Y56201349D02*
X69874332Y56474682D01*
X70264808Y56669920D02*
X69444808Y56669920D01*
X69444808Y56669920D02*
X69444808Y56357539D01*
X69444808Y56357539D02*
X69483856Y56279444D01*
X69483856Y56279444D02*
X69522903Y56240397D01*
X69522903Y56240397D02*
X69600999Y56201349D01*
X69600999Y56201349D02*
X69718141Y56201349D01*
X69718141Y56201349D02*
X69796237Y56240397D01*
X69796237Y56240397D02*
X69835284Y56279444D01*
X69835284Y56279444D02*
X69874332Y56357539D01*
X69874332Y56357539D02*
X69874332Y56669920D01*
X70264808Y55420397D02*
X70264808Y55888968D01*
X70264808Y55654682D02*
X69444808Y55654682D01*
X69444808Y55654682D02*
X69561951Y55732778D01*
X69561951Y55732778D02*
X69640046Y55810873D01*
X69640046Y55810873D02*
X69679094Y55888968D01*
X69444808Y55147064D02*
X69444808Y54639445D01*
X69444808Y54639445D02*
X69757189Y54912778D01*
X69757189Y54912778D02*
X69757189Y54795635D01*
X69757189Y54795635D02*
X69796237Y54717540D01*
X69796237Y54717540D02*
X69835284Y54678492D01*
X69835284Y54678492D02*
X69913380Y54639445D01*
X69913380Y54639445D02*
X70108618Y54639445D01*
X70108618Y54639445D02*
X70186713Y54678492D01*
X70186713Y54678492D02*
X70225761Y54717540D01*
X70225761Y54717540D02*
X70264808Y54795635D01*
X70264808Y54795635D02*
X70264808Y55029921D01*
X70264808Y55029921D02*
X70225761Y55108016D01*
X70225761Y55108016D02*
X70186713Y55147064D01*
X79296808Y56201349D02*
X78906332Y56474682D01*
X79296808Y56669920D02*
X78476808Y56669920D01*
X78476808Y56669920D02*
X78476808Y56357539D01*
X78476808Y56357539D02*
X78515856Y56279444D01*
X78515856Y56279444D02*
X78554903Y56240397D01*
X78554903Y56240397D02*
X78632999Y56201349D01*
X78632999Y56201349D02*
X78750141Y56201349D01*
X78750141Y56201349D02*
X78828237Y56240397D01*
X78828237Y56240397D02*
X78867284Y56279444D01*
X78867284Y56279444D02*
X78906332Y56357539D01*
X78906332Y56357539D02*
X78906332Y56669920D01*
X79296808Y55420397D02*
X79296808Y55888968D01*
X79296808Y55654682D02*
X78476808Y55654682D01*
X78476808Y55654682D02*
X78593951Y55732778D01*
X78593951Y55732778D02*
X78672046Y55810873D01*
X78672046Y55810873D02*
X78711094Y55888968D01*
X78750141Y54717540D02*
X79296808Y54717540D01*
X78437761Y54912778D02*
X79023475Y55108016D01*
X79023475Y55108016D02*
X79023475Y54600397D01*
X51102808Y56201349D02*
X50712332Y56474682D01*
X51102808Y56669920D02*
X50282808Y56669920D01*
X50282808Y56669920D02*
X50282808Y56357539D01*
X50282808Y56357539D02*
X50321856Y56279444D01*
X50321856Y56279444D02*
X50360903Y56240397D01*
X50360903Y56240397D02*
X50438999Y56201349D01*
X50438999Y56201349D02*
X50556141Y56201349D01*
X50556141Y56201349D02*
X50634237Y56240397D01*
X50634237Y56240397D02*
X50673284Y56279444D01*
X50673284Y56279444D02*
X50712332Y56357539D01*
X50712332Y56357539D02*
X50712332Y56669920D01*
X51102808Y55810873D02*
X51102808Y55654682D01*
X51102808Y55654682D02*
X51063761Y55576587D01*
X51063761Y55576587D02*
X51024713Y55537539D01*
X51024713Y55537539D02*
X50907570Y55459444D01*
X50907570Y55459444D02*
X50751380Y55420397D01*
X50751380Y55420397D02*
X50438999Y55420397D01*
X50438999Y55420397D02*
X50360903Y55459444D01*
X50360903Y55459444D02*
X50321856Y55498492D01*
X50321856Y55498492D02*
X50282808Y55576587D01*
X50282808Y55576587D02*
X50282808Y55732778D01*
X50282808Y55732778D02*
X50321856Y55810873D01*
X50321856Y55810873D02*
X50360903Y55849920D01*
X50360903Y55849920D02*
X50438999Y55888968D01*
X50438999Y55888968D02*
X50634237Y55888968D01*
X50634237Y55888968D02*
X50712332Y55849920D01*
X50712332Y55849920D02*
X50751380Y55810873D01*
X50751380Y55810873D02*
X50790427Y55732778D01*
X50790427Y55732778D02*
X50790427Y55576587D01*
X50790427Y55576587D02*
X50751380Y55498492D01*
X50751380Y55498492D02*
X50712332Y55459444D01*
X50712332Y55459444D02*
X50634237Y55420397D01*
D10*
X75781009Y54770334D02*
X75781009Y55103667D01*
X76304819Y55103667D02*
X75304819Y55103667D01*
X75304819Y55103667D02*
X75304819Y54627477D01*
X75304819Y54341762D02*
X75304819Y53722715D01*
X75304819Y53722715D02*
X75685771Y54056048D01*
X75685771Y54056048D02*
X75685771Y53913191D01*
X75685771Y53913191D02*
X75733390Y53817953D01*
X75733390Y53817953D02*
X75781009Y53770334D01*
X75781009Y53770334D02*
X75876247Y53722715D01*
X75876247Y53722715D02*
X76114342Y53722715D01*
X76114342Y53722715D02*
X76209580Y53770334D01*
X76209580Y53770334D02*
X76257200Y53817953D01*
X76257200Y53817953D02*
X76304819Y53913191D01*
X76304819Y53913191D02*
X76304819Y54198905D01*
X76304819Y54198905D02*
X76257200Y54294143D01*
X76257200Y54294143D02*
X76209580Y54341762D01*
D11*
X78995014Y20638093D02*
X79385490Y20364760D01*
X78995014Y20169522D02*
X79815014Y20169522D01*
X79815014Y20169522D02*
X79815014Y20481903D01*
X79815014Y20481903D02*
X79775966Y20559998D01*
X79775966Y20559998D02*
X79736919Y20599045D01*
X79736919Y20599045D02*
X79658823Y20638093D01*
X79658823Y20638093D02*
X79541681Y20638093D01*
X79541681Y20638093D02*
X79463585Y20599045D01*
X79463585Y20599045D02*
X79424538Y20559998D01*
X79424538Y20559998D02*
X79385490Y20481903D01*
X79385490Y20481903D02*
X79385490Y20169522D01*
X79815014Y21379998D02*
X79815014Y20989522D01*
X79815014Y20989522D02*
X79424538Y20950474D01*
X79424538Y20950474D02*
X79463585Y20989522D01*
X79463585Y20989522D02*
X79502633Y21067617D01*
X79502633Y21067617D02*
X79502633Y21262855D01*
X79502633Y21262855D02*
X79463585Y21340950D01*
X79463585Y21340950D02*
X79424538Y21379998D01*
X79424538Y21379998D02*
X79346442Y21419045D01*
X79346442Y21419045D02*
X79151204Y21419045D01*
X79151204Y21419045D02*
X79073109Y21379998D01*
X79073109Y21379998D02*
X79034062Y21340950D01*
X79034062Y21340950D02*
X78995014Y21262855D01*
X78995014Y21262855D02*
X78995014Y21067617D01*
X78995014Y21067617D02*
X79034062Y20989522D01*
X79034062Y20989522D02*
X79073109Y20950474D01*
X81535014Y20638093D02*
X81925490Y20364760D01*
X81535014Y20169522D02*
X82355014Y20169522D01*
X82355014Y20169522D02*
X82355014Y20481903D01*
X82355014Y20481903D02*
X82315966Y20559998D01*
X82315966Y20559998D02*
X82276919Y20599045D01*
X82276919Y20599045D02*
X82198823Y20638093D01*
X82198823Y20638093D02*
X82081681Y20638093D01*
X82081681Y20638093D02*
X82003585Y20599045D01*
X82003585Y20599045D02*
X81964538Y20559998D01*
X81964538Y20559998D02*
X81925490Y20481903D01*
X81925490Y20481903D02*
X81925490Y20169522D01*
X82355014Y21340950D02*
X82355014Y21184760D01*
X82355014Y21184760D02*
X82315966Y21106664D01*
X82315966Y21106664D02*
X82276919Y21067617D01*
X82276919Y21067617D02*
X82159776Y20989522D01*
X82159776Y20989522D02*
X82003585Y20950474D01*
X82003585Y20950474D02*
X81691204Y20950474D01*
X81691204Y20950474D02*
X81613109Y20989522D01*
X81613109Y20989522D02*
X81574062Y21028569D01*
X81574062Y21028569D02*
X81535014Y21106664D01*
X81535014Y21106664D02*
X81535014Y21262855D01*
X81535014Y21262855D02*
X81574062Y21340950D01*
X81574062Y21340950D02*
X81613109Y21379998D01*
X81613109Y21379998D02*
X81691204Y21419045D01*
X81691204Y21419045D02*
X81886442Y21419045D01*
X81886442Y21419045D02*
X81964538Y21379998D01*
X81964538Y21379998D02*
X82003585Y21340950D01*
X82003585Y21340950D02*
X82042633Y21262855D01*
X82042633Y21262855D02*
X82042633Y21106664D01*
X82042633Y21106664D02*
X82003585Y21028569D01*
X82003585Y21028569D02*
X81964538Y20989522D01*
X81964538Y20989522D02*
X81886442Y20950474D01*
D10*
X55461009Y54770334D02*
X55461009Y55103667D01*
X55984819Y55103667D02*
X54984819Y55103667D01*
X54984819Y55103667D02*
X54984819Y54627477D01*
X55984819Y53722715D02*
X55984819Y54294143D01*
X55984819Y54008429D02*
X54984819Y54008429D01*
X54984819Y54008429D02*
X55127676Y54103667D01*
X55127676Y54103667D02*
X55222914Y54198905D01*
X55222914Y54198905D02*
X55270533Y54294143D01*
X76319819Y61120358D02*
X75843628Y61453691D01*
X76319819Y61691786D02*
X75319819Y61691786D01*
X75319819Y61691786D02*
X75319819Y61310834D01*
X75319819Y61310834D02*
X75367438Y61215596D01*
X75367438Y61215596D02*
X75415057Y61167977D01*
X75415057Y61167977D02*
X75510295Y61120358D01*
X75510295Y61120358D02*
X75653152Y61120358D01*
X75653152Y61120358D02*
X75748390Y61167977D01*
X75748390Y61167977D02*
X75796009Y61215596D01*
X75796009Y61215596D02*
X75843628Y61310834D01*
X75843628Y61310834D02*
X75843628Y61691786D01*
X76319819Y60167977D02*
X76319819Y60739405D01*
X76319819Y60453691D02*
X75319819Y60453691D01*
X75319819Y60453691D02*
X75462676Y60548929D01*
X75462676Y60548929D02*
X75557914Y60644167D01*
X75557914Y60644167D02*
X75605533Y60739405D01*
X75319819Y59263215D02*
X75319819Y59739405D01*
X75319819Y59739405D02*
X75796009Y59787024D01*
X75796009Y59787024D02*
X75748390Y59739405D01*
X75748390Y59739405D02*
X75700771Y59644167D01*
X75700771Y59644167D02*
X75700771Y59406072D01*
X75700771Y59406072D02*
X75748390Y59310834D01*
X75748390Y59310834D02*
X75796009Y59263215D01*
X75796009Y59263215D02*
X75891247Y59215596D01*
X75891247Y59215596D02*
X76129342Y59215596D01*
X76129342Y59215596D02*
X76224580Y59263215D01*
X76224580Y59263215D02*
X76272200Y59310834D01*
X76272200Y59310834D02*
X76319819Y59406072D01*
X76319819Y59406072D02*
X76319819Y59644167D01*
X76319819Y59644167D02*
X76272200Y59739405D01*
X76272200Y59739405D02*
X76224580Y59787024D01*
D11*
X89535014Y20638093D02*
X89925490Y20364760D01*
X89535014Y20169522D02*
X90355014Y20169522D01*
X90355014Y20169522D02*
X90355014Y20481903D01*
X90355014Y20481903D02*
X90315966Y20559998D01*
X90315966Y20559998D02*
X90276919Y20599045D01*
X90276919Y20599045D02*
X90198823Y20638093D01*
X90198823Y20638093D02*
X90081681Y20638093D01*
X90081681Y20638093D02*
X90003585Y20599045D01*
X90003585Y20599045D02*
X89964538Y20559998D01*
X89964538Y20559998D02*
X89925490Y20481903D01*
X89925490Y20481903D02*
X89925490Y20169522D01*
X90003585Y21106664D02*
X90042633Y21028569D01*
X90042633Y21028569D02*
X90081681Y20989522D01*
X90081681Y20989522D02*
X90159776Y20950474D01*
X90159776Y20950474D02*
X90198823Y20950474D01*
X90198823Y20950474D02*
X90276919Y20989522D01*
X90276919Y20989522D02*
X90315966Y21028569D01*
X90315966Y21028569D02*
X90355014Y21106664D01*
X90355014Y21106664D02*
X90355014Y21262855D01*
X90355014Y21262855D02*
X90315966Y21340950D01*
X90315966Y21340950D02*
X90276919Y21379998D01*
X90276919Y21379998D02*
X90198823Y21419045D01*
X90198823Y21419045D02*
X90159776Y21419045D01*
X90159776Y21419045D02*
X90081681Y21379998D01*
X90081681Y21379998D02*
X90042633Y21340950D01*
X90042633Y21340950D02*
X90003585Y21262855D01*
X90003585Y21262855D02*
X90003585Y21106664D01*
X90003585Y21106664D02*
X89964538Y21028569D01*
X89964538Y21028569D02*
X89925490Y20989522D01*
X89925490Y20989522D02*
X89847395Y20950474D01*
X89847395Y20950474D02*
X89691204Y20950474D01*
X89691204Y20950474D02*
X89613109Y20989522D01*
X89613109Y20989522D02*
X89574062Y21028569D01*
X89574062Y21028569D02*
X89535014Y21106664D01*
X89535014Y21106664D02*
X89535014Y21262855D01*
X89535014Y21262855D02*
X89574062Y21340950D01*
X89574062Y21340950D02*
X89613109Y21379998D01*
X89613109Y21379998D02*
X89691204Y21419045D01*
X89691204Y21419045D02*
X89847395Y21419045D01*
X89847395Y21419045D02*
X89925490Y21379998D01*
X89925490Y21379998D02*
X89964538Y21340950D01*
X89964538Y21340950D02*
X90003585Y21262855D01*
D10*
X66319819Y61120358D02*
X65843628Y61453691D01*
X66319819Y61691786D02*
X65319819Y61691786D01*
X65319819Y61691786D02*
X65319819Y61310834D01*
X65319819Y61310834D02*
X65367438Y61215596D01*
X65367438Y61215596D02*
X65415057Y61167977D01*
X65415057Y61167977D02*
X65510295Y61120358D01*
X65510295Y61120358D02*
X65653152Y61120358D01*
X65653152Y61120358D02*
X65748390Y61167977D01*
X65748390Y61167977D02*
X65796009Y61215596D01*
X65796009Y61215596D02*
X65843628Y61310834D01*
X65843628Y61310834D02*
X65843628Y61691786D01*
X66319819Y60167977D02*
X66319819Y60739405D01*
X66319819Y60453691D02*
X65319819Y60453691D01*
X65319819Y60453691D02*
X65462676Y60548929D01*
X65462676Y60548929D02*
X65557914Y60644167D01*
X65557914Y60644167D02*
X65605533Y60739405D01*
X65415057Y59787024D02*
X65367438Y59739405D01*
X65367438Y59739405D02*
X65319819Y59644167D01*
X65319819Y59644167D02*
X65319819Y59406072D01*
X65319819Y59406072D02*
X65367438Y59310834D01*
X65367438Y59310834D02*
X65415057Y59263215D01*
X65415057Y59263215D02*
X65510295Y59215596D01*
X65510295Y59215596D02*
X65605533Y59215596D01*
X65605533Y59215596D02*
X65748390Y59263215D01*
X65748390Y59263215D02*
X66319819Y59834643D01*
X66319819Y59834643D02*
X66319819Y59215596D01*
X86319819Y61120358D02*
X85843628Y61453691D01*
X86319819Y61691786D02*
X85319819Y61691786D01*
X85319819Y61691786D02*
X85319819Y61310834D01*
X85319819Y61310834D02*
X85367438Y61215596D01*
X85367438Y61215596D02*
X85415057Y61167977D01*
X85415057Y61167977D02*
X85510295Y61120358D01*
X85510295Y61120358D02*
X85653152Y61120358D01*
X85653152Y61120358D02*
X85748390Y61167977D01*
X85748390Y61167977D02*
X85796009Y61215596D01*
X85796009Y61215596D02*
X85843628Y61310834D01*
X85843628Y61310834D02*
X85843628Y61691786D01*
X86319819Y60167977D02*
X86319819Y60739405D01*
X86319819Y60453691D02*
X85319819Y60453691D01*
X85319819Y60453691D02*
X85462676Y60548929D01*
X85462676Y60548929D02*
X85557914Y60644167D01*
X85557914Y60644167D02*
X85605533Y60739405D01*
X85319819Y59310834D02*
X85319819Y59501310D01*
X85319819Y59501310D02*
X85367438Y59596548D01*
X85367438Y59596548D02*
X85415057Y59644167D01*
X85415057Y59644167D02*
X85557914Y59739405D01*
X85557914Y59739405D02*
X85748390Y59787024D01*
X85748390Y59787024D02*
X86129342Y59787024D01*
X86129342Y59787024D02*
X86224580Y59739405D01*
X86224580Y59739405D02*
X86272200Y59691786D01*
X86272200Y59691786D02*
X86319819Y59596548D01*
X86319819Y59596548D02*
X86319819Y59406072D01*
X86319819Y59406072D02*
X86272200Y59310834D01*
X86272200Y59310834D02*
X86224580Y59263215D01*
X86224580Y59263215D02*
X86129342Y59215596D01*
X86129342Y59215596D02*
X85891247Y59215596D01*
X85891247Y59215596D02*
X85796009Y59263215D01*
X85796009Y59263215D02*
X85748390Y59310834D01*
X85748390Y59310834D02*
X85700771Y59406072D01*
X85700771Y59406072D02*
X85700771Y59596548D01*
X85700771Y59596548D02*
X85748390Y59691786D01*
X85748390Y59691786D02*
X85796009Y59739405D01*
X85796009Y59739405D02*
X85891247Y59787024D01*
D11*
X61102808Y56709349D02*
X60712332Y56982682D01*
X61102808Y57177920D02*
X60282808Y57177920D01*
X60282808Y57177920D02*
X60282808Y56865539D01*
X60282808Y56865539D02*
X60321856Y56787444D01*
X60321856Y56787444D02*
X60360903Y56748397D01*
X60360903Y56748397D02*
X60438999Y56709349D01*
X60438999Y56709349D02*
X60556141Y56709349D01*
X60556141Y56709349D02*
X60634237Y56748397D01*
X60634237Y56748397D02*
X60673284Y56787444D01*
X60673284Y56787444D02*
X60712332Y56865539D01*
X60712332Y56865539D02*
X60712332Y57177920D01*
X61102808Y55928397D02*
X61102808Y56396968D01*
X61102808Y56162682D02*
X60282808Y56162682D01*
X60282808Y56162682D02*
X60399951Y56240778D01*
X60399951Y56240778D02*
X60478046Y56318873D01*
X60478046Y56318873D02*
X60517094Y56396968D01*
X60282808Y55420778D02*
X60282808Y55342683D01*
X60282808Y55342683D02*
X60321856Y55264587D01*
X60321856Y55264587D02*
X60360903Y55225540D01*
X60360903Y55225540D02*
X60438999Y55186492D01*
X60438999Y55186492D02*
X60595189Y55147445D01*
X60595189Y55147445D02*
X60790427Y55147445D01*
X60790427Y55147445D02*
X60946618Y55186492D01*
X60946618Y55186492D02*
X61024713Y55225540D01*
X61024713Y55225540D02*
X61063761Y55264587D01*
X61063761Y55264587D02*
X61102808Y55342683D01*
X61102808Y55342683D02*
X61102808Y55420778D01*
X61102808Y55420778D02*
X61063761Y55498873D01*
X61063761Y55498873D02*
X61024713Y55537921D01*
X61024713Y55537921D02*
X60946618Y55576968D01*
X60946618Y55576968D02*
X60790427Y55616016D01*
X60790427Y55616016D02*
X60595189Y55616016D01*
X60595189Y55616016D02*
X60438999Y55576968D01*
X60438999Y55576968D02*
X60360903Y55537921D01*
X60360903Y55537921D02*
X60321856Y55498873D01*
X60321856Y55498873D02*
X60282808Y55420778D01*
X78474508Y36473238D02*
X77654508Y36473238D01*
X77654508Y36473238D02*
X77654508Y36278000D01*
X77654508Y36278000D02*
X77693556Y36160857D01*
X77693556Y36160857D02*
X77771651Y36082762D01*
X77771651Y36082762D02*
X77849746Y36043715D01*
X77849746Y36043715D02*
X78005937Y36004667D01*
X78005937Y36004667D02*
X78123080Y36004667D01*
X78123080Y36004667D02*
X78279270Y36043715D01*
X78279270Y36043715D02*
X78357365Y36082762D01*
X78357365Y36082762D02*
X78435461Y36160857D01*
X78435461Y36160857D02*
X78474508Y36278000D01*
X78474508Y36278000D02*
X78474508Y36473238D01*
X77732603Y35692286D02*
X77693556Y35653238D01*
X77693556Y35653238D02*
X77654508Y35575143D01*
X77654508Y35575143D02*
X77654508Y35379905D01*
X77654508Y35379905D02*
X77693556Y35301810D01*
X77693556Y35301810D02*
X77732603Y35262762D01*
X77732603Y35262762D02*
X77810699Y35223715D01*
X77810699Y35223715D02*
X77888794Y35223715D01*
X77888794Y35223715D02*
X78005937Y35262762D01*
X78005937Y35262762D02*
X78474508Y35731334D01*
X78474508Y35731334D02*
X78474508Y35223715D01*
D10*
X85918009Y54770334D02*
X85918009Y55103667D01*
X86441819Y55103667D02*
X85441819Y55103667D01*
X85441819Y55103667D02*
X85441819Y54627477D01*
X85775152Y53817953D02*
X86441819Y53817953D01*
X85394200Y54056048D02*
X86108485Y54294143D01*
X86108485Y54294143D02*
X86108485Y53675096D01*
D11*
X89142508Y36727238D02*
X88322508Y36727238D01*
X88322508Y36727238D02*
X88322508Y36532000D01*
X88322508Y36532000D02*
X88361556Y36414857D01*
X88361556Y36414857D02*
X88439651Y36336762D01*
X88439651Y36336762D02*
X88517746Y36297715D01*
X88517746Y36297715D02*
X88673937Y36258667D01*
X88673937Y36258667D02*
X88791080Y36258667D01*
X88791080Y36258667D02*
X88947270Y36297715D01*
X88947270Y36297715D02*
X89025365Y36336762D01*
X89025365Y36336762D02*
X89103461Y36414857D01*
X89103461Y36414857D02*
X89142508Y36532000D01*
X89142508Y36532000D02*
X89142508Y36727238D01*
X88322508Y35985334D02*
X88322508Y35477715D01*
X88322508Y35477715D02*
X88634889Y35751048D01*
X88634889Y35751048D02*
X88634889Y35633905D01*
X88634889Y35633905D02*
X88673937Y35555810D01*
X88673937Y35555810D02*
X88712984Y35516762D01*
X88712984Y35516762D02*
X88791080Y35477715D01*
X88791080Y35477715D02*
X88986318Y35477715D01*
X88986318Y35477715D02*
X89064413Y35516762D01*
X89064413Y35516762D02*
X89103461Y35555810D01*
X89103461Y35555810D02*
X89142508Y35633905D01*
X89142508Y35633905D02*
X89142508Y35868191D01*
X89142508Y35868191D02*
X89103461Y35946286D01*
X89103461Y35946286D02*
X89064413Y35985334D01*
X81268508Y36473238D02*
X80448508Y36473238D01*
X80448508Y36473238D02*
X80448508Y36278000D01*
X80448508Y36278000D02*
X80487556Y36160857D01*
X80487556Y36160857D02*
X80565651Y36082762D01*
X80565651Y36082762D02*
X80643746Y36043715D01*
X80643746Y36043715D02*
X80799937Y36004667D01*
X80799937Y36004667D02*
X80917080Y36004667D01*
X80917080Y36004667D02*
X81073270Y36043715D01*
X81073270Y36043715D02*
X81151365Y36082762D01*
X81151365Y36082762D02*
X81229461Y36160857D01*
X81229461Y36160857D02*
X81268508Y36278000D01*
X81268508Y36278000D02*
X81268508Y36473238D01*
X81268508Y35223715D02*
X81268508Y35692286D01*
X81268508Y35458000D02*
X80448508Y35458000D01*
X80448508Y35458000D02*
X80565651Y35536096D01*
X80565651Y35536096D02*
X80643746Y35614191D01*
X80643746Y35614191D02*
X80682794Y35692286D01*
D10*
X89721819Y27166905D02*
X90531342Y27166905D01*
X90531342Y27166905D02*
X90626580Y27119286D01*
X90626580Y27119286D02*
X90674200Y27071667D01*
X90674200Y27071667D02*
X90721819Y26976429D01*
X90721819Y26976429D02*
X90721819Y26785953D01*
X90721819Y26785953D02*
X90674200Y26690715D01*
X90674200Y26690715D02*
X90626580Y26643096D01*
X90626580Y26643096D02*
X90531342Y26595477D01*
X90531342Y26595477D02*
X89721819Y26595477D01*
X89721819Y25643096D02*
X89721819Y26119286D01*
X89721819Y26119286D02*
X90198009Y26166905D01*
X90198009Y26166905D02*
X90150390Y26119286D01*
X90150390Y26119286D02*
X90102771Y26024048D01*
X90102771Y26024048D02*
X90102771Y25785953D01*
X90102771Y25785953D02*
X90150390Y25690715D01*
X90150390Y25690715D02*
X90198009Y25643096D01*
X90198009Y25643096D02*
X90293247Y25595477D01*
X90293247Y25595477D02*
X90531342Y25595477D01*
X90531342Y25595477D02*
X90626580Y25643096D01*
X90626580Y25643096D02*
X90674200Y25690715D01*
X90674200Y25690715D02*
X90721819Y25785953D01*
X90721819Y25785953D02*
X90721819Y26024048D01*
X90721819Y26024048D02*
X90674200Y26119286D01*
X90674200Y26119286D02*
X90626580Y26166905D01*
D11*
X86995014Y20638093D02*
X87385490Y20364760D01*
X86995014Y20169522D02*
X87815014Y20169522D01*
X87815014Y20169522D02*
X87815014Y20481903D01*
X87815014Y20481903D02*
X87775966Y20559998D01*
X87775966Y20559998D02*
X87736919Y20599045D01*
X87736919Y20599045D02*
X87658823Y20638093D01*
X87658823Y20638093D02*
X87541681Y20638093D01*
X87541681Y20638093D02*
X87463585Y20599045D01*
X87463585Y20599045D02*
X87424538Y20559998D01*
X87424538Y20559998D02*
X87385490Y20481903D01*
X87385490Y20481903D02*
X87385490Y20169522D01*
X87815014Y20911426D02*
X87815014Y21458093D01*
X87815014Y21458093D02*
X86995014Y21106664D01*
D10*
X56319819Y61120358D02*
X55843628Y61453691D01*
X56319819Y61691786D02*
X55319819Y61691786D01*
X55319819Y61691786D02*
X55319819Y61310834D01*
X55319819Y61310834D02*
X55367438Y61215596D01*
X55367438Y61215596D02*
X55415057Y61167977D01*
X55415057Y61167977D02*
X55510295Y61120358D01*
X55510295Y61120358D02*
X55653152Y61120358D01*
X55653152Y61120358D02*
X55748390Y61167977D01*
X55748390Y61167977D02*
X55796009Y61215596D01*
X55796009Y61215596D02*
X55843628Y61310834D01*
X55843628Y61310834D02*
X55843628Y61691786D01*
X56319819Y60167977D02*
X56319819Y60739405D01*
X56319819Y60453691D02*
X55319819Y60453691D01*
X55319819Y60453691D02*
X55462676Y60548929D01*
X55462676Y60548929D02*
X55557914Y60644167D01*
X55557914Y60644167D02*
X55605533Y60739405D01*
X56319819Y59215596D02*
X56319819Y59787024D01*
X56319819Y59501310D02*
X55319819Y59501310D01*
X55319819Y59501310D02*
X55462676Y59596548D01*
X55462676Y59596548D02*
X55557914Y59691786D01*
X55557914Y59691786D02*
X55605533Y59787024D01*
X81721819Y27166905D02*
X82531342Y27166905D01*
X82531342Y27166905D02*
X82626580Y27119286D01*
X82626580Y27119286D02*
X82674200Y27071667D01*
X82674200Y27071667D02*
X82721819Y26976429D01*
X82721819Y26976429D02*
X82721819Y26785953D01*
X82721819Y26785953D02*
X82674200Y26690715D01*
X82674200Y26690715D02*
X82626580Y26643096D01*
X82626580Y26643096D02*
X82531342Y26595477D01*
X82531342Y26595477D02*
X81721819Y26595477D01*
X82055152Y25690715D02*
X82721819Y25690715D01*
X81674200Y25928810D02*
X82388485Y26166905D01*
X82388485Y26166905D02*
X82388485Y25547858D01*
D11*
X86602508Y36727238D02*
X85782508Y36727238D01*
X85782508Y36727238D02*
X85782508Y36532000D01*
X85782508Y36532000D02*
X85821556Y36414857D01*
X85821556Y36414857D02*
X85899651Y36336762D01*
X85899651Y36336762D02*
X85977746Y36297715D01*
X85977746Y36297715D02*
X86133937Y36258667D01*
X86133937Y36258667D02*
X86251080Y36258667D01*
X86251080Y36258667D02*
X86407270Y36297715D01*
X86407270Y36297715D02*
X86485365Y36336762D01*
X86485365Y36336762D02*
X86563461Y36414857D01*
X86563461Y36414857D02*
X86602508Y36532000D01*
X86602508Y36532000D02*
X86602508Y36727238D01*
X86055841Y35555810D02*
X86602508Y35555810D01*
X85743461Y35751048D02*
X86329175Y35946286D01*
X86329175Y35946286D02*
X86329175Y35438667D01*
G04 #@! TO.C,M4*
D12*
X604000Y70224000D02*
X14504000Y70224000D01*
X14504000Y42724000D01*
X604000Y42724000D01*
X604000Y70224000D01*
G04 #@! TO.C,M2*
X22843996Y45309999D02*
X63643999Y45309999D01*
X22843996Y5410000D02*
X22843996Y45309999D01*
X22843996Y5410000D02*
X64943996Y5410000D01*
X63643999Y45309999D02*
X64943999Y45309999D01*
X64943996Y5410000D02*
X64943999Y45309999D01*
G04 #@! TO.C,M1*
X1595500Y35534000D02*
X1595500Y20534000D01*
X1595500Y35534000D02*
X2895500Y35534000D01*
X1595500Y20534000D02*
X6695500Y20534000D01*
X11195500Y35534000D02*
X4795500Y35534000D01*
X11195500Y21134000D02*
X11195500Y35534000D01*
G04 #@! TO.C,M6*
X22580000Y86847999D02*
X22580000Y71447999D01*
X22580000Y86847999D02*
X22880000Y86847999D01*
X24030000Y70048002D02*
X25580000Y70047997D01*
X24480000Y86847999D02*
X34880002Y86847999D01*
X27580002Y70048002D02*
X28680005Y70048002D01*
X30280000Y70048002D02*
X32980000Y70048002D01*
X36480002Y70048002D02*
X41280002Y70048002D01*
X36580000Y86847999D02*
X39780003Y86847999D01*
X42880002Y70048000D02*
X43180000Y70048000D01*
X43179998Y85347999D02*
X43180000Y70048000D01*
G04 #@! TO.C,M5*
X1595500Y17754000D02*
X1595500Y2754000D01*
X1595500Y17754000D02*
X2895500Y17754000D01*
X1595500Y2754000D02*
X6695500Y2754000D01*
X11195500Y17754000D02*
X4795500Y17754000D01*
X11195500Y3354000D02*
X11195500Y17754000D01*
G04 #@! TO.C,M3*
X81302000Y3480003D02*
X90402000Y3480003D01*
X81302000Y380000D02*
X81302000Y1380002D01*
X81302000Y380000D02*
X90402000Y380000D01*
D13*
G04 #@! TO.C,F2*
X63055721Y54947000D02*
X63381279Y54947000D01*
X63055721Y53927000D02*
X63381279Y53927000D01*
D14*
G04 #@! TO.C,R13*
X73404943Y56331851D02*
X73004944Y56331840D01*
X73406000Y55586015D02*
X73006000Y55586005D01*
G04 #@! TO.C,R14*
X83404943Y56331851D02*
X83004944Y56331840D01*
X83406000Y55586015D02*
X83006000Y55586005D01*
G04 #@! TO.C,R9*
X53404943Y56331851D02*
X53004944Y56331840D01*
X53406000Y55586015D02*
X53006000Y55586005D01*
D13*
G04 #@! TO.C,F3*
X73055721Y54947000D02*
X73381279Y54947000D01*
X73055721Y53927000D02*
X73381279Y53927000D01*
D14*
G04 #@! TO.C,R5*
X77861149Y21296943D02*
X77861160Y20896944D01*
X78606985Y21298000D02*
X78606995Y20898000D01*
G04 #@! TO.C,R6*
X80401149Y21296943D02*
X80401160Y20896944D01*
X81146985Y21298000D02*
X81146995Y20898000D01*
D13*
G04 #@! TO.C,F1*
X53055721Y54947000D02*
X53381279Y54947000D01*
X53055721Y53927000D02*
X53381279Y53927000D01*
G04 #@! TO.C,R15*
X71535000Y62654564D02*
X71535000Y58300436D01*
X74955000Y62654564D02*
X74955000Y58300436D01*
D14*
G04 #@! TO.C,R8*
X88401149Y21296943D02*
X88401160Y20896944D01*
X89146985Y21298000D02*
X89146995Y20898000D01*
D13*
G04 #@! TO.C,R12*
X61535000Y62654564D02*
X61535000Y58300436D01*
X64955000Y62654564D02*
X64955000Y58300436D01*
G04 #@! TO.C,R16*
X81535000Y62654564D02*
X81535000Y58300436D01*
X84955000Y62654564D02*
X84955000Y58300436D01*
D14*
G04 #@! TO.C,R10*
X63404943Y56331851D02*
X63004944Y56331840D01*
X63406000Y55586015D02*
X63006000Y55586005D01*
D13*
G04 #@! TO.C,D2*
X77232000Y31042000D02*
X77232000Y34942000D01*
D11*
X77882000Y33042000D02*
X78582000Y33042000D01*
X77882000Y32342000D02*
X78232000Y33042000D01*
X77882000Y32342000D02*
X78582000Y32342000D01*
X78232000Y33042000D02*
X78232000Y33242000D01*
X78232000Y32042000D02*
X78232000Y32342000D01*
X78582000Y32342000D02*
X78232000Y33042000D01*
D13*
X79232000Y34942000D02*
X77232000Y34942000D01*
X79232000Y31042000D02*
X79232000Y34942000D01*
G04 #@! TO.C,F4*
X83055721Y54947000D02*
X83381279Y54947000D01*
X83055721Y53927000D02*
X83381279Y53927000D01*
G04 #@! TO.C,D3*
X87772000Y31042000D02*
X87772000Y34942000D01*
D11*
X88422000Y33042000D02*
X89122000Y33042000D01*
X88422000Y32342000D02*
X88772000Y33042000D01*
X88422000Y32342000D02*
X89122000Y32342000D01*
X88772000Y33042000D02*
X88772000Y33242000D01*
X88772000Y32042000D02*
X88772000Y32342000D01*
X89122000Y32342000D02*
X88772000Y33042000D01*
D13*
X89772000Y34942000D02*
X87772000Y34942000D01*
X89772000Y31042000D02*
X89772000Y34942000D01*
G04 #@! TO.C,D1*
X79772000Y31042000D02*
X79772000Y34942000D01*
D11*
X80422000Y33042000D02*
X81122000Y33042000D01*
X80422000Y32342000D02*
X80772000Y33042000D01*
X80422000Y32342000D02*
X81122000Y32342000D01*
X80772000Y33042000D02*
X80772000Y33242000D01*
X80772000Y32042000D02*
X80772000Y32342000D01*
X81122000Y32342000D02*
X80772000Y33042000D01*
D13*
X81772000Y34942000D02*
X79772000Y34942000D01*
X81772000Y31042000D02*
X81772000Y34942000D01*
G04 #@! TO.C,U5*
X84307000Y28355000D02*
X84307000Y26405000D01*
X84307000Y24455000D02*
X84307000Y26405000D01*
X89427000Y28355000D02*
X89427000Y26405000D01*
X89427000Y24455000D02*
X89427000Y26405000D01*
X89662000Y23465000D02*
X89332000Y23705000D01*
X89662000Y23945000D01*
X89662000Y23465000D01*
G36*
X89662000Y23465000D02*
G01*
X89332000Y23705000D01*
X89662000Y23945000D01*
X89662000Y23465000D01*
G37*
D14*
G04 #@! TO.C,R7*
X85861149Y21296943D02*
X85861160Y20896944D01*
X86606985Y21298000D02*
X86606995Y20898000D01*
D13*
G04 #@! TO.C,R11*
X51535000Y62654564D02*
X51535000Y58300436D01*
X54955000Y62654564D02*
X54955000Y58300436D01*
G04 #@! TO.C,U4*
X76307000Y28355000D02*
X76307000Y26405000D01*
X76307000Y24455000D02*
X76307000Y26405000D01*
X81427000Y28355000D02*
X81427000Y26405000D01*
X81427000Y24455000D02*
X81427000Y26405000D01*
X81662000Y23465000D02*
X81332000Y23705000D01*
X81662000Y23945000D01*
X81662000Y23465000D01*
G36*
X81662000Y23465000D02*
G01*
X81332000Y23705000D01*
X81662000Y23945000D01*
X81662000Y23465000D01*
G37*
G04 #@! TO.C,D4*
X85232000Y31042000D02*
X85232000Y34942000D01*
D11*
X85882000Y33042000D02*
X86582000Y33042000D01*
X85882000Y32342000D02*
X86232000Y33042000D01*
X85882000Y32342000D02*
X86582000Y32342000D01*
X86232000Y33042000D02*
X86232000Y33242000D01*
X86232000Y32042000D02*
X86232000Y32342000D01*
X86582000Y32342000D02*
X86232000Y33042000D01*
D13*
X87232000Y34942000D02*
X85232000Y34942000D01*
X87232000Y31042000D02*
X87232000Y34942000D01*
G04 #@! TD*
M02*
