M48
; DRILL file {KiCad 8.0.9-8.0.9-0~ubuntu24.04.1} date 2025-06-27T12:52:10+0000
; FORMAT={2:4/ absolute / inch / suppress leading zeros}
; #@! TF.CreationDate,2025-06-27T12:52:10+00:00
; #@! TF.GenerationSoftware,Kicad,Pcbnew,8.0.9-8.0.9-0~ubuntu24.04.1
; #@! TF.FileFunction,MixedPlating,1,4
FMAT,2
INCH,TZ
; #@! TA.AperFunction,Plated,PTH,ViaDrill
T1C0.0118
; #@! TA.AperFunction,Plated,PTH,ComponentDrill
T2C0.0118
; #@! TA.AperFunction,Plated,PTH,ComponentDrill
T3C0.0394
; #@! TA.AperFunction,Plated,PTH,ComponentDrill
T4C0.0433
; #@! TA.AperFunction,Plated,PTH,ComponentDrill
T5C0.0709
; #@! TA.AperFunction,NonPlated,NPTH,ComponentDrill
T6C0.1181
%
G90
G05
T1
X2082Y28052
X3683Y28470
X4200Y28070
X4500Y28370
X7300Y24576
X7700Y24776
X8700Y18976
X8900Y19476
X9034Y18542
X9167Y19009
X12500Y36970
X12500Y36670
X14100Y24170
X14400Y25370
X14700Y18176
X14794Y18564
X15650Y18376
X15730Y24239
X15900Y18670
X17500Y24239
X17747Y18573
X18200Y25470
X18319Y31270
X18650Y18728
X18713Y31270
X18900Y24976
X19106Y31270
X19500Y31270
X19900Y35170
X20065Y22235
X20100Y34970
X20963Y27476
X21168Y27682
X23962Y22232
X24900Y27476
X25087Y27663
X26100Y18076
X26200Y18706
X26534Y18310
X26567Y17943
X27962Y22232
X28837Y27476
X29055Y27695
X31862Y22232
X32774Y27776
X32774Y27476
T2
X907Y17001
X1301Y17001
X1313Y13881
X1313Y6881
X1694Y17001
X1707Y13881
X1707Y6881
X2592Y17001
X2833Y8202
X2833Y1202
X2992Y17001
X3305Y8202
X3305Y1202
X3778Y8202
X3778Y1202
X3919Y27470
X4250Y8202
X4250Y1202
X4313Y27470
X4706Y27470
X5100Y27470
X9072Y3587
X9072Y3193
X9072Y13980
X9072Y13587
X9072Y13193
X9072Y12799
X9072Y12406
X9072Y12012
X9072Y8469
X9072Y17760
X9072Y11618
X9072Y11224
X9072Y10831
X9072Y10437
X9072Y10043
X9072Y9650
X9072Y9256
X9072Y8862
X9072Y6106
X9230Y2209
X10175Y2209
X10268Y27657
X10647Y2209
X10661Y27657
X11120Y2209
X11435Y17760
X11592Y2209
X11750Y17760
X12065Y17760
X12065Y2209
X12537Y2209
X13009Y2209
X13482Y2209
X13954Y2209
X14427Y2209
X14899Y2209
X15135Y17760
X15372Y2209
X15450Y17760
X15765Y17760
X15844Y2209
X16080Y17760
X16317Y2209
X16395Y17760
X16789Y2209
X17261Y2209
X17734Y2209
X18206Y2209
X18561Y17760
X18679Y2209
X18876Y17760
X19151Y2209
X19191Y17760
X19506Y17760
X19624Y2209
X19820Y17760
X20096Y2209
X20135Y17760
X20450Y17760
X20569Y2209
X20765Y17760
X21041Y2209
X21080Y17760
X21395Y17760
X21513Y2209
X21710Y17760
X21986Y2209
X22025Y17760
X22340Y17760
X22458Y2209
X22655Y17760
X22931Y2209
X22970Y17760
X23285Y17760
X23364Y2209
X23600Y17760
X23836Y2209
X23915Y17760
X24230Y17760
X24309Y2209
X24545Y17760
X24781Y2209
X24860Y17760
X25175Y17760
X25254Y2209
X25490Y15161
X25490Y14846
X25490Y13272
X25490Y12957
X25490Y12642
X25490Y11382
X25490Y11067
X25490Y7602
X25490Y3390
X25490Y17760
X25490Y16736
X25490Y16421
X25490Y16106
X25490Y15791
X25490Y15476
X25490Y14531
X25490Y14217
X25490Y13902
X25490Y13587
X25490Y12327
X25490Y12012
X25490Y11697
X25490Y10752
X25490Y10437
X25490Y10122
X25490Y9807
X25490Y9492
X25490Y9177
X25490Y8862
X25490Y8547
X25490Y8232
X25490Y7917
X25490Y7287
X25490Y6972
X25490Y6657
X25490Y6343
X25490Y6028
X25490Y3075
X32087Y1134
X32087Y780
X35513Y1134
X35513Y760
X35513Y386
T3
X9146Y27834
X9323Y33936
X11606Y27834
X13299Y27834
X14047Y27834
X14067Y33936
X16016Y33936
X16567Y27834
X16744Y33936
T4
X3172Y38642
X3172Y36870
X4353Y38642
X4353Y36870
X5534Y38642
X5534Y36870
X6715Y38642
X6715Y36870
X7896Y38642
X7896Y36870
X9077Y38642
X9077Y36870
X10258Y38642
X10258Y36870
X11439Y38642
X11439Y36870
X14589Y38642
X14589Y36870
X15770Y38642
X15770Y36870
X16951Y38642
X16951Y36870
X18132Y38642
X18132Y36870
X19313Y38642
X19313Y36870
X20494Y38642
X20494Y36870
X21676Y38642
X21676Y36870
X22857Y38642
X22857Y36870
X24038Y38642
X24038Y36870
X25219Y38642
X25219Y36870
X26400Y38642
X26400Y36870
X27581Y38642
X27581Y36870
X28762Y38642
X28762Y36870
T5
X3800Y33824
X3800Y32170
X3800Y30517
X5965Y33824
X5965Y32170
X5965Y30517
X31093Y35735
X31093Y33570
X32746Y35735
X32746Y33570
X34400Y35735
X34400Y33570
X36054Y35735
X36054Y33570
T6
X926Y33824
X926Y30517
X31093Y38609
X36054Y38609
M30
