G75*
G70*
%OFA0B0*%
%FSLAX25Y25*%
%IPPOS*%
%LPD*%
%AMOC8*
5,1,8,0,0,1.08239X$1,22.5*
%
%AMM164*
21,1,0.039370,0.030320,-0.000000,-0.000000,270.000000*
21,1,0.028350,0.041340,-0.000000,-0.000000,270.000000*
1,1,0.011020,-0.015160,-0.014170*
1,1,0.011020,-0.015160,0.014170*
1,1,0.011020,0.015160,0.014170*
1,1,0.011020,0.015160,-0.014170*
%
%AMM170*
21,1,0.031500,0.018900,-0.000000,-0.000000,0.000000*
21,1,0.022840,0.027560,-0.000000,-0.000000,0.000000*
1,1,0.008660,0.011420,-0.009450*
1,1,0.008660,-0.011420,-0.009450*
1,1,0.008660,-0.011420,0.009450*
1,1,0.008660,0.011420,0.009450*
%
%AMM173*
21,1,0.029530,0.026380,-0.000000,-0.000000,270.000000*
21,1,0.020470,0.035430,-0.000000,-0.000000,270.000000*
1,1,0.009060,-0.013190,-0.010240*
1,1,0.009060,-0.013190,0.010240*
1,1,0.009060,0.013190,0.010240*
1,1,0.009060,0.013190,-0.010240*
%
%AMM174*
21,1,0.021650,0.027950,-0.000000,-0.000000,270.000000*
21,1,0.014170,0.035430,-0.000000,-0.000000,270.000000*
1,1,0.007480,-0.013980,-0.007090*
1,1,0.007480,-0.013980,0.007090*
1,1,0.007480,0.013980,0.007090*
1,1,0.007480,0.013980,-0.007090*
%
%AMM176*
21,1,0.016540,0.028980,-0.000000,-0.000000,270.000000*
21,1,0.010080,0.035430,-0.000000,-0.000000,270.000000*
1,1,0.006460,-0.014490,-0.005040*
1,1,0.006460,-0.014490,0.005040*
1,1,0.006460,0.014490,0.005040*
1,1,0.006460,0.014490,-0.005040*
%
%AMM179*
21,1,0.031500,0.018900,-0.000000,-0.000000,270.000000*
21,1,0.022840,0.027560,-0.000000,-0.000000,270.000000*
1,1,0.008660,-0.009450,-0.011420*
1,1,0.008660,-0.009450,0.011420*
1,1,0.008660,0.009450,0.011420*
1,1,0.008660,0.009450,-0.011420*
%
%AMM192*
21,1,0.037400,0.026770,-0.000000,-0.000000,0.000000*
21,1,0.026770,0.037400,-0.000000,-0.000000,0.000000*
1,1,0.010630,0.013390,-0.013390*
1,1,0.010630,-0.013390,-0.013390*
1,1,0.010630,-0.013390,0.013390*
1,1,0.010630,0.013390,0.013390*
%
%AMM193*
21,1,0.039370,0.030320,-0.000000,-0.000000,0.000000*
21,1,0.028350,0.041340,-0.000000,-0.000000,0.000000*
1,1,0.011020,0.014170,-0.015160*
1,1,0.011020,-0.014170,-0.015160*
1,1,0.011020,-0.014170,0.015160*
1,1,0.011020,0.014170,0.015160*
%
%AMM194*
21,1,0.039760,0.026770,-0.000000,-0.000000,180.000000*
21,1,0.029130,0.037400,-0.000000,-0.000000,180.000000*
1,1,0.010630,-0.014570,0.013390*
1,1,0.010630,0.014570,0.013390*
1,1,0.010630,0.014570,-0.013390*
1,1,0.010630,-0.014570,-0.013390*
%
%AMM195*
21,1,0.074800,0.036220,-0.000000,-0.000000,180.000000*
21,1,0.061810,0.049210,-0.000000,-0.000000,180.000000*
1,1,0.012990,-0.030910,0.018110*
1,1,0.012990,0.030910,0.018110*
1,1,0.012990,0.030910,-0.018110*
1,1,0.012990,-0.030910,-0.018110*
%
%AMM196*
21,1,0.062990,0.020470,-0.000000,-0.000000,270.000000*
21,1,0.053940,0.029530,-0.000000,-0.000000,270.000000*
1,1,0.009060,-0.010240,-0.026970*
1,1,0.009060,-0.010240,0.026970*
1,1,0.009060,0.010240,0.026970*
1,1,0.009060,0.010240,-0.026970*
%
%AMM197*
21,1,0.082680,0.045670,-0.000000,-0.000000,270.000000*
21,1,0.067320,0.061020,-0.000000,-0.000000,270.000000*
1,1,0.015350,-0.022840,-0.033660*
1,1,0.015350,-0.022840,0.033660*
1,1,0.015350,0.022840,0.033660*
1,1,0.015350,0.022840,-0.033660*
%
%AMM198*
21,1,0.029530,0.026380,-0.000000,-0.000000,180.000000*
21,1,0.020470,0.035430,-0.000000,-0.000000,180.000000*
1,1,0.009060,-0.010240,0.013190*
1,1,0.009060,0.010240,0.013190*
1,1,0.009060,0.010240,-0.013190*
1,1,0.009060,-0.010240,-0.013190*
%
%AMM199*
21,1,0.021650,0.027950,-0.000000,-0.000000,180.000000*
21,1,0.014170,0.035430,-0.000000,-0.000000,180.000000*
1,1,0.007480,-0.007090,0.013980*
1,1,0.007480,0.007090,0.013980*
1,1,0.007480,0.007090,-0.013980*
1,1,0.007480,-0.007090,-0.013980*
%
%AMM200*
21,1,0.031500,0.030710,-0.000000,-0.000000,270.000000*
21,1,0.022050,0.040160,-0.000000,-0.000000,270.000000*
1,1,0.009450,-0.015350,-0.011020*
1,1,0.009450,-0.015350,0.011020*
1,1,0.009450,0.015350,0.011020*
1,1,0.009450,0.015350,-0.011020*
%
%AMM201*
21,1,0.031500,0.049610,-0.000000,-0.000000,90.000000*
21,1,0.022050,0.059060,-0.000000,-0.000000,90.000000*
1,1,0.009450,0.024800,0.011020*
1,1,0.009450,0.024800,-0.011020*
1,1,0.009450,-0.024800,-0.011020*
1,1,0.009450,-0.024800,0.011020*
%
%AMM202*
21,1,0.031500,0.030710,-0.000000,-0.000000,180.000000*
21,1,0.022050,0.040160,-0.000000,-0.000000,180.000000*
1,1,0.009450,-0.011020,0.015350*
1,1,0.009450,0.011020,0.015350*
1,1,0.009450,0.011020,-0.015350*
1,1,0.009450,-0.011020,-0.015350*
%
%AMM203*
21,1,0.074800,0.036220,-0.000000,-0.000000,270.000000*
21,1,0.061810,0.049210,-0.000000,-0.000000,270.000000*
1,1,0.012990,-0.018110,-0.030910*
1,1,0.012990,-0.018110,0.030910*
1,1,0.012990,0.018110,0.030910*
1,1,0.012990,0.018110,-0.030910*
%
%AMM230*
21,1,0.029130,0.018900,0.000000,-0.000000,90.000000*
21,1,0.018900,0.029130,0.000000,-0.000000,90.000000*
1,1,0.010240,0.009450,0.009450*
1,1,0.010240,0.009450,-0.009450*
1,1,0.010240,-0.009450,-0.009450*
1,1,0.010240,-0.009450,0.009450*
%
%AMM231*
21,1,0.025200,0.019680,0.000000,-0.000000,180.000000*
21,1,0.015750,0.029130,0.000000,-0.000000,180.000000*
1,1,0.009450,-0.007870,0.009840*
1,1,0.009450,0.007870,0.009840*
1,1,0.009450,0.007870,-0.009840*
1,1,0.009450,-0.007870,-0.009840*
%
%AMM232*
21,1,0.038980,0.026770,0.000000,-0.000000,180.000000*
21,1,0.026770,0.038980,0.000000,-0.000000,180.000000*
1,1,0.012210,-0.013390,0.013390*
1,1,0.012210,0.013390,0.013390*
1,1,0.012210,0.013390,-0.013390*
1,1,0.012210,-0.013390,-0.013390*
%
%AMM233*
21,1,0.025200,0.019680,0.000000,-0.000000,270.000000*
21,1,0.015750,0.029130,0.000000,-0.000000,270.000000*
1,1,0.009450,-0.009840,-0.007870*
1,1,0.009450,-0.009840,0.007870*
1,1,0.009450,0.009840,0.007870*
1,1,0.009450,0.009840,-0.007870*
%
%AMM299*
21,1,0.041340,0.026770,0.000000,-0.000000,270.000000*
21,1,0.029130,0.038980,0.000000,-0.000000,270.000000*
1,1,0.012210,-0.013390,-0.014570*
1,1,0.012210,-0.013390,0.014570*
1,1,0.012210,0.013390,0.014570*
1,1,0.012210,0.013390,-0.014570*
%
%AMM300*
21,1,0.076380,0.036220,0.000000,-0.000000,0.000000*
21,1,0.061810,0.050790,0.000000,-0.000000,0.000000*
1,1,0.014570,0.030910,-0.018110*
1,1,0.014570,-0.030910,-0.018110*
1,1,0.014570,-0.030910,0.018110*
1,1,0.014570,0.030910,0.018110*
%
%AMM303*
21,1,0.029130,0.018900,0.000000,-0.000000,0.000000*
21,1,0.018900,0.029130,0.000000,-0.000000,0.000000*
1,1,0.010240,0.009450,-0.009450*
1,1,0.010240,-0.009450,-0.009450*
1,1,0.010240,-0.009450,0.009450*
1,1,0.010240,0.009450,0.009450*
%
%AMM308*
21,1,0.029130,0.018900,0.000000,-0.000000,270.000000*
21,1,0.018900,0.029130,0.000000,-0.000000,270.000000*
1,1,0.010240,-0.009450,-0.009450*
1,1,0.010240,-0.009450,0.009450*
1,1,0.010240,0.009450,0.009450*
1,1,0.010240,0.009450,-0.009450*
%
%AMM309*
21,1,0.111810,0.050390,0.000000,-0.000000,0.000000*
21,1,0.093700,0.068500,0.000000,-0.000000,0.000000*
1,1,0.018110,0.046850,-0.025200*
1,1,0.018110,-0.046850,-0.025200*
1,1,0.018110,-0.046850,0.025200*
1,1,0.018110,0.046850,0.025200*
%
%AMM310*
21,1,0.127560,0.075590,0.000000,-0.000000,90.000000*
21,1,0.103150,0.100000,0.000000,-0.000000,90.000000*
1,1,0.024410,0.037800,0.051580*
1,1,0.024410,0.037800,-0.051580*
1,1,0.024410,-0.037800,-0.051580*
1,1,0.024410,-0.037800,0.051580*
%
%AMM311*
21,1,0.123620,0.083460,0.000000,-0.000000,270.000000*
21,1,0.097240,0.109840,0.000000,-0.000000,270.000000*
1,1,0.026380,-0.041730,-0.048620*
1,1,0.026380,-0.041730,0.048620*
1,1,0.026380,0.041730,0.048620*
1,1,0.026380,0.041730,-0.048620*
%
%ADD10O,0.07087X0.07874*%
%ADD11C,0.02362*%
%ADD122C,0.04294*%
%ADD123C,0.04724*%
%ADD148R,0.04331X0.04724*%
%ADD152R,0.09843X0.07087*%
%ADD159O,0.05354X0.01378*%
%ADD160R,0.01378X0.01772*%
%ADD161R,0.01772X0.01378*%
%ADD168C,0.02913*%
%ADD179C,0.05118*%
%ADD222C,0.06457*%
%ADD25C,0.05906*%
%ADD329M164*%
%ADD335M170*%
%ADD338M173*%
%ADD339M174*%
%ADD341M176*%
%ADD344M179*%
%ADD357M192*%
%ADD358M193*%
%ADD359M194*%
%ADD36C,0.11811*%
%ADD360M195*%
%ADD361M196*%
%ADD362M197*%
%ADD363M198*%
%ADD364M199*%
%ADD365M200*%
%ADD366M201*%
%ADD367M202*%
%ADD368M203*%
%ADD395M230*%
%ADD396M231*%
%ADD397M232*%
%ADD398M233*%
%ADD401R,0.07874X0.07500*%
%ADD402O,0.07874X0.07500*%
%ADD404R,0.01772X0.05709*%
%ADD405R,0.02559X0.04803*%
%ADD431O,0.09213X0.02520*%
%ADD44O,0.10630X0.14567*%
%ADD474M299*%
%ADD475M300*%
%ADD478M303*%
%ADD483M308*%
%ADD484M309*%
%ADD485M310*%
%ADD486M311*%
%ADD94C,0.03900*%
X0000000Y0000000D02*
%LPD*%
G01*
D10*
X0012945Y0362701D03*
X0024756Y0362701D03*
X0036567Y0362701D03*
X0048378Y0362701D03*
X0060189Y0362701D03*
X0072000Y0362701D03*
X0083811Y0362701D03*
X0095622Y0362701D03*
X0127118Y0362701D03*
X0138929Y0362701D03*
X0150740Y0362701D03*
X0162551Y0362701D03*
X0174362Y0362701D03*
X0186173Y0362701D03*
X0197984Y0362701D03*
X0209795Y0362701D03*
X0221606Y0362701D03*
X0233417Y0362701D03*
X0245228Y0362701D03*
X0257039Y0362701D03*
X0268850Y0362701D03*
X0268850Y0380417D03*
X0257039Y0380417D03*
X0245228Y0380417D03*
X0233417Y0380417D03*
X0221606Y0380417D03*
X0209795Y0380417D03*
X0197984Y0380417D03*
X0186173Y0380417D03*
X0174362Y0380417D03*
X0162551Y0380417D03*
X0150740Y0380417D03*
X0138929Y0380417D03*
X0127118Y0380417D03*
X0095622Y0380417D03*
X0083811Y0380417D03*
X0072000Y0380417D03*
X0060189Y0380417D03*
X0048378Y0380417D03*
X0036567Y0380417D03*
X0024756Y0380417D03*
X0012945Y0380417D03*
D11*
X0133488Y0269575D03*
X0129748Y0269575D03*
X0126008Y0269575D03*
X0129945Y0303827D03*
X0133488Y0303827D03*
D25*
X0111425Y0253118D03*
X0086228Y0253118D03*
X0078748Y0253118D03*
X0061819Y0253118D03*
D11*
X0052370Y0251346D03*
X0048433Y0251346D03*
D25*
X0037213Y0253118D03*
X0113197Y0314142D03*
X0105913Y0314142D03*
X0086425Y0314142D03*
X0038984Y0314142D03*
D36*
X0299780Y0382441D03*
X0349386Y0382441D03*
G36*
G01*
X0294465Y0347402D02*
X0294465Y0360000D01*
G75*
G02*
X0295449Y0360984I0000984J0000000D01*
G01*
X0304110Y0360984D01*
G75*
G02*
X0305094Y0360000I0000000J-000984D01*
G01*
X0305094Y0347402D01*
G75*
G02*
X0304110Y0346417I-000984J0000000D01*
G01*
X0295449Y0346417D01*
G75*
G02*
X0294465Y0347402I0000000J0000984D01*
G01*
G37*
D44*
X0316315Y0353701D03*
X0332850Y0353701D03*
X0349386Y0353701D03*
X0299780Y0332047D03*
X0316315Y0332047D03*
X0332850Y0332047D03*
X0349386Y0332047D03*
D11*
X0286638Y0159821D03*
X0286638Y0164545D03*
X0286638Y0155096D03*
X0286638Y0150372D03*
X0343429Y0175805D03*
X0343429Y0179742D03*
X0285059Y0209780D03*
X0285059Y0214504D03*
X0285059Y0205055D03*
X0285059Y0200331D03*
X0341850Y0225764D03*
X0341850Y0229701D03*
G36*
G01*
X0289148Y0263898D02*
X0289148Y0266969D01*
G75*
G02*
X0289423Y0267244I0000276J0000000D01*
G01*
X0291628Y0267244D01*
G75*
G02*
X0291904Y0266969I0000000J-000276D01*
G01*
X0291904Y0263898D01*
G75*
G02*
X0291628Y0263622I-000276J0000000D01*
G01*
X0289423Y0263622D01*
G75*
G02*
X0289148Y0263898I0000000J0000276D01*
G01*
G37*
G36*
G01*
X0295447Y0263898D02*
X0295447Y0266969D01*
G75*
G02*
X0295722Y0267244I0000276J0000000D01*
G01*
X0297927Y0267244D01*
G75*
G02*
X0298203Y0266969I0000000J-000276D01*
G01*
X0298203Y0263898D01*
G75*
G02*
X0297927Y0263622I-000276J0000000D01*
G01*
X0295722Y0263622D01*
G75*
G02*
X0295447Y0263898I0000000J0000276D01*
G01*
G37*
G36*
G01*
X0378461Y0269002D02*
X0367240Y0269002D01*
G75*
G02*
X0366256Y0269986I0000000J0000984D01*
G01*
X0366256Y0272841D01*
G75*
G02*
X0367240Y0273825I0000984J0000000D01*
G01*
X0378461Y0273825D01*
G75*
G02*
X0379445Y0272841I0000000J-000984D01*
G01*
X0379445Y0269986D01*
G75*
G02*
X0378461Y0269002I-000984J0000000D01*
G01*
G37*
G36*
G01*
X0378461Y0292329D02*
X0367240Y0292329D01*
G75*
G02*
X0366256Y0293313I0000000J0000984D01*
G01*
X0366256Y0296167D01*
G75*
G02*
X0367240Y0297152I0000984J0000000D01*
G01*
X0378461Y0297152D01*
G75*
G02*
X0379445Y0296167I0000000J-000984D01*
G01*
X0379445Y0293313D01*
G75*
G02*
X0378461Y0292329I-000984J0000000D01*
G01*
G37*
G36*
G01*
X0337819Y0260442D02*
X0337819Y0258424D01*
G75*
G02*
X0336958Y0257563I-000861J0000000D01*
G01*
X0335235Y0257563D01*
G75*
G02*
X0334374Y0258424I0000000J0000861D01*
G01*
X0334374Y0260442D01*
G75*
G02*
X0335235Y0261303I0000861J0000000D01*
G01*
X0336958Y0261303D01*
G75*
G02*
X0337819Y0260442I0000000J-000861D01*
G01*
G37*
G36*
G01*
X0331618Y0260442D02*
X0331618Y0258424D01*
G75*
G02*
X0330757Y0257563I-000861J0000000D01*
G01*
X0329034Y0257563D01*
G75*
G02*
X0328173Y0258424I0000000J0000861D01*
G01*
X0328173Y0260442D01*
G75*
G02*
X0329034Y0261303I0000861J0000000D01*
G01*
X0330757Y0261303D01*
G75*
G02*
X0331618Y0260442I0000000J-000861D01*
G01*
G37*
G36*
G01*
X0299720Y0269002D02*
X0288500Y0269002D01*
G75*
G02*
X0287516Y0269986I0000000J0000984D01*
G01*
X0287516Y0272841D01*
G75*
G02*
X0288500Y0273825I0000984J0000000D01*
G01*
X0299720Y0273825D01*
G75*
G02*
X0300705Y0272841I0000000J-000984D01*
G01*
X0300705Y0269986D01*
G75*
G02*
X0299720Y0269002I-000984J0000000D01*
G01*
G37*
G36*
G01*
X0299720Y0292329D02*
X0288500Y0292329D01*
G75*
G02*
X0287516Y0293313I0000000J0000984D01*
G01*
X0287516Y0296167D01*
G75*
G02*
X0288500Y0297152I0000984J0000000D01*
G01*
X0299720Y0297152D01*
G75*
G02*
X0300705Y0296167I0000000J-000984D01*
G01*
X0300705Y0293313D01*
G75*
G02*
X0299720Y0292329I-000984J0000000D01*
G01*
G37*
G36*
G01*
X0175386Y0262535D02*
X0172315Y0262535D01*
G75*
G02*
X0172039Y0262811I0000000J0000276D01*
G01*
X0172039Y0265016D01*
G75*
G02*
X0172315Y0265291I0000276J0000000D01*
G01*
X0175386Y0265291D01*
G75*
G02*
X0175661Y0265016I0000000J-000276D01*
G01*
X0175661Y0262811D01*
G75*
G02*
X0175386Y0262535I-000276J0000000D01*
G01*
G37*
G36*
G01*
X0175386Y0268835D02*
X0172315Y0268835D01*
G75*
G02*
X0172039Y0269110I0000000J0000276D01*
G01*
X0172039Y0271315D01*
G75*
G02*
X0172315Y0271591I0000276J0000000D01*
G01*
X0175386Y0271591D01*
G75*
G02*
X0175661Y0271315I0000000J-000276D01*
G01*
X0175661Y0269110D01*
G75*
G02*
X0175386Y0268835I-000276J0000000D01*
G01*
G37*
G36*
G01*
X0208386Y0262535D02*
X0205315Y0262535D01*
G75*
G02*
X0205039Y0262811I0000000J0000276D01*
G01*
X0205039Y0265016D01*
G75*
G02*
X0205315Y0265291I0000276J0000000D01*
G01*
X0208386Y0265291D01*
G75*
G02*
X0208661Y0265016I0000000J-000276D01*
G01*
X0208661Y0262811D01*
G75*
G02*
X0208386Y0262535I-000276J0000000D01*
G01*
G37*
G36*
G01*
X0208386Y0268835D02*
X0205315Y0268835D01*
G75*
G02*
X0205039Y0269110I0000000J0000276D01*
G01*
X0205039Y0271315D01*
G75*
G02*
X0205315Y0271591I0000276J0000000D01*
G01*
X0208386Y0271591D01*
G75*
G02*
X0208661Y0271315I0000000J-000276D01*
G01*
X0208661Y0269110D01*
G75*
G02*
X0208386Y0268835I-000276J0000000D01*
G01*
G37*
G36*
G01*
X0260350Y0269002D02*
X0249130Y0269002D01*
G75*
G02*
X0248146Y0269986I0000000J0000984D01*
G01*
X0248146Y0272841D01*
G75*
G02*
X0249130Y0273825I0000984J0000000D01*
G01*
X0260350Y0273825D01*
G75*
G02*
X0261335Y0272841I0000000J-000984D01*
G01*
X0261335Y0269986D01*
G75*
G02*
X0260350Y0269002I-000984J0000000D01*
G01*
G37*
G36*
G01*
X0260350Y0292329D02*
X0249130Y0292329D01*
G75*
G02*
X0248146Y0293313I0000000J0000984D01*
G01*
X0248146Y0296167D01*
G75*
G02*
X0249130Y0297152I0000984J0000000D01*
G01*
X0260350Y0297152D01*
G75*
G02*
X0261335Y0296167I0000000J-000984D01*
G01*
X0261335Y0293313D01*
G75*
G02*
X0260350Y0292329I-000984J0000000D01*
G01*
G37*
G36*
G01*
X0218386Y0262535D02*
X0215315Y0262535D01*
G75*
G02*
X0215039Y0262811I0000000J0000276D01*
G01*
X0215039Y0265016D01*
G75*
G02*
X0215315Y0265291I0000276J0000000D01*
G01*
X0218386Y0265291D01*
G75*
G02*
X0218661Y0265016I0000000J-000276D01*
G01*
X0218661Y0262811D01*
G75*
G02*
X0218386Y0262535I-000276J0000000D01*
G01*
G37*
G36*
G01*
X0218386Y0268835D02*
X0215315Y0268835D01*
G75*
G02*
X0215039Y0269110I0000000J0000276D01*
G01*
X0215039Y0271315D01*
G75*
G02*
X0215315Y0271591I0000276J0000000D01*
G01*
X0218386Y0271591D01*
G75*
G02*
X0218661Y0271315I0000000J-000276D01*
G01*
X0218661Y0269110D01*
G75*
G02*
X0218386Y0268835I-000276J0000000D01*
G01*
G37*
G36*
G01*
X0185386Y0262535D02*
X0182315Y0262535D01*
G75*
G02*
X0182039Y0262811I0000000J0000276D01*
G01*
X0182039Y0265016D01*
G75*
G02*
X0182315Y0265291I0000276J0000000D01*
G01*
X0185386Y0265291D01*
G75*
G02*
X0185661Y0265016I0000000J-000276D01*
G01*
X0185661Y0262811D01*
G75*
G02*
X0185386Y0262535I-000276J0000000D01*
G01*
G37*
G36*
G01*
X0185386Y0268835D02*
X0182315Y0268835D01*
G75*
G02*
X0182039Y0269110I0000000J0000276D01*
G01*
X0182039Y0271315D01*
G75*
G02*
X0182315Y0271591I0000276J0000000D01*
G01*
X0185386Y0271591D01*
G75*
G02*
X0185661Y0271315I0000000J-000276D01*
G01*
X0185661Y0269110D01*
G75*
G02*
X0185386Y0268835I-000276J0000000D01*
G01*
G37*
G36*
G01*
X0249778Y0263898D02*
X0249778Y0266969D01*
G75*
G02*
X0250053Y0267244I0000276J0000000D01*
G01*
X0252258Y0267244D01*
G75*
G02*
X0252533Y0266969I0000000J-000276D01*
G01*
X0252533Y0263898D01*
G75*
G02*
X0252258Y0263622I-000276J0000000D01*
G01*
X0250053Y0263622D01*
G75*
G02*
X0249778Y0263898I0000000J0000276D01*
G01*
G37*
G36*
G01*
X0256077Y0263898D02*
X0256077Y0266969D01*
G75*
G02*
X0256352Y0267244I0000276J0000000D01*
G01*
X0258557Y0267244D01*
G75*
G02*
X0258833Y0266969I0000000J-000276D01*
G01*
X0258833Y0263898D01*
G75*
G02*
X0258557Y0263622I-000276J0000000D01*
G01*
X0256352Y0263622D01*
G75*
G02*
X0256077Y0263898I0000000J0000276D01*
G01*
G37*
G36*
G01*
X0184441Y0275374D02*
X0183260Y0275374D01*
G75*
G02*
X0182669Y0275965I0000000J0000591D01*
G01*
X0182669Y0282461D01*
G75*
G02*
X0183260Y0283051I0000591J0000000D01*
G01*
X0184441Y0283051D01*
G75*
G02*
X0185031Y0282461I0000000J-000591D01*
G01*
X0185031Y0275965D01*
G75*
G02*
X0184441Y0275374I-000591J0000000D01*
G01*
G37*
G36*
G01*
X0179441Y0275374D02*
X0178260Y0275374D01*
G75*
G02*
X0177669Y0275965I0000000J0000591D01*
G01*
X0177669Y0282461D01*
G75*
G02*
X0178260Y0283051I0000591J0000000D01*
G01*
X0179441Y0283051D01*
G75*
G02*
X0180031Y0282461I0000000J-000591D01*
G01*
X0180031Y0275965D01*
G75*
G02*
X0179441Y0275374I-000591J0000000D01*
G01*
G37*
G36*
G01*
X0174441Y0275374D02*
X0173260Y0275374D01*
G75*
G02*
X0172669Y0275965I0000000J0000591D01*
G01*
X0172669Y0282461D01*
G75*
G02*
X0173260Y0283051I0000591J0000000D01*
G01*
X0174441Y0283051D01*
G75*
G02*
X0175031Y0282461I0000000J-000591D01*
G01*
X0175031Y0275965D01*
G75*
G02*
X0174441Y0275374I-000591J0000000D01*
G01*
G37*
G36*
G01*
X0169441Y0275374D02*
X0168260Y0275374D01*
G75*
G02*
X0167669Y0275965I0000000J0000591D01*
G01*
X0167669Y0282461D01*
G75*
G02*
X0168260Y0283051I0000591J0000000D01*
G01*
X0169441Y0283051D01*
G75*
G02*
X0170031Y0282461I0000000J-000591D01*
G01*
X0170031Y0275965D01*
G75*
G02*
X0169441Y0275374I-000591J0000000D01*
G01*
G37*
G36*
G01*
X0169441Y0294862D02*
X0168260Y0294862D01*
G75*
G02*
X0167669Y0295453I0000000J0000591D01*
G01*
X0167669Y0301949D01*
G75*
G02*
X0168260Y0302539I0000591J0000000D01*
G01*
X0169441Y0302539D01*
G75*
G02*
X0170031Y0301949I0000000J-000591D01*
G01*
X0170031Y0295453D01*
G75*
G02*
X0169441Y0294862I-000591J0000000D01*
G01*
G37*
G36*
G01*
X0174441Y0294862D02*
X0173260Y0294862D01*
G75*
G02*
X0172669Y0295453I0000000J0000591D01*
G01*
X0172669Y0301949D01*
G75*
G02*
X0173260Y0302539I0000591J0000000D01*
G01*
X0174441Y0302539D01*
G75*
G02*
X0175031Y0301949I0000000J-000591D01*
G01*
X0175031Y0295453D01*
G75*
G02*
X0174441Y0294862I-000591J0000000D01*
G01*
G37*
G36*
G01*
X0179441Y0294862D02*
X0178260Y0294862D01*
G75*
G02*
X0177669Y0295453I0000000J0000591D01*
G01*
X0177669Y0301949D01*
G75*
G02*
X0178260Y0302539I0000591J0000000D01*
G01*
X0179441Y0302539D01*
G75*
G02*
X0180031Y0301949I0000000J-000591D01*
G01*
X0180031Y0295453D01*
G75*
G02*
X0179441Y0294862I-000591J0000000D01*
G01*
G37*
G36*
G01*
X0184441Y0294862D02*
X0183260Y0294862D01*
G75*
G02*
X0182669Y0295453I0000000J0000591D01*
G01*
X0182669Y0301949D01*
G75*
G02*
X0183260Y0302539I0000591J0000000D01*
G01*
X0184441Y0302539D01*
G75*
G02*
X0185031Y0301949I0000000J-000591D01*
G01*
X0185031Y0295453D01*
G75*
G02*
X0184441Y0294862I-000591J0000000D01*
G01*
G37*
G36*
G01*
X0328518Y0263898D02*
X0328518Y0266969D01*
G75*
G02*
X0328793Y0267244I0000276J0000000D01*
G01*
X0330998Y0267244D01*
G75*
G02*
X0331274Y0266969I0000000J-000276D01*
G01*
X0331274Y0263898D01*
G75*
G02*
X0330998Y0263622I-000276J0000000D01*
G01*
X0328793Y0263622D01*
G75*
G02*
X0328518Y0263898I0000000J0000276D01*
G01*
G37*
G36*
G01*
X0334817Y0263898D02*
X0334817Y0266969D01*
G75*
G02*
X0335093Y0267244I0000276J0000000D01*
G01*
X0337297Y0267244D01*
G75*
G02*
X0337573Y0266969I0000000J-000276D01*
G01*
X0337573Y0263898D01*
G75*
G02*
X0337297Y0263622I-000276J0000000D01*
G01*
X0335093Y0263622D01*
G75*
G02*
X0334817Y0263898I0000000J0000276D01*
G01*
G37*
G36*
G01*
X0367888Y0263898D02*
X0367888Y0266969D01*
G75*
G02*
X0368163Y0267244I0000276J0000000D01*
G01*
X0370368Y0267244D01*
G75*
G02*
X0370644Y0266969I0000000J-000276D01*
G01*
X0370644Y0263898D01*
G75*
G02*
X0370368Y0263622I-000276J0000000D01*
G01*
X0368163Y0263622D01*
G75*
G02*
X0367888Y0263898I0000000J0000276D01*
G01*
G37*
G36*
G01*
X0374187Y0263898D02*
X0374187Y0266969D01*
G75*
G02*
X0374463Y0267244I0000276J0000000D01*
G01*
X0376667Y0267244D01*
G75*
G02*
X0376943Y0266969I0000000J-000276D01*
G01*
X0376943Y0263898D01*
G75*
G02*
X0376667Y0263622I-000276J0000000D01*
G01*
X0374463Y0263622D01*
G75*
G02*
X0374187Y0263898I0000000J0000276D01*
G01*
G37*
G36*
G01*
X0377189Y0260442D02*
X0377189Y0258424D01*
G75*
G02*
X0376328Y0257563I-000861J0000000D01*
G01*
X0374605Y0257563D01*
G75*
G02*
X0373744Y0258424I0000000J0000861D01*
G01*
X0373744Y0260442D01*
G75*
G02*
X0374605Y0261303I0000861J0000000D01*
G01*
X0376328Y0261303D01*
G75*
G02*
X0377189Y0260442I0000000J-000861D01*
G01*
G37*
G36*
G01*
X0370988Y0260442D02*
X0370988Y0258424D01*
G75*
G02*
X0370127Y0257563I-000861J0000000D01*
G01*
X0368405Y0257563D01*
G75*
G02*
X0367543Y0258424I0000000J0000861D01*
G01*
X0367543Y0260442D01*
G75*
G02*
X0368405Y0261303I0000861J0000000D01*
G01*
X0370127Y0261303D01*
G75*
G02*
X0370988Y0260442I0000000J-000861D01*
G01*
G37*
G36*
G01*
X0339091Y0269002D02*
X0327870Y0269002D01*
G75*
G02*
X0326886Y0269986I0000000J0000984D01*
G01*
X0326886Y0272841D01*
G75*
G02*
X0327870Y0273825I0000984J0000000D01*
G01*
X0339091Y0273825D01*
G75*
G02*
X0340075Y0272841I0000000J-000984D01*
G01*
X0340075Y0269986D01*
G75*
G02*
X0339091Y0269002I-000984J0000000D01*
G01*
G37*
G36*
G01*
X0339091Y0292329D02*
X0327870Y0292329D01*
G75*
G02*
X0326886Y0293313I0000000J0000984D01*
G01*
X0326886Y0296167D01*
G75*
G02*
X0327870Y0297152I0000984J0000000D01*
G01*
X0339091Y0297152D01*
G75*
G02*
X0340075Y0296167I0000000J-000984D01*
G01*
X0340075Y0293313D01*
G75*
G02*
X0339091Y0292329I-000984J0000000D01*
G01*
G37*
G36*
G01*
X0259079Y0260442D02*
X0259079Y0258424D01*
G75*
G02*
X0258218Y0257563I-000861J0000000D01*
G01*
X0256495Y0257563D01*
G75*
G02*
X0255634Y0258424I0000000J0000861D01*
G01*
X0255634Y0260442D01*
G75*
G02*
X0256495Y0261303I0000861J0000000D01*
G01*
X0258218Y0261303D01*
G75*
G02*
X0259079Y0260442I0000000J-000861D01*
G01*
G37*
G36*
G01*
X0252878Y0260442D02*
X0252878Y0258424D01*
G75*
G02*
X0252017Y0257563I-000861J0000000D01*
G01*
X0250294Y0257563D01*
G75*
G02*
X0249433Y0258424I0000000J0000861D01*
G01*
X0249433Y0260442D01*
G75*
G02*
X0250294Y0261303I0000861J0000000D01*
G01*
X0252017Y0261303D01*
G75*
G02*
X0252878Y0260442I0000000J-000861D01*
G01*
G37*
G36*
G01*
X0298449Y0260442D02*
X0298449Y0258424D01*
G75*
G02*
X0297588Y0257563I-000861J0000000D01*
G01*
X0295865Y0257563D01*
G75*
G02*
X0295004Y0258424I0000000J0000861D01*
G01*
X0295004Y0260442D01*
G75*
G02*
X0295865Y0261303I0000861J0000000D01*
G01*
X0297588Y0261303D01*
G75*
G02*
X0298449Y0260442I0000000J-000861D01*
G01*
G37*
G36*
G01*
X0292248Y0260442D02*
X0292248Y0258424D01*
G75*
G02*
X0291387Y0257563I-000861J0000000D01*
G01*
X0289664Y0257563D01*
G75*
G02*
X0288803Y0258424I0000000J0000861D01*
G01*
X0288803Y0260442D01*
G75*
G02*
X0289664Y0261303I0000861J0000000D01*
G01*
X0291387Y0261303D01*
G75*
G02*
X0292248Y0260442I0000000J-000861D01*
G01*
G37*
G36*
G01*
X0217441Y0275886D02*
X0216260Y0275886D01*
G75*
G02*
X0215669Y0276476I0000000J0000591D01*
G01*
X0215669Y0282972D01*
G75*
G02*
X0216260Y0283563I0000591J0000000D01*
G01*
X0217441Y0283563D01*
G75*
G02*
X0218031Y0282972I0000000J-000591D01*
G01*
X0218031Y0276476D01*
G75*
G02*
X0217441Y0275886I-000591J0000000D01*
G01*
G37*
G36*
G01*
X0212441Y0275886D02*
X0211260Y0275886D01*
G75*
G02*
X0210669Y0276476I0000000J0000591D01*
G01*
X0210669Y0282972D01*
G75*
G02*
X0211260Y0283563I0000591J0000000D01*
G01*
X0212441Y0283563D01*
G75*
G02*
X0213031Y0282972I0000000J-000591D01*
G01*
X0213031Y0276476D01*
G75*
G02*
X0212441Y0275886I-000591J0000000D01*
G01*
G37*
G36*
G01*
X0207441Y0275886D02*
X0206260Y0275886D01*
G75*
G02*
X0205669Y0276476I0000000J0000591D01*
G01*
X0205669Y0282972D01*
G75*
G02*
X0206260Y0283563I0000591J0000000D01*
G01*
X0207441Y0283563D01*
G75*
G02*
X0208031Y0282972I0000000J-000591D01*
G01*
X0208031Y0276476D01*
G75*
G02*
X0207441Y0275886I-000591J0000000D01*
G01*
G37*
G36*
G01*
X0202441Y0275886D02*
X0201260Y0275886D01*
G75*
G02*
X0200669Y0276476I0000000J0000591D01*
G01*
X0200669Y0282972D01*
G75*
G02*
X0201260Y0283563I0000591J0000000D01*
G01*
X0202441Y0283563D01*
G75*
G02*
X0203031Y0282972I0000000J-000591D01*
G01*
X0203031Y0276476D01*
G75*
G02*
X0202441Y0275886I-000591J0000000D01*
G01*
G37*
G36*
G01*
X0202441Y0295374D02*
X0201260Y0295374D01*
G75*
G02*
X0200669Y0295965I0000000J0000591D01*
G01*
X0200669Y0302461D01*
G75*
G02*
X0201260Y0303051I0000591J0000000D01*
G01*
X0202441Y0303051D01*
G75*
G02*
X0203031Y0302461I0000000J-000591D01*
G01*
X0203031Y0295965D01*
G75*
G02*
X0202441Y0295374I-000591J0000000D01*
G01*
G37*
G36*
G01*
X0207441Y0295374D02*
X0206260Y0295374D01*
G75*
G02*
X0205669Y0295965I0000000J0000591D01*
G01*
X0205669Y0302461D01*
G75*
G02*
X0206260Y0303051I0000591J0000000D01*
G01*
X0207441Y0303051D01*
G75*
G02*
X0208031Y0302461I0000000J-000591D01*
G01*
X0208031Y0295965D01*
G75*
G02*
X0207441Y0295374I-000591J0000000D01*
G01*
G37*
G36*
G01*
X0212441Y0295374D02*
X0211260Y0295374D01*
G75*
G02*
X0210669Y0295965I0000000J0000591D01*
G01*
X0210669Y0302461D01*
G75*
G02*
X0211260Y0303051I0000591J0000000D01*
G01*
X0212441Y0303051D01*
G75*
G02*
X0213031Y0302461I0000000J-000591D01*
G01*
X0213031Y0295965D01*
G75*
G02*
X0212441Y0295374I-000591J0000000D01*
G01*
G37*
G36*
G01*
X0217441Y0295374D02*
X0216260Y0295374D01*
G75*
G02*
X0215669Y0295965I0000000J0000591D01*
G01*
X0215669Y0302461D01*
G75*
G02*
X0216260Y0303051I0000591J0000000D01*
G01*
X0217441Y0303051D01*
G75*
G02*
X0218031Y0302461I0000000J-000591D01*
G01*
X0218031Y0295965D01*
G75*
G02*
X0217441Y0295374I-000591J0000000D01*
G01*
G37*
X0343327Y0236945D02*
%LPD*%
G01*
D11*
X0285059Y0209780D03*
X0285059Y0214504D03*
X0285059Y0205055D03*
X0285059Y0200331D03*
X0341851Y0225764D03*
X0341851Y0229701D03*
X0267228Y0215882D02*
G01*
G75*
D329*
X0255613Y0114640D02*
D03*
X0246361Y0110900D02*
D03*
D329*
X0255613Y0107159D02*
D03*
D335*
X0119246Y0119425D02*
D03*
X0119246Y0123362D02*
D03*
X0235535Y0163914D02*
D03*
X0235535Y0159977D02*
D03*
X0114866Y0121000D02*
D03*
X0114866Y0124937D02*
D03*
X0238586Y0061748D02*
D03*
X0238586Y0065685D02*
D03*
X0205403Y0139110D02*
D03*
X0205403Y0143047D02*
D03*
X0188498Y0139182D02*
D03*
X0188498Y0135245D02*
D03*
X0210535Y0142654D02*
D03*
X0210535Y0138717D02*
D03*
X0261729Y0159066D02*
D03*
X0261729Y0163003D02*
D03*
X0244000Y0089898D02*
D03*
X0244000Y0093835D02*
D03*
X0264472Y0070803D02*
D03*
X0264472Y0066866D02*
D03*
X0132582Y0146591D02*
D03*
X0132582Y0150528D02*
D03*
X0206204Y0082024D02*
D03*
X0206204Y0078087D02*
D03*
X0175987Y0148461D02*
D03*
X0175987Y0144524D02*
D03*
X0187012Y0067161D02*
D03*
X0187012Y0063225D02*
D03*
X0134157Y0134780D02*
D03*
X0134157Y0138717D02*
D03*
X0130220Y0134780D02*
D03*
X0130220Y0138717D02*
D03*
X0260338Y0070803D02*
D03*
X0260338Y0066866D02*
D03*
X0123330Y0119425D02*
D03*
X0123330Y0123362D02*
D03*
X0123527Y0096984D02*
D03*
X0123527Y0100921D02*
D03*
X0171657Y0148461D02*
D03*
X0171657Y0144524D02*
D03*
X0168015Y0061945D02*
D03*
X0168015Y0065882D02*
D03*
X0206204Y0111551D02*
D03*
X0206204Y0107614D02*
D03*
X0206204Y0115095D02*
D03*
X0206204Y0119032D02*
D03*
X0219590Y0191473D02*
D03*
X0219590Y0195410D02*
D03*
X0214866Y0191473D02*
D03*
X0214866Y0195410D02*
D03*
X0210141Y0191473D02*
D03*
X0210141Y0195410D02*
D03*
X0205417Y0191473D02*
D03*
X0205417Y0195410D02*
D03*
X0120771Y0210764D02*
D03*
X0120771Y0206827D02*
D03*
X0116047Y0206827D02*
D03*
X0116047Y0210764D02*
D03*
X0111323Y0210764D02*
D03*
X0111323Y0206827D02*
D03*
X0106598Y0210764D02*
D03*
X0106598Y0206827D02*
D03*
X0239472Y0163914D02*
D03*
X0239472Y0159977D02*
D03*
X0211519Y0163914D02*
D03*
X0211519Y0159977D02*
D03*
X0243212Y0191473D02*
D03*
X0243212Y0195410D02*
D03*
X0247936Y0191473D02*
D03*
X0247936Y0195410D02*
D03*
X0252661Y0191473D02*
D03*
X0252661Y0195410D02*
D03*
X0257385Y0191473D02*
D03*
X0257385Y0195410D02*
D03*
X0224314Y0191473D02*
D03*
X0224314Y0195410D02*
D03*
X0229039Y0191473D02*
D03*
X0229039Y0195410D02*
D03*
X0233763Y0191473D02*
D03*
X0233763Y0195410D02*
D03*
X0238488Y0191473D02*
D03*
X0238488Y0195410D02*
D03*
X0186519Y0191473D02*
D03*
X0186519Y0195410D02*
D03*
X0191243Y0191473D02*
D03*
X0191243Y0195410D02*
D03*
X0195968Y0191473D02*
D03*
X0195968Y0195410D02*
D03*
X0200692Y0191473D02*
D03*
X0200692Y0195410D02*
D03*
X0167621Y0195410D02*
D03*
X0167621Y0191473D02*
D03*
X0172346Y0191473D02*
D03*
X0172346Y0195410D02*
D03*
X0177070Y0191473D02*
D03*
X0177070Y0195410D02*
D03*
X0181795Y0191473D02*
D03*
X0181795Y0195410D02*
D03*
X0148724Y0191473D02*
D03*
X0148724Y0195410D02*
D03*
X0153448Y0191473D02*
D03*
X0153448Y0195410D02*
D03*
X0158173Y0191473D02*
D03*
X0158173Y0195410D02*
D03*
X0162897Y0191473D02*
D03*
X0162897Y0195410D02*
D03*
X0134551Y0191473D02*
D03*
X0134551Y0195410D02*
D03*
X0139275Y0191473D02*
D03*
X0139275Y0195410D02*
D03*
X0144000Y0191473D02*
D03*
X0144000Y0195410D02*
D03*
X0262504Y0200725D02*
D03*
X0262504Y0196788D02*
D03*
X0125495Y0206827D02*
D03*
X0125495Y0210764D02*
D03*
X0211519Y0174150D02*
D03*
X0211519Y0170213D02*
D03*
X0123921Y0195410D02*
D03*
X0123921Y0191473D02*
D03*
X0262504Y0208402D02*
D03*
X0262504Y0204465D02*
D03*
X0123921Y0199347D02*
D03*
X0123921Y0203284D02*
D03*
X0118803Y0069032D02*
D03*
X0118803Y0072969D02*
D03*
X0129826Y0191473D02*
D03*
X0129826Y0195410D02*
D03*
D338*
X0229826Y0099051D02*
D03*
X0222740Y0099051D02*
D03*
X0222740Y0109091D02*
D03*
X0229826Y0109091D02*
D03*
X0215259Y0147280D02*
D03*
X0222346Y0147280D02*
D03*
X0222346Y0137240D02*
D03*
X0215259Y0137240D02*
D03*
X0215259Y0131138D02*
D03*
X0222346Y0131138D02*
D03*
X0222346Y0121098D02*
D03*
X0215259Y0121098D02*
D03*
X0119787Y0166965D02*
D03*
X0126874Y0166965D02*
D03*
X0126874Y0177004D02*
D03*
X0119787Y0177004D02*
D03*
X0138291Y0177004D02*
D03*
X0131204Y0177004D02*
D03*
X0131204Y0166965D02*
D03*
X0138291Y0166965D02*
D03*
X0188291Y0166965D02*
D03*
X0195377Y0166965D02*
D03*
X0195377Y0177004D02*
D03*
X0188291Y0177004D02*
D03*
X0206795Y0177004D02*
D03*
X0199708Y0177004D02*
D03*
X0199708Y0166965D02*
D03*
X0206795Y0166965D02*
D03*
X0165456Y0166965D02*
D03*
X0172543Y0166965D02*
D03*
X0172543Y0177004D02*
D03*
X0165456Y0177004D02*
D03*
X0183960Y0177004D02*
D03*
X0176873Y0177004D02*
D03*
X0176873Y0166965D02*
D03*
X0183960Y0166965D02*
D03*
X0142621Y0166965D02*
D03*
X0149708Y0166965D02*
D03*
X0149708Y0177004D02*
D03*
X0142621Y0177004D02*
D03*
X0161125Y0177004D02*
D03*
X0154039Y0177004D02*
D03*
X0154039Y0166965D02*
D03*
X0161125Y0166965D02*
D03*
D339*
X0222740Y0105646D02*
D03*
X0222740Y0102496D02*
D03*
X0229826Y0102496D02*
D03*
X0229826Y0105646D02*
D03*
X0222346Y0140685D02*
D03*
X0222346Y0143835D02*
D03*
X0215259Y0143835D02*
D03*
X0215259Y0140685D02*
D03*
X0222346Y0124543D02*
D03*
X0222346Y0127693D02*
D03*
X0215259Y0127693D02*
D03*
X0215259Y0124543D02*
D03*
X0119787Y0170410D02*
D03*
X0119787Y0173559D02*
D03*
X0126874Y0173559D02*
D03*
X0126874Y0170410D02*
D03*
X0138291Y0173559D02*
D03*
X0138291Y0170410D02*
D03*
X0131204Y0170410D02*
D03*
X0131204Y0173559D02*
D03*
X0188291Y0170410D02*
D03*
X0188291Y0173559D02*
D03*
X0195377Y0173559D02*
D03*
X0195377Y0170410D02*
D03*
X0206795Y0173559D02*
D03*
X0206795Y0170410D02*
D03*
X0199708Y0170410D02*
D03*
X0199708Y0173559D02*
D03*
X0165456Y0170410D02*
D03*
X0165456Y0173559D02*
D03*
X0172543Y0173559D02*
D03*
X0172543Y0170410D02*
D03*
X0183960Y0173559D02*
D03*
X0183960Y0170410D02*
D03*
X0176873Y0170410D02*
D03*
X0176873Y0173559D02*
D03*
X0142621Y0170410D02*
D03*
X0142621Y0173559D02*
D03*
X0149708Y0173559D02*
D03*
X0149708Y0170410D02*
D03*
X0161125Y0173559D02*
D03*
X0161125Y0170410D02*
D03*
X0154039Y0170410D02*
D03*
X0154039Y0173559D02*
D03*
D341*
X0241834Y0105055D02*
D03*
X0241834Y0102496D02*
D03*
X0241834Y0099937D02*
D03*
X0234354Y0099937D02*
D03*
X0234354Y0105055D02*
D03*
D344*
X0223527Y0064504D02*
D03*
X0227464Y0064504D02*
D03*
X0107385Y0080252D02*
D03*
X0111323Y0080252D02*
D03*
X0248485Y0085073D02*
D03*
X0244548Y0085073D02*
D03*
X0222740Y0091079D02*
D03*
X0226677Y0091079D02*
D03*
X0234551Y0091079D02*
D03*
X0230614Y0091079D02*
D03*
X0125889Y0145803D02*
D03*
X0121952Y0145803D02*
D03*
X0195181Y0063913D02*
D03*
X0191244Y0063913D02*
D03*
X0126480Y0076118D02*
D03*
X0122543Y0076118D02*
D03*
X0153842Y0065095D02*
D03*
X0149905Y0065095D02*
D03*
X0198318Y0151904D02*
D03*
X0202255Y0151904D02*
D03*
X0207582Y0129268D02*
D03*
X0203645Y0129268D02*
D03*
X0197543Y0130843D02*
D03*
X0193606Y0130843D02*
D03*
X0198330Y0102496D02*
D03*
X0194393Y0102496D02*
D03*
X0103055Y0062339D02*
D03*
X0106992Y0062339D02*
D03*
X0216244Y0063323D02*
D03*
X0220181Y0063323D02*
D03*
X0234157Y0077693D02*
D03*
X0230220Y0077693D02*
D03*
X0123133Y0139504D02*
D03*
X0119196Y0139504D02*
D03*
X0123133Y0135567D02*
D03*
X0119196Y0135567D02*
D03*
X0122543Y0072181D02*
D03*
X0126480Y0072181D02*
D03*
X0149610Y0148067D02*
D03*
X0153547Y0148067D02*
D03*
X0206204Y0102890D02*
D03*
X0202267Y0102890D02*
D03*
X0206204Y0134583D02*
D03*
X0202267Y0134583D02*
D03*
X0197937Y0079268D02*
D03*
X0194000Y0079268D02*
D03*
X0198724Y0094622D02*
D03*
X0194787Y0094622D02*
D03*
X0183862Y0148461D02*
D03*
X0179925Y0148461D02*
D03*
X0129629Y0160764D02*
D03*
X0133566Y0160764D02*
D03*
X0198133Y0160764D02*
D03*
X0202070Y0160764D02*
D03*
X0175299Y0160764D02*
D03*
X0179236Y0160764D02*
D03*
X0152464Y0160764D02*
D03*
X0156401Y0160764D02*
D03*
X0191637Y0184780D02*
D03*
X0195574Y0184780D02*
D03*
X0246689Y0181236D02*
D03*
X0242752Y0181236D02*
D03*
X0255878Y0181236D02*
D03*
X0259815Y0181236D02*
D03*
X0221885Y0181236D02*
D03*
X0217948Y0181236D02*
D03*
X0231074Y0181236D02*
D03*
X0235011Y0181236D02*
D03*
X0257976Y0099347D02*
D03*
X0261913Y0099347D02*
D03*
X0253448Y0099347D02*
D03*
X0249511Y0099347D02*
D03*
X0216440Y0187536D02*
D03*
X0220377Y0187536D02*
D03*
X0263291Y0149740D02*
D03*
X0259354Y0149740D02*
D03*
X0263291Y0137339D02*
D03*
X0259354Y0137339D02*
D03*
X0263291Y0133205D02*
D03*
X0259354Y0133205D02*
D03*
X0263291Y0124937D02*
D03*
X0259354Y0124937D02*
D03*
X0263291Y0129071D02*
D03*
X0259354Y0129071D02*
D03*
X0263291Y0120803D02*
D03*
X0259354Y0120803D02*
D03*
X0263291Y0141472D02*
D03*
X0259354Y0141472D02*
D03*
X0263291Y0145606D02*
D03*
X0259354Y0145606D02*
D03*
D122*
X0211480Y0065941D02*
D03*
X0231480Y0069941D02*
D03*
X0231480Y0061941D02*
D03*
D123*
X0173133Y0154465D02*
D03*
X0125889Y0150134D02*
D03*
X0131007Y0154858D02*
D03*
X0142819Y0154858D02*
D03*
X0154236Y0154858D02*
D03*
X0190456Y0154858D02*
D03*
X0207386Y0153677D02*
D03*
D25*
X0262897Y0062339D02*
D03*
D357*
X0213251Y0098362D02*
D03*
X0207031Y0098362D02*
D03*
D358*
X0110648Y0088011D02*
D03*
X0106908Y0097263D02*
D03*
X0193077Y0145762D02*
D03*
X0196817Y0136510D02*
D03*
X0256598Y0084898D02*
D03*
X0260338Y0075646D02*
D03*
X0250889Y0071473D02*
D03*
X0247149Y0080724D02*
D03*
X0114275Y0179858D02*
D03*
X0110535Y0189110D02*
D03*
X0110535Y0174215D02*
D03*
X0114275Y0164963D02*
D03*
X0114275Y0150068D02*
D03*
X0110535Y0159320D02*
D03*
X0115062Y0135173D02*
D03*
X0111322Y0144425D02*
D03*
D358*
X0114388Y0097263D02*
D03*
X0200557Y0145762D02*
D03*
X0264078Y0084898D02*
D03*
X0243409Y0071472D02*
D03*
X0106795Y0179858D02*
D03*
X0106795Y0164963D02*
D03*
X0106795Y0150068D02*
D03*
X0107582Y0135173D02*
D03*
D359*
X0262897Y0092260D02*
D03*
X0249905Y0092260D02*
D03*
X0225496Y0082024D02*
D03*
X0212503Y0082024D02*
D03*
D148*
X0230417Y0083599D02*
D03*
X0237110Y0083599D02*
D03*
D360*
X0108173Y0121394D02*
D03*
X0108173Y0109977D02*
D03*
D361*
X0170102Y0110358D02*
D03*
X0165771Y0110358D02*
D03*
X0161440Y0110358D02*
D03*
X0157110Y0110358D02*
D03*
X0152779Y0110358D02*
D03*
X0148448Y0110358D02*
D03*
X0144117Y0110358D02*
D03*
X0139787Y0110358D02*
D03*
D362*
X0130417Y0120594D02*
D03*
X0130417Y0087917D02*
D03*
X0184550Y0087917D02*
D03*
X0184550Y0120594D02*
D03*
D152*
X0195180Y0109386D02*
D03*
X0195180Y0123953D02*
D03*
D363*
X0148625Y0133205D02*
D03*
X0148625Y0140291D02*
D03*
X0138586Y0140291D02*
D03*
X0138586Y0133205D02*
D03*
X0217523Y0208205D02*
D03*
X0217523Y0201118D02*
D03*
X0207484Y0201118D02*
D03*
X0207484Y0208205D02*
D03*
X0245673Y0173756D02*
D03*
X0245673Y0166669D02*
D03*
X0255712Y0166669D02*
D03*
X0255712Y0173756D02*
D03*
X0255712Y0155252D02*
D03*
X0255712Y0162339D02*
D03*
X0245673Y0162339D02*
D03*
X0245673Y0155252D02*
D03*
X0217720Y0173756D02*
D03*
X0217720Y0166669D02*
D03*
X0227759Y0166669D02*
D03*
X0227759Y0173756D02*
D03*
X0227759Y0155252D02*
D03*
X0227759Y0162339D02*
D03*
X0217720Y0162339D02*
D03*
X0217720Y0155252D02*
D03*
X0255318Y0208205D02*
D03*
X0255318Y0201118D02*
D03*
X0245279Y0201118D02*
D03*
X0245279Y0208205D02*
D03*
X0236421Y0208205D02*
D03*
X0236421Y0201118D02*
D03*
X0226382Y0201118D02*
D03*
X0226382Y0208205D02*
D03*
X0198626Y0208205D02*
D03*
X0198626Y0201118D02*
D03*
X0188586Y0201118D02*
D03*
X0188586Y0208205D02*
D03*
X0179728Y0208205D02*
D03*
X0179728Y0201118D02*
D03*
X0169688Y0201118D02*
D03*
X0169688Y0208205D02*
D03*
X0160830Y0208205D02*
D03*
X0160830Y0201118D02*
D03*
X0150791Y0201118D02*
D03*
X0150791Y0208205D02*
D03*
X0141933Y0208205D02*
D03*
X0141933Y0201118D02*
D03*
X0131893Y0201118D02*
D03*
X0131893Y0208205D02*
D03*
X0108665Y0202496D02*
D03*
X0108665Y0195410D02*
D03*
X0118704Y0195410D02*
D03*
X0118704Y0202496D02*
D03*
D364*
X0145181Y0133205D02*
D03*
X0142031Y0133205D02*
D03*
X0142031Y0140291D02*
D03*
X0145181Y0140291D02*
D03*
X0210929Y0201118D02*
D03*
X0214078Y0201118D02*
D03*
X0214078Y0208205D02*
D03*
X0210929Y0208205D02*
D03*
X0249118Y0173756D02*
D03*
X0252267Y0173756D02*
D03*
X0252267Y0166669D02*
D03*
X0249118Y0166669D02*
D03*
X0252267Y0155252D02*
D03*
X0249118Y0155252D02*
D03*
X0249118Y0162339D02*
D03*
X0252267Y0162339D02*
D03*
X0221165Y0173756D02*
D03*
X0224315Y0173756D02*
D03*
X0224315Y0166669D02*
D03*
X0221165Y0166669D02*
D03*
X0224314Y0155252D02*
D03*
X0221165Y0155252D02*
D03*
X0221165Y0162339D02*
D03*
X0224314Y0162339D02*
D03*
X0248724Y0201118D02*
D03*
X0251873Y0201118D02*
D03*
X0251873Y0208205D02*
D03*
X0248724Y0208205D02*
D03*
X0229826Y0201118D02*
D03*
X0232976Y0201118D02*
D03*
X0232976Y0208205D02*
D03*
X0229826Y0208205D02*
D03*
X0192031Y0201118D02*
D03*
X0195181Y0201118D02*
D03*
X0195181Y0208205D02*
D03*
X0192031Y0208205D02*
D03*
X0173133Y0201118D02*
D03*
X0176283Y0201118D02*
D03*
X0176283Y0208205D02*
D03*
X0173133Y0208205D02*
D03*
X0154236Y0201118D02*
D03*
X0157385Y0201118D02*
D03*
X0157385Y0208205D02*
D03*
X0154236Y0208205D02*
D03*
X0135338Y0201118D02*
D03*
X0138488Y0201118D02*
D03*
X0138488Y0208205D02*
D03*
X0135338Y0208205D02*
D03*
X0112110Y0202496D02*
D03*
X0115259Y0202496D02*
D03*
X0115259Y0195410D02*
D03*
X0112110Y0195410D02*
D03*
D365*
X0123527Y0105646D02*
D03*
X0123527Y0111945D02*
D03*
X0177169Y0069917D02*
D03*
X0177169Y0063618D02*
D03*
X0262503Y0103677D02*
D03*
X0262503Y0109977D02*
D03*
X0118015Y0113126D02*
D03*
X0118015Y0106827D02*
D03*
D366*
X0197937Y0084189D02*
D03*
X0197937Y0090095D02*
D03*
D367*
X0206991Y0089110D02*
D03*
X0213291Y0089110D02*
D03*
X0206991Y0093736D02*
D03*
X0213291Y0093736D02*
D03*
D368*
X0255417Y0064504D02*
D03*
X0244000Y0064504D02*
D03*
D159*
X0253606Y0148756D02*
D03*
X0253606Y0146197D02*
D03*
X0253606Y0143638D02*
D03*
X0253606Y0141079D02*
D03*
X0253606Y0138520D02*
D03*
X0253606Y0135961D02*
D03*
X0253606Y0133402D02*
D03*
X0253606Y0130843D02*
D03*
X0253606Y0128284D02*
D03*
X0253606Y0125724D02*
D03*
X0253606Y0123166D02*
D03*
X0253606Y0120606D02*
D03*
X0230613Y0148756D02*
D03*
X0230613Y0146197D02*
D03*
X0230613Y0143638D02*
D03*
X0230613Y0141079D02*
D03*
X0230613Y0138520D02*
D03*
X0230613Y0135961D02*
D03*
X0230613Y0133402D02*
D03*
X0230613Y0130843D02*
D03*
X0230613Y0128284D02*
D03*
X0230613Y0125724D02*
D03*
X0230613Y0123166D02*
D03*
X0230613Y0120606D02*
D03*
D160*
X0110338Y0072575D02*
D03*
X0112306Y0072575D02*
D03*
X0112306Y0066276D02*
D03*
X0110338Y0066276D02*
D03*
D161*
X0114472Y0072378D02*
D03*
X0114472Y0070409D02*
D03*
X0114472Y0068441D02*
D03*
X0114472Y0066473D02*
D03*
X0108172Y0072378D02*
D03*
X0108172Y0066473D02*
D03*
X0108172Y0070409D02*
D03*
X0108172Y0068441D02*
D03*
X0123252Y0305008D02*
G01*
G75*
D168*
X0133488Y0269575D02*
D03*
X0129748Y0269575D02*
D03*
X0126008Y0269575D02*
D03*
X0129945Y0303827D02*
D03*
X0133488Y0303827D02*
D03*
D395*
X0133488Y0277055D02*
D03*
X0133488Y0273118D02*
D03*
X0133488Y0288178D02*
D03*
X0133488Y0292115D02*
D03*
X0133488Y0296544D02*
D03*
X0133488Y0300481D02*
D03*
X0126205Y0277055D02*
D03*
X0126205Y0273118D02*
D03*
D396*
X0126008Y0280440D02*
D03*
X0129551Y0280440D02*
D03*
D397*
X0132721Y0284325D02*
D03*
X0126500Y0284325D02*
D03*
D398*
X0129551Y0296937D02*
D03*
X0129551Y0300480D02*
D03*
X0126008Y0288571D02*
D03*
X0126008Y0292114D02*
D03*
X0129609Y0273709D02*
D03*
X0129609Y0277252D02*
D03*
X0126008Y0300480D02*
D03*
X0126008Y0296937D02*
D03*
X0077850Y0016701D02*
%LPD*%
G01*
D179*
X0066236Y0107882D03*
X0054425Y0100008D03*
X0066236Y0092134D03*
D94*
X0067023Y0020874D03*
X0071023Y0040874D03*
X0063023Y0040874D03*
D401*
X0028145Y0110362D03*
D402*
X0028145Y0100362D03*
X0028145Y0090362D03*
G36*
G01*
X0070491Y0096406D02*
X0069133Y0096406D01*
G75*
G02*
X0068552Y0096986I0000000J0000581D01*
G01*
X0068552Y0098148D01*
G75*
G02*
X0069133Y0098729I0000581J0000000D01*
G01*
X0070491Y0098729D01*
G75*
G02*
X0071072Y0098148I0000000J-000581D01*
G01*
X0071072Y0096986D01*
G75*
G02*
X0070491Y0096406I-000581J0000000D01*
G01*
G37*
G36*
G01*
X0070491Y0100225D02*
X0069133Y0100225D01*
G75*
G02*
X0068552Y0100805I0000000J0000581D01*
G01*
X0068552Y0101967D01*
G75*
G02*
X0069133Y0102547I0000581J0000000D01*
G01*
X0070491Y0102547D01*
G75*
G02*
X0071072Y0101967I0000000J-000581D01*
G01*
X0071072Y0100805D01*
G75*
G02*
X0070491Y0100225I-000581J0000000D01*
G01*
G37*
G36*
G01*
X0055202Y0110874D02*
X0053844Y0110874D01*
G75*
G02*
X0053263Y0111455I0000000J0000581D01*
G01*
X0053263Y0112616D01*
G75*
G02*
X0053844Y0113197I0000581J0000000D01*
G01*
X0055202Y0113197D01*
G75*
G02*
X0055783Y0112616I0000000J-000581D01*
G01*
X0055783Y0111455D01*
G75*
G02*
X0055202Y0110874I-000581J0000000D01*
G01*
G37*
G36*
G01*
X0055202Y0114693D02*
X0053844Y0114693D01*
G75*
G02*
X0053263Y0115274I0000000J0000581D01*
G01*
X0053263Y0116435D01*
G75*
G02*
X0053844Y0117016I0000581J0000000D01*
G01*
X0055202Y0117016D01*
G75*
G02*
X0055783Y0116435I0000000J-000581D01*
G01*
X0055783Y0115274D01*
G75*
G02*
X0055202Y0114693I-000581J0000000D01*
G01*
G37*
G36*
G01*
X0029006Y0060992D02*
X0031024Y0060992D01*
G75*
G02*
X0031885Y0060131I0000000J-000861D01*
G01*
X0031885Y0058409D01*
G75*
G02*
X0031024Y0057547I-000861J0000000D01*
G01*
X0029006Y0057547D01*
G75*
G02*
X0028145Y0058409I0000000J0000861D01*
G01*
X0028145Y0060131D01*
G75*
G02*
X0029006Y0060992I0000861J0000000D01*
G01*
G37*
G36*
G01*
X0029006Y0054792D02*
X0031024Y0054792D01*
G75*
G02*
X0031885Y0053930I0000000J-000861D01*
G01*
X0031885Y0052208D01*
G75*
G02*
X0031024Y0051347I-000861J0000000D01*
G01*
X0029006Y0051347D01*
G75*
G02*
X0028145Y0052208I0000000J0000861D01*
G01*
X0028145Y0053930D01*
G75*
G02*
X0029006Y0054792I0000861J0000000D01*
G01*
G37*
G36*
G01*
X0073332Y0102547D02*
X0074691Y0102547D01*
G75*
G02*
X0075271Y0101967I0000000J-000581D01*
G01*
X0075271Y0100805D01*
G75*
G02*
X0074691Y0100225I-000581J0000000D01*
G01*
X0073332Y0100225D01*
G75*
G02*
X0072752Y0100805I0000000J0000581D01*
G01*
X0072752Y0101967D01*
G75*
G02*
X0073332Y0102547I0000581J0000000D01*
G01*
G37*
G36*
G01*
X0073332Y0098729D02*
X0074691Y0098729D01*
G75*
G02*
X0075271Y0098148I0000000J-000581D01*
G01*
X0075271Y0096986D01*
G75*
G02*
X0074691Y0096406I-000581J0000000D01*
G01*
X0073332Y0096406D01*
G75*
G02*
X0072752Y0096986I0000000J0000581D01*
G01*
X0072752Y0098148D01*
G75*
G02*
X0073332Y0098729I0000581J0000000D01*
G01*
G37*
G36*
G01*
X0034336Y0042846D02*
X0032978Y0042846D01*
G75*
G02*
X0032397Y0043426I0000000J0000581D01*
G01*
X0032397Y0044588D01*
G75*
G02*
X0032978Y0045168I0000581J0000000D01*
G01*
X0034336Y0045168D01*
G75*
G02*
X0034917Y0044588I0000000J-000581D01*
G01*
X0034917Y0043426D01*
G75*
G02*
X0034336Y0042846I-000581J0000000D01*
G01*
G37*
G36*
G01*
X0034336Y0046664D02*
X0032978Y0046664D01*
G75*
G02*
X0032397Y0047245I0000000J0000581D01*
G01*
X0032397Y0048407D01*
G75*
G02*
X0032978Y0048987I0000581J0000000D01*
G01*
X0034336Y0048987D01*
G75*
G02*
X0034917Y0048407I0000000J-000581D01*
G01*
X0034917Y0047245D01*
G75*
G02*
X0034336Y0046664I-000581J0000000D01*
G01*
G37*
G36*
G01*
X0036206Y0050933D02*
X0034848Y0050933D01*
G75*
G02*
X0034267Y0051514I0000000J0000581D01*
G01*
X0034267Y0052675D01*
G75*
G02*
X0034848Y0053256I0000581J0000000D01*
G01*
X0036206Y0053256D01*
G75*
G02*
X0036787Y0052675I0000000J-000581D01*
G01*
X0036787Y0051514D01*
G75*
G02*
X0036206Y0050933I-000581J0000000D01*
G01*
G37*
G36*
G01*
X0036206Y0054752D02*
X0034848Y0054752D01*
G75*
G02*
X0034267Y0055333I0000000J0000581D01*
G01*
X0034267Y0056494D01*
G75*
G02*
X0034848Y0057075I0000581J0000000D01*
G01*
X0036206Y0057075D01*
G75*
G02*
X0036787Y0056494I0000000J-000581D01*
G01*
X0036787Y0055333D01*
G75*
G02*
X0036206Y0054752I-000581J0000000D01*
G01*
G37*
G36*
G01*
X0028874Y0022321D02*
X0028874Y0023679D01*
G75*
G02*
X0029454Y0024260I0000581J0000000D01*
G01*
X0030616Y0024260D01*
G75*
G02*
X0031196Y0023679I0000000J-000581D01*
G01*
X0031196Y0022321D01*
G75*
G02*
X0030616Y0021740I-000581J0000000D01*
G01*
X0029454Y0021740D01*
G75*
G02*
X0028874Y0022321I0000000J0000581D01*
G01*
G37*
G36*
G01*
X0032693Y0022321D02*
X0032693Y0023679D01*
G75*
G02*
X0033273Y0024260I0000581J0000000D01*
G01*
X0034435Y0024260D01*
G75*
G02*
X0035015Y0023679I0000000J-000581D01*
G01*
X0035015Y0022321D01*
G75*
G02*
X0034435Y0021740I-000581J0000000D01*
G01*
X0033273Y0021740D01*
G75*
G02*
X0032693Y0022321I0000000J0000581D01*
G01*
G37*
G36*
G01*
X0046462Y0071839D02*
X0047820Y0071839D01*
G75*
G02*
X0048401Y0071258I0000000J-000581D01*
G01*
X0048401Y0070097D01*
G75*
G02*
X0047820Y0069516I-000581J0000000D01*
G01*
X0046462Y0069516D01*
G75*
G02*
X0045881Y0070097I0000000J0000581D01*
G01*
X0045881Y0071258D01*
G75*
G02*
X0046462Y0071839I0000581J0000000D01*
G01*
G37*
G36*
G01*
X0046462Y0068020D02*
X0047820Y0068020D01*
G75*
G02*
X0048401Y0067439I0000000J-000581D01*
G01*
X0048401Y0066278D01*
G75*
G02*
X0047820Y0065697I-000581J0000000D01*
G01*
X0046462Y0065697D01*
G75*
G02*
X0045881Y0066278I0000000J0000581D01*
G01*
X0045881Y0067439D01*
G75*
G02*
X0046462Y0068020I0000581J0000000D01*
G01*
G37*
G36*
G01*
X0051757Y0065697D02*
X0050399Y0065697D01*
G75*
G02*
X0049819Y0066278I0000000J0000581D01*
G01*
X0049819Y0067439D01*
G75*
G02*
X0050399Y0068020I0000581J0000000D01*
G01*
X0051757Y0068020D01*
G75*
G02*
X0052338Y0067439I0000000J-000581D01*
G01*
X0052338Y0066278D01*
G75*
G02*
X0051757Y0065697I-000581J0000000D01*
G01*
G37*
G36*
G01*
X0051757Y0069516D02*
X0050399Y0069516D01*
G75*
G02*
X0049819Y0070097I0000000J0000581D01*
G01*
X0049819Y0071258D01*
G75*
G02*
X0050399Y0071839I0000581J0000000D01*
G01*
X0051757Y0071839D01*
G75*
G02*
X0052338Y0071258I0000000J-000581D01*
G01*
X0052338Y0070097D01*
G75*
G02*
X0051757Y0069516I-000581J0000000D01*
G01*
G37*
G36*
G01*
X0049317Y0113177D02*
X0050675Y0113177D01*
G75*
G02*
X0051256Y0112597I0000000J-000581D01*
G01*
X0051256Y0111435D01*
G75*
G02*
X0050675Y0110855I-000581J0000000D01*
G01*
X0049317Y0110855D01*
G75*
G02*
X0048736Y0111435I0000000J0000581D01*
G01*
X0048736Y0112597D01*
G75*
G02*
X0049317Y0113177I0000581J0000000D01*
G01*
G37*
G36*
G01*
X0049317Y0109358D02*
X0050675Y0109358D01*
G75*
G02*
X0051256Y0108778I0000000J-000581D01*
G01*
X0051256Y0107616D01*
G75*
G02*
X0050675Y0107036I-000581J0000000D01*
G01*
X0049317Y0107036D01*
G75*
G02*
X0048736Y0107616I0000000J0000581D01*
G01*
X0048736Y0108778D01*
G75*
G02*
X0049317Y0109358I0000581J0000000D01*
G01*
G37*
D404*
X0072732Y0058827D03*
X0070173Y0058827D03*
X0067614Y0058827D03*
X0065055Y0058827D03*
X0062496Y0058827D03*
X0059937Y0058827D03*
X0057378Y0058827D03*
X0057378Y0082055D03*
X0059937Y0082055D03*
X0062496Y0082055D03*
X0065055Y0082055D03*
X0067614Y0082055D03*
X0070173Y0082055D03*
X0072732Y0082055D03*
G36*
G01*
X0029238Y0049004D02*
X0030596Y0049004D01*
G75*
G02*
X0031177Y0048423I0000000J-000581D01*
G01*
X0031177Y0047262D01*
G75*
G02*
X0030596Y0046681I-000581J0000000D01*
G01*
X0029238Y0046681D01*
G75*
G02*
X0028657Y0047262I0000000J0000581D01*
G01*
X0028657Y0048423D01*
G75*
G02*
X0029238Y0049004I0000581J0000000D01*
G01*
G37*
G36*
G01*
X0029238Y0045185D02*
X0030596Y0045185D01*
G75*
G02*
X0031177Y0044605I0000000J-000581D01*
G01*
X0031177Y0043443D01*
G75*
G02*
X0030596Y0042862I-000581J0000000D01*
G01*
X0029238Y0042862D01*
G75*
G02*
X0028657Y0043443I0000000J0000581D01*
G01*
X0028657Y0044605D01*
G75*
G02*
X0029238Y0045185I0000581J0000000D01*
G01*
G37*
G36*
G01*
X0026856Y0042862D02*
X0025498Y0042862D01*
G75*
G02*
X0024917Y0043443I0000000J0000581D01*
G01*
X0024917Y0044605D01*
G75*
G02*
X0025498Y0045185I0000581J0000000D01*
G01*
X0026856Y0045185D01*
G75*
G02*
X0027437Y0044605I0000000J-000581D01*
G01*
X0027437Y0043443D01*
G75*
G02*
X0026856Y0042862I-000581J0000000D01*
G01*
G37*
G36*
G01*
X0026856Y0046681D02*
X0025498Y0046681D01*
G75*
G02*
X0024917Y0047262I0000000J0000581D01*
G01*
X0024917Y0048423D01*
G75*
G02*
X0025498Y0049004I0000581J0000000D01*
G01*
X0026856Y0049004D01*
G75*
G02*
X0027437Y0048423I0000000J-000581D01*
G01*
X0027437Y0047262D01*
G75*
G02*
X0026856Y0046681I-000581J0000000D01*
G01*
G37*
G36*
G01*
X0036305Y0103099D02*
X0034946Y0103099D01*
G75*
G02*
X0034366Y0103679I0000000J0000581D01*
G01*
X0034366Y0104841D01*
G75*
G02*
X0034946Y0105421I0000581J0000000D01*
G01*
X0036305Y0105421D01*
G75*
G02*
X0036885Y0104841I0000000J-000581D01*
G01*
X0036885Y0103679D01*
G75*
G02*
X0036305Y0103099I-000581J0000000D01*
G01*
G37*
G36*
G01*
X0036305Y0106918D02*
X0034946Y0106918D01*
G75*
G02*
X0034366Y0107498I0000000J0000581D01*
G01*
X0034366Y0108660D01*
G75*
G02*
X0034946Y0109240I0000581J0000000D01*
G01*
X0036305Y0109240D01*
G75*
G02*
X0036885Y0108660I0000000J-000581D01*
G01*
X0036885Y0107498D01*
G75*
G02*
X0036305Y0106918I-000581J0000000D01*
G01*
G37*
G36*
G01*
X0065603Y0096406D02*
X0064244Y0096406D01*
G75*
G02*
X0063664Y0096986I0000000J0000581D01*
G01*
X0063664Y0098148D01*
G75*
G02*
X0064244Y0098729I0000581J0000000D01*
G01*
X0065603Y0098729D01*
G75*
G02*
X0066183Y0098148I0000000J-000581D01*
G01*
X0066183Y0096986D01*
G75*
G02*
X0065603Y0096406I-000581J0000000D01*
G01*
G37*
G36*
G01*
X0065603Y0100225D02*
X0064244Y0100225D01*
G75*
G02*
X0063664Y0100805I0000000J0000581D01*
G01*
X0063664Y0101967D01*
G75*
G02*
X0064244Y0102547I0000581J0000000D01*
G01*
X0065603Y0102547D01*
G75*
G02*
X0066183Y0101967I0000000J-000581D01*
G01*
X0066183Y0100805D01*
G75*
G02*
X0065603Y0100225I-000581J0000000D01*
G01*
G37*
G36*
G01*
X0042525Y0068591D02*
X0043883Y0068591D01*
G75*
G02*
X0044464Y0068010I0000000J-000581D01*
G01*
X0044464Y0066849D01*
G75*
G02*
X0043883Y0066268I-000581J0000000D01*
G01*
X0042525Y0066268D01*
G75*
G02*
X0041944Y0066849I0000000J0000581D01*
G01*
X0041944Y0068010D01*
G75*
G02*
X0042525Y0068591I0000581J0000000D01*
G01*
G37*
G36*
G01*
X0042525Y0064772D02*
X0043883Y0064772D01*
G75*
G02*
X0044464Y0064191I0000000J-000581D01*
G01*
X0044464Y0063030D01*
G75*
G02*
X0043883Y0062449I-000581J0000000D01*
G01*
X0042525Y0062449D01*
G75*
G02*
X0041944Y0063030I0000000J0000581D01*
G01*
X0041944Y0064191D01*
G75*
G02*
X0042525Y0064772I0000581J0000000D01*
G01*
G37*
G36*
G01*
X0034946Y0116918D02*
X0036305Y0116918D01*
G75*
G02*
X0036885Y0116337I0000000J-000581D01*
G01*
X0036885Y0115175D01*
G75*
G02*
X0036305Y0114595I-000581J0000000D01*
G01*
X0034946Y0114595D01*
G75*
G02*
X0034366Y0115175I0000000J0000581D01*
G01*
X0034366Y0116337D01*
G75*
G02*
X0034946Y0116918I0000581J0000000D01*
G01*
G37*
G36*
G01*
X0034946Y0113099D02*
X0036305Y0113099D01*
G75*
G02*
X0036885Y0112518I0000000J-000581D01*
G01*
X0036885Y0111357D01*
G75*
G02*
X0036305Y0110776I-000581J0000000D01*
G01*
X0034946Y0110776D01*
G75*
G02*
X0034366Y0111357I0000000J0000581D01*
G01*
X0034366Y0112518D01*
G75*
G02*
X0034946Y0113099I0000581J0000000D01*
G01*
G37*
G36*
G01*
X0050399Y0064457D02*
X0051757Y0064457D01*
G75*
G02*
X0052338Y0063876I0000000J-000581D01*
G01*
X0052338Y0062715D01*
G75*
G02*
X0051757Y0062134I-000581J0000000D01*
G01*
X0050399Y0062134D01*
G75*
G02*
X0049819Y0062715I0000000J0000581D01*
G01*
X0049819Y0063876D01*
G75*
G02*
X0050399Y0064457I0000581J0000000D01*
G01*
G37*
G36*
G01*
X0050399Y0060638D02*
X0051757Y0060638D01*
G75*
G02*
X0052338Y0060057I0000000J-000581D01*
G01*
X0052338Y0058896D01*
G75*
G02*
X0051757Y0058315I-000581J0000000D01*
G01*
X0050399Y0058315D01*
G75*
G02*
X0049819Y0058896I0000000J0000581D01*
G01*
X0049819Y0060057D01*
G75*
G02*
X0050399Y0060638I0000581J0000000D01*
G01*
G37*
G36*
G01*
X0075015Y0053207D02*
X0075015Y0051849D01*
G75*
G02*
X0074435Y0051268I-000581J0000000D01*
G01*
X0073273Y0051268D01*
G75*
G02*
X0072693Y0051849I0000000J0000581D01*
G01*
X0072693Y0053207D01*
G75*
G02*
X0073273Y0053788I0000581J0000000D01*
G01*
X0074435Y0053788D01*
G75*
G02*
X0075015Y0053207I0000000J-000581D01*
G01*
G37*
G36*
G01*
X0071196Y0053207D02*
X0071196Y0051849D01*
G75*
G02*
X0070616Y0051268I-000581J0000000D01*
G01*
X0069454Y0051268D01*
G75*
G02*
X0068874Y0051849I0000000J0000581D01*
G01*
X0068874Y0053207D01*
G75*
G02*
X0069454Y0053788I0000581J0000000D01*
G01*
X0070616Y0053788D01*
G75*
G02*
X0071196Y0053207I0000000J-000581D01*
G01*
G37*
G36*
G01*
X0046462Y0079319D02*
X0047820Y0079319D01*
G75*
G02*
X0048401Y0078738I0000000J-000581D01*
G01*
X0048401Y0077577D01*
G75*
G02*
X0047820Y0076996I-000581J0000000D01*
G01*
X0046462Y0076996D01*
G75*
G02*
X0045881Y0077577I0000000J0000581D01*
G01*
X0045881Y0078738D01*
G75*
G02*
X0046462Y0079319I0000581J0000000D01*
G01*
G37*
G36*
G01*
X0046462Y0075500D02*
X0047820Y0075500D01*
G75*
G02*
X0048401Y0074920I0000000J-000581D01*
G01*
X0048401Y0073758D01*
G75*
G02*
X0047820Y0073177I-000581J0000000D01*
G01*
X0046462Y0073177D01*
G75*
G02*
X0045881Y0073758I0000000J0000581D01*
G01*
X0045881Y0074920D01*
G75*
G02*
X0046462Y0075500I0000581J0000000D01*
G01*
G37*
G36*
G01*
X0047820Y0080658D02*
X0046462Y0080658D01*
G75*
G02*
X0045881Y0081238I0000000J0000581D01*
G01*
X0045881Y0082400D01*
G75*
G02*
X0046462Y0082981I0000581J0000000D01*
G01*
X0047820Y0082981D01*
G75*
G02*
X0048401Y0082400I0000000J-000581D01*
G01*
X0048401Y0081238D01*
G75*
G02*
X0047820Y0080658I-000581J0000000D01*
G01*
G37*
G36*
G01*
X0047820Y0084477D02*
X0046462Y0084477D01*
G75*
G02*
X0045881Y0085057I0000000J0000581D01*
G01*
X0045881Y0086219D01*
G75*
G02*
X0046462Y0086799I0000581J0000000D01*
G01*
X0047820Y0086799D01*
G75*
G02*
X0048401Y0086219I0000000J-000581D01*
G01*
X0048401Y0085057D01*
G75*
G02*
X0047820Y0084477I-000581J0000000D01*
G01*
G37*
G36*
G01*
X0075015Y0049467D02*
X0075015Y0048108D01*
G75*
G02*
X0074435Y0047528I-000581J0000000D01*
G01*
X0073273Y0047528D01*
G75*
G02*
X0072693Y0048108I0000000J0000581D01*
G01*
X0072693Y0049467D01*
G75*
G02*
X0073273Y0050047I0000581J0000000D01*
G01*
X0074435Y0050047D01*
G75*
G02*
X0075015Y0049467I0000000J-000581D01*
G01*
G37*
G36*
G01*
X0071196Y0049467D02*
X0071196Y0048108D01*
G75*
G02*
X0070616Y0047528I-000581J0000000D01*
G01*
X0069454Y0047528D01*
G75*
G02*
X0068874Y0048108I0000000J0000581D01*
G01*
X0068874Y0049467D01*
G75*
G02*
X0069454Y0050047I0000581J0000000D01*
G01*
X0070616Y0050047D01*
G75*
G02*
X0071196Y0049467I0000000J-000581D01*
G01*
G37*
D405*
X0026177Y0038788D03*
X0029917Y0038788D03*
X0033657Y0038788D03*
X0033657Y0028473D03*
X0026177Y0028473D03*
G36*
G01*
X0043883Y0073276D02*
X0042525Y0073276D01*
G75*
G02*
X0041944Y0073857I0000000J0000581D01*
G01*
X0041944Y0075018D01*
G75*
G02*
X0042525Y0075599I0000581J0000000D01*
G01*
X0043883Y0075599D01*
G75*
G02*
X0044464Y0075018I0000000J-000581D01*
G01*
X0044464Y0073857D01*
G75*
G02*
X0043883Y0073276I-000581J0000000D01*
G01*
G37*
G36*
G01*
X0043883Y0077095D02*
X0042525Y0077095D01*
G75*
G02*
X0041944Y0077675I0000000J0000581D01*
G01*
X0041944Y0078837D01*
G75*
G02*
X0042525Y0079418I0000581J0000000D01*
G01*
X0043883Y0079418D01*
G75*
G02*
X0044464Y0078837I0000000J-000581D01*
G01*
X0044464Y0077675D01*
G75*
G02*
X0043883Y0077095I-000581J0000000D01*
G01*
G37*
G36*
G01*
X0039779Y0060687D02*
X0039779Y0059329D01*
G75*
G02*
X0039198Y0058748I-000581J0000000D01*
G01*
X0038037Y0058748D01*
G75*
G02*
X0037456Y0059329I0000000J0000581D01*
G01*
X0037456Y0060687D01*
G75*
G02*
X0038037Y0061268I0000581J0000000D01*
G01*
X0039198Y0061268D01*
G75*
G02*
X0039779Y0060687I0000000J-000581D01*
G01*
G37*
G36*
G01*
X0035960Y0060687D02*
X0035960Y0059329D01*
G75*
G02*
X0035380Y0058748I-000581J0000000D01*
G01*
X0034218Y0058748D01*
G75*
G02*
X0033637Y0059329I0000000J0000581D01*
G01*
X0033637Y0060687D01*
G75*
G02*
X0034218Y0061268I0000581J0000000D01*
G01*
X0035380Y0061268D01*
G75*
G02*
X0035960Y0060687I0000000J-000581D01*
G01*
G37*
G36*
G01*
X0060212Y0051849D02*
X0060212Y0053207D01*
G75*
G02*
X0060793Y0053788I0000581J0000000D01*
G01*
X0061954Y0053788D01*
G75*
G02*
X0062535Y0053207I0000000J-000581D01*
G01*
X0062535Y0051849D01*
G75*
G02*
X0061954Y0051268I-000581J0000000D01*
G01*
X0060793Y0051268D01*
G75*
G02*
X0060212Y0051849I0000000J0000581D01*
G01*
G37*
G36*
G01*
X0064031Y0051849D02*
X0064031Y0053207D01*
G75*
G02*
X0064612Y0053788I0000581J0000000D01*
G01*
X0065773Y0053788D01*
G75*
G02*
X0066354Y0053207I0000000J-000581D01*
G01*
X0066354Y0051849D01*
G75*
G02*
X0065773Y0051268I-000581J0000000D01*
G01*
X0064612Y0051268D01*
G75*
G02*
X0064031Y0051849I0000000J0000581D01*
G01*
G37*
G36*
G01*
X0059257Y0094969D02*
X0060616Y0094969D01*
G75*
G02*
X0061196Y0094388I0000000J-000581D01*
G01*
X0061196Y0093227D01*
G75*
G02*
X0060616Y0092646I-000581J0000000D01*
G01*
X0059257Y0092646D01*
G75*
G02*
X0058677Y0093227I0000000J0000581D01*
G01*
X0058677Y0094388D01*
G75*
G02*
X0059257Y0094969I0000581J0000000D01*
G01*
G37*
G36*
G01*
X0059257Y0091150D02*
X0060616Y0091150D01*
G75*
G02*
X0061196Y0090569I0000000J-000581D01*
G01*
X0061196Y0089408D01*
G75*
G02*
X0060616Y0088827I-000581J0000000D01*
G01*
X0059257Y0088827D01*
G75*
G02*
X0058677Y0089408I0000000J0000581D01*
G01*
X0058677Y0090569D01*
G75*
G02*
X0059257Y0091150I0000581J0000000D01*
G01*
G37*
G36*
G01*
X0059257Y0102547D02*
X0060616Y0102547D01*
G75*
G02*
X0061196Y0101967I0000000J-000581D01*
G01*
X0061196Y0100805D01*
G75*
G02*
X0060616Y0100225I-000581J0000000D01*
G01*
X0059257Y0100225D01*
G75*
G02*
X0058677Y0100805I0000000J0000581D01*
G01*
X0058677Y0101967D01*
G75*
G02*
X0059257Y0102547I0000581J0000000D01*
G01*
G37*
G36*
G01*
X0059257Y0098729D02*
X0060616Y0098729D01*
G75*
G02*
X0061196Y0098148I0000000J-000581D01*
G01*
X0061196Y0096986D01*
G75*
G02*
X0060616Y0096406I-000581J0000000D01*
G01*
X0059257Y0096406D01*
G75*
G02*
X0058677Y0096986I0000000J0000581D01*
G01*
X0058677Y0098148D01*
G75*
G02*
X0059257Y0098729I0000581J0000000D01*
G01*
G37*
G36*
G01*
X0060212Y0048108D02*
X0060212Y0049467D01*
G75*
G02*
X0060793Y0050047I0000581J0000000D01*
G01*
X0061954Y0050047D01*
G75*
G02*
X0062535Y0049467I0000000J-000581D01*
G01*
X0062535Y0048108D01*
G75*
G02*
X0061954Y0047528I-000581J0000000D01*
G01*
X0060793Y0047528D01*
G75*
G02*
X0060212Y0048108I0000000J0000581D01*
G01*
G37*
G36*
G01*
X0064031Y0048108D02*
X0064031Y0049467D01*
G75*
G02*
X0064612Y0050047I0000581J0000000D01*
G01*
X0065773Y0050047D01*
G75*
G02*
X0066354Y0049467I0000000J-000581D01*
G01*
X0066354Y0048108D01*
G75*
G02*
X0065773Y0047528I-000581J0000000D01*
G01*
X0064612Y0047528D01*
G75*
G02*
X0064031Y0048108I0000000J0000581D01*
G01*
G37*
G36*
G01*
X0050399Y0082469D02*
X0051757Y0082469D01*
G75*
G02*
X0052338Y0081888I0000000J-000581D01*
G01*
X0052338Y0080727D01*
G75*
G02*
X0051757Y0080146I-000581J0000000D01*
G01*
X0050399Y0080146D01*
G75*
G02*
X0049819Y0080727I0000000J0000581D01*
G01*
X0049819Y0081888D01*
G75*
G02*
X0050399Y0082469I0000581J0000000D01*
G01*
G37*
G36*
G01*
X0050399Y0078650D02*
X0051757Y0078650D01*
G75*
G02*
X0052338Y0078069I0000000J-000581D01*
G01*
X0052338Y0076908D01*
G75*
G02*
X0051757Y0076327I-000581J0000000D01*
G01*
X0050399Y0076327D01*
G75*
G02*
X0049819Y0076908I0000000J0000581D01*
G01*
X0049819Y0078069D01*
G75*
G02*
X0050399Y0078650I0000581J0000000D01*
G01*
G37*
G36*
G01*
X0060212Y0044368D02*
X0060212Y0045727D01*
G75*
G02*
X0060793Y0046307I0000581J0000000D01*
G01*
X0061954Y0046307D01*
G75*
G02*
X0062535Y0045727I0000000J-000581D01*
G01*
X0062535Y0044368D01*
G75*
G02*
X0061954Y0043788I-000581J0000000D01*
G01*
X0060793Y0043788D01*
G75*
G02*
X0060212Y0044368I0000000J0000581D01*
G01*
G37*
G36*
G01*
X0064031Y0044368D02*
X0064031Y0045727D01*
G75*
G02*
X0064612Y0046307I0000581J0000000D01*
G01*
X0065773Y0046307D01*
G75*
G02*
X0066354Y0045727I0000000J-000581D01*
G01*
X0066354Y0044368D01*
G75*
G02*
X0065773Y0043788I-000581J0000000D01*
G01*
X0064612Y0043788D01*
G75*
G02*
X0064031Y0044368I0000000J0000581D01*
G01*
G37*
G36*
G01*
X0068874Y0044368D02*
X0068874Y0045727D01*
G75*
G02*
X0069454Y0046307I0000581J0000000D01*
G01*
X0070616Y0046307D01*
G75*
G02*
X0071196Y0045727I0000000J-000581D01*
G01*
X0071196Y0044368D01*
G75*
G02*
X0070616Y0043788I-000581J0000000D01*
G01*
X0069454Y0043788D01*
G75*
G02*
X0068874Y0044368I0000000J0000581D01*
G01*
G37*
G36*
G01*
X0072693Y0044368D02*
X0072693Y0045727D01*
G75*
G02*
X0073273Y0046307I0000581J0000000D01*
G01*
X0074435Y0046307D01*
G75*
G02*
X0075015Y0045727I0000000J-000581D01*
G01*
X0075015Y0044368D01*
G75*
G02*
X0074435Y0043788I-000581J0000000D01*
G01*
X0073273Y0043788D01*
G75*
G02*
X0072693Y0044368I0000000J0000581D01*
G01*
G37*
G36*
G01*
X0063067Y0029555D02*
X0061728Y0029555D01*
G75*
G02*
X0061177Y0030106I0000000J0000551D01*
G01*
X0061177Y0031209D01*
G75*
G02*
X0061728Y0031760I0000551J0000000D01*
G01*
X0063067Y0031760D01*
G75*
G02*
X0063618Y0031209I0000000J-000551D01*
G01*
X0063618Y0030106D01*
G75*
G02*
X0063067Y0029555I-000551J0000000D01*
G01*
G37*
G36*
G01*
X0063067Y0033335D02*
X0061728Y0033335D01*
G75*
G02*
X0061177Y0033886I0000000J0000551D01*
G01*
X0061177Y0034988D01*
G75*
G02*
X0061728Y0035539I0000551J0000000D01*
G01*
X0063067Y0035539D01*
G75*
G02*
X0063618Y0034988I0000000J-000551D01*
G01*
X0063618Y0033886D01*
G75*
G02*
X0063067Y0033335I-000551J0000000D01*
G01*
G37*
G36*
G01*
X0036807Y0084496D02*
X0038263Y0084496D01*
G75*
G02*
X0038795Y0083965I0000000J-000531D01*
G01*
X0038795Y0082902D01*
G75*
G02*
X0038263Y0082370I-000531J0000000D01*
G01*
X0036807Y0082370D01*
G75*
G02*
X0036275Y0082902I0000000J0000531D01*
G01*
X0036275Y0083965D01*
G75*
G02*
X0036807Y0084496I0000531J0000000D01*
G01*
G37*
G36*
G01*
X0036807Y0080481D02*
X0038263Y0080481D01*
G75*
G02*
X0038795Y0079949I0000000J-000531D01*
G01*
X0038795Y0078886D01*
G75*
G02*
X0038263Y0078355I-000531J0000000D01*
G01*
X0036807Y0078355D01*
G75*
G02*
X0036275Y0078886I0000000J0000531D01*
G01*
X0036275Y0079949D01*
G75*
G02*
X0036807Y0080481I0000531J0000000D01*
G01*
G37*
G36*
G01*
X0051340Y0023768D02*
X0051340Y0022311D01*
G75*
G02*
X0050808Y0021780I-000531J0000000D01*
G01*
X0049745Y0021780D01*
G75*
G02*
X0049214Y0022311I0000000J0000531D01*
G01*
X0049214Y0023768D01*
G75*
G02*
X0049745Y0024299I0000531J0000000D01*
G01*
X0050808Y0024299D01*
G75*
G02*
X0051340Y0023768I0000000J-000531D01*
G01*
G37*
G36*
G01*
X0047324Y0023768D02*
X0047324Y0022311D01*
G75*
G02*
X0046792Y0021780I-000531J0000000D01*
G01*
X0045729Y0021780D01*
G75*
G02*
X0045198Y0022311I0000000J0000531D01*
G01*
X0045198Y0023768D01*
G75*
G02*
X0045729Y0024299I0000531J0000000D01*
G01*
X0046792Y0024299D01*
G75*
G02*
X0047324Y0023768I0000000J-000531D01*
G01*
G37*
G36*
G01*
X0075291Y0024378D02*
X0074110Y0024378D01*
G75*
G02*
X0073519Y0024969I0000000J0000591D01*
G01*
X0073519Y0029595D01*
G75*
G02*
X0074110Y0030185I0000591J0000000D01*
G01*
X0075291Y0030185D01*
G75*
G02*
X0075881Y0029595I0000000J-000591D01*
G01*
X0075881Y0024969D01*
G75*
G02*
X0075291Y0024378I-000591J0000000D01*
G01*
G37*
G36*
G01*
X0067811Y0024378D02*
X0066630Y0024378D01*
G75*
G02*
X0066039Y0024969I0000000J0000591D01*
G01*
X0066039Y0029595D01*
G75*
G02*
X0066630Y0030185I0000591J0000000D01*
G01*
X0067811Y0030185D01*
G75*
G02*
X0068401Y0029595I0000000J-000591D01*
G01*
X0068401Y0024969D01*
G75*
G02*
X0067811Y0024378I-000591J0000000D01*
G01*
G37*
G36*
G01*
X0071551Y0031760D02*
X0070370Y0031760D01*
G75*
G02*
X0069779Y0032351I0000000J0000591D01*
G01*
X0069779Y0036977D01*
G75*
G02*
X0070370Y0037567I0000591J0000000D01*
G01*
X0071551Y0037567D01*
G75*
G02*
X0072141Y0036977I0000000J-000591D01*
G01*
X0072141Y0032351D01*
G75*
G02*
X0071551Y0031760I-000591J0000000D01*
G01*
G37*
G36*
G01*
X0037359Y0022331D02*
X0037359Y0023670D01*
G75*
G02*
X0037911Y0024221I0000551J0000000D01*
G01*
X0039013Y0024221D01*
G75*
G02*
X0039564Y0023670I0000000J-000551D01*
G01*
X0039564Y0022331D01*
G75*
G02*
X0039013Y0021780I-000551J0000000D01*
G01*
X0037911Y0021780D01*
G75*
G02*
X0037359Y0022331I0000000J0000551D01*
G01*
G37*
G36*
G01*
X0041139Y0022331D02*
X0041139Y0023670D01*
G75*
G02*
X0041690Y0024221I0000551J0000000D01*
G01*
X0042792Y0024221D01*
G75*
G02*
X0043344Y0023670I0000000J-000551D01*
G01*
X0043344Y0022331D01*
G75*
G02*
X0042792Y0021780I-000551J0000000D01*
G01*
X0041690Y0021780D01*
G75*
G02*
X0041139Y0022331I0000000J0000551D01*
G01*
G37*
G36*
G01*
X0040430Y0053118D02*
X0041611Y0053118D01*
G75*
G02*
X0042202Y0052528I0000000J-000591D01*
G01*
X0042202Y0046819D01*
G75*
G02*
X0041611Y0046229I-000591J0000000D01*
G01*
X0040430Y0046229D01*
G75*
G02*
X0039840Y0046819I0000000J0000591D01*
G01*
X0039840Y0052528D01*
G75*
G02*
X0040430Y0053118I0000591J0000000D01*
G01*
G37*
G36*
G01*
X0045430Y0053118D02*
X0046611Y0053118D01*
G75*
G02*
X0047202Y0052528I0000000J-000591D01*
G01*
X0047202Y0046819D01*
G75*
G02*
X0046611Y0046229I-000591J0000000D01*
G01*
X0045430Y0046229D01*
G75*
G02*
X0044840Y0046819I0000000J0000591D01*
G01*
X0044840Y0052528D01*
G75*
G02*
X0045430Y0053118I0000591J0000000D01*
G01*
G37*
G36*
G01*
X0050430Y0053118D02*
X0051611Y0053118D01*
G75*
G02*
X0052202Y0052528I0000000J-000591D01*
G01*
X0052202Y0046819D01*
G75*
G02*
X0051611Y0046229I-000591J0000000D01*
G01*
X0050430Y0046229D01*
G75*
G02*
X0049840Y0046819I0000000J0000591D01*
G01*
X0049840Y0052528D01*
G75*
G02*
X0050430Y0053118I0000591J0000000D01*
G01*
G37*
G36*
G01*
X0055430Y0053118D02*
X0056611Y0053118D01*
G75*
G02*
X0057202Y0052528I0000000J-000591D01*
G01*
X0057202Y0046819D01*
G75*
G02*
X0056611Y0046229I-000591J0000000D01*
G01*
X0055430Y0046229D01*
G75*
G02*
X0054840Y0046819I0000000J0000591D01*
G01*
X0054840Y0052528D01*
G75*
G02*
X0055430Y0053118I0000591J0000000D01*
G01*
G37*
G36*
G01*
X0055430Y0032843D02*
X0056611Y0032843D01*
G75*
G02*
X0057202Y0032252I0000000J-000591D01*
G01*
X0057202Y0026544D01*
G75*
G02*
X0056611Y0025953I-000591J0000000D01*
G01*
X0055430Y0025953D01*
G75*
G02*
X0054840Y0026544I0000000J0000591D01*
G01*
X0054840Y0032252D01*
G75*
G02*
X0055430Y0032843I0000591J0000000D01*
G01*
G37*
G36*
G01*
X0050430Y0032843D02*
X0051611Y0032843D01*
G75*
G02*
X0052202Y0032252I0000000J-000591D01*
G01*
X0052202Y0026544D01*
G75*
G02*
X0051611Y0025953I-000591J0000000D01*
G01*
X0050430Y0025953D01*
G75*
G02*
X0049840Y0026544I0000000J0000591D01*
G01*
X0049840Y0032252D01*
G75*
G02*
X0050430Y0032843I0000591J0000000D01*
G01*
G37*
G36*
G01*
X0045430Y0032843D02*
X0046611Y0032843D01*
G75*
G02*
X0047202Y0032252I0000000J-000591D01*
G01*
X0047202Y0026544D01*
G75*
G02*
X0046611Y0025953I-000591J0000000D01*
G01*
X0045430Y0025953D01*
G75*
G02*
X0044840Y0026544I0000000J0000591D01*
G01*
X0044840Y0032252D01*
G75*
G02*
X0045430Y0032843I0000591J0000000D01*
G01*
G37*
G36*
G01*
X0040430Y0032843D02*
X0041611Y0032843D01*
G75*
G02*
X0042202Y0032252I0000000J-000591D01*
G01*
X0042202Y0026544D01*
G75*
G02*
X0041611Y0025953I-000591J0000000D01*
G01*
X0040430Y0025953D01*
G75*
G02*
X0039840Y0026544I0000000J0000591D01*
G01*
X0039840Y0032252D01*
G75*
G02*
X0040430Y0032843I0000591J0000000D01*
G01*
G37*
X0344906Y0186986D02*
%LPD*%
G01*
D11*
X0286638Y0159821D03*
X0286638Y0164545D03*
X0286638Y0155096D03*
X0286638Y0150372D03*
X0343430Y0175805D03*
X0343430Y0179742D03*
X0034260Y0317094D02*
G01*
G75*
D474*
X0110638Y0287179D02*
D03*
X0110638Y0300171D02*
D03*
D475*
X0111032Y0267319D02*
D03*
X0111032Y0278736D02*
D03*
X0103000Y0267319D02*
D03*
X0103000Y0278736D02*
D03*
D478*
X0088984Y0304692D02*
D03*
X0092921Y0304692D02*
D03*
X0103551Y0308039D02*
D03*
X0103551Y0299377D02*
D03*
X0098303Y0308826D02*
D03*
X0098303Y0300165D02*
D03*
D398*
X0045677Y0296939D02*
D03*
X0045677Y0300483D02*
D03*
X0082410Y0287548D02*
D03*
X0082410Y0284004D02*
D03*
X0097515Y0295545D02*
D03*
X0097515Y0292002D02*
D03*
X0045677Y0288321D02*
D03*
X0045677Y0291864D02*
D03*
X0049614Y0308826D02*
D03*
X0049614Y0305283D02*
D03*
D396*
X0099090Y0283341D02*
D03*
X0102634Y0283341D02*
D03*
X0111492Y0304108D02*
D03*
X0107948Y0304108D02*
D03*
X0053175Y0255344D02*
D03*
X0056719Y0255344D02*
D03*
D168*
X0052370Y0251346D02*
D03*
X0048433Y0251346D02*
D03*
D222*
X0105913Y0314141D02*
D03*
X0038984Y0314141D02*
D03*
X0086425Y0314141D02*
D03*
X0086228Y0253118D02*
D03*
X0111425Y0253118D02*
D03*
X0061819Y0253118D02*
D03*
X0078748Y0253118D02*
D03*
X0037213Y0253118D02*
D03*
X0113197Y0314141D02*
D03*
D483*
X0112213Y0259220D02*
D03*
X0103551Y0259220D02*
D03*
X0049614Y0297136D02*
D03*
X0049614Y0301073D02*
D03*
X0049614Y0292455D02*
D03*
X0049614Y0288518D02*
D03*
X0103551Y0295742D02*
D03*
X0103551Y0291805D02*
D03*
X0081937Y0272809D02*
D03*
X0081937Y0268872D02*
D03*
X0044496Y0265033D02*
D03*
X0044496Y0268971D02*
D03*
D484*
X0090559Y0267881D02*
D03*
X0090559Y0278905D02*
D03*
D397*
X0086236Y0300559D02*
D03*
X0092456Y0300559D02*
D03*
X0086236Y0286465D02*
D03*
X0092456Y0286465D02*
D03*
X0086236Y0291156D02*
D03*
X0092456Y0291156D02*
D03*
X0086236Y0295848D02*
D03*
X0092456Y0295848D02*
D03*
X0098480Y0287646D02*
D03*
X0104701Y0287646D02*
D03*
D431*
X0056374Y0292022D02*
D03*
X0056374Y0297022D02*
D03*
X0056374Y0302022D02*
D03*
X0056374Y0307022D02*
D03*
X0079011Y0292022D02*
D03*
X0079011Y0297022D02*
D03*
X0079011Y0302022D02*
D03*
X0079011Y0307022D02*
D03*
X0051091Y0268955D02*
D03*
X0051091Y0273955D02*
D03*
X0051091Y0278955D02*
D03*
X0051091Y0283955D02*
D03*
X0074516Y0268955D02*
D03*
X0074516Y0273955D02*
D03*
X0074516Y0278955D02*
D03*
X0074516Y0283955D02*
D03*
D485*
X0067692Y0299522D02*
D03*
D486*
X0062803Y0276455D02*
D03*
M02*
