G75*
G70*
%OFA0B0*%
%FSLAX25Y25*%
%IPPOS*%
%LPD*%
%AMOC8*
5,1,8,0,0,1.08239X$1,22.5*
%
%AMM164*
21,1,0.039370,0.030320,-0.000000,-0.000000,270.000000*
21,1,0.028350,0.041340,-0.000000,-0.000000,270.000000*
1,1,0.011020,-0.015160,-0.014170*
1,1,0.011020,-0.015160,0.014170*
1,1,0.011020,0.015160,0.014170*
1,1,0.011020,0.015160,-0.014170*
%
%AMM165*
21,1,0.047240,0.075980,-0.000000,-0.000000,180.000000*
21,1,0.034650,0.088580,-0.000000,-0.000000,180.000000*
1,1,0.012600,-0.017320,0.037990*
1,1,0.012600,0.017320,0.037990*
1,1,0.012600,0.017320,-0.037990*
1,1,0.012600,-0.017320,-0.037990*
%
%AMM166*
21,1,0.047240,0.075990,-0.000000,-0.000000,180.000000*
21,1,0.034650,0.088580,-0.000000,-0.000000,180.000000*
1,1,0.012600,-0.017320,0.037990*
1,1,0.012600,0.017320,0.037990*
1,1,0.012600,0.017320,-0.037990*
1,1,0.012600,-0.017320,-0.037990*
%
%AMM167*
21,1,0.141730,0.067720,-0.000000,-0.000000,180.000000*
21,1,0.120870,0.088580,-0.000000,-0.000000,180.000000*
1,1,0.020870,-0.060430,0.033860*
1,1,0.020870,0.060430,0.033860*
1,1,0.020870,0.060430,-0.033860*
1,1,0.020870,-0.060430,-0.033860*
%
%AMM168*
21,1,0.043310,0.035430,-0.000000,-0.000000,180.000000*
21,1,0.031500,0.047240,-0.000000,-0.000000,180.000000*
1,1,0.011810,-0.015750,0.017720*
1,1,0.011810,0.015750,0.017720*
1,1,0.011810,0.015750,-0.017720*
1,1,0.011810,-0.015750,-0.017720*
%
%AMM169*
21,1,0.027560,0.030710,-0.000000,-0.000000,0.000000*
21,1,0.018900,0.039370,-0.000000,-0.000000,0.000000*
1,1,0.008660,0.009450,-0.015350*
1,1,0.008660,-0.009450,-0.015350*
1,1,0.008660,-0.009450,0.015350*
1,1,0.008660,0.009450,0.015350*
%
%AMM170*
21,1,0.031500,0.018900,-0.000000,-0.000000,0.000000*
21,1,0.022840,0.027560,-0.000000,-0.000000,0.000000*
1,1,0.008660,0.011420,-0.009450*
1,1,0.008660,-0.011420,-0.009450*
1,1,0.008660,-0.011420,0.009450*
1,1,0.008660,0.011420,0.009450*
%
%AMM171*
21,1,0.027560,0.030710,-0.000000,-0.000000,90.000000*
21,1,0.018900,0.039370,-0.000000,-0.000000,90.000000*
1,1,0.008660,0.015350,0.009450*
1,1,0.008660,0.015350,-0.009450*
1,1,0.008660,-0.015350,-0.009450*
1,1,0.008660,-0.015350,0.009450*
%
%AMM172*
21,1,0.090550,0.073230,-0.000000,-0.000000,270.000000*
21,1,0.069290,0.094490,-0.000000,-0.000000,270.000000*
1,1,0.021260,-0.036610,-0.034650*
1,1,0.021260,-0.036610,0.034650*
1,1,0.021260,0.036610,0.034650*
1,1,0.021260,0.036610,-0.034650*
%
%AMM173*
21,1,0.029530,0.026380,-0.000000,-0.000000,270.000000*
21,1,0.020470,0.035430,-0.000000,-0.000000,270.000000*
1,1,0.009060,-0.013190,-0.010240*
1,1,0.009060,-0.013190,0.010240*
1,1,0.009060,0.013190,0.010240*
1,1,0.009060,0.013190,-0.010240*
%
%AMM174*
21,1,0.021650,0.027950,-0.000000,-0.000000,270.000000*
21,1,0.014170,0.035430,-0.000000,-0.000000,270.000000*
1,1,0.007480,-0.013980,-0.007090*
1,1,0.007480,-0.013980,0.007090*
1,1,0.007480,0.013980,0.007090*
1,1,0.007480,0.013980,-0.007090*
%
%AMM175*
21,1,0.035430,0.072440,-0.000000,-0.000000,270.000000*
21,1,0.025200,0.082680,-0.000000,-0.000000,270.000000*
1,1,0.010240,-0.036220,-0.012600*
1,1,0.010240,-0.036220,0.012600*
1,1,0.010240,0.036220,0.012600*
1,1,0.010240,0.036220,-0.012600*
%
%AMM176*
21,1,0.016540,0.028980,-0.000000,-0.000000,270.000000*
21,1,0.010080,0.035430,-0.000000,-0.000000,270.000000*
1,1,0.006460,-0.014490,-0.005040*
1,1,0.006460,-0.014490,0.005040*
1,1,0.006460,0.014490,0.005040*
1,1,0.006460,0.014490,-0.005040*
%
%AMM177*
21,1,0.016540,0.028980,-0.000000,-0.000000,0.000000*
21,1,0.010080,0.035430,-0.000000,-0.000000,0.000000*
1,1,0.006460,0.005040,-0.014490*
1,1,0.006460,-0.005040,-0.014490*
1,1,0.006460,-0.005040,0.014490*
1,1,0.006460,0.005040,0.014490*
%
%AMM178*
21,1,0.043310,0.035430,-0.000000,-0.000000,90.000000*
21,1,0.031500,0.047240,-0.000000,-0.000000,90.000000*
1,1,0.011810,0.017720,0.015750*
1,1,0.011810,0.017720,-0.015750*
1,1,0.011810,-0.017720,-0.015750*
1,1,0.011810,-0.017720,0.015750*
%
%AMM179*
21,1,0.031500,0.018900,-0.000000,-0.000000,270.000000*
21,1,0.022840,0.027560,-0.000000,-0.000000,270.000000*
1,1,0.008660,-0.009450,-0.011420*
1,1,0.008660,-0.009450,0.011420*
1,1,0.008660,0.009450,0.011420*
1,1,0.008660,0.009450,-0.011420*
%
%AMM225*
21,1,0.027170,0.052760,0.000000,-0.000000,180.000000*
21,1,0.017320,0.062600,0.000000,-0.000000,180.000000*
1,1,0.009840,-0.008660,0.026380*
1,1,0.009840,0.008660,0.026380*
1,1,0.009840,0.008660,-0.026380*
1,1,0.009840,-0.008660,-0.026380*
%
%AMM231*
21,1,0.025200,0.019680,0.000000,-0.000000,180.000000*
21,1,0.015750,0.029130,0.000000,-0.000000,180.000000*
1,1,0.009450,-0.007870,0.009840*
1,1,0.009450,0.007870,0.009840*
1,1,0.009450,0.007870,-0.009840*
1,1,0.009450,-0.007870,-0.009840*
%
%AMM233*
21,1,0.025200,0.019680,0.000000,-0.000000,270.000000*
21,1,0.015750,0.029130,0.000000,-0.000000,270.000000*
1,1,0.009450,-0.009840,-0.007870*
1,1,0.009450,-0.009840,0.007870*
1,1,0.009450,0.009840,0.007870*
1,1,0.009450,0.009840,-0.007870*
%
%AMM294*
21,1,0.092130,0.073230,0.000000,-0.000000,180.000000*
21,1,0.069290,0.096060,0.000000,-0.000000,180.000000*
1,1,0.022840,-0.034650,0.036610*
1,1,0.022840,0.034650,0.036610*
1,1,0.022840,0.034650,-0.036610*
1,1,0.022840,-0.034650,-0.036610*
%
%AMM295*
21,1,0.100000,0.111020,0.000000,-0.000000,270.000000*
21,1,0.075590,0.135430,0.000000,-0.000000,270.000000*
1,1,0.024410,-0.055510,-0.037800*
1,1,0.024410,-0.055510,0.037800*
1,1,0.024410,0.055510,0.037800*
1,1,0.024410,0.055510,-0.037800*
%
%AMM296*
21,1,0.080320,0.083460,0.000000,-0.000000,270.000000*
21,1,0.059840,0.103940,0.000000,-0.000000,270.000000*
1,1,0.020470,-0.041730,-0.029920*
1,1,0.020470,-0.041730,0.029920*
1,1,0.020470,0.041730,0.029920*
1,1,0.020470,0.041730,-0.029920*
%
%AMM297*
21,1,0.084250,0.053540,0.000000,-0.000000,90.000000*
21,1,0.065350,0.072440,0.000000,-0.000000,90.000000*
1,1,0.018900,0.026770,0.032680*
1,1,0.018900,0.026770,-0.032680*
1,1,0.018900,-0.026770,-0.032680*
1,1,0.018900,-0.026770,0.032680*
%
%AMM298*
21,1,0.040950,0.030320,0.000000,-0.000000,0.000000*
21,1,0.028350,0.042910,0.000000,-0.000000,0.000000*
1,1,0.012600,0.014170,-0.015160*
1,1,0.012600,-0.014170,-0.015160*
1,1,0.012600,-0.014170,0.015160*
1,1,0.012600,0.014170,0.015160*
%
%AMM299*
21,1,0.041340,0.026770,0.000000,-0.000000,270.000000*
21,1,0.029130,0.038980,0.000000,-0.000000,270.000000*
1,1,0.012210,-0.013390,-0.014570*
1,1,0.012210,-0.013390,0.014570*
1,1,0.012210,0.013390,0.014570*
1,1,0.012210,0.013390,-0.014570*
%
%AMM300*
21,1,0.076380,0.036220,0.000000,-0.000000,0.000000*
21,1,0.061810,0.050790,0.000000,-0.000000,0.000000*
1,1,0.014570,0.030910,-0.018110*
1,1,0.014570,-0.030910,-0.018110*
1,1,0.014570,-0.030910,0.018110*
1,1,0.014570,0.030910,0.018110*
%
%AMM301*
21,1,0.038980,0.026770,0.000000,-0.000000,270.000000*
21,1,0.026770,0.038980,0.000000,-0.000000,270.000000*
1,1,0.012210,-0.013390,-0.013390*
1,1,0.012210,-0.013390,0.013390*
1,1,0.012210,0.013390,0.013390*
1,1,0.012210,0.013390,-0.013390*
%
%AMM302*
21,1,0.021260,0.016540,0.000000,-0.000000,180.000000*
21,1,0.012600,0.025200,0.000000,-0.000000,180.000000*
1,1,0.008660,-0.006300,0.008270*
1,1,0.008660,0.006300,0.008270*
1,1,0.008660,0.006300,-0.008270*
1,1,0.008660,-0.006300,-0.008270*
%
%AMM303*
21,1,0.029130,0.018900,0.000000,-0.000000,0.000000*
21,1,0.018900,0.029130,0.000000,-0.000000,0.000000*
1,1,0.010240,0.009450,-0.009450*
1,1,0.010240,-0.009450,-0.009450*
1,1,0.010240,-0.009450,0.009450*
1,1,0.010240,0.009450,0.009450*
%
%ADD10O,0.07087X0.07874*%
%ADD105C,0.03494*%
%ADD109C,0.03543*%
%ADD11C,0.02362*%
%ADD113O,0.01575X0.04724*%
%ADD114O,0.04724X0.01575*%
%ADD116O,0.09055X0.02756*%
%ADD118R,0.01870X0.01772*%
%ADD119R,0.01772X0.01870*%
%ADD122C,0.04294*%
%ADD123C,0.04724*%
%ADD168C,0.02913*%
%ADD177R,0.03543X0.03150*%
%ADD179C,0.05118*%
%ADD181R,0.03150X0.03543*%
%ADD222C,0.06457*%
%ADD25C,0.05906*%
%ADD329M164*%
%ADD330M165*%
%ADD331M166*%
%ADD332M167*%
%ADD333M168*%
%ADD334M169*%
%ADD335M170*%
%ADD336M171*%
%ADD337M172*%
%ADD338M173*%
%ADD339M174*%
%ADD340M175*%
%ADD341M176*%
%ADD342M177*%
%ADD343M178*%
%ADD344M179*%
%ADD36C,0.11811*%
%ADD390M225*%
%ADD396M231*%
%ADD398M233*%
%ADD399R,0.08661X0.04724*%
%ADD400R,0.25197X0.22835*%
%ADD401R,0.07874X0.07500*%
%ADD402O,0.07874X0.07500*%
%ADD44O,0.10630X0.14567*%
%ADD469M294*%
%ADD470M295*%
%ADD471M296*%
%ADD472M297*%
%ADD473M298*%
%ADD474M299*%
%ADD475M300*%
%ADD476M301*%
%ADD477M302*%
%ADD478M303*%
%ADD64R,0.05512X0.01181*%
%ADD91C,0.03100*%
%ADD94C,0.03900*%
%ADD97O,0.01260X0.05512*%
%ADD98O,0.05512X0.01260*%
X0000000Y0000000D02*
%LPD*%
G01*
D10*
X0012945Y0362701D03*
X0024756Y0362701D03*
X0036567Y0362701D03*
X0048378Y0362701D03*
X0060189Y0362701D03*
X0072000Y0362701D03*
X0083811Y0362701D03*
X0095622Y0362701D03*
X0127118Y0362701D03*
X0138929Y0362701D03*
X0150740Y0362701D03*
X0162551Y0362701D03*
X0174362Y0362701D03*
X0186173Y0362701D03*
X0197984Y0362701D03*
X0209795Y0362701D03*
X0221606Y0362701D03*
X0233417Y0362701D03*
X0245228Y0362701D03*
X0257039Y0362701D03*
X0268850Y0362701D03*
X0268850Y0380417D03*
X0257039Y0380417D03*
X0245228Y0380417D03*
X0233417Y0380417D03*
X0221606Y0380417D03*
X0209795Y0380417D03*
X0197984Y0380417D03*
X0186173Y0380417D03*
X0174362Y0380417D03*
X0162551Y0380417D03*
X0150740Y0380417D03*
X0138929Y0380417D03*
X0127118Y0380417D03*
X0095622Y0380417D03*
X0083811Y0380417D03*
X0072000Y0380417D03*
X0060189Y0380417D03*
X0048378Y0380417D03*
X0036567Y0380417D03*
X0024756Y0380417D03*
X0012945Y0380417D03*
G36*
G01*
X0066614Y0184709D02*
X0066614Y0180693D01*
G75*
G02*
X0066260Y0180339I-000354J0000000D01*
G01*
X0063425Y0180339D01*
G75*
G02*
X0063071Y0180693I0000000J0000354D01*
G01*
X0063071Y0184709D01*
G75*
G02*
X0063425Y0185063I0000354J0000000D01*
G01*
X0066260Y0185063D01*
G75*
G02*
X0066614Y0184709I0000000J-000354D01*
G01*
G37*
G36*
G01*
X0053622Y0184709D02*
X0053622Y0180693D01*
G75*
G02*
X0053268Y0180339I-000354J0000000D01*
G01*
X0050433Y0180339D01*
G75*
G02*
X0050079Y0180693I0000000J0000354D01*
G01*
X0050079Y0184709D01*
G75*
G02*
X0050433Y0185063I0000354J0000000D01*
G01*
X0053268Y0185063D01*
G75*
G02*
X0053622Y0184709I0000000J-000354D01*
G01*
G37*
G36*
G01*
X0019012Y0214110D02*
X0019012Y0215291D01*
G75*
G02*
X0019602Y0215882I0000591J0000000D01*
G01*
X0026098Y0215882D01*
G75*
G02*
X0026689Y0215291I0000000J-000591D01*
G01*
X0026689Y0214110D01*
G75*
G02*
X0026098Y0213520I-000591J0000000D01*
G01*
X0019602Y0213520D01*
G75*
G02*
X0019012Y0214110I0000000J0000591D01*
G01*
G37*
G36*
G01*
X0019012Y0209110D02*
X0019012Y0210291D01*
G75*
G02*
X0019602Y0210882I0000591J0000000D01*
G01*
X0026098Y0210882D01*
G75*
G02*
X0026689Y0210291I0000000J-000591D01*
G01*
X0026689Y0209110D01*
G75*
G02*
X0026098Y0208520I-000591J0000000D01*
G01*
X0019602Y0208520D01*
G75*
G02*
X0019012Y0209110I0000000J0000591D01*
G01*
G37*
G36*
G01*
X0019012Y0204110D02*
X0019012Y0205291D01*
G75*
G02*
X0019602Y0205882I0000591J0000000D01*
G01*
X0026098Y0205882D01*
G75*
G02*
X0026689Y0205291I0000000J-000591D01*
G01*
X0026689Y0204110D01*
G75*
G02*
X0026098Y0203520I-000591J0000000D01*
G01*
X0019602Y0203520D01*
G75*
G02*
X0019012Y0204110I0000000J0000591D01*
G01*
G37*
G36*
G01*
X0019012Y0199110D02*
X0019012Y0200291D01*
G75*
G02*
X0019602Y0200882I0000591J0000000D01*
G01*
X0026098Y0200882D01*
G75*
G02*
X0026689Y0200291I0000000J-000591D01*
G01*
X0026689Y0199110D01*
G75*
G02*
X0026098Y0198520I-000591J0000000D01*
G01*
X0019602Y0198520D01*
G75*
G02*
X0019012Y0199110I0000000J0000591D01*
G01*
G37*
G36*
G01*
X0038500Y0199110D02*
X0038500Y0200291D01*
G75*
G02*
X0039091Y0200882I0000591J0000000D01*
G01*
X0045587Y0200882D01*
G75*
G02*
X0046177Y0200291I0000000J-000591D01*
G01*
X0046177Y0199110D01*
G75*
G02*
X0045587Y0198520I-000591J0000000D01*
G01*
X0039091Y0198520D01*
G75*
G02*
X0038500Y0199110I0000000J0000591D01*
G01*
G37*
G36*
G01*
X0038500Y0204110D02*
X0038500Y0205291D01*
G75*
G02*
X0039091Y0205882I0000591J0000000D01*
G01*
X0045587Y0205882D01*
G75*
G02*
X0046177Y0205291I0000000J-000591D01*
G01*
X0046177Y0204110D01*
G75*
G02*
X0045587Y0203520I-000591J0000000D01*
G01*
X0039091Y0203520D01*
G75*
G02*
X0038500Y0204110I0000000J0000591D01*
G01*
G37*
G36*
G01*
X0038500Y0209110D02*
X0038500Y0210291D01*
G75*
G02*
X0039091Y0210882I0000591J0000000D01*
G01*
X0045587Y0210882D01*
G75*
G02*
X0046177Y0210291I0000000J-000591D01*
G01*
X0046177Y0209110D01*
G75*
G02*
X0045587Y0208520I-000591J0000000D01*
G01*
X0039091Y0208520D01*
G75*
G02*
X0038500Y0209110I0000000J0000591D01*
G01*
G37*
G36*
G01*
X0038500Y0214110D02*
X0038500Y0215291D01*
G75*
G02*
X0039091Y0215882I0000591J0000000D01*
G01*
X0045587Y0215882D01*
G75*
G02*
X0046177Y0215291I0000000J-000591D01*
G01*
X0046177Y0214110D01*
G75*
G02*
X0045587Y0213520I-000591J0000000D01*
G01*
X0039091Y0213520D01*
G75*
G02*
X0038500Y0214110I0000000J0000591D01*
G01*
G37*
D11*
X0133488Y0269575D03*
X0129748Y0269575D03*
X0126008Y0269575D03*
X0129945Y0303827D03*
X0133488Y0303827D03*
G36*
G01*
X0325882Y0270567D02*
X0323126Y0270567D01*
G75*
G02*
X0322142Y0271551I0000000J0000984D01*
G01*
X0322142Y0278244D01*
G75*
G02*
X0323126Y0279228I0000984J0000000D01*
G01*
X0325882Y0279228D01*
G75*
G02*
X0326866Y0278244I0000000J-000984D01*
G01*
X0326866Y0271551D01*
G75*
G02*
X0325882Y0270567I-000984J0000000D01*
G01*
G37*
G36*
G01*
X0343913Y0287102D02*
X0323047Y0287102D01*
G75*
G02*
X0322063Y0288087I0000000J0000984D01*
G01*
X0322063Y0311315D01*
G75*
G02*
X0323047Y0312299I0000984J0000000D01*
G01*
X0343913Y0312299D01*
G75*
G02*
X0344898Y0311315I0000000J-000984D01*
G01*
X0344898Y0288087D01*
G75*
G02*
X0343913Y0287102I-000984J0000000D01*
G01*
G37*
G36*
G01*
X0343835Y0270567D02*
X0341079Y0270567D01*
G75*
G02*
X0340094Y0271551I0000000J0000984D01*
G01*
X0340094Y0278244D01*
G75*
G02*
X0341079Y0279228I0000984J0000000D01*
G01*
X0343835Y0279228D01*
G75*
G02*
X0344819Y0278244I0000000J-000984D01*
G01*
X0344819Y0271551D01*
G75*
G02*
X0343835Y0270567I-000984J0000000D01*
G01*
G37*
G36*
G01*
X0005173Y0203165D02*
X0005173Y0206236D01*
G75*
G02*
X0005449Y0206512I0000276J0000000D01*
G01*
X0007654Y0206512D01*
G75*
G02*
X0007929Y0206236I0000000J-000276D01*
G01*
X0007929Y0203165D01*
G75*
G02*
X0007654Y0202890I-000276J0000000D01*
G01*
X0005449Y0202890D01*
G75*
G02*
X0005173Y0203165I0000000J0000276D01*
G01*
G37*
G36*
G01*
X0011472Y0203165D02*
X0011472Y0206236D01*
G75*
G02*
X0011748Y0206512I0000276J0000000D01*
G01*
X0013953Y0206512D01*
G75*
G02*
X0014228Y0206236I0000000J-000276D01*
G01*
X0014228Y0203165D01*
G75*
G02*
X0013953Y0202890I-000276J0000000D01*
G01*
X0011748Y0202890D01*
G75*
G02*
X0011472Y0203165I0000000J0000276D01*
G01*
G37*
G36*
G01*
X0066614Y0174709D02*
X0066614Y0170693D01*
G75*
G02*
X0066260Y0170339I-000354J0000000D01*
G01*
X0063425Y0170339D01*
G75*
G02*
X0063071Y0170693I0000000J0000354D01*
G01*
X0063071Y0174709D01*
G75*
G02*
X0063425Y0175063I0000354J0000000D01*
G01*
X0066260Y0175063D01*
G75*
G02*
X0066614Y0174709I0000000J-000354D01*
G01*
G37*
G36*
G01*
X0053622Y0174709D02*
X0053622Y0170693D01*
G75*
G02*
X0053268Y0170339I-000354J0000000D01*
G01*
X0050433Y0170339D01*
G75*
G02*
X0050079Y0170693I0000000J0000354D01*
G01*
X0050079Y0174709D01*
G75*
G02*
X0050433Y0175063I0000354J0000000D01*
G01*
X0053268Y0175063D01*
G75*
G02*
X0053622Y0174709I0000000J-000354D01*
G01*
G37*
G36*
G01*
X0005173Y0181165D02*
X0005173Y0184236D01*
G75*
G02*
X0005449Y0184512I0000276J0000000D01*
G01*
X0007654Y0184512D01*
G75*
G02*
X0007929Y0184236I0000000J-000276D01*
G01*
X0007929Y0181165D01*
G75*
G02*
X0007654Y0180890I-000276J0000000D01*
G01*
X0005449Y0180890D01*
G75*
G02*
X0005173Y0181165I0000000J0000276D01*
G01*
G37*
G36*
G01*
X0011472Y0181165D02*
X0011472Y0184236D01*
G75*
G02*
X0011748Y0184512I0000276J0000000D01*
G01*
X0013953Y0184512D01*
G75*
G02*
X0014228Y0184236I0000000J-000276D01*
G01*
X0014228Y0181165D01*
G75*
G02*
X0013953Y0180890I-000276J0000000D01*
G01*
X0011748Y0180890D01*
G75*
G02*
X0011472Y0181165I0000000J0000276D01*
G01*
G37*
G36*
G01*
X0286512Y0270567D02*
X0283756Y0270567D01*
G75*
G02*
X0282772Y0271551I0000000J0000984D01*
G01*
X0282772Y0278244D01*
G75*
G02*
X0283756Y0279228I0000984J0000000D01*
G01*
X0286512Y0279228D01*
G75*
G02*
X0287496Y0278244I0000000J-000984D01*
G01*
X0287496Y0271551D01*
G75*
G02*
X0286512Y0270567I-000984J0000000D01*
G01*
G37*
G36*
G01*
X0304543Y0287102D02*
X0283677Y0287102D01*
G75*
G02*
X0282693Y0288087I0000000J0000984D01*
G01*
X0282693Y0311315D01*
G75*
G02*
X0283677Y0312299I0000984J0000000D01*
G01*
X0304543Y0312299D01*
G75*
G02*
X0305528Y0311315I0000000J-000984D01*
G01*
X0305528Y0288087D01*
G75*
G02*
X0304543Y0287102I-000984J0000000D01*
G01*
G37*
G36*
G01*
X0304465Y0270567D02*
X0301709Y0270567D01*
G75*
G02*
X0300724Y0271551I0000000J0000984D01*
G01*
X0300724Y0278244D01*
G75*
G02*
X0301709Y0279228I0000984J0000000D01*
G01*
X0304465Y0279228D01*
G75*
G02*
X0305449Y0278244I0000000J-000984D01*
G01*
X0305449Y0271551D01*
G75*
G02*
X0304465Y0270567I-000984J0000000D01*
G01*
G37*
G36*
G01*
X0005173Y0170165D02*
X0005173Y0173236D01*
G75*
G02*
X0005449Y0173512I0000276J0000000D01*
G01*
X0007654Y0173512D01*
G75*
G02*
X0007929Y0173236I0000000J-000276D01*
G01*
X0007929Y0170165D01*
G75*
G02*
X0007654Y0169890I-000276J0000000D01*
G01*
X0005449Y0169890D01*
G75*
G02*
X0005173Y0170165I0000000J0000276D01*
G01*
G37*
G36*
G01*
X0011472Y0170165D02*
X0011472Y0173236D01*
G75*
G02*
X0011748Y0173512I0000276J0000000D01*
G01*
X0013953Y0173512D01*
G75*
G02*
X0014228Y0173236I0000000J-000276D01*
G01*
X0014228Y0170165D01*
G75*
G02*
X0013953Y0169890I-000276J0000000D01*
G01*
X0011748Y0169890D01*
G75*
G02*
X0011472Y0170165I0000000J0000276D01*
G01*
G37*
G36*
G01*
X0005173Y0213165D02*
X0005173Y0216236D01*
G75*
G02*
X0005449Y0216512I0000276J0000000D01*
G01*
X0007654Y0216512D01*
G75*
G02*
X0007929Y0216236I0000000J-000276D01*
G01*
X0007929Y0213165D01*
G75*
G02*
X0007654Y0212890I-000276J0000000D01*
G01*
X0005449Y0212890D01*
G75*
G02*
X0005173Y0213165I0000000J0000276D01*
G01*
G37*
G36*
G01*
X0011472Y0213165D02*
X0011472Y0216236D01*
G75*
G02*
X0011748Y0216512I0000276J0000000D01*
G01*
X0013953Y0216512D01*
G75*
G02*
X0014228Y0216236I0000000J-000276D01*
G01*
X0014228Y0213165D01*
G75*
G02*
X0013953Y0212890I-000276J0000000D01*
G01*
X0011748Y0212890D01*
G75*
G02*
X0011472Y0213165I0000000J0000276D01*
G01*
G37*
G36*
G01*
X0365252Y0270567D02*
X0362496Y0270567D01*
G75*
G02*
X0361512Y0271551I0000000J0000984D01*
G01*
X0361512Y0278244D01*
G75*
G02*
X0362496Y0279228I0000984J0000000D01*
G01*
X0365252Y0279228D01*
G75*
G02*
X0366236Y0278244I0000000J-000984D01*
G01*
X0366236Y0271551D01*
G75*
G02*
X0365252Y0270567I-000984J0000000D01*
G01*
G37*
G36*
G01*
X0383283Y0287102D02*
X0362417Y0287102D01*
G75*
G02*
X0361433Y0288087I0000000J0000984D01*
G01*
X0361433Y0311315D01*
G75*
G02*
X0362417Y0312299I0000984J0000000D01*
G01*
X0383283Y0312299D01*
G75*
G02*
X0384268Y0311315I0000000J-000984D01*
G01*
X0384268Y0288087D01*
G75*
G02*
X0383283Y0287102I-000984J0000000D01*
G01*
G37*
G36*
G01*
X0383205Y0270567D02*
X0380449Y0270567D01*
G75*
G02*
X0379465Y0271551I0000000J0000984D01*
G01*
X0379465Y0278244D01*
G75*
G02*
X0380449Y0279228I0000984J0000000D01*
G01*
X0383205Y0279228D01*
G75*
G02*
X0384189Y0278244I0000000J-000984D01*
G01*
X0384189Y0271551D01*
G75*
G02*
X0383205Y0270567I-000984J0000000D01*
G01*
G37*
D25*
X0111425Y0253118D03*
X0086228Y0253118D03*
X0078748Y0253118D03*
X0061819Y0253118D03*
D11*
X0052370Y0251346D03*
X0048433Y0251346D03*
D25*
X0037213Y0253118D03*
X0113197Y0314142D03*
X0105913Y0314142D03*
X0086425Y0314142D03*
X0038984Y0314142D03*
G36*
G01*
X0018524Y0182110D02*
X0018524Y0183291D01*
G75*
G02*
X0019114Y0183882I0000591J0000000D01*
G01*
X0025610Y0183882D01*
G75*
G02*
X0026201Y0183291I0000000J-000591D01*
G01*
X0026201Y0182110D01*
G75*
G02*
X0025610Y0181520I-000591J0000000D01*
G01*
X0019114Y0181520D01*
G75*
G02*
X0018524Y0182110I0000000J0000591D01*
G01*
G37*
G36*
G01*
X0018524Y0177110D02*
X0018524Y0178291D01*
G75*
G02*
X0019114Y0178882I0000591J0000000D01*
G01*
X0025610Y0178882D01*
G75*
G02*
X0026201Y0178291I0000000J-000591D01*
G01*
X0026201Y0177110D01*
G75*
G02*
X0025610Y0176520I-000591J0000000D01*
G01*
X0019114Y0176520D01*
G75*
G02*
X0018524Y0177110I0000000J0000591D01*
G01*
G37*
G36*
G01*
X0018524Y0172110D02*
X0018524Y0173291D01*
G75*
G02*
X0019114Y0173882I0000591J0000000D01*
G01*
X0025610Y0173882D01*
G75*
G02*
X0026201Y0173291I0000000J-000591D01*
G01*
X0026201Y0172110D01*
G75*
G02*
X0025610Y0171520I-000591J0000000D01*
G01*
X0019114Y0171520D01*
G75*
G02*
X0018524Y0172110I0000000J0000591D01*
G01*
G37*
G36*
G01*
X0018524Y0167110D02*
X0018524Y0168291D01*
G75*
G02*
X0019114Y0168882I0000591J0000000D01*
G01*
X0025610Y0168882D01*
G75*
G02*
X0026201Y0168291I0000000J-000591D01*
G01*
X0026201Y0167110D01*
G75*
G02*
X0025610Y0166520I-000591J0000000D01*
G01*
X0019114Y0166520D01*
G75*
G02*
X0018524Y0167110I0000000J0000591D01*
G01*
G37*
G36*
G01*
X0038012Y0167110D02*
X0038012Y0168291D01*
G75*
G02*
X0038602Y0168882I0000591J0000000D01*
G01*
X0045098Y0168882D01*
G75*
G02*
X0045689Y0168291I0000000J-000591D01*
G01*
X0045689Y0167110D01*
G75*
G02*
X0045098Y0166520I-000591J0000000D01*
G01*
X0038602Y0166520D01*
G75*
G02*
X0038012Y0167110I0000000J0000591D01*
G01*
G37*
G36*
G01*
X0038012Y0172110D02*
X0038012Y0173291D01*
G75*
G02*
X0038602Y0173882I0000591J0000000D01*
G01*
X0045098Y0173882D01*
G75*
G02*
X0045689Y0173291I0000000J-000591D01*
G01*
X0045689Y0172110D01*
G75*
G02*
X0045098Y0171520I-000591J0000000D01*
G01*
X0038602Y0171520D01*
G75*
G02*
X0038012Y0172110I0000000J0000591D01*
G01*
G37*
G36*
G01*
X0038012Y0177110D02*
X0038012Y0178291D01*
G75*
G02*
X0038602Y0178882I0000591J0000000D01*
G01*
X0045098Y0178882D01*
G75*
G02*
X0045689Y0178291I0000000J-000591D01*
G01*
X0045689Y0177110D01*
G75*
G02*
X0045098Y0176520I-000591J0000000D01*
G01*
X0038602Y0176520D01*
G75*
G02*
X0038012Y0177110I0000000J0000591D01*
G01*
G37*
G36*
G01*
X0038012Y0182110D02*
X0038012Y0183291D01*
G75*
G02*
X0038602Y0183882I0000591J0000000D01*
G01*
X0045098Y0183882D01*
G75*
G02*
X0045689Y0183291I0000000J-000591D01*
G01*
X0045689Y0182110D01*
G75*
G02*
X0045098Y0181520I-000591J0000000D01*
G01*
X0038602Y0181520D01*
G75*
G02*
X0038012Y0182110I0000000J0000591D01*
G01*
G37*
D36*
X0299780Y0382441D03*
X0349386Y0382441D03*
G36*
G01*
X0294465Y0347402D02*
X0294465Y0360000D01*
G75*
G02*
X0295449Y0360984I0000984J0000000D01*
G01*
X0304110Y0360984D01*
G75*
G02*
X0305094Y0360000I0000000J-000984D01*
G01*
X0305094Y0347402D01*
G75*
G02*
X0304110Y0346417I-000984J0000000D01*
G01*
X0295449Y0346417D01*
G75*
G02*
X0294465Y0347402I0000000J0000984D01*
G01*
G37*
D44*
X0316315Y0353701D03*
X0332850Y0353701D03*
X0349386Y0353701D03*
X0299780Y0332047D03*
X0316315Y0332047D03*
X0332850Y0332047D03*
X0349386Y0332047D03*
G36*
G01*
X0066614Y0216709D02*
X0066614Y0212693D01*
G75*
G02*
X0066260Y0212339I-000354J0000000D01*
G01*
X0063425Y0212339D01*
G75*
G02*
X0063071Y0212693I0000000J0000354D01*
G01*
X0063071Y0216709D01*
G75*
G02*
X0063425Y0217063I0000354J0000000D01*
G01*
X0066260Y0217063D01*
G75*
G02*
X0066614Y0216709I0000000J-000354D01*
G01*
G37*
G36*
G01*
X0053622Y0216709D02*
X0053622Y0212693D01*
G75*
G02*
X0053268Y0212339I-000354J0000000D01*
G01*
X0050433Y0212339D01*
G75*
G02*
X0050079Y0212693I0000000J0000354D01*
G01*
X0050079Y0216709D01*
G75*
G02*
X0050433Y0217063I0000354J0000000D01*
G01*
X0053268Y0217063D01*
G75*
G02*
X0053622Y0216709I0000000J-000354D01*
G01*
G37*
D11*
X0286638Y0159821D03*
X0286638Y0164545D03*
X0286638Y0155096D03*
X0286638Y0150372D03*
X0343429Y0175805D03*
X0343429Y0179742D03*
G36*
G01*
X0066614Y0206709D02*
X0066614Y0202693D01*
G75*
G02*
X0066260Y0202339I-000354J0000000D01*
G01*
X0063425Y0202339D01*
G75*
G02*
X0063071Y0202693I0000000J0000354D01*
G01*
X0063071Y0206709D01*
G75*
G02*
X0063425Y0207063I0000354J0000000D01*
G01*
X0066260Y0207063D01*
G75*
G02*
X0066614Y0206709I0000000J-000354D01*
G01*
G37*
G36*
G01*
X0053622Y0206709D02*
X0053622Y0202693D01*
G75*
G02*
X0053268Y0202339I-000354J0000000D01*
G01*
X0050433Y0202339D01*
G75*
G02*
X0050079Y0202693I0000000J0000354D01*
G01*
X0050079Y0206709D01*
G75*
G02*
X0050433Y0207063I0000354J0000000D01*
G01*
X0053268Y0207063D01*
G75*
G02*
X0053622Y0206709I0000000J-000354D01*
G01*
G37*
X0285059Y0209780D03*
X0285059Y0214504D03*
X0285059Y0205055D03*
X0285059Y0200331D03*
X0341850Y0225764D03*
X0341850Y0229701D03*
G36*
G01*
X0247142Y0270567D02*
X0244386Y0270567D01*
G75*
G02*
X0243402Y0271551I0000000J0000984D01*
G01*
X0243402Y0278244D01*
G75*
G02*
X0244386Y0279228I0000984J0000000D01*
G01*
X0247142Y0279228D01*
G75*
G02*
X0248126Y0278244I0000000J-000984D01*
G01*
X0248126Y0271551D01*
G75*
G02*
X0247142Y0270567I-000984J0000000D01*
G01*
G37*
G36*
G01*
X0265173Y0287102D02*
X0244307Y0287102D01*
G75*
G02*
X0243323Y0288087I0000000J0000984D01*
G01*
X0243323Y0311315D01*
G75*
G02*
X0244307Y0312299I0000984J0000000D01*
G01*
X0265173Y0312299D01*
G75*
G02*
X0266157Y0311315I0000000J-000984D01*
G01*
X0266157Y0288087D01*
G75*
G02*
X0265173Y0287102I-000984J0000000D01*
G01*
G37*
G36*
G01*
X0265094Y0270567D02*
X0262339Y0270567D01*
G75*
G02*
X0261354Y0271551I0000000J0000984D01*
G01*
X0261354Y0278244D01*
G75*
G02*
X0262339Y0279228I0000984J0000000D01*
G01*
X0265094Y0279228D01*
G75*
G02*
X0266079Y0278244I0000000J-000984D01*
G01*
X0266079Y0271551D01*
G75*
G02*
X0265094Y0270567I-000984J0000000D01*
G01*
G37*
X0343327Y0236945D02*
%LPD*%
G01*
D11*
X0285059Y0209780D03*
X0285059Y0214504D03*
X0285059Y0205055D03*
X0285059Y0200331D03*
X0341851Y0225764D03*
X0341851Y0229701D03*
D64*
X0309469Y0223953D03*
X0309469Y0225921D03*
X0309469Y0227890D03*
X0309469Y0229858D03*
X0309469Y0231827D03*
X0292146Y0231827D03*
X0292146Y0229858D03*
X0292146Y0227890D03*
X0292146Y0225921D03*
X0292146Y0223953D03*
G36*
G01*
X0301949Y0210764D02*
X0298878Y0210764D01*
G75*
G02*
X0298603Y0211039I0000000J0000276D01*
G01*
X0298603Y0213244D01*
G75*
G02*
X0298878Y0213520I0000276J0000000D01*
G01*
X0301949Y0213520D01*
G75*
G02*
X0302225Y0213244I0000000J-000276D01*
G01*
X0302225Y0211039D01*
G75*
G02*
X0301949Y0210764I-000276J0000000D01*
G01*
G37*
G36*
G01*
X0301949Y0217063D02*
X0298878Y0217063D01*
G75*
G02*
X0298603Y0217339I0000000J0000276D01*
G01*
X0298603Y0219543D01*
G75*
G02*
X0298878Y0219819I0000276J0000000D01*
G01*
X0301949Y0219819D01*
G75*
G02*
X0302225Y0219543I0000000J-000276D01*
G01*
X0302225Y0217339D01*
G75*
G02*
X0301949Y0217063I-000276J0000000D01*
G01*
G37*
G36*
G01*
X0287618Y0204110D02*
X0287618Y0207181D01*
G75*
G02*
X0287894Y0207457I0000276J0000000D01*
G01*
X0290099Y0207457D01*
G75*
G02*
X0290374Y0207181I0000000J-000276D01*
G01*
X0290374Y0204110D01*
G75*
G02*
X0290099Y0203835I-000276J0000000D01*
G01*
X0287894Y0203835D01*
G75*
G02*
X0287618Y0204110I0000000J0000276D01*
G01*
G37*
G36*
G01*
X0293918Y0204110D02*
X0293918Y0207181D01*
G75*
G02*
X0294193Y0207457I0000276J0000000D01*
G01*
X0296398Y0207457D01*
G75*
G02*
X0296673Y0207181I0000000J-000276D01*
G01*
X0296673Y0204110D01*
G75*
G02*
X0296398Y0203835I-000276J0000000D01*
G01*
X0294193Y0203835D01*
G75*
G02*
X0293918Y0204110I0000000J0000276D01*
G01*
G37*
G36*
G01*
X0307855Y0210764D02*
X0304784Y0210764D01*
G75*
G02*
X0304508Y0211039I0000000J0000276D01*
G01*
X0304508Y0213244D01*
G75*
G02*
X0304784Y0213520I0000276J0000000D01*
G01*
X0307855Y0213520D01*
G75*
G02*
X0308130Y0213244I0000000J-000276D01*
G01*
X0308130Y0211039D01*
G75*
G02*
X0307855Y0210764I-000276J0000000D01*
G01*
G37*
G36*
G01*
X0307855Y0217063D02*
X0304784Y0217063D01*
G75*
G02*
X0304508Y0217339I0000000J0000276D01*
G01*
X0304508Y0219543D01*
G75*
G02*
X0304784Y0219819I0000276J0000000D01*
G01*
X0307855Y0219819D01*
G75*
G02*
X0308130Y0219543I0000000J-000276D01*
G01*
X0308130Y0217339D01*
G75*
G02*
X0307855Y0217063I-000276J0000000D01*
G01*
G37*
G36*
G01*
X0318504Y0207024D02*
X0315788Y0207024D01*
G75*
G02*
X0314882Y0207929I0000000J0000906D01*
G01*
X0314882Y0213205D01*
G75*
G02*
X0315788Y0214110I0000906J0000000D01*
G01*
X0318504Y0214110D01*
G75*
G02*
X0319410Y0213205I0000000J-000906D01*
G01*
X0319410Y0207929D01*
G75*
G02*
X0318504Y0207024I-000906J0000000D01*
G01*
G37*
G36*
G01*
X0329922Y0207024D02*
X0327205Y0207024D01*
G75*
G02*
X0326299Y0207929I0000000J0000906D01*
G01*
X0326299Y0213205D01*
G75*
G02*
X0327205Y0214110I0000906J0000000D01*
G01*
X0329922Y0214110D01*
G75*
G02*
X0330827Y0213205I0000000J-000906D01*
G01*
X0330827Y0207929D01*
G75*
G02*
X0329922Y0207024I-000906J0000000D01*
G01*
G37*
G36*
G01*
X0318504Y0216866D02*
X0315788Y0216866D01*
G75*
G02*
X0314882Y0217772I0000000J0000906D01*
G01*
X0314882Y0223047D01*
G75*
G02*
X0315788Y0223953I0000906J0000000D01*
G01*
X0318504Y0223953D01*
G75*
G02*
X0319410Y0223047I0000000J-000906D01*
G01*
X0319410Y0217772D01*
G75*
G02*
X0318504Y0216866I-000906J0000000D01*
G01*
G37*
G36*
G01*
X0329922Y0216866D02*
X0327205Y0216866D01*
G75*
G02*
X0326299Y0217772I0000000J0000906D01*
G01*
X0326299Y0223047D01*
G75*
G02*
X0327205Y0223953I0000906J0000000D01*
G01*
X0329922Y0223953D01*
G75*
G02*
X0330827Y0223047I0000000J-000906D01*
G01*
X0330827Y0217772D01*
G75*
G02*
X0329922Y0216866I-000906J0000000D01*
G01*
G37*
G36*
G01*
X0340571Y0210547D02*
X0340571Y0207831D01*
G75*
G02*
X0339666Y0206925I-000906J0000000D01*
G01*
X0334390Y0206925D01*
G75*
G02*
X0333484Y0207831I0000000J0000906D01*
G01*
X0333484Y0210547D01*
G75*
G02*
X0334390Y0211453I0000906J0000000D01*
G01*
X0339666Y0211453D01*
G75*
G02*
X0340571Y0210547I0000000J-000906D01*
G01*
G37*
G36*
G01*
X0340571Y0221965D02*
X0340571Y0219248D01*
G75*
G02*
X0339666Y0218343I-000906J0000000D01*
G01*
X0334390Y0218343D01*
G75*
G02*
X0333484Y0219248I0000000J0000906D01*
G01*
X0333484Y0221965D01*
G75*
G02*
X0334390Y0222870I0000906J0000000D01*
G01*
X0339666Y0222870D01*
G75*
G02*
X0340571Y0221965I0000000J-000906D01*
G01*
G37*
G36*
G01*
X0325197Y0226315D02*
X0322481Y0226315D01*
G75*
G02*
X0321575Y0227221I0000000J0000906D01*
G01*
X0321575Y0232496D01*
G75*
G02*
X0322481Y0233402I0000906J0000000D01*
G01*
X0325197Y0233402D01*
G75*
G02*
X0326103Y0232496I0000000J-000906D01*
G01*
X0326103Y0227221D01*
G75*
G02*
X0325197Y0226315I-000906J0000000D01*
G01*
G37*
G36*
G01*
X0336614Y0226315D02*
X0333898Y0226315D01*
G75*
G02*
X0332992Y0227221I0000000J0000906D01*
G01*
X0332992Y0232496D01*
G75*
G02*
X0333898Y0233402I0000906J0000000D01*
G01*
X0336614Y0233402D01*
G75*
G02*
X0337520Y0232496I0000000J-000906D01*
G01*
X0337520Y0227221D01*
G75*
G02*
X0336614Y0226315I-000906J0000000D01*
G01*
G37*
G36*
G01*
X0299528Y0204440D02*
X0299528Y0206458D01*
G75*
G02*
X0300389Y0207319I0000861J0000000D01*
G01*
X0302111Y0207319D01*
G75*
G02*
X0302973Y0206458I0000000J-000861D01*
G01*
X0302973Y0204440D01*
G75*
G02*
X0302111Y0203579I-000861J0000000D01*
G01*
X0300389Y0203579D01*
G75*
G02*
X0299528Y0204440I0000000J0000861D01*
G01*
G37*
G36*
G01*
X0305729Y0204440D02*
X0305729Y0206458D01*
G75*
G02*
X0306590Y0207319I0000861J0000000D01*
G01*
X0308312Y0207319D01*
G75*
G02*
X0309173Y0206458I0000000J-000861D01*
G01*
X0309173Y0204440D01*
G75*
G02*
X0308312Y0203579I-000861J0000000D01*
G01*
X0306590Y0203579D01*
G75*
G02*
X0305729Y0204440I0000000J0000861D01*
G01*
G37*
G36*
G01*
X0293583Y0211402D02*
X0293583Y0214079D01*
G75*
G02*
X0293918Y0214414I0000335J0000000D01*
G01*
X0296595Y0214414D01*
G75*
G02*
X0296929Y0214079I0000000J-000335D01*
G01*
X0296929Y0211402D01*
G75*
G02*
X0296595Y0211067I-000335J0000000D01*
G01*
X0293918Y0211067D01*
G75*
G02*
X0293583Y0211402I0000000J0000335D01*
G01*
G37*
G36*
G01*
X0287362Y0211402D02*
X0287362Y0214079D01*
G75*
G02*
X0287697Y0214414I0000335J0000000D01*
G01*
X0290374Y0214414D01*
G75*
G02*
X0290709Y0214079I0000000J-000335D01*
G01*
X0290709Y0211402D01*
G75*
G02*
X0290374Y0211067I-000335J0000000D01*
G01*
X0287697Y0211067D01*
G75*
G02*
X0287362Y0211402I0000000J0000335D01*
G01*
G37*
G36*
G01*
X0287362Y0216709D02*
X0287362Y0219386D01*
G75*
G02*
X0287697Y0219721I0000335J0000000D01*
G01*
X0290374Y0219721D01*
G75*
G02*
X0290709Y0219386I0000000J-000335D01*
G01*
X0290709Y0216709D01*
G75*
G02*
X0290374Y0216374I-000335J0000000D01*
G01*
X0287697Y0216374D01*
G75*
G02*
X0287362Y0216709I0000000J0000335D01*
G01*
G37*
G36*
G01*
X0293583Y0216709D02*
X0293583Y0219386D01*
G75*
G02*
X0293918Y0219721I0000335J0000000D01*
G01*
X0296595Y0219721D01*
G75*
G02*
X0296929Y0219386I0000000J-000335D01*
G01*
X0296929Y0216709D01*
G75*
G02*
X0296595Y0216374I-000335J0000000D01*
G01*
X0293918Y0216374D01*
G75*
G02*
X0293583Y0216709I0000000J0000335D01*
G01*
G37*
G36*
G01*
X0312776Y0210508D02*
X0310099Y0210508D01*
G75*
G02*
X0309764Y0210843I0000000J0000335D01*
G01*
X0309764Y0213520D01*
G75*
G02*
X0310099Y0213854I0000335J0000000D01*
G01*
X0312776Y0213854D01*
G75*
G02*
X0313110Y0213520I0000000J-000335D01*
G01*
X0313110Y0210843D01*
G75*
G02*
X0312776Y0210508I-000335J0000000D01*
G01*
G37*
G36*
G01*
X0312776Y0216728D02*
X0310099Y0216728D01*
G75*
G02*
X0309764Y0217063I0000000J0000335D01*
G01*
X0309764Y0219740D01*
G75*
G02*
X0310099Y0220075I0000335J0000000D01*
G01*
X0312776Y0220075D01*
G75*
G02*
X0313110Y0219740I0000000J-000335D01*
G01*
X0313110Y0217063D01*
G75*
G02*
X0312776Y0216728I-000335J0000000D01*
G01*
G37*
X0267228Y0215882D02*
G01*
G75*
D97*
X0198823Y0064799D02*
D03*
X0196854Y0064799D02*
D03*
X0194886Y0064799D02*
D03*
X0192917Y0064799D02*
D03*
X0190949Y0064799D02*
D03*
X0188980Y0064799D02*
D03*
X0187012Y0064799D02*
D03*
X0185043Y0064799D02*
D03*
X0183075Y0064799D02*
D03*
X0181106Y0064799D02*
D03*
X0179138Y0064799D02*
D03*
X0177169Y0064799D02*
D03*
X0175200Y0064799D02*
D03*
X0173232Y0064799D02*
D03*
X0171263Y0064799D02*
D03*
X0169295Y0064799D02*
D03*
X0167326Y0064799D02*
D03*
X0165358Y0064799D02*
D03*
X0163389Y0064799D02*
D03*
X0161421Y0064799D02*
D03*
X0159452Y0064799D02*
D03*
X0157484Y0064799D02*
D03*
X0155515Y0064799D02*
D03*
X0153547Y0064799D02*
D03*
X0151578Y0064799D02*
D03*
X0149610Y0064799D02*
D03*
X0147641Y0064799D02*
D03*
X0145673Y0064799D02*
D03*
X0143704Y0064799D02*
D03*
X0141736Y0064799D02*
D03*
X0139767Y0064799D02*
D03*
X0137799Y0064799D02*
D03*
X0135830Y0064799D02*
D03*
X0133862Y0064799D02*
D03*
X0131893Y0064799D02*
D03*
X0129925Y0064799D02*
D03*
X0129925Y0148461D02*
D03*
X0131893Y0148461D02*
D03*
X0133862Y0148461D02*
D03*
X0135830Y0148461D02*
D03*
X0137799Y0148461D02*
D03*
X0139767Y0148461D02*
D03*
X0141736Y0148461D02*
D03*
X0143704Y0148461D02*
D03*
X0145673Y0148461D02*
D03*
X0147641Y0148461D02*
D03*
X0149610Y0148461D02*
D03*
X0151578Y0148461D02*
D03*
X0153547Y0148461D02*
D03*
X0155515Y0148461D02*
D03*
X0157484Y0148461D02*
D03*
X0159452Y0148461D02*
D03*
X0161421Y0148461D02*
D03*
X0163389Y0148461D02*
D03*
X0165358Y0148461D02*
D03*
X0167326Y0148461D02*
D03*
X0169295Y0148461D02*
D03*
X0171263Y0148461D02*
D03*
X0173232Y0148461D02*
D03*
X0175200Y0148461D02*
D03*
X0177169Y0148461D02*
D03*
X0179138Y0148461D02*
D03*
X0181106Y0148461D02*
D03*
X0183075Y0148461D02*
D03*
X0185043Y0148461D02*
D03*
X0187012Y0148461D02*
D03*
X0188980Y0148461D02*
D03*
X0190949Y0148461D02*
D03*
X0192917Y0148461D02*
D03*
X0194886Y0148461D02*
D03*
X0196854Y0148461D02*
D03*
X0198823Y0148461D02*
D03*
D98*
X0122543Y0072181D02*
D03*
X0122543Y0074150D02*
D03*
X0122543Y0076118D02*
D03*
X0122543Y0078087D02*
D03*
X0122543Y0080055D02*
D03*
X0122543Y0082024D02*
D03*
X0122543Y0083992D02*
D03*
X0122543Y0085961D02*
D03*
X0122543Y0087929D02*
D03*
X0122543Y0089898D02*
D03*
X0122543Y0091866D02*
D03*
X0122543Y0093835D02*
D03*
X0122543Y0095803D02*
D03*
X0122543Y0097772D02*
D03*
X0122543Y0099740D02*
D03*
X0122543Y0101709D02*
D03*
X0122543Y0103677D02*
D03*
X0122543Y0105646D02*
D03*
X0122543Y0107614D02*
D03*
X0122543Y0109583D02*
D03*
X0122543Y0111551D02*
D03*
X0122543Y0113520D02*
D03*
X0122543Y0115488D02*
D03*
X0122543Y0117457D02*
D03*
X0122543Y0119425D02*
D03*
X0122543Y0121394D02*
D03*
X0122543Y0123362D02*
D03*
X0122543Y0125331D02*
D03*
X0122543Y0127299D02*
D03*
X0122543Y0129268D02*
D03*
X0122543Y0131236D02*
D03*
X0122543Y0133205D02*
D03*
X0122543Y0135173D02*
D03*
X0122543Y0137142D02*
D03*
X0122543Y0139110D02*
D03*
X0122543Y0141079D02*
D03*
X0206204Y0141079D02*
D03*
X0206204Y0139110D02*
D03*
X0206204Y0137142D02*
D03*
X0206204Y0135173D02*
D03*
X0206204Y0133205D02*
D03*
X0206204Y0131236D02*
D03*
X0206204Y0129268D02*
D03*
X0206204Y0127299D02*
D03*
X0206204Y0125331D02*
D03*
X0206204Y0123362D02*
D03*
X0206204Y0121394D02*
D03*
X0206204Y0119425D02*
D03*
X0206204Y0117457D02*
D03*
X0206204Y0115488D02*
D03*
X0206204Y0113520D02*
D03*
X0206204Y0111551D02*
D03*
X0206204Y0109583D02*
D03*
X0206204Y0107614D02*
D03*
X0206204Y0105646D02*
D03*
X0206204Y0103677D02*
D03*
X0206204Y0101709D02*
D03*
X0206204Y0099740D02*
D03*
X0206204Y0097772D02*
D03*
X0206204Y0095803D02*
D03*
X0206204Y0093835D02*
D03*
X0206204Y0091866D02*
D03*
X0206204Y0089898D02*
D03*
X0206204Y0087929D02*
D03*
X0206204Y0085961D02*
D03*
X0206204Y0083992D02*
D03*
X0206204Y0082024D02*
D03*
X0206204Y0080055D02*
D03*
X0206204Y0078087D02*
D03*
X0206204Y0076118D02*
D03*
X0206204Y0074150D02*
D03*
X0206204Y0072181D02*
D03*
D329*
X0106198Y0088370D02*
D03*
X0115450Y0084630D02*
D03*
D329*
X0106198Y0080890D02*
D03*
D330*
X0259748Y0090685D02*
D03*
X0241637Y0090685D02*
D03*
D331*
X0250693Y0090685D02*
D03*
D332*
X0250693Y0066276D02*
D03*
D333*
X0229433Y0114701D02*
D03*
X0222740Y0114701D02*
D03*
X0222740Y0107614D02*
D03*
X0229433Y0107614D02*
D03*
X0229433Y0100528D02*
D03*
X0222740Y0100528D02*
D03*
X0222740Y0093441D02*
D03*
X0229433Y0093441D02*
D03*
X0239275Y0122181D02*
D03*
X0245968Y0122181D02*
D03*
X0222740Y0122181D02*
D03*
X0229433Y0122181D02*
D03*
X0239275Y0129268D02*
D03*
X0245968Y0129268D02*
D03*
X0222740Y0129268D02*
D03*
X0229433Y0129268D02*
D03*
X0239275Y0136354D02*
D03*
X0245968Y0136354D02*
D03*
X0222740Y0136354D02*
D03*
X0229433Y0136354D02*
D03*
X0245968Y0143441D02*
D03*
X0239275Y0143441D02*
D03*
X0222740Y0143441D02*
D03*
X0229433Y0143441D02*
D03*
D334*
X0106797Y0063743D02*
D03*
X0110537Y0063743D02*
D03*
X0114278Y0063743D02*
D03*
X0114278Y0073192D02*
D03*
X0110537Y0073192D02*
D03*
X0106797Y0073192D02*
D03*
D105*
X0216480Y0063441D02*
D03*
X0216480Y0068441D02*
D03*
X0221480Y0063441D02*
D03*
X0221480Y0068441D02*
D03*
X0226480Y0063441D02*
D03*
X0226480Y0068441D02*
D03*
D335*
X0262504Y0208402D02*
D03*
X0262504Y0204465D02*
D03*
X0116047Y0195410D02*
D03*
X0116047Y0199347D02*
D03*
X0219590Y0206827D02*
D03*
X0219590Y0210764D02*
D03*
X0205417Y0206827D02*
D03*
X0205417Y0210764D02*
D03*
X0186519Y0202890D02*
D03*
X0186519Y0206827D02*
D03*
X0186519Y0210764D02*
D03*
X0186519Y0206827D02*
D03*
X0177070Y0206827D02*
D03*
X0177070Y0202890D02*
D03*
X0177070Y0206827D02*
D03*
X0177070Y0210764D02*
D03*
X0153448Y0202890D02*
D03*
X0153448Y0206827D02*
D03*
X0129826Y0206827D02*
D03*
X0129826Y0202890D02*
D03*
X0129826Y0206827D02*
D03*
X0129826Y0210764D02*
D03*
X0213192Y0093047D02*
D03*
X0213192Y0089110D02*
D03*
X0125102Y0203284D02*
D03*
X0125102Y0199347D02*
D03*
X0262504Y0187732D02*
D03*
X0262504Y0191669D02*
D03*
X0251086Y0151709D02*
D03*
X0251086Y0147772D02*
D03*
X0106598Y0199347D02*
D03*
X0106598Y0195410D02*
D03*
X0111323Y0199347D02*
D03*
X0111323Y0195410D02*
D03*
X0120771Y0199347D02*
D03*
X0120771Y0195410D02*
D03*
X0257385Y0206827D02*
D03*
X0257385Y0202890D02*
D03*
X0252661Y0206827D02*
D03*
X0252661Y0202890D02*
D03*
X0247937Y0206827D02*
D03*
X0247937Y0202890D02*
D03*
X0243212Y0206827D02*
D03*
X0243212Y0202890D02*
D03*
X0257385Y0206827D02*
D03*
X0257385Y0210764D02*
D03*
X0252661Y0206827D02*
D03*
X0252661Y0210764D02*
D03*
X0247937Y0206827D02*
D03*
X0247937Y0210764D02*
D03*
X0243212Y0206827D02*
D03*
X0243212Y0210764D02*
D03*
X0238488Y0206827D02*
D03*
X0238488Y0202890D02*
D03*
X0233763Y0206827D02*
D03*
X0233763Y0202890D02*
D03*
X0229039Y0206827D02*
D03*
X0229039Y0202890D02*
D03*
X0224197Y0206827D02*
D03*
X0224197Y0202890D02*
D03*
X0238488Y0206827D02*
D03*
X0238488Y0210764D02*
D03*
X0233763Y0206827D02*
D03*
X0233763Y0210764D02*
D03*
X0229039Y0206827D02*
D03*
X0229039Y0210764D02*
D03*
X0224315Y0206827D02*
D03*
X0224315Y0210764D02*
D03*
X0219590Y0206827D02*
D03*
X0219590Y0202890D02*
D03*
X0214866Y0206827D02*
D03*
X0214866Y0202890D02*
D03*
X0210141Y0206827D02*
D03*
X0210141Y0202890D02*
D03*
X0205417Y0206827D02*
D03*
X0205417Y0202890D02*
D03*
X0214866Y0206827D02*
D03*
X0214866Y0210764D02*
D03*
X0210141Y0206827D02*
D03*
X0210141Y0210764D02*
D03*
X0200692Y0202890D02*
D03*
X0200692Y0206827D02*
D03*
X0195968Y0202890D02*
D03*
X0195968Y0206827D02*
D03*
X0191244Y0202890D02*
D03*
X0191244Y0206827D02*
D03*
X0200692Y0210764D02*
D03*
X0200692Y0206827D02*
D03*
X0195968Y0210764D02*
D03*
X0195968Y0206827D02*
D03*
X0191244Y0210764D02*
D03*
X0191244Y0206827D02*
D03*
X0181795Y0206827D02*
D03*
X0181795Y0202890D02*
D03*
X0172346Y0206827D02*
D03*
X0172346Y0202890D02*
D03*
X0167622Y0206827D02*
D03*
X0167622Y0202890D02*
D03*
X0181795Y0206827D02*
D03*
X0181795Y0210764D02*
D03*
X0172346Y0206827D02*
D03*
X0172346Y0210764D02*
D03*
X0167622Y0206827D02*
D03*
X0167622Y0210764D02*
D03*
X0162897Y0202890D02*
D03*
X0162897Y0206827D02*
D03*
X0158173Y0202890D02*
D03*
X0158173Y0206827D02*
D03*
X0148724Y0202890D02*
D03*
X0148724Y0206827D02*
D03*
X0162897Y0210764D02*
D03*
X0162897Y0206827D02*
D03*
X0158173Y0210764D02*
D03*
X0158173Y0206827D02*
D03*
X0153448Y0210764D02*
D03*
X0153448Y0206827D02*
D03*
X0148724Y0210764D02*
D03*
X0148724Y0206827D02*
D03*
X0144000Y0206827D02*
D03*
X0144000Y0202890D02*
D03*
X0139275Y0206827D02*
D03*
X0139275Y0202890D02*
D03*
X0134551Y0206827D02*
D03*
X0134551Y0202890D02*
D03*
X0144000Y0206827D02*
D03*
X0144000Y0210764D02*
D03*
X0139275Y0206827D02*
D03*
X0139275Y0210764D02*
D03*
X0134551Y0206827D02*
D03*
X0134551Y0210764D02*
D03*
X0120771Y0202890D02*
D03*
X0120771Y0206827D02*
D03*
X0116047Y0202890D02*
D03*
X0116047Y0206827D02*
D03*
X0111323Y0202890D02*
D03*
X0111323Y0206827D02*
D03*
X0106598Y0202890D02*
D03*
X0106598Y0206827D02*
D03*
X0120771Y0210764D02*
D03*
X0120771Y0206827D02*
D03*
X0116047Y0210764D02*
D03*
X0116047Y0206827D02*
D03*
X0111323Y0210764D02*
D03*
X0111323Y0206827D02*
D03*
X0106598Y0210764D02*
D03*
X0106598Y0206827D02*
D03*
X0262504Y0196788D02*
D03*
X0262504Y0200725D02*
D03*
X0227071Y0083992D02*
D03*
X0227071Y0080055D02*
D03*
D336*
X0207779Y0190095D02*
D03*
X0207779Y0193835D02*
D03*
X0207779Y0197575D02*
D03*
X0217228Y0197575D02*
D03*
X0217228Y0193835D02*
D03*
X0217228Y0190095D02*
D03*
X0245574Y0190095D02*
D03*
X0245574Y0193835D02*
D03*
X0245574Y0197575D02*
D03*
X0255023Y0197575D02*
D03*
X0255023Y0193835D02*
D03*
X0255023Y0190095D02*
D03*
X0226677Y0190095D02*
D03*
X0226677Y0193835D02*
D03*
X0226677Y0197575D02*
D03*
X0236126Y0197575D02*
D03*
X0236126Y0193835D02*
D03*
X0236126Y0190095D02*
D03*
X0188881Y0190095D02*
D03*
X0188881Y0193835D02*
D03*
X0188881Y0197575D02*
D03*
X0198330Y0197575D02*
D03*
X0198330Y0193835D02*
D03*
X0198330Y0190095D02*
D03*
X0169984Y0190095D02*
D03*
X0169984Y0193835D02*
D03*
X0169984Y0197575D02*
D03*
X0179433Y0197575D02*
D03*
X0179433Y0193835D02*
D03*
X0179433Y0190095D02*
D03*
X0151086Y0190095D02*
D03*
X0151086Y0193835D02*
D03*
X0151086Y0197575D02*
D03*
X0160535Y0197575D02*
D03*
X0160535Y0193835D02*
D03*
X0160535Y0190095D02*
D03*
X0132189Y0190095D02*
D03*
X0132189Y0193835D02*
D03*
X0132189Y0197575D02*
D03*
X0141637Y0197575D02*
D03*
X0141637Y0193835D02*
D03*
X0141637Y0190095D02*
D03*
D337*
X0110535Y0159977D02*
D03*
X0110535Y0142260D02*
D03*
D109*
X0124826Y0210764D02*
D03*
X0262504Y0212732D02*
D03*
D338*
X0256204Y0137240D02*
D03*
X0263291Y0137240D02*
D03*
X0263291Y0147280D02*
D03*
X0256204Y0147280D02*
D03*
X0256204Y0131138D02*
D03*
X0263291Y0131138D02*
D03*
X0263291Y0121098D02*
D03*
X0256204Y0121098D02*
D03*
D339*
X0263291Y0143835D02*
D03*
X0263291Y0140685D02*
D03*
X0256204Y0140685D02*
D03*
X0256204Y0143835D02*
D03*
X0256204Y0127693D02*
D03*
X0256204Y0124543D02*
D03*
X0263291Y0124543D02*
D03*
X0263291Y0127693D02*
D03*
D340*
X0108567Y0094229D02*
D03*
X0108567Y0110764D02*
D03*
X0108567Y0133598D02*
D03*
X0108567Y0117063D02*
D03*
D113*
X0121362Y0160764D02*
D03*
X0123921Y0160764D02*
D03*
X0126480Y0160764D02*
D03*
X0129039Y0160764D02*
D03*
X0131598Y0160764D02*
D03*
X0134157Y0160764D02*
D03*
X0136716Y0160764D02*
D03*
X0121362Y0183205D02*
D03*
X0123921Y0183205D02*
D03*
X0126480Y0183205D02*
D03*
X0129039Y0183205D02*
D03*
X0131598Y0183205D02*
D03*
X0134157Y0183205D02*
D03*
X0136716Y0183205D02*
D03*
X0189866Y0160764D02*
D03*
X0192425Y0160764D02*
D03*
X0194984Y0160764D02*
D03*
X0197543Y0160764D02*
D03*
X0200102Y0160764D02*
D03*
X0202661Y0160764D02*
D03*
X0205220Y0160764D02*
D03*
X0189866Y0183205D02*
D03*
X0192425Y0183205D02*
D03*
X0194984Y0183205D02*
D03*
X0197543Y0183205D02*
D03*
X0200102Y0183205D02*
D03*
X0202661Y0183205D02*
D03*
X0205220Y0183205D02*
D03*
X0167031Y0160764D02*
D03*
X0169590Y0160764D02*
D03*
X0172149Y0160764D02*
D03*
X0174708Y0160764D02*
D03*
X0177267Y0160764D02*
D03*
X0179826Y0160764D02*
D03*
X0182385Y0160764D02*
D03*
X0167031Y0183205D02*
D03*
X0169590Y0183205D02*
D03*
X0172149Y0183205D02*
D03*
X0174708Y0183205D02*
D03*
X0177267Y0183205D02*
D03*
X0179826Y0183205D02*
D03*
X0182385Y0183205D02*
D03*
X0144197Y0160764D02*
D03*
X0146756Y0160764D02*
D03*
X0149315Y0160764D02*
D03*
X0151874Y0160764D02*
D03*
X0154433Y0160764D02*
D03*
X0156992Y0160764D02*
D03*
X0159551Y0160764D02*
D03*
X0144197Y0183205D02*
D03*
X0146756Y0183205D02*
D03*
X0149315Y0183205D02*
D03*
X0151874Y0183205D02*
D03*
X0154433Y0183205D02*
D03*
X0156992Y0183205D02*
D03*
X0159551Y0183205D02*
D03*
D114*
X0211519Y0172181D02*
D03*
X0211519Y0169622D02*
D03*
X0211519Y0167063D02*
D03*
X0211519Y0164504D02*
D03*
X0211519Y0161945D02*
D03*
X0211519Y0159386D02*
D03*
X0211519Y0156827D02*
D03*
X0233960Y0172181D02*
D03*
X0233960Y0169622D02*
D03*
X0233960Y0167063D02*
D03*
X0233960Y0164504D02*
D03*
X0233960Y0161945D02*
D03*
X0233960Y0159386D02*
D03*
X0233960Y0156827D02*
D03*
X0239472Y0172181D02*
D03*
X0239472Y0169622D02*
D03*
X0239472Y0167063D02*
D03*
X0239472Y0164504D02*
D03*
X0239472Y0161945D02*
D03*
X0239472Y0159386D02*
D03*
X0239472Y0156827D02*
D03*
X0261913Y0172181D02*
D03*
X0261913Y0169622D02*
D03*
X0261913Y0167063D02*
D03*
X0261913Y0164504D02*
D03*
X0261913Y0161945D02*
D03*
X0261913Y0159386D02*
D03*
X0261913Y0156827D02*
D03*
D341*
X0228842Y0183795D02*
D03*
X0228842Y0181236D02*
D03*
X0228842Y0178677D02*
D03*
X0236322Y0183795D02*
D03*
X0236322Y0181236D02*
D03*
X0236322Y0178677D02*
D03*
X0248921Y0178677D02*
D03*
X0248921Y0181236D02*
D03*
X0248921Y0183795D02*
D03*
X0241441Y0178677D02*
D03*
X0241441Y0181236D02*
D03*
X0241441Y0183795D02*
D03*
X0253645Y0183795D02*
D03*
X0253645Y0181236D02*
D03*
X0253645Y0178677D02*
D03*
X0261126Y0183795D02*
D03*
X0261126Y0181236D02*
D03*
X0261126Y0178677D02*
D03*
X0224118Y0178677D02*
D03*
X0224118Y0181236D02*
D03*
X0224118Y0183795D02*
D03*
X0216637Y0178677D02*
D03*
X0216637Y0181236D02*
D03*
X0216637Y0183795D02*
D03*
D116*
X0259944Y0099325D02*
D03*
X0259944Y0104325D02*
D03*
X0259944Y0109325D02*
D03*
X0259944Y0114325D02*
D03*
X0241046Y0099325D02*
D03*
X0241046Y0104325D02*
D03*
X0241046Y0109325D02*
D03*
X0241046Y0114325D02*
D03*
D342*
X0107582Y0166866D02*
D03*
X0110141Y0166866D02*
D03*
X0112700Y0166866D02*
D03*
X0107582Y0174347D02*
D03*
X0110141Y0174347D02*
D03*
X0112700Y0174347D02*
D03*
X0107582Y0182221D02*
D03*
X0110141Y0182221D02*
D03*
X0112700Y0182221D02*
D03*
X0107582Y0189701D02*
D03*
X0110141Y0189701D02*
D03*
X0112700Y0189701D02*
D03*
D118*
X0221411Y0083205D02*
D03*
X0221411Y0081236D02*
D03*
X0221411Y0079268D02*
D03*
X0215407Y0079268D02*
D03*
X0215407Y0081236D02*
D03*
X0215407Y0083205D02*
D03*
D119*
X0219393Y0078234D02*
D03*
X0217425Y0078234D02*
D03*
X0217425Y0084238D02*
D03*
X0219393Y0084238D02*
D03*
D343*
X0232287Y0085173D02*
D03*
X0232287Y0078480D02*
D03*
D344*
X0223527Y0150134D02*
D03*
X0227464Y0150134D02*
D03*
D122*
X0211480Y0065941D02*
D03*
X0231480Y0069941D02*
D03*
X0231480Y0061941D02*
D03*
D123*
X0173133Y0154465D02*
D03*
X0125889Y0150134D02*
D03*
X0131007Y0154858D02*
D03*
X0142819Y0154858D02*
D03*
X0154236Y0154858D02*
D03*
X0190456Y0154858D02*
D03*
X0207386Y0153677D02*
D03*
D25*
X0262897Y0062339D02*
D03*
X0123252Y0305008D02*
G01*
G75*
D390*
X0133476Y0290303D02*
D03*
X0125996Y0290303D02*
D03*
X0125996Y0298768D02*
D03*
X0129736Y0298768D02*
D03*
X0133476Y0274654D02*
D03*
X0125996Y0274654D02*
D03*
X0125996Y0283118D02*
D03*
X0129736Y0283118D02*
D03*
D390*
X0133476Y0298768D02*
D03*
X0133476Y0283118D02*
D03*
D168*
X0133488Y0269575D02*
D03*
X0129748Y0269575D02*
D03*
X0126008Y0269575D02*
D03*
X0129945Y0303827D02*
D03*
X0133488Y0303827D02*
D03*
X0077850Y0016701D02*
%LPD*%
G01*
G36*
G01*
X0042141Y0084309D02*
X0042141Y0082951D01*
G75*
G02*
X0041561Y0082370I-000581J0000000D01*
G01*
X0040399Y0082370D01*
G75*
G02*
X0039819Y0082951I0000000J0000581D01*
G01*
X0039819Y0084309D01*
G75*
G02*
X0040399Y0084890I0000581J0000000D01*
G01*
X0041561Y0084890D01*
G75*
G02*
X0042141Y0084309I0000000J-000581D01*
G01*
G37*
G36*
G01*
X0038322Y0084309D02*
X0038322Y0082951D01*
G75*
G02*
X0037742Y0082370I-000581J0000000D01*
G01*
X0036580Y0082370D01*
G75*
G02*
X0036000Y0082951I0000000J0000581D01*
G01*
X0036000Y0084309D01*
G75*
G02*
X0036580Y0084890I0000581J0000000D01*
G01*
X0037742Y0084890D01*
G75*
G02*
X0038322Y0084309I0000000J-000581D01*
G01*
G37*
G36*
G01*
X0057565Y0025736D02*
X0056206Y0025736D01*
G75*
G02*
X0055626Y0026317I0000000J0000581D01*
G01*
X0055626Y0027479D01*
G75*
G02*
X0056206Y0028059I0000581J0000000D01*
G01*
X0057565Y0028059D01*
G75*
G02*
X0058145Y0027479I0000000J-000581D01*
G01*
X0058145Y0026317D01*
G75*
G02*
X0057565Y0025736I-000581J0000000D01*
G01*
G37*
G36*
G01*
X0057565Y0029555D02*
X0056206Y0029555D01*
G75*
G02*
X0055626Y0030136I0000000J0000581D01*
G01*
X0055626Y0031297D01*
G75*
G02*
X0056206Y0031878I0000581J0000000D01*
G01*
X0057565Y0031878D01*
G75*
G02*
X0058145Y0031297I0000000J-000581D01*
G01*
X0058145Y0030136D01*
G75*
G02*
X0057565Y0029555I-000581J0000000D01*
G01*
G37*
G36*
G01*
X0042368Y0036263D02*
X0042368Y0038281D01*
G75*
G02*
X0043229Y0039142I0000861J0000000D01*
G01*
X0044951Y0039142D01*
G75*
G02*
X0045813Y0038281I0000000J-000861D01*
G01*
X0045813Y0036263D01*
G75*
G02*
X0044951Y0035402I-000861J0000000D01*
G01*
X0043229Y0035402D01*
G75*
G02*
X0042368Y0036263I0000000J0000861D01*
G01*
G37*
G36*
G01*
X0048569Y0036263D02*
X0048569Y0038281D01*
G75*
G02*
X0049430Y0039142I0000861J0000000D01*
G01*
X0051152Y0039142D01*
G75*
G02*
X0052013Y0038281I0000000J-000861D01*
G01*
X0052013Y0036263D01*
G75*
G02*
X0051152Y0035402I-000861J0000000D01*
G01*
X0049430Y0035402D01*
G75*
G02*
X0048569Y0036263I0000000J0000861D01*
G01*
G37*
G36*
G01*
X0067397Y0082754D02*
X0067397Y0084112D01*
G75*
G02*
X0067978Y0084693I0000581J0000000D01*
G01*
X0069139Y0084693D01*
G75*
G02*
X0069720Y0084112I0000000J-000581D01*
G01*
X0069720Y0082754D01*
G75*
G02*
X0069139Y0082173I-000581J0000000D01*
G01*
X0067978Y0082173D01*
G75*
G02*
X0067397Y0082754I0000000J0000581D01*
G01*
G37*
G36*
G01*
X0071216Y0082754D02*
X0071216Y0084112D01*
G75*
G02*
X0071797Y0084693I0000581J0000000D01*
G01*
X0072958Y0084693D01*
G75*
G02*
X0073539Y0084112I0000000J-000581D01*
G01*
X0073539Y0082754D01*
G75*
G02*
X0072958Y0082173I-000581J0000000D01*
G01*
X0071797Y0082173D01*
G75*
G02*
X0071216Y0082754I0000000J0000581D01*
G01*
G37*
D181*
X0051570Y0031563D03*
X0044090Y0031563D03*
X0047830Y0023689D03*
G36*
G01*
X0067397Y0078571D02*
X0067397Y0079929D01*
G75*
G02*
X0067978Y0080510I0000581J0000000D01*
G01*
X0069139Y0080510D01*
G75*
G02*
X0069720Y0079929I0000000J-000581D01*
G01*
X0069720Y0078571D01*
G75*
G02*
X0069139Y0077990I-000581J0000000D01*
G01*
X0067978Y0077990D01*
G75*
G02*
X0067397Y0078571I0000000J0000581D01*
G01*
G37*
G36*
G01*
X0071216Y0078571D02*
X0071216Y0079929D01*
G75*
G02*
X0071797Y0080510I0000581J0000000D01*
G01*
X0072958Y0080510D01*
G75*
G02*
X0073539Y0079929I0000000J-000581D01*
G01*
X0073539Y0078571D01*
G75*
G02*
X0072958Y0077990I-000581J0000000D01*
G01*
X0071797Y0077990D01*
G75*
G02*
X0071216Y0078571I0000000J0000581D01*
G01*
G37*
G36*
G01*
X0043480Y0082951D02*
X0043480Y0084309D01*
G75*
G02*
X0044061Y0084890I0000581J0000000D01*
G01*
X0045222Y0084890D01*
G75*
G02*
X0045803Y0084309I0000000J-000581D01*
G01*
X0045803Y0082951D01*
G75*
G02*
X0045222Y0082370I-000581J0000000D01*
G01*
X0044061Y0082370D01*
G75*
G02*
X0043480Y0082951I0000000J0000581D01*
G01*
G37*
G36*
G01*
X0047299Y0082951D02*
X0047299Y0084309D01*
G75*
G02*
X0047880Y0084890I0000581J0000000D01*
G01*
X0049041Y0084890D01*
G75*
G02*
X0049622Y0084309I0000000J-000581D01*
G01*
X0049622Y0082951D01*
G75*
G02*
X0049041Y0082370I-000581J0000000D01*
G01*
X0047880Y0082370D01*
G75*
G02*
X0047299Y0082951I0000000J0000581D01*
G01*
G37*
G36*
G01*
X0031216Y0079191D02*
X0031216Y0077833D01*
G75*
G02*
X0030635Y0077252I-000581J0000000D01*
G01*
X0029474Y0077252D01*
G75*
G02*
X0028893Y0077833I0000000J0000581D01*
G01*
X0028893Y0079191D01*
G75*
G02*
X0029474Y0079772I0000581J0000000D01*
G01*
X0030635Y0079772D01*
G75*
G02*
X0031216Y0079191I0000000J-000581D01*
G01*
G37*
G36*
G01*
X0027397Y0079191D02*
X0027397Y0077833D01*
G75*
G02*
X0026817Y0077252I-000581J0000000D01*
G01*
X0025655Y0077252D01*
G75*
G02*
X0025074Y0077833I0000000J0000581D01*
G01*
X0025074Y0079191D01*
G75*
G02*
X0025655Y0079772I0000581J0000000D01*
G01*
X0026817Y0079772D01*
G75*
G02*
X0027397Y0079191I0000000J-000581D01*
G01*
G37*
G36*
G01*
X0057988Y0084309D02*
X0057988Y0082951D01*
G75*
G02*
X0057407Y0082370I-000581J0000000D01*
G01*
X0056246Y0082370D01*
G75*
G02*
X0055665Y0082951I0000000J0000581D01*
G01*
X0055665Y0084309D01*
G75*
G02*
X0056246Y0084890I0000581J0000000D01*
G01*
X0057407Y0084890D01*
G75*
G02*
X0057988Y0084309I0000000J-000581D01*
G01*
G37*
G36*
G01*
X0054169Y0084309D02*
X0054169Y0082951D01*
G75*
G02*
X0053588Y0082370I-000581J0000000D01*
G01*
X0052427Y0082370D01*
G75*
G02*
X0051846Y0082951I0000000J0000581D01*
G01*
X0051846Y0084309D01*
G75*
G02*
X0052427Y0084890I0000581J0000000D01*
G01*
X0053588Y0084890D01*
G75*
G02*
X0054169Y0084309I0000000J-000581D01*
G01*
G37*
G36*
G01*
X0031216Y0044545D02*
X0031216Y0043187D01*
G75*
G02*
X0030635Y0042607I-000581J0000000D01*
G01*
X0029474Y0042607D01*
G75*
G02*
X0028893Y0043187I0000000J0000581D01*
G01*
X0028893Y0044545D01*
G75*
G02*
X0029474Y0045126I0000581J0000000D01*
G01*
X0030635Y0045126D01*
G75*
G02*
X0031216Y0044545I0000000J-000581D01*
G01*
G37*
G36*
G01*
X0027397Y0044545D02*
X0027397Y0043187D01*
G75*
G02*
X0026817Y0042607I-000581J0000000D01*
G01*
X0025655Y0042607D01*
G75*
G02*
X0025074Y0043187I0000000J0000581D01*
G01*
X0025074Y0044545D01*
G75*
G02*
X0025655Y0045126I0000581J0000000D01*
G01*
X0026817Y0045126D01*
G75*
G02*
X0027397Y0044545I0000000J-000581D01*
G01*
G37*
D399*
X0037889Y0108984D03*
D179*
X0066236Y0107882D03*
X0054425Y0100008D03*
X0066236Y0092134D03*
D400*
X0062693Y0100008D03*
D399*
X0037889Y0091032D03*
G36*
G01*
X0057663Y0033512D02*
X0056305Y0033512D01*
G75*
G02*
X0055724Y0034093I0000000J0000581D01*
G01*
X0055724Y0035254D01*
G75*
G02*
X0056305Y0035835I0000581J0000000D01*
G01*
X0057663Y0035835D01*
G75*
G02*
X0058244Y0035254I0000000J-000581D01*
G01*
X0058244Y0034093D01*
G75*
G02*
X0057663Y0033512I-000581J0000000D01*
G01*
G37*
G36*
G01*
X0057663Y0037331D02*
X0056305Y0037331D01*
G75*
G02*
X0055724Y0037912I0000000J0000581D01*
G01*
X0055724Y0039073D01*
G75*
G02*
X0056305Y0039654I0000581J0000000D01*
G01*
X0057663Y0039654D01*
G75*
G02*
X0058244Y0039073I0000000J-000581D01*
G01*
X0058244Y0037912D01*
G75*
G02*
X0057663Y0037331I-000581J0000000D01*
G01*
G37*
G36*
G01*
X0071329Y0072016D02*
X0073347Y0072016D01*
G75*
G02*
X0074208Y0071155I0000000J-000861D01*
G01*
X0074208Y0069432D01*
G75*
G02*
X0073347Y0068571I-000861J0000000D01*
G01*
X0071329Y0068571D01*
G75*
G02*
X0070468Y0069432I0000000J0000861D01*
G01*
X0070468Y0071155D01*
G75*
G02*
X0071329Y0072016I0000861J0000000D01*
G01*
G37*
G36*
G01*
X0071329Y0065815D02*
X0073347Y0065815D01*
G75*
G02*
X0074208Y0064954I0000000J-000861D01*
G01*
X0074208Y0063232D01*
G75*
G02*
X0073347Y0062370I-000861J0000000D01*
G01*
X0071329Y0062370D01*
G75*
G02*
X0070468Y0063232I0000000J0000861D01*
G01*
X0070468Y0064954D01*
G75*
G02*
X0071329Y0065815I0000861J0000000D01*
G01*
G37*
G36*
G01*
X0067397Y0074388D02*
X0067397Y0075746D01*
G75*
G02*
X0067978Y0076327I0000581J0000000D01*
G01*
X0069139Y0076327D01*
G75*
G02*
X0069720Y0075746I0000000J-000581D01*
G01*
X0069720Y0074388D01*
G75*
G02*
X0069139Y0073807I-000581J0000000D01*
G01*
X0067978Y0073807D01*
G75*
G02*
X0067397Y0074388I0000000J0000581D01*
G01*
G37*
G36*
G01*
X0071216Y0074388D02*
X0071216Y0075746D01*
G75*
G02*
X0071797Y0076327I0000581J0000000D01*
G01*
X0072958Y0076327D01*
G75*
G02*
X0073539Y0075746I0000000J-000581D01*
G01*
X0073539Y0074388D01*
G75*
G02*
X0072958Y0073807I-000581J0000000D01*
G01*
X0071797Y0073807D01*
G75*
G02*
X0071216Y0074388I0000000J0000581D01*
G01*
G37*
G36*
G01*
X0071944Y0118497D02*
X0071944Y0116480D01*
G75*
G02*
X0071083Y0115618I-000861J0000000D01*
G01*
X0069361Y0115618D01*
G75*
G02*
X0068500Y0116480I0000000J0000861D01*
G01*
X0068500Y0118497D01*
G75*
G02*
X0069361Y0119358I0000861J0000000D01*
G01*
X0071083Y0119358D01*
G75*
G02*
X0071944Y0118497I0000000J-000861D01*
G01*
G37*
G36*
G01*
X0065744Y0118497D02*
X0065744Y0116480D01*
G75*
G02*
X0064882Y0115618I-000861J0000000D01*
G01*
X0063160Y0115618D01*
G75*
G02*
X0062299Y0116480I0000000J0000861D01*
G01*
X0062299Y0118497D01*
G75*
G02*
X0063160Y0119358I0000861J0000000D01*
G01*
X0064882Y0119358D01*
G75*
G02*
X0065744Y0118497I0000000J-000861D01*
G01*
G37*
G36*
G01*
X0073347Y0050658D02*
X0071329Y0050658D01*
G75*
G02*
X0070468Y0051519I0000000J0000861D01*
G01*
X0070468Y0053241D01*
G75*
G02*
X0071329Y0054103I0000861J0000000D01*
G01*
X0073347Y0054103D01*
G75*
G02*
X0074208Y0053241I0000000J-000861D01*
G01*
X0074208Y0051519D01*
G75*
G02*
X0073347Y0050658I-000861J0000000D01*
G01*
G37*
G36*
G01*
X0073347Y0056858D02*
X0071329Y0056858D01*
G75*
G02*
X0070468Y0057720I0000000J0000861D01*
G01*
X0070468Y0059442D01*
G75*
G02*
X0071329Y0060303I0000861J0000000D01*
G01*
X0073347Y0060303D01*
G75*
G02*
X0074208Y0059442I0000000J-000861D01*
G01*
X0074208Y0057720D01*
G75*
G02*
X0073347Y0056858I-000861J0000000D01*
G01*
G37*
G36*
G01*
X0069169Y0046337D02*
X0069169Y0047695D01*
G75*
G02*
X0069750Y0048276I0000581J0000000D01*
G01*
X0070911Y0048276D01*
G75*
G02*
X0071492Y0047695I0000000J-000581D01*
G01*
X0071492Y0046337D01*
G75*
G02*
X0070911Y0045756I-000581J0000000D01*
G01*
X0069750Y0045756D01*
G75*
G02*
X0069169Y0046337I0000000J0000581D01*
G01*
G37*
G36*
G01*
X0072988Y0046337D02*
X0072988Y0047695D01*
G75*
G02*
X0073569Y0048276I0000581J0000000D01*
G01*
X0074730Y0048276D01*
G75*
G02*
X0075311Y0047695I0000000J-000581D01*
G01*
X0075311Y0046337D01*
G75*
G02*
X0074730Y0045756I-000581J0000000D01*
G01*
X0073569Y0045756D01*
G75*
G02*
X0072988Y0046337I0000000J0000581D01*
G01*
G37*
G36*
G01*
X0056492Y0080776D02*
X0057476Y0080776D01*
G75*
G02*
X0057968Y0080284I0000000J-000492D01*
G01*
X0057968Y0075362D01*
G75*
G02*
X0057476Y0074870I-000492J0000000D01*
G01*
X0056492Y0074870D01*
G75*
G02*
X0056000Y0075362I0000000J0000492D01*
G01*
X0056000Y0080284D01*
G75*
G02*
X0056492Y0080776I0000492J0000000D01*
G01*
G37*
G36*
G01*
X0053342Y0080776D02*
X0054326Y0080776D01*
G75*
G02*
X0054819Y0080284I0000000J-000492D01*
G01*
X0054819Y0075362D01*
G75*
G02*
X0054326Y0074870I-000492J0000000D01*
G01*
X0053342Y0074870D01*
G75*
G02*
X0052850Y0075362I0000000J0000492D01*
G01*
X0052850Y0080284D01*
G75*
G02*
X0053342Y0080776I0000492J0000000D01*
G01*
G37*
G36*
G01*
X0050193Y0080776D02*
X0051177Y0080776D01*
G75*
G02*
X0051669Y0080284I0000000J-000492D01*
G01*
X0051669Y0075362D01*
G75*
G02*
X0051177Y0074870I-000492J0000000D01*
G01*
X0050193Y0074870D01*
G75*
G02*
X0049700Y0075362I0000000J0000492D01*
G01*
X0049700Y0080284D01*
G75*
G02*
X0050193Y0080776I0000492J0000000D01*
G01*
G37*
G36*
G01*
X0047043Y0080776D02*
X0048027Y0080776D01*
G75*
G02*
X0048519Y0080284I0000000J-000492D01*
G01*
X0048519Y0075362D01*
G75*
G02*
X0048027Y0074870I-000492J0000000D01*
G01*
X0047043Y0074870D01*
G75*
G02*
X0046551Y0075362I0000000J0000492D01*
G01*
X0046551Y0080284D01*
G75*
G02*
X0047043Y0080776I0000492J0000000D01*
G01*
G37*
G36*
G01*
X0043893Y0080776D02*
X0044878Y0080776D01*
G75*
G02*
X0045370Y0080284I0000000J-000492D01*
G01*
X0045370Y0075362D01*
G75*
G02*
X0044878Y0074870I-000492J0000000D01*
G01*
X0043893Y0074870D01*
G75*
G02*
X0043401Y0075362I0000000J0000492D01*
G01*
X0043401Y0080284D01*
G75*
G02*
X0043893Y0080776I0000492J0000000D01*
G01*
G37*
G36*
G01*
X0040744Y0080776D02*
X0041728Y0080776D01*
G75*
G02*
X0042220Y0080284I0000000J-000492D01*
G01*
X0042220Y0075362D01*
G75*
G02*
X0041728Y0074870I-000492J0000000D01*
G01*
X0040744Y0074870D01*
G75*
G02*
X0040252Y0075362I0000000J0000492D01*
G01*
X0040252Y0080284D01*
G75*
G02*
X0040744Y0080776I0000492J0000000D01*
G01*
G37*
G36*
G01*
X0037594Y0080776D02*
X0038578Y0080776D01*
G75*
G02*
X0039070Y0080284I0000000J-000492D01*
G01*
X0039070Y0075362D01*
G75*
G02*
X0038578Y0074870I-000492J0000000D01*
G01*
X0037594Y0074870D01*
G75*
G02*
X0037102Y0075362I0000000J0000492D01*
G01*
X0037102Y0080284D01*
G75*
G02*
X0037594Y0080776I0000492J0000000D01*
G01*
G37*
G36*
G01*
X0034444Y0080776D02*
X0035429Y0080776D01*
G75*
G02*
X0035921Y0080284I0000000J-000492D01*
G01*
X0035921Y0075362D01*
G75*
G02*
X0035429Y0074870I-000492J0000000D01*
G01*
X0034444Y0074870D01*
G75*
G02*
X0033952Y0075362I0000000J0000492D01*
G01*
X0033952Y0080284D01*
G75*
G02*
X0034444Y0080776I0000492J0000000D01*
G01*
G37*
G36*
G01*
X0027063Y0073394D02*
X0031984Y0073394D01*
G75*
G02*
X0032476Y0072902I0000000J-000492D01*
G01*
X0032476Y0071918D01*
G75*
G02*
X0031984Y0071425I-000492J0000000D01*
G01*
X0027063Y0071425D01*
G75*
G02*
X0026570Y0071918I0000000J0000492D01*
G01*
X0026570Y0072902D01*
G75*
G02*
X0027063Y0073394I0000492J0000000D01*
G01*
G37*
G36*
G01*
X0027063Y0070244D02*
X0031984Y0070244D01*
G75*
G02*
X0032476Y0069752I0000000J-000492D01*
G01*
X0032476Y0068768D01*
G75*
G02*
X0031984Y0068276I-000492J0000000D01*
G01*
X0027063Y0068276D01*
G75*
G02*
X0026570Y0068768I0000000J0000492D01*
G01*
X0026570Y0069752D01*
G75*
G02*
X0027063Y0070244I0000492J0000000D01*
G01*
G37*
G36*
G01*
X0027063Y0067095D02*
X0031984Y0067095D01*
G75*
G02*
X0032476Y0066603I0000000J-000492D01*
G01*
X0032476Y0065618D01*
G75*
G02*
X0031984Y0065126I-000492J0000000D01*
G01*
X0027063Y0065126D01*
G75*
G02*
X0026570Y0065618I0000000J0000492D01*
G01*
X0026570Y0066603D01*
G75*
G02*
X0027063Y0067095I0000492J0000000D01*
G01*
G37*
G36*
G01*
X0027063Y0063945D02*
X0031984Y0063945D01*
G75*
G02*
X0032476Y0063453I0000000J-000492D01*
G01*
X0032476Y0062469D01*
G75*
G02*
X0031984Y0061977I-000492J0000000D01*
G01*
X0027063Y0061977D01*
G75*
G02*
X0026570Y0062469I0000000J0000492D01*
G01*
X0026570Y0063453D01*
G75*
G02*
X0027063Y0063945I0000492J0000000D01*
G01*
G37*
G36*
G01*
X0027063Y0060795D02*
X0031984Y0060795D01*
G75*
G02*
X0032476Y0060303I0000000J-000492D01*
G01*
X0032476Y0059319D01*
G75*
G02*
X0031984Y0058827I-000492J0000000D01*
G01*
X0027063Y0058827D01*
G75*
G02*
X0026570Y0059319I0000000J0000492D01*
G01*
X0026570Y0060303D01*
G75*
G02*
X0027063Y0060795I0000492J0000000D01*
G01*
G37*
G36*
G01*
X0027063Y0057646D02*
X0031984Y0057646D01*
G75*
G02*
X0032476Y0057154I0000000J-000492D01*
G01*
X0032476Y0056170D01*
G75*
G02*
X0031984Y0055677I-000492J0000000D01*
G01*
X0027063Y0055677D01*
G75*
G02*
X0026570Y0056170I0000000J0000492D01*
G01*
X0026570Y0057154D01*
G75*
G02*
X0027063Y0057646I0000492J0000000D01*
G01*
G37*
G36*
G01*
X0027063Y0054496D02*
X0031984Y0054496D01*
G75*
G02*
X0032476Y0054004I0000000J-000492D01*
G01*
X0032476Y0053020D01*
G75*
G02*
X0031984Y0052528I-000492J0000000D01*
G01*
X0027063Y0052528D01*
G75*
G02*
X0026570Y0053020I0000000J0000492D01*
G01*
X0026570Y0054004D01*
G75*
G02*
X0027063Y0054496I0000492J0000000D01*
G01*
G37*
G36*
G01*
X0027063Y0051347D02*
X0031984Y0051347D01*
G75*
G02*
X0032476Y0050855I0000000J-000492D01*
G01*
X0032476Y0049870D01*
G75*
G02*
X0031984Y0049378I-000492J0000000D01*
G01*
X0027063Y0049378D01*
G75*
G02*
X0026570Y0049870I0000000J0000492D01*
G01*
X0026570Y0050855D01*
G75*
G02*
X0027063Y0051347I0000492J0000000D01*
G01*
G37*
G36*
G01*
X0034444Y0047902D02*
X0035429Y0047902D01*
G75*
G02*
X0035921Y0047410I0000000J-000492D01*
G01*
X0035921Y0042488D01*
G75*
G02*
X0035429Y0041996I-000492J0000000D01*
G01*
X0034444Y0041996D01*
G75*
G02*
X0033952Y0042488I0000000J0000492D01*
G01*
X0033952Y0047410D01*
G75*
G02*
X0034444Y0047902I0000492J0000000D01*
G01*
G37*
G36*
G01*
X0037594Y0047902D02*
X0038578Y0047902D01*
G75*
G02*
X0039070Y0047410I0000000J-000492D01*
G01*
X0039070Y0042488D01*
G75*
G02*
X0038578Y0041996I-000492J0000000D01*
G01*
X0037594Y0041996D01*
G75*
G02*
X0037102Y0042488I0000000J0000492D01*
G01*
X0037102Y0047410D01*
G75*
G02*
X0037594Y0047902I0000492J0000000D01*
G01*
G37*
G36*
G01*
X0040744Y0047902D02*
X0041728Y0047902D01*
G75*
G02*
X0042220Y0047410I0000000J-000492D01*
G01*
X0042220Y0042488D01*
G75*
G02*
X0041728Y0041996I-000492J0000000D01*
G01*
X0040744Y0041996D01*
G75*
G02*
X0040252Y0042488I0000000J0000492D01*
G01*
X0040252Y0047410D01*
G75*
G02*
X0040744Y0047902I0000492J0000000D01*
G01*
G37*
G36*
G01*
X0043893Y0047902D02*
X0044878Y0047902D01*
G75*
G02*
X0045370Y0047410I0000000J-000492D01*
G01*
X0045370Y0042488D01*
G75*
G02*
X0044878Y0041996I-000492J0000000D01*
G01*
X0043893Y0041996D01*
G75*
G02*
X0043401Y0042488I0000000J0000492D01*
G01*
X0043401Y0047410D01*
G75*
G02*
X0043893Y0047902I0000492J0000000D01*
G01*
G37*
G36*
G01*
X0047043Y0047902D02*
X0048027Y0047902D01*
G75*
G02*
X0048519Y0047410I0000000J-000492D01*
G01*
X0048519Y0042488D01*
G75*
G02*
X0048027Y0041996I-000492J0000000D01*
G01*
X0047043Y0041996D01*
G75*
G02*
X0046551Y0042488I0000000J0000492D01*
G01*
X0046551Y0047410D01*
G75*
G02*
X0047043Y0047902I0000492J0000000D01*
G01*
G37*
G36*
G01*
X0050193Y0047902D02*
X0051177Y0047902D01*
G75*
G02*
X0051669Y0047410I0000000J-000492D01*
G01*
X0051669Y0042488D01*
G75*
G02*
X0051177Y0041996I-000492J0000000D01*
G01*
X0050193Y0041996D01*
G75*
G02*
X0049700Y0042488I0000000J0000492D01*
G01*
X0049700Y0047410D01*
G75*
G02*
X0050193Y0047902I0000492J0000000D01*
G01*
G37*
G36*
G01*
X0053342Y0047902D02*
X0054326Y0047902D01*
G75*
G02*
X0054819Y0047410I0000000J-000492D01*
G01*
X0054819Y0042488D01*
G75*
G02*
X0054326Y0041996I-000492J0000000D01*
G01*
X0053342Y0041996D01*
G75*
G02*
X0052850Y0042488I0000000J0000492D01*
G01*
X0052850Y0047410D01*
G75*
G02*
X0053342Y0047902I0000492J0000000D01*
G01*
G37*
G36*
G01*
X0056492Y0047902D02*
X0057476Y0047902D01*
G75*
G02*
X0057968Y0047410I0000000J-000492D01*
G01*
X0057968Y0042488D01*
G75*
G02*
X0057476Y0041996I-000492J0000000D01*
G01*
X0056492Y0041996D01*
G75*
G02*
X0056000Y0042488I0000000J0000492D01*
G01*
X0056000Y0047410D01*
G75*
G02*
X0056492Y0047902I0000492J0000000D01*
G01*
G37*
G36*
G01*
X0059937Y0051347D02*
X0064858Y0051347D01*
G75*
G02*
X0065350Y0050855I0000000J-000492D01*
G01*
X0065350Y0049870D01*
G75*
G02*
X0064858Y0049378I-000492J0000000D01*
G01*
X0059937Y0049378D01*
G75*
G02*
X0059444Y0049870I0000000J0000492D01*
G01*
X0059444Y0050855D01*
G75*
G02*
X0059937Y0051347I0000492J0000000D01*
G01*
G37*
G36*
G01*
X0059937Y0054496D02*
X0064858Y0054496D01*
G75*
G02*
X0065350Y0054004I0000000J-000492D01*
G01*
X0065350Y0053020D01*
G75*
G02*
X0064858Y0052528I-000492J0000000D01*
G01*
X0059937Y0052528D01*
G75*
G02*
X0059444Y0053020I0000000J0000492D01*
G01*
X0059444Y0054004D01*
G75*
G02*
X0059937Y0054496I0000492J0000000D01*
G01*
G37*
G36*
G01*
X0059937Y0057646D02*
X0064858Y0057646D01*
G75*
G02*
X0065350Y0057154I0000000J-000492D01*
G01*
X0065350Y0056170D01*
G75*
G02*
X0064858Y0055677I-000492J0000000D01*
G01*
X0059937Y0055677D01*
G75*
G02*
X0059444Y0056170I0000000J0000492D01*
G01*
X0059444Y0057154D01*
G75*
G02*
X0059937Y0057646I0000492J0000000D01*
G01*
G37*
G36*
G01*
X0059937Y0060795D02*
X0064858Y0060795D01*
G75*
G02*
X0065350Y0060303I0000000J-000492D01*
G01*
X0065350Y0059319D01*
G75*
G02*
X0064858Y0058827I-000492J0000000D01*
G01*
X0059937Y0058827D01*
G75*
G02*
X0059444Y0059319I0000000J0000492D01*
G01*
X0059444Y0060303D01*
G75*
G02*
X0059937Y0060795I0000492J0000000D01*
G01*
G37*
G36*
G01*
X0059937Y0063945D02*
X0064858Y0063945D01*
G75*
G02*
X0065350Y0063453I0000000J-000492D01*
G01*
X0065350Y0062469D01*
G75*
G02*
X0064858Y0061977I-000492J0000000D01*
G01*
X0059937Y0061977D01*
G75*
G02*
X0059444Y0062469I0000000J0000492D01*
G01*
X0059444Y0063453D01*
G75*
G02*
X0059937Y0063945I0000492J0000000D01*
G01*
G37*
G36*
G01*
X0059937Y0067095D02*
X0064858Y0067095D01*
G75*
G02*
X0065350Y0066603I0000000J-000492D01*
G01*
X0065350Y0065618D01*
G75*
G02*
X0064858Y0065126I-000492J0000000D01*
G01*
X0059937Y0065126D01*
G75*
G02*
X0059444Y0065618I0000000J0000492D01*
G01*
X0059444Y0066603D01*
G75*
G02*
X0059937Y0067095I0000492J0000000D01*
G01*
G37*
G36*
G01*
X0059937Y0070244D02*
X0064858Y0070244D01*
G75*
G02*
X0065350Y0069752I0000000J-000492D01*
G01*
X0065350Y0068768D01*
G75*
G02*
X0064858Y0068276I-000492J0000000D01*
G01*
X0059937Y0068276D01*
G75*
G02*
X0059444Y0068768I0000000J0000492D01*
G01*
X0059444Y0069752D01*
G75*
G02*
X0059937Y0070244I0000492J0000000D01*
G01*
G37*
G36*
G01*
X0059937Y0073394D02*
X0064858Y0073394D01*
G75*
G02*
X0065350Y0072902I0000000J-000492D01*
G01*
X0065350Y0071918D01*
G75*
G02*
X0064858Y0071425I-000492J0000000D01*
G01*
X0059937Y0071425D01*
G75*
G02*
X0059444Y0071918I0000000J0000492D01*
G01*
X0059444Y0072902D01*
G75*
G02*
X0059937Y0073394I0000492J0000000D01*
G01*
G37*
G36*
G01*
X0038391Y0038768D02*
X0039750Y0038768D01*
G75*
G02*
X0040330Y0038187I0000000J-000581D01*
G01*
X0040330Y0037026D01*
G75*
G02*
X0039750Y0036445I-000581J0000000D01*
G01*
X0038391Y0036445D01*
G75*
G02*
X0037811Y0037026I0000000J0000581D01*
G01*
X0037811Y0038187D01*
G75*
G02*
X0038391Y0038768I0000581J0000000D01*
G01*
G37*
G36*
G01*
X0038391Y0034949D02*
X0039750Y0034949D01*
G75*
G02*
X0040330Y0034368I0000000J-000581D01*
G01*
X0040330Y0033207D01*
G75*
G02*
X0039750Y0032626I-000581J0000000D01*
G01*
X0038391Y0032626D01*
G75*
G02*
X0037811Y0033207I0000000J0000581D01*
G01*
X0037811Y0034368D01*
G75*
G02*
X0038391Y0034949I0000581J0000000D01*
G01*
G37*
G36*
G01*
X0061787Y0045845D02*
X0061787Y0047203D01*
G75*
G02*
X0062368Y0047784I0000581J0000000D01*
G01*
X0063529Y0047784D01*
G75*
G02*
X0064110Y0047203I0000000J-000581D01*
G01*
X0064110Y0045845D01*
G75*
G02*
X0063529Y0045264I-000581J0000000D01*
G01*
X0062368Y0045264D01*
G75*
G02*
X0061787Y0045845I0000000J0000581D01*
G01*
G37*
G36*
G01*
X0065606Y0045845D02*
X0065606Y0047203D01*
G75*
G02*
X0066187Y0047784I0000581J0000000D01*
G01*
X0067348Y0047784D01*
G75*
G02*
X0067929Y0047203I0000000J-000581D01*
G01*
X0067929Y0045845D01*
G75*
G02*
X0067348Y0045264I-000581J0000000D01*
G01*
X0066187Y0045264D01*
G75*
G02*
X0065606Y0045845I0000000J0000581D01*
G01*
G37*
G36*
G01*
X0039750Y0022201D02*
X0038391Y0022201D01*
G75*
G02*
X0037811Y0022782I0000000J0000581D01*
G01*
X0037811Y0023943D01*
G75*
G02*
X0038391Y0024524I0000581J0000000D01*
G01*
X0039750Y0024524D01*
G75*
G02*
X0040330Y0023943I0000000J-000581D01*
G01*
X0040330Y0022782D01*
G75*
G02*
X0039750Y0022201I-000581J0000000D01*
G01*
G37*
G36*
G01*
X0039750Y0026020D02*
X0038391Y0026020D01*
G75*
G02*
X0037811Y0026601I0000000J0000581D01*
G01*
X0037811Y0027762D01*
G75*
G02*
X0038391Y0028343I0000581J0000000D01*
G01*
X0039750Y0028343D01*
G75*
G02*
X0040330Y0027762I0000000J-000581D01*
G01*
X0040330Y0026601D01*
G75*
G02*
X0039750Y0026020I-000581J0000000D01*
G01*
G37*
D177*
X0034149Y0023689D03*
X0034149Y0031170D03*
X0026275Y0027429D03*
G36*
G01*
X0059917Y0082754D02*
X0059917Y0084112D01*
G75*
G02*
X0060498Y0084693I0000581J0000000D01*
G01*
X0061659Y0084693D01*
G75*
G02*
X0062240Y0084112I0000000J-000581D01*
G01*
X0062240Y0082754D01*
G75*
G02*
X0061659Y0082173I-000581J0000000D01*
G01*
X0060498Y0082173D01*
G75*
G02*
X0059917Y0082754I0000000J0000581D01*
G01*
G37*
G36*
G01*
X0063736Y0082754D02*
X0063736Y0084112D01*
G75*
G02*
X0064317Y0084693I0000581J0000000D01*
G01*
X0065478Y0084693D01*
G75*
G02*
X0066059Y0084112I0000000J-000581D01*
G01*
X0066059Y0082754D01*
G75*
G02*
X0065478Y0082173I-000581J0000000D01*
G01*
X0064317Y0082173D01*
G75*
G02*
X0063736Y0082754I0000000J0000581D01*
G01*
G37*
G36*
G01*
X0024878Y0036627D02*
X0024878Y0038645D01*
G75*
G02*
X0025739Y0039506I0000861J0000000D01*
G01*
X0027461Y0039506D01*
G75*
G02*
X0028322Y0038645I0000000J-000861D01*
G01*
X0028322Y0036627D01*
G75*
G02*
X0027461Y0035766I-000861J0000000D01*
G01*
X0025739Y0035766D01*
G75*
G02*
X0024878Y0036627I0000000J0000861D01*
G01*
G37*
G36*
G01*
X0031078Y0036627D02*
X0031078Y0038645D01*
G75*
G02*
X0031940Y0039506I0000861J0000000D01*
G01*
X0033662Y0039506D01*
G75*
G02*
X0034523Y0038645I0000000J-000861D01*
G01*
X0034523Y0036627D01*
G75*
G02*
X0033662Y0035766I-000861J0000000D01*
G01*
X0031940Y0035766D01*
G75*
G02*
X0031078Y0036627I0000000J0000861D01*
G01*
G37*
D94*
X0067023Y0020874D03*
X0071023Y0040874D03*
X0063023Y0040874D03*
D91*
X0069523Y0025874D03*
X0064523Y0025874D03*
X0069523Y0030874D03*
X0064523Y0030874D03*
X0069523Y0035874D03*
X0064523Y0035874D03*
D401*
X0028145Y0110362D03*
D402*
X0028145Y0100362D03*
X0028145Y0090362D03*
X0344906Y0186986D02*
%LPD*%
G01*
D11*
X0286638Y0159821D03*
X0286638Y0164545D03*
X0286638Y0155096D03*
X0286638Y0150372D03*
X0343430Y0175805D03*
X0343430Y0179742D03*
D64*
X0311048Y0173994D03*
X0311048Y0175962D03*
X0311048Y0177931D03*
X0311048Y0179899D03*
X0311048Y0181868D03*
X0293725Y0181868D03*
X0293725Y0179899D03*
X0293725Y0177931D03*
X0293725Y0175962D03*
X0293725Y0173994D03*
G36*
G01*
X0303528Y0160805D02*
X0300457Y0160805D01*
G75*
G02*
X0300182Y0161080I0000000J0000276D01*
G01*
X0300182Y0163285D01*
G75*
G02*
X0300457Y0163561I0000276J0000000D01*
G01*
X0303528Y0163561D01*
G75*
G02*
X0303804Y0163285I0000000J-000276D01*
G01*
X0303804Y0161080D01*
G75*
G02*
X0303528Y0160805I-000276J0000000D01*
G01*
G37*
G36*
G01*
X0303528Y0167104D02*
X0300457Y0167104D01*
G75*
G02*
X0300182Y0167380I0000000J0000276D01*
G01*
X0300182Y0169584D01*
G75*
G02*
X0300457Y0169860I0000276J0000000D01*
G01*
X0303528Y0169860D01*
G75*
G02*
X0303804Y0169584I0000000J-000276D01*
G01*
X0303804Y0167380D01*
G75*
G02*
X0303528Y0167104I-000276J0000000D01*
G01*
G37*
G36*
G01*
X0289197Y0154151D02*
X0289197Y0157222D01*
G75*
G02*
X0289473Y0157498I0000276J0000000D01*
G01*
X0291678Y0157498D01*
G75*
G02*
X0291953Y0157222I0000000J-000276D01*
G01*
X0291953Y0154151D01*
G75*
G02*
X0291678Y0153876I-000276J0000000D01*
G01*
X0289473Y0153876D01*
G75*
G02*
X0289197Y0154151I0000000J0000276D01*
G01*
G37*
G36*
G01*
X0295497Y0154151D02*
X0295497Y0157222D01*
G75*
G02*
X0295772Y0157498I0000276J0000000D01*
G01*
X0297977Y0157498D01*
G75*
G02*
X0298252Y0157222I0000000J-000276D01*
G01*
X0298252Y0154151D01*
G75*
G02*
X0297977Y0153876I-000276J0000000D01*
G01*
X0295772Y0153876D01*
G75*
G02*
X0295497Y0154151I0000000J0000276D01*
G01*
G37*
G36*
G01*
X0309434Y0160805D02*
X0306363Y0160805D01*
G75*
G02*
X0306087Y0161080I0000000J0000276D01*
G01*
X0306087Y0163285D01*
G75*
G02*
X0306363Y0163561I0000276J0000000D01*
G01*
X0309434Y0163561D01*
G75*
G02*
X0309709Y0163285I0000000J-000276D01*
G01*
X0309709Y0161080D01*
G75*
G02*
X0309434Y0160805I-000276J0000000D01*
G01*
G37*
G36*
G01*
X0309434Y0167104D02*
X0306363Y0167104D01*
G75*
G02*
X0306087Y0167380I0000000J0000276D01*
G01*
X0306087Y0169584D01*
G75*
G02*
X0306363Y0169860I0000276J0000000D01*
G01*
X0309434Y0169860D01*
G75*
G02*
X0309709Y0169584I0000000J-000276D01*
G01*
X0309709Y0167380D01*
G75*
G02*
X0309434Y0167104I-000276J0000000D01*
G01*
G37*
G36*
G01*
X0320083Y0157065D02*
X0317367Y0157065D01*
G75*
G02*
X0316461Y0157970I0000000J0000906D01*
G01*
X0316461Y0163246D01*
G75*
G02*
X0317367Y0164151I0000906J0000000D01*
G01*
X0320083Y0164151D01*
G75*
G02*
X0320989Y0163246I0000000J-000906D01*
G01*
X0320989Y0157970D01*
G75*
G02*
X0320083Y0157065I-000906J0000000D01*
G01*
G37*
G36*
G01*
X0331501Y0157065D02*
X0328784Y0157065D01*
G75*
G02*
X0327878Y0157970I0000000J0000906D01*
G01*
X0327878Y0163246D01*
G75*
G02*
X0328784Y0164151I0000906J0000000D01*
G01*
X0331501Y0164151D01*
G75*
G02*
X0332406Y0163246I0000000J-000906D01*
G01*
X0332406Y0157970D01*
G75*
G02*
X0331501Y0157065I-000906J0000000D01*
G01*
G37*
G36*
G01*
X0320083Y0166907D02*
X0317367Y0166907D01*
G75*
G02*
X0316461Y0167813I0000000J0000906D01*
G01*
X0316461Y0173088D01*
G75*
G02*
X0317367Y0173994I0000906J0000000D01*
G01*
X0320083Y0173994D01*
G75*
G02*
X0320989Y0173088I0000000J-000906D01*
G01*
X0320989Y0167813D01*
G75*
G02*
X0320083Y0166907I-000906J0000000D01*
G01*
G37*
G36*
G01*
X0331501Y0166907D02*
X0328784Y0166907D01*
G75*
G02*
X0327878Y0167813I0000000J0000906D01*
G01*
X0327878Y0173088D01*
G75*
G02*
X0328784Y0173994I0000906J0000000D01*
G01*
X0331501Y0173994D01*
G75*
G02*
X0332406Y0173088I0000000J-000906D01*
G01*
X0332406Y0167813D01*
G75*
G02*
X0331501Y0166907I-000906J0000000D01*
G01*
G37*
G36*
G01*
X0342150Y0160588D02*
X0342150Y0157872D01*
G75*
G02*
X0341245Y0156966I-000906J0000000D01*
G01*
X0335969Y0156966D01*
G75*
G02*
X0335063Y0157872I0000000J0000906D01*
G01*
X0335063Y0160588D01*
G75*
G02*
X0335969Y0161494I0000906J0000000D01*
G01*
X0341245Y0161494D01*
G75*
G02*
X0342150Y0160588I0000000J-000906D01*
G01*
G37*
G36*
G01*
X0342150Y0172006D02*
X0342150Y0169289D01*
G75*
G02*
X0341245Y0168384I-000906J0000000D01*
G01*
X0335969Y0168384D01*
G75*
G02*
X0335063Y0169289I0000000J0000906D01*
G01*
X0335063Y0172006D01*
G75*
G02*
X0335969Y0172911I0000906J0000000D01*
G01*
X0341245Y0172911D01*
G75*
G02*
X0342150Y0172006I0000000J-000906D01*
G01*
G37*
G36*
G01*
X0326776Y0176356D02*
X0324060Y0176356D01*
G75*
G02*
X0323154Y0177262I0000000J0000906D01*
G01*
X0323154Y0182537D01*
G75*
G02*
X0324060Y0183443I0000906J0000000D01*
G01*
X0326776Y0183443D01*
G75*
G02*
X0327682Y0182537I0000000J-000906D01*
G01*
X0327682Y0177262D01*
G75*
G02*
X0326776Y0176356I-000906J0000000D01*
G01*
G37*
G36*
G01*
X0338193Y0176356D02*
X0335477Y0176356D01*
G75*
G02*
X0334571Y0177262I0000000J0000906D01*
G01*
X0334571Y0182537D01*
G75*
G02*
X0335477Y0183443I0000906J0000000D01*
G01*
X0338193Y0183443D01*
G75*
G02*
X0339099Y0182537I0000000J-000906D01*
G01*
X0339099Y0177262D01*
G75*
G02*
X0338193Y0176356I-000906J0000000D01*
G01*
G37*
G36*
G01*
X0301107Y0154481D02*
X0301107Y0156499D01*
G75*
G02*
X0301968Y0157360I0000861J0000000D01*
G01*
X0303690Y0157360D01*
G75*
G02*
X0304552Y0156499I0000000J-000861D01*
G01*
X0304552Y0154481D01*
G75*
G02*
X0303690Y0153620I-000861J0000000D01*
G01*
X0301968Y0153620D01*
G75*
G02*
X0301107Y0154481I0000000J0000861D01*
G01*
G37*
G36*
G01*
X0307308Y0154481D02*
X0307308Y0156499D01*
G75*
G02*
X0308169Y0157360I0000861J0000000D01*
G01*
X0309891Y0157360D01*
G75*
G02*
X0310752Y0156499I0000000J-000861D01*
G01*
X0310752Y0154481D01*
G75*
G02*
X0309891Y0153620I-000861J0000000D01*
G01*
X0308169Y0153620D01*
G75*
G02*
X0307308Y0154481I0000000J0000861D01*
G01*
G37*
G36*
G01*
X0295162Y0161443D02*
X0295162Y0164120D01*
G75*
G02*
X0295497Y0164455I0000335J0000000D01*
G01*
X0298174Y0164455D01*
G75*
G02*
X0298508Y0164120I0000000J-000335D01*
G01*
X0298508Y0161443D01*
G75*
G02*
X0298174Y0161108I-000335J0000000D01*
G01*
X0295497Y0161108D01*
G75*
G02*
X0295162Y0161443I0000000J0000335D01*
G01*
G37*
G36*
G01*
X0288941Y0161443D02*
X0288941Y0164120D01*
G75*
G02*
X0289276Y0164455I0000335J0000000D01*
G01*
X0291953Y0164455D01*
G75*
G02*
X0292288Y0164120I0000000J-000335D01*
G01*
X0292288Y0161443D01*
G75*
G02*
X0291953Y0161108I-000335J0000000D01*
G01*
X0289276Y0161108D01*
G75*
G02*
X0288941Y0161443I0000000J0000335D01*
G01*
G37*
G36*
G01*
X0288941Y0166750D02*
X0288941Y0169427D01*
G75*
G02*
X0289276Y0169762I0000335J0000000D01*
G01*
X0291953Y0169762D01*
G75*
G02*
X0292288Y0169427I0000000J-000335D01*
G01*
X0292288Y0166750D01*
G75*
G02*
X0291953Y0166415I-000335J0000000D01*
G01*
X0289276Y0166415D01*
G75*
G02*
X0288941Y0166750I0000000J0000335D01*
G01*
G37*
G36*
G01*
X0295162Y0166750D02*
X0295162Y0169427D01*
G75*
G02*
X0295497Y0169762I0000335J0000000D01*
G01*
X0298174Y0169762D01*
G75*
G02*
X0298508Y0169427I0000000J-000335D01*
G01*
X0298508Y0166750D01*
G75*
G02*
X0298174Y0166415I-000335J0000000D01*
G01*
X0295497Y0166415D01*
G75*
G02*
X0295162Y0166750I0000000J0000335D01*
G01*
G37*
G36*
G01*
X0314355Y0160549D02*
X0311678Y0160549D01*
G75*
G02*
X0311343Y0160884I0000000J0000335D01*
G01*
X0311343Y0163561D01*
G75*
G02*
X0311678Y0163895I0000335J0000000D01*
G01*
X0314355Y0163895D01*
G75*
G02*
X0314689Y0163561I0000000J-000335D01*
G01*
X0314689Y0160884D01*
G75*
G02*
X0314355Y0160549I-000335J0000000D01*
G01*
G37*
G36*
G01*
X0314355Y0166769D02*
X0311678Y0166769D01*
G75*
G02*
X0311343Y0167104I0000000J0000335D01*
G01*
X0311343Y0169781D01*
G75*
G02*
X0311678Y0170116I0000335J0000000D01*
G01*
X0314355Y0170116D01*
G75*
G02*
X0314689Y0169781I0000000J-000335D01*
G01*
X0314689Y0167104D01*
G75*
G02*
X0314355Y0166769I-000335J0000000D01*
G01*
G37*
X0034260Y0317094D02*
G01*
G75*
D469*
X0058627Y0272015D02*
D03*
X0040910Y0272015D02*
D03*
D470*
X0083079Y0275342D02*
D03*
X0083079Y0302704D02*
D03*
D471*
X0059851Y0286582D02*
D03*
X0059851Y0302724D02*
D03*
D472*
X0041740Y0284811D02*
D03*
X0041740Y0300559D02*
D03*
D473*
X0103518Y0307750D02*
D03*
X0099778Y0298498D02*
D03*
D473*
X0107258Y0298498D02*
D03*
D390*
X0113197Y0275663D02*
D03*
D390*
X0109457Y0275663D02*
D03*
X0105717Y0275663D02*
D03*
X0105717Y0267199D02*
D03*
X0113197Y0267199D02*
D03*
D474*
X0099196Y0263347D02*
D03*
X0099196Y0276339D02*
D03*
D475*
X0099484Y0281633D02*
D03*
X0099484Y0293051D02*
D03*
D476*
X0066937Y0262448D02*
D03*
X0066937Y0268669D02*
D03*
X0066937Y0273039D02*
D03*
X0066937Y0279259D02*
D03*
D477*
X0044048Y0313125D02*
D03*
X0048182Y0313125D02*
D03*
X0085922Y0262570D02*
D03*
X0090056Y0262570D02*
D03*
X0081209Y0262570D02*
D03*
X0077075Y0262570D02*
D03*
X0061560Y0261678D02*
D03*
X0057426Y0261678D02*
D03*
D478*
X0105767Y0280781D02*
D03*
X0109704Y0280781D02*
D03*
X0106669Y0294456D02*
D03*
X0106669Y0285795D02*
D03*
X0113066Y0294456D02*
D03*
X0113066Y0285795D02*
D03*
D398*
X0113197Y0302829D02*
D03*
X0113197Y0299285D02*
D03*
D396*
X0089859Y0266828D02*
D03*
X0086315Y0266828D02*
D03*
X0080815Y0266828D02*
D03*
X0077272Y0266828D02*
D03*
X0049259Y0261678D02*
D03*
X0052803Y0261678D02*
D03*
D168*
X0052370Y0251346D02*
D03*
X0048433Y0251346D02*
D03*
D222*
X0105913Y0314141D02*
D03*
X0038984Y0314141D02*
D03*
X0086425Y0314141D02*
D03*
X0086228Y0253118D02*
D03*
X0111425Y0253118D02*
D03*
X0061819Y0253118D02*
D03*
X0078748Y0253118D02*
D03*
X0037213Y0253118D02*
D03*
X0113197Y0314141D02*
D03*
M02*
